<svg width="290" height="89" xmlns="http://www.w3.org/2000/svg"><g fill="none" fill-rule="evenodd"><g transform="translate(174.636 .068)"><rect fill="#FFF" width="115.364" height="88" rx="3"/><g transform="translate(12.498 12.435)"><ellipse fill="#1E3D49" cx="41.069" cy="26.918" rx="25.061" ry="24.928"/><ellipse fill="#D7DDDF" cx="74.941" cy="10.786" rx="10.844" ry="10.786"/><ellipse fill="#D7DDDF" cx="83.616" cy="30.572" rx="8.675" ry="8.629"/><ellipse fill="#D7DDDF" cx="71.086" cy="46.341" rx="6.988" ry="6.951"/><ellipse fill="#D7DDDF" cx="19.141" cy="57.127" rx="10.844" ry="10.786"/><ellipse fill="#D7DDDF" cx="6.988" cy="38.136" rx="6.988" ry="6.951"/></g></g><g transform="translate(0 .068)"><rect fill="#FFF" width="156.851" height="88" rx="3"/><g transform="translate(17.86 26.783)"><rect fill="#BBC3C6" opacity=".334" x="28.44" width="33.004" height="14.949" rx="7.475"/><ellipse fill="#1E3D49" cx="8.427" cy="19.557" rx="8.427" ry="8.344"/><ellipse fill="#D7DDDF" cx="117.972" cy="19.295" rx="3.16" ry="3.129"/><path stroke="#D7DDDF" stroke-width=".702" d="M16.853 19.295h97.959"/><ellipse fill="#D7DDDF" cx="74.786" cy="19.295" rx="4.564" ry="4.52"/><path d="M54.07 7.475H37.218c-5.43 0-9.83 4.401-9.83 9.83v1.99M37.217 32.506c-5.43 0-9.83-4.402-9.83-9.831v-3.38" stroke="#D7DDDF" stroke-width=".702"/><ellipse fill="#1E3D49" cx="36.866" cy="7.475" rx="4.564" ry="4.52"/><ellipse fill="#1E3D49" cx="53.72" cy="7.475" rx="4.564" ry="4.52"/><ellipse fill="#D7DDDF" cx="36.866" cy="32.175" rx="2.282" ry="2.26"/></g></g></g></svg>