<svg width="297" height="90" xmlns="http://www.w3.org/2000/svg" xmlns:xlink="http://www.w3.org/1999/xlink"><defs><rect id="a" x="0" y="0" width="58" height="50" rx="3"/></defs><g fill="none" fill-rule="evenodd"><g transform="translate(55)"><g transform="translate(4)"><g transform="translate(0 .066)"><rect stroke="#A6B0B5" stroke-width=".707" fill="#FFF" x=".353" y=".353" width="159.293" height="28.384" rx="14.138"/><path d="M145.778 19.162a5.172 5.172 0 1 0 0-10.344 5.172 5.172 0 0 0 0 10.344Zm6.464 1.293-2.812-2.813" stroke-opacity=".5" stroke="#1E3D49" stroke-width="1.6" stroke-linecap="round" stroke-linejoin="round"/><rect fill="#1E3D49" x="12.917" y="8.818" width="86" height="11.636" rx="5.818"/></g><rect fill="#1E3D49" x="170.417" width="67" height="29" rx="14.5"/><g transform="translate(102 38.066)"><mask id="b" fill="#fff"><use xlink:href="#a"/></mask><use fill="#FFF" xlink:href="#a"/><rect fill="#1E3D49" mask="url(#b)" x="16" y="43" width="27.725" height="29" rx="3.431"/><rect fill="#1E3D49" x="16" y="8" width="27.725" height="29" rx="3.431"/></g><g transform="translate(170 38.066)"><rect fill="#FFF" width="37" height="50" rx="3"/><rect fill="#1E3D49" x="3.627" y="3.623" width="29.745" height="21.739" rx="2.176"/><rect fill="#1E3D49" opacity=".18" x="3.627" y="28.261" width="29.745" height="3.623" rx="1.812"/><rect fill="#1E3D49" opacity=".18" x="3.99" y="34.358" width="20.314" height="1.449" rx=".725"/><rect fill="#1E3D49" opacity=".18" x="3.99" y="37.256" width="10.882" height="1.449" rx=".725"/><rect fill="#1E3D49" x="3.627" y="42.754" width="29.745" height="3.623" rx="1.812"/></g></g><circle stroke="#A6B0B5" fill="#FFF" cx="52" cy="67.066" r="21.5"/><path d="M51.043 54.066h2.176-2.176Zm-1.166 7.554c.81 0 1.469.658 1.469 1.47v6.61a1.47 1.47 0 0 1 2.938 0 1.47 1.47 0 0 1 2.938 0 1.47 1.47 0 0 1 2.938 0v8.08a2.204 2.204 0 0 1-2.203 2.204h-8.188a2.204 2.204 0 0 1-1.97-1.218l-3.227-7.188a1.448 1.448 0 0 1 .492-1.852c.64-.427 1.5-.28 1.874.336l1.382 1.842h.087V63.09c0-.811.658-1.469 1.47-1.469Zm0-6.61a5.883 5.883 0 0 1 5.876 5.876 5.825 5.825 0 0 1-1.189 3.544 5.928 5.928 0 0 1-1.75 1.543v-1.808a4.431 4.431 0 0 0 1.47-3.28 4.412 4.412 0 0 0-4.407-4.407 4.412 4.412 0 0 0-4.408 4.408c0 1.272.56 2.459 1.47 3.28v1.807a5.929 5.929 0 0 1-1.75-1.543A5.825 5.825 0 0 1 44 60.886a5.883 5.883 0 0 1 5.877-5.877Zm0 2.937c.782 0 1.518.304 2.072.856a2.938 2.938 0 0 1 .65 3.186 2.956 2.956 0 0 0-1.3-1.469 1.46 1.46 0 0 0-.386-.676 1.46 1.46 0 0 0-1.036-.427 1.493 1.493 0 0 0-1.422 1.102 2.956 2.956 0 0 0-1.3 1.465 2.937 2.937 0 0 1 2.709-4.037Z" fill="#1E3D49"/><path d="M.5 63.066a4.5 4.5 0 0 1 4.472 4H7v1H4.973a4.5 4.5 0 1 1-4.473-5Zm0 1A3.5 3.5 0 1 0 4 67.598l-.001-.065-.004-.16A3.5 3.5 0 0 0 .5 64.067Zm10.5 3v1H8v-1h3Zm4 0v1h-3v-1h3Zm4 0v1h-3v-1h3Zm4 0v1h-3v-1h3Zm4 0v1h-3v-1h3Zm4 0v1h-3v-1h3ZM99.5 63.066a4.5 4.5 0 1 1-4.473 5H94v-1h1.028a4.5 4.5 0 0 1 4.472-4Zm0 1a3.5 3.5 0 1 0 0 7 3.5 3.5 0 0 0 0-7Zm-22.5 3v1h-3v-1h3Zm4 0v1h-3v-1h3Zm4 0v1h-3v-1h3Zm4 0v1h-3v-1h3Zm4 0v1h-3v-1h3Z" fill="#1E3D49" fill-rule="nonzero"/><path d="M150.545 60.566h22.91" stroke="#1E3D49" stroke-dasharray="2,2" stroke-linecap="square"/><path d="M52 43v3h-1v-3h1Zm-.5-12a4.5 4.5 0 0 1 .5 8.972V42h-1v-2.027A4.5 4.5 0 0 1 51.5 31Zm0 1a3.5 3.5 0 1 0 0 7 3.5 3.5 0 0 0 0-7Z" fill="#1E3D49" fill-rule="nonzero"/></g><g><rect fill="#FFF" width="49" height="89" rx="3"/><rect fill="#1E3D49" x="15.927" y="16.02" width="24.553" height="5.34" rx="2.67"/><rect fill="#1E3D49" x="6.765" y="5.785" width="36.862" height="5.34" rx="2.67"/><rect stroke="#1E3D49" stroke-width=".89" x="6.701" y="15.575" width="6.294" height="6.23" rx=".89"/><rect stroke="#1E3D49" stroke-width=".89" x="6.701" y="24.475" width="6.294" height="6.23" rx=".89"/><rect stroke="#1E3D49" stroke-width=".89" x="6.701" y="33.375" width="6.294" height="6.23" rx=".89"/><rect fill="#1E3D49" x="15.927" y="24.92" width="22.268" height="5.34" rx="2.67"/><rect fill="#1E3D49" x="15.927" y="33.82" width="27.636" height="5.34" rx="2.67"/><rect fill="#1E3D49" x="15.734" y="61.783" width="26.523" height="5.34" rx="2.67"/><rect fill="#1E3D49" x="15.734" y="70.683" width="19.33" height="5.34" rx="2.67"/><rect fill="#1E3D49" x="15.734" y="79.583" width="22.477" height="5.34" rx="2.67"/><rect fill="#1E3D49" x="6.701" y="49.637" width="35.556" height="2.187" rx="1.093"/><rect stroke="#1E3D49" stroke-width="1.78" fill="#FFF" x="29.294" y="48.566" width="4.686" height="4.327" rx="2.164"/><rect stroke="#1E3D49" stroke-width=".89" x="6.701" y="61.338" width="6.294" height="6.23" rx=".89"/><rect stroke="#1E3D49" stroke-width=".89" x="6.701" y="70.238" width="6.294" height="6.23" rx=".89"/><rect stroke="#1E3D49" stroke-width=".89" x="6.701" y="79.138" width="6.294" height="6.23" rx=".89"/><path stroke="#1E3D49" stroke-width=".89" d="m13.486 24.92-3.9 4.005-1.798-1.78M13.486 70.31l-3.9 4.005-1.798-1.78"/></g></g></svg>