<?xml version="1.0" encoding="UTF-8"?>
<svg width="377px" height="84px" viewBox="0 0 377 84" version="1.1" xmlns="http://www.w3.org/2000/svg" xmlns:xlink="http://www.w3.org/1999/xlink">
    <title>Group 9</title>
    <defs>
        <path d="M12.4545815,0 C13.4270668,0 14.2703678,0.630498299 14.5534851,1.55002212 L14.5916974,1.6900757 L14.6204136,1.83222156 L14.7827865,2.79686465 L14.9619885,2.86359318 L15.2578187,2.98558339 L15.4315819,3.06411313 L16.24796,2.48330414 C16.5257264,2.28339902 16.8433544,2.1536755 17.1787831,2.1013078 L17.3478788,2.08160349 L17.5193285,2.0749911 C17.9859198,2.0749911 18.4326913,2.22112279 18.8102353,2.49673327 L18.9484728,2.60612399 L19.0706801,2.71942616 L20.3996596,4.04857982 C21.0820813,4.72432491 21.2380139,5.75219325 20.8036848,6.60120636 L20.7258203,6.74096143 L20.6370749,6.87578505 L20.0555098,7.68885657 L20.1266723,7.84628159 L20.2412861,8.12353032 L20.3017495,8.28302222 L21.28891,8.45055324 C22.2025778,8.60446832 22.9004946,9.29764786 23.0713035,10.1829441 L23.0948376,10.3322128 L23.1078619,10.4769881 L23.1111111,10.6200264 L23.1111111,12.4948932 C23.1111111,13.4671623 22.4805659,14.3104659 21.5611348,14.593736 L21.4210962,14.6319724 L21.2785132,14.6607906 L20.2916646,14.8247273 L20.232782,14.9834554 L20.1176394,15.2603227 L20.0454249,15.4172121 L20.6283065,16.2356538 C21.1527938,16.972413 21.1677976,17.9357341 20.6946594,18.6824828 L20.6002308,18.8198521 L20.5005713,18.944344 L20.391399,19.0617932 L19.0616682,20.3916946 C18.6464917,20.8068703 18.0948445,21.03612 17.5104995,21.03612 C17.1635571,21.03612 16.8276384,20.956481 16.5193552,20.8003556 L16.3675935,20.7159337 L16.2322377,20.6261247 L15.421497,20.046998 L15.2646874,20.1178029 L14.987438,20.2324166 L14.8273282,20.292396 L14.6604395,21.2800631 C14.5082646,22.1873773 13.816604,22.8875343 12.9333006,23.0667808 L12.7843685,23.0917782 L12.6399218,23.1062966 L12.4947449,23.1111111 L10.6117379,23.1111111 C9.63944432,23.1111111 8.79615408,22.4806506 8.51288956,21.5612593 L8.47465396,21.4212264 L8.44583388,21.2786337 L8.28138593,20.2915556 L8.13351718,20.2359532 L7.872379,20.1286667 L7.73427996,20.0671677 L6.90299795,20.6591531 C6.6253342,20.8589439 6.30773021,20.9886206 5.97233045,21.040972 L5.8032501,21.0606705 L5.63181892,21.0672812 C5.16522753,21.0672812 4.71845601,20.9211495 4.34091199,20.6455391 L4.20267453,20.5361483 L4.08046731,20.4228462 L2.75150674,19.0937112 C2.06907298,18.4181254 1.91312787,17.3901252 2.34746112,16.5410737 L2.42532648,16.4013132 L2.51440766,16.2660198 L3.08766104,15.4684768 L3.01588576,15.3122349 L2.89949275,15.0357118 L2.8380597,14.8768323 L1.83051422,14.7050711 C0.923550062,14.5528731 0.223538317,13.8612645 0.0443237742,12.9780732 L0.0193306944,12.8291604 L0.00481447538,12.684733 L4.76655752e-13,12.5395577 L4.76655752e-13,10.6608823 C4.76655752e-13,9.68859117 0.630461568,8.84530276 1.54985501,8.56203874 L1.68988832,8.5238032 L1.83205777,8.49505419 L2.79687968,8.33176566 L2.85700503,8.16878298 L2.97028661,7.89028808 L3.03891735,7.73423838 L2.44684196,6.90211744 C1.92239719,6.16541802 1.90744383,5.20210988 2.38052324,4.45532281 L2.47493953,4.31794577 L2.57458486,4.19344543 L2.68400089,4.07572693 L4.01560311,2.74846155 C4.42688977,2.33162031 4.97921526,2.10182439 5.5691501,2.10182439 C5.91616436,2.10182439 6.25207928,2.18139758 6.56031468,2.33745328 L6.71204899,2.42184036 L6.84802354,2.51208551 L7.64603706,3.08764444 L7.80317741,3.01592869 L8.07988862,2.89945439 L8.23768469,2.83804444 L8.41055114,1.83054673 C8.56258516,0.923586931 9.25416452,0.223546989 10.1373777,0.0443252848 L10.2862947,0.0193312154 L10.4307268,0.0048144674 L10.5759024,0 L12.4545815,0 Z M12.4547546,1.74974747 L10.5760756,1.74974747 C10.4028603,1.74974747 10.2497034,1.84747247 10.1783388,1.98813662 L10.1529417,2.05089046 L10.1357236,2.12237578 L9.88224262,3.60828334 C9.82310233,3.95285864 9.57932488,4.23270943 9.24630125,4.33842744 C8.82141137,4.47309907 8.4039273,4.6490533 8.00609295,4.86117507 C7.76672028,4.98902159 7.48925666,5.0056595 7.23264107,4.90691368 L7.1241112,4.85751757 L7.02489696,4.79547118 L5.82544375,3.93206732 C5.75251006,3.87950883 5.66433198,3.85157186 5.5691501,3.85157186 C5.4973881,3.85157186 5.42949046,3.86767911 5.37490906,3.89378453 L5.32511647,3.9229964 L5.25419939,3.98452355 L3.92022841,5.31399129 C3.80200249,5.43221702 3.76154124,5.60247626 3.80334426,5.74833698 L3.83112196,5.81888028 L3.87237722,5.8875472 L4.74532289,7.11403188 C4.94831013,7.39964268 4.97430238,7.77085344 4.81305145,8.08151774 C4.60908629,8.47498635 4.43813154,8.89541894 4.30513468,9.33064987 C4.22617251,9.58876216 4.04311959,9.79570052 3.79388828,9.9076399 L3.68313365,9.94966989 L3.57014248,9.97632424 L2.12234806,10.2206239 C1.95151291,10.249298 1.81669876,10.3710736 1.76958511,10.5218493 L1.75491363,10.5880561 L1.74975229,10.6608823 L1.74975229,12.5395577 C1.74975229,12.7126474 1.84749524,12.8658037 1.98821455,12.9372398 L2.05099436,12.9626718 L2.1223575,12.9799055 L3.60811979,13.2331876 C3.95217679,13.2919452 4.23232831,13.5358056 4.3382631,13.8688072 C4.47309152,14.294164 4.6490368,14.7116518 4.86133154,15.109809 C4.98899382,15.3496846 5.00547918,15.6270091 4.90668815,15.8834265 L4.85727945,15.9918695 L4.79538405,16.0907972 L3.93747912,17.2841419 C3.84098237,17.4197417 3.82938572,17.5933289 3.89427214,17.728582 L3.93304996,17.7926608 L3.98565746,17.8535466 L5.31791344,19.1856269 C5.40514901,19.2729817 5.51167119,19.3175337 5.63181892,19.3175337 C5.67888892,19.3175337 5.72307503,19.3108512 5.76049633,19.2999103 L5.81106956,19.2806081 L5.88461683,19.2363183 L7.11395427,18.3613628 C7.27277983,18.2483567 7.46074261,18.1886319 7.65280113,18.1886319 C7.80121052,18.1886319 7.94795687,18.2242499 8.08170484,18.2936577 C8.45635747,18.4883018 8.86285172,18.6554021 9.29009899,18.7902865 C9.54511967,18.8708729 9.74944728,19.0541676 9.85978969,19.30216 L9.90119888,19.4122927 L9.92742256,19.5246019 L10.1716493,20.9899607 C10.2002005,21.1599655 10.321932,21.2945048 10.4726725,21.3415493 L10.5388646,21.3562027 L10.6117379,21.3613636 L12.4947449,21.3613636 C12.6679713,21.3613636 12.8211123,21.263632 12.8924757,21.1229005 L12.9178733,21.0601138 L12.9350656,20.9887462 L13.1839805,19.5217437 C13.2423438,19.1760368 13.487794,18.8947419 13.8226554,18.7898189 C14.2553493,18.6540027 14.6754239,18.4800431 15.0709831,18.2729904 C15.3091128,18.1484017 15.5842826,18.1330643 15.8385099,18.2309114 L15.9460132,18.2797871 L16.0439641,18.3408493 L17.2521882,19.2044106 C17.3271334,19.258343 17.4151498,19.2863725 17.5104995,19.2863725 C17.58235,19.2863725 17.6492331,19.2703903 17.7047185,19.2431998 L17.7561664,19.2124501 L17.8245065,19.1543641 L19.1542276,17.8246456 C19.272947,17.7059264 19.3135983,17.5355305 19.2718599,17.3895756 L19.2441048,17.3189873 L19.2029734,17.250438 L18.3394088,16.0377454 C18.1355889,15.7521299 18.1096323,15.3799211 18.2716671,15.0687976 C18.4881879,14.6516203 18.66217,14.2320022 18.7885704,13.8223787 C18.868248,13.5649984 19.0516333,13.3587533 19.3007753,13.2474245 L19.4114657,13.205651 L19.5244668,13.1792081 L20.9898284,12.9349818 C21.1597981,12.9064366 21.2944075,12.78462 21.3414755,12.6338959 L21.3561357,12.5677177 L21.361361,12.4948932 L21.361361,10.6039268 C21.3636402,10.4381548 21.2714195,10.2908078 21.136132,10.2204752 L21.075665,10.1952186 L20.9965728,10.1757234 L19.5307839,9.92698282 C19.1851308,9.86862883 18.9040264,9.62341589 18.7988724,9.28853111 C18.6626378,8.85487413 18.4887249,8.43487183 18.2818881,8.04004817 C18.1575886,7.80267228 18.1420746,7.52801932 18.2392346,7.27397225 L18.2877843,7.16652527 L18.3488478,7.06804526 L19.2126994,5.85941726 C19.3099616,5.72290761 19.3218143,5.54913787 19.2569114,5.41375712 L19.2181037,5.34961606 L19.1654803,5.28871612 L17.8335085,3.95674696 C17.7460737,3.86931229 17.6394997,3.82473857 17.5195016,3.82473857 C17.4723488,3.82473857 17.4281299,3.83142003 17.3907341,3.8423446 L17.340244,3.86160898 L17.2667558,3.90591688 L16.0509911,4.77177094 C15.7643944,4.97555776 15.3922364,5.00117459 15.0807187,4.83848845 C14.6580016,4.61744266 14.2224502,4.43820308 13.7858392,4.30551928 C13.5275323,4.22671967 13.3203405,4.04380124 13.2081873,3.79457354 L13.1660683,3.68381214 L13.1393111,3.57064165 L12.8950131,2.12234292 C12.8586934,1.90595798 12.6740553,1.74974747 12.4547546,1.74974747 Z M11.523256,6.88888889 C13.9563188,6.88888889 15.935401,8.8679604 15.935401,11.3010101 C15.935401,13.7340598 13.9563188,15.7131313 11.523256,15.7131313 C9.09019326,15.7131313 7.11111111,13.7340598 7.11111111,11.3010101 C7.11111111,8.8679604 9.09019326,6.88888889 11.523256,6.88888889 Z M11.523256,8.57543509 C10.0205725,8.57543509 8.79766638,9.79833465 8.79766638,11.3010101 C8.79766638,12.8036856 10.0205725,14.0265851 11.523256,14.0265851 C13.0259396,14.0265851 14.2488457,12.8036856 14.2488457,11.3010101 C14.2488457,9.79833465 13.0259396,8.57543509 11.523256,8.57543509 Z" id="path-1"></path>
        <path d="M20.792687,1.89066258 C20.792687,2.93006686 19.94194,3.7808139 18.9025357,3.7808139 C18.732284,3.7808139 18.5717464,3.76189705 18.4204116,3.71486055 L15.0557684,7.06978966 C15.1028049,7.22112447 15.1217218,7.39086487 15.1217218,7.56111653 C15.1217218,8.60052081 14.2709748,9.45126784 13.2315705,9.45126784 C12.1921662,9.45126784 11.3414192,8.60052081 11.3414192,7.56111653 C11.3414192,7.39086487 11.360336,7.22112447 11.4073725,7.06978966 L8.99726342,4.65968058 C8.84592861,4.70671707 8.67618821,4.72563392 8.50593655,4.72563392 C8.33568489,4.72563392 8.1659445,4.70671707 8.01460969,4.65968058 L3.71434928,8.96914377 C3.76138578,9.12047858 3.78030263,9.28101618 3.78030263,9.45126784 C3.78030263,10.4906721 2.9295556,11.3414192 1.89015132,11.3414192 C0.850747035,11.3414192 0,10.4906721 0,9.45126784 C0,8.41186356 0.850747035,7.56111653 1.89015132,7.56111653 C2.06040298,7.56111653 2.22094058,7.58003338 2.37227539,7.62706987 L6.68173858,3.32680947 C6.63470209,3.17547466 6.61578524,3.00573427 6.61578524,2.83548261 C6.61578524,1.79607833 7.46653227,0.945331291 8.50593655,0.945331291 C9.54534083,0.945331291 10.3960879,1.79607833 10.3960879,2.83548261 C10.3960879,3.00573427 10.377171,3.17547466 10.3301345,3.32680947 L12.7402436,5.73691856 C12.8915784,5.68988206 13.0613188,5.67096521 13.2315705,5.67096521 C13.4018221,5.67096521 13.5715625,5.68988206 13.7228973,5.73691856 L17.0778264,2.37227539 C17.03079,2.22094058 17.0118731,2.06040298 17.0118731,1.89015132 C17.0118731,0.850747035 17.8626201,0 18.9020244,0 C19.9414287,0 20.7921757,0.850747035 20.7921757,1.89015132 L20.792687,1.89066258 Z" id="path-3"></path>
    </defs>
    <g id="Diagrams&amp;Illustrations" stroke="none" stroke-width="1" fill="none" fill-rule="evenodd">
        <g id="configure_empathy_platfotm_landing_card" transform="translate(-47.000000, -14.000000)">
            <g id="Group-9" transform="translate(47.000000, 14.000000)">
                <g id="Group-3" transform="translate(169.000000, 0.000000)">
                    <circle id="Oval" stroke="#A6B0B5" fill="#FFFFFF" cx="19" cy="19" r="18.5"></circle>
                    <g id="Group" transform="translate(6.000000, 7.000000)">
                        <g id="colours-/-blue" transform="translate(1.444444, 0.000000)">
                            <mask id="mask-2" fill="white">
                                <use xlink:href="#path-1"></use>
                            </mask>
                            <use id="Mask" fill="#000000" fill-rule="nonzero" xlink:href="#path-1"></use>
                            <g id="Group" mask="url(#mask-2)">
                                <g transform="translate(-1.444444, 0.000000)" id="colors-/-blue">
                                    <rect id="Rectangle" fill="#163046" x="0" y="0" width="26" height="23.1111111"></rect>
                                </g>
                            </g>
                        </g>
                    </g>
                </g>
                <path d="M207,19 L339,19 C343.418278,19 347,22.581722 347,27 L347,46 L347,46" id="Path-37" stroke="#1E3D49" stroke-dasharray="3,2"></path>
                <path d="M28,19 L161,19 C165.418278,19 169,22.581722 169,27 L169,46 L169,46" id="Path-37-Copy-6" stroke="#1E3D49" stroke-dasharray="3,2" transform="translate(98.500000, 32.500000) scale(-1, 1) translate(-98.500000, -32.500000) "></path>
                <line x1="92.5" y1="22.4310345" x2="92.5" y2="46.5689655" id="Line" stroke="#1E3D49" stroke-dasharray="3,2"></line>
                <line x1="156.5" y1="22.4310345" x2="156.5" y2="46.5689655" id="Line-Copy" stroke="#1E3D49" stroke-dasharray="3,2"></line>
                <line x1="220.5" y1="22.4310345" x2="220.5" y2="46.5689655" id="Line-Copy-2" stroke="#1E3D49" stroke-dasharray="3,2"></line>
                <line x1="284.5" y1="22.4310345" x2="284.5" y2="46.5689655" id="Line-Copy-3" stroke="#1E3D49" stroke-dasharray="3,2"></line>
                <g id="Group-2" transform="translate(0.000000, 46.000000)">
                    <rect id="Rectangle" fill="#FFFFFF" x="0" y="0" width="57" height="38" rx="4"></rect>
                    <g id="interactive-copy" transform="translate(22.000000, 8.000000)" fill="#1E3D49">
                        <path d="M5.22958619,1.94178007e-12 L6.84544116,1.94178007e-12 L5.22958619,1.94178007e-12 Z M4.36363636,5.82929681 C4.96610909,5.82929681 5.45454545,6.3368725 5.45454545,6.96295306 L5.45454545,6.96295306 L5.45454545,12.0644062 C5.45454545,11.4383257 5.94298182,10.93075 6.54545455,10.93075 C7.14792727,10.93075 7.63636364,11.4383257 7.63636364,12.0644062 C7.63636364,11.4383257 8.1248,10.93075 8.72727273,10.93075 C9.32974545,10.93075 9.81818182,11.4383257 9.81818182,12.0644062 C9.81818182,11.4383257 10.3066182,10.93075 10.9090909,10.93075 C11.5115636,10.93075 12,11.4383257 12,12.0644062 L12,12.0644062 L12,18.2995156 C12,19.2386742 11.2673818,20 10.3636364,20 L10.3636364,20 L4.28403636,20 C3.66425455,20 3.09763636,19.6360963 2.82047273,19.06001 L2.82047273,19.06001 L0.424581818,13.5136346 C0.182036364,13.0095354 0.338654545,12.3966431 0.789927273,12.0840185 C1.2648,11.7550314 1.90429091,11.8688127 2.18181818,12.3433234 L2.18181818,12.3433234 L3.20781818,13.7648906 L3.27272727,13.7648906 L3.27272727,6.96295306 C3.27272727,6.3368725 3.76116364,5.82929681 4.36363636,5.82929681 Z M4.36363636,0.727843656 C6.76974545,0.727843656 8.72727273,2.76207644 8.72727273,5.26246868 C8.72727273,6.2590281 8.42196364,7.20472415 7.84447273,7.99733882 C7.49261818,8.48016302 7.04738182,8.88574744 6.54545455,9.18816914 L6.54545455,9.18816914 L6.54545455,7.79312954 C7.22098182,7.15994473 7.63636364,6.24432836 7.63636364,5.26246868 C7.63636364,3.3871745 6.16821818,1.86149991 4.36363636,1.86149991 C2.55905455,1.86149991 1.09090909,3.3871745 1.09090909,5.26246868 C1.09090909,6.24432836 1.50629091,7.15994473 2.18181818,7.79312954 L2.18181818,7.79312954 L2.18181818,9.18816914 C1.67989091,8.88574744 1.23465455,8.48012523 0.8828,7.99733882 C0.305272727,7.20472415 0,6.2590281 0,5.26246868 C0,2.76207644 1.95752727,0.727843656 4.36363636,0.727843656 Z M4.36374545,2.99515617 C4.94476364,2.99515617 5.49098182,3.22944513 5.90294545,3.65566209 C6.31727273,4.08429752 6.54545455,4.65494229 6.54545455,5.26246868 C6.54545455,5.55918431 6.49014545,5.84739752 6.38625455,6.11410905 C6.19803636,5.63162494 5.85472727,5.23133092 5.42061818,4.98037721 C5.37261818,4.78463257 5.27469091,4.60528815 5.13334545,4.45904649 C4.92738182,4.24599469 4.65418182,4.12881242 4.36367273,4.12881242 L4.36367273,4.12881242 C3.86316364,4.13115531 3.43069091,4.49638157 3.30785455,4.97969702 C2.87429091,5.22993274 2.5312,5.62916869 2.34250909,6.11036798 C2.22494545,5.80813522 2.16861818,5.47967722 2.18465455,5.14668459 C2.24250909,3.94561357 3.19534545,3.00055993 4.35378182,2.99515617 L4.35378182,2.99515617 Z" id="Combined-Shape"></path>
                    </g>
                </g>
                <g id="Group-4" transform="translate(64.000000, 46.000000)">
                    <rect id="Rectangle-Copy" fill="#FFFFFF" x="0" y="0" width="57" height="38" rx="4"></rect>
                    <g id="01_icon/menu/insight-copy-2" transform="translate(18.000000, 14.000000)">
                        <mask id="mask-4" fill="white">
                            <use xlink:href="#path-3"></use>
                        </mask>
                        <use id="Mask" fill="#1E3D49" fill-rule="nonzero" xlink:href="#path-3"></use>
                        <g id="Group" mask="url(#mask-4)">
                            <g transform="translate(-1.873280, -6.599425)" id="00_colores/anaranjado">
                                <rect id="Rectangle" fill="#1E3D49" x="0" y="0" width="24.5407799" height="24.5407799"></rect>
                            </g>
                        </g>
                    </g>
                </g>
                <g id="Group-5" transform="translate(128.000000, 46.000000)">
                    <rect id="Rectangle-Copy-2" fill="#FFFFFF" x="0" y="0" width="57" height="38" rx="4"></rect>
                    <g id="Group-8-Copy" transform="translate(18.000000, 9.000000)">
                        <path d="M11,18.7971681 C15.306257,18.7971681 18.7971681,15.306257 18.7971681,11 C18.7971681,6.69374297 15.306257,3.2028319 11,3.2028319 C6.69374297,3.2028319 3.2028319,6.69374297 3.2028319,11 C3.2028319,15.306257 6.69374297,18.7971681 11,18.7971681 Z" id="Oval" stroke="#1E3D49" stroke-width="1.6" stroke-linecap="round" stroke-linejoin="round" stroke-dasharray="35.4416725606802,70.88334512136041" transform="translate(11.000000, 11.000000) rotate(-49.000000) translate(-11.000000, -11.000000) "></path>
                        <path d="M11.0815764,15.0196748 C13.4304439,15.0196748 15.3345772,13.1155415 15.3345772,10.766674 C15.3345772,8.41780653 13.4304439,6.51367322 11.0815764,6.51367322 C8.73270893,6.51367322 6.82857562,8.41780653 6.82857562,10.766674 C6.82857562,13.1155415 8.73270893,15.0196748 11.0815764,15.0196748 Z" id="Oval" stroke="#1E3D49" stroke-width="1.6" stroke-linecap="round" stroke-linejoin="round" stroke-dasharray="19.84733775415394,141.7666902427208" transform="translate(11.081576, 10.766674) rotate(-43.000000) translate(-11.081576, -10.766674) "></path>
                        <ellipse id="Oval-Copy-11" fill="#1E3D49" cx="11" cy="10.9607185" rx="1.42484519" ry="1.41766693"></ellipse>
                    </g>
                </g>
                <g id="Group-6" transform="translate(192.000000, 46.000000)">
                    <rect id="Rectangle-Copy-3" fill="#FFFFFF" x="0" y="0" width="57" height="38" rx="4"></rect>
                    <g id="Group-64-Copy-4" transform="translate(17.000000, 7.000000)" fill="#1E3D49" fill-rule="nonzero">
                        <g id="01_icon/menu/insight-copy">
                            <path d="M11.5,4.79166667 C12.005215,4.79166667 12.4191208,5.18260811 12.4557048,5.67847846 L12.4583333,5.75 L12.4587192,5.9137294 C13.5751603,6.3085149 14.375,7.37335117 14.375,8.625 C14.375,9.87664883 13.5751603,10.9414851 12.4587192,11.3362706 L12.4583333,18.2083333 C12.4583333,18.7376062 12.0292729,19.1666667 11.5,19.1666667 C10.994785,19.1666667 10.5808792,18.7757252 10.5442952,18.2798549 L10.5416667,18.2083333 L10.5412808,11.3362706 C9.42483966,10.9414851 8.625,9.87664883 8.625,8.625 C8.625,7.37335117 9.42483966,6.3085149 10.5412808,5.9137294 L10.5416667,5.75 C10.5416667,5.22072711 10.9707271,4.79166667 11.5,4.79166667 Z M11.5,7.66666667 C10.9707271,7.66666667 10.5416667,8.09572711 10.5416667,8.625 C10.5416667,9.15427289 10.9707271,9.58333333 11.5,9.58333333 C12.0292729,9.58333333 12.4583333,9.15427289 12.4583333,8.625 C12.4583333,8.09572711 12.0292729,7.66666667 11.5,7.66666667 Z" id="Combined-Shape"></path>
                            <path d="M4.79166667,4.79166667 C5.29688169,4.79166667 5.71078745,5.18260811 5.74737142,5.67847846 L5.75,5.75 L5.75038591,11.6637294 C6.86682701,12.0585149 7.66666667,13.1233512 7.66666667,14.375 C7.66666667,15.6266488 6.86682701,16.6914851 5.75038591,17.0862706 L5.75,18.2083333 C5.75,18.7376062 5.32093955,19.1666667 4.79166667,19.1666667 C4.28645164,19.1666667 3.87254588,18.7757252 3.83596192,18.2798549 L3.83333333,18.2083333 L3.83294743,17.0862706 C2.71650632,16.6914851 1.91666667,15.6266488 1.91666667,14.375 C1.91666667,13.1233512 2.71650632,12.0585149 3.83294743,11.6637294 L3.83333333,5.75 C3.83333333,5.22072711 4.26239378,4.79166667 4.79166667,4.79166667 Z M4.79166667,13.4166667 C4.26239378,13.4166667 3.83333333,13.8457271 3.83333333,14.375 C3.83333333,14.9042729 4.26239378,15.3333333 4.79166667,15.3333333 C5.32093955,15.3333333 5.75,14.9042729 5.75,14.375 C5.75,13.8457271 5.32093955,13.4166667 4.79166667,13.4166667 Z" id="Combined-Shape"></path>
                            <path d="M18.2083333,4.79166667 C18.7135484,4.79166667 19.1274541,5.18260811 19.1640381,5.67847846 L19.1666667,5.75 L19.1670526,8.7887294 C20.2834937,9.1835149 21.0833333,10.2483512 21.0833333,11.5 C21.0833333,12.7516488 20.2834937,13.8164851 19.1670526,14.2112706 L19.1666667,18.2083333 C19.1666667,18.7376062 18.7376062,19.1666667 18.2083333,19.1666667 C17.7031183,19.1666667 17.2892125,18.7757252 17.2526286,18.2798549 L17.25,18.2083333 L17.2496141,14.2112706 C16.133173,13.8164851 15.3333333,12.7516488 15.3333333,11.5 C15.3333333,10.2483512 16.133173,9.1835149 17.2496141,8.7887294 L17.25,5.75 C17.25,5.22072711 17.6790604,4.79166667 18.2083333,4.79166667 Z M18.2083333,10.5416667 C17.6790604,10.5416667 17.25,10.9707271 17.25,11.5 C17.25,12.0292729 17.6790604,12.4583333 18.2083333,12.4583333 C18.7376062,12.4583333 19.1666667,12.0292729 19.1666667,11.5 C19.1666667,10.9707271 18.7376062,10.5416667 18.2083333,10.5416667 Z" id="Combined-Shape"></path>
                        </g>
                    </g>
                </g>
                <g id="Group-7" transform="translate(256.000000, 46.000000)">
                    <rect id="Rectangle-Copy-4" fill="#FFFFFF" x="0" y="0" width="57" height="38" rx="4"></rect>
                    <g id="search" transform="translate(21.000000, 11.000000)" stroke="#1E3D49" stroke-linecap="round" stroke-linejoin="round" stroke-width="1.6">
                        <circle id="Oval" cx="6.66666667" cy="6.66666667" r="6.66666667"></circle>
                        <line x1="15" y1="15" x2="11.375" y2="11.375" id="Path"></line>
                    </g>
                </g>
                <g id="Group-8" transform="translate(320.000000, 46.000000)">
                    <rect id="Rectangle-Copy-5" fill="#FFFFFF" x="0" y="0" width="57" height="38" rx="4"></rect>
                    <g id="Group-6-Copy" transform="translate(21.000000, 11.000000)">
                        <rect id="Rectangle" stroke="#1E3D49" stroke-width="1.42222222" x="0.711111111" y="0.711111111" width="14.5777778" height="14.5777778" rx="2.66666667"></rect>
                        <path d="M7.88888889,-0.888888889 C8.29891848,-0.888888889 8.63484199,-0.598799008 8.66453332,-0.230848834 L8.66666667,-0.177777778 L8.66666667,9.06666667 C8.66666667,9.45940249 8.31844369,9.77777778 7.88888889,9.77777778 C7.4788593,9.77777778 7.14293579,9.4876879 7.11324445,9.11973772 L7.11111111,9.06666667 L7.11111111,-0.177777778 C7.11111111,-0.5705136 7.45933408,-0.888888889 7.88888889,-0.888888889 Z" id="Path" fill="#1E3D49" fill-rule="nonzero" transform="translate(7.888889, 4.444444) rotate(-270.000000) translate(-7.888889, -4.444444) "></path>
                        <path d="M7.88888889,2.66666667 C8.29891848,2.66666667 8.63484199,2.95675655 8.66453332,3.32470672 L8.66666667,3.37777778 L8.66666667,12.6222222 C8.66666667,13.014958 8.31844369,13.3333333 7.88888889,13.3333333 C7.4788593,13.3333333 7.14293579,13.0432435 7.11324445,12.6752933 L7.11111111,12.6222222 L7.11111111,3.37777778 C7.11111111,2.98504196 7.45933408,2.66666667 7.88888889,2.66666667 Z" id="Path-Copy-3" fill="#1E3D49" fill-rule="nonzero" transform="translate(7.888889, 8.000000) rotate(-270.000000) translate(-7.888889, -8.000000) "></path>
                        <path d="M7.88888889,6.22222222 C8.29891848,6.22222222 8.63484199,6.5123121 8.66453332,6.88026228 L8.66666667,6.93333333 L8.66666667,16.1777778 C8.66666667,16.5705136 8.31844369,16.8888889 7.88888889,16.8888889 C7.4788593,16.8888889 7.14293579,16.598799 7.11324445,16.2308488 L7.11111111,16.1777778 L7.11111111,6.93333333 C7.11111111,6.54059751 7.45933408,6.22222222 7.88888889,6.22222222 Z" id="Path-Copy-4" fill="#1E3D49" fill-rule="nonzero" transform="translate(7.888889, 11.555556) rotate(-270.000000) translate(-7.888889, -11.555556) "></path>
                    </g>
                </g>
            </g>
        </g>
    </g>
</svg>