<svg width="315" height="89" xmlns="http://www.w3.org/2000/svg"><g fill="none" fill-rule="evenodd"><path stroke="#1E3D49" stroke-linecap="square" stroke-dasharray="2,2" d="M49.5 48.5h35"/><circle cx="22" cy="22" r="21.5" fill="#FFF" stroke="#A6B0B5" transform="translate(84 29)"/><g stroke="#1E3D49" stroke-width="2"><path d="M105.2 39.617a1.6 1.6 0 0 1 1.6 0l8.658 4.998a1.599 1.599 0 0 1 .8 1.386V56a1.599 1.599 0 0 1-.8 1.386l-8.658 4.998a1.6 1.6 0 0 1-1.6 0l-8.658-4.998a1.6 1.6 0 0 1-.8-1.386V46c0-.572.305-1.1.8-1.386Z" fill="#FFF"/><path d="M95.275 44.825 106 51v12.398M106 51l10.725-6.175"/></g><path fill="#1E3D49" d="m106 51 10-5.786v11.121L106 62z"/><g><rect fill="#FFF" width="49" height="89" rx="2.67"/><rect fill="#1E3D49" x="15.927" y="16.02" width="24.553" height="5.34" rx="2.67"/><rect fill="#1E3D49" x="6.765" y="5.785" width="36.862" height="5.34" rx="2.67"/><rect stroke="#1E3D49" stroke-width=".89" x="6.701" y="15.575" width="6.294" height="6.23" rx=".89"/><rect stroke="#1E3D49" stroke-width=".89" x="6.701" y="24.475" width="6.294" height="6.23" rx=".89"/><rect stroke="#1E3D49" stroke-width=".89" x="6.701" y="33.375" width="6.294" height="6.23" rx=".89"/><rect fill="#1E3D49" x="15.927" y="24.92" width="22.268" height="5.34" rx="2.67"/><rect fill="#1E3D49" x="15.927" y="33.82" width="27.636" height="5.34" rx="2.67"/><rect fill="#1E3D49" x="15.734" y="61.783" width="26.523" height="5.34" rx="2.67"/><rect fill="#1E3D49" x="15.734" y="70.683" width="19.33" height="5.34" rx="2.67"/><rect fill="#1E3D49" x="15.734" y="79.583" width="22.477" height="5.34" rx="2.67"/><rect fill="#1E3D49" x="6.701" y="49.637" width="35.556" height="2.187" rx="1.093"/><rect stroke="#1E3D49" stroke-width="1.78" fill="#FFF" x="29.294" y="48.566" width="4.686" height="4.327" rx="2.164"/><rect stroke="#1E3D49" stroke-width=".89" x="6.701" y="61.338" width="6.294" height="6.23" rx=".89"/><rect stroke="#1E3D49" stroke-width=".89" x="6.701" y="70.238" width="6.294" height="6.23" rx=".89"/><rect stroke="#1E3D49" stroke-width=".89" x="6.701" y="79.138" width="6.294" height="6.23" rx=".89"/><path stroke="#1E3D49" stroke-width=".89" d="m13.486 24.92-3.9 4.005-1.798-1.78M13.486 70.31l-3.9 4.005-1.798-1.78"/></g><g transform="translate(155 61)"><rect fill="#FFF" width="121" height="28" rx="3"/><rect fill="#1E3D49" x="33.957" y="9" width="76.96" height="9" rx="4.5"/><path d="M13.189 16.55c1.76 0 3.188-1.492 3.188-3.333 0-1.84-1.427-3.333-3.188-3.333-1.761 0-3.189 1.492-3.189 3.333 0 1.841 1.428 3.334 3.189 3.334Zm3.986.834-1.734-1.812" stroke="#1E3D49" stroke-linecap="round" stroke-linejoin="round"/><rect fill="#D7DDDF" x="22.25" y="9" width="19.681" height="9" rx="4.5"/></g><g transform="translate(155)"><rect stroke="#A6B0B5" stroke-width=".707" fill="#FFF" x=".353" y=".353" width="159.293" height="28.384" rx="14.138"/><path d="M145.778 19.162a5.172 5.172 0 1 0 0-10.344 5.172 5.172 0 0 0 0 10.344Zm6.464 1.293-2.812-2.813" stroke-opacity=".5" stroke="#1E3D49" stroke-width="1.6" stroke-linecap="round" stroke-linejoin="round"/><rect fill="#1E3D49" x="12.917" y="8.818" width="86" height="11.636" rx="5.818"/></g><path d="M106 29.5v-7a8 8 0 0 1 8-8h41M127.94 48.271h77a8 8 0 0 1 8 8v5" stroke="#1E3D49" stroke-dasharray="3,2"/></g></svg>