<svg width="365" height="92" xmlns="http://www.w3.org/2000/svg"><g fill="none" fill-rule="evenodd"><g transform="translate(0 8)"><rect fill="#FFF" width="76" height="83" rx="3"/><path d="M28.639 17.76h28.273c.621 0 1.125.501 1.125 1.12 0 .62-.504 1.12-1.125 1.12H28.639a1.123 1.123 0 0 1-1.125-1.12c0-.619.504-1.12 1.125-1.12Z" fill="#1E3D49"/><path d="M37.914 16.663h.302c1.23 0 2.226.993 2.226 2.217a2.222 2.222 0 0 1-2.226 2.218h-.302a2.222 2.222 0 0 1-2.226-2.218c0-1.224.997-2.217 2.226-2.217Z" fill="#FFF"/><path d="M37.914 16.663h.302c1.23 0 2.226.993 2.226 2.217a2.222 2.222 0 0 1-2.226 2.217h-.302a2.222 2.222 0 0 1-2.226-2.217c0-1.224.997-2.217 2.226-2.217Z" stroke="#1E3D49" stroke-width="1.831"/><path d="M28.639 33.083h28.273c.621 0 1.125.501 1.125 1.12 0 .62-.504 1.12-1.125 1.12H28.639a1.123 1.123 0 0 1-1.125-1.12c0-.619.504-1.12 1.125-1.12Z" fill="#1E3D49"/><path d="M28.757 31.986h.303c1.229 0 2.226.993 2.226 2.217a2.222 2.222 0 0 1-2.226 2.218h-.303a2.222 2.222 0 0 1-2.226-2.218c0-1.224.997-2.217 2.226-2.217Z" fill="#FFF"/><path d="M28.757 31.986h.303c1.229 0 2.225.993 2.225 2.217a2.222 2.222 0 0 1-2.225 2.218h-.303a2.222 2.222 0 0 1-2.226-2.218c0-1.224.997-2.217 2.226-2.217Z" stroke="#1E3D49" stroke-width="1.831"/><path d="M28.639 48.406h28.273c.621 0 1.125.502 1.125 1.12 0 .62-.504 1.12-1.125 1.12H28.639a1.123 1.123 0 0 1-1.125-1.12c0-.618.504-1.12 1.125-1.12Z" fill="#1E3D49"/><path d="M56.227 47.31h.302c1.23 0 2.226.992 2.226 2.216a2.222 2.222 0 0 1-2.226 2.218h-.302a2.222 2.222 0 0 1-2.226-2.218c0-1.224.997-2.217 2.226-2.217Z" fill="#FFF"/><path d="M56.227 47.309h.302c1.23 0 2.226.993 2.226 2.217a2.222 2.222 0 0 1-2.226 2.218h-.302a2.222 2.222 0 0 1-2.226-2.218c0-1.224.997-2.217 2.226-2.217Z" stroke="#1E3D49" stroke-width="1.831"/><path d="M28.639 63.729h28.273c.621 0 1.125.502 1.125 1.12 0 .62-.504 1.121-1.125 1.121H28.639a1.123 1.123 0 0 1-1.125-1.12c0-.62.504-1.121 1.125-1.121Z" fill="#1E3D49"/><path d="M45.917 62.632h.302c1.23 0 2.226.993 2.226 2.217a2.222 2.222 0 0 1-2.226 2.218h-.302a2.222 2.222 0 0 1-2.226-2.218c0-1.224.997-2.217 2.226-2.217Z" fill="#FFF"/><path d="M45.917 62.632h.302c1.23 0 2.226.993 2.226 2.217a2.222 2.222 0 0 1-2.226 2.218h-.302a2.222 2.222 0 0 1-2.226-2.218c0-1.224.997-2.217 2.226-2.217Z" stroke="#1E3D49" stroke-width="1.831"/><path fill="#FFF" d="m18.835 14.341 4.334 3.137-1.655 5.074h-5.357l-1.655-5.074z"/><path stroke="#1E3D49" stroke-width="1.831" d="m18.835 14.341 4.334 3.137-1.655 5.074h-5.357l-1.655-5.074z"/><path fill="#1E3D49" d="m18.835 45.15 4.394 4.376-4.394 4.377-4.393-4.377z"/><path stroke="#1E3D49" stroke-width="1.831" d="m18.835 45.15 4.394 4.376-4.394 4.377-4.393-4.377z"/><path fill="#FFF" d="m18.835 60.154 3.03 1.098 1.613 2.782-.56 3.163-2.47 2.065h-3.225l-2.47-2.065-.56-3.163 1.612-2.782z"/><path stroke="#1E3D49" stroke-width="1.831" d="m18.835 60.154 3.03 1.098 1.613 2.782-.56 3.163-2.47 2.065h-3.225l-2.47-2.065-.56-3.163 1.612-2.782z"/><path fill="#FFF" d="m18.835 30.361 3.341 5.763h-6.681z"/><path stroke="#1E3D49" stroke-width="1.831" d="m18.835 30.361 3.341 5.763h-6.681z"/></g><g transform="translate(94.5 58.068)"><rect fill="#FFF" width="159" height="33" rx="3"/><rect fill="#1E3D49" x="88.836" y="12" width="62.5" height="11" rx="5.5"/><rect fill="#1E3D49" x="8" y="12" width="37.5" height="11" rx="5.5"/><circle fill="#1E3D49" cx="67.168" cy="17.1" r="13.168"/><text font-family="Montserrat-Regular, Montserrat" font-size="22" fill="#FFF">
                                <tspan x="61" y="24.932">=</tspan>
                            </text></g><g transform="translate(154.5)"><circle stroke="#A6B0B5" stroke-width=".887" fill="#FFF" cx="22" cy="22" r="21.557"/><path d="M20.719 27.271a6.55 6.55 0 1 0 0-13.101 6.55 6.55 0 0 0 0 13.101Zm8.188 1.638-3.562-3.562" stroke="#1E3D49" stroke-width="2.027" stroke-linecap="round" stroke-linejoin="round"/></g><path stroke="#1E3D49" stroke-linecap="square" stroke-dasharray="2,2" d="M77 22.5h78M199 22.5h73.5"/><path stroke="#1E3D49" stroke-dasharray="3,2" d="M176.5 44v14.068"/><g><path d="M275 8h87a3 3 0 0 1 3 3v77a3 3 0 0 1-3 3h-87a3 3 0 0 1-3-3V11a3 3 0 0 1 3-3Z" fill="#FFF"/><path d="M292.814 13.927c7.338 0 13.286 5.93 13.286 13.245 0 7.315-5.948 13.245-13.286 13.245-7.337 0-13.285-5.93-13.285-13.245 0-7.314 5.948-13.245 13.285-13.245ZM335.329 13.927h21.257a2.653 2.653 0 0 1 2.657 2.65v21.19a2.653 2.653 0 0 1-2.657 2.65h-21.257a2.653 2.653 0 0 1-2.658-2.65v-21.19a2.653 2.653 0 0 1 2.658-2.65ZM283.071 53.661h19.486a3.537 3.537 0 0 1 3.543 3.532V76.62a3.537 3.537 0 0 1-3.543 3.532h-19.486a3.537 3.537 0 0 1-3.542-3.532V57.193a3.537 3.537 0 0 1 3.542-3.532Z" fill="#1E3D49"/><path d="M345.957 53.661c7.338 0 13.286 5.93 13.286 13.245 0 7.315-5.948 13.245-13.286 13.245-7.337 0-13.286-5.93-13.286-13.245 0-7.314 5.949-13.245 13.286-13.245Z" fill-opacity=".142" fill="#1E3D49"/><g fill="#1E3D49"><path d="m316.177 30.957.176.56-6.319.826 5.137 1.068c8.803 2.267 15.938 6.083 21.398 11.441 6.595 6.474 9.87 14.34 9.831 23.594l-.005.48-.887-.006c.155-9.353-3.074-17.269-9.68-23.754-5.25-5.153-12.064-8.845-20.422-11.077l-.536-.14-5.106-1.062 4.376 3.048-.651.388-5.525-3.85-.535-.372.772-.101 7.976-1.043Z"/></g></g></g></svg>