<svg width="344" height="95" xmlns="http://www.w3.org/2000/svg" xmlns:xlink="http://www.w3.org/1999/xlink"><defs><path d="M20.584 32.404c.372.383.883.598 1.417.596h.002c.533 0 1.043-.216 1.414-.598l4.954-5.075a9.028 9.028 0 0 0-.002-12.74 9.13 9.13 0 0 0-12.736 0 9.025 9.025 0 0 0-.007 12.736l4.958 5.081Zm-3.79-16.655a7.36 7.36 0 0 1 10.413 0 7.374 7.374 0 0 1 .001 10.421l-4.964 5.088a.344.344 0 0 1-.489 0l-4.962-5.088a7.38 7.38 0 0 1 0-10.42ZM22 24.77a3.758 3.758 0 0 0 3.756-3.76 3.758 3.758 0 0 0-3.756-3.759 3.758 3.758 0 0 0-3.757 3.76 3.763 3.763 0 0 0 3.757 3.76Zm0-5.88a2.12 2.12 0 1 1-.002 4.24 2.12 2.12 0 0 1 .002-4.24Z" id="a"/><path id="b" d="M0 0h19.058v19.058H0z"/><path id="d" d="M0 0h12.234v12.234H0z"/></defs><g fill="none" fill-rule="evenodd"><g transform="translate(168 .068)"><circle cx="22" cy="22" r="21.557" fill="#FFF" stroke="#A6B0B5" stroke-width=".887"/><use fill="#1E3D49" fill-rule="nonzero" xlink:href="#a"/></g><path stroke="#1E3D49" stroke-linecap="square" stroke-dasharray="2,2" d="m97.5 22.568 71-.068M212.5 22.5l82 .068"/><rect width="159" height="43" rx="3" transform="translate(111 51.068)" fill="#FFF"/><path d="M214.677 55.068h27.269a3.43 3.43 0 0 1 3.431 3.431v28.838a3.43 3.43 0 0 1-3.431 3.431h-27.269a3.43 3.43 0 0 1-3.431-3.431V58.499a3.43 3.43 0 0 1 3.431-3.431Z" fill="#E2E6E7"/><path d="M175.054 55.068h27.269a3.43 3.43 0 0 1 3.431 3.431v28.838a3.43 3.43 0 0 1-3.431 3.431h-27.269a3.43 3.43 0 0 1-3.43-3.431V58.499a3.43 3.43 0 0 1 3.43-3.431Z" fill="#1E3D49"/><path d="M179.189 80.022h19a3.5 3.5 0 0 1 0 7h-19a3.5 3.5 0 1 1 0-7Z" fill="#FFF"/><g transform="translate(172.348 50.068)"><mask id="c" fill="#fff"><use xlink:href="#b"/></mask><path d="M19.058 9.529a9.529 9.529 0 0 1-9.53 9.529A9.529 9.529 0 0 1 0 9.528 9.529 9.529 0 0 1 9.529 0a9.529 9.529 0 0 1 9.529 9.529Z" fill-opacity=".237" fill="#FFF" mask="url(#c)"/></g><g transform="translate(187.262 69.568)"><mask id="e" fill="#fff"><use xlink:href="#d"/></mask><path d="M12.235 6.117A6.118 6.118 0 1 1-.001 6.116a6.118 6.118 0 0 1 12.236.001Z" fill-opacity=".237" fill="#FFF" mask="url(#e)"/></g><path d="M210.246 62.493a6.117 6.117 0 1 1-12.235 0 6.117 6.117 0 0 1 12.235 0Z" fill-opacity=".237" fill="#FFF"/><path d="M135.431 55.068H162.7a3.43 3.43 0 0 1 3.43 3.431v28.838a3.43 3.43 0 0 1-3.43 3.431H135.43A3.43 3.43 0 0 1 132 87.337V58.499a3.43 3.43 0 0 1 3.431-3.431Z" fill="#E2E6E7"/><g transform="translate(0 8.068)"><rect fill="#FFF" width="97" height="86" rx="3.619"/><rect fill="#1E3D49" x="11.228" y="13.868" width="18.122" height="18.096" rx="3.167"/><rect stroke="#DFE4E5" stroke-width=".544" fill="#FFF" x="64.53" y="14.14" width="17.578" height="17.552" rx="3.167"/><rect fill="#1E3D49" x="64.258" y="35.583" width="18.122" height="18.096" rx="3.167"/><rect stroke="#DFE4E5" stroke-width=".544" fill="#FFF" x="64.53" y="57.57" width="17.578" height="17.552" rx="3.167"/><path stroke="#DFE4E5" stroke-width=".544" d="M38.558 22.916h25.823M45.353 31.512v5.88a7.238 7.238 0 0 0 7.239 7.239H64.38"/><path d="M29.497 22.916h8.618a7.238 7.238 0 0 1 7.238 7.238v28.954a7.238 7.238 0 0 0 7.239 7.238H64.38" stroke="#DFE4E5" stroke-width=".544"/></g><path stroke="#1E3D49" stroke-dasharray="3,2" d="M189.5 43.5v7"/><g transform="translate(295 5.068)"><rect fill="#FFF" width="49" height="89" rx="2.67"/><rect fill="#1E3D49" x="15.927" y="16.02" width="24.553" height="5.34" rx="2.67"/><rect fill="#1E3D49" x="6.765" y="5.785" width="36.862" height="5.34" rx="2.67"/><rect stroke="#1E3D49" stroke-width=".89" x="6.701" y="15.575" width="6.294" height="6.23" rx=".89"/><rect stroke="#1E3D49" stroke-width=".89" x="6.701" y="24.475" width="6.294" height="6.23" rx=".89"/><rect stroke="#1E3D49" stroke-width=".89" x="6.701" y="33.375" width="6.294" height="6.23" rx=".89"/><rect fill="#1E3D49" x="15.927" y="24.92" width="22.268" height="5.34" rx="2.67"/><rect fill="#1E3D49" x="15.927" y="33.82" width="27.636" height="5.34" rx="2.67"/><rect fill="#1E3D49" x="15.734" y="61.783" width="26.523" height="5.34" rx="2.67"/><rect fill="#1E3D49" x="15.734" y="70.683" width="19.33" height="5.34" rx="2.67"/><rect fill="#1E3D49" x="15.734" y="79.583" width="22.477" height="5.34" rx="2.67"/><rect fill="#1E3D49" x="6.701" y="49.637" width="35.556" height="2.187" rx="1.093"/><rect stroke="#1E3D49" stroke-width="1.78" fill="#FFF" x="29.294" y="48.566" width="4.686" height="4.327" rx="2.164"/><rect stroke="#1E3D49" stroke-width=".89" x="6.701" y="61.338" width="6.294" height="6.23" rx=".89"/><rect stroke="#1E3D49" stroke-width=".89" x="6.701" y="70.238" width="6.294" height="6.23" rx=".89"/><rect stroke="#1E3D49" stroke-width=".89" x="6.701" y="79.138" width="6.294" height="6.23" rx=".89"/><path stroke="#1E3D49" stroke-width=".89" d="m13.486 24.92-3.9 4.005-1.798-1.78M13.486 70.31l-3.9 4.005-1.798-1.78"/></g></g></svg>