<svg width="428" height="70" xmlns="http://www.w3.org/2000/svg"><g fill="none" fill-rule="evenodd"><g transform="translate(307 42)"><rect fill="#FFF" width="121" height="28" rx="3"/><rect fill="#1E3D49" x="24.833" y="9" width="86" height="9" rx="4.5"/><path stroke="#1E3D49" stroke-width="1.5" stroke-linecap="round" stroke-linejoin="round" d="m18 11.384-5 5-3-3"/></g><g transform="translate(134)"><rect stroke="#A6B0B5" stroke-width=".729" fill="#FFF" x="43.031" y="34.955" width="74.271" height="24.271" rx="12.136"/><path d="M55.583 51.781V41.567m5.107 5.107H50.476" stroke="#1E3D49" stroke-linecap="round" stroke-linejoin="round" stroke-opacity=".5" stroke-width="1.843"/><rect stroke="#A6B0B5" stroke-width=".707" fill="#FFF" x=".353" y=".353" width="159.293" height="28.384" rx="14.138"/><path d="M145.778 19.162a5.172 5.172 0 1 0 0-10.344 5.172 5.172 0 0 0 0 10.344Zm6.464 1.293-2.812-2.813" stroke-opacity=".5" stroke="#1E3D49" stroke-width="1.6" stroke-linecap="round" stroke-linejoin="round"/><rect fill="#1E3D49" opacity=".177" x="12.917" y="8.818" width="86" height="11.636" rx="5.818"/><rect fill="#1E3D49" x="66.583" y="41.273" width="40" height="11.636" rx="5.818"/></g><g><rect fill="#FFF" width="121" height="28" rx="3"/><rect fill="#1E3D49" x="22.278" y="10" width="86" height="9" rx="4.5"/><path d="M18.856 12v3.95a.515.515 0 0 1-1.026.07l-.005-.07-.001-2.196-2.823 2.824a.515.515 0 0 1-.67.05l-.059-.05-1.01-1.01-2.383 2.384a.515.515 0 0 1-.67.05l-.058-.05a.515.515 0 0 1-.05-.671l.05-.058 2.748-2.748c.182-.182.469-.2.67-.05l.058.05 1.01 1.01 2.454-2.456-2.185.001a.515.515 0 0 1-.51-.445l-.005-.07c0-.26.193-.476.445-.51l.07-.005h3.95Z" fill="#1E3D49" fill-rule="nonzero"/></g><g transform="translate(307 2)"><rect fill="#FFF" width="121" height="28" rx="3"/><rect fill="#1E3D49" x="24.833" y="10" width="86" height="9" rx="4.5"/><path stroke="#1E3D49" stroke-linecap="round" stroke-linejoin="round" d="M10 14.384h8M15 11.384l3 3-3 3"/></g><g transform="translate(0 42)"><rect fill="#FFF" width="121" height="28" rx="3"/><rect fill="#1E3D49" x="33.957" y="9" width="76.96" height="9" rx="4.5"/><path d="M13.189 16.55c1.76 0 3.188-1.492 3.188-3.333 0-1.84-1.427-3.333-3.188-3.333-1.761 0-3.189 1.492-3.189 3.333 0 1.841 1.428 3.334 3.189 3.334Zm3.986.834-1.734-1.812" stroke="#1E3D49" stroke-linecap="round" stroke-linejoin="round"/><rect fill="#D7DDDF" x="22.25" y="9" width="19.681" height="9" rx="4.5"/></g><path stroke="#1E3D49" stroke-linecap="square" stroke-dasharray="2,2" d="M121.5 15.5h11M295.5 15.5h11"/><path d="M159.435 30v17.5a8 8 0 0 1-8 8H121.5M266.435 29v19a8 8 0 0 0 8 8h32" stroke="#1E3D49" stroke-dasharray="3,2"/></g></svg>