<svg width="345" height="85" xmlns="http://www.w3.org/2000/svg"><g fill="none" fill-rule="evenodd"><g transform="translate(247 50.318)"><rect fill="#FFF" width="43" height="34" rx="3"/><rect fill="#1E3D49" x="4.702" y="11.821" width="18.039" height="3.94" rx="1.97"/><rect fill="#1E3D49" x="4.97" y="4.269" width="27.083" height="3.94" rx="1.97"/><rect fill="#1E3D49" x="4.702" y="18.388" width="16.36" height="3.94" rx="1.97"/><rect fill="#1E3D49" x="4.702" y="24.955" width="20.304" height="3.94" rx="1.97"/></g><path stroke="#1E3D49" stroke-width=".571" stroke-linecap="round" stroke-linejoin="round" d="m286 57.318-2-2-2 2"/><g transform="translate(0 .618)"><rect fill="#FFF" width="51" height="69" rx="3"/><rect fill="#1E3D49" x="5" y="5" width="41" height="30" rx="3"/><rect fill="#1E3D49" opacity=".18" x="5" y="39" width="41" height="5" rx="2.5"/><rect fill="#1E3D49" opacity=".18" x="5.5" y="47.413" width="28" height="2" rx="1"/><rect fill="#1E3D49" opacity=".18" x="5.5" y="51.413" width="15" height="2" rx="1"/><rect fill="#1E3D49" x="5" y="59" width="41" height="5" rx="2.5"/></g><g transform="translate(71 63.318)"><rect fill="#FFF" width="110" height="21" rx="3"/><circle cx="3" cy="3" r="3" transform="translate(17 8)" fill="#CFD4D7"/><ellipse cx="5.192" cy="5.402" rx="5.192" ry="5.402" transform="translate(29 5)" fill="#1E3D49"/><circle cx="3" cy="3" r="3" transform="translate(45.383 8)" fill="#CFD4D7"/><circle cx="3" cy="3" r="3" transform="translate(57.383 8)" fill="#CFD4D7"/><circle cx="3" cy="3" r="3" transform="translate(86.383 8)" fill="#CFD4D7"/><path stroke="#1E3D49" stroke-width="1.143" stroke-linecap="round" stroke-linejoin="round" d="m11 7-4 4 4 4M98.383 15l4-4-4-4"/><rect fill="#CFD4D7" x="69.383" y="13" width="11" height="1" rx=".5"/></g><g transform="translate(71)"><path d="M154.182 53.261c1.503 0 2.864-.609 3.849-1.594a5.426 5.426 0 0 0 1.594-3.849V15.011H.375v32.807c0 1.503.61 2.864 1.594 3.85a5.426 5.426 0 0 0 3.85 1.593Z" stroke="#A6B0B5" stroke-width=".75" fill="#FFF"/><rect stroke="#A6B0B5" stroke-width=".707" fill="#FFF" x=".353" y=".353" width="159.293" height="28.384" rx="14.138"/><path d="M145.778 19.162a5.172 5.172 0 1 0 0-10.344 5.172 5.172 0 0 0 0 10.344Zm6.464 1.293-2.812-2.813" stroke-opacity=".5" stroke="#1E3D49" stroke-width="1.6" stroke-linecap="round" stroke-linejoin="round"/><rect fill="#1E3D49" opacity=".177" x="12.917" y="8.818" width="86" height="11.636" rx="5.818"/><rect fill="#1E3D49" x="27.833" y="35.934" width="86" height="9" rx="4.5"/><path d="M18.946 34.21a.379.379 0 0 1 .044.483l-.044.053-.879.877a4.66 4.66 0 1 1-4.95 4.651.379.379 0 1 1 .759 0 3.902 3.902 0 1 0 4.216-3.89l.854.857a.379.379 0 0 1 .044.483l-.044.053a.379.379 0 0 1-.483.043l-.053-.043-1.515-1.516a.379.379 0 0 1-.044-.483l.044-.053 1.515-1.515a.379.379 0 0 1 .536 0Zm-1.282 3.678c.186 0 .34.134.373.31l.006.068v2.117l1.405 1.404a.379.379 0 0 1 .043.483l-.043.053a.379.379 0 0 1-.484.044l-.052-.044-1.516-1.515a.379.379 0 0 1-.106-.209l-.005-.06v-2.273c0-.209.17-.378.38-.378Z" fill="#1E3D49" fill-rule="nonzero"/></g><path stroke="#1E3D49" stroke-linecap="square" stroke-dasharray="2,2" d="M51.5 14.818h20"/><path stroke="#1E3D49" stroke-linecap="square" stroke-dasharray="3,2" d="M230.5 14.818h71"/><path d="M213 28.318v37a8 8 0 0 0 8 8h26M197 28.72v37a8 8 0 0 1-8 8h-8" stroke="#1E3D49" stroke-dasharray="3,2"/><g transform="translate(301 .318)"><rect fill="#FFF" width="44" height="84" rx="3"/><rect fill="#1E3D49" x="14.302" y="14.538" width="22.048" height="4.846" rx="2.422"/><rect fill="#1E3D49" x="6.075" y="5.25" width="33.101" height="4.846" rx="2.422"/><rect stroke="#1E3D49" stroke-width=".807" x="6.017" y="14.135" width="5.651" height="5.654" rx=".807"/><rect stroke="#1E3D49" stroke-width=".807" x="6.017" y="22.212" width="5.651" height="5.654" rx=".807"/><rect stroke="#1E3D49" stroke-width=".807" x="6.017" y="30.288" width="5.651" height="5.654" rx=".807"/><rect fill="#1E3D49" x="14.302" y="22.615" width="19.996" height="4.846" rx="2.422"/><rect fill="#1E3D49" x="14.302" y="30.692" width="24.816" height="4.846" rx="2.422"/><rect fill="#1E3D49" x="14.128" y="56.069" width="23.817" height="4.846" rx="2.422"/><rect fill="#1E3D49" x="14.128" y="64.146" width="17.358" height="4.846" rx="2.422"/><rect fill="#1E3D49" x="14.128" y="72.223" width="20.183" height="4.846" rx="2.422"/><rect fill="#1E3D49" x="6.017" y="45.046" width="31.928" height="1.985" rx=".992"/><rect stroke="#1E3D49" stroke-width="1.615" fill="#FFF" x="26.313" y="44.075" width="4.192" height="3.928" rx="1.964"/><rect stroke="#1E3D49" stroke-width=".807" x="6.017" y="55.665" width="5.651" height="5.654" rx=".807"/><rect stroke="#1E3D49" stroke-width=".807" x="6.017" y="63.742" width="5.651" height="5.654" rx=".807"/><rect stroke="#1E3D49" stroke-width=".807" x="6.017" y="71.819" width="5.651" height="5.654" rx=".807"/><path stroke="#1E3D49" stroke-width=".807" d="M12.11 22.615 8.608 26.25l-1.615-1.615M12.11 63.808l-3.502 3.634-1.615-1.615"/></g></g></svg>