<svg width="255" height="83" xmlns="http://www.w3.org/2000/svg"><g fill="none" fill-rule="evenodd"><g transform="translate(.5 .981)"><rect stroke="#A6B0B5" stroke-width="1.122" fill="#FFF" x=".561" y=".561" width="252.878" height="44.915" rx="22.444"/><path d="M227.26 29.934a8.467 8.467 0 1 0 0-16.933 8.467 8.467 0 0 0 0 16.933Zm10.583 2.117-4.604-4.604" stroke-opacity=".5" stroke="#1E3D49" stroke-width="2.54" stroke-linecap="round" stroke-linejoin="round"/><rect fill="#1E3D49" x="20.164" y="14.015" width="137.602" height="19.003" rx="9.236"/></g><path d="M8 62h44.16a6 6 0 0 1 6 6v15H2V68a6 6 0 0 1 6-6ZM72.16 62h44.16a6 6 0 0 1 6 6v15H66.16V68a6 6 0 0 1 6-6ZM136.32 62h44.16a6 6 0 0 1 6 6v15h-56.16V68a6 6 0 0 1 6-6ZM200.48 62h44.16a6 6 0 0 1 6 6v15h-56.16V68a6 6 0 0 1 6-6Z" fill="#FFF"/></g></svg>