<svg width="333" height="91" xmlns="http://www.w3.org/2000/svg" xmlns:xlink="http://www.w3.org/1999/xlink"><defs><path id="a" d="M0 0h29v29H0z"/></defs><g fill="none" fill-rule="evenodd"><g transform="translate(0 7)"><rect fill="#FFF" width="43" height="34" rx="3"/><rect fill="#1E3D49" x="4.702" y="11.821" width="18.039" height="3.94" rx="1.97"/><rect fill="#1E3D49" x="4.97" y="4.269" width="27.083" height="3.94" rx="1.97"/><rect fill="#1E3D49" x="4.702" y="18.388" width="16.36" height="3.94" rx="1.97"/><rect fill="#1E3D49" x="4.702" y="24.955" width="20.304" height="3.94" rx="1.97"/></g><path stroke="#1E3D49" stroke-width=".571" stroke-linecap="round" stroke-linejoin="round" d="m39 14-2-2-2 2"/><path d="M243 7h87a3 3 0 0 1 3 3v77a3 3 0 0 1-3 3h-87a3 3 0 0 1-3-3V10a3 3 0 0 1 3-3Z" fill="#FFF"/><path d="M260.814 12.927c7.338 0 13.286 5.93 13.286 13.245 0 7.315-5.948 13.245-13.286 13.245-7.337 0-13.285-5.93-13.285-13.245 0-7.314 5.948-13.245 13.285-13.245ZM303.329 12.927h21.257a2.653 2.653 0 0 1 2.657 2.65v21.19a2.653 2.653 0 0 1-2.657 2.65h-21.257a2.653 2.653 0 0 1-2.658-2.65v-21.19a2.653 2.653 0 0 1 2.658-2.65ZM251.071 52.661h19.486a3.537 3.537 0 0 1 3.543 3.532V75.62a3.537 3.537 0 0 1-3.543 3.532h-19.486a3.537 3.537 0 0 1-3.542-3.532V56.193a3.537 3.537 0 0 1 3.542-3.532Z" fill="#1E3D49"/><path d="M313.957 52.661c7.338 0 13.286 5.93 13.286 13.245 0 7.315-5.948 13.245-13.286 13.245-7.337 0-13.286-5.93-13.286-13.245 0-7.314 5.949-13.245 13.286-13.245Z" fill-opacity=".142" fill="#1E3D49"/><path d="m284.177 29.957.176.56-6.319.826 5.137 1.068c8.803 2.267 15.938 6.083 21.398 11.441 6.595 6.474 9.87 14.34 9.831 23.594l-.005.48-.887-.006c.155-9.353-3.074-17.269-9.68-23.754-5.25-5.153-12.064-8.845-20.422-11.077l-.536-.14-5.106-1.062 4.376 3.048-.651.388-5.525-3.85-.535-.372.772-.101 7.976-1.043Z" fill="#1E3D49"/><g transform="translate(61.5)"><rect stroke="#A6B0B5" stroke-width=".707" fill="#FFF" x=".353" y="9.285" width="159.293" height="28.384" rx="14.138"/><path d="M145.778 28.093a5.172 5.172 0 1 0 0-10.343 5.172 5.172 0 0 0 0 10.343Zm6.464 1.293-2.812-2.812" stroke-opacity=".5" stroke="#1E3D49" stroke-width="1.6" stroke-linecap="round" stroke-linejoin="round"/><rect fill="#DFE4E5" opacity=".952" x="12.917" y="17.75" width="86" height="11.636" rx="5.818"/><g transform="translate(32.07)" fill-rule="nonzero"><circle fill="#DFE1DF" cx="23.607" cy="23.607" r="22.623"/><path d="M23.607 0C10.59 0 0 10.59 0 23.607c0 13.016 10.59 23.607 23.607 23.607 13.016 0 23.607-10.59 23.607-23.607S36.624 0 23.607 0ZM3.934 23.607c0-4.717 1.672-9.049 4.45-12.442L36.048 38.83a19.577 19.577 0 0 1-12.441 4.45c-10.848 0-19.673-8.826-19.673-19.673ZM38.83 36.048 11.165 8.384a19.577 19.577 0 0 1 12.442-4.45c10.847 0 19.672 8.825 19.672 19.673 0 4.717-1.671 9.048-4.45 12.441Z" fill="#1E3D49"/><path d="M33.831 22.623c-1.19 0-2.292.59-2.95 1.58l-1.373 2.057V13.77a2.954 2.954 0 0 0-2.95-2.95c-.347 0-.675.07-.984.18v-.18a2.954 2.954 0 0 0-2.95-2.951c-1.361 0-2.498.93-2.838 2.184a2.926 2.926 0 0 0-1.097-.217 2.954 2.954 0 0 0-2.951 2.95v2.15a2.919 2.919 0 0 0-.984-.182 2.954 2.954 0 0 0-2.95 2.951V32.46a6.894 6.894 0 0 0 6.885 6.886h5.202c2.61 0 5.074-1.142 6.805-3.195l6.495-9.018a.979.979 0 0 0 .187-.574v-.388a3.55 3.55 0 0 0-3.547-3.547Z" fill="#1E3D49"/><path d="M29.147 34.94a6.872 6.872 0 0 1-5.256 2.437H18.69a4.923 4.923 0 0 1-4.918-4.918V17.705c0-.543.441-.984.983-.984s.984.441.984.984v4.918a.983.983 0 1 0 1.967 0v-9.836a.985.985 0 0 1 1.967 0v9.836a.983.983 0 1 0 1.968 0V10.82c0-.543.442-.984.983-.984.542 0 .984.441.984.984v11.803a.983.983 0 1 0 1.967 0v-8.852a.985.985 0 0 1 1.967 0v15.737a.984.984 0 0 0 1.802.546l3.174-4.761c.294-.44.784-.703 1.314-.703.87 0 1.58.71 1.58 1.58l-6.264 8.77Z" fill="#FFF"/></g></g><g transform="translate(151 47)" fill="#FFF" stroke="#A6B0B5"><circle cx="22" cy="22" r="21.5"/></g><path d="M21.062 41.28v24c0 6.627 5.372 12 12 12h120M117.062 47.28v8a8 8 0 0 0 8 8h28" stroke="#1E3D49" stroke-dasharray="3,2"/><path stroke="#1E3D49" stroke-linecap="square" stroke-dasharray="2,2" d="M195.5 69.5h43"/><g transform="translate(157.95 54)"><mask id="b" fill="#fff"><use xlink:href="#a"/></mask><path d="M10.875 25.375c0 .665.544 1.208 1.208 1.208h4.834c.664 0 1.208-.543 1.208-1.208v-1.208h-7.25v1.208ZM14.5 2.417a8.46 8.46 0 0 0-8.458 8.458 8.446 8.446 0 0 0 3.625 6.936v2.73c0 .665.543 1.209 1.208 1.209h7.25c.665 0 1.208-.544 1.208-1.208V17.81a8.446 8.446 0 0 0 3.625-6.936A8.46 8.46 0 0 0 14.5 2.417Zm3.45 13.412-1.033.72v2.784h-4.834v-2.779l-1.033-.719a6.048 6.048 0 0 1-2.592-4.954A6.052 6.052 0 0 1 14.5 4.839a6.052 6.052 0 0 1 6.042 6.042 6.045 6.045 0 0 1-2.592 4.948Z" fill="#1E3D49" fill-rule="nonzero" mask="url(#b)"/></g></g></svg>