<svg width="291" height="88" xmlns="http://www.w3.org/2000/svg" xmlns:xlink="http://www.w3.org/1999/xlink"><defs><path d="M3 0h45a3 3 0 0 1 3 3v17H0V3a3 3 0 0 1 3-3Z" id="a"/><path d="M3 0h45a3 3 0 0 1 3 3v17H0V3a3 3 0 0 1 3-3Z" id="c"/><path d="M3 0h45a3 3 0 0 1 3 3v17H0V3a3 3 0 0 1 3-3Z" id="e"/><path d="M3 0h45a3 3 0 0 1 3 3v17H0V3a3 3 0 0 1 3-3Z" id="g"/><path d="M3 0h45a3 3 0 0 1 3 3v17H0V3a3 3 0 0 1 3-3Z" id="i"/></defs><g fill="none" fill-rule="evenodd"><rect fill="#FFF" x="60" width="51" height="59.3" rx="3"/><rect fill="#FFF" width="51" height="59.3" rx="3"/><rect fill="#1E3D49" x="70.5" y="7.713" width="30" height="30" rx="15"/><rect fill="#1E3D49" x="10.5" y="7.713" width="30" height="30" rx="6"/><rect fill="#FFF" x="120" width="51" height="59.3" rx="3"/><rect fill="#1E3D49" x="130.5" y="7.713" width="30" height="30" rx="3"/><rect fill="#FFF" x="180" width="51" height="59.3" rx="3"/><rect fill="#FFF" x="240" width="51" height="59.3" rx="3"/><rect fill="#1E3D49" x="190.5" y="7.713" width="30" height="30" rx="15"/><rect fill="#1E3D49" x="250.5" y="7.713" width="30" height="30" rx="7"/><g transform="translate(60 68)"><mask id="b" fill="#fff"><use xlink:href="#a"/></mask><use fill="#FFF" xlink:href="#a"/><rect fill="#1E3D49" mask="url(#b)" x="10.5" y="7.713" width="30" height="30" rx="4"/></g><g transform="translate(0 68)"><mask id="d" fill="#fff"><use xlink:href="#c"/></mask><use fill="#FFF" xlink:href="#c"/><rect fill="#1E3D49" mask="url(#d)" x="10.5" y="7.713" width="30" height="30" rx="15"/></g><g transform="translate(120 68)"><mask id="f" fill="#fff"><use xlink:href="#e"/></mask><use fill="#FFF" xlink:href="#e"/><rect fill="#1E3D49" mask="url(#f)" x="10.5" y="7.713" width="30" height="30" rx="15"/></g><g transform="translate(180 68)"><mask id="h" fill="#fff"><use xlink:href="#g"/></mask><use fill="#FFF" xlink:href="#g"/><rect fill="#1E3D49" mask="url(#h)" x="10.5" y="7.713" width="30" height="30" rx="7"/></g><g transform="translate(240 68)"><mask id="j" fill="#fff"><use xlink:href="#i"/></mask><use fill="#FFF" xlink:href="#i"/><rect fill="#1E3D49" mask="url(#j)" x="10.5" y="7.713" width="30" height="30" rx="15"/></g></g></svg>