<?xml version="1.0" encoding="UTF-8"?>
<svg width="897px" height="581px" viewBox="0 0 897 581" version="1.1" xmlns="http://www.w3.org/2000/svg" xmlns:xlink="http://www.w3.org/1999/xlink">
    <title>CMC_configuration</title>
    <defs>
        <linearGradient x1="17.4067643%" y1="53.8754566%" x2="47.4135978%" y2="33.5764286%" id="linearGradient-1">
            <stop stop-color="#FFFFFF" offset="0%"></stop>
            <stop stop-color="#FFFFFF" offset="100%"></stop>
        </linearGradient>
        <radialGradient cx="52.0834845%" cy="29.0685867%" fx="52.0834845%" fy="29.0685867%" r="64.830879%" gradientTransform="translate(0.520835,0.290686),scale(0.851849,1.000000),rotate(-17.256851),translate(-0.520835,-0.290686)" id="radialGradient-2">
            <stop stop-color="#CCAAD1" stop-opacity="0.495083042" offset="0%"></stop>
            <stop stop-color="#D5BADA" stop-opacity="0.495992963" offset="31.6343955%"></stop>
            <stop stop-color="#FFFFFF" stop-opacity="0.5" offset="99.494646%"></stop>
        </radialGradient>
        <path d="M280.665397,18.1204792 L766.210269,130.733588 C773.239509,132.36389 778.937833,139.383835 778.937833,146.413074 L778.937833,442.957946 C778.937833,449.987186 773.239509,454.36389 766.210269,452.733588 L280.665397,340.120479 C273.636158,338.490178 267.937833,331.470233 267.937833,324.440993 L267.937833,27.8961212 C267.937833,20.8668818 273.636158,16.4901778 280.665397,18.1204792 Z" id="path-3"></path>
        <filter x="-11.4%" y="-9.5%" width="121.3%" height="125.0%" filterUnits="objectBoundingBox" id="filter-4">
            <feOffset dx="-4" dy="13" in="SourceAlpha" result="shadowOffsetOuter1"></feOffset>
            <feGaussianBlur stdDeviation="16" in="shadowOffsetOuter1" result="shadowBlurOuter1"></feGaussianBlur>
            <feColorMatrix values="0 0 0 0 0   0 0 0 0 0   0 0 0 0 0  0 0 0 0.0398273601 0" type="matrix" in="shadowBlurOuter1" result="shadowMatrixOuter1"></feColorMatrix>
            <feOffset dx="3" dy="-2" in="SourceAlpha" result="shadowOffsetOuter2"></feOffset>
            <feColorMatrix values="0 0 0 0 1   0 0 0 0 1   0 0 0 0 1  0 0 0 1 0" type="matrix" in="shadowOffsetOuter2" result="shadowMatrixOuter2"></feColorMatrix>
            <feMerge>
                <feMergeNode in="shadowMatrixOuter1"></feMergeNode>
                <feMergeNode in="shadowMatrixOuter2"></feMergeNode>
            </feMerge>
        </filter>
        <radialGradient cx="112.965881%" cy="48.0237189%" fx="112.965881%" fy="48.0237189%" r="71.7876211%" gradientTransform="translate(1.129659,0.480237),scale(1.000000,0.522760),rotate(90.000000),translate(-1.129659,-0.480237)" id="radialGradient-5">
            <stop stop-color="#BDDECE" stop-opacity="0.575857736" offset="0%"></stop>
            <stop stop-color="#BDDFCE" stop-opacity="0" offset="100%"></stop>
        </radialGradient>
        <path d="M766.210269,130.733588 L588.937833,89.6185413 L588.937833,411.618541 L766.210269,452.733588 C773.239509,454.36389 778.937833,449.987186 778.937833,442.957946 L778.937833,146.413074 C778.937833,139.383835 773.239509,132.36389 766.210269,130.733588 Z" id="path-6"></path>
        <filter x="-52.9%" y="-25.5%" width="211.1%" height="158.1%" filterUnits="objectBoundingBox" id="filter-7">
            <feOffset dx="5" dy="13" in="SourceAlpha" result="shadowOffsetOuter1"></feOffset>
            <feGaussianBlur stdDeviation="33" in="shadowOffsetOuter1" result="shadowBlurOuter1"></feGaussianBlur>
            <feColorMatrix values="0 0 0 0 0   0 0 0 0 0   0 0 0 0 0  0 0 0 0.0827687937 0" type="matrix" in="shadowBlurOuter1"></feColorMatrix>
        </filter>
        <linearGradient x1="17.4067643%" y1="53.8754566%" x2="47.4135978%" y2="33.5764286%" id="linearGradient-8">
            <stop stop-color="#FFFFFF" offset="0%"></stop>
            <stop stop-color="#FFFFFF" stop-opacity="0.632566652" offset="100%"></stop>
        </linearGradient>
        <path d="M12.7275639,0.340746238 L498.272436,112.953855 C505.301676,114.584157 511,121.604102 511,128.633341 L511,425.178213 C511,432.207453 505.301676,436.584157 498.272436,434.953855 L12.7275639,322.340746 C5.69832444,320.710445 0,313.6905 0,306.66126 L0,10.1163882 C0,3.08714879 5.69832444,-1.2895552 12.7275639,0.340746238 Z" id="path-9"></path>
        <filter x="-18.6%" y="-18.8%" width="137.2%" height="143.6%" filterUnits="objectBoundingBox" id="filter-10">
            <feOffset dx="0" dy="13" in="SourceAlpha" result="shadowOffsetOuter1"></feOffset>
            <feGaussianBlur stdDeviation="29.5" in="shadowOffsetOuter1" result="shadowBlurOuter1"></feGaussianBlur>
            <feColorMatrix values="0 0 0 0 0   0 0 0 0 0   0 0 0 0 0  0 0 0 0.0697115385 0" type="matrix" in="shadowBlurOuter1" result="shadowMatrixOuter1"></feColorMatrix>
            <feOffset dx="3" dy="-2" in="SourceAlpha" result="shadowOffsetOuter2"></feOffset>
            <feColorMatrix values="0 0 0 0 1   0 0 0 0 1   0 0 0 0 1  0 0 0 1 0" type="matrix" in="shadowOffsetOuter2" result="shadowMatrixOuter2"></feColorMatrix>
            <feMerge>
                <feMergeNode in="shadowMatrixOuter1"></feMergeNode>
                <feMergeNode in="shadowMatrixOuter2"></feMergeNode>
            </feMerge>
        </filter>
        <path d="M498.272436,112.953855 L321,71.8388083 L321,393.838808 L498.272436,434.953855 C505.301676,436.584157 511,432.207453 511,425.178213 L511,128.633341 C511,121.604102 505.301676,114.584157 498.272436,112.953855 Z" id="path-11"></path>
        <filter x="-52.9%" y="-25.5%" width="211.1%" height="158.1%" filterUnits="objectBoundingBox" id="filter-12">
            <feOffset dx="5" dy="13" in="SourceAlpha" result="shadowOffsetOuter1"></feOffset>
            <feGaussianBlur stdDeviation="33" in="shadowOffsetOuter1" result="shadowBlurOuter1"></feGaussianBlur>
            <feColorMatrix values="0 0 0 0 0.871886322   0 0 0 0 0.871886322   0 0 0 0 0.871886322  0 0 0 0.5 0" type="matrix" in="shadowBlurOuter1"></feColorMatrix>
        </filter>
        <linearGradient x1="6.2153813%" y1="64.1019225%" x2="47.4135978%" y2="33.5764286%" id="linearGradient-13">
            <stop stop-color="#FFFFFF" offset="0%"></stop>
            <stop stop-color="#FFFFFF" stop-opacity="0.81801792" offset="100%"></stop>
        </linearGradient>
        <radialGradient cx="0.994374383%" cy="72.200401%" fx="0.994374383%" fy="72.200401%" r="31.7643825%" gradientTransform="translate(0.009944,0.722004),scale(0.851849,1.000000),rotate(-17.458343),translate(-0.009944,-0.722004)" id="radialGradient-14">
            <stop stop-color="#DECA8D" stop-opacity="0.430288462" offset="0%"></stop>
            <stop stop-color="#E6D19B" stop-opacity="0.344050481" offset="48.0659965%"></stop>
            <stop stop-color="#EEE4C2" stop-opacity="0.248907343" offset="68.7718531%"></stop>
            <stop stop-color="#FFFFFF" stop-opacity="0.5" offset="100%"></stop>
        </radialGradient>
        <path d="M100.665397,62.9519219 L586.210269,175.565031 C593.239509,177.195332 598.937833,184.215277 598.937833,191.244517 L598.937833,487.789389 C598.937833,494.818628 593.239509,499.195332 586.210269,497.565031 L100.665397,384.951922 C93.6361577,383.32162 87.9378332,376.301676 87.9378332,369.272436 L87.9378332,72.7275639 C87.9378332,65.6983244 93.6361577,61.3216204 100.665397,62.9519219 Z" id="path-15"></path>
        <filter x="-14.9%" y="-19.5%" width="138.4%" height="145.0%" filterUnits="objectBoundingBox" id="filter-16">
            <feOffset dx="22" dy="13" in="SourceAlpha" result="shadowOffsetOuter1"></feOffset>
            <feGaussianBlur stdDeviation="29" in="shadowOffsetOuter1" result="shadowBlurOuter1"></feGaussianBlur>
            <feColorMatrix values="0 0 0 0 0   0 0 0 0 0   0 0 0 0 0  0 0 0 0.0491149476 0" type="matrix" in="shadowBlurOuter1" result="shadowMatrixOuter1"></feColorMatrix>
            <feOffset dx="3" dy="-2" in="SourceAlpha" result="shadowOffsetOuter2"></feOffset>
            <feColorMatrix values="0 0 0 0 1   0 0 0 0 1   0 0 0 0 1  0 0 0 1 0" type="matrix" in="shadowOffsetOuter2" result="shadowMatrixOuter2"></feColorMatrix>
            <feMerge>
                <feMergeNode in="shadowMatrixOuter1"></feMergeNode>
                <feMergeNode in="shadowMatrixOuter2"></feMergeNode>
            </feMerge>
        </filter>
        <filter x="-87.0%" y="-150.9%" width="282.6%" height="409.1%" filterUnits="objectBoundingBox" id="filter-17">
            <feOffset dx="3" dy="-1" in="SourceAlpha" result="shadowOffsetOuter1"></feOffset>
            <feGaussianBlur stdDeviation="3.5" in="shadowOffsetOuter1" result="shadowBlurOuter1"></feGaussianBlur>
            <feColorMatrix values="0 0 0 0 0   0 0 0 0 0   0 0 0 0 0  0 0 0 0.137510927 0" type="matrix" in="shadowBlurOuter1" result="shadowMatrixOuter1"></feColorMatrix>
            <feMerge>
                <feMergeNode in="shadowMatrixOuter1"></feMergeNode>
                <feMergeNode in="SourceGraphic"></feMergeNode>
            </feMerge>
        </filter>
        <path d="M17,13.1193455 C20.3137085,13.887219 23,11.8234119 23,8.50970343 C23,5.19599493 20.3137085,1.88721897 17,1.11934547 C13.6862915,0.351471968 11,2.41527901 11,5.7289875 C11,9.042696 13.6862915,12.351472 17,13.1193455 Z" id="path-18"></path>
        <filter x="-8.3%" y="-16.2%" width="133.3%" height="132.5%" filterUnits="objectBoundingBox" id="filter-19">
            <feOffset dx="1" dy="0" in="SourceAlpha" result="shadowOffsetOuter1"></feOffset>
            <feGaussianBlur stdDeviation="0.5" in="shadowOffsetOuter1" result="shadowBlurOuter1"></feGaussianBlur>
            <feColorMatrix values="0 0 0 0 0.117647059   0 0 0 0 0.239215686   0 0 0 0 0.28627451  0 0 0 0.181626967 0" type="matrix" in="shadowBlurOuter1"></feColorMatrix>
        </filter>
        <filter x="-100.0%" y="-165.7%" width="287.0%" height="439.2%" filterUnits="objectBoundingBox" id="filter-20">
            <feOffset dx="3" dy="-1" in="SourceAlpha" result="shadowOffsetOuter1"></feOffset>
            <feGaussianBlur stdDeviation="3.5" in="shadowOffsetOuter1" result="shadowBlurOuter1"></feGaussianBlur>
            <feColorMatrix values="0 0 0 0 0.480949955   0 0 0 0 0.480949955   0 0 0 0 0.480949955  0 0 0 0.137510927 0" type="matrix" in="shadowBlurOuter1" result="shadowMatrixOuter1"></feColorMatrix>
            <feMerge>
                <feMergeNode in="shadowMatrixOuter1"></feMergeNode>
                <feMergeNode in="SourceGraphic"></feMergeNode>
            </feMerge>
        </filter>
        <path d="M6,12.1603548 C9.3137085,12.9282283 12,10.8644213 12,7.55071278 C12,4.23700429 9.3137085,0.928228322 6,0.160354822 C2.6862915,-0.607518677 0,1.45628836 0,4.76999686 C0,8.08370536 2.6862915,11.3924813 6,12.1603548 Z" id="path-21"></path>
        <filter x="-41.7%" y="-32.5%" width="183.3%" height="181.2%" filterUnits="objectBoundingBox" id="filter-22">
            <feOffset dx="0" dy="1" in="SourceAlpha" result="shadowOffsetOuter1"></feOffset>
            <feGaussianBlur stdDeviation="1.5" in="shadowOffsetOuter1" result="shadowBlurOuter1"></feGaussianBlur>
            <feColorMatrix values="0 0 0 0 0   0 0 0 0 0   0 0 0 0 0  0 0 0 0.142837631 0" type="matrix" in="shadowBlurOuter1"></feColorMatrix>
        </filter>
        <path d="M184.5,240.481913 L222.5,249.287513 C223.880712,249.60746 225,250.986117 225,252.366829 C225,253.747541 223.880712,254.60746 222.5,254.287513 L184.5,245.481913 C183.119288,245.161965 182,243.783309 182,242.402597 C182,241.021885 183.119288,240.161965 184.5,240.481913 Z" id="path-23"></path>
        <filter x="-24.4%" y="-111.2%" width="162.8%" height="293.7%" filterUnits="objectBoundingBox" id="filter-24">
            <feOffset dx="3" dy="-2" in="SourceAlpha" result="shadowOffsetOuter1"></feOffset>
            <feGaussianBlur stdDeviation="4" in="shadowOffsetOuter1" result="shadowBlurOuter1"></feGaussianBlur>
            <feColorMatrix values="0 0 0 0 0.672752491   0 0 0 0 0.672752491   0 0 0 0 0.672752491  0 0 0 0.5 0" type="matrix" in="shadowBlurOuter1"></feColorMatrix>
        </filter>
        <polyline id="path-25" points="161 236.036344 165 240.963249 169 237.890154"></polyline>
        <filter x="-61.3%" y="-160.5%" width="272.6%" height="372.1%" filterUnits="objectBoundingBox" id="filter-26">
            <feMorphology radius="1" operator="dilate" in="SourceAlpha" result="shadowSpreadOuter1"></feMorphology>
            <feOffset dx="2" dy="-1" in="shadowSpreadOuter1" result="shadowOffsetOuter1"></feOffset>
            <feMorphology radius="1" operator="erode" in="SourceAlpha" result="shadowInner"></feMorphology>
            <feOffset dx="2" dy="-1" in="shadowInner" result="shadowInner"></feOffset>
            <feComposite in="shadowOffsetOuter1" in2="shadowInner" operator="out" result="shadowOffsetOuter1"></feComposite>
            <feGaussianBlur stdDeviation="1.5" in="shadowOffsetOuter1" result="shadowBlurOuter1"></feGaussianBlur>
            <feColorMatrix values="0 0 0 0 0.625707654   0 0 0 0 0.625707654   0 0 0 0 0.625707654  0 0 0 0.5 0" type="matrix" in="shadowBlurOuter1"></feColorMatrix>
        </filter>
        <polyline id="path-27" points="161 267.036344 165 271.963249 169 268.890154"></polyline>
        <filter x="-61.3%" y="-160.5%" width="272.6%" height="372.1%" filterUnits="objectBoundingBox" id="filter-28">
            <feMorphology radius="1" operator="dilate" in="SourceAlpha" result="shadowSpreadOuter1"></feMorphology>
            <feOffset dx="2" dy="-1" in="shadowSpreadOuter1" result="shadowOffsetOuter1"></feOffset>
            <feMorphology radius="1" operator="erode" in="SourceAlpha" result="shadowInner"></feMorphology>
            <feOffset dx="2" dy="-1" in="shadowInner" result="shadowInner"></feOffset>
            <feComposite in="shadowOffsetOuter1" in2="shadowInner" operator="out" result="shadowOffsetOuter1"></feComposite>
            <feGaussianBlur stdDeviation="1.5" in="shadowOffsetOuter1" result="shadowBlurOuter1"></feGaussianBlur>
            <feColorMatrix values="0 0 0 0 0.625707654   0 0 0 0 0.625707654   0 0 0 0 0.625707654  0 0 0 0.5 0" type="matrix" in="shadowBlurOuter1"></feColorMatrix>
        </filter>
        <polyline id="path-29" points="161 299.036344 165 303.963249 169 300.890154"></polyline>
        <filter x="-61.3%" y="-160.5%" width="272.6%" height="372.1%" filterUnits="objectBoundingBox" id="filter-30">
            <feMorphology radius="1" operator="dilate" in="SourceAlpha" result="shadowSpreadOuter1"></feMorphology>
            <feOffset dx="2" dy="-1" in="shadowSpreadOuter1" result="shadowOffsetOuter1"></feOffset>
            <feMorphology radius="1" operator="erode" in="SourceAlpha" result="shadowInner"></feMorphology>
            <feOffset dx="2" dy="-1" in="shadowInner" result="shadowInner"></feOffset>
            <feComposite in="shadowOffsetOuter1" in2="shadowInner" operator="out" result="shadowOffsetOuter1"></feComposite>
            <feGaussianBlur stdDeviation="1.5" in="shadowOffsetOuter1" result="shadowBlurOuter1"></feGaussianBlur>
            <feColorMatrix values="0 0 0 0 0.625707654   0 0 0 0 0.625707654   0 0 0 0 0.625707654  0 0 0 0.5 0" type="matrix" in="shadowBlurOuter1"></feColorMatrix>
        </filter>
        <path d="M184.5,271.481913 L222.5,280.287513 C223.880712,280.60746 225,281.986117 225,283.366829 C225,284.747541 223.880712,285.60746 222.5,285.287513 L184.5,276.481913 C183.119288,276.161965 182,274.783309 182,273.402597 C182,272.021885 183.119288,271.161965 184.5,271.481913 Z" id="path-31"></path>
        <filter x="-24.4%" y="-111.2%" width="162.8%" height="293.7%" filterUnits="objectBoundingBox" id="filter-32">
            <feOffset dx="3" dy="-2" in="SourceAlpha" result="shadowOffsetOuter1"></feOffset>
            <feGaussianBlur stdDeviation="4" in="shadowOffsetOuter1" result="shadowBlurOuter1"></feGaussianBlur>
            <feColorMatrix values="0 0 0 0 0.672752491   0 0 0 0 0.672752491   0 0 0 0 0.672752491  0 0 0 0.5 0" type="matrix" in="shadowBlurOuter1"></feColorMatrix>
        </filter>
        <filter x="-87.0%" y="-150.9%" width="282.6%" height="409.1%" filterUnits="objectBoundingBox" id="filter-33">
            <feOffset dx="3" dy="-1" in="SourceAlpha" result="shadowOffsetOuter1"></feOffset>
            <feGaussianBlur stdDeviation="3.5" in="shadowOffsetOuter1" result="shadowBlurOuter1"></feGaussianBlur>
            <feColorMatrix values="0 0 0 0 0   0 0 0 0 0   0 0 0 0 0  0 0 0 0.137510927 0" type="matrix" in="shadowBlurOuter1" result="shadowMatrixOuter1"></feColorMatrix>
            <feMerge>
                <feMergeNode in="shadowMatrixOuter1"></feMergeNode>
                <feMergeNode in="SourceGraphic"></feMergeNode>
            </feMerge>
        </filter>
        <path d="M17,13.1193455 C20.3137085,13.887219 23,11.8234119 23,8.50970343 C23,5.19599493 20.3137085,1.88721897 17,1.11934547 C13.6862915,0.351471968 11,2.41527901 11,5.7289875 C11,9.042696 13.6862915,12.351472 17,13.1193455 Z" id="path-34"></path>
        <filter x="-8.3%" y="-16.2%" width="133.3%" height="132.5%" filterUnits="objectBoundingBox" id="filter-35">
            <feOffset dx="1" dy="0" in="SourceAlpha" result="shadowOffsetOuter1"></feOffset>
            <feGaussianBlur stdDeviation="0.5" in="shadowOffsetOuter1" result="shadowBlurOuter1"></feGaussianBlur>
            <feColorMatrix values="0 0 0 0 0.117647059   0 0 0 0 0.239215686   0 0 0 0 0.28627451  0 0 0 0.181626967 0" type="matrix" in="shadowBlurOuter1"></feColorMatrix>
        </filter>
        <path d="M184.5,303.481913 L222.5,312.287513 C223.880712,312.60746 225,313.986117 225,315.366829 C225,316.747541 223.880712,317.60746 222.5,317.287513 L184.5,308.481913 C183.119288,308.161965 182,306.783309 182,305.402597 C182,304.021885 183.119288,303.161965 184.5,303.481913 Z" id="path-36"></path>
        <filter x="-24.4%" y="-111.2%" width="162.8%" height="293.7%" filterUnits="objectBoundingBox" id="filter-37">
            <feOffset dx="3" dy="-2" in="SourceAlpha" result="shadowOffsetOuter1"></feOffset>
            <feGaussianBlur stdDeviation="4" in="shadowOffsetOuter1" result="shadowBlurOuter1"></feGaussianBlur>
            <feColorMatrix values="0 0 0 0 0.672752491   0 0 0 0 0.672752491   0 0 0 0 0.672752491  0 0 0 0.5 0" type="matrix" in="shadowBlurOuter1"></feColorMatrix>
        </filter>
        <path d="M586.210269,175.565031 L408.937833,134.449984 L408.937833,456.449984 L586.210269,497.565031 C593.239509,499.195332 598.937833,494.818628 598.937833,487.789389 L598.937833,191.244517 C598.937833,184.215277 593.239509,177.195332 586.210269,175.565031 Z" id="path-38"></path>
        <filter x="-52.9%" y="-25.5%" width="211.1%" height="158.1%" filterUnits="objectBoundingBox" id="filter-39">
            <feOffset dx="5" dy="13" in="SourceAlpha" result="shadowOffsetOuter1"></feOffset>
            <feGaussianBlur stdDeviation="33" in="shadowOffsetOuter1" result="shadowBlurOuter1"></feGaussianBlur>
            <feColorMatrix values="0 0 0 0 0.871886322   0 0 0 0 0.871886322   0 0 0 0 0.871886322  0 0 0 0.5 0" type="matrix" in="shadowBlurOuter1"></feColorMatrix>
        </filter>
        <filter x="-11.8%" y="-46.6%" width="123.6%" height="193.1%" filterUnits="objectBoundingBox" id="filter-40">
            <feOffset dx="3" dy="-4" in="SourceAlpha" result="shadowOffsetOuter1"></feOffset>
            <feGaussianBlur stdDeviation="3.5" in="shadowOffsetOuter1" result="shadowBlurOuter1"></feGaussianBlur>
            <feColorMatrix values="0 0 0 0 0.558112545   0 0 0 0 0.539735669   0 0 0 0 0.539735669  0 0 0 0.145186844 0" type="matrix" in="shadowBlurOuter1" result="shadowMatrixOuter1"></feColorMatrix>
            <feMerge>
                <feMergeNode in="shadowMatrixOuter1"></feMergeNode>
                <feMergeNode in="SourceGraphic"></feMergeNode>
            </feMerge>
        </filter>
        <filter x="-11.8%" y="-46.6%" width="123.6%" height="193.1%" filterUnits="objectBoundingBox" id="filter-41">
            <feOffset dx="3" dy="-4" in="SourceAlpha" result="shadowOffsetOuter1"></feOffset>
            <feGaussianBlur stdDeviation="3.5" in="shadowOffsetOuter1" result="shadowBlurOuter1"></feGaussianBlur>
            <feColorMatrix values="0 0 0 0 0.558112545   0 0 0 0 0.539735669   0 0 0 0 0.539735669  0 0 0 0.145186844 0" type="matrix" in="shadowBlurOuter1" result="shadowMatrixOuter1"></feColorMatrix>
            <feMerge>
                <feMergeNode in="shadowMatrixOuter1"></feMergeNode>
                <feMergeNode in="SourceGraphic"></feMergeNode>
            </feMerge>
        </filter>
        <path d="M184.5,138.890145 C185.880712,139.210375 187,138.350685 187,136.969973 C187,135.589261 185.880712,134.210375 184.5,133.890145 C183.119288,133.569914 182,134.429604 182,135.810316 C182,137.191028 183.119288,138.569914 184.5,138.890145 Z" id="path-42"></path>
        <filter x="-160.0%" y="-214.3%" width="500.0%" height="489.6%" filterUnits="objectBoundingBox" id="filter-43">
            <feOffset dx="2" dy="-1" in="SourceAlpha" result="shadowOffsetOuter1"></feOffset>
            <feGaussianBlur stdDeviation="3" in="shadowOffsetOuter1" result="shadowBlurOuter1"></feGaussianBlur>
            <feColorMatrix values="0 0 0 0 0.831372549   0 0 0 0 0.290196078   0 0 0 0 0.435294118  0 0 0 0.467302229 0" type="matrix" in="shadowBlurOuter1"></feColorMatrix>
        </filter>
        <path d="M148.5,127.582406 L177.5,134.308417 C178.880712,134.628648 180,136.007534 180,137.388246 C180,138.768958 178.880712,139.628648 177.5,139.308417 L148.5,132.582406 C147.119288,132.262176 146,130.88329 146,129.502578 C146,128.121866 147.119288,127.262176 148.5,127.582406 Z" id="path-44"></path>
        <filter x="-13.2%" y="-88.5%" width="144.1%" height="226.5%" filterUnits="objectBoundingBox" id="filter-45">
            <feOffset dx="3" dy="-3" in="SourceAlpha" result="shadowOffsetOuter1"></feOffset>
            <feGaussianBlur stdDeviation="2" in="shadowOffsetOuter1" result="shadowBlurOuter1"></feGaussianBlur>
            <feColorMatrix values="0 0 0 0 0   0 0 0 0 0   0 0 0 0 0  0 0 0 0.0677720717 0" type="matrix" in="shadowBlurOuter1"></feColorMatrix>
        </filter>
        <path d="M184.5,181.890145 C185.880712,182.210375 187,181.350685 187,179.969973 C187,178.589261 185.880712,177.210375 184.5,176.890145 C183.119288,176.569914 182,177.429604 182,178.810316 C182,180.191028 183.119288,181.569914 184.5,181.890145 Z" id="path-46"></path>
        <filter x="-160.0%" y="-214.3%" width="500.0%" height="489.6%" filterUnits="objectBoundingBox" id="filter-47">
            <feOffset dx="2" dy="-1" in="SourceAlpha" result="shadowOffsetOuter1"></feOffset>
            <feGaussianBlur stdDeviation="3" in="shadowOffsetOuter1" result="shadowBlurOuter1"></feGaussianBlur>
            <feColorMatrix values="0 0 0 0 0.831372549   0 0 0 0 0.290196078   0 0 0 0 0.435294118  0 0 0 0.467302229 0" type="matrix" in="shadowBlurOuter1"></feColorMatrix>
        </filter>
        <path d="M148.5,168.582406 L177.5,175.308417 C178.880712,175.628648 180,177.007534 180,178.388246 C180,179.768958 178.880712,180.628648 177.5,180.308417 L148.5,173.582406 C147.119288,173.262176 146,171.88329 146,170.502578 C146,169.121866 147.119288,168.262176 148.5,168.582406 Z" id="path-48"></path>
        <filter x="-13.2%" y="-88.5%" width="144.1%" height="226.5%" filterUnits="objectBoundingBox" id="filter-49">
            <feOffset dx="3" dy="-3" in="SourceAlpha" result="shadowOffsetOuter1"></feOffset>
            <feGaussianBlur stdDeviation="2" in="shadowOffsetOuter1" result="shadowBlurOuter1"></feGaussianBlur>
            <feColorMatrix values="0 0 0 0 0   0 0 0 0 0   0 0 0 0 0  0 0 0 0.0677720717 0" type="matrix" in="shadowBlurOuter1"></feColorMatrix>
        </filter>
        <path d="M348,201.591981 C353.378843,202.839504 357.739258,199.490407 357.739258,194.111563 C357.739258,188.73272 353.378843,183.360988 348,182.113466 C342.621157,180.865943 338.260742,184.21504 338.260742,189.593884 C338.260742,194.972727 342.621157,200.344458 348,201.591981 Z" id="path-50"></path>
        <filter x="-66.7%" y="-120.0%" width="305.4%" height="300.0%" filterUnits="objectBoundingBox" id="filter-51">
            <feOffset dx="7" dy="-4" in="SourceAlpha" result="shadowOffsetOuter1"></feOffset>
            <feGaussianBlur stdDeviation="5.5" in="shadowOffsetOuter1" result="shadowBlurOuter1"></feGaussianBlur>
            <feColorMatrix values="0 0 0 0 0.556862745   0 0 0 0 0.619607843   0 0 0 0 0.643137255  0 0 0 0.349104021 0" type="matrix" in="shadowBlurOuter1"></feColorMatrix>
        </filter>
        <path d="M348,240.591981 C353.378843,241.839504 357.739258,238.490407 357.739258,233.111563 C357.739258,227.73272 353.378843,222.360988 348,221.113466 C342.621157,219.865943 338.260742,223.21504 338.260742,228.593884 C338.260742,233.972727 342.621157,239.344458 348,240.591981 Z" id="path-52"></path>
        <filter x="-66.7%" y="-120.0%" width="305.4%" height="300.0%" filterUnits="objectBoundingBox" id="filter-53">
            <feOffset dx="7" dy="-4" in="SourceAlpha" result="shadowOffsetOuter1"></feOffset>
            <feGaussianBlur stdDeviation="5.5" in="shadowOffsetOuter1" result="shadowBlurOuter1"></feGaussianBlur>
            <feColorMatrix values="0 0 0 0 0.556862745   0 0 0 0 0.619607843   0 0 0 0 0.643137255  0 0 0 0.349104021 0" type="matrix" in="shadowBlurOuter1"></feColorMatrix>
        </filter>
        <path d="M210,355.469708 L264,367.994004 C270.075132,369.403018 275,375.470118 275,381.54525 C275,387.620382 270.075132,391.403018 264,389.994004 L210,377.469708 C203.924868,376.060694 199,369.993595 199,363.918462 C199,357.84333 203.924868,354.060694 210,355.469708 Z" id="path-54"></path>
        <filter x="-18.4%" y="-76.9%" width="157.9%" height="225.3%" filterUnits="objectBoundingBox" id="filter-55">
            <feOffset dx="8" dy="-5" in="SourceAlpha" result="shadowOffsetOuter1"></feOffset>
            <feGaussianBlur stdDeviation="6" in="shadowOffsetOuter1" result="shadowBlurOuter1"></feGaussianBlur>
            <feColorMatrix values="0 0 0 0 0.556862745   0 0 0 0 0.619607843   0 0 0 0 0.643137255  0 0 0 0.40854458 0" type="matrix" in="shadowBlurOuter1"></feColorMatrix>
        </filter>
    </defs>
    <g id="Diagrams&amp;Illustrations" stroke="none" stroke-width="1" fill="none" fill-rule="evenodd">
        <g id="configure_empathy_platfotm_landing_asset" transform="translate(-89.000000, -70.000000)">
            <g id="CMC_configuration" transform="translate(89.000000, 73.220267)">
                <circle id="Oval" fill="#FDCB5B" opacity="0.769670759" cx="82" cy="373" r="82"></circle>
                <circle id="Oval-Copy-11" fill="#80C0A1" opacity="0.754417783" cx="802.5" cy="264.5" r="94.5"></circle>
                <circle id="Oval-Copy-4" fill-opacity="0.707768794" fill="#B683BE" cx="499.5" cy="178.5" r="170"></circle>
                <g id="Group-4" transform="translate(673.000000, 32.000000)">
                    <g id="Group-5" fill="#80C0A1">
                        <circle id="Oval-Copy-6" cx="30.5" cy="30.5" r="30.5"></circle>
                    </g>
                    <g id="interactivity-copy-2" transform="translate(23.000000, 15.727844)" fill="#1E3D49">
                        <path d="M15.4545455,14.4541173 C14.6010424,14.4541173 13.9090909,15.1731828 13.9090909,16.0601303 C13.9090909,15.1731828 13.2171394,14.4541173 12.3636364,14.4541173 C11.5101333,14.4541173 10.8181818,15.1731828 10.8181818,16.0601303 C10.8181818,15.1731828 10.1262303,14.4541173 9.27272727,14.4541173 C8.41922424,14.4541173 7.72727273,15.1731828 7.72727273,16.0601303 L7.72727273,8.83307166 C7.72727273,7.9461242 7.03532121,7.22705863 6.18181818,7.22705863 C5.32831515,7.22705863 4.63636364,7.9461242 4.63636364,8.83307166 L4.63636364,14.4541173 L4.63636364,18.4691498 L4.54440909,18.4691498 L3.09090909,16.455263 C2.69774545,15.7830395 1.7918,15.6218493 1.11906364,16.0879143 C0.479760606,16.5307992 0.257884848,17.3990633 0.601490909,18.1132038 L3.9956697,25.970569 C4.38831818,26.7866913 5.19102727,27.3022215 6.06905152,27.3022215 L14.6818182,27.3022215 C15.9621242,27.3022215 17,26.2236767 17,24.8932019 L17,16.8631368 L17,16.0601303 C17,15.1731828 16.3080485,14.4541173 15.4545455,14.4541173 Z" id="XMLID_225_"></path>
                        <path d="M1.54545455,6.42405211 C1.54545455,3.76738536 3.62532727,1.60601303 6.18181818,1.60601303 C8.73830909,1.60601303 10.8181818,3.76738536 10.8181818,6.42405211 C10.8181818,7.81502 10.2297242,9.11214319 9.27272727,10.009155 L9.27272727,11.9854611 C9.98379091,11.5570304 10.6145424,10.9824524 11.113003,10.2984515 C11.9311152,9.1755807 12.3636364,7.83584463 12.3636364,6.42405211 C12.3636364,2.88182978 9.59047273,0 6.18181818,0 C2.77316364,0 0,2.88182978 0,6.42405211 C0,7.83584463 0.432469697,9.1755807 1.25063333,10.2984515 C1.74909394,10.9823989 2.37984545,11.5570304 3.09090909,11.9854611 L3.09090909,10.009155 C2.13391212,9.11214319 1.54545455,7.81502 1.54545455,6.42405211 Z" id="XMLID_955_"></path>
                        <path d="M8.36250606,4.14774278 C7.77889091,3.54393542 7.00508182,3.21202606 6.18197273,3.21202606 C6.17728485,3.21202606 6.17249394,3.21202606 6.16785758,3.21202606 C4.52673939,3.21968139 3.17688788,4.55850738 3.09492727,6.26002465 C3.07220909,6.73176421 3.15200606,7.19707972 3.31855455,7.62524279 C3.58586667,6.9435438 4.07191212,6.37795954 4.68612727,6.02345893 C4.86014545,5.33876204 5.47281515,4.82135818 6.17470909,4.81803909 L6.1818697,4.81803909 C6.59342424,4.81803909 6.98045758,4.9840473 7.27223939,5.28587068 C7.47247879,5.49304636 7.61120909,5.74711762 7.67920909,6.02442254 C8.29419697,6.37994029 8.78055152,6.94702349 9.04719394,7.63054264 C9.19437273,7.2527013 9.27272727,6.84439926 9.27272727,6.42405211 C9.27272727,5.56338973 8.9494697,4.75497631 8.36250606,4.14774278 L8.36250606,4.14774278 Z" id="XMLID_958_"></path>
                    </g>
                </g>
                <g id="Group-9" transform="translate(174.000000, 437.000000)">
                    <circle id="Oval-Copy-12" fill="#FDCB5B" opacity="0.601911272" cx="30.5" cy="30.5" r="30.5"></circle>
                    <g id="search-copy" transform="translate(20.000000, 19.000000)" stroke="#1E3D49" stroke-linecap="round" stroke-linejoin="round" stroke-width="1.6">
                        <circle id="Oval" cx="9.77777778" cy="9.77777778" r="9.77777778"></circle>
                        <line x1="22" y1="22" x2="16.6833333" y2="16.6833333" id="Path"></line>
                    </g>
                </g>
                <circle id="Oval-Copy-10" fill="#53B9C9" opacity="0.762509301" cx="30.5" cy="229.5" r="30.5"></circle>
                <g id="Group-64-Copy-5" transform="translate(15.000000, 214.000000)" fill="#1E3D49" fill-rule="nonzero">
                    <g id="01_icon/menu/insight-copy">
                        <path d="M15.5,6.45833333 C16.180942,6.45833333 16.738815,6.98525441 16.7881238,7.6536014 L16.7916667,7.75 L16.7916938,7.97050448 C18.2967198,8.50246751 19.375,9.93781084 19.375,11.625 C19.375,13.3121892 18.2967198,14.7475325 16.7916938,15.2794955 L16.7916667,24.5416667 C16.7916667,25.2550345 16.2133678,25.8333333 15.5,25.8333333 C14.819058,25.8333333 14.261185,25.3064123 14.2118762,24.6380653 L14.2083333,24.5416667 L14.2083062,15.2794955 C12.7032802,14.7475325 11.625,13.3121892 11.625,11.625 C11.625,9.93781084 12.7032802,8.50246751 14.2083062,7.97050448 L14.2083333,7.75 C14.2083333,7.0366322 14.7866322,6.45833333 15.5,6.45833333 Z M15.5,10.3333333 C14.7866322,10.3333333 14.2083333,10.9116322 14.2083333,11.625 C14.2083333,12.3383678 14.7866322,12.9166667 15.5,12.9166667 C16.2133678,12.9166667 16.7916667,12.3383678 16.7916667,11.625 C16.7916667,10.9116322 16.2133678,10.3333333 15.5,10.3333333 Z" id="Combined-Shape"></path>
                        <path d="M6.45833333,6.45833333 C7.13927533,6.45833333 7.69714831,6.98525441 7.74645713,7.6536014 L7.75,7.75 L7.75002718,15.7205045 C9.25505313,16.2524675 10.3333333,17.6878108 10.3333333,19.375 C10.3333333,21.0621892 9.25505313,22.4975325 7.75002718,23.0294955 L7.75,24.5416667 C7.75,25.2550345 7.17170114,25.8333333 6.45833333,25.8333333 C5.77739134,25.8333333 5.21951836,25.3064123 5.17020954,24.6380653 L5.16666667,24.5416667 L5.16663949,23.0294955 C3.66161354,22.4975325 2.58333333,21.0621892 2.58333333,19.375 C2.58333333,17.6878108 3.66161354,16.2524675 5.16663949,15.7205045 L5.16666667,7.75 C5.16666667,7.0366322 5.74496553,6.45833333 6.45833333,6.45833333 Z M6.45833333,18.0833333 C5.74496553,18.0833333 5.16666667,18.6616322 5.16666667,19.375 C5.16666667,20.0883678 5.74496553,20.6666667 6.45833333,20.6666667 C7.17170114,20.6666667 7.75,20.0883678 7.75,19.375 C7.75,18.6616322 7.17170114,18.0833333 6.45833333,18.0833333 Z" id="Combined-Shape"></path>
                        <path d="M24.5416667,6.45833333 C25.2226087,6.45833333 25.7804816,6.98525441 25.8297905,7.6536014 L25.8333333,7.75 L25.8333605,11.8455045 C27.3383865,12.3774675 28.4166667,13.8128108 28.4166667,15.5 C28.4166667,17.1871892 27.3383865,18.6225325 25.8333605,19.1544955 L25.8333333,24.5416667 C25.8333333,25.2550345 25.2550345,25.8333333 24.5416667,25.8333333 C23.8607247,25.8333333 23.3028517,25.3064123 23.2535429,24.6380653 L23.25,24.5416667 L23.2499728,19.1544955 C21.7449469,18.6225325 20.6666667,17.1871892 20.6666667,15.5 C20.6666667,13.8128108 21.7449469,12.3774675 23.2499728,11.8455045 L23.25,7.75 C23.25,7.0366322 23.8282989,6.45833333 24.5416667,6.45833333 Z M24.5416667,14.2083333 C23.8282989,14.2083333 23.25,14.7866322 23.25,15.5 C23.25,16.2133678 23.8282989,16.7916667 24.5416667,16.7916667 C25.2550345,16.7916667 25.8333333,16.2133678 25.8333333,15.5 C25.8333333,14.7866322 25.2550345,14.2083333 24.5416667,14.2083333 Z" id="Combined-Shape"></path>
                    </g>
                </g>
                <g id="Rectangle-Copy-98">
                    <use fill="black" fill-opacity="1" filter="url(#filter-4)" xlink:href="#path-3"></use>
                    <use fill="url(#linearGradient-1)" fill-rule="evenodd" xlink:href="#path-3"></use>
                    <use fill="url(#radialGradient-2)" fill-rule="evenodd" xlink:href="#path-3"></use>
                </g>
                <g id="Rectangle-Copy-99" opacity="0.904831659">
                    <use fill="black" fill-opacity="1" filter="url(#filter-7)" xlink:href="#path-6"></use>
                    <use fill="#FFFFFF" fill-rule="evenodd" xlink:href="#path-6"></use>
                    <use fill="url(#radialGradient-5)" fill-rule="evenodd" xlink:href="#path-6"></use>
                </g>
                <circle id="Oval-Copy-13" fill="#80C0A1" opacity="0.362792969" cx="641" cy="16" r="16"></circle>
                <g id="Group-2" transform="translate(177.937833, 42.779733)">
                    <g id="Rectangle-Copy-98">
                        <use fill="black" fill-opacity="1" filter="url(#filter-10)" xlink:href="#path-9"></use>
                        <use fill="url(#linearGradient-8)" fill-rule="evenodd" xlink:href="#path-9"></use>
                    </g>
                    <g id="Rectangle-Copy-99">
                        <use fill="black" fill-opacity="1" filter="url(#filter-12)" xlink:href="#path-11"></use>
                        <use fill="#FFFFFF" fill-rule="evenodd" xlink:href="#path-11"></use>
                    </g>
                </g>
                <g id="Rectangle-Copy-96">
                    <use fill="black" fill-opacity="1" filter="url(#filter-16)" xlink:href="#path-15"></use>
                    <use fill="url(#linearGradient-13)" fill-rule="evenodd" xlink:href="#path-15"></use>
                    <use fill="url(#radialGradient-14)" fill-rule="evenodd" xlink:href="#path-15"></use>
                </g>
                <path d="M140.769083,214.98005 C141.567953,214.366299 142.673248,214.14417 143.887128,214.425458 L143.887128,214.425458 L346.887128,261.465902 C348.161903,261.761301 349.312688,262.549616 350.147357,263.5777 C350.978589,264.60155 351.5,265.867411 351.5,267.137441 L351.5,267.137441 L351.5,359.137441 C351.5,360.342042 351.023493,361.328208 350.230917,361.937124 C349.432047,362.550874 348.326752,362.773004 347.112872,362.491716 L347.112872,362.491716 L144.112872,315.451271 C142.838097,315.155872 141.687312,314.367557 140.852643,313.339474 C140.021411,312.315623 139.5,311.049762 139.5,309.779733 L139.5,309.779733 L139.5,217.779733 C139.5,216.575132 139.976507,215.588965 140.769083,214.98005 Z" id="Rectangle" stroke="#E2E6E7" opacity="0.80312965"></path>
                <g id="Group-7" filter="url(#filter-17)" transform="translate(304.000000, 266.993211)">
                    <path d="M4,0.106903215 L19,3.58279812 C21.209139,4.09471379 23,6.30056443 23,8.50970343 C23,10.7188424 21.209139,12.0947138 19,11.5827981 L4,8.10690321 C1.790861,7.59498755 0,5.38913691 0,3.17999791 C0,0.970858907 1.790861,-0.405012451 4,0.106903215 Z" id="Rectangle-Copy-17" fill="#E2E6E7"></path>
                    <g id="Oval-Copy-51">
                        <use fill="black" fill-opacity="1" filter="url(#filter-19)" xlink:href="#path-18"></use>
                        <use fill="#1E3D49" fill-rule="evenodd" xlink:href="#path-18"></use>
                    </g>
                </g>
                <g id="Group-8" filter="url(#filter-20)" transform="translate(304.000000, 296.403212)">
                    <path d="M4,1.69690217 L19,5.17279707 C21.209139,5.68471274 23,7.89056338 23,10.0997024 C23,12.3088414 21.209139,13.6847127 19,13.1727971 L4,9.69690217 C1.790861,9.1849865 0,6.97913586 0,4.76999686 C0,2.56085786 1.790861,1.1849865 4,1.69690217 Z" id="Rectangle-Copy-19" fill="#E2E6E7"></path>
                    <g id="Oval-Copy-52">
                        <use fill="black" fill-opacity="1" filter="url(#filter-22)" xlink:href="#path-21"></use>
                        <use fill="#FFFFFF" fill-rule="evenodd" xlink:href="#path-21"></use>
                    </g>
                </g>
                <g id="Rectangle-Copy-18">
                    <use fill="black" fill-opacity="1" filter="url(#filter-24)" xlink:href="#path-23"></use>
                    <use fill="#8E9EA4" fill-rule="evenodd" xlink:href="#path-23"></use>
                </g>
                <g id="Path-23" stroke-linecap="round" stroke-linejoin="round">
                    <use fill="black" fill-opacity="1" filter="url(#filter-26)" xlink:href="#path-25"></use>
                    <use stroke="#1E3D49" stroke-width="2" xlink:href="#path-25"></use>
                </g>
                <g id="Path-23" stroke-linecap="round" stroke-linejoin="round">
                    <use fill="black" fill-opacity="1" filter="url(#filter-28)" xlink:href="#path-27"></use>
                    <use stroke="#1E3D49" stroke-width="2" xlink:href="#path-27"></use>
                </g>
                <g id="Path-23" stroke-linecap="round" stroke-linejoin="round">
                    <use fill="black" fill-opacity="1" filter="url(#filter-30)" xlink:href="#path-29"></use>
                    <use stroke="#1E3D49" stroke-width="2" xlink:href="#path-29"></use>
                </g>
                <g id="Rectangle-Copy-20">
                    <use fill="black" fill-opacity="1" filter="url(#filter-32)" xlink:href="#path-31"></use>
                    <use fill="#8E9EA4" fill-rule="evenodd" xlink:href="#path-31"></use>
                </g>
                <g id="Group-11" filter="url(#filter-33)" transform="translate(304.000000, 329.993211)">
                    <path d="M4,0.106903215 L19,3.58279812 C21.209139,4.09471379 23,6.30056443 23,8.50970343 C23,10.7188424 21.209139,12.0947138 19,11.5827981 L4,8.10690321 C1.790861,7.59498755 0,5.38913691 0,3.17999791 C0,0.970858907 1.790861,-0.405012451 4,0.106903215 Z" id="Rectangle-Copy-22" fill="#E2E6E7"></path>
                    <g id="Oval-Copy-53">
                        <use fill="black" fill-opacity="1" filter="url(#filter-35)" xlink:href="#path-34"></use>
                        <use fill="#1E3D49" fill-rule="evenodd" xlink:href="#path-34"></use>
                    </g>
                </g>
                <g id="Rectangle-Copy-21">
                    <use fill="black" fill-opacity="1" filter="url(#filter-37)" xlink:href="#path-36"></use>
                    <use fill="#8E9EA4" fill-rule="evenodd" xlink:href="#path-36"></use>
                </g>
                <line x1="160.5" y1="252.420481" x2="325.5" y2="290.655325" id="Line-9" stroke="#E2E6E7" stroke-linecap="square"></line>
                <line x1="165.5" y1="284.420481" x2="330.5" y2="322.655325" id="Line-9-Copy" stroke="#E2E6E7" stroke-linecap="square"></line>
                <path d="M17,399.721528 L20,400.42828 L17,399.721528 Z" id="Rectangle" fill="#1E3D49"></path>
                <g id="Rectangle-Copy-97">
                    <use fill="black" fill-opacity="1" filter="url(#filter-39)" xlink:href="#path-38"></use>
                    <use fill="#FFFFFF" fill-rule="evenodd" xlink:href="#path-38"></use>
                </g>
                <g id="Group-10" filter="url(#filter-40)" transform="translate(146.000000, 144.515475)">
                    <path d="M2.5,0.0669307658 L179.5,41.1187911 C180.880712,41.4390216 182,42.8179078 182,44.1986196 C182,45.5793315 180.880712,46.4390216 179.5,46.1187911 L2.5,5.06693077 C1.11928813,4.74670031 0,3.3678141 0,1.98710223 C0,0.606390355 1.11928813,-0.253299692 2.5,0.0669307658 Z" id="Rectangle-Copy-106" fill="#E2E6E7"></path>
                    <path d="M61,20.4148279 C63.209139,20.9271966 65,19.5516925 65,17.3425535 C65,15.1334145 63.209139,12.9271966 61,12.4148279 C58.790861,11.9024592 57,13.2779632 57,15.4871022 C57,17.6962412 58.790861,19.9024592 61,20.4148279 Z" id="Oval" fill="#1E3D49"></path>
                </g>
                <g id="Group-6" filter="url(#filter-41)" transform="translate(146.000000, 183.515475)">
                    <path d="M2.5,0.0669307658 L179.5,41.1187911 C180.880712,41.4390216 182,42.8179078 182,44.1986196 C182,45.5793315 180.880712,46.4390216 179.5,46.1187911 L2.5,5.06693077 C1.11928813,4.74670031 0,3.3678141 0,1.98710223 C0,0.606390355 1.11928813,-0.253299692 2.5,0.0669307658 Z" id="Rectangle-Copy-112" fill="#E2E6E7"></path>
                    <path d="M116,32.4148279 C118.209139,32.9271966 120,31.5516925 120,29.3425535 C120,27.1334145 118.209139,24.9271966 116,24.4148279 C113.790861,23.9024592 112,25.2779632 112,27.4871022 C112,29.6962412 113.790861,31.9024592 116,32.4148279 Z" id="Oval-Copy-42" fill="#1E3D49"></path>
                </g>
                <g id="Oval-Copy-3">
                    <use fill="black" fill-opacity="1" filter="url(#filter-43)" xlink:href="#path-42"></use>
                    <use fill="#D44A6F" fill-rule="evenodd" xlink:href="#path-42"></use>
                </g>
                <g id="Rectangle">
                    <use fill="black" fill-opacity="1" filter="url(#filter-45)" xlink:href="#path-44"></use>
                    <use fill="#BBC3C6" fill-rule="evenodd" xlink:href="#path-44"></use>
                </g>
                <g id="Oval-Copy-5">
                    <use fill="black" fill-opacity="1" filter="url(#filter-47)" xlink:href="#path-46"></use>
                    <use fill="#D44A6F" fill-rule="evenodd" xlink:href="#path-46"></use>
                </g>
                <g id="Rectangle-Copy">
                    <use fill="black" fill-opacity="1" filter="url(#filter-49)" xlink:href="#path-48"></use>
                    <use fill="#BBC3C6" fill-rule="evenodd" xlink:href="#path-48"></use>
                </g>
                <g id="Oval-Copy-41">
                    <use fill="black" fill-opacity="1" filter="url(#filter-51)" xlink:href="#path-50"></use>
                    <use fill="#8E9EA4" fill-rule="evenodd" xlink:href="#path-50"></use>
                </g>
                <g id="Oval-Copy-43">
                    <use fill="black" fill-opacity="1" filter="url(#filter-53)" xlink:href="#path-52"></use>
                    <use fill="#8E9EA4" fill-rule="evenodd" xlink:href="#path-52"></use>
                </g>
                <path d="M348,195.301928 C349.904943,195.743745 351.449205,194.557646 351.449205,192.652702 C351.449205,190.747759 349.904943,188.845334 348,188.403518 C346.095057,187.961702 344.550795,189.147801 344.550795,191.052744 C344.550795,192.957688 346.095057,194.860112 348,195.301928 Z" id="Oval-Copy-41" fill="#FFFFFF"></path>
                <path d="M348,234.301928 C349.904943,234.743745 351.449205,233.557646 351.449205,231.652702 C351.449205,229.747759 349.904943,227.845334 348,227.403518 C346.095057,226.961702 344.550795,228.147801 344.550795,230.052744 C344.550795,231.957688 346.095057,233.860112 348,234.301928 Z" id="Oval-Copy-44" fill="#FFFFFF"></path>
                <g id="Group" transform="translate(409.000000, 218.388293)" fill="#1E3D49">
                    <polygon id="Path" fill-rule="nonzero" points="23.416 1.99728955 20.056 1.218 20.056 2.73085082e-17 28.162 1.88003604 28.162 3.09803604 24.802 2.31874649 24.802 10.9007465 23.416 10.5792896"></polygon>
                    <path d="M36.442,11.1504282 L31.234,9.94252935 L30.156,12.1425073 L28.714,11.8080622 L33.152,3.0373738 L34.538,3.35883074 L38.99,14.1913894 L37.52,13.8504502 L36.442,11.1504282 Z M35.952,9.91678176 L33.838,4.62447875 L31.724,8.93617574 L35.952,9.91678176 Z" id="Shape" fill-rule="nonzero"></path>
                    <path d="M48.096,11.3473569 L49.44,11.6590727 L49.44,15.4810727 C48.9546667,15.769842 48.39,15.946878 47.746,16.0121809 C47.102,16.0774837 46.43,16.0289591 45.73,15.8666071 C44.7406667,15.6371497 43.8493333,15.2134215 43.056,14.5954225 C42.2626667,13.9774236 41.6396667,13.235597 41.187,12.3699427 C40.7343333,11.5042884 40.508,10.5954613 40.508,9.64346129 C40.508,8.69146129 40.7343333,7.88528843 41.187,7.22494272 C41.6396667,6.564597 42.265,6.11229811 43.063,5.86804605 C43.861,5.62379398 44.7593333,5.61747904 45.758,5.84910121 C46.542,6.03093544 47.2536667,6.32432663 47.893,6.72927478 C48.5323333,7.13422293 49.076,7.63598298 49.524,8.23455492 L48.656,8.90123845 C47.872,7.96340422 46.9246667,7.36568786 45.814,7.10808937 C45.0673333,6.93491391 44.3976667,6.94059718 43.805,7.12513916 C43.2123333,7.30968114 42.748,7.64998765 42.412,8.1460587 C42.076,8.64212974 41.908,9.2494986 41.908,9.96816527 C41.908,10.6774986 42.076,11.3581297 42.412,12.0100587 C42.748,12.6619877 43.2123333,13.2200145 43.805,13.6841392 C44.3976667,14.1482638 45.0626667,14.4658316 45.8,14.6368423 C46.6773333,14.8403235 47.4426667,14.8078283 48.096,14.5393569 L48.096,11.3473569 Z" id="Path" fill-rule="nonzero"></path>
                    <path d="M59.904,14.086003 L61.248,14.3977188 L61.248,18.2197188 C60.7626667,18.5084881 60.198,18.6855242 59.554,18.750827 C58.91,18.8161298 58.238,18.7676053 57.538,18.6052533 C56.5486667,18.3757958 55.6573333,17.9520676 54.864,17.3340687 C54.0706667,16.7160697 53.4476667,15.9742431 52.995,15.1085889 C52.5423333,14.2429346 52.316,13.3341074 52.316,12.3821074 C52.316,11.4301074 52.5423333,10.6239346 52.995,9.96358886 C53.4476667,9.30324314 54.073,8.85094425 54.871,8.60669219 C55.669,8.36244012 56.5673333,8.35612518 57.566,8.58774735 C58.35,8.76958158 59.0616667,9.06297277 59.701,9.46792092 C60.3403333,9.87286907 60.884,10.3746291 61.332,10.9732011 L60.464,11.6398846 C59.68,10.7020504 58.7326667,10.104334 57.622,9.84673551 C56.8753333,9.67356005 56.2056667,9.67924332 55.613,9.8637853 C55.0203333,10.0483273 54.556,10.3886338 54.22,10.8847048 C53.884,11.3807759 53.716,11.9881447 53.716,12.7068114 C53.716,13.4161447 53.884,14.0967759 54.22,14.7487048 C54.556,15.4006338 55.0203333,15.9586606 55.613,16.4227853 C56.2056667,16.88691 56.8706667,17.2044777 57.608,17.3754885 C58.4853333,17.5789696 59.2506667,17.5464745 59.904,17.278003 L59.904,14.086003 Z" id="Path" fill-rule="nonzero"></path>
                    <polygon id="Path" fill-rule="nonzero" points="64.922 10.4058348 66.322 10.7305388 66.322 20.5305388 64.922 20.2058348"></polygon>
                    <polygon id="Path" fill-rule="nonzero" points="78.69 13.5990665 78.69 23.3990665 77.542 23.1328093 71.662 14.4610526 71.662 21.7690526 70.262 21.4443486 70.262 11.6443486 71.41 11.9106059 77.29 20.5823626 77.29 13.2743626"></polygon>
                    <path d="M89.42,20.9316906 L90.764,21.2434064 L90.764,25.0654064 C90.2786667,25.3541757 89.714,25.5312118 89.07,25.5965146 C88.426,25.6618175 87.754,25.6132929 87.054,25.4509409 C86.0646667,25.2214834 85.1733333,24.7977552 84.38,24.1797563 C83.5866667,23.5617574 82.9636667,22.8199308 82.511,21.9542765 C82.0583333,21.0886222 81.832,20.1797951 81.832,19.2277951 C81.832,18.2757951 82.0583333,17.4696222 82.511,16.8092765 C82.9636667,16.1489308 83.589,15.6966319 84.387,15.4523798 C85.185,15.2081277 86.0833333,15.2018128 87.082,15.433435 C87.866,15.6152692 88.5776667,15.9086604 89.217,16.3136085 C89.8563333,16.7185567 90.4,17.2203167 90.848,17.8188887 L89.98,18.4855722 C89.196,17.547738 88.2486667,16.9500216 87.138,16.6924231 C86.3913333,16.5192477 85.7216667,16.5249309 85.129,16.7094729 C84.5363333,16.8940149 84.072,17.2343214 83.736,17.7303925 C83.4,18.2264635 83.232,18.8338324 83.232,19.552499 C83.232,20.2618324 83.4,20.9424635 83.736,21.5943925 C84.072,22.2463214 84.5363333,22.8043482 85.129,23.2684729 C85.7216667,23.7325976 86.3866667,24.0501653 87.124,24.2211761 C88.0013333,24.4246573 88.7666667,24.3921621 89.42,24.1236906 L89.42,20.9316906 Z" id="Path" fill-rule="nonzero"></path>
                    <path d="M24.326,48.9023471 C23.5886667,48.7313364 22.877,48.4519452 22.191,48.0641736 C21.505,47.676402 20.966,47.2550576 20.574,46.8001405 L21.092,45.8282809 C21.4653333,46.2508687 21.9436667,46.6348092 22.527,46.9801025 C23.1103333,47.3253958 23.71,47.5694774 24.326,47.7123471 C25.138,47.9006754 25.7446667,47.9037138 26.146,47.7214623 C26.5473333,47.5392108 26.748,47.2194184 26.748,46.762085 C26.748,46.426085 26.6383333,46.1276499 26.419,45.8667796 C26.1996667,45.6059093 25.929,45.3821332 25.607,45.1954513 C25.285,45.0087694 24.83,44.7772406 24.242,44.5008649 C23.5046667,44.1525208 22.9096667,43.8371883 22.457,43.5548673 C22.0043333,43.2725464 21.617,42.9097116 21.295,42.466363 C20.973,42.0230144 20.812,41.4886735 20.812,40.8633401 C20.812,40.3406735 20.9496667,39.9012694 21.225,39.5451278 C21.5003333,39.1889863 21.918,38.9498563 22.478,38.8277379 C23.038,38.7056195 23.7333333,38.7408891 24.564,38.9335468 C25.1426667,39.0677578 25.712,39.2744707 26.272,39.5536857 C26.832,39.8329006 27.3126667,40.159049 27.714,40.5321308 L27.252,41.5449785 C26.8413333,41.1883986 26.4026667,40.8883247 25.936,40.6447567 C25.4693333,40.4011887 25.012,40.2274521 24.564,40.1235468 C23.7706667,39.9395479 23.1756667,39.9462154 22.779,40.1435492 C22.3823333,40.3408831 22.184,40.6682167 22.184,41.12555 C22.184,41.46155 22.296,41.7605264 22.52,42.022479 C22.744,42.2844316 23.0216667,42.5121646 23.353,42.7056779 C23.6843333,42.8991911 24.1346667,43.1273043 24.704,43.3900172 C25.4413333,43.7383613 26.034,44.0531527 26.482,44.3343913 C26.93,44.6156299 27.315,44.9755901 27.637,45.4142721 C27.959,45.852954 28.12,46.3802949 28.12,46.9962949 C28.12,47.5096283 27.98,47.9461579 27.7,48.3058837 C27.42,48.6656096 26.9953333,48.9031161 26.426,49.0184031 C25.8566667,49.1336902 25.1566667,49.0950048 24.326,48.9023471 Z" id="Path" fill-rule="nonzero"></path>
                    <polygon id="Path" fill-rule="nonzero" points="32.97 42.2131623 29.61 41.4338727 29.61 40.2158727 37.716 42.0959088 37.716 43.3139088 34.356 42.5346192 34.356 51.1166192 32.97 50.7951623"></polygon>
                    <path d="M45.996,51.3663009 L40.788,50.1584021 L39.71,52.35838 L38.268,52.0239349 L42.706,43.2532465 L44.092,43.5747035 L48.544,54.4072621 L47.074,54.066323 L45.996,51.3663009 Z M45.506,50.1326545 L43.392,44.8403515 L41.278,49.1520485 L45.506,50.1326545 Z" id="Shape" fill-rule="nonzero"></path>
                    <polygon id="Path" fill-rule="nonzero" points="52.456 46.7325778 49.096 45.9532883 49.096 44.7352883 57.202 46.6153243 57.202 47.8333243 53.842 47.0540348 53.842 55.6360348 52.456 55.3145778"></polygon>
                    <path d="M62.458,57.7463558 C61.7206667,57.5753451 61.009,57.2959539 60.323,56.9081823 C59.637,56.5204106 59.098,56.0990663 58.706,55.6441492 L59.224,54.6722896 C59.5973333,55.0948774 60.0756667,55.4788179 60.659,55.8241112 C61.2423333,56.1694045 61.842,56.4134861 62.458,56.5563558 C63.27,56.7446841 63.8766667,56.7477225 64.278,56.565471 C64.6793333,56.3832195 64.88,56.063427 64.88,55.6060937 C64.88,55.2700937 64.7703333,54.9716586 64.551,54.7107883 C64.3316667,54.449918 64.061,54.2261419 63.739,54.03946 C63.417,53.8527781 62.962,53.6212493 62.374,53.3448736 C61.6366667,52.9965295 61.0416667,52.681197 60.589,52.398876 C60.1363333,52.1165551 59.749,51.7537203 59.427,51.3103717 C59.105,50.8670231 58.944,50.3326822 58.944,49.7073488 C58.944,49.1846822 59.0816667,48.7452781 59.357,48.3891365 C59.6323333,48.032995 60.05,47.793865 60.61,47.6717466 C61.17,47.5496282 61.8653333,47.5848978 62.696,47.7775555 C63.2746667,47.9117665 63.844,48.1184794 64.404,48.3976944 C64.964,48.6769093 65.4446667,49.0030577 65.846,49.3761395 L65.384,50.3889871 C64.9733333,50.0324073 64.5346667,49.7323334 64.068,49.4887654 C63.6013333,49.2451974 63.144,49.0714608 62.696,48.9675555 C61.9026667,48.7835566 61.3076667,48.7902241 60.911,48.9875579 C60.5143333,49.1848918 60.316,49.5122254 60.316,49.9695587 C60.316,50.3055587 60.428,50.6045351 60.652,50.8664877 C60.876,51.1284403 61.1536667,51.3561733 61.485,51.5496866 C61.8163333,51.7431998 62.2666667,51.971313 62.836,52.2340259 C63.5733333,52.58237 64.166,52.8971614 64.614,53.1784 C65.062,53.4596386 65.447,53.8195988 65.769,54.2582807 C66.091,54.6969627 66.252,55.2243036 66.252,55.8403036 C66.252,56.3536369 66.112,56.7901666 65.832,57.1498924 C65.552,57.5096183 65.1273333,57.7471248 64.558,57.8624118 C63.9886667,57.9776988 63.2886667,57.9390135 62.458,57.7463558 Z" id="Path" fill-rule="nonzero"></path>
                    <path d="M25.292,77.2143929 C26.5613333,77.5087912 27.56,78.0437467 28.288,78.8192594 C29.016,79.5947721 29.38,80.5145285 29.38,81.5785285 C29.38,82.6425285 29.016,83.3934388 28.288,83.8312594 C27.56,84.26908 26.5613333,84.3407912 25.292,84.0463929 L22.87,83.484655 L22.87,86.452655 L21.47,86.127951 L21.47,76.327951 L25.292,77.2143929 Z M25.25,82.8186518 C26.1366667,83.0242976 26.8133333,82.9922379 27.28,82.7224725 C27.7466667,82.4527072 27.98,81.9631579 27.98,81.2538245 C27.98,80.5444912 27.7466667,79.9467072 27.28,79.4604725 C26.8133333,78.9742379 26.1366667,78.6282976 25.25,78.4226518 L22.87,77.870655 L22.87,82.266655 L25.25,82.8186518 Z" id="Shape" fill-rule="nonzero"></path>
                    <polygon id="Path" fill-rule="nonzero" points="32.438 78.8717748 33.838 79.1964788 33.838 87.7784788 39.144 89.0091068 39.144 90.2271068 32.438 88.6717748"></polygon>
                    <path d="M48.04,89.8403687 L42.832,88.6324699 L41.754,90.8324478 L40.312,90.4980027 L44.75,81.7273143 L46.136,82.0487713 L50.588,92.8813299 L49.118,92.5403908 L48.04,89.8403687 Z M47.55,88.6067223 L45.436,83.3144193 L43.322,87.6261163 L47.55,88.6067223 Z" id="Shape" fill-rule="nonzero"></path>
                    <polygon id="Path" fill-rule="nonzero" points="56.208 90.7967845 56.208 94.1847845 54.822 93.8633276 54.822 90.4473276 50.93 83.1606505 52.428 83.5080837 55.564 89.4014207 58.714 84.9660046 60.1 85.2874616"></polygon>
                    <path d="M68.94,92.0557353 C69.5093333,92.3464482 69.9573333,92.7373535 70.284,93.2284511 C70.6106667,93.7195487 70.774,94.2824308 70.774,94.9170975 C70.774,95.7664308 70.4543333,96.3456234 69.815,96.6546752 C69.1756667,96.9637271 68.2446667,96.9764656 67.022,96.6928908 L62.346,95.6083795 L62.346,85.8083795 L66.742,86.82795 C67.862,87.0877132 68.7276667,87.5124885 69.339,88.1022759 C69.9503333,88.6920633 70.256,89.3836237 70.256,90.176957 C70.256,90.6902903 70.137,91.1060238 69.899,91.4241575 C69.661,91.7422911 69.3413333,91.9528171 68.94,92.0557353 Z M63.746,87.2670835 L63.746,90.4030835 L66.616,91.0687267 C67.3346667,91.235408 67.8876667,91.2306661 68.275,91.0545009 C68.6623333,90.8783356 68.856,90.5335864 68.856,90.020253 C68.856,89.5069197 68.6623333,89.0723356 68.275,88.7165009 C67.8876667,88.3606661 67.3346667,88.099408 66.616,87.9327267 L63.746,87.2670835 Z M66.966,95.5459026 C67.7593333,95.7299016 68.3566667,95.7377753 68.758,95.5695237 C69.1593333,95.4012722 69.36,95.0371465 69.36,94.4771465 C69.36,93.3851465 68.562,92.6540652 66.966,92.2839026 L63.746,91.5370835 L63.746,94.7990835 L66.966,95.5459026 Z" id="Shape" fill-rule="nonzero"></path>
                    <path d="M78.368,99.4363846 C77.3786667,99.2069272 76.4873333,98.783199 75.694,98.1652 C74.9006667,97.5472011 74.2776667,96.8030412 73.825,95.9327202 C73.3723333,95.0623993 73.146,94.1559055 73.146,93.2132388 C73.146,92.2705721 73.3723333,91.4690659 73.825,90.8087202 C74.2776667,90.1483745 74.9006667,89.6932011 75.694,89.4432 C76.4873333,89.193199 77.3786667,89.1829272 78.368,89.4123846 C79.348,89.6396774 80.2346667,90.0623233 81.028,90.6803222 C81.8213333,91.2983211 82.442,92.0396065 82.89,92.9041785 C83.338,93.7687504 83.562,94.6770364 83.562,95.6290364 C83.562,96.5810364 83.338,97.3854171 82.89,98.0421785 C82.442,98.6989399 81.8213333,99.1523211 81.028,99.4023222 C80.2346667,99.6523233 79.348,99.6636774 78.368,99.4363846 Z M78.368,98.1903846 C79.0866667,98.357066 79.733,98.3436377 80.307,98.1500996 C80.881,97.9565616 81.3336667,97.6112159 81.665,97.1140625 C81.9963333,96.6169091 82.162,96.0136658 82.162,95.3043324 C82.162,94.5949991 81.9963333,93.9149091 81.665,93.2640625 C81.3336667,92.6132159 80.881,92.0578949 80.307,91.5980996 C79.733,91.1383043 79.0866667,90.825066 78.368,90.6583846 C77.6493333,90.4917033 76.9983333,90.5040492 76.415,90.6954226 C75.8316667,90.8867959 75.3743333,91.2310593 75.043,91.7282127 C74.7116667,92.2253661 74.546,92.8286094 74.546,93.5379428 C74.546,94.2472761 74.7116667,94.9273661 75.043,95.5782127 C75.3743333,96.2290593 75.8316667,96.7854626 76.415,97.2474226 C76.9983333,97.7093826 77.6493333,98.0237033 78.368,98.1903846 Z" id="Shape" fill-rule="nonzero"></path>
                    <path d="M92.808,100.223474 L87.6,99.0155754 L86.522,101.215553 L85.08,100.881108 L89.518,92.1104199 L90.904,92.4318768 L95.356,103.264435 L93.886,102.923496 L92.808,100.223474 Z M92.318,98.9898279 L90.204,93.6975249 L88.09,98.0092218 L92.318,98.9898279 Z" id="Shape" fill-rule="nonzero"></path>
                    <path d="M104.364,105.353674 L102.25,101.853371 C101.988667,101.811426 101.783333,101.773136 101.634,101.738501 L99.212,101.176763 L99.212,104.158763 L97.812,103.834059 L97.812,94.0340591 L101.634,94.9205009 C102.903333,95.2148992 103.902,95.7498547 104.63,96.5253674 C105.358,97.3008802 105.722,98.2206365 105.722,99.2846365 C105.722,100.040637 105.535333,100.641343 105.162,101.086755 C104.788667,101.532167 104.256667,101.796113 103.566,101.878592 L105.89,105.707601 L104.364,105.353674 Z M101.592,100.53876 C102.478667,100.744406 103.155333,100.710013 103.622,100.435581 C104.088667,100.161149 104.322,99.6692659 104.322,98.9599326 C104.322,98.2505992 104.088667,97.6528152 103.622,97.1665806 C103.155333,96.6803459 102.478667,96.3344057 101.592,96.1287598 L99.212,95.576763 L99.212,99.986763 L101.592,100.53876 Z" id="Shape" fill-rule="nonzero"></path>
                    <path d="M108.99,96.6265884 L113.12,97.5844651 C114.156,97.8247461 115.075333,98.2433017 115.878,98.840132 C116.680667,99.4369623 117.303667,100.157789 117.747,101.002612 C118.190333,101.847435 118.412,102.750513 118.412,103.711846 C118.412,104.67318 118.190333,105.473435 117.747,106.112612 C117.303667,106.751789 116.680667,107.183629 115.878,107.408132 C115.075333,107.632635 114.156,107.624746 113.12,107.384465 L108.99,106.426588 L108.99,96.6265884 Z M113.036,106.146983 C113.829333,106.330982 114.527,106.338793 115.129,106.170415 C115.731,106.002038 116.195333,105.678065 116.522,105.198496 C116.848667,104.718927 117.012,104.115142 117.012,103.387142 C117.012,102.659142 116.848667,101.979593 116.522,101.348496 C116.195333,100.717398 115.731,100.178038 115.129,99.7304154 C114.527,99.2827926 113.829333,98.9669818 113.036,98.7829829 L110.39,98.1692924 L110.39,105.533292 L113.036,106.146983 Z" id="Shape" fill-rule="nonzero"></path>
                    <path d="M25.852,125.256274 C24.872,125.028982 23.9876667,124.606877 23.199,123.98996 C22.4103333,123.373044 21.792,122.6323 21.344,121.767728 C20.896,120.903156 20.672,119.99487 20.672,119.04287 C20.672,118.09087 20.896,117.286489 21.344,116.629728 C21.792,115.972966 22.4126667,115.519585 23.206,115.269584 C23.9993333,115.019583 24.886,115.008229 25.866,115.235522 C26.6313333,115.413026 27.3313333,115.703712 27.966,116.107577 C28.6006667,116.511443 29.142,117.017329 29.59,117.625234 L28.68,118.296177 C27.9426667,117.350499 27.0233333,116.749943 25.922,116.49451 C25.194,116.325664 24.536,116.336386 23.948,116.526677 C23.36,116.716968 22.9003333,117.06069 22.569,117.557844 C22.2376667,118.054997 22.072,118.65824 22.072,119.367574 C22.072,120.076907 22.2376667,120.756997 22.569,121.407844 C22.9003333,122.05869 23.36,122.615635 23.948,123.078677 C24.536,123.541719 25.194,123.857664 25.922,124.02651 C27.014,124.279779 27.9333333,124.101001 28.68,123.490177 L29.59,124.583234 C29.142,124.983329 28.5983333,125.239902 27.959,125.352954 C27.3196667,125.466006 26.6173333,125.433779 25.852,125.256274 Z" id="Path" fill-rule="nonzero"></path>
                    <path d="M36.806,127.796851 C35.8166667,127.567394 34.9253333,127.143666 34.132,126.525667 C33.3386667,125.907668 32.7156667,125.163508 32.263,124.293187 C31.8103333,123.422866 31.584,122.516372 31.584,121.573705 C31.584,120.631039 31.8103333,119.829532 32.263,119.169187 C32.7156667,118.508841 33.3386667,118.053668 34.132,117.803667 C34.9253333,117.553666 35.8166667,117.543394 36.806,117.772851 C37.786,118.000144 38.6726667,118.42279 39.466,119.040789 C40.2593333,119.658788 40.88,120.400073 41.328,121.264645 C41.776,122.129217 42,123.037503 42,123.989503 C42,124.941503 41.776,125.745884 41.328,126.402645 C40.88,127.059406 40.2593333,127.512788 39.466,127.762789 C38.6726667,128.01279 37.786,128.024144 36.806,127.796851 Z M36.806,126.550851 C37.5246667,126.717533 38.171,126.704104 38.745,126.510566 C39.319,126.317028 39.7716667,125.971682 40.103,125.474529 C40.4343333,124.977376 40.6,124.374132 40.6,123.664799 C40.6,122.955466 40.4343333,122.275376 40.103,121.624529 C39.7716667,120.973682 39.319,120.418362 38.745,119.958566 C38.171,119.498771 37.5246667,119.185533 36.806,119.018851 C36.0873333,118.85217 35.4363333,118.864516 34.853,119.055889 C34.2696667,119.247262 33.8123333,119.591526 33.481,120.088679 C33.1496667,120.585833 32.984,121.189076 32.984,121.898409 C32.984,122.607743 33.1496667,123.287833 33.481,123.938679 C33.8123333,124.589526 34.2696667,125.145929 34.853,125.607889 C35.4363333,126.069849 36.0873333,126.38417 36.806,126.550851 Z" id="Shape" fill-rule="nonzero"></path>
                    <polygon id="Path" fill-rule="nonzero" points="53.57 121.772949 53.57 131.572949 52.422 131.306692 46.542 122.634935 46.542 129.942935 45.142 129.618231 45.142 119.818231 46.29 120.084489 52.17 128.756245 52.17 121.448245"></polygon>
                    <polygon id="Path" fill-rule="nonzero" points="65.924 124.63823 61.626 133.441389 60.24 133.119932 55.928 122.319844 57.44 122.670524 60.968 131.538778 64.524 124.313526"></polygon>
                    <polygon id="Path" fill-rule="nonzero" points="75.282 135.390644 75.282 136.608644 68.17 134.959148 68.17 125.159148 75.086 126.763186 75.086 127.981186 69.57 126.701852 69.57 129.711852 74.484 130.851563 74.484 132.041563 69.57 130.901852 69.57 134.065852"></polygon>
                    <path d="M85.102,138.886211 L82.988,135.385908 C82.7266667,135.343963 82.5213333,135.305673 82.372,135.271038 L79.95,134.7093 L79.95,137.6913 L78.55,137.366596 L78.55,127.566596 L82.372,128.453038 C83.6413333,128.747436 84.64,129.282392 85.368,130.057905 C86.096,130.833417 86.46,131.753174 86.46,132.817174 C86.46,133.573174 86.2733333,134.17388 85.9,134.619292 C85.5266667,135.064704 84.9946667,135.32865 84.304,135.41113 L86.628,139.240138 L85.102,138.886211 Z M82.33,134.071297 C83.2166667,134.276943 83.8933333,134.24255 84.36,133.968118 C84.8266667,133.693686 85.06,133.201803 85.06,132.49247 C85.06,131.783136 84.8266667,131.185352 84.36,130.699118 C83.8933333,130.212883 83.2166667,129.866943 82.33,129.661297 L79.95,129.1093 L79.95,133.5193 L82.33,134.071297 Z" id="Shape" fill-rule="nonzero"></path>
                    <path d="M92.584,140.733522 C91.8466667,140.562511 91.135,140.28312 90.449,139.895348 C89.763,139.507576 89.224,139.086232 88.832,138.631315 L89.35,137.659455 C89.7233333,138.082043 90.2016667,138.465984 90.785,138.811277 C91.3683333,139.15657 91.968,139.400652 92.584,139.543522 C93.396,139.73185 94.0026667,139.734888 94.404,139.552637 C94.8053333,139.370385 95.006,139.050593 95.006,138.59326 C95.006,138.25726 94.8963333,137.958824 94.677,137.697954 C94.4576667,137.437084 94.187,137.213308 93.865,137.026626 C93.543,136.839944 93.088,136.608415 92.5,136.332039 C91.7626667,135.983695 91.1676667,135.668363 90.715,135.386042 C90.2623333,135.103721 89.875,134.740886 89.553,134.297538 C89.231,133.854189 89.07,133.319848 89.07,132.694515 C89.07,132.171848 89.2076667,131.732444 89.483,131.376302 C89.7583333,131.020161 90.176,130.781031 90.736,130.658912 C91.296,130.536794 91.9913333,130.572064 92.822,130.764721 C93.4006667,130.898932 93.97,131.105645 94.53,131.38486 C95.09,131.664075 95.5706667,131.990223 95.972,132.363305 L95.51,133.376153 C95.0993333,133.019573 94.6606667,132.719499 94.194,132.475931 C93.7273333,132.232363 93.27,132.058627 92.822,131.954721 C92.0286667,131.770722 91.4336667,131.77739 91.037,131.974724 C90.6403333,132.172058 90.442,132.499391 90.442,132.956725 C90.442,133.292725 90.554,133.591701 90.778,133.853653 C91.002,134.115606 91.2796667,134.343339 91.611,134.536852 C91.9423333,134.730366 92.3926667,134.958479 92.962,135.221192 C93.6993333,135.569536 94.292,135.884327 94.74,136.165566 C95.188,136.446804 95.573,136.806765 95.895,137.245447 C96.217,137.684128 96.378,138.211469 96.378,138.827469 C96.378,139.340803 96.238,139.777332 95.958,140.137058 C95.678,140.496784 95.2533333,140.734291 94.684,140.849578 C94.1146667,140.964865 93.4146667,140.926179 92.584,140.733522 Z" id="Path" fill-rule="nonzero"></path>
                    <path d="M105.666,141.205648 L100.458,139.99775 L99.38,142.197728 L97.938,141.863282 L102.376,133.092594 L103.762,133.414051 L108.214,144.24661 L106.744,143.90567 L105.666,141.205648 Z M105.176,139.972002 L103.062,134.679699 L100.948,138.991396 L105.176,139.972002 Z" id="Shape" fill-rule="nonzero"></path>
                    <polygon id="Path" fill-rule="nonzero" points="112.126 136.571925 108.766 135.792636 108.766 134.574636 116.872 136.454672 116.872 137.672672 113.512 136.893382 113.512 145.475382 112.126 145.153925"></polygon>
                    <polygon id="Path" fill-rule="nonzero" points="119.398 137.040531 120.798 137.365235 120.798 147.165235 119.398 146.840531"></polygon>
                    <path d="M129.162,149.217109 C128.172667,148.987651 127.281333,148.563923 126.488,147.945924 C125.694667,147.327925 125.071667,146.583765 124.619,145.713444 C124.166333,144.843124 123.94,143.93663 123.94,142.993963 C123.94,142.051296 124.166333,141.24979 124.619,140.589444 C125.071667,139.929099 125.694667,139.473925 126.488,139.223924 C127.281333,138.973923 128.172667,138.963651 129.162,139.193109 C130.142,139.420402 131.028667,139.843048 131.822,140.461046 C132.615333,141.079045 133.236,141.820331 133.684,142.684903 C134.132,143.549475 134.356,144.457761 134.356,145.409761 C134.356,146.361761 134.132,147.166141 133.684,147.822903 C133.236,148.479664 132.615333,148.933045 131.822,149.183046 C131.028667,149.433048 130.142,149.444402 129.162,149.217109 Z M129.162,147.971109 C129.880667,148.13779 130.527,148.124362 131.101,147.930824 C131.675,147.737286 132.127667,147.39194 132.459,146.894787 C132.790333,146.397633 132.956,145.79439 132.956,145.085057 C132.956,144.375723 132.790333,143.695633 132.459,143.044787 C132.127667,142.39394 131.675,141.838619 131.101,141.378824 C130.527,140.919029 129.880667,140.60579 129.162,140.439109 C128.443333,140.272428 127.792333,140.284773 127.209,140.476147 C126.625667,140.66752 126.168333,141.011784 125.837,141.508937 C125.505667,142.00609 125.34,142.609334 125.34,143.318667 C125.34,144.028 125.505667,144.70809 125.837,145.358937 C126.168333,146.009784 126.625667,146.566187 127.209,147.028147 C127.792333,147.490107 128.443333,147.804428 129.162,147.971109 Z" id="Shape" fill-rule="nonzero"></path>
                    <polygon id="Path" fill-rule="nonzero" points="145.926 143.193207 145.926 152.993207 144.778 152.72695 138.898 144.055193 138.898 151.363193 137.498 151.038489 137.498 141.238489 138.646 141.504746 144.526 150.176503 144.526 142.868503"></polygon>
                    <path d="M156.11,152.905197 L150.902,151.697298 L149.824,153.897276 L148.382,153.562831 L152.82,144.792142 L154.206,145.113599 L158.658,155.946158 L157.188,155.605219 L156.11,152.905197 Z M155.62,151.67155 L153.506,146.379247 L151.392,150.690944 L155.62,151.67155 Z" id="Shape" fill-rule="nonzero"></path>
                    <polygon id="Path" fill-rule="nonzero" points="161.114 146.715781 162.514 147.040485 162.514 155.622485 167.82 156.853114 167.82 158.071114 161.114 156.515781"></polygon>
                    <path d="M24.326,142.902347 C23.5886667,142.731336 22.877,142.451945 22.191,142.064174 C21.505,141.676402 20.966,141.255058 20.574,140.80014 L21.092,139.828281 C21.4653333,140.250869 21.9436667,140.634809 22.527,140.980103 C23.1103333,141.325396 23.71,141.569477 24.326,141.712347 C25.138,141.900675 25.7446667,141.903714 26.146,141.721462 C26.5473333,141.539211 26.748,141.219418 26.748,140.762085 C26.748,140.426085 26.6383333,140.12765 26.419,139.86678 C26.1996667,139.605909 25.929,139.382133 25.607,139.195451 C25.285,139.008769 24.83,138.777241 24.242,138.500865 C23.5046667,138.152521 22.9096667,137.837188 22.457,137.554867 C22.0043333,137.272546 21.617,136.909712 21.295,136.466363 C20.973,136.023014 20.812,135.488673 20.812,134.86334 C20.812,134.340673 20.9496667,133.901269 21.225,133.545128 C21.5003333,133.188986 21.918,132.949856 22.478,132.827738 C23.038,132.705619 23.7333333,132.740889 24.564,132.933547 C25.1426667,133.067758 25.712,133.274471 26.272,133.553686 C26.832,133.832901 27.3126667,134.159049 27.714,134.532131 L27.252,135.544978 C26.8413333,135.188399 26.4026667,134.888325 25.936,134.644757 C25.4693333,134.401189 25.012,134.227452 24.564,134.123547 C23.7706667,133.939548 23.1756667,133.946215 22.779,134.143549 C22.3823333,134.340883 22.184,134.668217 22.184,135.12555 C22.184,135.46155 22.296,135.760526 22.52,136.022479 C22.744,136.284432 23.0216667,136.512165 23.353,136.705678 C23.6843333,136.899191 24.1346667,137.127304 24.704,137.390017 C25.4413333,137.738361 26.034,138.053153 26.482,138.334391 C26.93,138.61563 27.315,138.97559 27.637,139.414272 C27.959,139.852954 28.12,140.380295 28.12,140.996295 C28.12,141.509628 27.98,141.946158 27.7,142.305884 C27.42,142.66561 26.9953333,142.903116 26.426,143.018403 C25.8566667,143.13369 25.1566667,143.095005 24.326,142.902347 Z" id="Path" fill-rule="nonzero"></path>
                    <polygon id="Path" fill-rule="nonzero" points="38.276 144.80779 38.276 146.02579 31.164 144.376294 31.164 134.576294 38.08 136.180332 38.08 137.398332 32.564 136.118998 32.564 139.128998 37.478 140.268709 37.478 141.458709 32.564 140.318998 32.564 143.482998"></polygon>
                    <path d="M48.096,148.303357 L45.982,144.803054 C45.7206667,144.761109 45.5153333,144.722819 45.366,144.688184 L42.944,144.126446 L42.944,147.108446 L41.544,146.783742 L41.544,136.983742 L45.366,137.870184 C46.6353333,138.164582 47.634,138.699538 48.362,139.475051 C49.09,140.250563 49.454,141.17032 49.454,142.23432 C49.454,142.99032 49.2673333,143.591026 48.894,144.036438 C48.5206667,144.48185 47.9886667,144.745796 47.298,144.828276 L49.622,148.657284 L48.096,148.303357 Z M45.324,143.488443 C46.2106667,143.694089 46.8873333,143.659696 47.354,143.385264 C47.8206667,143.110832 48.054,142.618949 48.054,141.909616 C48.054,141.200282 47.8206667,140.602498 47.354,140.116264 C46.8873333,139.630029 46.2106667,139.284089 45.324,139.078443 L42.944,138.526446 L42.944,142.936446 L45.324,143.488443 Z" id="Shape" fill-rule="nonzero"></path>
                    <polygon id="Path" fill-rule="nonzero" points="61.234 141.550472 56.936 150.353631 55.55 150.032174 51.238 139.232085 52.75 139.582766 56.278 148.45102 59.834 141.225768"></polygon>
                    <polygon id="Path" fill-rule="nonzero" points="63.48 142.07139 64.88 142.396094 64.88 152.196094 63.48 151.87139"></polygon>
                    <path d="M73.202,154.238227 C72.222,154.010934 71.3376667,153.588829 70.549,152.971913 C69.7603333,152.354996 69.142,151.614252 68.694,150.74968 C68.246,149.885108 68.022,148.976822 68.022,148.024822 C68.022,147.072822 68.246,146.268442 68.694,145.61168 C69.142,144.954919 69.7626667,144.501538 70.556,144.251536 C71.3493333,144.001535 72.236,143.990181 73.216,144.217474 C73.9813333,144.394979 74.6813333,144.685664 75.316,145.08953 C75.9506667,145.493396 76.492,145.999281 76.94,146.607187 L76.03,147.278129 C75.2926667,146.332452 74.3733333,145.731896 73.272,145.476462 C72.544,145.307616 71.886,145.318339 71.298,145.50863 C70.71,145.698921 70.2503333,146.042643 69.919,146.539796 C69.5876667,147.03695 69.422,147.640193 69.422,148.349526 C69.422,149.05886 69.5876667,149.73895 69.919,150.389796 C70.2503333,151.040643 70.71,151.597587 71.298,152.06063 C71.886,152.523672 72.544,152.839616 73.272,153.008462 C74.364,153.261731 75.2833333,153.082954 76.03,152.472129 L76.94,153.565187 C76.492,153.965281 75.9483333,154.221855 75.309,154.334906 C74.6696667,154.447958 73.9673333,154.415732 73.202,154.238227 Z" id="Path" fill-rule="nonzero"></path>
                    <polygon id="Path" fill-rule="nonzero" points="87.054 156.120941 87.054 157.338941 79.942 155.689445 79.942 145.889445 86.858 147.493482 86.858 148.711482 81.342 147.432149 81.342 150.442149 86.256 151.58186 86.256 152.77186 81.342 151.632149 81.342 154.796149"></polygon>
                    <path d="M93.178,158.871289 C92.4406667,158.700278 91.729,158.420887 91.043,158.033115 C90.357,157.645344 89.818,157.223999 89.426,156.769082 L89.944,155.797223 C90.3173333,156.21981 90.7956667,156.603751 91.379,156.949044 C91.9623333,157.294338 92.562,157.538419 93.178,157.681289 C93.99,157.869617 94.5966667,157.872656 94.998,157.690404 C95.3993333,157.508153 95.6,157.18836 95.6,156.731027 C95.6,156.395027 95.4903333,156.096592 95.271,155.835721 C95.0516667,155.574851 94.781,155.351075 94.459,155.164393 C94.137,154.977711 93.682,154.746182 93.094,154.469807 C92.3566667,154.121463 91.7616667,153.80613 91.309,153.523809 C90.8563333,153.241488 90.469,152.878653 90.147,152.435305 C89.825,151.991956 89.664,151.457615 89.664,150.832282 C89.664,150.309615 89.8016667,149.870211 90.077,149.51407 C90.3523333,149.157928 90.77,148.918798 91.33,148.79668 C91.89,148.674561 92.5853333,148.709831 93.416,148.902489 C93.9946667,149.0367 94.564,149.243412 95.124,149.522627 C95.684,149.801842 96.1646667,150.127991 96.566,150.501073 L96.104,151.51392 C95.6933333,151.15734 95.2546667,150.857266 94.788,150.613698 C94.3213333,150.37013 93.864,150.196394 93.416,150.092489 C92.6226667,149.90849 92.0276667,149.915157 91.631,150.112491 C91.2343333,150.309825 91.036,150.637158 91.036,151.094492 C91.036,151.430492 91.148,151.729468 91.372,151.991421 C91.596,152.253373 91.8736667,152.481106 92.205,152.67462 C92.5363333,152.868133 92.9866667,153.096246 93.556,153.358959 C94.2933333,153.707303 94.886,154.022094 95.334,154.303333 C95.782,154.584572 96.167,154.944532 96.489,155.383214 C96.811,155.821896 96.972,156.349237 96.972,156.965237 C96.972,157.47857 96.832,157.9151 96.552,158.274825 C96.272,158.634551 95.8473333,158.872058 95.278,158.987345 C94.7086667,159.102632 94.0086667,159.063947 93.178,158.871289 Z" id="Path" fill-rule="nonzero"></path>
                    <path d="M24.326,180.902347 C23.5886667,180.731336 22.877,180.451945 22.191,180.064174 C21.505,179.676402 20.966,179.255058 20.574,178.80014 L21.092,177.828281 C21.4653333,178.250869 21.9436667,178.634809 22.527,178.980103 C23.1103333,179.325396 23.71,179.569477 24.326,179.712347 C25.138,179.900675 25.7446667,179.903714 26.146,179.721462 C26.5473333,179.539211 26.748,179.219418 26.748,178.762085 C26.748,178.426085 26.6383333,178.12765 26.419,177.86678 C26.1996667,177.605909 25.929,177.382133 25.607,177.195451 C25.285,177.008769 24.83,176.777241 24.242,176.500865 C23.5046667,176.152521 22.9096667,175.837188 22.457,175.554867 C22.0043333,175.272546 21.617,174.909712 21.295,174.466363 C20.973,174.023014 20.812,173.488673 20.812,172.86334 C20.812,172.340673 20.9496667,171.901269 21.225,171.545128 C21.5003333,171.188986 21.918,170.949856 22.478,170.827738 C23.038,170.705619 23.7333333,170.740889 24.564,170.933547 C25.1426667,171.067758 25.712,171.274471 26.272,171.553686 C26.832,171.832901 27.3126667,172.159049 27.714,172.532131 L27.252,173.544978 C26.8413333,173.188399 26.4026667,172.888325 25.936,172.644757 C25.4693333,172.401189 25.012,172.227452 24.564,172.123547 C23.7706667,171.939548 23.1756667,171.946215 22.779,172.143549 C22.3823333,172.340883 22.184,172.668217 22.184,173.12555 C22.184,173.46155 22.296,173.760526 22.52,174.022479 C22.744,174.284432 23.0216667,174.512165 23.353,174.705678 C23.6843333,174.899191 24.1346667,175.127304 24.704,175.390017 C25.4413333,175.738361 26.034,176.053153 26.482,176.334391 C26.93,176.61563 27.315,176.97559 27.637,177.414272 C27.959,177.852954 28.12,178.380295 28.12,178.996295 C28.12,179.509628 27.98,179.946158 27.7,180.305884 C27.42,180.66561 26.9953333,180.903116 26.426,181.018403 C25.8566667,181.13369 25.1566667,181.095005 24.326,180.902347 Z" id="Path" fill-rule="nonzero"></path>
                    <polygon id="Path" fill-rule="nonzero" points="38.276 182.80779 38.276 184.02579 31.164 182.376294 31.164 172.576294 38.08 174.180332 38.08 175.398332 32.564 174.118998 32.564 177.128998 37.478 178.268709 37.478 179.458709 32.564 178.318998 32.564 181.482998"></polygon>
                    <path d="M47.788,183.781922 L42.58,182.574023 L41.502,184.774001 L40.06,184.439556 L44.498,175.668868 L45.884,175.990325 L50.336,186.822883 L48.866,186.481944 L47.788,183.781922 Z M47.298,182.548276 L45.184,177.255973 L43.07,181.56767 L47.298,182.548276 Z" id="Shape" fill-rule="nonzero"></path>
                    <path d="M59.344,188.912121 L57.23,185.411818 C56.9686667,185.369874 56.7633333,185.331584 56.614,185.296949 L54.192,184.735211 L54.192,187.717211 L52.792,187.392507 L52.792,177.592507 L56.614,178.478949 C57.8833333,178.773347 58.882,179.308302 59.61,180.083815 C60.338,180.859328 60.702,181.779084 60.702,182.843084 C60.702,183.599084 60.5153333,184.19979 60.142,184.645203 C59.7686667,185.090615 59.2366667,185.354561 58.546,185.43704 L60.87,189.266049 L59.344,188.912121 Z M56.572,184.097208 C57.4586667,184.302853 58.1353333,184.26846 58.602,183.994028 C59.0686667,183.719596 59.302,183.227714 59.302,182.51838 C59.302,181.809047 59.0686667,181.211263 58.602,180.725028 C58.1353333,180.238794 57.4586667,179.892853 56.572,179.687208 L54.192,179.135211 L54.192,183.545211 L56.572,184.097208 Z" id="Shape" fill-rule="nonzero"></path>
                    <path d="M68.352,191.11336 C67.372,190.886067 66.4876667,190.463962 65.699,189.847046 C64.9103333,189.230129 64.292,188.489385 63.844,187.624813 C63.396,186.760241 63.172,185.851955 63.172,184.899955 C63.172,183.947955 63.396,183.143574 63.844,182.486813 C64.292,181.830051 64.9126667,181.37667 65.706,181.126669 C66.4993333,180.876668 67.386,180.865314 68.366,181.092607 C69.1313333,181.270111 69.8313333,181.560797 70.466,181.964663 C71.1006667,182.368528 71.642,182.874414 72.09,183.482319 L71.18,184.153262 C70.4426667,183.207584 69.5233333,182.607029 68.422,182.351595 C67.694,182.182749 67.036,182.193471 66.448,182.383762 C65.86,182.574053 65.4003333,182.917775 65.069,183.414929 C64.7376667,183.912082 64.572,184.515326 64.572,185.224659 C64.572,185.933992 64.7376667,186.614082 65.069,187.264929 C65.4003333,187.915775 65.86,188.47272 66.448,188.935762 C67.036,189.398805 67.694,189.714749 68.422,189.883595 C69.514,190.136864 70.4333333,189.958086 71.18,189.347262 L72.09,190.440319 C71.642,190.840414 71.0983333,191.096987 70.459,191.210039 C69.8196667,191.323091 69.1173333,191.290864 68.352,191.11336 Z" id="Path" fill-rule="nonzero"></path>
                    <polygon id="Path" fill-rule="nonzero" points="83.52 184.719295 83.52 194.519295 82.12 194.194591 82.12 189.826591 76.492 188.521281 76.492 192.889281 75.092 192.564577 75.092 182.764577 76.492 183.089281 76.492 187.303281 82.12 188.608591 82.12 184.394591"></polygon>
                    <path d="M1,26.3080406 L3,26.7719035 C3.55228475,26.8999956 4,27.4515501 4,28.0038349 L4,53.0038349 C4,53.5561196 3.55228475,53.8999956 3,53.7719035 L1,53.3080406 C0.44771525,53.1799484 0,52.628394 0,52.0761092 L0,27.0761092 C0,26.5238245 0.44771525,26.1799484 1,26.3080406 Z" id="Rectangle-Copy-111"></path>
                </g>
                <g id="Rectangle">
                    <use fill="black" fill-opacity="1" filter="url(#filter-55)" xlink:href="#path-54"></use>
                    <use fill="#1E3D49" fill-rule="evenodd" xlink:href="#path-54"></use>
                </g>
                <path d="M555.5,201.026198 L599,210.777282 L599,237.777282 L555.5,228.026198 C548.044156,226.354875 542,218.955844 542,211.5 C542,204.044156 548.044156,199.354875 555.5,201.026198 Z" id="Rectangle-Copy-5" fill-opacity="0.475251311" fill="#E2E6E7"></path>
                <g id="Group-12" opacity="0.534784226" transform="translate(632.000000, 176.688187)">
                    <path d="M13.5,0.338010942 L57,10.0890947 L57,37.0890947 L13.5,27.3380109 C6.04415588,25.6666877 0,18.2676567 0,10.8118125 C0,3.3559684 6.04415588,-1.33331229 13.5,0.338010942 Z" id="Rectangle-Copy-6" fill-opacity="0.475251311" fill="#E2E6E7"></path>
                    <path d="M17,19.1225809 C19.209139,19.6177878 21,18.2283713 21,16.0192323 C21,13.8100933 19.209139,11.6177878 17,11.1225809 C14.790861,10.627374 13,12.0167905 13,14.2259295 C13,16.4350685 14.790861,18.627374 17,19.1225809 Z" id="Oval-Copy-2" fill="#1E3D49"></path>
                </g>
                <g id="Group-13" opacity="0.333705357" transform="translate(722.000000, 155.688187)">
                    <path d="M13.5,0.338010942 L57,10.0890947 L57,37.0890947 L13.5,27.3380109 C6.04415588,25.6666877 0,18.2676567 0,10.8118125 C0,3.3559684 6.04415588,-1.33331229 13.5,0.338010942 Z" id="Rectangle-Copy-7" fill-opacity="0.475251311" fill="#E2E6E7"></path>
                    <path d="M17,19.1225809 C19.209139,19.6177878 21,18.2283713 21,16.0192323 C21,13.8100933 19.209139,11.6177878 17,11.1225809 C14.790861,10.627374 13,12.0167905 13,14.2259295 C13,16.4350685 14.790861,18.627374 17,19.1225809 Z" id="Oval-Copy-7" fill="#1E3D49"></path>
                </g>
                <path d="M559,219.810768 C561.209139,220.305975 563,218.916559 563,216.70742 C563,214.498281 561.209139,212.305975 559,211.810768 C556.790861,211.315561 555,212.704978 555,214.914117 C555,217.123256 556.790861,219.315561 559,219.810768 Z" id="Oval-Copy" fill="#1E3D49"></path>
                <g id="Group-3" transform="translate(53.413863, 35.223547)">
                    <path d="M45.2930687,91.7930687 C70.3077398,97.58094 90.5861374,81.9945391 90.5861374,56.979868 C90.5861374,31.9651969 70.3077398,6.99480257 45.2930687,1.2069313 C20.2783976,-4.58093997 0,11.0054609 0,36.020132 C0,61.0348031 20.2783976,86.0051974 45.2930687,91.7930687 Z" id="Oval" fill="#1E3D49"></path>
                    <path d="M47.851945,22.7425429 C49.8296434,23.1997145 51.5446258,24.8783711 52.1203883,26.8814595 L52.198099,27.1842438 L52.2564978,27.486819 L52.5867081,29.5249016 L52.9511429,29.7448484 L53.5527591,30.1320059 L53.9061334,30.3733954 L55.5663637,29.5760156 C56.1312446,29.3000576 56.7771898,29.1855637 57.4593358,29.2367532 L57.8032178,29.2761744 L58.1518871,29.3433267 C59.1007724,29.5626743 60.0093509,30.0698857 60.7771449,30.8078679 L61.058272,31.0953171 L61.3067993,31.3831849 L64.0094835,34.7109851 C65.397293,36.4060275 65.714406,38.5696609 64.8311311,40.0920788 L64.6727816,40.3396876 L64.4923041,40.5721524 L63.3096021,41.9522609 L63.4543218,42.3058628 L63.6874068,42.9235715 L63.8103684,43.2763471 L65.8179111,44.0811176 C67.6759952,44.8236487 69.0953163,46.5614312 69.4426824,48.4421156 L69.4905427,48.75674 L69.5170296,49.0572856 L69.5236374,49.3497036 L69.5236374,53.1625337 C69.5236374,55.1397923 68.2413267,56.5583567 66.3715222,56.7021996 L66.0867321,56.7141261 L65.7967676,56.7057032 L63.7898592,56.5751697 L63.6701123,56.8702866 L63.4359522,57.3792098 L63.2890929,57.66432 L64.4744723,59.6027634 C65.5410979,61.3476414 65.5716104,63.3137564 64.6094111,64.6099596 L64.4173759,64.8449296 L64.214703,65.0512525 L63.9926845,65.238781 L61.2884723,67.3182251 C60.444147,67.9673715 59.3222874,68.1742532 58.133932,67.8995488 C57.4283713,67.736449 56.7452289,67.4165732 56.1182877,66.9541424 L55.8096569,66.7111133 L55.53439,66.4648411 L53.8856242,64.9059636 L53.5667277,64.976239 L53.0028983,65.0789869 L52.6772904,65.1256955 L52.3378965,67.0558131 C52.0284256,68.8294377 50.6218274,69.9281608 48.8254939,69.8774394 L48.5226176,69.8582614 L48.2288629,69.8198815 L47.9336235,69.761424 L44.1042391,68.8762103 C42.1269304,68.4191289 40.41197,66.7405543 39.835908,64.7376662 L39.75815,64.4349128 L39.6995399,64.1313802 L39.3651098,62.0466969 L39.0643959,61.8641069 L38.5333312,61.5231606 L38.2524856,61.3331716 L36.5619457,62.1462739 C35.9972738,62.4220478 35.3513772,62.5364576 34.6692902,62.4852486 L34.3254393,62.4458229 L33.9768076,62.3786758 C33.0279222,62.1593282 32.1193436,61.6521168 31.3515498,60.9141347 L31.0704226,60.6266855 L30.8218954,60.3388177 L28.1192497,57.0110644 C26.7314156,55.3163402 26.4142772,53.1524329 27.2975607,51.6299389 L27.4559119,51.3823193 L27.6370722,51.1490571 L28.8028712,49.7966207 L28.6569051,49.4451369 L28.420202,48.8280674 L28.2952684,48.4760815 L26.2462697,47.6531251 C24.4018185,46.9172374 22.978237,45.1816647 22.6137766,43.3013096 L22.5629493,42.9867231 L22.5334284,42.6861835 L22.5236374,42.3886839 L22.5236374,38.5681084 C22.5236374,36.5908048 23.805778,35.1722322 25.675506,35.028384 L25.9602853,35.0164567 L26.2494087,35.0248259 L28.2115225,35.1463225 L28.3337967,34.8431375 L28.5641722,34.3300297 L28.7037434,34.0449424 L27.499667,32.074358 C26.4331278,30.3296215 26.4027179,28.3635565 27.3647976,27.0672478 L27.5568077,26.8322562 L27.7594518,26.6259095 L27.9819661,26.437948 L30.6899841,24.3647444 C31.5263988,23.7103821 32.6496377,23.5027085 33.8493609,23.7800406 C34.5550678,23.9431743 35.2382025,24.2629144 35.8650466,24.7251811 L36.1736216,24.9681265 L36.4501468,25.2155764 L38.0730301,26.7612153 L38.3925992,26.689243 L38.955334,26.5824583 L39.2762365,26.5317527 L39.6277871,24.5641167 C39.9369716,22.7911466 41.3434047,21.6926236 43.1395546,21.7433529 L43.4424001,21.7625304 L43.736125,21.8009068 L44.0313621,21.8593639 L47.851945,22.7425429 Z M47.852297,26.301005 L44.0317142,25.4178259 C43.6794542,25.3363963 43.3679861,25.4631351 43.2228553,25.7156483 L43.1712063,25.8313286 L43.1361907,25.9686106 L42.6206981,28.8712692 C42.5004272,29.5442139 42.0046683,29.9987321 41.3274135,30.0571694 C40.4633346,30.1313015 39.6143165,30.2928695 38.8052591,30.5372273 C38.318458,30.6846922 37.754193,30.5880905 37.2323257,30.2666391 L37.0116136,30.1151639 L36.8098461,29.9423418 L34.3705735,27.6226065 C34.2222516,27.4814341 34.0429279,27.3831669 33.8493609,27.3384213 C33.7034219,27.3046856 33.5653416,27.305523 33.4543419,27.3329533 L33.353081,27.3689524 L33.2088602,27.4607387 L30.496025,29.5373076 C30.2555944,29.722159 30.1733102,30.0493863 30.2583231,30.3656683 L30.3148133,30.5221875 L30.3987122,30.6812266 L32.1739815,33.5858492 C32.5867873,34.2621083 32.6396466,35.0292417 32.311718,35.5852202 C31.8969235,36.2895138 31.5492607,37.0641612 31.2787911,37.8867476 C31.1182094,38.3745381 30.7459431,38.7093247 30.2390929,38.8198054 L30.0138563,38.8532134 L29.7840714,38.8543012 L26.8397587,38.6705046 C26.4923391,38.6485073 26.2181738,38.8327796 26.122361,39.1172568 L26.0925243,39.2450014 L26.0820279,39.3906782 L26.0820279,43.2112537 C26.0820279,43.5632582 26.2808032,43.9206746 26.5669776,44.132104 L26.69465,44.2133372 L26.8397779,44.2819329 L29.8613041,45.4954872 C30.5609969,45.7767234 31.1307281,46.404352 31.3461628,47.1313626 C31.6203572,48.0597748 31.978169,48.9915135 32.409903,49.9010286 C32.6695239,50.4488674 32.7030494,51.0205992 32.5021426,51.4956211 L32.4016624,51.6929293 L32.2757886,51.8650166 L30.531107,53.8885601 C30.334866,54.1189593 30.3112824,54.4665239 30.4432389,54.7720855 L30.5220996,54.9206292 L30.629085,55.0691811 L33.3384325,58.4044735 C33.5158395,58.6231328 33.7324687,58.7638129 33.9768076,58.8202952 C34.0725317,58.8424231 34.162391,58.8496054 34.2384929,58.8449473 L34.3413414,58.829468 L34.4909111,58.773973 L36.9909579,57.5725358 C37.3139541,57.4173854 37.6962053,57.3842884 38.0867859,57.4745764 C38.3885992,57.5443446 38.6870305,57.6857657 38.9590275,57.8897929 C39.7209413,58.4617581 40.5476099,58.9926779 41.416483,59.4678379 C41.9351067,59.7516096 42.3506384,60.2204232 42.5750366,60.7766266 L42.6592486,61.0200652 L42.7125785,61.2607911 L43.2092511,64.3556362 C43.2673143,64.7147891 43.514874,65.0456223 43.8214282,65.2121586 L43.95604,65.2730759 L44.1042391,65.3178297 L47.9336235,66.2030434 C48.285906,66.2844782 48.5973417,66.1577185 48.7424701,65.9050676 L48.7941201,65.7893209 L48.8290832,65.652266 L49.3352901,62.7859073 C49.4539809,62.1102961 49.9531415,61.6536273 50.6341337,61.5976707 C51.5140834,61.5248799 52.3683697,61.3685859 53.1728002,61.1334673 C53.6570736,60.9920433 54.2166736,61.0902114 54.7336839,61.4087126 L54.9523084,61.5586467 L55.1515066,61.7288736 L57.6086162,64.0530521 C57.7610289,64.1979643 57.9400238,64.2963437 58.133932,64.3411682 C58.2800511,64.3749456 58.4160681,64.3738853 58.5289062,64.3446734 L58.6335336,64.3063252 L58.7725135,64.2203255 L61.476706,62.1412487 C61.7181401,61.9556257 61.8008109,61.6282098 61.7159294,61.3117666 L61.6594852,61.1551667 L61.5758382,60.9964249 L59.8196466,58.1242607 C59.4051475,57.4476006 59.3523608,56.6784544 59.6818834,56.1219104 C60.1222118,55.375304 60.4760312,54.6037362 60.7330858,53.8301255 C60.8951225,53.34416 61.2680648,53.0109394 61.7747334,52.9016584 L61.9998394,52.8687418 L62.2296444,52.8680887 L65.2096826,53.0602928 C65.5553422,53.0821456 65.8290911,52.8976935 65.9248111,52.6133 L65.9546248,52.4856015 L65.9654164,52.3399844 L65.9654164,48.4944132 C65.9698864,48.1583424 65.7823416,47.8153361 65.5072136,47.6087044 L65.3842446,47.5289153 L65.2233985,47.452087 L62.2424912,46.257158 C61.5395524,45.9759924 60.9678834,45.3451652 60.7540366,44.6146919 C60.4769825,43.6687389 60.123304,42.7328421 59.7026694,41.8326721 C59.4498873,41.2914977 59.4183373,40.7256555 59.615927,40.2546872 L59.7146604,40.0590008 L59.8388423,39.8874328 L61.5956175,37.8356041 C61.7934151,37.6037143 61.8175193,37.2558988 61.6855293,36.9500699 L61.606608,36.8013855 L61.4995901,36.6527975 L58.7908207,33.3178648 C58.6130085,33.0989493 58.3962738,32.9582006 58.1522391,32.9017887 C58.0563467,32.8796219 57.9664207,32.8724221 57.8903707,32.8770589 L57.7876914,32.8925003 L57.6382418,32.9480599 L55.1657971,34.1373685 C54.5829586,34.4170694 53.8261182,34.2942114 53.192599,33.8169176 C52.3329386,33.1686649 51.447178,32.5993982 50.5592624,32.1243116 C50.0339554,31.8426287 49.6125991,31.3732338 49.3845183,30.8136669 L49.2988629,30.5686162 L49.244448,30.3258879 L48.7476305,27.2657035 C48.6737687,26.8085773 48.2982788,26.4040997 47.852297,26.301005 Z" id="Combined-Shape" fill="#FFFFFF" fill-rule="nonzero"></path>
                    <path d="M45.9579514,36.3143363 C50.9059589,37.4581347 54.9307269,42.4132603 54.9307269,47.3612412 C54.9307269,52.3092221 50.9059589,55.4035893 45.9579514,54.2597908 C41.0099439,53.1159923 36.9851759,48.1608667 36.9851759,43.2128858 C36.9851759,38.2649049 41.0099439,35.1705378 45.9579514,36.3143363 Z M45.9579514,39.7441874 C42.9020132,39.0377662 40.4150455,40.9498246 40.4150455,44.0057463 C40.4150455,47.061668 42.9020132,50.1235184 45.9579514,50.8299396 C49.0138895,51.5363608 51.5008573,49.6243025 51.5008573,46.5683807 C51.5008573,43.512459 49.0138895,40.4506086 45.9579514,39.7441874 Z" id="Combined-Shape" fill="#FFFFFF" fill-rule="nonzero"></path>
                </g>
            </g>
        </g>
    </g>
</svg>