<svg xmlns="http://www.w3.org/2000/svg" viewBox="0 0 492.804 492.804"><defs/><path d="M482.592 381.614L288.863 69.966c-11.22-18.044-26.348-27.96-42.656-27.96-16.32 0-31.456 9.924-42.672 27.976L10.267 381.142c-11.216 18.04-13.316 35.268-5.94 48.564 7.432 13.38 23.36 20.728 44.864 20.752l394.608.3h-.336v.04c19.272 0 37.56-7.316 44.984-20.652 7.377-13.256 5.361-30.48-5.855-48.532zM256.96 388.59a15.28 15.28 0 01-10.792 4.484c-4.048 0-7.988-1.64-10.868-4.5-2.856-2.86-4.476-6.852-4.472-10.932.008-4.056.956-8.024 3.82-10.86 2.924-2.888 5.404-4.54 9.26-4.54l.72-.008c4.04 0 8.84 1.66 11.744 4.564 2.872 2.856 4.932 6.812 4.924 10.876-.004 4.088-1.444 8.068-4.336 10.916zm-10.744-57.192c-4.12 0-7.94-1.6-10.852-4.512-2.912-2.916-4.488-6.792-4.484-10.92l-1.616-139.068c.016-8.512 5.972-15.416 13.684-15.416h1.772c4.124 0 8.88 1.604 11.788 4.52 2.916 2.92 4.932 6.788 4.928 10.916l.1 139.068c-.008 8.496-6.812 15.412-15.32 15.412z"/></svg>
