<?xml version="1.0" encoding="UTF-8"?>
<svg width="15px" height="15px" viewBox="0 0 15 15" version="1.1" xmlns="http://www.w3.org/2000/svg" xmlns:xlink="http://www.w3.org/1999/xlink">
    <title>click</title>
    <g id="Symbols" stroke="none" stroke-width="1" fill="none" fill-rule="evenodd">
        <g id="diagram/icons/click" transform="translate(-5.000000, -4.000000)" fill="#243C47" fill-rule="nonzero">
            <g id="click" transform="translate(5.000000, 4.000000)">
                <path d="M14.8662863,12.2843646 L12.2339891,9.65207238 L13.5249735,8.3611209 C13.6368281,8.24926643 13.6828054,8.08747911 13.6464435,7.93351186 C13.6100816,7.77954461 13.4966446,7.65539711 13.3465719,7.60537296 L5.60078747,5.02343958 C5.436809,4.9687599 5.25594278,5.01145082 5.13371203,5.13371177 C5.01145084,5.25597272 4.96875984,5.43677774 5.02343962,5.60078633 L7.60537792,13.3465865 C7.65543258,13.4966589 7.77958032,13.6101261 7.93351744,13.6464575 C8.08745455,13.6828802 8.24927261,13.6368726 8.36112729,13.5249877 L9.65211165,12.2340362 L12.2844089,14.866298 C12.3735336,14.9554225 12.4903481,15 12.6071322,15 C12.7239162,15 12.8407612,14.955453 12.9298554,14.866298 L14.8663168,12.9298404 C15.0445661,12.7515913 15.0445661,12.4626137 14.8662863,12.2843646 Z M12.6071017,13.8980692 L9.97480449,11.2658074 C9.79658554,11.0875583 9.50754648,11.0875583 9.32932753,11.2658074 L8.23783154,12.3573013 L6.1781049,6.17813308 L12.3572848,8.23785582 L11.2657889,9.32934972 C11.0876916,9.50741619 11.0875395,9.79660685 11.2657889,9.97482546 L13.8980861,12.6071177 L12.6071017,13.8980692 Z" id="Shape"></path>
                <path d="M5.5,3 C5.77613333,3 6,2.8321 6,2.625 L6,0.375 C6,0.1679 5.77613333,0 5.5,0 C5.22386667,0 5,0.1679 5,0.375 L5,2.625 C5,2.8321 5.22386667,3 5.5,3 Z" id="Path"></path>
                <path d="M2.82037057,2.14075716 C2.6327264,1.95308095 2.32843336,1.95308095 2.14075716,2.14075716 C1.95308095,2.32843336 1.95308095,2.63269436 2.14075716,2.82037057 L4.17962943,4.85924284 C4.3672736,5.04691905 4.67159868,5.04691905 4.85924284,4.85924284 C5.04691905,4.67156664 5.04691905,4.36730564 4.85924284,4.17962943 L2.82037057,2.14075716 Z" id="Path"></path>
                <path d="M4.17962943,7.14075716 L2.14075716,9.17962943 C1.95308095,9.36730564 1.95308095,9.67156664 2.14075716,9.85924284 C2.32840132,10.0469191 2.6327264,10.0469191 2.82037057,9.85924284 L4.85924284,7.82037057 C5.04691905,7.63269436 5.04691905,7.32843336 4.85924284,7.14075716 C4.67156664,6.95308095 4.3672736,6.95308095 4.17962943,7.14075716 Z" id="Path"></path>
                <path d="M7.82037057,4.85924284 L9.85924284,2.82037057 C10.0469191,2.63269436 10.0469191,2.32843336 9.85924284,2.14075716 C9.67159868,1.95308095 9.36730564,1.95308095 9.17962943,2.14075716 L7.14075716,4.17962943 C6.95308095,4.36730564 6.95308095,4.67156664 7.14075716,4.85924284 C7.32840132,5.04691905 7.6327264,5.04691905 7.82037057,4.85924284 Z" id="Path"></path>
                <path d="M3,5.5 C3,5.22386667 2.8321,5 2.625,5 L0.375,5 C0.1679,5 0,5.22386667 0,5.5 C0,5.77613333 0.1679,6 0.375,6 L2.625,6 C2.8321,6 3,5.77613333 3,5.5 Z" id="Path"></path>
            </g>
        </g>
    </g>
</svg>