<svg viewBox="0 0 27 26" xmlns="http://www.w3.org/2000/svg">
    <path d="M13.908 5.356a7.82 7.82 0 0 1 4.76 14.025c-.188.144-.445 1.466-.773 3.966A3 3 0 0 1 15.1 25.95l-.18.006h-1.77a3 3 0 0 1-2.939-2.401c-.54-2.653-.909-4.055-1.105-4.208a7.82 7.82 0 0 1 4.802-13.992zm8.519 10.798.077.004 2.928.44a.922.922 0 1 1-.562 1.73l-2.627-1.367a.428.428 0 0 1 .26-.803zm-16.82.331a.428.428 0 0 1-.218.509l-2.651 1.32a.922.922 0 1 1-.532-1.74l2.936-.388c.208-.027.405.1.466.3zm8.3-6.568c-1.814 0-3.594.962-5.334 2.844a.536.536 0 1 0 .788.728c.644-.697 1.281-1.246 1.912-1.648a2.806 2.806 0 1 0 5.226-.029c.645.406 1.297.964 1.956 1.677a.536.536 0 1 0 .787-.728c-1.74-1.882-3.519-2.844-5.334-2.844zm0 1.072c.062 0 .122.001.184.004a1.869 1.869 0 1 1-.414.002c.077-.004.154-.006.23-.006zm12.938 2.377a.922.922 0 0 1-1.06 1.061l-2.922-.487a.428.428 0 0 1 0-.845l2.921-.486a.922.922 0 0 1 1.06.757zm-25.022-.769.108.012 2.92.486a.428.428 0 0 1 0 .845l-2.92.487a.922.922 0 1 1 0-1.818zm12.085-.822a1.075 1.075 0 1 0 0 2.15 1.075 1.075 0 0 0 0-2.15zm12.205-3.168a.922.922 0 0 1-.68 1.337l-2.93.44a.428.428 0 0 1-.26-.804l2.627-1.365a.922.922 0 0 1 1.243.392zm-24.61.036a.922.922 0 0 1 1.235-.415l2.651 1.32a.428.428 0 0 1-.247.808l-2.936-.389a.922.922 0 0 1-.704-1.324zm22.041-4.39a.922.922 0 0 1 0 1.5l-2.41 1.722a.428.428 0 0 1-.597-.597l1.721-2.41a.922.922 0 0 1 1.286-.214zm-19.463 0a.922.922 0 0 1 1.286.215l1.72 2.41a.428.428 0 0 1-.596.597L4.08 5.754a.922.922 0 0 1 0-1.5zm15.331-3.025a.922.922 0 0 1 .513 1.41L18.25 5.079a.428.428 0 0 1-.766-.356l.794-2.854a.922.922 0 0 1 1.134-.64zm-11.009 0a.922.922 0 0 1 1.135.641l.793 2.854a.428.428 0 0 1-.765.356L7.89 2.638a.922.922 0 0 1 .513-1.41zM13.908.082a.922.922 0 0 1 .909 1.073l-.487 2.921a.428.428 0 0 1-.844 0l-.487-2.921a.922.922 0 0 1 .909-1.073z" fill="#253D48" fill-rule="evenodd"/>
</svg>
