<svg width="26" height="26" viewBox="0 0 26 26" xmlns="http://www.w3.org/2000/svg">
    <g fill="#1E3D49" fill-rule="evenodd">
        <path d="M21.667 19.5c1.197 0 2.155-.97 2.155-2.167l.011-11.916c0-1.197-.97-2.167-2.166-2.167H4.333c-1.197 0-2.166.97-2.166 2.167v11.916c0 1.197.97 2.167 2.166 2.167H0c0 1.197.97 2.167 2.167 2.167h21.666c1.197 0 2.167-.97 2.167-2.167h-4.333z M12 15v-1.313L7.855 12v-.012L12 10.301V9l-6 2.464v1.12L12 15zm2 0 6-2.464v-1.12L14 9v1.313L18.145 12v.012L14 13.699V15z"/>
    </g>
</svg>
