<svg width="37" height="27" xmlns="http://www.w3.org/2000/svg"><g fill="#243D48" fill-rule="evenodd"><path d="M36.127 5.506c0 3.082-2.193 4.943-5.807 4.943h-3.817v4.574h-1.501V.55h5.32c3.612-.004 5.805 1.856 5.805 4.957Zm-1.503 0c0-2.314-1.501-3.638-4.345-3.638h-3.776v7.237h3.776c2.844 0 4.348-1.323 4.348-3.599h-.003ZM14.835 4.022a6.48 6.48 0 0 0-2.38-2.555A6.49 6.49 0 0 0 9.044.55a6.482 6.482 0 0 0-3.425.93 6.522 6.522 0 0 0-2.395 2.584 7.926 7.926 0 0 0-.868 3.727 7.519 7.519 0 0 0 .922 3.738 6.686 6.686 0 0 0 2.554 2.564c1.14.631 2.419.951 3.715.929a7.41 7.41 0 0 0 2.98-.603 6.022 6.022 0 0 0 2.29-1.724l.032-.043-.85-.972-.046.057a4.858 4.858 0 0 1-1.898 1.45 6.192 6.192 0 0 1-2.481.497 6.108 6.108 0 0 1-2.927-.698 5.268 5.268 0 0 1-2.058-1.969 5.936 5.936 0 0 1-.81-2.844h11.895l.03-.436a7.84 7.84 0 0 0-.869-3.715ZM3.808 7.004a6.092 6.092 0 0 1 .794-2.628A4.994 4.994 0 0 1 6.45 2.53a5.184 5.184 0 0 1 2.595-.655c1.818-.036 3.517.924 4.454 2.517.468.792.737 1.69.782 2.613H3.808Z" fill-rule="nonzero" stroke="#243D48" stroke-width=".2"/><path d="M19.652 14.258a.967.967 0 0 1-.287-.71.943.943 0 0 1 .287-.698.952.952 0 0 1 .691-.282.977.977 0 0 1 .703.282.924.924 0 0 1 .296.698.954.954 0 0 1-.296.71.966.966 0 0 1-.703.29.935.935 0 0 1-.691-.29Z"/><path d="m1.308 26.676 2.219-6.333h-.753L.555 26.676h.753Zm7.391-.673c.502 0 .948-.097 1.338-.292.39-.195.692-.47.908-.827a2.34 2.34 0 0 0 .322-1.233 2.34 2.34 0 0 0-.322-1.234 2.164 2.164 0 0 0-.908-.827 2.952 2.952 0 0 0-1.338-.292H6.642v4.705H8.7Zm-.04-.739H7.516v-3.227H8.66c.345 0 .649.067.91.199.263.132.465.32.606.564.141.245.212.528.212.85 0 .323-.071.607-.212.851a1.419 1.419 0 0 1-.605.565 1.997 1.997 0 0 1-.911.198Zm8.494.807c.479 0 .911-.105 1.297-.313.385-.208.688-.496.907-.864.22-.367.33-.782.33-1.243 0-.462-.11-.876-.33-1.244a2.322 2.322 0 0 0-.907-.864 2.683 2.683 0 0 0-1.297-.312c-.48 0-.912.104-1.298.312a2.315 2.315 0 0 0-.907.867c-.22.37-.33.784-.33 1.24 0 .458.11.871.33 1.24.22.37.522.66.907.868.386.208.818.313 1.298.313Zm0-.767c-.314 0-.596-.07-.847-.211a1.531 1.531 0 0 1-.592-.592 1.695 1.695 0 0 1-.215-.85c0-.314.072-.597.215-.85.143-.254.34-.451.592-.592.25-.141.533-.212.847-.212.313 0 .596.07.847.212.25.141.448.338.591.591.143.254.215.537.215.85 0 .314-.072.598-.215.851-.143.253-.34.45-.591.592a1.697 1.697 0 0 1-.847.211Zm8.399.767a2.71 2.71 0 0 0 1.059-.202c.32-.134.59-.33.81-.585l-.565-.538c-.34.372-.76.558-1.257.558-.323 0-.612-.07-.867-.211a1.525 1.525 0 0 1-.598-.589 1.69 1.69 0 0 1-.216-.853c0-.318.072-.603.216-.854.143-.251.342-.447.598-.588.255-.141.544-.212.867-.212.497 0 .916.184 1.257.551l.565-.53a2.153 2.153 0 0 0-.807-.586 2.685 2.685 0 0 0-1.055-.201 2.65 2.65 0 0 0-1.288.312 2.328 2.328 0 0 0-.904.864c-.22.368-.33.782-.33 1.244 0 .461.11.876.327 1.243.217.368.518.656.9.864a2.65 2.65 0 0 0 1.288.313Zm6.9 0c.413 0 .762-.063 1.049-.189.287-.125.5-.293.642-.504a1.24 1.24 0 0 0 .212-.706c0-.304-.08-.546-.239-.726-.16-.179-.35-.312-.575-.4a6.366 6.366 0 0 0-.86-.252 8.167 8.167 0 0 1-.605-.168 1.044 1.044 0 0 1-.366-.201.42.42 0 0 1-.145-.33.54.54 0 0 1 .252-.463c.168-.117.425-.175.77-.175.21 0 .428.031.652.094.224.063.439.154.645.275l.276-.678a2.341 2.341 0 0 0-.72-.31 3.376 3.376 0 0 0-.847-.107c-.412 0-.76.063-1.045.188-.284.125-.497.295-.638.507-.142.213-.212.45-.212.71 0 .309.08.554.239.736.159.181.349.315.57.4.223.085.513.17.871.255.256.063.457.119.605.168.148.05.27.118.367.205a.43.43 0 0 1 .144.333c0 .184-.086.332-.259.444-.172.112-.433.168-.783.168-.282 0-.563-.049-.843-.145a2.383 2.383 0 0 1-.71-.373l-.302.679c.197.17.465.307.803.41a3.59 3.59 0 0 0 1.052.155Z" fill-rule="nonzero" opacity=".8"/></g></svg>