<svg viewBox="0 0 27 27" xmlns="http://www.w3.org/2000/svg">
    <path d="M12.82.082h2.176-2.176zm-1.166 7.554c.811 0 1.469.658 1.469 1.469v6.611a1.47 1.47 0 0 1 2.938 0 1.47 1.47 0 0 1 2.938 0 1.47 1.47 0 0 1 2.939 0v8.08A2.204 2.204 0 0 1 19.734 26h-8.188a2.204 2.204 0 0 1-1.97-1.218l-3.227-7.188a1.448 1.448 0 0 1 .492-1.852c.64-.427 1.5-.28 1.874.336l1.382 1.842h.087V9.105c0-.811.658-1.47 1.47-1.47zm0-6.611A5.883 5.883 0 0 1 17.53 6.9a5.825 5.825 0 0 1-1.189 3.545 5.928 5.928 0 0 1-1.75 1.543V10.18a4.431 4.431 0 0 0 1.47-3.28 4.412 4.412 0 0 0-4.407-4.407 4.412 4.412 0 0 0-4.408 4.407c0 1.273.56 2.46 1.47 3.28v1.808a5.929 5.929 0 0 1-1.75-1.543A5.825 5.825 0 0 1 5.777 6.9a5.883 5.883 0 0 1 5.877-5.876zm0 2.938c.782 0 1.518.304 2.073.856a2.938 2.938 0 0 1 .65 3.186 2.956 2.956 0 0 0-1.3-1.47 1.46 1.46 0 0 0-.387-.675 1.46 1.46 0 0 0-1.036-.428 1.493 1.493 0 0 0-1.422 1.103A2.956 2.956 0 0 0 8.932 8a2.937 2.937 0 0 1 2.709-4.037z"/>
</svg>
