<svg viewBox="0 0 23 23" xmlns="http://www.w3.org/2000/svg"><path d="M5.857 0h12a5 5 0 0 1 5 5v9.186a5 5 0 0 1-5 5h-5l-5 3.814v-3.814h-2a5 5 0 0 1-5-5V5a5 5 0 0 1 5-5z M11.817 6.268c.2 0 .376-.08.527-.24a.8.8 0 0 0 .225-.568.846.846 0 0 0-.212-.581.675.675 0 0 0-1.04.007.824.824 0 0 0-.225.574c0 .22.073.409.219.568.146.16.314.24.506.24zm1.437 8.332v-.56l-.862.04c.036-.21.054-.52.054-.93V7.622h-.397a1.28 1.28 0 0 1-.54.274c-.233.064-.618.096-1.156.096v.574l.971-.054a8.125 8.125 0 0 0-.054.889v3.12c0 .437-.012.759-.035.964a.908.908 0 0 1-.205.506c-.114.132-.303.199-.568.199v.41h2.792z"/></svg>
