<svg width="397" height="408" xmlns="http://www.w3.org/2000/svg" xmlns:xlink="http://www.w3.org/1999/xlink"><defs><path d="M39.422 15.428 318.746.01c4.073-.224 6.75 3.576 5.979 8.488l-1.798 11.433-32.878 204.15c-.812 4.927-4.747 8.473-8.787 7.918L6.047 193.315c-3.988-.574-6.643-4.057-5.932-7.781l30.68-162.971c.69-3.716 4.551-6.91 8.627-7.135Z" id="b"/><path d="M29.75 73.496c18.62 1.519 37.134-13.904 41.062-34.449 3.671-20.544-9.026-37.232-28.126-37.275-19.098-.04-37.08 15.382-40.296 34.45-3.362 19.067 8.803 35.755 27.36 37.274Z" id="a"/><mask id="c" maskContentUnits="userSpaceOnUse" maskUnits="objectBoundingBox" x="0" y="0" width="69.612" height="71.827" fill="#fff"><use xlink:href="#a"/></mask></defs><g fill="none" fill-rule="evenodd"><g transform="translate(8)"><circle fill="#80C0A1" style="mix-blend-mode:darken" cx="186.036" cy="186.036" r="186.036"/><g transform="translate(64.143 91.945)"><use fill="#000" filter="url(#f)" xlink:href="#b"/><use fill="#1E3D49" xlink:href="#b"/></g><path d="M307.507 189.615c1.737.044 2.877 1.511 2.546 3.278l-.002.011c-.332 1.767-2.008 3.157-3.745 3.104-1.736-.053-2.875-1.52-2.544-3.278l.002-.012c.33-1.757 2.007-3.146 3.743-3.103Z" fill="#BBC3C6"/><path d="M90.784 234.564c1.741.134 2.902 1.466 2.592 2.975l-.002.01c-.31 1.51-1.973 2.617-3.713 2.474-1.74-.144-2.9-1.476-2.591-2.976l.002-.01c.309-1.5 1.97-2.606 3.712-2.473Zm11.067.914 31.409 2.514c1.664.133 2.768 1.516 2.465 3.09-.304 1.578-1.898 2.738-3.561 2.596l-31.389-2.7c-1.661-.144-2.767-1.486-2.471-3 .297-1.515 1.885-2.634 3.547-2.5Z" fill="#FFF"/><path d="m155.974 239.898 31.41 2.514c1.663.133 2.767 1.516 2.464 3.09-.304 1.578-1.898 2.738-3.561 2.596l-31.389-2.7c-1.661-.144-2.767-1.486-2.47-3 .296-1.515 1.884-2.633 3.546-2.5Z" fill="#FDCB5B"/><path d="m230.34 247.738 31.41 2.514c1.664.133 2.767 1.517 2.464 3.09-.303 1.578-1.897 2.739-3.56 2.596l-31.39-2.7c-1.66-.144-2.767-1.486-2.47-2.999.297-1.516 1.885-2.634 3.547-2.5Z" fill="#FFF"/><path d="M148.499 203.875c1.737.044 2.876 1.511 2.545 3.278l-.002.012c-.332 1.767-2.008 3.156-3.744 3.103-1.737-.053-2.876-1.52-2.545-3.278l.002-.011c.33-1.758 2.007-3.147 3.744-3.104Zm88.221-16 24.178.703c1.636.048 2.713 1.567 2.405 3.394-.308 1.832-1.883 3.266-3.517 3.209l-24.169-.855c-1.634-.058-2.712-1.544-2.408-3.32.304-1.779 1.875-3.18 3.51-3.131Zm-100.552 0 24.18.703c1.635.048 2.712 1.567 2.404 3.394-.308 1.832-1.883 3.266-3.517 3.209l-24.169-.855c-1.634-.058-2.712-1.544-2.408-3.32.304-1.779 1.875-3.18 3.51-3.131Z" fill="#BBC3C6"/><path d="m271.5 188.788 24.177.678c1.636.046 2.71 1.57 2.398 3.404-.311 1.838-1.889 3.28-3.523 3.224l-24.168-.824c-1.633-.056-2.708-1.547-2.4-3.331.308-1.788 1.882-3.197 3.517-3.15Z" fill="#FFF"/><path d="m116.257 150.601 24.95-.185c1.678-.013 2.798 1.197 2.501 2.702-.298 1.509-1.899 2.732-3.576 2.735l-24.935.044c-1.677.003-2.8-1.176-2.508-2.632.293-1.46 1.89-2.652 3.568-2.664Zm130.757 19.087 29.54.282c1.671.016 2.773 1.4 2.46 3.092-.313 1.695-1.92 3.046-3.59 3.02l-29.528-.449c-1.67-.026-2.773-1.373-2.465-3.009.308-1.64 1.912-2.952 3.583-2.936Z" fill="#FDCB5B"/><path d="m135.706 168.688 29.54.282c1.671.016 2.773 1.4 2.46 3.092-.313 1.695-1.92 3.046-3.59 3.02l-29.528-.449c-1.67-.026-2.773-1.373-2.465-3.009.308-1.64 1.912-2.952 3.583-2.936Z" fill="#FFF"/><path d="m185.763 278.34 22.344 2.67c1.636.195 2.71 1.794 2.396 3.572v.004c-.314 1.778-1.894 3.054-3.53 2.848l-22.332-2.808c-1.634-.206-2.708-1.775-2.398-3.504.31-1.734 1.885-2.978 3.52-2.782Z" fill="#BBC3C6"/><path d="m219.66 282.907 83.605 9.574c1.654.188 2.73 1.873 2.403 3.763-.327 1.895-1.933 3.268-3.586 3.07l-83.569-10.073c-1.647-.2-2.727-1.775-2.41-3.518.318-1.747 1.91-3.006 3.558-2.816Z" fill="#FFF"/><path d="m94.407 267.466 49.831 5.952c1.634.195 2.713 1.671 2.411 3.298-.303 1.631-1.872 2.785-3.504 2.58l-49.798-6.26c-1.629-.206-2.712-1.615-2.42-3.147.293-1.535 1.85-2.619 3.48-2.423Z" fill="#FDCB5B"/><path d="m87.806 250.015 57.144 5.851c1.636.167 2.718 1.646 2.415 3.305-.303 1.662-1.874 2.864-3.509 2.687L86.75 255.65c-1.632-.178-2.718-1.58-2.427-3.13.292-1.553 1.851-2.673 3.484-2.505Z" fill="#FFF"/><path d="m366.067 148.485-28.715 174.601-6.003-.82 28.674-173.726c.32-1.97 1.93-3.583 3.6-3.606 1.67-.017 2.764 1.571 2.444 3.55Z" fill="#BBC3C6"/><path d="m111.047 119.89 258.165-10.584c1.6-.066 2.652 1.42 2.35 3.318l-2.536 15.834c-.304 1.9-1.848 3.468-3.447 3.503l-257.82 5.664c-1.597.034-2.669-1.136-2.394-2.615l2.288-12.326c.275-1.478 1.794-2.73 3.394-2.795Z" fill="#FFF" opacity=".2"/><path d="m232.822 206.149 85.427 4.014c1.657.077 2.743 1.697 2.425 3.618-.319 1.925-1.92 3.411-3.576 3.324l-85.39-4.545c-1.652-.088-2.743-1.59-2.436-3.355.308-1.768 1.897-3.135 3.55-3.056Z" fill="#FFF"/><path d="m347.782 252.586-5.049 30.819c-.22 1.341-1.3 2.333-2.41 2.214-1.112-.118-1.834-1.298-1.613-2.635l5.043-30.716c.22-1.336 1.298-2.35 2.41-2.265 1.113.086 1.838 1.242 1.619 2.583Z" fill="#1E3D49" opacity=".9"/><path d="m291.996 120.183 24.936-.828c1.678-.056 2.782 1.384 2.468 3.216-.316 1.837-1.931 3.36-3.608 3.405l-24.929.685c-1.676.046-2.782-1.362-2.47-3.145.313-1.787 1.925-3.278 3.603-3.333Zm35.694-1.748 24.935-.907c1.677-.061 2.78 1.564 2.462 3.63-.318 2.071-1.935 3.788-3.612 3.838l-24.928.751c-1.677.05-2.78-1.54-2.465-3.553l.001-.004c.315-2.013 1.93-3.694 3.608-3.755Zm34.912-.907c1.737-.06 2.879 1.53 2.549 3.548l-.002.014c-.33 2.019-2.005 3.695-3.742 3.744-1.737.049-2.878-1.54-2.548-3.55l.002-.012c.329-2.01 2.004-3.685 3.741-3.744Z" fill="#BBC3C6"/><path d="m133.403 148.924 2.82 1.743-.582.94-2.819-1.743.581-.94Zm-5.639-3.488 2.82 1.744-.581.94-2.82-1.744.581-.94Zm-5.639-3.487 2.82 1.744-.581.94-2.82-1.744.581-.94Zm-5.638-3.487 2.819 1.743-.581.94-2.82-1.743.582-.94Zm-5.64-3.488 2.82 1.744-.581.94-2.82-1.744.582-.94Zm-5.638-3.487 2.82 1.744-.582.94-2.82-1.744.582-.94ZM99.569 128l2.82 1.743-.581.94-2.82-1.743.582-.94Zm-5.638-3.488 2.82 1.744-.582.94-2.82-1.744.582-.94Zm-5.64-3.487 2.82 1.744-.58.94-2.82-1.744.58-.94Zm-5.638-3.487 2.82 1.743-.582.94-2.82-1.743.582-.94Zm-5.639-3.487 2.82 1.743-.582.94-2.82-1.744.582-.94Zm-5.639-3.488 2.82 1.744-.582.94-2.819-1.744.581-.94Zm-5.639-3.487 2.82 1.744-.581.94-2.82-1.744.581-.94Zm-5.639-3.487 2.82 1.743-.581.94-2.82-1.744.581-.94Zm-5.639-3.488 2.82 1.744-.581.94-2.82-1.744.581-.94Zm-5.638-3.487 2.819 1.744-.581.94-2.82-1.744.582-.94Zm-6.815-9.165c1.991 1.232 2.653 3.81 1.632 5.959L46 94.87l-.581.94-2.364-1.461c-1.466 1.874-4.069 2.433-6.06 1.202-2.144-1.326-2.747-4.214-1.367-6.446 1.38-2.231 4.233-2.981 6.377-1.656Zm-5.437 2.238c-1.066 1.723-.606 3.926 1.008 4.924 1.614.998 3.79.426 4.856-1.298 1.066-1.723.606-3.926-1.008-4.924-1.614-.998-3.79-.426-4.856 1.298Zm137.863 152.379 2.818 1.746-.582.94-2.818-1.747.582-.94Zm-5.635-3.494 2.818 1.747-.583.94-2.817-1.748.582-.939Zm-5.635-3.493 2.818 1.746-.583.94-2.817-1.747.582-.94Zm-5.635-3.494 2.818 1.747-.583.94-2.817-1.748.582-.939Zm-5.635-3.493 2.818 1.746-.583.94-2.817-1.747.582-.94Zm-5.635-3.494 2.817 1.747-.582.939-2.817-1.747.582-.939Zm-5.635-3.493 2.817 1.746-.582.94-2.817-1.747.582-.94Zm-5.635-3.494 2.817 1.747-.582.939-2.817-1.747.582-.939Zm-5.635-3.494 2.817 1.747-.582.94-2.818-1.747.583-.94Zm-5.635-3.493 2.817 1.747-.582.939-2.818-1.747.583-.939Zm-6.804-9.172c1.99 1.234 2.649 3.813 1.625 5.961l2.361 1.464-.582.94-2.362-1.464c-1.468 1.872-4.071 2.428-6.061 1.195-2.143-1.328-2.743-4.216-1.36-6.447 1.383-2.23 4.236-2.977 6.379-1.649Zm-5.44 2.231c-1.068 1.723-.61 3.926 1.003 4.926s3.79.43 4.857-1.292c1.068-1.723.61-3.926-1.003-4.926-1.612-1-3.79-.43-4.857 1.292Zm-6.843 66.632 1.885 1.179-.585.937-1.886-1.179.586-.937Zm-5.623-3.513 2.811 1.757-.585.937-2.812-1.757.586-.937Zm-5.623-3.513 2.812 1.756-.586.937-2.811-1.756.585-.937Zm-5.622-3.514 2.811 1.757-.586.937-2.811-1.757.586-.937Zm-5.623-3.513 2.811 1.756-.585.937-2.812-1.756.586-.937Zm-5.623-3.514 2.812 1.757-.586.937-2.811-1.757.585-.937Zm-5.622-3.513 2.81 1.756-.585.938-2.811-1.757.586-.937Zm-5.623-3.514 2.811 1.757-.585.937-2.812-1.757.586-.937Zm-6.783-9.203c1.986 1.241 2.636 3.823 1.604 5.967l2.368 1.48-.586.937-2.368-1.48c-1.475 1.868-4.08 2.415-6.066 1.174-2.137-1.336-2.727-4.226-1.337-6.451 1.391-2.226 4.247-2.962 6.385-1.627Zm-5.447 2.212c-1.074 1.719-.624 3.924.985 4.93 1.61 1.005 3.788.442 4.862-1.276 1.074-1.718.624-3.923-.986-4.928-1.609-1.006-3.788-.444-4.861 1.274Zm212.928-67.485 2.85 1.693-.564.95-2.85-1.693.564-.95Zm-5.7-3.386 2.85 1.693-.564.95-2.85-1.693.564-.95Zm-5.7-3.386 2.85 1.693-.565.95-2.85-1.693.565-.95Zm-5.7-3.386 2.85 1.693-.565.95-2.85-1.692.564-.95Zm-5.701-3.386 2.85 1.693-.564.95-2.85-1.692.564-.95Zm-5.7-3.385 2.85 1.692-.565.95-2.85-1.692.565-.95Zm-5.7-3.386 2.85 1.693-.565.95-2.85-1.693.564-.95Zm-5.701-3.386 2.85 1.693-.564.95-2.85-1.693.564-.95Zm-5.7-3.386 2.85 1.693-.565.95-2.85-1.693.565-.95Zm-5.7-3.386 2.85 1.693-.565.95-2.85-1.693.564-.95Zm-5.701-3.386 2.85 1.693-.564.95-2.85-1.693.564-.95Zm-5.7-3.386 2.85 1.693-.565.95-2.85-1.693.564-.95Zm-5.7-3.386 2.85 1.693-.565.95-2.85-1.693.564-.95Zm-5.701-3.386 2.85 1.693-.564.95-2.85-1.693.564-.95Zm-5.7-3.386 2.85 1.693-.565.95-2.85-1.693.564-.95Zm-5.7-3.386 2.85 1.693-.565.95-2.85-1.693.564-.95Zm-5.701-3.386 2.85 1.693-.564.95-2.85-1.693.564-.95Zm-5.7-3.386 2.85 1.693-.565.95-2.85-1.693.564-.95Zm-5.7-3.386 2.85 1.693-.565.95-2.85-1.693.564-.95Zm-5.701-3.386 2.85 1.693-.564.95-2.85-1.693.564-.95Zm-5.7-3.386 2.85 1.693-.565.95-2.85-1.693.564-.95Zm-6.985-9.045c2.013 1.195 2.721 3.76 1.739 5.927l2.395 1.425-.564.95-2.396-1.423c-1.433 1.9-4.025 2.506-6.038 1.31-2.167-1.287-2.822-4.163-1.482-6.42 1.34-2.256 4.18-3.057 6.346-1.77Zm-5.396 2.334c-1.035 1.742-.535 3.936 1.096 4.905 1.632.969 3.797.358 4.832-1.384 1.035-1.742.535-3.936-1.096-4.905-1.631-.97-3.797-.358-4.832 1.384Z" fill="#FDCB5B" fill-rule="nonzero"/><g transform="rotate(3 -2994.417 3376.703)"><path d="M29.75 73.496c18.62 1.519 37.134-13.904 41.062-34.449 3.671-20.544-9.026-37.232-28.126-37.275-19.098-.04-37.08 15.382-40.296 34.45-3.362 19.067 8.803 35.755 27.36 37.274Z" fill="#1E3D49" opacity=".7"/><use stroke="#BBC3C6" mask="url(#c)" stroke-width="2.242" stroke-dasharray="4.268396965444905,4.268396965444905" xlink:href="#a"/></g><path d="M196.745 157.426c9.316.511 16.86 5.005 21.488 11.863 4.63 6.861 6.339 16.078 4.025 26.013-2.45 9.975-8.403 18.509-16.014 24.25-7.613 5.74-16.889 8.69-25.978 7.464-9.002-1.217-16.258-6.043-20.736-12.872-4.497-6.857-6.19-15.726-4.058-24.98 2.067-9.284 7.718-17.478 15.189-23.222 7.457-5.733 16.731-9.029 26.084-8.516Z" stroke="#BBC3C6" stroke-width="1.121" fill="#FFF"/><path d="M198.054 191.054c-1.078-.1-2.175.772-2.452 1.945.277-1.173-.373-2.205-1.451-2.304-1.078-.1-2.173.768-2.448 1.937.275-1.169-.377-2.197-1.454-2.296-1.077-.099-2.17.764-2.443 1.928l2.2-9.483c.267-1.164-.394-2.179-1.475-2.267-1.081-.088-2.172.78-2.437 1.94l-1.695 7.344-1.227 5.246-.116-.012-1.214-2.804c-.29-.923-1.383-1.24-2.372-.713-.94.499-1.481 1.6-1.266 2.57l1.836 10.67c.235 1.118 1.078 1.903 2.176 2.025l10.787 1.199c1.605.178 3.256-1.11 3.686-2.877l2.561-10.668.253-1.067c.278-1.178-.371-2.214-1.449-2.313Z" fill="#1E3D49"/><path d="M182.896 178.992c.78-3.457 4.053-6.077 7.3-5.84 3.247.237 5.247 3.28 4.45 6.781-.42 1.834-1.557 3.48-3.04 4.558l-.601 2.6a10.052 10.052 0 0 0 2.841-2.02 10.4 10.4 0 0 0 2.76-4.98c1.063-4.68-1.606-8.736-5.94-9.043-4.332-.306-8.691 3.187-9.727 7.787-.416 1.833-.265 3.619.436 5.166a6.668 6.668 0 0 0 1.82 2.4l.592-2.577c-.942-1.272-1.302-3.022-.89-4.832Z" fill="#1E3D49"/><path d="m189.723 175.256-.018-.002c-2.085-.147-4.191 1.47-4.797 3.681a4.417 4.417 0 0 0-.122 1.804 5.166 5.166 0 0 1 2.208-1.952c.423-.877 1.354-1.493 2.245-1.429l.009.001c.522.04.963.297 1.243.721.193.292.293.64.296 1.01.673.529 1.12 1.324 1.252 2.25.3-.482.522-1.01.648-1.564.258-1.132.09-2.227-.474-3.082-.561-.85-1.445-1.36-2.49-1.438Z" fill="#1E3D49"/><path d="m82.282 268.73 5.376-3.643c.174-.118.215-.244.124-.379l-.519-.75c-.11-.133-.24-.147-.393-.045l-6.535 4.405a.288.288 0 0 0-.126.167c-.023.074-.016.135.019.185l3.299 5.56c.083.148.206.171.37.07l.936-.604c.166-.104.207-.23.124-.378l-2.675-4.589Zm61.487-26.916 5.177-3.92c.168-.126.203-.254.104-.384l-.556-.721c-.117-.127-.249-.135-.395-.024l-6.296 4.74a.288.288 0 0 0-.117.174c-.019.074-.01.135.028.183l3.586 5.38c.09.143.215.16.373.05l.903-.652c.16-.112.195-.24.104-.384l-2.911-4.442Zm90.989-68.887 4.891-4.27c.159-.138.185-.268.078-.39l-.606-.682c-.125-.119-.257-.117-.396.003l-5.95 5.169a.288.288 0 0 0-.105.181c-.013.076 0 .136.041.18l3.953 5.118c.1.136.226.144.376.023l.855-.712c.152-.124.178-.255.077-.391l-3.214-4.229Zm-130-19.441 4.891-4.27c.159-.138.185-.268.078-.39l-.606-.682c-.125-.119-.257-.117-.396.003l-5.95 5.169a.288.288 0 0 0-.105.181c-.013.076 0 .136.041.18l3.953 5.118c.1.136.226.144.376.023l.855-.712c.152-.124.178-.255.077-.391l-3.214-4.229Zm48.334-.249-5.178 3.919c-.167.126-.202.255-.104.384l.557.722c.117.127.248.135.395.024l6.296-4.74c.06-.042.099-.1.117-.174.018-.074.009-.135-.028-.183l-3.586-5.38c-.09-.144-.215-.16-.374-.05l-.902.651c-.16.113-.195.242-.105.385l2.912 4.442Zm135.686 19.886-4.892 4.271c-.158.138-.184.268-.077.39l.606.682c.125.118.257.117.396-.004l5.95-5.168a.288.288 0 0 0 .104-.181c.014-.076 0-.136-.04-.18l-3.953-5.118c-.1-.137-.226-.145-.376-.024l-.855.713c-.152.124-.178.255-.077.391l3.214 4.228Zm-89.261 73.029-4.965 4.184c-.16.136-.189.265-.084.39l.594.691c.123.121.255.122.395.004l6.04-5.064a.288.288 0 0 0 .108-.18c.014-.075.001-.135-.038-.18l-3.863-5.186c-.098-.138-.223-.149-.376-.03l-.867.698c-.154.12-.182.25-.084.389l3.14 4.284Zm-43.481 31.585-5.178 3.919c-.167.126-.202.255-.104.384l.557.722c.116.127.248.135.395.024l6.296-4.74c.06-.042.099-.1.117-.174.018-.074.009-.135-.028-.183l-3.586-5.38c-.09-.144-.215-.16-.374-.05l-.902.651c-.16.113-.195.242-.105.385l2.912 4.442Z" stroke="#FDCB5B" stroke-width=".997" fill="#FDCB5B"/><g fill="#FDCB5B"><path d="m94.135 84.61 19.92-1.468c1.31-.097 2.26.997 2.12 2.443l-.213 2.215c-.14 1.446-1.317 2.69-2.629 2.78l-19.93 1.348c-1.312.09-2.26-.988-2.118-2.405l.218-2.171c.142-1.417 1.32-2.645 2.632-2.742Zm29.418-2.174 23.674-1.746c1.311-.097 2.264 1.029 2.127 2.513l-.209 2.275c-.136 1.484-1.31 2.76-2.622 2.849l-23.686 1.603c-1.312.09-2.263-1.016-2.124-2.467l.213-2.224c.14-1.451 1.315-2.707 2.627-2.803Zm33.171-2.44 33.327-2.458c1.311-.096 2.267 1.07 2.135 2.604l-.202 2.35c-.132 1.536-1.302 2.852-2.614 2.94l-33.345 2.258c-1.312.088-2.265-1.048-2.13-2.538l.208-2.283c.136-1.49 1.31-2.777 2.62-2.873Zm42.825-3.158 23.673-1.746c1.312-.096 2.27 1.1 2.142 2.674l-.197 2.41c-.128 1.574-1.296 2.921-2.608 3.01l-23.687 1.603c-1.312.09-2.269-1.088-2.137-2.628l.201-2.36c.132-1.54 1.301-2.866 2.613-2.963Z"/></g></g><path d="m26.163 148.874 42.815 1.272c1.1.033 1.805.944 1.575 2.036l-24.16 114.637c-.23 1.092-1.3 1.862-2.39 1.72L1.578 263.01c-1.09-.142-1.79-1.107-1.564-2.156l23.749-110.14c.226-1.048 1.3-1.872 2.4-1.84Z" fill="#FDCB5B"/><path d="m31.284 157.694 28.855 1.073c1.65.06 2.706 1.431 2.362 3.06-.344 1.63-1.96 2.894-3.607 2.825l-28.843-1.217c-1.647-.07-2.708-1.408-2.368-2.989.34-1.581 1.952-2.813 3.6-2.752Zm6.482 11.905 19.882.938c1.647.077 2.704 1.46 2.36 3.09-.345 1.63-1.959 2.88-3.605 2.795l-19.874-1.037c-1.646-.086-2.704-1.448-2.363-3.041.341-1.594 1.953-2.823 3.6-2.745Zm-2.473 11.571 19.864 1.137c1.646.094 2.7 1.49 2.356 3.12-.344 1.629-1.956 2.867-3.601 2.764l-19.856-1.234c-1.644-.103-2.701-1.478-2.36-3.071.34-1.594 1.951-2.81 3.597-2.715Zm-2.473 11.573 19.846 1.333c1.644.111 2.698 1.521 2.354 3.15-.345 1.63-1.956 2.854-3.6 2.735l-19.837-1.432c-1.643-.12-2.699-1.507-2.358-3.101.342-1.594 1.95-2.796 3.595-2.685Zm2.856 14.939c1.467.117 2.582 1 3.02 2.218l11.432.931c1.095.09 1.796 1.042 1.567 2.128-.23 1.086-1.303 1.892-2.397 1.799l-11.43-.968c-.932 1.103-2.378 1.773-3.845 1.646-1.466-.127-2.58-1.015-3.019-2.228l-12.42-1.055c-1.094-.093-1.797-1.022-1.57-2.077.226-1.054 1.297-1.836 2.392-1.747l12.423 1.012c.932-1.1 2.38-1.776 3.847-1.66Zm-10.441 15.826 20.788 1.955c1.64.154 2.69 1.6 2.347 3.23-.345 1.628-1.953 2.817-3.592 2.655l-20.779-2.059c-1.64-.162-2.692-1.585-2.35-3.177.34-1.593 1.946-2.758 3.586-2.604Zm-2.472 11.562 20.77 2.163c1.638.17 2.687 1.63 2.343 3.259-.345 1.63-1.951 2.805-3.59 2.626l-20.759-2.267c-1.638-.179-2.69-1.615-2.348-3.207.34-1.592 1.946-2.745 3.584-2.574Zm-2.472 11.562 20.75 2.371c1.637.187 2.685 1.66 2.341 3.289-.344 1.629-1.95 2.791-3.586 2.596l-20.741-2.475c-1.636-.195-2.687-1.644-2.346-3.237.341-1.592 1.945-2.731 3.582-2.544Z" fill="#FFF" opacity=".704"/><path d="m28.584 169.674.211.002c.662.031 1.213.31 1.559.751.343.439.477 1.03.341 1.664-.145.679-.566 1.275-1.122 1.695-.557.422-1.254.67-1.96.633-.663-.035-1.214-.316-1.56-.758-.343-.438-.479-1.026-.343-1.657.145-.675.566-1.27 1.122-1.69.558-.422 1.256-.671 1.963-.638Zm-2.47 11.481.211.004c.663.038 1.214.324 1.56.77.344.444.48 1.038.343 1.674-.145.678-.566 1.27-1.12 1.686-.556.416-1.251.657-1.955.613-.664-.041-1.215-.33-1.562-.777-.343-.443-.48-1.035-.343-1.668.145-.674.565-1.264 1.119-1.68.557-.417 1.253-.659 1.958-.618Zm-2.469 11.48.21.006c.665.045 1.215.338 1.562.79.344.449.48 1.047.343 1.685-.145.677-.564 1.265-1.116 1.675-.555.412-1.249.645-1.951.594-.665-.048-1.216-.344-1.563-.796-.344-.448-.48-1.044-.345-1.678.145-.674.564-1.26 1.117-1.67.555-.412 1.25-.647 1.954-.6ZM17.06 223.25l.21.011c.666.063 1.217.376 1.564.841.345.463.484 1.072.346 1.714-.144.673-.56 1.252-1.11 1.648a2.855 2.855 0 0 1-1.937.543c-.667-.066-1.22-.381-1.567-.848-.345-.462-.484-1.069-.346-1.707.144-.67.56-1.247 1.108-1.642a2.881 2.881 0 0 1 1.941-.549Zm-2.47 11.48.21.013c.667.07 1.219.39 1.566.861.345.468.484 1.08.346 1.724-.144.673-.558 1.248-1.106 1.638a2.82 2.82 0 0 1-1.933.524c-.668-.073-1.22-.395-1.569-.867a2.119 2.119 0 0 1-.347-1.718c.144-.668.559-1.241 1.106-1.632a2.847 2.847 0 0 1 1.936-.53Zm-2.469 11.48.208.016c.669.076 1.221.404 1.569.88a2.15 2.15 0 0 1 .347 1.735 2.705 2.705 0 0 1-1.104 1.628 2.788 2.788 0 0 1-1.928.505c-.669-.08-1.222-.41-1.57-.887a2.138 2.138 0 0 1-.348-1.728c.144-.668.557-1.237 1.103-1.622a2.814 2.814 0 0 1 1.931-.511Z" stroke="#FFF" opacity=".704"/><path d="m265.147 45.46 28.646-2.311c5.085-.41 9.207 3.154 9.207 7.962s-4.03 8.954-9 9.26l-28 1.726c-4.97.307-9.237-3.127-9.53-7.67-.293-4.542 3.592-8.557 8.677-8.967Z" fill="#FDCB5B"/><path d="M282 53.308c-.668.044-1.196.553-1.178 1.135.02.582.576 1.022 1.242.98.666-.042 1.194-.55 1.178-1.135-.017-.583-.574-1.023-1.242-.98Zm.045 1.48c-.267.018-.49-.158-.497-.391-.007-.233.204-.437.471-.454.267-.017.49.158.497.392.007.233-.204.437-.471.454Zm1.593-5.458a.352.352 0 0 0-.272-.094l-6.686.465-.35-1.066c-.042-.127-.183-.21-.341-.198l-1.13.08c-.19.014-.338.154-.331.313.006.159.165.277.354.264l.859-.06 1.26 3.85c.041.128.182.211.339.2l5.295-.347c.156-.01.29-.11.324-.243l.749-2.92a.252.252 0 0 0-.07-.245Zm-1.286 2.843-4.765.316-.722-2.221 6.081-.42-.594 2.325Zm-4.592 1.411c-.668.044-1.194.55-1.171 1.13.022.579.582 1.016 1.248.974.666-.042 1.191-.548 1.171-1.129-.02-.58-.58-1.018-1.248-.975Zm.054 1.473c-.267.017-.491-.158-.5-.39-.008-.232.202-.434.469-.451.267-.018.49.157.5.39.007.232-.203.434-.47.451Z" stroke="#FFF" stroke-width=".3" fill="#FFF" fill-rule="nonzero" opacity=".7"/><path d="M245.544 48.395c1.584-.15 2.93.515 3.824 1.71.935 1.247 1.384 3.053 1.157 5.109a10.352 10.352 0 0 1-2.382 5.528c-1.227 1.433-2.802 2.405-4.452 2.542L12.981 82.527c-1.594.132-2.948-.4-3.84-1.388-.899-.997-1.319-2.445-1.08-4.095.248-1.713 1.152-3.325 2.405-4.55 1.248-1.22 2.846-2.061 4.506-2.219Z" stroke="#D3D3D3" fill="#FFF"/><path d="m14.485 72.602 66.191-6.12c1.31-.12 2.219.945 2.028 2.38l-.379 2.858c-.19 1.435-1.407 2.69-2.718 2.802l-66.214 5.685c-1.31.112-2.216-.893-2.02-2.245l.387-2.693c.195-1.352 1.415-2.546 2.725-2.667Z" fill="#FDCB5B"/><path d="M243.642 51.997c1.437-.132 2.441 1.207 2.243 2.99a4.423 4.423 0 0 1-.652 1.856l1.488 1.99c.123.166.091.454-.072.645-.15.175-.36.206-.488.08l-.03-.036-1.467-1.962c-.501.5-1.11.827-1.739.882-1.437.125-2.441-1.213-2.243-2.99.198-1.776 1.523-3.323 2.96-3.455Zm-.101.908c-1.032.094-1.984 1.205-2.126 2.482-.142 1.276.58 2.238 1.611 2.147 1.032-.09 1.984-1.202 2.126-2.482.142-1.28-.579-2.241-1.611-2.147Z" fill="#1E3D49" fill-rule="nonzero"/><g><path d="m81.844 170.211 32.413 1.828c1.732.098 2.85 1.577 2.498 3.303l-9.28 45.439c-.353 1.726-2.03 2.983-3.746 2.806l-32.11-3.298c-1.717-.176-2.832-1.671-2.492-3.339l8.963-43.896c.34-1.668 2.021-2.94 3.754-2.843Z" fill="#FDCB5B"/><path d="m84.032 174.015 26.532 1.585c1.256.075 2.067 1.147 1.813 2.396l-3.652 17.879c-.255 1.248-1.476 2.179-2.726 2.079l-26.424-2.108c-1.251-.1-2.064-1.165-1.816-2.38l3.55-17.389c.248-1.214 1.467-2.137 2.723-2.062Zm-6.419 25.315 18.363 1.528c.725.06 1.192.696 1.045 1.419-.148.723-.855 1.259-1.579 1.197l-18.355-1.572c-.724-.062-1.194-.687-1.049-1.397.145-.71.85-1.236 1.575-1.176Zm-1.075 5.684 12.231 1.076c.724.063 1.19.701 1.043 1.424-.147.724-.854 1.257-1.577 1.191l-12.225-1.104c-.723-.065-1.192-.697-1.046-1.41.146-.714.85-1.241 1.574-1.177Zm.129 6.863 25.627 2.424c1.445.136 2.378 1.42 2.082 2.867-.295 1.447-1.706 2.503-3.15 2.36l-25.602-2.543c-1.444-.144-2.382-1.4-2.094-2.808.287-1.407 1.692-2.437 3.137-2.3Z" fill="#FFF" opacity=".7"/></g></g></svg>