<svg width="461" height="374" viewBox="0 0 461 349" xmlns="http://www.w3.org/2000/svg" xmlns:xlink="http://www.w3.org/1999/xlink"><defs><linearGradient x1="0%" y1="56.764%" x2="73.497%" y2="56.764%" id="e"><stop stop-color="#FFF" stop-opacity=".576" offset="0%"/><stop stop-color="#FFF" stop-opacity="0" offset="100%"/></linearGradient><linearGradient x1="25.523%" y1="53.567%" x2="100%" y2="55.394%" id="f"><stop stop-color="#CFD4D7" offset="0%"/><stop stop-color="#DFE3E5" stop-opacity="0" offset="100%"/></linearGradient><rect id="a" x="28.016" y="25.084" width="17.841" height="17.839" rx="2.399"/><rect id="b" x="6.4" y="25.084" width="17.841" height="17.839" rx="2.399"/><mask id="c" maskContentUnits="userSpaceOnUse" maskUnits="objectBoundingBox" x="0" y="0" width="17.841" height="17.839" fill="#fff"><use xlink:href="#a"/></mask><mask id="d" maskContentUnits="userSpaceOnUse" maskUnits="objectBoundingBox" x="0" y="0" width="17.841" height="17.839" fill="#fff"><use xlink:href="#b"/></mask><filter x="-25.4%" y="-38.2%" width="150.8%" height="176.4%" filterUnits="objectBoundingBox" id="g"><feOffset dx="4" dy="4" in="SourceAlpha" result="shadowOffsetOuter1"/><feGaussianBlur stdDeviation="20" in="shadowOffsetOuter1" result="shadowBlurOuter1"/><feColorMatrix values="0 0 0 0 0.717647059 0 0 0 0 0.705882353 0 0 0 0 0.705882353 0 0 0 0.293490323 0" in="shadowBlurOuter1" result="shadowMatrixOuter1"/><feMerge><feMergeNode in="shadowMatrixOuter1"/><feMergeNode in="SourceGraphic"/></feMerge></filter></defs><g transform="translate(21 21.563)" fill="none" fill-rule="evenodd"><g transform="translate(.33 .346)"><path d="M87.583 0h239.05a7.893 7.893 0 0 1 7.893 7.893v207.202a7.893 7.893 0 0 1-7.894 7.893H95.476a7.893 7.893 0 0 1-7.893-7.893V0Z" fill-opacity=".8" fill="#E2E6E7"/><text font-family="Montserrat-Medium, Montserrat" font-size="5.826" font-weight="400" fill="#FFF">
                        
                    </text><path d="M7.9 0h80.32c.545 0 .987.442.987.987v221.014a.987.987 0 0 1-.988.987H7.9a7.9 7.9 0 0 1-7.899-7.9V7.9A7.9 7.9 0 0 1 7.9 0Z" fill-opacity=".5" fill="#1E3D49"/><g transform="translate(252.487 7.204)"><rect fill="#FFF" width="73.461" height="65.974" rx="2.742"/><rect stroke="#D3D3D3" stroke-width=".5" fill="#CFD4D7" x="49.47" y="25.334" width="17.341" height="17.339" rx="2.399"/><rect stroke="#D3D3D3" stroke-width=".5" fill="#CFD4D7" x="49.47" y="45.917" width="17.341" height="17.339" rx="2.399"/><rect stroke="#D3D3D3" stroke-width=".5" fill="#CFD4D7" x="49.47" y="4.75" width="17.341" height="17.339" rx="2.399"/><rect stroke="#D3D3D3" stroke-width=".5" fill="#CFD4D7" x="28.266" y="4.75" width="17.341" height="17.339" rx="2.399"/><rect stroke="#D3D3D3" stroke-width=".5" fill="#CFD4D7" x="6.65" y="4.75" width="17.341" height="17.339" rx="2.399"/><rect stroke="#D3D3D3" stroke-width=".5" fill="#CFD4D7" x="28.266" y="45.917" width="17.341" height="17.339" rx="2.399"/><use stroke="#FDCB5B" mask="url(#c)" fill="#FFF" stroke-dasharray="1.028" xlink:href="#a"/><rect stroke="#D3D3D3" stroke-width=".5" fill="#CFD4D7" x="6.65" y="45.917" width="17.341" height="17.339" rx="2.399"/><use stroke="#FDCB5B" mask="url(#d)" fill="#FFF" stroke-dasharray="1.028" xlink:href="#b"/><rect fill="#FDCB5B" x="3.901" y="16.124" width="17.841" height="17.839" rx="2.399"/><path stroke="#FFF" stroke-width="1.028" d="m8.517 27.696 4.461-4.46 4.46 4.46"/><rect fill="#FDCB5B" x="32.632" y="34.003" width="17.841" height="17.839" rx="2.399"/><path stroke="#FFF" stroke-width="1.028" d="m46.013 41.431-4.46 4.46-4.46-4.46"/></g><g transform="translate(94.353 77.65)"><rect fill="#FFF" width="73.461" height="65.974" rx="2.742"/><rect stroke="#D3D3D3" stroke-width=".5" fill="#FFF" x="5.844" y="10.767" width="13.224" height="13.222" rx="2.399"/><rect stroke="#D3D3D3" stroke-width=".5" fill="#FFF" x="22.313" y="10.767" width="13.224" height="13.222" rx="2.399"/><rect stroke="#D3D3D3" stroke-width=".5" fill="#FFF" x="38.782" y="10.767" width="13.224" height="13.222" rx="2.399"/><rect stroke="#D3D3D3" stroke-width=".5" fill="#FFF" x="55.251" y="10.767" width="13.224" height="13.222" rx="2.399"/><rect stroke="#D3D3D3" stroke-width=".5" fill="#FFF" x="5.844" y="27.233" width="13.224" height="13.222" rx="2.399"/><rect stroke="#D3D3D3" stroke-width=".5" fill="#FFF" x="22.313" y="27.233" width="13.224" height="13.222" rx="2.399"/><rect fill="#FDCB5B" x="38.532" y="26.983" width="13.724" height="13.722" rx="2.399"/><rect stroke="#D3D3D3" stroke-width=".5" fill="#FFF" x="55.251" y="27.233" width="13.224" height="13.222" rx="2.399"/><rect stroke="#D3D3D3" stroke-width=".5" fill="#FFF" x="5.844" y="43.7" width="13.224" height="13.222" rx="2.399"/><rect stroke="#D3D3D3" stroke-width=".5" fill="#FFF" x="22.313" y="43.7" width="13.224" height="13.222" rx="2.399"/><rect stroke="#D3D3D3" stroke-width=".5" fill="#FFF" x="38.782" y="43.7" width="13.224" height="13.222" rx="2.399"/><rect stroke="#D3D3D3" stroke-width=".5" fill="#FFF" x="55.251" y="43.7" width="13.224" height="13.222" rx="2.399"/><text font-family="Montserrat-SemiBold, Montserrat" font-size="9.253" font-weight="500" fill="#FFF">
                        <tspan x="42.649" y="37.19">?</tspan>
                    </text></g><g transform="translate(173.42 77.65)"><rect fill="#FFF" width="73.461" height="65.974" rx="2.742"/><rect stroke="#D3D3D3" stroke-width=".5" fill="#FFF" x="9.398" y="11.796" width="53.121" height="1.723" rx=".862"/><rect stroke="#D3D3D3" stroke-width=".5" fill="#FFF" x="9.398" y="20.194" width="53.121" height="1.723" rx=".862"/><rect stroke="#D3D3D3" stroke-width=".5" fill="#FFF" x="9.398" y="28.592" width="53.121" height="1.723" rx=".862"/><rect stroke="#D3D3D3" stroke-width=".5" fill="#FFF" x="9.398" y="36.99" width="53.121" height="1.723" rx=".862"/><rect stroke="#D3D3D3" stroke-width=".5" fill="#FFF" x="9.398" y="45.389" width="53.121" height="1.723" rx=".862"/><rect stroke="#D3D3D3" stroke-width=".5" fill="#FFF" x="9.398" y="53.787" width="53.121" height="1.723" rx=".862"/><ellipse fill="#FDCB5B" cx="38.74" cy="12.657" rx="2.782" ry="2.781"/><ellipse fill="#FDCB5B" cx="28.962" cy="21.234" rx="2.782" ry="2.781"/><ellipse fill="#FDCB5B" cx="53.812" cy="29.454" rx="2.782" ry="2.781"/><ellipse fill="#FDCB5B" cx="44.304" cy="37.852" rx="2.782" ry="2.781"/><ellipse fill="#FDCB5B" cx="17.419" cy="46.25" rx="2.782" ry="2.781"/><ellipse fill="#FDCB5B" cx="26.18" cy="54.648" rx="2.782" ry="2.781"/></g><g transform="translate(252.487 77.65)"><rect fill="#FFF" width="73.461" height="65.974" rx="2.742"/><rect fill="#FDCB5B" x="8.503" y="10.517" width="13.724" height="13.722" rx="2.399"/><rect stroke="#D3D3D3" stroke-width=".5" fill="#FFF" x="48.915" y="10.767" width="13.224" height="13.222" rx="2.399"/><rect fill="#FDCB5B" x="48.665" y="26.983" width="13.724" height="13.722" rx="2.399"/><rect stroke="#D3D3D3" stroke-width=".5" fill="#FFF" x="48.915" y="43.7" width="13.224" height="13.222" rx="2.399"/><path stroke="#D3D3D3" stroke-width=".5" d="M29.201 17.378h19.557M34.347 23.896v4.465a5.484 5.484 0 0 0 5.484 5.483h8.927"/><path d="M22.339 17.378h6.525a5.484 5.484 0 0 1 5.483 5.483v21.967a5.484 5.484 0 0 0 5.484 5.483h8.927" stroke="#D3D3D3" stroke-width=".5"/></g><g transform="translate(173.42 148.095)"><rect fill="#FFF" width="73.461" height="65.974" rx="2.742"/><g transform="translate(22.626 17.945)" stroke="#D3D3D3" stroke-width="1.028"><ellipse fill="#FFF" cx="13.203" cy="13.201" rx="12.689" ry="12.687"/><path stroke-linecap="round" stroke-linejoin="round" d="m22.332 22.33 8.204 8.202"/></g></g><g transform="translate(252.953 148.095)"><rect fill="#FFF" width="73.461" height="65.974" rx="2.742"/><ellipse fill="#FDCB5B" opacity=".504" cx="26.107" cy="32.987" rx="21.248" ry="21.245"/><ellipse fill="#FDCB5B" opacity=".504" cx="47.355" cy="32.987" rx="21.248" ry="21.245"/></g><rect fill="#FFF" x="173.42" y="7.204" width="73.461" height="65.974" rx="2.742"/><ellipse fill="#FDCB5B" opacity=".504" cx="236.19" cy="39.753" rx="6.176" ry="6.175"/><ellipse fill="#FDCB5B" opacity=".504" cx="227.269" cy="51.037" rx="4.975" ry="4.974"/><ellipse fill="#FDCB5B" opacity=".504" cx="190.288" cy="58.756" rx="7.72" ry="7.719"/><ellipse fill="#FDCB5B" opacity=".504" cx="181.636" cy="45.165" rx="4.975" ry="4.974"/><g transform="translate(94.353 7.204)"><rect fill="#FFF" width="73.461" height="65.974" rx="2.742"/><rect fill="#E2E6E7" opacity=".334" x="21.034" y="24.443" width="16.126" height="7.376" rx="3.684"/><circle fill="#FDCB5B" cx="11.255" cy="34.092" r="4.117"/><circle fill="#FDCB5B" cx="64.779" cy="33.963" r="1.544"/><path stroke="#D3D3D3" stroke-width=".5" d="M15.372 33.963h47.863"/><circle fill="#FDCB5B" cx="43.678" cy="33.963" r="2.23"/><path d="M33.557 28.13h-8.235a4.803 4.803 0 0 0-4.803 4.804v1.029M25.322 40.48a4.803 4.803 0 0 1-4.803-4.803v-1.714" stroke="#D3D3D3" stroke-width=".5"/><circle fill="#FDCB5B" cx="25.151" cy="28.131" r="2.23"/><circle fill="#FDCB5B" cx="33.385" cy="28.131" r="2.23"/><circle fill="#FDCB5B" cx="25.151" cy="40.318" r="1.115"/></g></g><rect fill="url(#e)" transform="rotate(-180 167.428 111.584)" width="334.855" height="223.168" rx="7.9"/><g transform="translate(20.743 20.737)"><path d="M0 86.717h334.526v128.378a7.893 7.893 0 0 1-7.894 7.893H7.893A7.893 7.893 0 0 1 0 215.095V86.717Z" fill-opacity=".5" fill="#FFF"/><rect fill="#BBC3C6" x="183.989" y="109.093" width="104.99" height="93.655" rx="2.742"/><path d="M7.893 0h318.74a7.893 7.893 0 0 1 7.893 7.893v78.56a2.742 2.742 0 0 1-2.742 2.742H2.742A2.742 2.742 0 0 1 0 86.453V7.893A7.893 7.893 0 0 1 7.893 0Z" fill="#E2E6E7"/><path d="M288.213 8.062a5.998 5.998 0 0 1 5.993 5.773l.005.225v188.35a5.998 5.998 0 0 1-5.773 5.993l-.225.005h-241.9a5.998 5.998 0 0 1-5.994-5.773l-.004-.225V57.014l-3.603 6.316-.893-.51 4.564-8 .446-.782.447.783 4.563 8-.893.51-3.603-6.317V202.41a4.97 4.97 0 0 0 4.754 4.965l.216.004h241.9a4.97 4.97 0 0 0 4.965-4.753l.004-.216V14.06a4.97 4.97 0 0 0-4.754-4.965l-.215-.004H92.449a4.97 4.97 0 0 0-4.965 4.753l-.005.216v13.318l3.603-6.316.893.51-4.563 8-.447.782-.446-.782-4.564-8 .893-.51 3.603 6.316V14.06a5.998 5.998 0 0 1 5.773-5.993l.225-.005h195.764Z" fill="#FFF" fill-rule="nonzero"/><path d="m76.855 53.352.447.783 4.563 8-.893.51-3.603-6.317v8.515a5.998 5.998 0 0 1-5.773 5.994l-.224.004H54.89a5.998 5.998 0 0 1-5.993-5.773l-.004-.225V54.89h1.028v9.954a4.97 4.97 0 0 0 4.754 4.965l.215.005h16.482a4.97 4.97 0 0 0 4.964-4.754l.005-.216v-8.515l-3.603 6.316-.893-.51 4.564-8 .446-.782ZM135.183 53.352l.446.783 4.564 8-.893.51-3.604-6.317v8.515a5.998 5.998 0 0 1-5.772 5.994l-.225.004h-26.088a5.998 5.998 0 0 1-5.993-5.773l-.005-.225v-8.515l-3.602 6.316-.893-.51 4.563-8 .447-.782.446.783 4.563 8-.893.51-3.603-6.317v8.515a4.97 4.97 0 0 0 4.755 4.965l.215.005H129.7a4.97 4.97 0 0 0 4.965-4.754l.005-.216-.001-8.515-3.602 6.316-.893-.51 4.563-8 .447-.782ZM253.553 53.352l.447.783 4.563 8-.893.51-3.603-6.317v8.515a5.998 5.998 0 0 1-5.772 5.994l-.225.004h-31.235a5.998 5.998 0 0 1-5.993-5.773l-.004-.225-.001-8.515-3.602 6.316-.893-.51 4.563-8 .447-.782.446.783 4.564 8-.894.51-3.603-6.317v8.515a4.97 4.97 0 0 0 4.755 4.965l.215.005h31.235a4.97 4.97 0 0 0 4.965-4.754l.004-.216v-8.515l-3.602 6.316-.894-.51 4.564-8 .446-.782ZM87.491 53.438l.447.782 4.563 8-.893.51-3.603-6.317v62.114h-1.028V56.413l-3.602 6.317-.894-.51 4.564-8 .446-.782Z" fill="#FFF" fill-rule="nonzero"/><path d="m202.86 53.438.446.782 4.564 8-.893.51-3.604-6.319v49.358l3.604-6.318.893.51-4.564 8-.446.782-.447-.782-4.563-8 .893-.51 3.602 6.314v-49.35l-3.602 6.315-.893-.51 4.563-8 .447-.782ZM262.045 53.438l.447.782 4.563 8-.893.51-3.603-6.317v62.114h-1.028V56.413l-3.603 6.317-.893-.51 4.564-8 .446-.782ZM149.29 164.233l.51.893-6.317 3.602h51.829v1.029l-51.829-.001 6.317 3.604-.51.893-8-4.564-.783-.446.783-.447 8-4.563ZM146.248 53.438l.446.782 4.564 8-.893.51-3.604-6.317v67.437a5.998 5.998 0 0 1-5.772 5.993l-.225.004h-.692v-1.028h.692a4.97 4.97 0 0 0 4.965-4.754l.005-.215-.001-67.437-3.602 6.317-.893-.51 4.563-8 .447-.782Z" fill="#FFF" fill-rule="nonzero"/><path d="m195.312 53.438.446.782 4.563 8-.893.51-3.603-6.317v86.734a5.998 5.998 0 0 1-5.772 5.993l-.225.004h-31.506l6.317 3.603-.51.893-8-4.563-.783-.447.783-.446 8-4.564.51.893-6.317 3.603h31.506a4.97 4.97 0 0 0 4.965-4.754l.004-.215V56.413l-3.602 6.317-.893-.51 4.563-8 .447-.782Z" fill="#FFF" fill-rule="nonzero"/><g transform="translate(47.777 118.527)"><rect fill="#1E3D49" width="91.609" height="25.472" rx="2.742"/><text font-family="Montserrat-Medium, Montserrat" font-size="4.798" font-weight="400" fill="#FFF">
                            <tspan x="30.809" y="14.609">ML/SCIENCE</tspan>
                        </text></g><g transform="translate(47.863 156.635)"><rect fill="#1E3D49" width="91.437" height="25.472" rx="2.742"/><text font-family="Montserrat-Medium, Montserrat" font-size="4.798" font-weight="400" fill="#FFF">
                            <tspan x="7.665" y="14.609">HISTORY, TRENDS, PREDICTIVE</tspan>
                        </text></g><g transform="translate(196.856 119.299)"><rect fill="#FFF" width="78.914" height="17.325" rx="2.742"/><text font-family="Montserrat-Medium, Montserrat" font-size="4.798" font-weight="400" fill="#1E3D49">
                            <tspan x="26.247" y="10.576">STATISTICS</tspan>
                        </text></g><g transform="translate(196.856 139.997)"><rect fill="#FFF" width="78.914" height="17.325" rx="2.742"/><text font-family="Montserrat-Medium, Montserrat" font-size="4.798" font-weight="400" fill="#1E3D49">
                            <tspan x="19.081" y="10.576">CONTEXTUALIZE</tspan>
                        </text></g><g transform="translate(196.856 160.695)"><rect fill="#FFF" width="78.914" height="17.325" rx="2.742"/><text font-family="Montserrat-Medium, Montserrat" font-size="4.798" font-weight="400" fill="#1E3D49">
                            <tspan x="25.206" y="10.576">EMPATHIZE</tspan>
                        </text></g><text font-family="Montserrat-Medium, Montserrat" font-size="5.484" font-weight="400" fill="#243D48">
                        <tspan x="206.793" y="189.087">DATA PROCESSING &amp; </tspan>
                        <tspan x="214.772" y="195.087">STORAGE JOBS</tspan>
                    </text><ellipse stroke="#D3D3D3" stroke-width=".5" fill="#FFF" cx="232.624" cy="70.164" rx="7.65" ry="7.649"/></g><g transform="translate(84.62 48.364)"><rect fill="#FDCB5B" width="44.779" height="25.74" rx="2.742"/><text font-family="Montserrat-Medium, Montserrat" font-size="5.484" font-weight="400" fill="#243D48">
                        <tspan x="11.066" y="15.175">SEARCH</tspan>
                    </text></g><g transform="translate(132.69 48.364)"><rect fill="#FDCB5B" width="68.486" height="25.74" rx="2.742"/><text font-family="Montserrat-Medium, Montserrat" font-size="5.484" font-weight="400" fill="#243D48">
                        <tspan x="11.186" y="15.175">CONTEXTUALIZE</tspan>
                    </text></g><g transform="translate(204.469 48.364)"><rect fill="#FDCB5B" width="46.755" height="25.74" rx="2.742"/><text font-family="Montserrat-Medium, Montserrat" font-size="5.484" font-weight="400" fill="#243D48">
                        <tspan x="10.882" y="15.175">TAGGING</tspan>
                    </text></g><g transform="translate(255.175 48.364)"><rect fill="#FDCB5B" width="37.535" height="25.74" rx="2.742"/><text font-family="Montserrat-Medium, Montserrat" font-size="5.484" font-weight="400" fill="#243D48">
                        <tspan x="10.804" y="15.175">STATS</tspan>
                    </text></g><g transform="translate(296.661 48.364)"><rect fill="#FDCB5B" width="35.56" height="25.74" rx="2.742"/><text font-family="Montserrat-Medium, Montserrat" font-size="5.484" font-weight="400" fill="#243D48">
                        <tspan x="10.949" y="15.175">PLAY</tspan>
                    </text></g><rect fill="url(#f)" transform="rotate(-180 230.645 132.32)" x="105.692" y="20.737" width="249.907" height="223.168" rx="7.9"/><g filter="url(#g)" transform="translate(42.474 41.46)"><rect fill="#E2E6E7" width="334.526" height="222.541" rx="7.893"/><path d="M7.893 0h318.74a7.893 7.893 0 0 1 7.893 7.893v67.644a2.739 2.739 0 0 1-2.74 2.74H2.74A2.739 2.739 0 0 1 0 75.536V7.893A7.893 7.893 0 0 1 7.893 0Z" fill="#1E3D49"/><path stroke="#D3D3D3" stroke-width=".5" stroke-dasharray="0,2.396591215313606" d="M71.554 32.021v40.057M208.655 32.021v40.057M139.982 32.021v40.057"/><g transform="translate(17.78 10.525)"><rect fill="#FDCB5B" y="2.862" width="68.965" height="6.679" rx="3.34"/><path stroke="#D3D3D3" stroke-width=".5" d="M0 14.312h298.307"/><g transform="translate(286.596)" stroke="#FFF" stroke-width=".975"><ellipse cx="4.967" cy="4.857" rx="4.48" ry="4.369"/><path d="m8.458 7.633 3.253 3.181"/></g></g><g transform="translate(17.78 32.231)" fill="#FDCB5B"><rect width="27.306" height="6.848" rx="1.973"/><rect y="10.435" width="40.169" height="6.848" rx="1.973"/><rect y="20.869" width="19.175" height="6.848" rx="1.973"/><rect y="31.304" width="32.767" height="6.848" rx="1.973"/></g><g transform="translate(86.266 32.231)" fill="#FDCB5B"><rect y="31.304" width="27.306" height="6.848" rx="1.973"/><rect y="10.435" width="40.169" height="6.848" rx="1.973"/><rect width="19.175" height="6.848" rx="1.973"/><rect y="20.869" width="32.767" height="6.848" rx="1.973"/></g><g transform="translate(151.459 32.231)" fill="#FDCB5B"><rect y="10.435" width="27.306" height="6.848" rx="1.973"/><rect width="40.169" height="6.848" rx="1.973"/><rect y="31.304" width="19.175" height="6.848" rx="1.973"/><rect y="20.869" width="32.767" height="6.848" rx="1.973"/></g><g transform="translate(216.652 32.231)" fill="#FDCB5B"><rect y="31.304" width="27.306" height="6.848" rx="1.973"/><rect y="10.435" width="40.169" height="6.848" rx="1.973"/><rect width="19.175" height="6.848" rx="1.973"/><rect y="20.869" width="32.767" height="6.848" rx="1.973"/></g><g transform="translate(17.78 86.827)" fill="#FDCB5B"><rect width="53.998" height="121.69" rx="2.601"/></g><g transform="translate(81.656 86.827)" fill="#FDCB5B"><rect width="28.516" height="6.578" rx="3.289"/><rect x="32.529" width="28.516" height="6.578" rx="3.289"/><rect x="63.843" width="28.516" height="6.578" rx="3.289"/><rect x="95.58" width="28.516" height="6.578" rx="3.289"/><rect x="126.894" width="28.516" height="6.578" rx="3.289"/></g><g transform="translate(81.656 98.01)" fill="#FDCB5B"><rect width="41.055" height="32.598" rx="1.3"/><rect x="48.509" width="41.055" height="32.598" rx="1.3"/><rect x="97.017" width="41.055" height="32.598" rx="1.3"/><rect x="145.526" width="41.055" height="32.598" rx="1.3"/><rect x="194.035" width="41.055" height="32.598" rx="1.3"/><rect y="77.909" width="41.055" height="32.598" rx="1.3"/><rect x="48.509" y="77.909" width="41.055" height="32.598" rx="1.3"/><rect x="97.017" y="77.909" width="41.055" height="32.598" rx="1.3"/><rect x="145.526" y="77.909" width="41.055" height="32.598" rx="1.3"/><rect x="194.035" y="77.909" width="41.055" height="32.598" rx="1.3"/></g><g transform="translate(81.656 138.792)"><rect fill="#FFF" width="235.09" height="31.574" rx="2.601"/><rect fill="#FDCB5B" x="9.46" y="3.544" width="25.415" height="25.13" rx="12.565"/><rect fill="#FDCB5B" x="41.253" y="3.544" width="25.415" height="25.13" rx="12.565"/><rect fill="#FDCB5B" x="73.045" y="3.544" width="25.415" height="25.13" rx="12.565"/><rect fill="#FDCB5B" x="104.837" y="3.544" width="25.415" height="25.13" rx="12.565"/><rect fill="#FDCB5B" x="136.63" y="3.544" width="25.415" height="25.13" rx="12.565"/><rect fill="#FDCB5B" x="168.422" y="3.544" width="25.415" height="25.13" rx="12.565"/><rect fill="#FDCB5B" x="200.214" y="3.544" width="25.415" height="25.13" rx="12.565"/></g></g></g></svg>