<svg width="461" height="374" xmlns="http://www.w3.org/2000/svg" xmlns:xlink="http://www.w3.org/1999/xlink"><defs><filter x="-19.7%" y="-27.7%" width="141.2%" height="163.5%" filterUnits="objectBoundingBox" id="a"><feOffset dx="3" dy="9" in="SourceAlpha" result="shadowOffsetOuter1"/><feGaussianBlur stdDeviation="22" in="shadowOffsetOuter1" result="shadowBlurOuter1"/><feComposite in="shadowBlurOuter1" in2="SourceAlpha" operator="out" result="shadowBlurOuter1"/><feColorMatrix values="0 0 0 0 0.871886322 0 0 0 0 0.871886322 0 0 0 0 0.871886322 0 0 0 0.5 0" in="shadowBlurOuter1"/></filter><filter x="-12.3%" y="-104.7%" width="124.7%" height="309.4%" filterUnits="objectBoundingBox" id="c"><feGaussianBlur stdDeviation="11.581" in="SourceGraphic"/></filter><filter x="-58.1%" y="-136.1%" width="250.3%" height="579%" filterUnits="objectBoundingBox" id="e"><feOffset dx="10" dy="19" in="SourceAlpha" result="shadowOffsetOuter1"/><feGaussianBlur stdDeviation="11.5" in="shadowOffsetOuter1" result="shadowBlurOuter1"/><feComposite in="shadowBlurOuter1" in2="SourceAlpha" operator="out" result="shadowBlurOuter1"/><feColorMatrix values="0 0 0 0 0.899230072 0 0 0 0 0.899230072 0 0 0 0 0.899230072 0 0 0 1 0" in="shadowBlurOuter1"/></filter><filter x="-58.1%" y="-136.1%" width="250.3%" height="579%" filterUnits="objectBoundingBox" id="g"><feOffset dx="10" dy="19" in="SourceAlpha" result="shadowOffsetOuter1"/><feGaussianBlur stdDeviation="11.5" in="shadowOffsetOuter1" result="shadowBlurOuter1"/><feComposite in="shadowBlurOuter1" in2="SourceAlpha" operator="out" result="shadowBlurOuter1"/><feColorMatrix values="0 0 0 0 0.899230072 0 0 0 0 0.899230072 0 0 0 0 0.899230072 0 0 0 1 0" in="shadowBlurOuter1"/></filter><filter x="-18.5%" y="-22.7%" width="148.1%" height="173.3%" filterUnits="objectBoundingBox" id="i"><feOffset dx="19" dy="31" in="SourceAlpha" result="shadowOffsetOuter1"/><feGaussianBlur stdDeviation="22" in="shadowOffsetOuter1" result="shadowBlurOuter1"/><feColorMatrix values="0 0 0 0 0.716911316 0 0 0 0 0.70602676 0 0 0 0 0.70602676 0 0 0 0.5 0" in="shadowBlurOuter1"/></filter><path d="M8.493 0h321.656a8.493 8.493 0 0 1 8.493 8.493V213.802a8.493 8.493 0 0 1-8.493 8.493H8.493A8.493 8.493 0 0 1 0 213.802V8.492A8.493 8.493 0 0 1 8.493 0Z" id="j"/><path d="M3.091 4.057.072.91C-.024.813-.024.716.072.62L.615.078C.723-.019.82-.025.904.06l3.688 3.853a.196.196 0 0 1 .054.145c0 .06-.018.109-.054.145L.904 8.055c-.097.097-.193.097-.29 0l-.542-.56c-.096-.097-.096-.194 0-.29l3.02-3.148Z" id="k"/><path d="M3.091 4.057.072.91C-.024.813-.024.716.072.62L.615.078C.723-.019.82-.025.904.06l3.688 3.853a.196.196 0 0 1 .054.145c0 .06-.018.109-.054.145L.904 8.055c-.097.097-.193.097-.29 0l-.542-.56c-.096-.097-.096-.194 0-.29l3.02-3.148Z" id="m"/><path d="M3.091 4.057.072.91C-.024.813-.024.716.072.62L.615.078C.723-.019.82-.025.904.06l3.688 3.853a.196.196 0 0 1 .054.145c0 .06-.018.109-.054.145L.904 8.055c-.097.097-.193.097-.29 0l-.542-.56c-.096-.097-.096-.194 0-.29l3.02-3.148Z" id="o"/><path d="M3.091 4.057.072.91C-.024.813-.024.716.072.62L.615.078C.723-.019.82-.025.904.06l3.688 3.853a.196.196 0 0 1 .054.145c0 .06-.018.109-.054.145L.904 8.055c-.097.097-.193.097-.29 0l-.542-.56c-.096-.097-.096-.194 0-.29l3.02-3.148Z" id="q"/><rect id="b" x="0" y=".667" width="341.975" height="222.202" rx="8.493"/><rect id="f" x="64.72" y="3.827" width="58.557" height="18.37" rx="9.185"/><rect id="h" x="129.441" y="3.827" width="58.557" height="18.37" rx="9.185"/><linearGradient x1="99.973%" y1="50%" x2="12.115%" y2="50%" id="d"><stop stop-color="#EEE" stop-opacity="0" offset=".027%"/><stop stop-color="#CFD4D7" offset="100%"/></linearGradient></defs><g fill="none" fill-rule="evenodd"><g transform="translate(65.17 34.563)"><use fill="#000" filter="url(#a)" xlink:href="#b"/><use fill-opacity=".739" fill="#FFF" xlink:href="#b"/><path d="M8.493 0h324.989a8.493 8.493 0 0 1 8.493 8.493v15.529H0V8.492A8.493 8.493 0 0 1 8.493 0Z" fill-opacity=".664" fill="#FFF"/><ellipse fill="#D44A6F" cx="13.999" cy="13.345" rx="2.666" ry="2.669"/><ellipse fill="#FDCB5B" cx="22.665" cy="13.345" rx="2.666" ry="2.669"/><ellipse fill="#80C0A1" cx="31.331" cy="13.345" rx="2.666" ry="2.669"/></g><g transform="translate(115.297 62.645)"><rect fill="#2E2E2E" opacity=".1" filter="url(#c)" x="29.254" y="22.204" width="281.695" height="33.19" rx="16.595"/><g stroke="#BBC3C6"><rect stroke-width=".5" fill="#FFF" x=".25" y=".25" width="310.449" height="28.067" rx="14.033"/><g transform="translate(286.596 8.508)" stroke-linecap="round" stroke-linejoin="round" stroke-width=".806"><ellipse cx="5.147" cy="5.12" rx="5.147" ry="5.12"/><path d="M11.581 11.52 9.007 8.96"/></g></g></g><g transform="translate(330.817 135.989)"><rect fill-opacity=".7" fill="#FFF" width="97.956" height="50.943" rx="3.747"/><g transform="translate(13.112 11.578)"><rect fill="#BBC3C6" width="66.333" height="3.087" rx="1.544"/><rect fill="#BBC3C6" x="13.884" y="8.49" width="47.821" height="3.087" rx="1.544"/><rect fill="#BBC3C6" x="13.884" y="16.209" width="57.848" height="3.087" rx="1.544"/><rect fill="#BBC3C6" x="13.884" y="23.928" width="35.48" height="3.087" rx="1.544"/><ellipse stroke="#1E3D49" stroke-width=".772" cx="7.713" cy="10.034" rx="1.157" ry="1.158"/><ellipse stroke="#1E3D49" stroke-width=".772" cx="7.713" cy="17.753" rx="1.157" ry="1.158"/><ellipse stroke="#1E3D49" stroke-width=".772" fill="#1E3D49" cx="7.713" cy="25.471" rx="1.157" ry="1.158"/></g></g><path d="M0 23.87h341.975V212.86c0 5.527-4.482 10.008-10.01 10.008H0v-199Z" fill="url(#d)" transform="translate(65.17 34.563)"/><path d="M347.816 200.714h41.992a4.67 4.67 0 0 1 4.671 4.67v32.697a4.67 4.67 0 0 1-4.67 4.671h-37.322a4.67 4.67 0 0 1-4.671-4.67v-37.368Z" fill="#BBC3C6"/><g transform="rotate(-180 228 63.467)"><rect stroke="#BBC3C6" stroke-width=".5" fill="#FFF" x=".25" y="4.077" width="58.057" height="17.87" rx="8.935"/><use fill="#000" filter="url(#e)" xlink:href="#f"/><rect stroke="#BBC3C6" stroke-width=".5" stroke-linejoin="square" fill-opacity=".7" fill="#FFF" x="64.97" y="4.077" width="58.057" height="17.87" rx="8.935"/><use fill="#000" filter="url(#g)" xlink:href="#h"/><rect stroke="#D7D7D7" stroke-width=".5" stroke-linejoin="square" fill-opacity=".5" fill="#FFF" x="129.691" y="4.077" width="58.057" height="17.87" rx="8.935"/><text font-family="Lora-Regular, Lora" font-size="12.353" fill="#BBC3C6">
                        <tspan x="6.059" y="12.667">+</tspan>
                    </text><text font-family="Lora-Regular, Lora" font-size="12.353" fill="#BBC3C6">
                        <tspan x="70.78" y="12.667">+</tspan>
                    </text><text font-family="Lora-Regular, Lora" font-size="12.353" fill="#243D48">
                        <tspan x="134.834" y="12">+</tspan>
                    </text></g><g transform="translate(25 76.268)"><use fill="#000" filter="url(#i)" xlink:href="#j"/><use fill="#1E3D49" xlink:href="#j"/><g transform="translate(17.454 156.838)"><rect fill="#FDCB5B" width="6.942" height="6.947" rx="3.471"/><rect fill="#FFF" x="10.027" width="43.193" height="6.947" rx="3.473"/><rect fill="#FFF" x="56.306" width="74.046" height="6.947" rx="3.473"/></g><g transform="translate(88.803 95.961)"><rect fill="#FDCB5B" x="152.222" width="6.942" height="6.947" rx="3.471"/><rect fill="#FFF" width="65.561" height="6.947" rx="3.473"/><rect fill="#BBC3C6" x="70.894" width="35.331" height="6.947" rx="3.473"/><rect fill="#FFF" x="111.558" width="35.331" height="6.947" rx="3.473"/></g><g transform="translate(18.225 49.919)"><rect fill="#FDCB5B" x="11.57" y="3.859" width="35.48" height="6.947" rx="3.473"/><g stroke="#FDCB5B" stroke-linecap="round" stroke-width="1.93"><path d="M53.22 0a3.228 3.228 0 0 1 3.228 3.228v1.547c0 1.2.972 2.172 2.172 2.172h0M53.22 13.893a3.228 3.228 0 0 0 3.228-3.227V9.118c0-1.2.972-2.171 2.172-2.171h0"/></g><g stroke="#FDCB5B" stroke-linecap="round" stroke-width="1.93"><path d="M5.4 13.893a3.228 3.228 0 0 1-3.228-3.227V9.118c0-1.2-.973-2.171-2.172-2.171h0M5.4 0a3.228 3.228 0 0 0-3.228 3.228v1.547c0 1.2-.973 2.172-2.172 2.172h0"/></g></g><g transform="translate(17.763 74.489)"><rect fill="#BBC3C6" x="10.816" y=".772" width="118.01" height="6.947" rx="3.473"/><rect fill="#FFF" x="134.997" y=".772" width="40.879" height="6.947" rx="3.473"/><g transform="matrix(-1 0 0 1 4.646 0)"><mask id="l" fill="#fff"><use xlink:href="#k"/></mask><use stroke="#BBC3C6" stroke-width=".772" fill="#BBC3C6" xlink:href="#k"/><g mask="url(#l)" fill="#BBC3C6"><path d="M-5.4-3.86h15.427v15.438H-5.4z"/></g></g><g transform="matrix(1 0 0 -1 182.047 8.127)"><mask id="n" fill="#fff"><use xlink:href="#m"/></mask><use stroke="#BBC3C6" stroke-width=".772" fill="#BBC3C6" xlink:href="#m"/><g mask="url(#n)" fill="#BBC3C6"><path d="M-5.4-3.86h15.427v15.438H-5.4z"/></g></g></g><g transform="translate(117.619 193.01)"><rect fill="#BBC3C6" x="18.974" y="4.231" width="33.166" height="6.947" rx="3.473"/><rect fill="#FDCB5B" x="58.311" y="4.231" width="104.127" height="6.947" rx="3.473"/><g transform="matrix(-1 0 0 1 4.646 3.459)"><mask id="p" fill="#fff"><use xlink:href="#o"/></mask><use stroke="#FDCB5B" stroke-width=".772" fill="#FDCB5B" xlink:href="#o"/><g mask="url(#p)" fill="#FDCB5B"><path d="M-5.4-3.86h15.427v15.438H-5.4z"/></g></g><path d="M14.824.453c.588.25.862.93.613 1.518l-5.124 12.08a1.158 1.158 0 0 1-2.13-.905l5.124-12.08a1.157 1.157 0 0 1 1.517-.613Z" fill="#FDCB5B"/><g><g transform="matrix(1 0 0 -1 168.608 11.586)"><mask id="r" fill="#fff"><use xlink:href="#q"/></mask><use stroke="#FDCB5B" stroke-width=".772" fill="#FDCB5B" xlink:href="#q"/><g mask="url(#r)" fill="#FDCB5B"><path d="M-5.4-3.86h15.427v15.438H-5.4z"/></g></g></g></g><rect fill="#FFF" x="17.475" y="197.422" width="65.561" height="6.947" rx="3.473"/><rect fill="#FDCB5B" x="17.475" y="177.13" width="74.046" height="6.947" rx="3.473"/><path d="M321.549 53.61v168.685h-6.942V53.609a3.47 3.47 0 1 1 6.942 0Z" fill="#BBC3C6"/><rect fill="#FFF" opacity=".2" x="17.571" y="16.144" width="303.977" height="22.02" rx="3.336"/><g transform="translate(88.803 116.254)"><rect fill="#FDCB5B" width="47.996" height="6.947" rx="3.473"/><rect fill="#FFF" x="164.654" width="36.664" height="6.947" rx="3.473"/><rect fill="#FFF" x="53.329" width="105.992" height="6.947" rx="3.473"/></g><path d="M320.52 154.765V184.1a2.314 2.314 0 0 1-4.627 0v-29.334a2.314 2.314 0 1 1 4.628 0Z" fill="#1E3D49" opacity=".9"/><g transform="translate(227.114 23.75)" fill="#BBC3C6"><rect width="35.48" height="6.947" rx="3.473"/><rect x="40.813" width="35.48" height="6.947" rx="3.473"/><rect x="81.626" y=".145" width="6.942" height="6.947" rx="3.471"/></g></g></g></svg>