<?xml version="1.0" encoding="UTF-8"?>
<svg width="766px" height="466px" viewBox="0 0 766 466" version="1.1" xmlns="http://www.w3.org/2000/svg" xmlns:xlink="http://www.w3.org/1999/xlink">
    <title>illustration/Now</title>
    <g id="illustration/Now" stroke="none" stroke-width="1" fill="none" fill-rule="evenodd">
        <rect id="Rectangle-Copy-18" fill="#CFD4D7" x="20" y="20" width="725" height="425"></rect>
        <g id="Group" transform="translate(331.377508, 449.028383)" opacity="0.626521519">
            <g id="gridProduct">
                <rect id="Rectangle-Copy-13" fill="#E2E6E7" x="5.96718694e-13" y="0" width="119.131113" height="139.439637" rx="5"></rect>
                <rect id="Rectangle" fill="#FFFFFF" x="11.4982318" y="9.58552839" width="96.1346489" height="75.4331647" rx="4.26584808"></rect>
                <g id="faketitle" transform="translate(27.110353, 93.960053)" fill="#BBC3C6">
                    <rect id="Rectangle-Copy-10" x="0" y="0" width="61.5904324" height="9.50724795" rx="4.26584808"></rect>
                </g>
                <g id="fakecart" transform="translate(9.890720, 112.012525)" fill="#BBC3C6">
                    <rect id="Rectangle-Copy-10" x="0" y="0" width="96.0296984" height="17.8415833" rx="8.92079165"></rect>
                </g>
            </g>
        </g>
        <g id="Group" transform="translate(198.235407, 449.028383)" opacity="0.626521519">
            <g id="gridProduct">
                <rect id="Rectangle-Copy-13" fill="#E2E6E7" x="5.96718694e-13" y="0" width="119.131113" height="139.439637" rx="5"></rect>
                <rect id="Rectangle" fill="#FFFFFF" x="11.4982318" y="9.58552839" width="96.1346489" height="75.4331647" rx="4.26584808"></rect>
                <g id="faketitle" transform="translate(27.110353, 93.960053)" fill="#BBC3C6">
                    <rect id="Rectangle-Copy-10" x="0" y="0" width="61.5904324" height="9.50724795" rx="4.26584808"></rect>
                </g>
                <g id="fakecart" transform="translate(9.890720, 112.012525)" fill="#BBC3C6">
                    <rect id="Rectangle-Copy-10" x="0" y="0" width="96.0296984" height="17.8415833" rx="8.92079165"></rect>
                </g>
            </g>
        </g>
        <g id="Group" transform="translate(464.519608, 449.028383)" opacity="0.626521519">
            <g id="gridProduct">
                <rect id="Rectangle-Copy-13" fill="#E2E6E7" x="5.96718694e-13" y="0" width="119.131113" height="139.439637" rx="5"></rect>
                <rect id="Rectangle" fill="#FFFFFF" x="11.4982318" y="9.58552839" width="96.1346489" height="75.4331647" rx="4.26584808"></rect>
                <g id="faketitle" transform="translate(27.110353, 93.960053)" fill="#BBC3C6">
                    <rect id="Rectangle-Copy-10" x="0" y="0" width="61.5904324" height="9.50724795" rx="4.26584808"></rect>
                </g>
                <g id="fakecart" transform="translate(9.890720, 112.012525)" fill="#BBC3C6">
                    <rect id="Rectangle-Copy-10" x="0" y="0" width="96.0296984" height="17.8415833" rx="8.92079165"></rect>
                </g>
            </g>
        </g>
        <rect id="Rectangle" stroke="#202020" stroke-width="21.442545" x="9.80725303" y="9.7787275" width="745.442545" height="445.442545" rx="7.212726"></rect>
        <text id="NOW" font-family="Montserrat-Regular, Montserrat" font-size="26" font-weight="normal" fill="#1E3D49">
            <tspan x="347.354" y="69">NOW</tspan>
        </text>
        <g id="Group-4" transform="translate(71.000000, 69.000000)">
            <g id="Group-2" transform="translate(10.819724, 12.057024) rotate(-90.000000) translate(-10.819724, -12.057024) translate(-1.237301, 1.237301)" fill="#243C47">
                <polyline id="Path-2" transform="translate(1.633166, 11.366524) rotate(-180.000000) translate(-1.633166, -11.366524) " points="0 8.10019242 0 14.6328557 3.26633166 11.3665241"></polyline>
                <path d="M6.47460141,0 L20.1140486,0 C22.3231876,-4.05812251e-16 24.1140486,1.790861 24.1140486,4 L24.1140486,17.6394472 C24.1140486,19.8485862 22.3231876,21.6394472 20.1140486,21.6394472 L6.47460141,21.6394472 C4.26546241,21.6394472 2.47460141,19.8485862 2.47460141,17.6394472 L2.47460141,11.1932664 L2.47460141,11.1932664 L2.47460141,4 C2.47460141,1.790861 4.26546241,-3.82769592e-17 6.47460141,0 Z" id="Rectangle"></path>
            </g>
            <text id="A" font-family="Montserrat-Regular, Montserrat" font-size="13" font-weight="normal" fill="#FFFFFF">
                <tspan x="6.38240121" y="15.2404414">A</tspan>
            </text>
        </g>
        <path d="M232.202874,445 L232.202874,172.602305 C232.202874,166.746814 238.023172,162 245.202874,162 L717.444444,162 C724.624146,162 730.444444,166.746814 730.444444,172.602305 L730.444444,445" id="Path" stroke="#8B6391"></path>
        <path d="M241.432663,445 L241.432663,182.227666 C241.432663,176.579082 246.817799,172 253.4607,172 L709.416407,172 C716.059309,172 721.444444,176.579082 721.444444,182.227666 L721.444444,445" id="Path" fill="#FFFFFF"></path>
        <rect id="Rectangle-Copy-4" fill="#FFFFFF" x="54" y="172" width="129" height="225" rx="10"></rect>
        <path d="M64,422 L173,422 C178.522847,422 183,426.477153 183,432 L183,445 L183,445 L54,445 L54,432 C54,426.477153 58.4771525,422 64,422 Z" id="Rectangle-Copy-9" fill="#FFFFFF"></path>
        <g id="Group-12" transform="translate(83.000000, 176.000000)">
            <g id="Group-30" transform="translate(5.000000, 0.000000)" fill="#243C47" font-family="Montserrat-SemiBold, Montserrat" font-size="8" font-weight="500">
                <g id="Group-9">
                    <text id="Total-queries">
                        <tspan x="3.028" y="8">Total queries</tspan>
                    </text>
                </g>
            </g>
            <g id="Group-5" transform="translate(0.000000, 39.000000)">
                <g id="Group-30-Copy-2" fill="#243C47" font-family="Montserrat-SemiBold, Montserrat" font-size="8" font-weight="500">
                    <g id="Group-9">
                        <text id="Result-queries">
                            <tspan x="4.924" y="8">Result queries</tspan>
                        </text>
                    </g>
                </g>
                <g id="Group-30-Copy-5" transform="translate(0.000000, 14.000000)" fill="#FDCB5B" font-family="Montserrat-SemiBold, Montserrat" font-size="8" font-weight="500">
                    <g id="Group-9">
                        <text id="4,445">
                            <tspan x="22.992" y="8">4,445</tspan>
                        </text>
                    </g>
                </g>
                <g id="Group-30-Copy-6" transform="translate(0.000000, 40.000000)" fill="#243C47" font-family="Montserrat-SemiBold, Montserrat" font-size="6" font-weight="500">
                    <g id="Group-9">
                        <text id="97.9%">
                            <tspan x="25.767" y="6">97.9%</tspan>
                        </text>
                    </g>
                </g>
                <rect id="Rectangle" fill="#FDCB5B" x="3" y="28" width="66" height="8" rx="4"></rect>
            </g>
            <g id="Group-6" transform="translate(0.000000, 104.000000)">
                <g id="Group-30-Copy-3" fill="#243C47" font-family="Montserrat-SemiBold, Montserrat" font-size="8" font-weight="500">
                    <g id="Group-9">
                        <text id="Clicks">
                            <tspan x="22.44" y="8">Clicks</tspan>
                        </text>
                    </g>
                </g>
                <g id="Group-30-Copy-7" transform="translate(0.000000, 14.000000)" fill="#80C0A1" font-family="Montserrat-SemiBold, Montserrat" font-size="8" font-weight="500">
                    <g id="Group-9">
                        <text id="1,814">
                            <tspan x="25.112" y="8">1,814</tspan>
                        </text>
                    </g>
                </g>
                <g id="Group-30-Copy-8" transform="translate(0.000000, 40.000000)" fill="#243C47" font-family="Montserrat-SemiBold, Montserrat" font-size="6" font-weight="500">
                    <g id="Group-9">
                        <text id="39.9%">
                            <tspan x="25.716" y="6">39.9%</tspan>
                        </text>
                    </g>
                </g>
                <rect id="Rectangle-Copy" fill="#E2E6E7" x="3" y="28" width="66" height="8" rx="4"></rect>
                <rect id="Rectangle-Copy" fill="#80C0A1" x="3" y="28" width="29" height="8" rx="4"></rect>
            </g>
            <g id="Group-7" transform="translate(0.000000, 169.000000)">
                <g id="Group-30-Copy-4" fill="#243C47" font-family="Montserrat-SemiBold, Montserrat" font-size="8" font-weight="500">
                    <g id="Group-9">
                        <text id="No-results">
                            <tspan x="13.648" y="8">No results</tspan>
                        </text>
                    </g>
                </g>
                <g id="Group-30-Copy-4" fill="#243C47" font-family="Montserrat-SemiBold, Montserrat" font-size="8" font-weight="500">
                    <g id="Group-9">
                        <text id="No-results">
                            <tspan x="13.648" y="8">No results</tspan>
                        </text>
                    </g>
                </g>
                <g id="Group-30-Copy-9" transform="translate(0.000000, 14.000000)" fill="#D44A6F" font-family="Montserrat-SemiBold, Montserrat" font-size="8" font-weight="500">
                    <g id="Group-9">
                        <text id="92">
                            <tspan x="29.684" y="8">92</tspan>
                        </text>
                    </g>
                </g>
                <g id="Group-30-Copy-10" transform="translate(0.000000, 40.000000)" fill="#243C47" font-family="Montserrat-SemiBold, Montserrat" font-size="6" font-weight="500">
                    <g id="Group-9">
                        <text id="2.02%">
                            <tspan x="25.668" y="6">2.02%</tspan>
                        </text>
                    </g>
                </g>
                <rect id="Rectangle-Copy-7" fill="#E2E6E7" x="3" y="28" width="66" height="8" rx="4"></rect>
                <rect id="Rectangle-Copy-7" fill="#D44A6F" x="3" y="28" width="8" height="8" rx="4"></rect>
            </g>
            <g id="Group-30-Copy" transform="translate(7.000000, 14.000000)" fill="#243C47" font-family="Montserrat-SemiBold, Montserrat" font-size="8" font-weight="500">
                <g id="Group-9">
                    <text id="4,537">
                        <tspan x="17.192" y="8">4,537</tspan>
                    </text>
                </g>
            </g>
            <rect id="Rectangle-Copy-2" fill="#243C47" x="22" y="30" width="26" height="1"></rect>
            <rect id="Rectangle-Copy-5" fill="#243C47" x="22" y="95" width="26" height="1"></rect>
            <rect id="Rectangle-Copy-6" fill="#243C47" x="22" y="160" width="26" height="1"></rect>
        </g>
        <g id="Group-9" transform="translate(331.000000, 355.000000)"></g>
        <rect id="Rectangle" stroke="#243C47" x="44.5" y="98.5" width="685" height="58" rx="16"></rect>
        <rect id="Rectangle-Copy-8" stroke="#53B9C9" x="44.5" y="162.5" width="148" height="244" rx="16"></rect>
        <path d="M177,412.5 C181.280207,412.5 185.155207,414.234897 187.960155,417.039845 C190.765103,419.844793 192.5,423.719793 192.5,428 L192.5,428 L192.5,444.5 L44.5,444.5 L44.5,428 C44.5,423.719793 46.2348966,419.844793 49.0398449,417.039845 C51.8447932,414.234897 55.7197932,412.5 60,412.5 L60,412.5 Z" id="Rectangle-Copy-10" stroke="#80C0A1"></path>
        <rect id="Rectangle" fill="#FFFFFF" x="54" y="107" width="668" height="41" rx="10"></rect>
        <g id="Group-33" transform="translate(73.382401, 111.240441)" fill="#BBC3C6" font-family="Montserrat-SemiBold, Montserrat" font-size="8" font-weight="500">
            <text id="Realtime">
                <tspan x="0.388" y="8">Realtime</tspan>
            </text>
        </g>
        <g id="Group-11" transform="translate(73.719388, 124.500000)">
            <rect id="Rectangle-Copy-3" fill="#243C47" x="0" y="0" width="87" height="16" rx="3"></rect>
            <g id="Group-34" transform="translate(11.163013, 2.740441)" fill="#FFFFFF">
                <text id="LAST-15-MINS" font-family="Montserrat-SemiBold, Montserrat" font-size="8" font-weight="500">
                    <tspan x="0.284" y="8">LAST 15 MINS</tspan>
                </text>
                <polygon id="Triangle-Copy" transform="translate(62.170335, 6.143951) rotate(-180.000000) translate(-62.170335, -6.143951) " points="62.170335 4.64395058 64.2230711 7.64395058 60.1175988 7.64395058"></polygon>
            </g>
        </g>
        <g id="Group-4-Copy-5" transform="translate(210.057024, 171.819724) rotate(-270.000000) translate(-210.057024, -171.819724) translate(199.237301, 159.762699)">
            <g id="Group-2" transform="translate(10.819724, 12.057024) rotate(-90.000000) translate(-10.819724, -12.057024) translate(-1.237301, 1.237301)" fill="#53B9C9">
                <path d="M20.1140486,0 C22.3231876,-4.05812251e-16 24.1140486,1.790861 24.1140486,4 L24.1140486,17.6394472 C24.1140486,19.8485862 22.3231876,21.6394472 20.1140486,21.6394472 L6.47460141,21.6394472 C4.26546241,21.6394472 2.47460141,19.8485862 2.47460141,17.6394472 L2.474,13.84 L0,11.3665241 L2.474,8.892 L2.47460141,4 C2.47460141,1.790861 4.26546241,-3.82769592e-17 6.47460141,0 L20.1140486,0 Z" id="Combined-Shape"></path>
            </g>
            <text id="B" transform="translate(10.057024, 12.240441) rotate(-90.000000) translate(-10.057024, -12.240441) " font-family="Montserrat-Regular, Montserrat" font-size="13" font-weight="normal" fill="#FFFFFF">
                <tspan x="6.38240121" y="17.2404414">B</tspan>
            </text>
        </g>
        <g id="Group-4-Copy-7" transform="translate(216.057024, 303.819724) rotate(-90.000000) translate(-216.057024, -303.819724) translate(205.237301, 291.762699)">
            <g id="Group-2" transform="translate(10.819724, 12.057024) rotate(-90.000000) translate(-10.819724, -12.057024) translate(-1.237301, 1.237301)" fill="#8B6391">
                <path d="M20.1140486,0 C22.3231876,-4.05812251e-16 24.1140486,1.790861 24.1140486,4 L24.1140486,17.6394472 C24.1140486,19.8485862 22.3231876,21.6394472 20.1140486,21.6394472 L6.47460141,21.6394472 C4.26546241,21.6394472 2.47460141,19.8485862 2.47460141,17.6394472 L2.474,13.84 L0,11.3665241 L2.474,8.892 L2.47460141,4 C2.47460141,1.790861 4.26546241,-3.82769592e-17 6.47460141,0 L20.1140486,0 Z" id="Combined-Shape"></path>
            </g>
            <text id="D" transform="translate(11.057024, 9.240441) rotate(-270.000000) translate(-11.057024, -9.240441) " font-family="Montserrat-Regular, Montserrat" font-size="13" font-weight="normal" fill="#FFFFFF">
                <tspan x="7.38240121" y="14.2404414">D</tspan>
            </text>
        </g>
        <g id="Group-4-Copy-6" transform="translate(210.057024, 422.819724) rotate(-270.000000) translate(-210.057024, -422.819724) translate(199.237301, 410.762699)">
            <g id="Group-2" transform="translate(10.819724, 12.057024) rotate(-90.000000) translate(-10.819724, -12.057024) translate(-1.237301, 1.237301)" fill="#80C0A1">
                <path d="M20.1140486,0 C22.3231876,-4.05812251e-16 24.1140486,1.790861 24.1140486,4 L24.1140486,17.6394472 C24.1140486,19.8485862 22.3231876,21.6394472 20.1140486,21.6394472 L6.47460141,21.6394472 C4.26546241,21.6394472 2.47460141,19.8485862 2.47460141,17.6394472 L2.474,13.84 L0,11.3665241 L2.474,8.892 L2.47460141,4 C2.47460141,1.790861 4.26546241,-3.82769592e-17 6.47460141,0 L20.1140486,0 Z" id="Combined-Shape"></path>
            </g>
            <text id="C" transform="translate(10.057024, 12.240441) rotate(-90.000000) translate(-10.057024, -12.240441) " font-family="Montserrat-Regular, Montserrat" font-size="13" font-weight="normal" fill="#FFFFFF">
                <tspan x="6.38240121" y="17.2404414">C</tspan>
            </text>
        </g>
        <g id="Group" transform="translate(288.000000, 190.000000)">
            <circle id="Oval" fill="#FDCB5B" cx="100" cy="117" r="40"></circle>
            <circle id="Oval-Copy-5" stroke="#FFFFFF" fill="#FDCB5B" opacity="0.694333758" cx="101.5" cy="54.5" r="18"></circle>
            <circle id="Oval-Copy-13" stroke="#FFFFFF" fill="#FDCB5B" opacity="0.694333758" cx="134.5" cy="32.5" r="13"></circle>
            <circle id="Oval-Copy-14" stroke="#FFFFFF" fill="#FDCB5B" opacity="0.694333758" cx="184.5" cy="69.5" r="13"></circle>
            <circle id="Oval-Copy-28" stroke="#FFFFFF" fill="#FDCB5B" opacity="0.694333758" cx="211.5" cy="97.5" r="13"></circle>
            <circle id="Oval-Copy-15" stroke="#FFFFFF" fill="#FDCB5B" opacity="0.694333758" cx="167" cy="40" r="10.5"></circle>
            <circle id="Oval-Copy-6" stroke="#FFFFFF" fill="#FDCB5B" opacity="0.694333758" cx="147.5" cy="65.5" r="16"></circle>
            <circle id="Oval-Copy-7" stroke="#FFFFFF" fill="#FDCB5B" opacity="0.694333758" cx="169" cy="107" r="20.5"></circle>
            <circle id="Oval-Copy-9" stroke="#FFFFFF" fill="#FDCB5B" opacity="0.694333758" cx="103.5" cy="174.5" r="23"></circle>
            <circle id="Oval-Copy-10" stroke="#FFFFFF" fill="#FDCB5B" opacity="0.694333758" cx="54.5" cy="146.5" r="19"></circle>
            <circle id="Oval-Copy-11" stroke="#FFFFFF" fill="#FDCB5B" opacity="0.694333758" cx="28.5" cy="98.5" r="19"></circle>
            <circle id="Oval-Copy-12" stroke="#FFFFFF" fill="#FDCB5B" opacity="0.694333758" cx="64" cy="69" r="13.5"></circle>
            <circle id="Oval-Copy-16" stroke="#FFFFFF" fill="#FDCB5B" opacity="0.694333758" cx="99" cy="14" r="13.5"></circle>
            <circle id="Oval-Copy-17" stroke="#FFFFFF" fill="#FDCB5B" opacity="0.694333758" cx="64" cy="32" r="13.5"></circle>
            <circle id="Oval-Copy-18" stroke="#FFFFFF" fill="#FDCB5B" opacity="0.694333758" cx="32" cy="56" r="13.5"></circle>
            <circle id="Oval-Copy-19" stroke="#FFFFFF" fill="#FDCB5B" opacity="0.694333758" cx="14" cy="141" r="13.5"></circle>
            <circle id="Oval-Copy-20" stroke="#FFFFFF" fill="#FDCB5B" opacity="0.694333758" cx="28" cy="180" r="13.5"></circle>
            <circle id="Oval-Copy-22" stroke="#FFFFFF" fill="#FDCB5B" opacity="0.694333758" cx="93" cy="223" r="13.5"></circle>
            <circle id="Oval-Copy-23" stroke="#FFFFFF" fill="#FDCB5B" opacity="0.694333758" cx="125" cy="212" r="13.5"></circle>
            <circle id="Oval-Copy-24" stroke="#FFFFFF" fill="#FDCB5B" opacity="0.694333758" cx="166" cy="207" r="13.5"></circle>
            <circle id="Oval-Copy-26" stroke="#FFFFFF" fill="#FDCB5B" opacity="0.694333758" cx="185" cy="173" r="13.5"></circle>
            <circle id="Oval-Copy-27" stroke="#FFFFFF" fill="#FDCB5B" opacity="0.694333758" cx="199" cy="135" r="13.5"></circle>
            <circle id="Oval-Copy-25" stroke="#FFFFFF" fill="#FDCB5B" opacity="0.694333758" cx="142" cy="185" r="13.5"></circle>
            <circle id="Oval-Copy-21" stroke="#FFFFFF" fill="#FDCB5B" opacity="0.694333758" cx="61" cy="193" r="17.5"></circle>
            <circle id="Oval-Copy-8" stroke="#FFFFFF" fill="#FDCB5B" opacity="0.694333758" cx="158" cy="155" r="17.5"></circle>
            <text id="tshirts" font-family="Montserrat-SemiBold, Montserrat" font-size="16" font-weight="500" fill="#FFFFFF">
                <tspan x="75.204" y="121">tshirts</tspan>
            </text>
        </g>
        <g id="Group-3" transform="translate(551.000000, 190.000000)">
            <circle id="Oval-Copy" fill="#80C0A1" cx="62.5" cy="58.5" r="27.5"></circle>
            <circle id="Oval-Copy-29" stroke="#FFFFFF" fill="#80C0A1" opacity="0.70010376" cx="62" cy="21" r="18.5"></circle>
            <circle id="Oval-Copy-33" stroke="#FFFFFF" fill="#80C0A1" opacity="0.70010376" cx="104.5" cy="36.5" r="14"></circle>
            <circle id="Oval-Copy-34" stroke="#FFFFFF" fill="#80C0A1" opacity="0.70010376" cx="119" cy="65" r="9.5"></circle>
            <circle id="Oval-Copy-35" stroke="#FFFFFF" fill="#80C0A1" opacity="0.70010376" cx="97" cy="10" r="9.5"></circle>
            <circle id="Oval-Copy-36" stroke="#FFFFFF" fill="#80C0A1" opacity="0.70010376" cx="28" cy="18" r="9.5"></circle>
            <circle id="Oval-Copy-37" stroke="#FFFFFF" fill="#80C0A1" opacity="0.70010376" cx="69" cy="116" r="9.5"></circle>
            <circle id="Oval-Copy-38" stroke="#FFFFFF" fill="#80C0A1" opacity="0.70010376" cx="10" cy="83" r="9.5"></circle>
            <circle id="Oval-Copy-30" stroke="#FFFFFF" fill="#80C0A1" opacity="0.70010376" cx="21" cy="55" r="18.5"></circle>
            <circle id="Oval-Copy-31" stroke="#FFFFFF" fill="#80C0A1" opacity="0.70010376" cx="39" cy="103" r="18.5"></circle>
            <circle id="Oval-Copy-32" stroke="#FFFFFF" fill="#80C0A1" opacity="0.70010376" cx="93" cy="89" r="18.5"></circle>
            <text id="tshirts-copy" font-family="Montserrat-SemiBold, Montserrat" font-size="12" font-weight="500" fill="#FFFFFF">
                <tspan x="42.778" y="63">tshirts</tspan>
            </text>
        </g>
        <g id="Group-8" transform="translate(541.000000, 338.000000)">
            <circle id="Oval-Copy-3" fill="#D44A6F" cx="57" cy="25" r="25"></circle>
            <circle id="Oval-Copy-2" stroke="#FFFFFF" fill="#D44A6F" opacity="0.69736517" cx="32" cy="57" r="24.5"></circle>
            <text id="dungarees" font-family="Montserrat-SemiBold, Montserrat" font-size="8" font-weight="500" fill="#FFFFFF">
                <tspan x="34.888" y="28">dungarees</tspan>
            </text>
            <circle id="Oval-Copy-4" fill="#D44A6F" opacity="0.701028588" cx="13" cy="14" r="13"></circle>
        </g>
        <g id="Group-10" transform="translate(674.000000, 399.000000)">
            <circle id="Oval" fill="#E2E6E7" cx="15" cy="15" r="15"></circle>
            <path d="M12.9992,20.9992001 L9,21 L9,16.9994667 M21,16.9994667 L21,21 L17,20.9992001 M9,12.9997334 L9,9.00079995 L13,9 M17,9 L21,9.00079995 L21,12.9997334" id="Shape" stroke="#243C47" stroke-width="1.53846154"></path>
        </g>
        <rect id="Rectangle" fill="#FDCB5B" x="62" y="428" width="47" height="11" rx="2"></rect>
        <rect id="Rectangle-Copy-11" fill="#80C0A1" x="111" y="428" width="26" height="11" rx="2"></rect>
        <rect id="Rectangle-Copy-12" fill="#D44A6F" x="139" y="428" width="36" height="11" rx="2"></rect>
        <g id="Group-30-Copy-4" transform="translate(63.000000, 430.000000)" fill="#243C47" font-family="Montserrat-SemiBold, Montserrat" font-size="6" font-weight="500">
            <g id="Group-9">
                <text id="Result-queries">
                    <tspan x="0" y="6">Result queries</tspan>
                </text>
            </g>
        </g>
        <g id="Group-30-Copy-11" transform="translate(114.000000, 430.000000)" fill="#243C47" font-family="Montserrat-SemiBold, Montserrat" font-size="6" font-weight="500">
            <g id="Group-9">
                <text id="Clicks">
                    <tspan x="0" y="6">Clicks</tspan>
                </text>
            </g>
        </g>
        <g id="Group-30-Copy-12" transform="translate(142.000000, 430.000000)" fill="#243C47" font-family="Montserrat-SemiBold, Montserrat" font-size="6" font-weight="500">
            <g id="Group-9">
                <text id="No-results">
                    <tspan x="0" y="6">No results</tspan>
                </text>
            </g>
        </g>
        <g id="Group-13" transform="translate(184.719388, 113.000000)">
            <polygon id="Triangle" fill="#BBC3C6" transform="translate(83.052736, 20.143951) rotate(-180.000000) translate(-83.052736, -20.143951) " points="83.0527362 18.6439506 85.1054723 21.6439506 81 21.6439506"></polygon>
            <line x1="0.5" y1="26.2595586" x2="84.5" y2="26.2595586" id="Line-5" stroke="#BBC3C6" stroke-linecap="square"></line>
            <text id="Language" font-family="Montserrat-SemiBold, Montserrat" font-size="8" font-weight="500" fill="#BBC3C6">
                <tspan x="0.382401208" y="8">Language</tspan>
            </text>
        </g>
        <g id="Group-14" transform="translate(293.824860, 113.000000)">
            <polygon id="Triangle-Copy-2" fill="#BBC3C6" transform="translate(83.052736, 20.143951) rotate(-180.000000) translate(-83.052736, -20.143951) " points="83.0527362 18.6439506 85.1054723 21.6439506 81 21.6439506"></polygon>
            <line x1="0.5" y1="26.2595586" x2="84.5" y2="26.2595586" id="Line-5-Copy" stroke="#BBC3C6" stroke-linecap="square"></line>
            <text id="Device" font-family="Montserrat-SemiBold, Montserrat" font-size="8" font-weight="500" fill="#BBC3C6">
                <tspan x="0.382401208" y="8">Device</tspan>
            </text>
        </g>
        <text id="CLEAR-(0)" font-family="Montserrat-SemiBold, Montserrat" font-size="8" font-weight="500" fill="#BBC3C6">
            <tspan x="402.950332" y="130">CLEAR (0)</tspan>
        </text>
    </g>
</svg>