<?xml version="1.0" encoding="UTF-8"?>
<svg width="766px" height="466px" viewBox="0 0 766 466" version="1.1" xmlns="http://www.w3.org/2000/svg" xmlns:xlink="http://www.w3.org/1999/xlink">
    <title>illustration/Explain tool</title>
    <defs>
        <path d="M8,0 L127,0 C131.418278,-8.11624501e-16 135,3.581722 135,8 L135,72 L135,72 L0,72 L0,8 C-5.41083001e-16,3.581722 3.581722,8.11624501e-16 8,0 Z" id="path-1"></path>
        <polygon id="path-3" points="0 0 48 0 48 42 0 42"></polygon>
        <path d="M8,0 L127,0 C131.418278,-8.11624501e-16 135,3.581722 135,8 L135,72 L135,72 L0,72 L0,8 C-5.41083001e-16,3.581722 3.581722,8.11624501e-16 8,0 Z" id="path-5"></path>
        <polygon id="path-7" points="0 0 56 0 56 44 0 44"></polygon>
        <path d="M8,0 L127,0 C131.418278,-8.11624501e-16 135,3.581722 135,8 L135,72 L135,72 L0,72 L0,8 C-5.41083001e-16,3.581722 3.581722,8.11624501e-16 8,0 Z" id="path-9"></path>
    </defs>
    <g id="illustration/Explain-tool" stroke="none" stroke-width="1" fill="none" fill-rule="evenodd">
        <rect fill="#FFFFFF" x="0" y="0" width="766" height="466"></rect>
        <rect id="Rectangle-Copy-18" fill-opacity="0.7" fill="#1E3D49" x="20" y="20" width="725" height="425" rx="9"></rect>
        <g id="Group" transform="translate(331.377508, 449.028383)" opacity="0.626521519">
            <g id="gridProduct">
                <rect id="Rectangle-Copy-13" fill="#E2E6E7" x="5.96718694e-13" y="0" width="119.131113" height="139.439637" rx="5"></rect>
                <rect id="Rectangle" fill="#FFFFFF" x="11.4982318" y="9.58552839" width="96.1346489" height="75.4331647" rx="4.26584808"></rect>
                <g id="faketitle" transform="translate(27.110353, 93.960053)" fill="#BBC3C6">
                    <rect id="Rectangle-Copy-10" x="0" y="0" width="61.5904324" height="9.50724795" rx="4.26584808"></rect>
                </g>
                <g id="fakecart" transform="translate(9.890720, 112.012525)" fill="#BBC3C6">
                    <rect id="Rectangle-Copy-10" x="0" y="0" width="96.0296984" height="17.8415833" rx="8.92079165"></rect>
                </g>
            </g>
        </g>
        <g id="Group" transform="translate(198.235407, 449.028383)" opacity="0.626521519">
            <g id="gridProduct">
                <rect id="Rectangle-Copy-13" fill="#E2E6E7" x="5.96718694e-13" y="0" width="119.131113" height="139.439637" rx="5"></rect>
                <rect id="Rectangle" fill="#FFFFFF" x="11.4982318" y="9.58552839" width="96.1346489" height="75.4331647" rx="4.26584808"></rect>
                <g id="faketitle" transform="translate(27.110353, 93.960053)" fill="#BBC3C6">
                    <rect id="Rectangle-Copy-10" x="0" y="0" width="61.5904324" height="9.50724795" rx="4.26584808"></rect>
                </g>
                <g id="fakecart" transform="translate(9.890720, 112.012525)" fill="#BBC3C6">
                    <rect id="Rectangle-Copy-10" x="0" y="0" width="96.0296984" height="17.8415833" rx="8.92079165"></rect>
                </g>
            </g>
        </g>
        <g id="Group" transform="translate(464.519608, 449.028383)" opacity="0.626521519">
            <g id="gridProduct">
                <rect id="Rectangle-Copy-13" fill="#E2E6E7" x="5.96718694e-13" y="0" width="119.131113" height="139.439637" rx="5"></rect>
                <rect id="Rectangle" fill="#FFFFFF" x="11.4982318" y="9.58552839" width="96.1346489" height="75.4331647" rx="4.26584808"></rect>
                <g id="faketitle" transform="translate(27.110353, 93.960053)" fill="#BBC3C6">
                    <rect id="Rectangle-Copy-10" x="0" y="0" width="61.5904324" height="9.50724795" rx="4.26584808"></rect>
                </g>
                <g id="fakecart" transform="translate(9.890720, 112.012525)" fill="#BBC3C6">
                    <rect id="Rectangle-Copy-10" x="0" y="0" width="96.0296984" height="17.8415833" rx="8.92079165"></rect>
                </g>
            </g>
        </g>
        <g id="Group" transform="translate(597.661709, 449.028383)" opacity="0.626521519">
            <g id="gridProduct">
                <rect id="Rectangle-Copy-13" fill="#E2E6E7" x="5.96718694e-13" y="0" width="119.131113" height="139.439637" rx="5"></rect>
                <rect id="Rectangle" fill="#FFFFFF" x="11.4982318" y="9.58552839" width="96.1346489" height="75.4331647" rx="4.26584808"></rect>
                <g id="faketitle" transform="translate(27.110353, 93.960053)" fill="#BBC3C6">
                    <rect id="Rectangle-Copy-10" x="0" y="0" width="61.5904324" height="9.50724795" rx="4.26584808"></rect>
                </g>
                <g id="fakecart" transform="translate(9.890720, 112.012525)" fill="#BBC3C6">
                    <rect id="Rectangle-Copy-10" x="0" y="0" width="96.0296984" height="17.8415833" rx="8.92079165"></rect>
                </g>
            </g>
        </g>
        <rect id="Rectangle" stroke="#202020" stroke-width="21.442545" x="9.80725303" y="9.7787275" width="745.442545" height="445.442545" rx="7.212726"></rect>
        <text id="EXPLAIN" font-family="Montserrat-Regular, Montserrat" font-size="26" font-weight="normal" fill="#FFFFFF">
            <tspan x="325.501" y="69">EXPLAIN</tspan>
        </text>
        <g id="Group-12" transform="translate(52.000000, 105.000000)">
            <rect id="Rectangle-Copy" fill="#FFFFFF" x="0" y="0" width="448" height="72" rx="8"></rect>
            <rect id="Rectangle-Copy-3" fill="#53B9C9" opacity="0.5" x="62.7193878" y="15.5" width="45.9642857" height="49" rx="3"></rect>
            <rect id="Rectangle-Copy-4" fill="#53B9C9" opacity="0.5" x="117.438776" y="21.5" width="45.9642857" height="43" rx="3"></rect>
            <rect id="Rectangle-Copy-5" fill="#53B9C9" opacity="0.5" x="172.158163" y="26.5" width="45.9642857" height="38" rx="3"></rect>
            <rect id="Rectangle-Copy-6" fill="#53B9C9" opacity="0.5" x="226.877551" y="31.5" width="45.9642857" height="33" rx="3"></rect>
            <rect id="Rectangle-Copy-15" fill="#53B9C9" opacity="0.5" x="281.596939" y="33.5" width="45.9642857" height="31" rx="3"></rect>
            <rect id="Rectangle-Copy-16" fill="#53B9C9" opacity="0.5" x="336.316327" y="38.5" width="45.9642857" height="26" rx="3"></rect>
            <rect id="Rectangle-Copy-17" fill="#53B9C9" opacity="0.5" x="391.035714" y="45.5" width="45.9642857" height="19" rx="3"></rect>
            <rect id="Rectangle-Copy" fill="#1E3D49" opacity="0.1" x="0" y="0" width="448" height="72" rx="8"></rect>
            <rect id="Rectangle-Copy-2" fill="#80C0A1" x="8" y="7.5" width="45.9642857" height="57" rx="3"></rect>
        </g>
        <g id="Group-14" transform="translate(523.924687, 105.500000)">
            <path d="M8,0 L191,0 C195.418278,-8.11624501e-16 199,3.581722 199,8 L199,339 L199,339 L0,339 L0,8 C-5.41083001e-16,3.581722 3.581722,8.11624501e-16 8,0 Z" id="Rectangle-Copy-7" fill="#FFFFFF"></path>
            <g id="Group-15-Copy" transform="translate(19.075313, 17.500000)" fill="#80C0A1">
                <path d="M8.98328478,12.1206344 C8.15613419,13.2889722 7.33723155,14.4104027 6.55986317,15.5587615 C6.18988413,16.105144 5.90857045,16.4028023 5.18392998,15.9325717 C3.68575053,14.9605494 2.11864186,14.0890013 0.562726834,13.2058711 C-0.00903217365,12.8812845 -0.142766635,12.5213728 0.150918955,11.9260562 C1.46351975,9.26624184 2.81618196,6.62959155 4.51849793,4.18317619 C5.26582024,3.10952154 6.40757084,2.54750329 7.56110421,2.04310566 C9.51262581,1.18979922 11.5787349,0.662237526 13.6274643,0.0877685857 C14.4864284,-0.153137744 14.8269505,0.102825231 15.0131183,0.975242024 C15.5937144,3.69586207 17.3337352,5.11002855 19.9580531,5.12942846 C22.5879678,5.14882837 24.4081115,3.70918141 24.965142,1.04357603 C25.1554338,0.133517624 25.4950722,-0.188752502 26.4285623,0.106010291 C27.7184813,0.513408375 29.0287255,0.857684368 30.3313109,1.22599308 C33.428118,2.10246359 35.7773081,3.82673906 37.1449934,6.78565948 C37.944749,8.51572597 38.9029829,10.1757211 39.8102564,11.856564 C40.1445925,12.4756238 40.0550435,12.8708607 39.3978594,13.2342471 C37.8342855,14.0985564 36.2813162,14.9874776 34.7784236,15.9487865 C34.1512856,16.3501041 33.8413987,16.1879556 33.4893884,15.6722654 C32.6810902,14.4877128 31.8536451,13.3156109 30.9493173,12.0163961 C30.1227559,13.6364332 30.0956555,15.2663151 30.0108195,16.8432092 C29.768389,21.3520955 30.1589879,25.8447669 30.7513668,30.3090623 C30.9384183,31.7180169 30.6249965,32.3724018 29.2107693,32.7470807 C22.9570631,34.4041803 16.7437129,34.4696188 10.5118049,32.6309708 C9.33352768,32.2832202 9.07695782,31.7663719 9.21599453,30.589058 C9.85638818,25.1669283 10.433744,19.7329269 9.71911889,14.267075 C9.68200316,13.9844734 9.65873218,13.6900001 9.55622207,13.4282461 C9.40157319,13.0332988 9.50761813,12.5462742 8.98328478,12.1206344" id="Fill-1-Copy"></path>
            </g>
        </g>
        <rect id="Rectangle" fill="#BBC3C6" x="601" y="144" width="72" height="11" rx="2"></rect>
        <text id="20,500" font-family="Montserrat-Regular, Montserrat" font-size="12" font-weight="normal" fill="#1E3D49">
            <tspan x="601.098" y="132">20,500</tspan>
        </text>
        <rect id="Rectangle" fill="#E2E6E7" x="541" y="306" width="166" height="123" rx="8"></rect>
        <path d="M541,404 L707,404 L707,421 C707,425.418278 703.418278,429 699,429 L549,429 C544.581722,429 541,425.418278 541,421 L541,404 L541,404 Z" id="Rectangle" fill="#243C47"></path>
        <text id="CATALOGUE-DEFINITION" font-family="Montserrat-SemiBold, Montserrat" font-size="7" font-weight="500" fill="#1E3D49">
            <tspan x="567" y="326">CATALOGUE DEFINITION</tspan>
        </text>
        <text id="BUSINESS-RULES" font-family="Montserrat-SemiBold, Montserrat" font-size="7" font-weight="500" fill="#1E3D49">
            <tspan x="567" y="347">BUSINESS RULES</tspan>
        </text>
        <text id="WISDOM-OF-THE-CROWD" font-family="Montserrat-SemiBold, Montserrat" font-size="7" font-weight="500" fill="#1E3D49">
            <tspan x="567" y="368">WISDOM OF THE CROWD</tspan>
        </text>
        <text id="CUSTOM-SCORE" font-family="Montserrat-SemiBold, Montserrat" font-size="7" font-weight="500" fill="#1E3D49">
            <tspan x="567" y="389">CUSTOM SCORE</tspan>
        </text>
        <text id="TOTAL" font-family="Montserrat-SemiBold, Montserrat" font-size="7" font-weight="500" fill="#FFFFFF">
            <tspan x="551" y="418">TOTAL</tspan>
        </text>
        <text id="20,500" font-family="Montserrat-SemiBold, Montserrat" font-size="7" font-weight="500" fill="#FFFFFF">
            <tspan x="673" y="418">20,500</tspan>
        </text>
        <text id="15,500" font-family="Montserrat-SemiBold, Montserrat" font-size="7" font-weight="500" fill="#243C47">
            <tspan x="673" y="326">15,500</tspan>
        </text>
        <text id="2" font-family="Montserrat-SemiBold, Montserrat" font-size="7" font-weight="500" fill="#243C47">
            <tspan x="690.926" y="346">2</tspan>
        </text>
        <text id="4,998" font-family="Montserrat-SemiBold, Montserrat" font-size="7" font-weight="500" fill="#243C47">
            <tspan x="675.057" y="367">4,998</tspan>
        </text>
        <text id="-" font-family="Montserrat-SemiBold, Montserrat" font-size="7" font-weight="500" fill="#243C47">
            <tspan x="692.305" y="389">-</tspan>
        </text>
        <g id="Group-3" opacity="0.5" transform="translate(575.000000, 181.000000)" stroke="#BBC3C6" stroke-width="0.5">
            <g id="Group-2">
                <circle id="Oval" cx="49" cy="49" r="48.75"></circle>
                <circle id="Oval" cx="49" cy="49" r="40.75"></circle>
                <circle id="Oval-Copy-2" cx="49" cy="49" r="32.75"></circle>
                <circle id="Oval" cx="49" cy="49" r="24.75"></circle>
                <circle id="Oval" cx="49" cy="49" r="17.75"></circle>
                <circle id="Oval" cx="49" cy="49" r="9.75"></circle>
            </g>
            <line x1="16" y1="13" x2="82" y2="84" id="Path-60"></line>
            <line x1="82" y1="13" x2="16" y2="84" id="Path-61"></line>
        </g>
        <text id="Catalogue-definition" font-family="Montserrat-SemiBold, Montserrat" font-size="7" font-weight="500" fill="#929C9F">
            <tspan x="657" y="188">Catalogue </tspan>
            <tspan x="657" y="197">definition</tspan>
        </text>
        <text id="Custom-score" font-family="Montserrat-SemiBold, Montserrat" font-size="7" font-weight="500" fill="#929C9F">
            <tspan x="556" y="188">Custom </tspan>
            <tspan x="556" y="197">score</tspan>
        </text>
        <text id="Business-rules" font-family="Montserrat-SemiBold, Montserrat" font-size="7" font-weight="500" fill="#929C9F">
            <tspan x="657" y="272">Business </tspan>
            <tspan x="657" y="281">rules</tspan>
        </text>
        <text id="Wisdom-of-the-crowd" font-family="Montserrat-SemiBold, Montserrat" font-size="7" font-weight="500" fill="#929C9F">
            <tspan x="556" y="272">Wisdom of </tspan>
            <tspan x="556" y="281">the crowd</tspan>
        </text>
        <polygon id="Path-62" stroke="#243C47" fill-opacity="0.2" fill="#243C47" points="611.626486 242.885086 617.459558 222.968499 651.474982 199.928797 634 240"></polygon>
        <circle id="Oval" fill="#FFFFFF" cx="556" cy="324" r="5"></circle>
        <circle id="Oval-Copy-3" fill="#FFFFFF" cx="556" cy="345" r="5"></circle>
        <circle id="Oval-Copy-4" fill="#FFFFFF" cx="556" cy="366" r="5"></circle>
        <circle id="Oval-Copy-5" fill="#FFFFFF" cx="556" cy="387" r="5"></circle>
        <g id="Group-4" transform="translate(71.000000, 69.000000)">
            <g id="Group-2" transform="translate(10.819724, 12.057024) rotate(-90.000000) translate(-10.819724, -12.057024) translate(-1.237301, 1.237301)" fill="#FFFFFF">
                <polyline id="Path-2" transform="translate(1.633166, 11.366524) rotate(-180.000000) translate(-1.633166, -11.366524) " points="0 8.10019242 0 14.6328557 3.26633166 11.3665241"></polyline>
                <path d="M6.47460141,0 L20.1140486,0 C22.3231876,-4.05812251e-16 24.1140486,1.790861 24.1140486,4 L24.1140486,17.6394472 C24.1140486,19.8485862 22.3231876,21.6394472 20.1140486,21.6394472 L6.47460141,21.6394472 C4.26546241,21.6394472 2.47460141,19.8485862 2.47460141,17.6394472 L2.47460141,11.1932664 L2.47460141,11.1932664 L2.47460141,4 C2.47460141,1.790861 4.26546241,-3.82769592e-17 6.47460141,0 Z" id="Rectangle"></path>
            </g>
            <text id="A" font-family="Montserrat-Regular, Montserrat" font-size="13" font-weight="normal" fill="#243C47">
                <tspan x="6.38240121" y="15.2404414">A</tspan>
            </text>
        </g>
        <g id="Group-4-Copy-2" transform="translate(550.000000, 69.000000)">
            <g id="Group-2" transform="translate(10.819724, 12.057024) rotate(-90.000000) translate(-10.819724, -12.057024) translate(-1.237301, 1.237301)" fill="#FDCB5B">
                <polyline id="Path-2" transform="translate(1.633166, 11.366524) rotate(-180.000000) translate(-1.633166, -11.366524) " points="0 8.10019242 0 14.6328557 3.26633166 11.3665241"></polyline>
                <path d="M6.47460141,0 L20.1140486,0 C22.3231876,-4.05812251e-16 24.1140486,1.790861 24.1140486,4 L24.1140486,17.6394472 C24.1140486,19.8485862 22.3231876,21.6394472 20.1140486,21.6394472 L6.47460141,21.6394472 C4.26546241,21.6394472 2.47460141,19.8485862 2.47460141,17.6394472 L2.47460141,11.1932664 L2.47460141,11.1932664 L2.47460141,4 C2.47460141,1.790861 4.26546241,-3.82769592e-17 6.47460141,0 Z" id="Rectangle"></path>
            </g>
            <text id="C" font-family="Montserrat-Regular, Montserrat" font-size="13" font-weight="normal" fill="#1E3D49">
                <tspan x="6.38240121" y="15.2404414">C</tspan>
            </text>
        </g>
        <g id="Group-4-Copy" transform="translate(71.000000, 193.000000)">
            <g id="Group-2" transform="translate(10.819724, 12.057024) rotate(-90.000000) translate(-10.819724, -12.057024) translate(-1.237301, 1.237301)" fill="#53B9C9">
                <polyline id="Path-2" transform="translate(1.633166, 11.366524) rotate(-180.000000) translate(-1.633166, -11.366524) " points="0 8.10019242 0 14.6328557 3.26633166 11.3665241"></polyline>
                <path d="M6.47460141,0 L20.1140486,0 C22.3231876,-4.05812251e-16 24.1140486,1.790861 24.1140486,4 L24.1140486,17.6394472 C24.1140486,19.8485862 22.3231876,21.6394472 20.1140486,21.6394472 L6.47460141,21.6394472 C4.26546241,21.6394472 2.47460141,19.8485862 2.47460141,17.6394472 L2.47460141,11.1932664 L2.47460141,11.1932664 L2.47460141,4 C2.47460141,1.790861 4.26546241,-3.82769592e-17 6.47460141,0 Z" id="Rectangle"></path>
            </g>
            <text id="B" font-family="Montserrat-Regular, Montserrat" font-size="13" font-weight="normal" fill="#FFFFFF">
                <tspan x="6.38240121" y="15.2404414">B</tspan>
            </text>
        </g>
        <rect id="Rectangle-Copy" stroke="#FFFFFF" x="44.9444444" y="98.5" width="462" height="85" rx="13"></rect>
        <path d="M516.444444,445 L516.444444,111 C516.444444,103.820298 522.264743,98 529.444444,98 L717.444444,98 C724.624146,98 730.444444,103.820298 730.444444,111 L730.444444,445 L730.444444,445" id="Path" stroke="#FDCB5B"></path>
        <g id="Group-5" transform="translate(52.000000, 230.000000)" opacity="0.402983166">
            <g id="Group-13" transform="translate(0.000000, 143.000000)">
                <g id="Group-15">
                    <mask id="mask-2" fill="white">
                        <use xlink:href="#path-1"></use>
                    </mask>
                    <use id="Mask" fill="#FFFFFF" xlink:href="#path-1"></use>
                    <g id="Group-14-Copy" mask="url(#mask-2)">
                        <g transform="translate(43.000000, 36.000000)">
                            <mask id="mask-4" fill="white">
                                <use xlink:href="#path-3"></use>
                            </mask>
                            <g id="Clip-13" stroke="none" fill="none"></g>
                            <path d="M9.25451334,16.7878923 C8.02568646,18.0517666 7.01876962,19.0364816 6.07634539,20.0796739 C5.64674141,20.5548016 5.41963035,20.4743954 5.01013696,20.0563527 C2.65095578,17.6479951 2.77023243,17.753463 0.358694346,15.3983615 C-0.185332003,14.8668451 -0.0622412736,14.5991725 0.405156762,14.1344872 C4.09441129,10.4688689 5.2701878,4.28002701 8.93655785,0.591435477 C9.30062902,0.224908452 9.65360469,-0.00969669077 10.2215557,0.000745674628 C12.3411434,0.0400785843 14.462118,0.0365977958 16.5820524,0 C17.1742749,-0.00969669077 17.4301649,0.170608152 17.621909,0.748419037 C18.7182834,4.05273153 21.0424444,4.19022267 24.2112505,4.1700341 C27.2874785,4.15054168 29.6626095,3.92115772 30.6532298,0.70838997 C30.8231297,0.157729234 31.049894,-0.00343127153 31.5970409,0.00387838425 C33.7585835,0.031724692 35.9211662,0.0310285343 38.0827088,0.00387838425 C38.590328,-0.00273511384 38.9287408,0.186619779 39.2695808,0.529825521 C42.9650766,4.25148455 43.8970987,10.747332 47.6244941,14.4362716 C48.1400882,14.9465552 48.1130429,15.2079624 47.6151322,15.696317 C45.2375741,18.0277491 45.647761,17.6100545 43.3242934,19.9954389 C42.8270762,20.5060705 42.5396334,20.5165129 42.0691147,19.9919581 C41.154776,18.9727832 40.1787185,18.0089529 38.9526655,16.7356805 C38.9526655,17.5665447 38.9523188,18.0319261 38.9526655,18.4973075 C38.9537057,25.9155639 42.4026733,33.3338203 42.4425477,40.7517286 C42.4477488,41.7030281 42.2483764,42.0048124 41.2355651,42 C32.1306653,41.9560814 16.151755,41.9553852 7.04720184,42 C6.03508399,42.0048124 5.81698802,41.7172993 5.82218904,40.7524247 C5.8620635,33.4173592 9.25381987,26.0819456 9.25451334,18.746532 C9.25451334,18.2118829 9.25451334,17.6772337 9.25451334,16.7878923" id="Fill-12" stroke="none" fill="#53B9C9" fill-rule="evenodd" mask="url(#mask-4)"></path>
                        </g>
                    </g>
                </g>
                <circle id="Oval-Copy" fill="#BBC3C6" cx="122" cy="14" r="5"></circle>
                <circle id="Oval-Copy-6" fill="#BBC3C6" cx="107" cy="14" r="5"></circle>
                <text id="14,400" font-family="Montserrat-Regular, Montserrat" font-size="12" font-weight="normal" fill="#1E3D49">
                    <tspan x="10" y="19">14,400</tspan>
                </text>
            </g>
            <g id="Group-13" transform="translate(157.000000, 143.000000)">
                <g id="Group-15">
                    <mask id="mask-6" fill="white">
                        <use xlink:href="#path-5"></use>
                    </mask>
                    <use id="Mask" fill="#FFFFFF" xlink:href="#path-5"></use>
                    <g id="Group-11-Copy-2" mask="url(#mask-6)">
                        <g transform="translate(39.000000, 36.000000)">
                            <mask id="mask-8" fill="white">
                                <use xlink:href="#path-7"></use>
                            </mask>
                            <g id="Clip-10" stroke="none" fill="none"></g>
                            <path d="M12.351571,17.5873157 C11.0594075,18.9113745 10.0005918,19.9429808 9.0095928,21.0358489 C8.55784603,21.5336016 8.31902913,21.4493666 7.8884295,21.0114171 C5.40765061,18.4883758 2.91265208,15.9784622 0.377182291,13.511213 C-0.194884447,12.9543863 -0.0654493344,12.6736027 0.426039489,12.1871542 C4.30544681,8.34698262 8.16188397,4.48383783 12.0172273,0.619599071 C12.4000635,0.235618378 12.7712324,-0.0101584379 13.368457,0.000781182944 C15.5972931,0.0419870883 17.8275877,0.038340548 20.0567885,0 C20.6795355,-0.0101584379 20.9486147,0.178732349 21.1502418,0.784058039 C22.3031258,4.24571874 24.7470795,6.07919921 28.0792133,6.05841393 C31.3139973,6.0379933 33.8115481,4.10787952 34.8532273,0.742122826 C35.0318842,0.16524015 35.2703365,-0.00359466541 35.8456847,0.00406306921 C38.1186382,0.0332353916 40.3926855,0.0325060835 42.665639,0.00406306921 C43.1994221,-0.00286535735 43.5552775,0.195506435 43.9136852,0.555055308 C47.7996554,4.45393619 51.6856256,8.35281708 55.6051396,12.2174205 C56.1473087,12.7520033 56.1188694,13.0258585 55.5952952,13.5374681 C53.0951922,15.9799208 50.6206116,18.4486285 48.1773872,20.9476026 C47.6545422,21.4825501 47.3522839,21.4934897 46.8575136,20.9439561 C45.8960477,19.8762491 44.869682,18.8665221 43.5804353,17.5326176 C43.5804353,18.4030468 43.5800707,18.8905892 43.5804353,19.3781317 C43.5815291,27.1496384 43.5647573,34.921145 43.606687,42.6922871 C43.612156,43.6888865 43.402143,44.0050416 42.337129,44 C32.7633059,43.95399 23.1887537,43.9532607 13.6149306,44 C12.5502812,44.0050416 12.3213087,43.7038373 12.3267778,42.6930164 C12.3687074,35.008662 12.3508417,27.323943 12.351571,19.639224 C12.351571,19.0791154 12.351571,18.5190068 12.351571,17.5873157" id="Fill-9" stroke="none" fill="#53B9C9" fill-rule="evenodd" mask="url(#mask-8)"></path>
                        </g>
                    </g>
                </g>
                <circle id="Oval-Copy" fill="#BBC3C6" cx="122" cy="14" r="5"></circle>
                <text id="12,500" font-family="Montserrat-Regular, Montserrat" font-size="12" font-weight="normal" fill="#1E3D49">
                    <tspan x="10" y="19">12,500</tspan>
                </text>
            </g>
            <g id="Group-13" transform="translate(313.000000, 143.000000)">
                <g id="Group-15">
                    <mask id="mask-10" fill="white">
                        <use xlink:href="#path-9"></use>
                    </mask>
                    <use id="Mask" fill="#FFFFFF" xlink:href="#path-9"></use>
                    <g mask="url(#mask-10)" fill="#53B9C9" id="Fill-1-Copy">
                        <g transform="translate(41.000000, 36.000000)">
                            <path d="M11.9028523,16.0420161 C10.8068778,17.5883455 9.7218318,19.0725918 8.6918187,20.5924785 C8.20159647,21.3156318 7.82885585,21.7095913 6.86870722,21.0872272 C4.88361945,19.8007271 2.80720047,18.6472075 0.745613054,17.4783588 C-0.0119676301,17.048759 -0.189165791,16.5724052 0.199967615,15.7844861 C1.93916366,12.2641436 3.7314411,8.77445941 5.98700976,5.53655673 C6.97721182,4.11554321 8.49003137,3.37169553 10.0184631,2.70411043 C12.6042292,1.57473427 15.3418237,0.876490843 18.0563902,0.116164305 C19.1945176,-0.202682308 19.6457094,0.136092218 19.8923818,1.2907615 C20.6616716,4.89158215 22.9671992,6.76327308 26.4444204,6.78894943 C29.9290573,6.81462578 32.3407477,4.90921069 33.0788132,1.38120357 C33.3309498,0.176714503 33.7809707,-0.249819488 35.0178451,0.140307738 C36.7269877,0.679511085 38.4630613,1.13517049 40.188987,1.62263791 C44.2922563,2.7826724 47.4049333,5.0648017 49.2171162,8.9810199 C50.2767924,11.2708138 51.5464524,13.4678662 52.7485897,15.6925112 C53.1915851,16.511855 53.0729326,17.0349627 52.2021636,17.5159152 C50.1304283,18.6598541 48.0727439,19.8363674 46.0814113,21.1086881 C45.2504534,21.6398436 44.8398533,21.4252353 44.3734396,20.7427043 C43.3024446,19.174914 42.2060797,17.6236026 41.0078455,15.9040536 C39.9126515,18.0482205 39.8767435,20.2054171 39.7643359,22.2924828 C39.4431154,28.2601263 39.960659,34.2063091 40.745561,40.1149354 C40.9934042,41.9797282 40.5781204,42.845826 38.7042694,43.3417244 C30.4181087,45.5349446 22.1854196,45.6215544 13.9281415,43.1880496 C12.3669242,42.7277914 12.0269691,42.0437275 12.2111927,40.4855179 C13.0597143,33.3091698 13.8247108,26.1171092 12.8778325,18.8828934 C12.8286542,18.5088618 12.7978201,18.1191178 12.6619942,17.7726787 C12.4570845,17.2499542 12.597594,16.6053629 11.9028523,16.0420161"></path>
                        </g>
                    </g>
                </g>
                <circle id="Oval" fill="#BBC3C6" cx="107" cy="14" r="5"></circle>
                <circle id="Oval-Copy" fill="#BBC3C6" cx="122" cy="14" r="5"></circle>
                <text id="10,220" font-family="Montserrat-Regular, Montserrat" font-size="12" font-weight="normal" fill="#1E3D49">
                    <tspan x="10" y="19">10,220</tspan>
                </text>
            </g>
            <g id="Group-Copy" transform="translate(157.000000, 0.000000)">
                <g id="Group-13">
                    <rect id="Rectangle" fill="#FFFFFF" x="0" y="0" width="135" height="123" rx="8"></rect>
                    <circle id="Oval-Copy" fill="#BBC3C6" cx="122" cy="14" r="5"></circle>
                    <text id="18,020" font-family="Montserrat-Regular, Montserrat" font-size="12" font-weight="normal" fill="#1E3D49">
                        <tspan x="10" y="19">18,020</tspan>
                    </text>
                    <path d="M81.8287545,57.8236807 C81.8287545,65.1973783 81.798096,72.3302368 81.8560064,79.4620733 C81.8669072,80.8038914 81.6614956,81.3472272 80.1060903,81.3309077 C71.6232382,81.2412852 63.1390234,81.260021 54.6558307,81.318272 C53.3729449,81.3271289 53.0081094,81.0035119 53.0200321,79.6991653 C53.0847555,72.4549145 53.0510312,65.2099824 53.0510312,57.7736053 C51.5055047,58.4331026 50.1064575,59.02447 48.7128607,59.6277601 C48.0697146,59.9064114 47.698066,59.9244658 47.3611637,59.0881714 C46.078278,55.9048025 44.7231745,52.7480042 43.2886998,49.6303806 C42.8151971,48.60196 43.1285946,48.2660797 44.0350627,47.8903433 C49.0725865,45.8011404 54.1036379,43.6949049 59.103009,41.5164518 C60.0179933,41.117892 60.2990291,41.381214 60.7868391,42.1166761 C64.0907979,47.0969708 70.6919026,47.1249041 73.9985866,42.1609606 C74.5466916,41.3382922 74.9053954,41.1488911 75.8363903,41.5542639 C80.7250503,43.6829822 85.6338086,45.7691193 90.5701595,47.7850827 C91.7436968,48.2643764 91.9978213,48.7245938 91.4398375,49.912779 C90.0591854,52.8539462 88.7640362,55.8387165 87.5533682,58.8538046 C87.1275564,59.9149276 86.6792617,59.9094772 85.7959577,59.4795776 C84.5931246,58.8940013 83.3259087,58.4399156 81.8287545,57.8236807" id="Fill-3" fill="#53B9C9"></path>
                </g>
                <rect id="Rectangle" fill="#BBC3C6" x="15" y="97" width="53" height="11" rx="3"></rect>
            </g>
            <g id="Group-Copy-2" transform="translate(313.000000, 0.000000)">
                <g id="Group-13">
                    <rect id="Rectangle" fill="#FFFFFF" x="0" y="0" width="135" height="123" rx="8"></rect>
                    <circle id="Oval" fill="#BBC3C6" cx="107" cy="14" r="5"></circle>
                    <circle id="Oval-Copy" fill="#BBC3C6" cx="122" cy="14" r="5"></circle>
                    <text id="16,350" font-family="Montserrat-Regular, Montserrat" font-size="12" font-weight="normal" fill="#1E3D49">
                        <tspan x="10" y="19">16,350</tspan>
                    </text>
                    <path d="M83.3457259,58.1352421 C83.3457259,66.2436654 83.3120126,74.0872519 83.3756933,81.9297147 C83.3876802,83.4052335 83.1618011,84.0027081 81.451413,83.9847625 C72.1233175,83.8862099 62.7937236,83.9068125 53.4652534,83.9708677 C52.0545391,83.9806071 51.6533508,83.6247445 51.6664616,82.1904309 C51.7376341,74.2243527 51.7005495,66.2575253 51.7005495,58.0801771 C50.0010245,58.8053876 48.4625743,59.4556797 46.9301175,60.1190825 C46.2228874,60.425499 45.8142073,60.4453524 45.4437356,59.5257284 C44.0330212,56.0251641 42.5428934,52.553818 40.9654855,49.12555 C40.4448023,47.994656 40.7894272,47.6253081 41.7862171,47.2121329 C47.3256869,44.9147588 52.8580394,42.5986551 58.3555549,40.2031378 C59.3617096,39.7648649 59.7894939,39.9869981 60.2071643,40.8631693 C65.1049576,51.1419799 66.5879682,60.6214107 74.735349,40.9118663 C75.1507718,39.9072099 75.7325135,39.7989528 76.7562741,40.2447175 C82.1320471,42.5855443 87.529921,44.8795471 92.9581369,47.0963839 C94.2486071,47.6234351 94.5280529,48.1295092 93.9144709,49.4360869 C92.3962486,52.6703162 90.9716744,55.9524932 89.6407482,59.268009 C89.1721333,60.4348638 88.6795445,60.4288703 87.7082269,59.9561349 C86.3855418,59.3122109 84.9920587,58.8128794 83.3457259,58.1352421" id="Fill-5-Copy" fill="#53B9C9"></path>
                </g>
                <rect id="Rectangle" fill="#BBC3C6" x="15" y="97" width="84" height="11" rx="3"></rect>
            </g>
        </g>
        <path d="M44.4444444,445 L44.4444444,235 C44.4444444,227.820298 50.2647427,222 57.4444444,222 L494.444444,222 C501.624146,222 507.444444,227.820298 507.444444,235 L507.444444,445 L507.444444,445" id="Path" stroke="#53B9C9"></path>
        <g id="Group" transform="translate(52.000000, 230.000000)">
            <g id="Group-13">
                <rect id="Rectangle" fill="#FFFFFF" x="0" y="0" width="135" height="123" rx="8"></rect>
                <circle id="Oval" fill="#BBC3C6" cx="107" cy="14" r="5"></circle>
                <circle id="Oval-Copy-7" fill="#BBC3C6" cx="92" cy="14" r="5"></circle>
                <circle id="Oval-Copy" fill="#BBC3C6" cx="122" cy="14" r="5"></circle>
                <text id="20,500" font-family="Montserrat-Regular, Montserrat" font-size="12" font-weight="normal" fill="#1E3D49">
                    <tspan x="10" y="19">20,500</tspan>
                </text>
                <g id="Group-15" transform="translate(41.000000, 36.000000)" fill="#80C0A1">
                    <path d="M11.9028523,16.0420161 C10.8068778,17.5883455 9.7218318,19.0725918 8.6918187,20.5924785 C8.20159647,21.3156318 7.82885585,21.7095913 6.86870722,21.0872272 C4.88361945,19.8007271 2.80720047,18.6472075 0.745613054,17.4783588 C-0.0119676301,17.048759 -0.189165791,16.5724052 0.199967615,15.7844861 C1.93916366,12.2641436 3.7314411,8.77445941 5.98700976,5.53655673 C6.97721182,4.11554321 8.49003137,3.37169553 10.0184631,2.70411043 C12.6042292,1.57473427 15.3418237,0.876490843 18.0563902,0.116164305 C19.1945176,-0.202682308 19.6457094,0.136092218 19.8923818,1.2907615 C20.6616716,4.89158215 22.9671992,6.76327308 26.4444204,6.78894943 C29.9290573,6.81462578 32.3407477,4.90921069 33.0788132,1.38120357 C33.3309498,0.176714503 33.7809707,-0.249819488 35.0178451,0.140307738 C36.7269877,0.679511085 38.4630613,1.13517049 40.188987,1.62263791 C44.2922563,2.7826724 47.4049333,5.0648017 49.2171162,8.9810199 C50.2767924,11.2708138 51.5464524,13.4678662 52.7485897,15.6925112 C53.1915851,16.511855 53.0729326,17.0349627 52.2021636,17.5159152 C50.1304283,18.6598541 48.0727439,19.8363674 46.0814113,21.1086881 C45.2504534,21.6398436 44.8398533,21.4252353 44.3734396,20.7427043 C43.3024446,19.174914 42.2060797,17.6236026 41.0078455,15.9040536 C39.9126515,18.0482205 39.8767435,20.2054171 39.7643359,22.2924828 C39.4431154,28.2601263 39.960659,34.2063091 40.745561,40.1149354 C40.9934042,41.9797282 40.5781204,42.845826 38.7042694,43.3417244 C30.4181087,45.5349446 22.1854196,45.6215544 13.9281415,43.1880496 C12.3669242,42.7277914 12.0269691,42.0437275 12.2111927,40.4855179 C13.0597143,33.3091698 13.8247108,26.1171092 12.8778325,18.8828934 C12.8286542,18.5088618 12.7978201,18.1191178 12.6619942,17.7726787 C12.4570845,17.2499542 12.597594,16.6053629 11.9028523,16.0420161" id="Fill-1-Copy"></path>
                </g>
            </g>
            <rect id="Rectangle" fill="#BBC3C6" x="15" y="97" width="87" height="11" rx="3"></rect>
        </g>
        <path id="Path-63" d="M120,223 L120.000707,225.527543 C122.250342,225.776586 124,227.683966 124,230 C124,232.485281 121.985281,234.5 119.5,234.5 C117.014719,234.5 115,232.485281 115,230 C115,227.683621 116.750179,225.776019 119.000297,225.527432 L119,223 L120,223 Z M119.5,226.5 C117.567003,226.5 116,228.067003 116,230 C116,231.932997 117.567003,233.5 119.5,233.5 C121.432997,233.5 123,231.932997 123,230 C123,228.067003 121.432997,226.5 119.5,226.5 Z M120,217 L120,220 L119,220 L119,217 L120,217 Z M119.263652,210.891617 L120.232583,211.138951 C120.10945,211.621321 120.034477,212.11693 120.009413,212.620711 L120,213 L120,214 L119,214 L119,213 C119,212.28197 119.089147,211.57524 119.263652,210.891617 Z M523.939908,200.5 C526.42519,200.5 528.439908,202.514719 528.439908,205 C528.439908,207.485281 526.42519,209.5 523.939908,209.5 C521.454627,209.5 519.439908,207.485281 519.439908,205 C519.439908,202.514719 521.454627,200.5 523.939908,200.5 Z M122.998952,205.788288 L123.529178,206.636144 C122.827857,207.074731 122.203196,207.626704 121.681501,208.267255 L121.464299,208.547127 L120.660098,207.95277 C121.296632,207.091501 122.090934,206.356137 122.998952,205.788288 Z M523.939908,201.5 C522.006912,201.5 520.439908,203.067003 520.439908,205 C520.439908,206.932997 522.006912,208.5 523.939908,208.5 C525.872905,208.5 527.439908,206.932997 527.439908,205 C527.439908,203.067003 525.872905,201.5 523.939908,201.5 Z M129.012667,204.5 L129.012689,205.5 L127.477957,205.500032 C127.125435,205.501044 126.776208,205.526351 126.431932,205.575408 L126.089369,205.632361 L125.902488,204.649978 C126.288716,204.576505 126.681019,204.529758 127.078009,204.510332 L127.476509,204.500034 L129.012667,204.5 Z M135.012678,204.5 L135.012678,205.5 L132.012678,205.5 L132.012678,204.5 L135.012678,204.5 Z M141.012678,204.5 L141.012678,205.5 L138.012678,205.5 L138.012678,204.5 L141.012678,204.5 Z M147.012678,204.5 L147.012678,205.5 L144.012678,205.5 L144.012678,204.5 L147.012678,204.5 Z M153.012678,204.5 L153.012678,205.5 L150.012678,205.5 L150.012678,204.5 L153.012678,204.5 Z M159.012678,204.5 L159.012678,205.5 L156.012678,205.5 L156.012678,204.5 L159.012678,204.5 Z M165.012678,204.5 L165.012678,205.5 L162.012678,205.5 L162.012678,204.5 L165.012678,204.5 Z M171.012678,204.5 L171.012678,205.5 L168.012678,205.5 L168.012678,204.5 L171.012678,204.5 Z M177.012678,204.5 L177.012678,205.5 L174.012678,205.5 L174.012678,204.5 L177.012678,204.5 Z M183.012678,204.5 L183.012678,205.5 L180.012678,205.5 L180.012678,204.5 L183.012678,204.5 Z M189.012678,204.5 L189.012678,205.5 L186.012678,205.5 L186.012678,204.5 L189.012678,204.5 Z M195.012678,204.5 L195.012678,205.5 L192.012678,205.5 L192.012678,204.5 L195.012678,204.5 Z M201.012678,204.5 L201.012678,205.5 L198.012678,205.5 L198.012678,204.5 L201.012678,204.5 Z M207.012678,204.5 L207.012678,205.5 L204.012678,205.5 L204.012678,204.5 L207.012678,204.5 Z M213.012678,204.5 L213.012678,205.5 L210.012678,205.5 L210.012678,204.5 L213.012678,204.5 Z M219.012678,204.5 L219.012678,205.5 L216.012678,205.5 L216.012678,204.5 L219.012678,204.5 Z M225.012678,204.5 L225.012678,205.5 L222.012678,205.5 L222.012678,204.5 L225.012678,204.5 Z M231.012678,204.5 L231.012678,205.5 L228.012678,205.5 L228.012678,204.5 L231.012678,204.5 Z M237.012678,204.5 L237.012678,205.5 L234.012678,205.5 L234.012678,204.5 L237.012678,204.5 Z M243.012678,204.5 L243.012678,205.5 L240.012678,205.5 L240.012678,204.5 L243.012678,204.5 Z M249.012678,204.5 L249.012678,205.5 L246.012678,205.5 L246.012678,204.5 L249.012678,204.5 Z M255.012678,204.5 L255.012678,205.5 L252.012678,205.5 L252.012678,204.5 L255.012678,204.5 Z M261.012678,204.5 L261.012678,205.5 L258.012678,205.5 L258.012678,204.5 L261.012678,204.5 Z M267.012678,204.5 L267.012678,205.5 L264.012678,205.5 L264.012678,204.5 L267.012678,204.5 Z M273.012678,204.5 L273.012678,205.5 L270.012678,205.5 L270.012678,204.5 L273.012678,204.5 Z M279.012678,204.5 L279.012678,205.5 L276.012678,205.5 L276.012678,204.5 L279.012678,204.5 Z M285.012678,204.5 L285.012678,205.5 L282.012678,205.5 L282.012678,204.5 L285.012678,204.5 Z M291.012678,204.5 L291.012678,205.5 L288.012678,205.5 L288.012678,204.5 L291.012678,204.5 Z M297.012678,204.5 L297.012678,205.5 L294.012678,205.5 L294.012678,204.5 L297.012678,204.5 Z M303.012678,204.5 L303.012678,205.5 L300.012678,205.5 L300.012678,204.5 L303.012678,204.5 Z M309.012678,204.5 L309.012678,205.5 L306.012678,205.5 L306.012678,204.5 L309.012678,204.5 Z M315.012678,204.5 L315.012678,205.5 L312.012678,205.5 L312.012678,204.5 L315.012678,204.5 Z M321.012678,204.5 L321.012678,205.5 L318.012678,205.5 L318.012678,204.5 L321.012678,204.5 Z M327.012678,204.5 L327.012678,205.5 L324.012678,205.5 L324.012678,204.5 L327.012678,204.5 Z M333.012678,204.5 L333.012678,205.5 L330.012678,205.5 L330.012678,204.5 L333.012678,204.5 Z M339.012678,204.5 L339.012678,205.5 L336.012678,205.5 L336.012678,204.5 L339.012678,204.5 Z M345.012678,204.5 L345.012678,205.5 L342.012678,205.5 L342.012678,204.5 L345.012678,204.5 Z M351.012678,204.5 L351.012678,205.5 L348.012678,205.5 L348.012678,204.5 L351.012678,204.5 Z M357.012678,204.5 L357.012678,205.5 L354.012678,205.5 L354.012678,204.5 L357.012678,204.5 Z M363.012678,204.5 L363.012678,205.5 L360.012678,205.5 L360.012678,204.5 L363.012678,204.5 Z M369.012678,204.5 L369.012678,205.5 L366.012678,205.5 L366.012678,204.5 L369.012678,204.5 Z M375.012678,204.5 L375.012678,205.5 L372.012678,205.5 L372.012678,204.5 L375.012678,204.5 Z M381.012678,204.5 L381.012678,205.5 L378.012678,205.5 L378.012678,204.5 L381.012678,204.5 Z M387.012678,204.5 L387.012678,205.5 L384.012678,205.5 L384.012678,204.5 L387.012678,204.5 Z M393.012678,204.5 L393.012678,205.5 L390.012678,205.5 L390.012678,204.5 L393.012678,204.5 Z M399.012678,204.5 L399.012678,205.5 L396.012678,205.5 L396.012678,204.5 L399.012678,204.5 Z M405.012678,204.5 L405.012678,205.5 L402.012678,205.5 L402.012678,204.5 L405.012678,204.5 Z M411.012678,204.5 L411.012678,205.5 L408.012678,205.5 L408.012678,204.5 L411.012678,204.5 Z M417.012678,204.5 L417.012678,205.5 L414.012678,205.5 L414.012678,204.5 L417.012678,204.5 Z M423.012678,204.5 L423.012678,205.5 L420.012678,205.5 L420.012678,204.5 L423.012678,204.5 Z M429.012678,204.5 L429.012678,205.5 L426.012678,205.5 L426.012678,204.5 L429.012678,204.5 Z M435.012678,204.5 L435.012678,205.5 L432.012678,205.5 L432.012678,204.5 L435.012678,204.5 Z M441.012678,204.5 L441.012678,205.5 L438.012678,205.5 L438.012678,204.5 L441.012678,204.5 Z M447.012678,204.5 L447.012678,205.5 L444.012678,205.5 L444.012678,204.5 L447.012678,204.5 Z M453.012678,204.5 L453.012678,205.5 L450.012678,205.5 L450.012678,204.5 L453.012678,204.5 Z M459.012678,204.5 L459.012678,205.5 L456.012678,205.5 L456.012678,204.5 L459.012678,204.5 Z M465.012678,204.5 L465.012678,205.5 L462.012678,205.5 L462.012678,204.5 L465.012678,204.5 Z M471.012678,204.5 L471.012678,205.5 L468.012678,205.5 L468.012678,204.5 L471.012678,204.5 Z M477.012678,204.5 L477.012678,205.5 L474.012678,205.5 L474.012678,204.5 L477.012678,204.5 Z M483.012678,204.5 L483.012678,205.5 L480.012678,205.5 L480.012678,204.5 L483.012678,204.5 Z M489.012678,204.5 L489.012678,205.5 L486.012678,205.5 L486.012678,204.5 L489.012678,204.5 Z M495.012678,204.5 L495.012678,205.5 L492.012678,205.5 L492.012678,204.5 L495.012678,204.5 Z M501.012678,204.5 L501.012678,205.5 L498.012678,205.5 L498.012678,204.5 L501.012678,204.5 Z M507.012678,204.5 L507.012678,205.5 L504.012678,205.5 L504.012678,204.5 L507.012678,204.5 Z M513.012678,204.5 L513.012678,205.5 L510.012678,205.5 L510.012678,204.5 L513.012678,204.5 Z M519.012678,204.5 L519.012678,205.5 L516.012678,205.5 L516.012678,204.5 L519.012678,204.5 Z" fill="#FFFFFF" fill-rule="nonzero"></path>
    </g>
</svg>