<svg width="758.5" height="150" xmlns="http://www.w3.org/2000/svg"><g fill="none" fill-rule="evenodd" stroke="#0387B3" stroke-width="1.058"><path d="M751.418 3.324c-.708 0-1.412.12-2.08.353L633.646 44.156a6.29 6.29 0 0 0-3.057 2.3 6.29 6.29 0 0 0-1.162 3.645v98.798a6.29 6.29 0 0 0 1.162 3.645 6.29 6.29 0 0 0 3.057 2.3l115.692 40.479a6.279 6.279 0 0 0 4.813-.27 6.298 6.298 0 0 0 3.565-5.674V9.62c0-1.74-.705-3.314-1.845-4.454a6.279 6.279 0 0 0-4.453-1.844Z"/><path d="M673.467 3.282c-.7 0-1.394.117-2.056.345L554.006 44.168a6.29 6.29 0 0 0-3.074 2.299 6.29 6.29 0 0 0-1.169 3.655v98.756a6.29 6.29 0 0 0 1.17 3.655 6.29 6.29 0 0 0 3.073 2.299l117.405 40.54a6.279 6.279 0 0 0 4.812-.29 6.298 6.298 0 0 0 3.542-5.663V9.581c0-1.74-.705-3.314-1.845-4.454a6.279 6.279 0 0 0-4.453-1.845Z"/><path d="M591.233 3.282c-.7 0-1.394.117-2.056.345L471.772 44.168a6.29 6.29 0 0 0-3.074 2.299 6.29 6.29 0 0 0-1.169 3.655v98.756a6.29 6.29 0 0 0 1.17 3.655 6.29 6.29 0 0 0 3.073 2.299l117.405 40.54a6.279 6.279 0 0 0 4.812-.29 6.298 6.298 0 0 0 3.542-5.663V9.581c0-1.74-.705-3.314-1.844-4.454a6.279 6.279 0 0 0-4.454-1.845Z"/><g><path d="M6.827 3.324c.709 0 1.412.12 2.08.353L124.6 44.156a6.29 6.29 0 0 1 3.056 2.3 6.29 6.29 0 0 1 1.162 3.645v98.798a6.29 6.29 0 0 1-1.162 3.645 6.29 6.29 0 0 1-3.056 2.3L8.907 195.323a6.279 6.279 0 0 1-4.812-.27 6.298 6.298 0 0 1-3.565-5.674V9.62c0-1.74.704-3.314 1.844-4.454a6.279 6.279 0 0 1 4.453-1.844Z"/><path d="M88.205 3.324c.708 0 1.411.12 2.08.353l115.692 40.479a6.29 6.29 0 0 1 3.057 2.3 6.29 6.29 0 0 1 1.161 3.645v98.798a6.29 6.29 0 0 1-1.161 3.645 6.29 6.29 0 0 1-3.057 2.3L90.285 195.323a6.279 6.279 0 0 1-4.813-.27 6.298 6.298 0 0 1-3.565-5.674V9.62c0-1.74.704-3.314 1.844-4.454a6.279 6.279 0 0 1 4.454-1.844Z"/><path d="M167.869 3.282c.7 0 1.394.117 2.056.345L287.33 44.168a6.29 6.29 0 0 1 3.074 2.299 6.29 6.29 0 0 1 1.169 3.655v98.756a6.29 6.29 0 0 1-1.17 3.655 6.29 6.29 0 0 1-3.073 2.299l-117.405 40.54a6.279 6.279 0 0 1-4.812-.29 6.298 6.298 0 0 1-3.542-5.663V9.581c0-1.74.705-3.314 1.844-4.454a6.279 6.279 0 0 1 4.454-1.845Z"/></g></g></svg>