<?xml version="1.0" encoding="UTF-8"?>
<svg width="766px" height="466px" viewBox="0 0 766 466" version="1.1" xmlns="http://www.w3.org/2000/svg" xmlns:xlink="http://www.w3.org/1999/xlink">
    <title>illustration/Getting started with the Playboard</title>
    <g id="illustration/Getting-started-with-the-Playboard" stroke="none" stroke-width="1" fill="none" fill-rule="evenodd">
        <rect fill="#FFFFFF" x="0" y="0" width="766" height="466"></rect>
        <rect id="Rectangle-Copy-18" fill="#CFD4D7" x="20" y="20" width="725" height="425"></rect>
        <g id="Group" transform="translate(331.377508, 449.028383)" opacity="0.626521519">
            <g id="gridProduct">
                <rect id="Rectangle-Copy-13" fill="#E2E6E7" x="5.96718694e-13" y="0" width="119.131113" height="139.439637" rx="5"></rect>
                <rect id="Rectangle" fill="#FFFFFF" x="11.4982318" y="9.58552839" width="96.1346489" height="75.4331647" rx="4.26584808"></rect>
                <g id="faketitle" transform="translate(27.110353, 93.960053)" fill="#BBC3C6">
                    <rect id="Rectangle-Copy-10" x="0" y="0" width="61.5904324" height="9.50724795" rx="4.26584808"></rect>
                </g>
                <g id="fakecart" transform="translate(9.890720, 112.012525)" fill="#BBC3C6">
                    <rect id="Rectangle-Copy-10" x="0" y="0" width="96.0296984" height="17.8415833" rx="8.92079165"></rect>
                </g>
            </g>
        </g>
        <g id="Group" transform="translate(198.235407, 449.028383)" opacity="0.626521519">
            <g id="gridProduct">
                <rect id="Rectangle-Copy-13" fill="#E2E6E7" x="5.96718694e-13" y="0" width="119.131113" height="139.439637" rx="5"></rect>
                <rect id="Rectangle" fill="#FFFFFF" x="11.4982318" y="9.58552839" width="96.1346489" height="75.4331647" rx="4.26584808"></rect>
                <g id="faketitle" transform="translate(27.110353, 93.960053)" fill="#BBC3C6">
                    <rect id="Rectangle-Copy-10" x="0" y="0" width="61.5904324" height="9.50724795" rx="4.26584808"></rect>
                </g>
                <g id="fakecart" transform="translate(9.890720, 112.012525)" fill="#BBC3C6">
                    <rect id="Rectangle-Copy-10" x="0" y="0" width="96.0296984" height="17.8415833" rx="8.92079165"></rect>
                </g>
            </g>
        </g>
        <g id="Group" transform="translate(464.519608, 449.028383)" opacity="0.626521519">
            <g id="gridProduct">
                <rect id="Rectangle-Copy-13" fill="#E2E6E7" x="5.96718694e-13" y="0" width="119.131113" height="139.439637" rx="5"></rect>
                <rect id="Rectangle" fill="#FFFFFF" x="11.4982318" y="9.58552839" width="96.1346489" height="75.4331647" rx="4.26584808"></rect>
                <g id="faketitle" transform="translate(27.110353, 93.960053)" fill="#BBC3C6">
                    <rect id="Rectangle-Copy-10" x="0" y="0" width="61.5904324" height="9.50724795" rx="4.26584808"></rect>
                </g>
                <g id="fakecart" transform="translate(9.890720, 112.012525)" fill="#BBC3C6">
                    <rect id="Rectangle-Copy-10" x="0" y="0" width="96.0296984" height="17.8415833" rx="8.92079165"></rect>
                </g>
            </g>
        </g>
        <path d="M294.001858,106 L630.647607,106 C639.484163,106 646.647607,113.163444 646.647607,122 L646.647607,173.730967 C646.647607,186.433516 656.945058,196.730967 669.647607,196.730967 L712.001858,196.730967 C720.838414,196.730967 728.001858,203.894411 728.001858,212.730967 L728.001858,444 L728.001858,444 L278.001858,444 L278.001858,122 C278.001858,113.163444 285.165302,106 294.001858,106 Z" id="Path-68" stroke="#CFD4D7" fill="#FFFFFF"></path>
        <rect id="Rectangle" stroke="#202020" stroke-width="21.442545" x="9.80725303" y="9.7787275" width="745.442545" height="445.442545" rx="7.212726"></rect>
        <text id="OVERALL" font-family="Montserrat-Regular, Montserrat" font-size="26" font-weight="normal" fill="#1E3D49">
            <tspan x="320.756" y="69">OVERALL</tspan>
        </text>
        <g id="Group-12" transform="translate(304.719388, 120.240441)">
            <polygon id="Triangle" fill="#BBC3C6" transform="translate(189.333348, 24.143951) rotate(-180.000000) translate(-189.333348, -24.143951) " points="189.333348 22.6439506 191.386085 25.6439506 187.280612 25.6439506"></polygon>
            <line x1="106.780612" y1="30.2595586" x2="190.780612" y2="30.2595586" id="Line-5" stroke="#BBC3C6" stroke-linecap="square"></line>
            <text id="Compare-to-Copy" font-family="Montserrat-SemiBold, Montserrat" font-size="8" font-weight="500" fill="#BBC3C6">
                <tspan x="105.463013" y="8">Compare to</tspan>
            </text>
            <text id="CLEAR-(0)" font-family="Montserrat-SemiBold, Montserrat" font-size="8" font-weight="500" fill="#BBC3C6">
                <tspan x="211.183013" y="24">CLEAR (0)</tspan>
            </text>
            <text id="Date" font-family="Montserrat-SemiBold, Montserrat" font-size="8" font-weight="500" fill="#BBC3C6">
                <tspan x="0.819013453" y="8">Date</tspan>
            </text>
            <g id="Group-29" transform="translate(0.000000, 15.259559)">
                <text id="DEC-29,-21---JAN-04," font-family="Montserrat-SemiBold, Montserrat" font-size="6" font-weight="500" fill="#243C47">
                    <tspan x="9.28061224" y="25.5">DEC 29, 21 - JAN 04, 21  </tspan>
                </text>
                <g id="Group-11">
                    <rect id="Rectangle-Copy-3" fill="#243C47" x="0" y="0" width="87" height="16" rx="3"></rect>
                    <g id="Group-34" transform="translate(25.663013, 2.740441)" fill="#FFFFFF">
                        <text id="WEEK" font-family="Montserrat-SemiBold, Montserrat" font-size="8" font-weight="500">
                            <tspan x="0.208" y="8">WEEK</tspan>
                        </text>
                        <polygon id="Triangle-Copy" transform="translate(32.670335, 6.143951) rotate(-180.000000) translate(-32.670335, -6.143951) " points="32.670335 4.64395058 34.7230711 7.64395058 30.6175988 7.64395058"></polygon>
                    </g>
                </g>
            </g>
        </g>
        <g id="Group-4-Copy-2" transform="translate(78.000000, 69.000000)">
            <g id="Group-2" transform="translate(10.819724, 12.057024) rotate(-90.000000) translate(-10.819724, -12.057024) translate(-1.237301, 1.237301)" fill="#53B9C9">
                <polyline id="Path-2" transform="translate(1.633166, 11.366524) rotate(-180.000000) translate(-1.633166, -11.366524) " points="0 8.10019242 0 14.6328557 3.26633166 11.3665241"></polyline>
                <path d="M6.47460141,0 L20.1140486,0 C22.3231876,-4.05812251e-16 24.1140486,1.790861 24.1140486,4 L24.1140486,17.6394472 C24.1140486,19.8485862 22.3231876,21.6394472 20.1140486,21.6394472 L6.47460141,21.6394472 C4.26546241,21.6394472 2.47460141,19.8485862 2.47460141,17.6394472 L2.47460141,11.1932664 L2.47460141,11.1932664 L2.47460141,4 C2.47460141,1.790861 4.26546241,4.05812251e-16 6.47460141,0 Z" id="Rectangle"></path>
            </g>
            <text id="B" font-family="Montserrat-Regular, Montserrat" font-size="13" font-weight="normal" fill="#FFFFFF">
                <tspan x="6.38240121" y="15.2404414">B</tspan>
            </text>
        </g>
        <path d="M52.4444444,445 L52.4444444,119.662824 C52.4444444,112.66934 57.8295802,107 64.4724818,107 L238.416407,107 C245.059309,107 250.444444,112.66934 250.444444,119.662824 L250.444444,445" id="Path" fill="#FFFFFF"></path>
        <g id="Group-30" transform="translate(305.500000, 193.000000)" fill="#1E3D49" font-family="Montserrat-Regular, Montserrat" font-size="18" font-weight="normal">
            <text id="SUCCESS-METRICS">
                <tspan x="0" y="17">SUCCESS METRICS</tspan>
            </text>
        </g>
        <text id="ANALYTICS" font-family="Montserrat-SemiBold, Montserrat" font-size="8" font-weight="500" fill="#243C47">
            <tspan x="89.468" y="171">ANALYTICS</tspan>
        </text>
        <text id="Overall" font-family="Montserrat-SemiBold, Montserrat" font-size="6" font-weight="500" fill="#243C47">
            <tspan x="89.128" y="184">Overall</tspan>
        </text>
        <text id="Queries" font-family="Montserrat-SemiBold, Montserrat" font-size="6" font-weight="500" fill="#243C47">
            <tspan x="89.042" y="197">Queries</tspan>
        </text>
        <text id="INSIGHTS" font-family="Montserrat-SemiBold, Montserrat" font-size="8" font-weight="500" fill="#243C47">
            <tspan x="89.468" y="214">INSIGHTS</tspan>
        </text>
        <text id="PLAY" font-family="Montserrat-SemiBold, Montserrat" font-size="8" font-weight="500" fill="#243C47">
            <tspan x="89.248" y="229">PLAY</tspan>
        </text>
        <text id="Equalize" font-family="Montserrat-SemiBold, Montserrat" font-size="6" font-weight="500" fill="#243C47">
            <tspan x="89" y="242">Equalize</tspan>
        </text>
        <text id="Synonymize" font-family="Montserrat-SemiBold, Montserrat" font-size="6" font-weight="500" fill="#243C47">
            <tspan x="89" y="255">Synonymize</tspan>
        </text>
        <text id="Blacklist" font-family="Montserrat-SemiBold, Montserrat" font-size="6" font-weight="500" fill="#243C47">
            <tspan x="89" y="268">Blacklist</tspan>
        </text>
        <text id="Promotion" font-family="Montserrat-SemiBold, Montserrat" font-size="6" font-weight="500" fill="#243C47">
            <tspan x="89" y="281">Promotion</tspan>
        </text>
        <text id="Redirection" font-family="Montserrat-SemiBold, Montserrat" font-size="6" font-weight="500" fill="#243C47">
            <tspan x="89" y="294">Redirection</tspan>
        </text>
        <text id="Query-ranking" font-family="Montserrat-SemiBold, Montserrat" font-size="6" font-weight="500" fill="#243C47">
            <tspan x="89" y="307">Query ranking</tspan>
        </text>
        <text id="Related-tags" font-family="Montserrat-SemiBold, Montserrat" font-size="6" font-weight="500" fill="#243C47">
            <tspan x="89" y="320">Related tags</tspan>
        </text>
        <text id="Next-queries" font-family="Montserrat-SemiBold, Montserrat" font-size="6" font-weight="500" fill="#243C47">
            <tspan x="89" y="333">Next queries</tspan>
        </text>
        <text id="EXPLAIN" font-family="Montserrat-SemiBold, Montserrat" font-size="8" font-weight="500" fill="#243C47">
            <tspan x="89.38" y="350">EXPLAIN</tspan>
        </text>
        <text id="ACTIVITY-STREAM" font-family="Montserrat-SemiBold, Montserrat" font-size="8" font-weight="500" fill="#243C47">
            <tspan x="89.452" y="365">ACTIVITY STREAM</tspan>
        </text>
        <rect id="Rectangle-Copy" stroke="#BBC3C6" fill="#FFFFFF" x="66.5" y="119.5" width="168" height="34" rx="5"></rect>
        <rect id="Rectangle" fill="#243C47" x="66" y="119" width="85" height="35" rx="5"></rect>
        <rect id="Rectangle-Copy-17" fill="#243C47" x="66" y="384" width="172" height="21" rx="5"></rect>
        <rect id="Rectangle-Copy-19" fill="#243C47" x="66" y="414" width="172" height="21" rx="5"></rect>
        <text id="SEARCH" font-family="Montserrat-SemiBold, Montserrat" font-size="8" font-weight="500" fill="#FFFFFF">
            <tspan x="91.236" y="139">SEARCH</tspan>
        </text>
        <text id="ACCOUNT" font-family="Montserrat-SemiBold, Montserrat" font-size="8" font-weight="500" fill="#FFFFFF">
            <tspan x="89.176" y="397">ACCOUNT</tspan>
        </text>
        <text id="LOG-OUT" font-family="Montserrat-SemiBold, Montserrat" font-size="8" font-weight="500" fill="#FFFFFF">
            <tspan x="89.216" y="427">LOG OUT</tspan>
        </text>
        <text id="NAVIGATION" font-family="Montserrat-SemiBold, Montserrat" font-size="8" font-weight="500" fill="#BBC3C6">
            <tspan x="164.044" y="139">NAVIGATION</tspan>
        </text>
        <polygon id="Triangle" fill="#243C47" transform="translate(108.500000, 156.500000) rotate(-180.000000) translate(-108.500000, -156.500000) " points="108.5 154 114 159 103 159"></polygon>
        <g id="Group-6" transform="translate(305.000000, 234.240441)">
            <g id="Group" transform="translate(0.000000, 11.759559)">
                <rect id="Rectangle" fill="#D44A6F" x="0" y="0" width="12" height="10"></rect>
                <rect id="Rectangle-Copy-2" fill="#8B6391" x="12" y="0" width="176" height="10"></rect>
                <rect id="Rectangle-Copy-4" fill="#4B7E65" x="147" y="0" width="137" height="10"></rect>
                <rect id="Rectangle-Copy-4" fill="#80C0A1" x="147" y="5" width="137" height="5"></rect>
                <rect id="Rectangle-Copy-5" fill="#53B9C9" x="268" y="0" width="91" height="10"></rect>
                <rect id="Rectangle-Copy-6" fill="#0086B2" x="344" y="0" width="52" height="10"></rect>
            </g>
            <text id="NO-CLICKS" font-family="Montserrat-SemiBold, Montserrat" font-size="7" font-weight="500" fill="#243C47">
                <tspan x="12.6319012" y="7">NO CLICKS</tspan>
            </text>
            <text id="CTR" font-family="Montserrat-SemiBold, Montserrat" font-size="7" font-weight="500" fill="#243C47">
                <tspan x="147.200401" y="7">CTR</tspan>
            </text>
            <text id="FINDABILITY" font-family="Montserrat-SemiBold, Montserrat" font-size="7" font-weight="500" fill="#243C47">
                <tspan x="147.345401" y="33">FINDABILITY</tspan>
            </text>
            <text id="ADD2CART" font-family="Montserrat-SemiBold, Montserrat" font-size="7" font-weight="500" fill="#243C47">
                <tspan x="268.232901" y="7">ADD2CART</tspan>
            </text>
            <text id="CHECKOUT" font-family="Montserrat-SemiBold, Montserrat" font-size="7" font-weight="500" fill="#243C47">
                <tspan x="343.889901" y="7">CHECKOUT</tspan>
            </text>
        </g>
        <g id="Group-20" transform="translate(306.000000, 309.000000)">
            <path d="M207.428199,0 C216.399758,-1.64804864e-15 223.672643,7.27288551 223.672643,16.2444444 L223.672401,20.066 L115.654198,20.0666667 C115.009407,20.0666667 114.372903,20.1021468 113.746532,20.1712612 L113.748054,16.2444444 C113.748054,7.27288551 121.020939,1.64804864e-15 129.992498,0 L207.428199,0 Z" id="Combined-Shape" fill="#CFD4D7"></path>
            <path d="M119.080882,80.7442689 L74.0625,80.7442689 C66.0421884,80.7442689 59.5404412,72.1044427 59.5404412,61.4466769 L59.5404412,39.8092726 C59.5404412,29.1678119 66.0230507,20.5347545 74.0310734,20.5117258 L395,19.5887133 L395,19.5887133" id="Path" stroke="#979797" stroke-width="1.23840688"></path>
            <rect id="Rectangle-Copy-2" fill="#FDCB5B" x="0" y="37.3857072" width="119.080882" height="26.1069351" rx="11.048113"></rect>
            <ellipse id="Oval-Copy-10" fill="#0086B2" cx="388.207245" cy="19.9151894" rx="6.71155719" ry="6.68888889"></ellipse>
            <ellipse id="Oval-Copy-11" fill="#53B9C9" cx="302.179305" cy="19.9151894" rx="9.2118843" ry="9.18077113"></ellipse>
            <ellipse id="Oval-Copy-12" fill="#4B7E65" cx="136.814488" cy="19.9151894" rx="12.4643205" ry="12.4222222"></ellipse>
            <ellipse id="Oval-Copy-13" fill="#80C0A1" cx="200.85751" cy="19.9151894" rx="12.4643205" ry="12.4222222"></ellipse>
            <ellipse id="Oval-Copy-18" fill="#D44A6F" cx="118.669343" cy="81.1622932" rx="4.85410158" ry="4.83770683"></ellipse>
            <ellipse id="Oval-Copy-19" stroke="#FFFFFF" stroke-width="2.86666667" fill="#FDCB5B" cx="59.4056516" cy="50.5845154" rx="21.5777199" ry="21.5"></ellipse>
        </g>
        <rect id="Rectangle" fill="#FFFFFF" x="669" y="108" width="59" height="68" rx="10"></rect>
        <rect id="Rectangle" stroke="#243C47" x="659.5" y="98.5" width="78" height="86" rx="16"></rect>
        <path d="M683,108 L713,108 L713,151 C713,159.284271 706.284271,166 698,166 C689.715729,166 683,159.284271 683,151 L683,151 L683,108 Z" id="Combined-Shape" fill="#243C47"></path>
        <g id="logo" opacity="0.984119234" transform="translate(688.000000, 114.000000)" fill="#FFFFFF" fill-rule="nonzero">
            <path d="M10.4997697,19.9999643 C7.98009885,19.9999643 5.56367508,18.9461538 3.78211119,17.0707451 C2.0005473,15.1953365 0.999787972,12.6518146 1.00000003,9.99975373 C1.00000003,8.2856425 1.23710447,6.73313665 1.704516,5.38516261 C2.23110368,3.86842878 3.03717867,2.65807182 4.10234919,1.79154714 C4.85284659,1.1796351 5.85924081,0.712073705 7.09274346,0.402750908 C8.13672252,0.138879623 9.31544726,0 10.4997697,0 C14.3423401,0.000432757275 17.8063425,2.43702074 19.2766693,6.17369312 C20.746996,9.91036549 19.934125,14.2113341 17.2170613,17.0712516 C15.4393978,18.9524974 13.0206042,20.0070689 10.4997697,19.9999643 Z M10.4997697,0.198219099 C9.32904178,0.198219099 8.16551092,0.335415333 7.13432669,0.594657296 C5.92681356,0.898509078 4.94480951,1.35218251 4.21550357,1.94810235 C3.1807208,2.79190128 2.39503758,3.97111553 1.88084491,5.45291903 C1.42103031,6.77942986 1.18752432,8.30920995 1.18752432,9.99807034 C1.18687755,13.9625742 3.45532308,17.537086 6.9350194,19.0547077 C10.4147157,20.5723295 14.4203407,19.7341673 17.0839559,16.9310805 C19.747571,14.1279937 20.5445803,9.91204688 19.1033155,6.24925773 C17.6620506,2.58646859 14.2663669,0.198219099 10.4997697,0.198219099 L10.4997697,0.198219099 Z" id="Shape" opacity="0.71" style="mix-blend-mode: multiply;"></path>
            <path d="M12,17 C7.58872139,17 4,13.4109678 4,8.99979967 C4,4.58863153 7.58872139,1 12,1 C16.4112786,1 20,4.58903218 20,8.99979967 C20,13.4105672 16.4112786,17 12,17 Z M12,1.18870665 C7.69289327,1.18870665 4.18710873,4.6928008 4.18710873,9.00140228 C4.18710873,13.3100038 7.69129063,16.8140979 12,16.8140979 C16.3087094,16.8140979 19.8128913,13.3100038 19.8128913,9.00140228 C19.8128913,4.6928008 16.3071067,1.18870665 12,1.18870665 Z" id="Shape" opacity="0.71" style="mix-blend-mode: multiply;"></path>
            <path d="M9.57944007,20 C9.10487968,20.0005809 8.63247741,19.9337314 8.17540219,19.8013072 C6.84498577,19.4177114 5.52221311,18.470618 3.75248169,16.6340331 C3.41535168,16.2842471 3.09230227,15.966184 2.77971275,15.656469 C1.1222239,14.0185692 -0.076639396,12.8356415 0.00382122782,10.347069 C0.0629597863,8.52300623 1.50843489,7.49952755 3.03839366,6.41635985 C3.79029819,5.88375023 4.56714551,5.33319216 5.2108305,4.66325607 C5.95468897,3.89564705 6.40205004,3.06667941 6.79630709,2.33747171 C7.49993525,1.03057458 8.05390664,0 9.80835055,0 C12.5749891,0 14.6114475,0.885734817 16.6104917,2.96358021 C18.1042432,4.51382484 18.0487253,5.51434621 17.9650463,7.02911137 C17.9372874,7.52999816 17.9059077,8.09683505 17.9272298,8.76092746 C18.0221733,11.689863 17.9272298,14.2953091 15.7793334,16.5246728 C15.5379516,16.7751162 15.310248,17.0380818 15.0897859,17.2926992 C14.488745,17.9855926 13.9231068,18.6405021 13.1285582,19.0266023 C11.7780266,19.680677 10.6346812,20 9.57944007,20 Z M9.80835055,0.197015473 C8.16655152,0.197015473 7.6359137,1.18292765 6.96165367,2.43138799 C6.55935056,3.17395266 6.10756415,4.01752951 5.34761356,4.80433918 C4.69105487,5.48554522 3.90575918,6.04152957 3.1466132,6.57914806 C1.65809165,7.63351477 0.250030737,8.62944468 0.194915209,10.3537475 C0.116868404,12.75383 1.28877739,13.9117133 2.91046126,15.5137163 C3.22385539,15.8234313 3.5477094,16.143164 3.88644863,16.495037 C5.63163956,18.3057428 6.92946942,19.2378096 8.22609238,19.6118051 C9.63656711,20.0183582 11.1226748,19.7816892 13.0480976,18.8446135 C13.8060366,18.4752095 14.3608126,17.8349092 14.9485775,17.1570424 C15.1706488,16.9007553 15.4007662,16.6357027 15.6453665,16.3819201 C16.6213539,15.3692939 17.2143487,14.2448031 17.516076,12.8435723 C17.7976882,11.5203963 17.7811938,10.1037215 17.737745,8.76593633 C17.7156184,8.0930784 17.7474003,7.52081524 17.7755615,7.01617179 C17.8592406,5.50265886 17.9099308,4.58895786 16.4761224,3.10132408 C15.4663416,2.05363586 14.4529401,1.32025411 13.3783884,0.859855666 C12.3215381,0.407387927 11.1870433,0.197015473 9.80835055,0.197015473 Z" id="Shape" opacity="0.71" style="mix-blend-mode: multiply;"></path>
            <path d="M8.54322352,18 C7.82933093,18 7.17561319,17.864567 6.59262044,17.5941177 C5.82988462,17.2411584 5.07535447,16.56441 4.34934875,15.5830415 C3.61670036,14.5920885 3.07082847,13.4994565 2.7418205,12.7585337 L2.7418205,12.7585337 C0.919772788,8.65387137 2.57028309,3.72952671 6.42147378,1.78637539 C8.27048295,0.85334605 10.2660218,0.747083218 12.0407893,1.48633916 C13.787423,2.2160106 15.2402159,3.72327595 16.1311164,5.73143512 C17.0349114,7.76876448 17.241616,9.99945053 16.7137184,12.0134437 C16.1666743,14.1028627 14.8576758,15.7609796 13.0305484,16.6831743 C11.8079048,17.2999155 10.7450762,17.6899626 9.7807155,17.8758183 C9.37248666,17.956261 8.95835744,17.9978187 8.54322352,18 Z M9.60409839,1.1967123 C8.56705902,1.1967123 7.51126384,1.45383523 6.50040443,1.96389683 C4.6923646,2.87605193 3.29815572,4.51683968 2.62449843,6.52529306 C1.95084114,8.53374643 2.05292006,10.7453371 2.90827821,12.6735234 C3.41194956,13.8086605 4.78620257,16.542324 6.66608065,17.412429 C7.53861605,17.8166445 8.57565542,17.9070721 9.74789285,17.6812115 C10.6962329,17.4982727 11.7438224,17.113643 12.9520085,16.503986 C14.7302927,15.6067943 16.0033425,13.9928494 16.5367105,11.9592705 C17.0528857,9.99111619 16.8493072,7.80876931 15.9650494,5.81436181 C15.0936863,3.85287494 13.6772327,2.38061381 11.973581,1.67052807 C11.2184552,1.35607263 10.414749,1.19536168 9.60409839,1.1967123 Z" id="Shape" opacity="0.71" style="mix-blend-mode: multiply;"></path>
            <path d="M5.76732149,17 C5.31626712,17 4.89085409,16.8209802 4.50040651,16.3519812 C3,14.5514708 3,10.9356003 3,8.99278146 C3,6.34337054 3.61267247,4.33166619 4.82092318,3.01170435 C6.04277157,1.67524298 7.91536592,1 10.3874236,1 C12.3722959,1 13.7635325,2.39462219 15.1089255,3.7434582 C15.344748,3.97981386 15.5891177,4.22483178 15.8299908,4.45500013 C17.1668367,5.73371317 17.070099,6.57725128 16.9100349,7.97806079 C16.8463201,8.53615716 16.7740581,9.16808889 16.7740581,9.96130346 C16.7740581,12.2926861 16.6575066,13.6015107 16.0087032,14.2862409 C15.3257113,15.0089201 14.1007549,15.0047952 11.8773404,14.9961329 C11.6302512,14.9961329 11.3702118,14.9961329 11.0972223,14.9961329 C9.99969553,14.9961329 8.95150889,15.5921782 8.02803239,16.1181005 C7.23470507,16.5652376 6.46973862,17 5.76732149,17 Z M10.3874236,1.19304442 C5.54082304,1.19304442 3.1845399,3.74428317 3.1845399,8.99278146 C3.1845399,10.9096136 3.1845399,14.4788729 4.6379373,16.223285 C5.04936415,16.7182706 5.52100928,16.8919281 6.1220266,16.7718941 C6.67836583,16.6609348 7.2910383,16.3123824 7.93984174,15.943618 C8.88390902,15.4073835 9.95385193,14.7981386 11.0972223,14.7981386 C11.3691758,14.7981386 11.6306397,14.7981386 11.8781175,14.8002011 C14.0537457,14.8080384 15.2499528,14.8125757 15.8797195,14.14682 C16.4776288,13.5136508 16.5910722,12.1870891 16.5910722,9.95965351 C16.5910722,9.15488927 16.6641112,8.51594524 16.728603,7.95289902 C16.8867246,6.56941401 16.9737497,5.80796102 15.7080003,4.597721 C15.4651846,4.3659027 15.2204264,4.1204723 14.9834383,3.88329165 C13.6636867,2.56044239 12.2996454,1.19304442 10.3874236,1.19304442 Z" id="Shape" opacity="0.71" style="mix-blend-mode: multiply;"></path>
            <path d="M6.90674258,17 C5.60720762,17 4.54668579,16.6375378 3.83162499,15.9309908 C2.19177333,14.3106638 3.34251866,10.4002171 4.17471172,8.21332303 C4.46433103,7.45033287 4.91687276,6.75793156 5.50155115,6.18322216 C6.6135162,5.08449653 8.33409416,4.29271027 10.1041367,4.06514504 C12.0035788,3.82076656 13.6901251,4.27081396 14.7312568,5.29954959 C15.7818857,6.33766936 16.2005544,7.93766411 15.910098,9.80432466 C15.6465504,11.4981608 14.819106,13.1716646 13.6968523,14.2809473 C12.5563956,15.4074343 10.6743651,16.365398 8.78442022,16.7806459 C8.16849745,16.9212113 7.53885847,16.9947671 6.90674258,17 Z M11.1013438,4.18440173 C10.7764719,4.18479896 10.4519661,4.20595743 10.1298584,4.24774463 C8.39899176,4.4706178 6.71877695,5.24285379 5.63490782,6.31342701 C5.06936404,6.86990223 4.63144477,7.53996198 4.35080583,8.27822996 C3.96933454,9.28155023 3.47270958,10.7806655 3.27485103,12.2152649 C3.04137794,13.9110561 3.27485103,15.1176992 3.96498166,15.8007859 C4.39631329,16.226591 5.28707249,16.8174004 6.90832544,16.8174004 C7.52679904,16.8116753 8.14277779,16.7390365 8.74524422,16.6007833 C10.6011574,16.1925735 12.4483648,15.2537692 13.5630999,14.1515245 C14.6584448,13.0692211 15.4664992,11.4340358 15.724111,9.77734528 C16.0054659,7.97011757 15.6053959,6.42681862 14.5975044,5.43131847 C13.7795572,4.61998193 12.5342355,4.18440173 11.099761,4.18440173 L11.1013438,4.18440173 Z" id="Shape" opacity="0.71" style="mix-blend-mode: multiply;"></path>
            <path d="M11.5578612,17 C11.4017963,17 11.2443313,16.9921448 11.0854659,16.9764344 C9.67897318,16.8350408 8.25300413,16.0520013 7.07029761,14.77119 C5.88759109,13.4903788 5.1608586,11.9416639 5.02376088,10.414034 C4.87864352,8.77725815 5.40030226,7.26409836 6.5322177,6.03868698 C8.05282276,4.31129852 10.3186745,3.61164109 12.4522082,4.21069215 C14.5857418,4.80974322 16.2518755,6.61341889 16.8053153,8.92315524 C17.3587552,11.2328916 16.7125807,13.6859333 15.1170555,15.3322168 C14.1035252,16.4311181 12.8811024,17 11.5578612,17 Z M10.8246366,4.30763169 C9.26129456,4.30372735 7.76151396,4.97725086 6.65976822,6.17801344 C5.56680534,7.36125479 5.06309533,8.82025504 5.20286626,10.3950162 C5.33461755,11.8779954 6.04301942,13.3828866 7.19746625,14.6331039 C8.35191307,15.8833211 9.73740201,16.6444488 11.1018871,16.7829484 C12.5530608,16.9284763 13.8957783,16.3794391 14.9895049,15.1953709 C16.6744153,13.3718175 17.1786929,10.628993 16.2671777,8.24596111 C15.3556625,5.86292921 13.2078772,4.30902776 10.8254004,4.30888901 L10.8246366,4.30763169 Z" id="Shape" opacity="0.71" style="mix-blend-mode: multiply;"></path>
        </g>
        <g id="Group-4" transform="translate(687.000000, 69.000000)">
            <g id="Group-2" transform="translate(10.819724, 12.057024) rotate(-90.000000) translate(-10.819724, -12.057024) translate(-1.237301, 1.237301)" fill="#243C47">
                <polyline id="Path-2" transform="translate(1.633166, 11.366524) rotate(-180.000000) translate(-1.633166, -11.366524) " points="0 8.10019242 0 14.6328557 3.26633166 11.3665241"></polyline>
                <path d="M6.47460141,0 L20.1140486,0 C22.3231876,-4.05812251e-16 24.1140486,1.790861 24.1140486,4 L24.1140486,17.6394472 C24.1140486,19.8485862 22.3231876,21.6394472 20.1140486,21.6394472 L6.47460141,21.6394472 C4.26546241,21.6394472 2.47460141,19.8485862 2.47460141,17.6394472 L2.47460141,11.1932664 L2.47460141,11.1932664 L2.47460141,4 C2.47460141,1.790861 4.26546241,4.05812251e-16 6.47460141,0 Z" id="Rectangle"></path>
            </g>
            <text id="A" font-family="Montserrat-Regular, Montserrat" font-size="13" font-weight="normal" fill="#FFFFFF">
                <tspan x="6.38240121" y="15.2404414">A</tspan>
            </text>
        </g>
        <rect id="Rectangle" stroke="#53B9C9" x="44.5" y="99.5" width="215" height="275" rx="16"></rect>
        <rect id="Rectangle-Copy-7" stroke="#D44A6F" x="44.5" y="378.5" width="215" height="30" rx="9"></rect>
        <rect id="Rectangle-Copy-8" stroke="#8B6391" x="44.5" y="411.5" width="215" height="30" rx="9"></rect>
        <g id="Group-4-Copy-4" transform="translate(278.057024, 393.819724) rotate(-270.000000) translate(-278.057024, -393.819724) translate(267.237301, 381.762699)">
            <g id="Group-2" transform="translate(10.819724, 12.057024) rotate(-90.000000) translate(-10.819724, -12.057024) translate(-1.237301, 1.237301)" fill="#D44A6F">
                <polyline id="Path-2" transform="translate(1.633166, 11.366524) rotate(-180.000000) translate(-1.633166, -11.366524) " points="0 8.10019242 0 14.6328557 3.26633166 11.3665241"></polyline>
                <path d="M6.47460141,0 L20.1140486,0 C22.3231876,-4.05812251e-16 24.1140486,1.790861 24.1140486,4 L24.1140486,17.6394472 C24.1140486,19.8485862 22.3231876,21.6394472 20.1140486,21.6394472 L6.47460141,21.6394472 C4.26546241,21.6394472 2.47460141,19.8485862 2.47460141,17.6394472 L2.47460141,11.1932664 L2.47460141,11.1932664 L2.47460141,4 C2.47460141,1.790861 4.26546241,4.05812251e-16 6.47460141,0 Z" id="Rectangle"></path>
            </g>
            <text id="C" transform="translate(10.057024, 12.240441) rotate(-90.000000) translate(-10.057024, -12.240441) " font-family="Montserrat-Regular, Montserrat" font-size="13" font-weight="normal" fill="#FFFFFF">
                <tspan x="6.38240121" y="17.2404414">C</tspan>
            </text>
        </g>
        <g id="Group-4-Copy-5" transform="translate(278.057024, 426.819724) rotate(-270.000000) translate(-278.057024, -426.819724) translate(267.237301, 414.762699)">
            <g id="Group-2" transform="translate(10.819724, 12.057024) rotate(-90.000000) translate(-10.819724, -12.057024) translate(-1.237301, 1.237301)" fill="#8B6391">
                <polyline id="Path-2" transform="translate(1.633166, 11.366524) rotate(-180.000000) translate(-1.633166, -11.366524) " points="0 8.10019242 0 14.6328557 3.26633166 11.3665241"></polyline>
                <path d="M6.47460141,0 L20.1140486,0 C22.3231876,-4.05812251e-16 24.1140486,1.790861 24.1140486,4 L24.1140486,17.6394472 C24.1140486,19.8485862 22.3231876,21.6394472 20.1140486,21.6394472 L6.47460141,21.6394472 C4.26546241,21.6394472 2.47460141,19.8485862 2.47460141,17.6394472 L2.47460141,11.1932664 L2.47460141,11.1932664 L2.47460141,4 C2.47460141,1.790861 4.26546241,4.05812251e-16 6.47460141,0 Z" id="Rectangle"></path>
            </g>
            <text id="D" transform="translate(10.057024, 12.240441) rotate(-90.000000) translate(-10.057024, -12.240441) " font-family="Montserrat-Regular, Montserrat" font-size="13" font-weight="normal" fill="#FFFFFF">
                <tspan x="6.38240121" y="17.2404414">D</tspan>
            </text>
        </g>
        <circle id="Oval" stroke="#243C47" cx="78" cy="168" r="1.5"></circle>
        <circle id="Oval-Copy" stroke="#243C47" cx="78" cy="211" r="1.5"></circle>
        <circle id="Oval-Copy-2" stroke="#243C47" cx="78" cy="226" r="1.5"></circle>
        <circle id="Oval-Copy-3" stroke="#243C47" cx="78" cy="347" r="1.5"></circle>
        <circle id="Oval-Copy-4" stroke="#243C47" cx="78" cy="362" r="1.5"></circle>
        <g id="Account" transform="translate(72.000000, 388.000000)" fill="#FFFFFF" fill-rule="nonzero">
            <path d="M9.17629391,8.68971572 L9.29170931,8.9167311 L9.11301416,8.93057454 C8.9705974,8.49156963 8.74139523,8.09825234 8.44798715,7.76742926 C8.73703134,8.0310359 8.98367341,8.34163316 9.17629391,8.68971572 Z" id="Color" stroke="#FFFFFF"></path>
            <rect id="account" fill-opacity="0" x="0" y="0" width="12" height="12"></rect>
        </g>
        <g id="01_icon/menu/app-logout" transform="translate(74.000000, 420.000000)" fill="#FFFFFF">
            <g id="Mask" fill-rule="nonzero">
                <path d="M4.92444444,5.59555556 L6.07555556,4.44444444 L1.77777778,4.44444444 L1.77777778,3.55555556 L6.07555556,3.55555556 L4.92444444,2.40444444 L5.55555556,1.77777778 L7.77777778,4 L5.55555556,6.22222222 L4.92444444,5.59555556 Z M7.11111111,0 C7.602,0 8,0.398 8,0.888888889 L8,0.888888889 L8,2.96444444 L7.11111111,2.07555556 L7.11111111,0.888888889 L0.888888889,0.888888889 L0.888888889,7.11111111 L7.11111111,7.11111111 L7.11111111,5.92444444 L8,5.03555556 L8,7.11111111 C8,7.602 7.602,8 7.11111111,8 L7.11111111,8 L0.888888889,8 C0.395555556,8 0,7.6 0,7.11111111 L0,0.888888889 C0,0.395555556 0.395555556,0 0.888888889,0 L7.11111111,0 Z" id="Shape"></path>
            </g>
            <g id="00_colores/anaranjado" transform="translate(-1.000000, -1.000000)">
                <rect id="Rectangle" x="0" y="0" width="11" height="11"></rect>
            </g>
        </g>
    </g>
</svg>