<svg width="766" height="466" xmlns="http://www.w3.org/2000/svg" xmlns:xlink="http://www.w3.org/1999/xlink"><defs><path id="a" d="M0 0h766v466H0z"/><path d="M8.721 0h448.558A8.721 8.721 0 0 1 466 8.721v270.558c0 .95-.77 1.721-1.721 1.721H1.72C.771 281 0 280.23 0 279.279V8.72A8.721 8.721 0 0 1 8.721 0Z" id="e"/><linearGradient x1="50%" y1="0%" x2="50%" y2="100%" id="c"><stop stop-color="#FFF" stop-opacity="0" offset="0%"/><stop stop-color="#FFF" offset="100%"/></linearGradient><filter x="-8%" y="-13.3%" width="132.2%" height="153.4%" filterUnits="objectBoundingBox" id="d"><feOffset dx="43" dy="43" in="SourceAlpha" result="shadowOffsetOuter1"/><feGaussianBlur stdDeviation="16" in="shadowOffsetOuter1" result="shadowBlurOuter1"/><feComposite in="shadowBlurOuter1" in2="SourceAlpha" operator="out" result="shadowBlurOuter1"/><feColorMatrix values="0 0 0 0 0.522616621 0 0 0 0 0.522616621 0 0 0 0 0.522616621 0 0 0 0.101016171 0" in="shadowBlurOuter1"/></filter></defs><g fill="none" fill-rule="evenodd"><path fill="#FFF" d="M0 0h766v466H0z"/><mask id="b" fill="#fff"><use xlink:href="#a"/></mask><use fill="#FFF" xlink:href="#a"/><g mask="url(#b)"><g transform="translate(0 21.476)"><rect stroke="#202020" stroke-width="21.443" fill="#E2E6E7" x="269.55" y="-10.721" width="486.443" height="360.443" rx="7.213"/><g opacity=".414" transform="translate(305.92 133.524)"><rect fill="#BBC3C6" x="190.26" y="21.3" width="73" height="14" rx="4"/><rect fill="#BBC3C6" x="276.26" y="21.3" width="66" height="14" rx="4"/><text font-family="Montserrat-Regular, Montserrat" font-size="11" fill="#000">
                            <tspan x="0" y="11">BLACKLIST</tspan>
                        </text><text font-family="Montserrat-Regular, Montserrat" font-size="11" fill="#000">
                            <tspan x="110.26" y="11">TERMS (4)</tspan>
                        </text><text transform="rotate(-45 247.94 28.3)" font-family="Montserrat-Light, Montserrat" font-size="18" font-weight="300" fill="#000">
                            <tspan x="242.441" y="34.3">+</tspan>
                        </text><text transform="rotate(-45 333.94 28.3)" font-family="Montserrat-Light, Montserrat" font-size="18" font-weight="300" fill="#000">
                            <tspan x="328.441" y="34.3">+</tspan>
                        </text><rect fill="#BBC3C6" x="355.26" y="21.3" width="66" height="14" rx="4"/><text transform="rotate(-45 412.94 28.3)" font-family="Montserrat-Light, Montserrat" font-size="18" font-weight="300" fill="#000">
                            <tspan x="407.441" y="34.3">+</tspan>
                        </text><rect fill="#BBC3C6" x="190.26" y="171.3" width="66" height="14" rx="4"/><rect fill="#BBC3C6" x="270.26" y="171.3" width="66" height="14" rx="4"/><text transform="rotate(-45 247.94 178.3)" font-family="Montserrat-Light, Montserrat" font-size="18" font-weight="300" fill="#000">
                            <tspan x="242.441" y="184.3">+</tspan>
                        </text><text transform="rotate(-45 327.94 178.3)" font-family="Montserrat-Light, Montserrat" font-size="18" font-weight="300" fill="#000">
                            <tspan x="322.441" y="184.3">+</tspan>
                        </text><rect fill="#BBC3C6" x="346.26" y="171.3" width="66" height="14" rx="4"/><text transform="rotate(-45 403.94 178.3)" font-family="Montserrat-Light, Montserrat" font-size="18" font-weight="300" fill="#000">
                            <tspan x="398.441" y="184.3">+</tspan>
                        </text><rect fill="#BBC3C6" x="170.26" y="121.3" width="66" height="14" rx="4"/><rect fill="#BBC3C6" x="250.26" y="121.3" width="66" height="14" rx="4"/><rect stroke="#D3D3D3" x="326.202" y="121.8" width="44" height="13" rx="4"/><text transform="rotate(-45 227.94 128.3)" font-family="Montserrat-Light, Montserrat" font-size="18" font-weight="300" fill="#000">
                            <tspan x="222.441" y="134.3">+</tspan>
                        </text><text transform="rotate(-45 307.94 128.3)" font-family="Montserrat-Light, Montserrat" font-size="18" font-weight="300" fill="#000">
                            <tspan x="302.441" y="134.3">+</tspan>
                        </text><text transform="rotate(-90 359.593 128.3)" font-family="Montserrat-Light, Montserrat" font-size="18" font-weight="300" fill="#000">
                            <tspan x="354.093" y="134.3">+</tspan>
                        </text><text font-family="Montserrat-SemiBold, Montserrat" font-size="7" font-weight="500" fill="#000">
                            <tspan x="333.514" y="130.8">ADD</tspan>
                        </text><rect fill="#BBC3C6" x="190.26" y="71.3" width="99.5" height="14" rx="4"/><rect stroke="#D3D3D3" x="301.202" y="71.8" width="44" height="13" rx="4"/><text transform="rotate(-45 277.94 78.3)" font-family="Montserrat-Light, Montserrat" font-size="18" font-weight="300" fill="#000">
                            <tspan x="272.441" y="84.3">+</tspan>
                        </text><text transform="rotate(-90 334.593 78.3)" font-family="Montserrat-Light, Montserrat" font-size="18" font-weight="300" fill="#000">
                            <tspan x="329.093" y="84.3">+</tspan>
                        </text><text font-family="Montserrat-SemiBold, Montserrat" font-size="7" font-weight="500" fill="#000">
                            <tspan x="308.514" y="80.8">ADD</tspan>
                        </text></g><path d="M287.082.024h451a7 7 0 0 1 7 7v55.5a1 1 0 0 1-1 1h-463a1 1 0 0 1-1-1v-55.5a7 7 0 0 1 7-7Z" fill="#1E3D49"/><rect stroke="#202020" stroke-width="21.443" fill="#FFF" x="10.807" y="153.279" width="486.443" height="380.443" rx="7.213"/><text font-family="Montserrat-Regular, Montserrat" font-size="19">
                        <tspan x="303.921" y="41.524" fill="#FFF">Playboard</tspan>
                    </text><text font-family="Montserrat-Regular, Montserrat" font-size="19">
                        <tspan x="40.235" y="121.508" fill="#000">BLACKLIST</tspan>
                    </text><g transform="translate(303.92 83.524)"><path stroke="#1E3D49" stroke-dasharray="2" d="M174.846 28.984h113.478"/><rect fill="#1E3D49" y="17.3" width="88" height="22" rx="4"/><rect fill="#FDCB5B" x="112.26" y="17.3" width="65" height="22" rx="4"/><rect fill="#FDCB5B" x="191.26" y="17.3" width="80" height="22" rx="4"/><rect fill="#FDCB5B" x="284.26" y="17.3" width="80" height="22" rx="4"/><rect stroke="#D3D3D3" x="377.202" y="17.8" width="44" height="21" rx="4"/><text font-family="Montserrat-Regular, Montserrat" font-size="11" fill="#000">
                            <tspan x="2" y="11">BLACKLIST</tspan>
                        </text><text font-family="Montserrat-Regular, Montserrat" font-size="11" fill="#000">
                            <tspan x="112.26" y="11">TERMS (2)</tspan>
                        </text><text transform="rotate(-45 168.94 28.3)" font-family="Montserrat-Light, Montserrat" font-size="18" font-weight="300" fill="#000">
                            <tspan x="163.441" y="34.3">+</tspan>
                        </text><text transform="rotate(-45 262.94 28.3)" font-family="Montserrat-Light, Montserrat" font-size="18" font-weight="300" fill="#000">
                            <tspan x="257.441" y="34.3">+</tspan>
                        </text><text transform="rotate(-45 355.94 28.3)" font-family="Montserrat-Light, Montserrat" font-size="18" font-weight="300" fill="#000">
                            <tspan x="350.441" y="34.3">+</tspan>
                        </text><text transform="rotate(-90 413.593 28.3)" font-family="Montserrat-Light, Montserrat" font-size="18" font-weight="300" fill="#000">
                            <tspan x="408.093" y="34.3">+</tspan>
                        </text><text font-family="Montserrat-SemiBold, Montserrat" font-size="7" font-weight="500" fill="#000">
                            <tspan x="387.514" y="30.8">ADD</tspan>
                        </text></g><rect fill="url(#c)" y="400.524" width="766" height="44" rx="1"/><text font-family="Montserrat-Regular, Montserrat" font-size="12">
                        <tspan x="310.511" y="116.008" fill="#FFF">smartphone</tspan>
                    </text><text font-family="Montserrat-Regular, Montserrat" font-size="12">
                        <tspan x="421.74" y="116.008" fill="#1E3D49">iphone</tspan>
                    </text><text font-family="Montserrat-Regular, Montserrat" font-size="12">
                        <tspan x="501.74" y="116.008" fill="#1E3D49">iphone X</tspan>
                    </text><text font-family="Montserrat-Regular, Montserrat" font-size="12">
                        <tspan x="594.74" y="116.008" fill="#1E3D49">iphone 13</tspan>
                    </text></g></g><rect fill="#53B9C9" x="51.039" y="295.768" width="362.177" height="22.435" rx="11.217"/><rect fill="#53B9C9" opacity=".354" x="431.222" y="295.768" width="27.419" height="21.979" rx="10.99"/><rect fill="#53B9C9" x="50.74" y="339.457" width="76.598" height="7.085" rx="3.542"/><rect fill="#53B9C9" x="134.704" y="339.457" width="76.598" height="7.085" rx="3.542"/><rect fill="#53B9C9" x="218.667" y="339.457" width="76.598" height="7.085" rx="3.542"/><ellipse fill="#FFF" cx="456.565" cy="410.895" rx="10.995" ry="11.217"/><ellipse fill="#FFF" cx="50.003" cy="410.895" rx="10.995" ry="11.217"/><path stroke="#FFF" stroke-width=".7" stroke-linecap="square" d="M149.887 217.979v10.263"/><path d="M29.721 185h448.558a8.721 8.721 0 0 1 8.721 8.721v270.558c0 .95-.77 1.721-1.721 1.721H22.72c-.95 0-1.721-.77-1.721-1.721V193.72A8.721 8.721 0 0 1 29.721 185Z" fill="#1E3D49" fill-opacity=".735"/><g transform="translate(21 185)"><use fill="#000" filter="url(#d)" xlink:href="#e"/><use fill-opacity=".882" fill="#F2F2F2" xlink:href="#e"/><rect fill-opacity=".593" fill="#FFF" y="68" width="466" height="213" rx="1.721"/><rect stroke="#C9C9C9" stroke-width=".861" fill="#FFF" x="44.43" y="26.43" width="378.139" height="21.139" rx="10.57"/><g opacity=".341" stroke="#243C47" stroke-linecap="round" stroke-linejoin="round" stroke-opacity=".513" stroke-width="2"><g transform="translate(400 32)"><circle cx="4.444" cy="4.444" r="4.444"/><path d="M10 10 7.583 7.583"/></g></g></g><rect x=".5" y=".5" width="110" height="19" rx="9.5" fill="#FFF" stroke="#C9C9C9" transform="translate(66 274)"/><text font-family="Montserrat-Regular, Montserrat" font-size="11" fill="#000" transform="translate(66 274)">
                <tspan x="11" y="13">samsung galaxy</tspan>
            </text><rect x=".5" y=".5" width="94" height="19" rx="9.5" fill="#FFF" stroke="#C9C9C9" transform="translate(185 274)"/><text font-family="Montserrat-Regular, Montserrat" font-size="11" fill="#000" transform="translate(185 274)">
                <tspan x="11" y="13">xiaomi redmi</tspan>
            </text><rect x=".5" y=".5" width="49" height="19" rx="9.5" fill="#FFF" stroke="#C9C9C9" transform="translate(288 274)"/><text font-family="Montserrat-Regular, Montserrat" font-size="11" fill="#000" transform="translate(288 274)">
                <tspan x="11" y="13">oppo</tspan>
            </text><rect fill="#1E3D49" x="66" y="212" width="97" height="20" rx="10"/><text font-family="Montserrat-Regular, Montserrat" font-size="11" fill="#FFF">
            <tspan x="80.267" y="225.88">smartphone</tspan>
        </text><rect fill="#FFF" x="66" y="310" width="84" height="107" rx="5"/><rect fill="#FFF" x="266" y="310" width="84" height="107" rx="5"/><path d="M171 310h74a5 5 0 0 1 5 5v97a5 5 0 0 1-5 5h-74a5 5 0 0 1-5-5v-97a5 5 0 0 1 5-5Z" fill="#FFF"/><rect fill="#FFF" x="366" y="310" width="84" height="107" rx="5"/><g transform="translate(66 430)" fill="#CFD4D7"><rect width="84" height="4" rx="2"/><rect y="8" width="73" height="4" rx="2"/><rect y="16" width="51" height="4" rx="2"/></g><g transform="translate(166 430)" fill="#CFD4D7"><rect width="84" height="4" rx="2"/><rect y="8" width="73" height="4" rx="2"/><rect y="16" width="51" height="4" rx="2"/></g><g transform="translate(266 430)" fill="#CFD4D7"><rect width="84" height="4" rx="2"/><rect y="8" width="73" height="4" rx="2"/><rect y="16" width="51" height="4" rx="2"/></g><g transform="translate(366 430)" fill="#CFD4D7"><rect width="84" height="4" rx="2"/><rect y="8" width="73" height="4" rx="2"/><rect y="16" width="51" height="4" rx="2"/></g><path d="M124 327a6 6 0 0 1 6 6v62a6 6 0 0 1-6 6H94a6 6 0 0 1-6-6v-62a6 6 0 0 1 6-6h30Zm-10.5 68h-8a1.5 1.5 0 0 0 0 3h8a1.5 1.5 0 0 0 0-3Zm11.662-57H92.838a2 2 0 0 0-1.995 1.85l-.005.15v51a2 2 0 0 0 1.85 1.995l.15.005h32.324a2 2 0 0 0 1.995-1.85l.005-.15v-51a2 2 0 0 0-2-2Z" fill="#80C0A1"/><path d="M223 334a4 4 0 0 1 4 4v59a4 4 0 0 1-4 4h-29a4 4 0 0 1-4-4v-59a4 4 0 0 1 4-4h29Zm-12.5 62h-4a1.5 1.5 0 0 0 0 3h4a1.5 1.5 0 0 0 0-3Zm11-55.243h-26a3 3 0 0 0-2.995 2.823l-.005.177v47a3 3 0 0 0 2.824 2.995l.176.005h26a3 3 0 0 0 2.995-2.824l.005-.176v-47a3 3 0 0 0-3-3Z" fill="#53B9C9"/><path d="M323 327a6 6 0 0 1 6 6v62a6 6 0 0 1-6 6h-30a6 6 0 0 1-6-6v-62a6 6 0 0 1 6-6h30Zm.162 3h-30.324a3 3 0 0 0-3 3v62a3 3 0 0 0 3 3h30.324a3 3 0 0 0 3-3v-62a3 3 0 0 0-3-3Z" fill="#8B6391"/><path d="M421 334a6 6 0 0 1 6 6v55a6 6 0 0 1-6 6h-25a6 6 0 0 1-6-6v-55a6 6 0 0 1 6-6h25Zm.5 2.716h-8.802l-2.06 2.943a2 2 0 0 1-3.276 0l-2.061-2.943H395.5a3 3 0 0 0-2.995 2.824l-.005.176v50a3 3 0 0 0 2.824 2.995l.176.005h26a3 3 0 0 0 2.995-2.824l.005-.176v-50a3 3 0 0 0-3-3Z" fill="#D44A6F"/><path d="M298.18 129.484a4.5 4.5 0 1 1-4.472 5h-55.411a9.5 9.5 0 0 0-9.495 9.181l-.005.27-.356 69.103c-.029 5.683-4.57 10.292-10.216 10.442l-.284.004-50.351-.001 6.336 3.565-.49.871-8-4.5-.775-.435.775-.436 8-4.5.49.871-6.336 3.564h50.351a9.5 9.5 0 0 0 9.495-9.181l.005-.27.356-69.102c.03-5.684 4.57-10.293 10.217-10.443l.283-.003h55.411a4.5 4.5 0 0 1 4.473-4Zm0 1a3.5 3.5 0 1 0 0 7 3.5 3.5 0 0 0 0-7ZM356.085 279.064l.49.872-6.338 3.564h1.218v1h-1.218l6.338 3.564-.49.872-8-4.5-.775-.436.775-.436 8-4.5Zm-.63 4.436v1h-2v-1h2Zm4 0v1h-2v-1h2Zm4 0v1h-2v-1h2Zm4 0v1h-2v-1h2Zm4 0v1h-2v-1h2Zm4 0v1h-2v-1h2Zm4 0v1h-2v-1h2Zm4 0v1h-2v-1h2Zm4 0v1h-2v-1h2Zm4 0v1h-2v-1h2Zm4 0v1h-2v-1h2Zm4 0v1h-2v-1h2Zm3.735-.611.354.935c-.524.198-1.063.354-1.614.466l-.416.076-.16-.988a9.429 9.429 0 0 0 1.836-.49Zm3.234-2.05.694.72c-.404.39-.838.746-1.299 1.066l-.35.233-.538-.843a9.544 9.544 0 0 0 1.493-1.176Zm2.155-3.13.92.39a10.47 10.47 0 0 1-.779 1.49l-.231.352-.824-.567a9.48 9.48 0 0 0 .914-1.665Zm1.75-3.725V274c0 .561-.043 1.117-.13 1.664l-.074.408-.98-.196c.098-.49.157-.99.177-1.496l.008-.38v-.016h1Zm0-4v2h-1v-2h1Zm0-4v2h-1v-2h1Zm0-4v2h-1v-2h1Zm0-4v2h-1v-2h1Zm0-4v2h-1v-2h1Zm0-4v2h-1v-2h1Zm0-4v2h-1v-2h1Zm0-4v2h-1v-2h1Zm0-4v2h-1v-2h1Zm0-4v2h-1v-2h1Zm0-4v2h-1v-2h1Zm0-4v2h-1v-2h1Zm0-4v2h-1v-2h1Zm0-4v2h-1v-2h1Zm0-4v2h-1v-2h1Zm0-4v2h-1v-2h1Zm0-4v2h-1v-2h1Zm0-4v2h-1v-2h1Zm0-4v2h-1v-2h1Zm0-4v2h-1v-2h1Zm0-4v2h-1v-2h1Zm0-4v2h-1v-2h1Zm0-4v2h-1v-2h1Zm0-4v2h-1v-2h1Zm0-4v2h-1v-2h1Zm0-4v2h-1v-2h1Zm0-4v2h-1v-2h1Zm0-4v2h-1v-2h1Zm0-4v2h-1v-2h1Zm0-4v2h-1v-2h1Zm0-4v2h-1v-2h1Zm0-4v2h-1v-2h1Zm0-4v2h-1v-2h1Zm-.5-12.5a4.5 4.5 0 0 1 .501 8.972v1.528h-1v-1.528a4.5 4.5 0 0 1 .5-8.972Zm0 1a3.5 3.5 0 1 0 0 7 3.5 3.5 0 0 0 0-7Z" fill="#1E3D49" fill-rule="nonzero"/><g stroke="#1E3D49" stroke-linecap="round" stroke-linejoin="round"><path d="M383.645 275.24a6.688 6.688 0 0 1-3.645 1.124c-4.295 0-6.75-4.364-6.75-4.364a10.487 10.487 0 0 1 3.105-3.24M378.711 267.767a6.267 6.267 0 0 1 1.289-.13c4.295 0 6.75 4.363 6.75 4.363-.372.62-.817 1.203-1.325 1.74"/><path d="M381.3 273.156c-.458.438-1.15.618-1.801.47-.653-.148-1.162-.6-1.329-1.18-.166-.58.037-1.194.53-1.602M373.25 266l13.5 12"/></g></g></svg>