<svg width="766" height="466" xmlns="http://www.w3.org/2000/svg"><g fill="none" fill-rule="evenodd"><g transform="translate(286.13 428.088)"><rect fill="#E2E6E7" width="78.646" height="92.052" rx="5"/><rect fill="#FFF" x="7.591" y="6.328" width="63.464" height="49.798" rx="4.266"/><rect width="40.66" height="6.276" rx="3.138" transform="translate(17.897 62.029)" fill="#BBC3C6"/><rect width="63.395" height="11.778" rx="5.889" transform="translate(6.53 73.946)" fill="#BBC3C6"/></g><g transform="translate(198.235 428.088)"><rect fill="#E2E6E7" width="78.646" height="92.052" rx="5"/><rect fill="#FFF" x="7.591" y="6.328" width="63.464" height="49.798" rx="4.266"/><rect width="40.66" height="6.276" rx="3.138" transform="translate(17.897 62.029)" fill="#BBC3C6"/><rect width="63.395" height="11.778" rx="5.889" transform="translate(6.53 73.946)" fill="#BBC3C6"/></g><g transform="translate(374.026 428.088)"><rect fill="#E2E6E7" width="78.646" height="92.052" rx="5"/><rect fill="#FFF" x="7.591" y="6.328" width="63.464" height="49.798" rx="4.266"/><rect width="40.66" height="6.276" rx="3.138" transform="translate(17.897 62.029)" fill="#BBC3C6"/><rect width="63.395" height="11.778" rx="5.889" transform="translate(6.53 73.946)" fill="#BBC3C6"/></g><g transform="translate(461.92 428.088)"><rect fill="#E2E6E7" width="78.646" height="92.052" rx="5"/><rect fill="#FFF" x="7.591" y="6.328" width="63.464" height="49.798" rx="4.266"/><rect width="40.66" height="6.276" rx="3.138" transform="translate(17.897 62.029)" fill="#BBC3C6"/><rect width="63.395" height="11.778" rx="5.889" transform="translate(6.53 73.946)" fill="#BBC3C6"/></g><g transform="translate(549.816 428.088)"><rect fill="#E2E6E7" width="78.646" height="92.052" rx="5"/><rect fill="#FFF" x="7.591" y="6.328" width="63.464" height="49.798" rx="4.266"/><rect width="40.66" height="6.276" rx="3.138" transform="translate(17.897 62.029)" fill="#BBC3C6"/><rect width="63.395" height="11.778" rx="5.889" transform="translate(6.53 73.946)" fill="#BBC3C6"/></g><g transform="translate(637.71 428.088)"><rect fill="#E2E6E7" width="78.646" height="92.052" rx="5"/><rect fill="#FFF" x="7.591" y="6.328" width="63.464" height="49.798" rx="4.266"/><rect width="40.66" height="6.276" rx="3.138" transform="translate(17.897 62.029)" fill="#BBC3C6"/><rect width="63.395" height="11.778" rx="5.889" transform="translate(6.53 73.946)" fill="#BBC3C6"/></g><rect stroke="#202020" stroke-width="21.443" x="9.807" y="10.279" width="745.443" height="445.443" rx="7.213"/><path stroke="#CFD4D7" stroke-width="2" stroke-linecap="round" stroke-linejoin="round" d="m209.158 352.093-3.949 3.949 3.949 3.948M702.956 358.884l3.948-3.948-3.948-3.948"/><rect fill="#FDCB5B" x="198.235" y="186.72" width="78.454" height="92.052" rx="6"/><g transform="translate(286.13 186.72)"><rect fill="#E2E6E7" width="78.646" height="92.052" rx="5"/><rect fill="#FFF" x="7.591" y="6.328" width="63.464" height="49.798" rx="4.266"/><rect width="40.66" height="6.276" rx="3.138" transform="translate(17.897 62.029)" fill="#BBC3C6"/><rect width="63.395" height="11.778" rx="5.889" transform="translate(6.53 73.946)" fill="#BBC3C6"/></g><rect fill="#FFF" x="205.401" y="193.998" width="64.122" height="60.975" rx="5"/><rect fill="#FFF" x="214.252" y="262.054" width="46.42" height="6.688" rx="3.344"/><g transform="translate(374.026 186.72)"><rect fill="#E2E6E7" width="78.646" height="92.052" rx="5"/><rect fill="#FFF" x="7.591" y="6.328" width="63.464" height="49.798" rx="4.266"/><rect width="40.66" height="6.276" rx="3.138" transform="translate(17.897 62.029)" fill="#BBC3C6"/><rect width="63.395" height="11.778" rx="5.889" transform="translate(6.53 73.946)" fill="#BBC3C6"/></g><g transform="translate(461.92 186.72)"><rect fill="#E2E6E7" width="78.646" height="92.052" rx="5"/><rect fill="#FFF" x="7.591" y="6.328" width="63.464" height="49.798" rx="4.266"/><rect width="40.66" height="6.276" rx="3.138" transform="translate(17.897 62.029)" fill="#BBC3C6"/><rect width="63.395" height="11.778" rx="5.889" transform="translate(6.53 73.946)" fill="#BBC3C6"/></g><g transform="translate(549.816 186.72)"><rect fill="#E2E6E7" width="78.646" height="92.052" rx="5"/><rect fill="#FFF" x="7.591" y="6.328" width="63.464" height="49.798" rx="4.266"/><rect width="40.66" height="6.276" rx="3.138" transform="translate(17.897 62.029)" fill="#BBC3C6"/><rect width="63.395" height="11.778" rx="5.889" transform="translate(6.53 73.946)" fill="#BBC3C6"/></g><g transform="translate(637.71 186.72)"><rect fill="#E2E6E7" width="78.646" height="92.052" rx="5"/><rect fill="#FFF" x="7.591" y="6.328" width="63.464" height="49.798" rx="4.266"/><rect width="40.66" height="6.276" rx="3.138" transform="translate(17.897 62.029)" fill="#BBC3C6"/><rect width="63.395" height="11.778" rx="5.889" transform="translate(6.53 73.946)" fill="#BBC3C6"/></g><g transform="translate(297.64 318.276)"><rect fill="#E2E6E7" width="73.301" height="75.53" rx="5"/><rect fill="#FFF" x="7.075" y="5.954" width="59.151" height="46.855" rx="4.266"/><rect width="37.896" height="5.905" rx="2.953" transform="translate(16.68 58.363)" fill="#BBC3C6"/></g><g transform="translate(215.719 318.276)"><rect fill="#E2E6E7" width="73.301" height="75.53" rx="5"/><rect fill="#FFF" x="7.075" y="5.954" width="59.151" height="46.855" rx="4.266"/><rect width="37.896" height="5.905" rx="2.953" transform="translate(16.68 58.363)" fill="#BBC3C6"/></g><g transform="translate(379.562 318.276)"><rect fill="#E2E6E7" width="73.301" height="75.53" rx="5"/><rect fill="#FFF" x="7.075" y="5.954" width="59.151" height="46.855" rx="4.266"/><rect width="37.896" height="5.905" rx="2.953" transform="translate(16.68 58.363)" fill="#BBC3C6"/></g><g transform="translate(461.484 318.276)"><rect fill="#E2E6E7" width="73.301" height="75.53" rx="5"/><rect fill="#FFF" x="7.075" y="5.954" width="59.151" height="46.855" rx="4.266"/><rect width="37.896" height="5.905" rx="2.953" transform="translate(16.68 58.363)" fill="#BBC3C6"/></g><g transform="translate(543.405 318.276)"><rect fill="#E2E6E7" width="73.301" height="75.53" rx="5"/><rect fill="#FFF" x="7.075" y="5.954" width="59.151" height="46.855" rx="4.266"/><rect width="37.896" height="5.905" rx="2.953" transform="translate(16.68 58.363)" fill="#BBC3C6"/></g><g transform="translate(625.327 318.276)"><rect fill="#E2E6E7" width="73.301" height="75.53" rx="5"/><rect fill="#FFF" x="7.075" y="5.954" width="59.151" height="46.855" rx="4.266"/><rect width="37.896" height="5.905" rx="2.953" transform="translate(16.68 58.363)" fill="#BBC3C6"/></g><rect fill="#80C0A1" x="198.235" y="84.968" width="517.697" height="81" rx="6"/><rect stroke="#0086B2" x="198.432" y="287.43" width="517" height="122" rx="17"/><path d="M389.63 310.394v-2.886h2.445c.251 0 .494-.013.728-.04l2.08 2.926h1.053l-2.223-3.12c.667-.217 1.18-.57 1.54-1.06.36-.49.54-1.09.54-1.8 0-.97-.33-1.733-.988-2.288-.659-.555-1.569-.832-2.73-.832h-3.406v9.1h.962Zm2.419-3.705h-2.418v-4.563h2.418c.901 0 1.59.197 2.067.591.477.395.715.96.715 1.697 0 .72-.238 1.278-.715 1.677s-1.166.598-2.067.598Zm12.454 3.705v-.832h-5.473v-3.38h4.706v-.82h-4.706v-3.236h5.278v-.832h-6.24v9.1h6.435Zm6.162.078c.676 0 1.302-.115 1.878-.345a3.935 3.935 0 0 0 1.463-.994l-.611-.611c-.702.728-1.6 1.092-2.691 1.092-.72 0-1.374-.165-1.963-.494a3.61 3.61 0 0 1-1.385-1.352 3.748 3.748 0 0 1-.5-1.924c0-.71.167-1.352.5-1.924a3.61 3.61 0 0 1 1.385-1.352 3.955 3.955 0 0 1 1.963-.494c1.083 0 1.98.36 2.69 1.079l.612-.611a3.88 3.88 0 0 0-1.456-.988 5.063 5.063 0 0 0-1.872-.338c-.901 0-1.716.2-2.444.598a4.367 4.367 0 0 0-1.71 1.657c-.411.707-.617 1.498-.617 2.373 0 .875.206 1.666.617 2.372a4.38 4.38 0 0 0 1.703 1.658c.724.399 1.537.598 2.438.598Zm9.178 0c.901 0 1.714-.2 2.437-.598a4.426 4.426 0 0 0 1.71-1.658c.416-.706.624-1.497.624-2.372 0-.875-.208-1.666-.624-2.373a4.426 4.426 0 0 0-1.71-1.657c-.723-.399-1.536-.598-2.437-.598-.901 0-1.718.201-2.45.604a4.415 4.415 0 0 0-1.717 1.658c-.411.702-.617 1.49-.617 2.366 0 .875.206 1.664.617 2.366a4.415 4.415 0 0 0 1.716 1.657c.733.403 1.55.605 2.45.605Zm0-.858a3.96 3.96 0 0 1-1.957-.488 3.562 3.562 0 0 1-1.378-1.352 3.783 3.783 0 0 1-.5-1.93c0-.71.167-1.354.5-1.93a3.562 3.562 0 0 1 1.378-1.353 3.96 3.96 0 0 1 1.957-.487c.72 0 1.37.162 1.95.487.58.325 1.036.776 1.365 1.352.33.577.494 1.22.494 1.93 0 .712-.165 1.355-.494 1.931a3.528 3.528 0 0 1-1.365 1.352c-.58.325-1.23.488-1.95.488Zm7.852.78v-7.241l3.575 6.084h.455l3.575-6.123v7.28h.923v-9.1h-.793l-3.913 6.747-3.952-6.747h-.793v9.1h.923Zm12.415 0v-7.241l3.575 6.084h.455l3.575-6.123v7.28h.923v-9.1h-.793l-3.913 6.747-3.952-6.747h-.793v9.1h.923Zm17.927 0v-.832h-5.473v-3.38h4.706v-.82h-4.706v-3.236h5.278v-.832h-6.24v9.1h6.435Zm3.224 0v-7.384l5.85 7.384h.793v-9.1h-.95v7.384l-5.862-7.384h-.793v9.1h.962Zm13.312 0c.962 0 1.811-.193 2.548-.579a4.22 4.22 0 0 0 1.716-1.612c.407-.689.61-1.475.61-2.36 0-.883-.203-1.67-.61-2.359a4.22 4.22 0 0 0-1.716-1.612c-.737-.385-1.586-.578-2.548-.578h-3.705v9.1h3.705Zm-.052-.832h-2.691v-7.436h2.69c.798 0 1.496.158 2.094.474a3.447 3.447 0 0 1 1.39 1.313c.33.56.495 1.203.495 1.93 0 .729-.165 1.372-.494 1.931-.33.56-.793.997-1.391 1.313-.598.317-1.296.475-2.093.475Zm6.5.832 1.092-2.431h5.07l1.092 2.43h1.014l-4.16-9.1h-.95l-4.16 9.1h1.002Zm5.81-3.211h-4.367l2.184-4.888 2.184 4.888Zm6.24 3.21v-8.267h3.199v-.832h-7.358v.832h3.198v8.268h.962Zm5.695 0v-9.1h-.962v9.1h.962Zm6.942.079c.901 0 1.714-.2 2.437-.598a4.426 4.426 0 0 0 1.71-1.658c.416-.706.624-1.497.624-2.372 0-.875-.208-1.666-.624-2.373a4.426 4.426 0 0 0-1.71-1.657c-.723-.399-1.536-.598-2.437-.598-.901 0-1.718.201-2.45.604a4.415 4.415 0 0 0-1.717 1.658c-.411.702-.617 1.49-.617 2.366 0 .875.206 1.664.617 2.366a4.415 4.415 0 0 0 1.716 1.657c.733.403 1.55.605 2.45.605Zm0-.858a3.96 3.96 0 0 1-1.957-.488 3.562 3.562 0 0 1-1.378-1.352 3.783 3.783 0 0 1-.5-1.93c0-.71.167-1.354.5-1.93a3.562 3.562 0 0 1 1.378-1.353 3.96 3.96 0 0 1 1.957-.487c.72 0 1.37.162 1.95.487.58.325 1.036.776 1.365 1.352.33.577.494 1.22.494 1.93 0 .712-.165 1.355-.494 1.931a3.528 3.528 0 0 1-1.365 1.352c-.58.325-1.23.488-1.95.488Zm7.89.78v-7.384l5.85 7.384h.794v-9.1h-.95v7.384l-5.862-7.384h-.793v9.1h.962Zm12.117.078c.745 0 1.374-.11 1.885-.332.511-.22.89-.52 1.137-.897a2.24 2.24 0 0 0 .37-1.254c0-.555-.142-.995-.428-1.32a2.656 2.656 0 0 0-1.047-.728c-.411-.16-.95-.322-1.618-.487a15.272 15.272 0 0 1-1.346-.384 2.172 2.172 0 0 1-.832-.507c-.22-.22-.331-.513-.331-.877 0-.485.201-.882.604-1.19.403-.307 1.004-.461 1.8-.461.417 0 .842.063 1.275.188.433.126.84.315 1.222.566l.325-.767a4.39 4.39 0 0 0-1.294-.592 5.51 5.51 0 0 0-1.527-.214c-.745 0-1.37.113-1.872.338-.503.225-.875.526-1.118.903a2.27 2.27 0 0 0-.364 1.255c0 .563.145 1.01.435 1.339.29.33.64.574 1.047.734.407.16.953.328 1.638.5a13.14 13.14 0 0 1 1.339.384c.32.117.591.284.812.5.221.218.332.508.332.872 0 .477-.204.864-.611 1.163-.407.3-1.018.449-1.833.449-.58 0-1.144-.102-1.69-.306-.546-.203-.984-.47-1.313-.8l-.377.742c.338.355.817.641 1.436.858.62.217 1.268.325 1.944.325Z" fill="#1E3D49" fill-rule="nonzero"/><rect stroke="#D3D3D3" fill="#FFF" x="200.341" y="42.5" width="515.517" height="23.5" rx="11.75"/><g transform="translate(697.18 49.087)" stroke="#D3D3D3"><circle fill="#FFF" cx="4.78" cy="4.78" r="4.28"/><path stroke-linecap="round" d="m8.293 7.817 2.765 2.764"/></g><rect fill="#E2E6E7" opacity=".614" x="40" y="36.5" width="136" height="35.5" rx="3"/><rect fill="#E2E6E7" opacity=".614" x="40" y="84.968" width="136" height="16" rx="3"/><rect fill="#E2E6E7" opacity=".614" x="40" y="108.968" width="89" height="11" rx="2"/><rect fill="#E2E6E7" opacity=".614" x="40" y="127.968" width="78" height="11" rx="2"/><rect fill="#E2E6E7" opacity=".614" x="40" y="146.968" width="97.281" height="11" rx="2"/><rect fill="#E2E6E7" opacity=".614" x="40" y="165.968" width="71.36" height="11" rx="2"/><rect fill="#E2E6E7" opacity=".614" x="40" y="276.436" width="136" height="16" rx="3"/><rect fill="#E2E6E7" opacity=".614" x="40" y="300.436" width="89" height="11" rx="2"/><rect fill="#E2E6E7" opacity=".614" x="40" y="319.436" width="103" height="11" rx="2"/><rect fill="#E2E6E7" opacity=".614" x="40" y="338.436" width="64" height="11" rx="2"/><rect fill="#E2E6E7" opacity=".614" x="40" y="357.436" width="78" height="11" rx="2"/><rect fill="#E2E6E7" opacity=".614" x="40" y="184.968" width="111" height="11" rx="2"/><rect fill="#E2E6E7" opacity=".614" x="40" y="203.968" width="97" height="11" rx="2"/><rect fill="#E2E6E7" opacity=".614" x="40" y="222.968" width="59" height="11" rx="2"/><rect fill="#E2E6E7" opacity=".614" x="40" y="241.968" width="103" height="11" rx="2"/><rect fill="#CFD4D7" x="209.827" y="49.087" width="55.271" height="10.581" rx="3"/><path d="M493.489 173.968h18.5a4 4 0 0 1 4 4v18.5a4 4 0 0 1-4 4h-18.5a4 4 0 0 1-4-4v-18.5a4 4 0 0 1 4-4Z" fill="#1E3D49"/><text font-family="Montserrat-Regular, Montserrat" font-size="13" fill="#FFF" transform="translate(489.489 173.968)">
                <tspan x="8.576" y="17.25">C</tspan>
            </text><path d="M165.25 219.496h18.5a4 4 0 0 1 4 4v18.5a4 4 0 0 1-4 4h-18.5a4 4 0 0 1-4-4v-18.5a4 4 0 0 1 4-4Z" fill="#FDCB5B"/><text font-family="Montserrat-Regular, Montserrat" font-size="13" fill="#1E3D49" transform="translate(161.25 219.496)">
                <tspan x="8.349" y="17.25">B</tspan>
            </text><path fill="#FDCB5B" d="M186.75 229.121v8l4-4"/><path d="M165.25 110.126h18.5a4 4 0 0 1 4 4v18.5a4 4 0 0 1-4 4h-18.5a4 4 0 0 1-4-4v-18.5a4 4 0 0 1 4-4Z" fill="#80C0A1"/><text font-family="Montserrat-Regular, Montserrat" font-size="13" fill="#FFF" transform="translate(161.25 110.126)">
                <tspan x="8.589" y="17.25">A</tspan>
            </text><path fill="#80C0A1" d="M186.75 119.75v8l4-4"/><path d="M447.682 396.68h18.5a4 4 0 0 1 4 4v18.5a4 4 0 0 1-4 4h-18.5a4 4 0 0 1-4-4v-18.5a4 4 0 0 1 4-4Z" fill="#0086B2"/><text font-family="Montserrat-Regular, Montserrat" font-size="13" fill="#FFF" transform="translate(443.682 396.68)">
                <tspan x="7.881" y="17.25">D</tspan>
            </text><path d="M503.5 200v9.263a4.5 4.5 0 0 1-4.288 4.495l-.212.005H329a3.5 3.5 0 0 0-3.495 3.308l-.005.192v6.265a4.5 4.5 0 1 1-1 0v-6.265a4.5 4.5 0 0 1 4.288-4.495l.212-.005h170a3.5 3.5 0 0 0 3.495-3.308l.005-.192V200h1ZM325 224.5a3.5 3.5 0 1 0 0 7 3.5 3.5 0 0 0 0-7Z" fill="#1E3D49" fill-rule="nonzero"/><path d="M503.5 200v9.263a4.5 4.5 0 0 1-4.288 4.495l-.212.005h-82a3.5 3.5 0 0 0-3.495 3.308l-.005.192v6.265a4.5 4.5 0 1 1-1 0v-6.265a4.5 4.5 0 0 1 4.288-4.495l.212-.005h82a3.5 3.5 0 0 0 3.495-3.308l.005-.192V200h1ZM413 224.5a3.5 3.5 0 1 0 0 7 3.5 3.5 0 0 0 0-7Z" fill="#1E3D49" fill-rule="nonzero"/><path d="M502.5 200v9.263a4.5 4.5 0 0 0 4.288 4.495l.212.005h78a3.5 3.5 0 0 1 3.495 3.308l.005.192v6.265a4.5 4.5 0 1 0 1 0v-6.265a4.5 4.5 0 0 0-4.288-4.495l-.212-.005h-78a3.5 3.5 0 0 1-3.495-3.308l-.005-.192V200h-1Zm86.5 24.5a3.5 3.5 0 1 1 0 7 3.5 3.5 0 0 1 0-7Z" fill="#1E3D49" fill-rule="nonzero"/><path d="M502.5 200v9.263a4.5 4.5 0 0 0 4.288 4.495l.212.005h166a3.5 3.5 0 0 1 3.495 3.308l.005.192v6.265a4.5 4.5 0 1 0 1 0v-6.265a4.5 4.5 0 0 0-4.288-4.495l-.212-.005H507a3.5 3.5 0 0 1-3.495-3.308l-.005-.192V200h-1ZM677 224.5a3.5 3.5 0 1 1 0 7 3.5 3.5 0 0 1 0-7Z" fill="#1E3D49" fill-rule="nonzero"/><path d="M503.5 200v20.58a4.5 4.5 0 1 1-1 0V200h1Zm-.5 21.553a3.5 3.5 0 1 0 0 7 3.5 3.5 0 0 0 0-7Z" fill="#1E3D49" fill-rule="nonzero"/></g></svg>