<svg width="766" height="466" xmlns="http://www.w3.org/2000/svg"><g fill="none" fill-rule="evenodd"><rect fill="#80C0A1" x="198.235" y="186.72" width="78.454" height="92.052" rx="6"/><g transform="translate(286.13 186.72)"><rect fill="#E2E6E7" width="78.646" height="92.052" rx="5"/><rect fill="#FFF" x="7.591" y="6.328" width="63.464" height="49.798" rx="4.266"/><rect width="40.66" height="6.276" rx="3.138" transform="translate(17.897 62.029)" fill="#BBC3C6"/><rect width="63.395" height="11.778" rx="5.889" transform="translate(6.53 73.946)" fill="#BBC3C6"/></g><g transform="translate(374.026 186.72)"><rect fill="#E2E6E7" width="78.646" height="92.052" rx="5"/><rect fill="#FFF" x="7.591" y="6.328" width="63.464" height="49.798" rx="4.266"/><rect width="40.66" height="6.276" rx="3.138" transform="translate(17.897 62.029)" fill="#BBC3C6"/><rect width="63.395" height="11.778" rx="5.889" transform="translate(6.53 73.946)" fill="#BBC3C6"/></g><g transform="translate(461.92 186.72)"><rect fill="#E2E6E7" width="78.646" height="92.052" rx="5"/><rect fill="#FFF" x="7.591" y="6.328" width="63.464" height="49.798" rx="4.266"/><rect width="40.66" height="6.276" rx="3.138" transform="translate(17.897 62.029)" fill="#BBC3C6"/><rect width="63.395" height="11.778" rx="5.889" transform="translate(6.53 73.946)" fill="#BBC3C6"/></g><g transform="translate(549.816 186.72)"><rect fill="#E2E6E7" width="78.646" height="92.052" rx="5"/><rect fill="#FFF" x="7.591" y="6.328" width="63.464" height="49.798" rx="4.266"/><rect width="40.66" height="6.276" rx="3.138" transform="translate(17.897 62.029)" fill="#BBC3C6"/><rect width="63.395" height="11.778" rx="5.889" transform="translate(6.53 73.946)" fill="#BBC3C6"/></g><g transform="translate(637.71 186.72)"><rect fill="#E2E6E7" width="78.646" height="92.052" rx="5"/><rect fill="#FFF" x="7.591" y="6.328" width="63.464" height="49.798" rx="4.266"/><rect width="40.66" height="6.276" rx="3.138" transform="translate(17.897 62.029)" fill="#BBC3C6"/><rect width="63.395" height="11.778" rx="5.889" transform="translate(6.53 73.946)" fill="#BBC3C6"/></g><g transform="translate(286.13 299.524)"><rect fill="#E2E6E7" width="78.646" height="92.052" rx="5"/><rect fill="#FFF" x="7.591" y="6.328" width="63.464" height="49.798" rx="4.266"/><rect width="40.66" height="6.276" rx="3.138" transform="translate(17.897 62.029)" fill="#BBC3C6"/><rect width="63.395" height="11.778" rx="5.889" transform="translate(6.53 73.946)" fill="#BBC3C6"/></g><g transform="translate(374.026 299.524)"><rect fill="#E2E6E7" width="78.646" height="92.052" rx="5"/><rect fill="#FFF" x="7.591" y="6.328" width="63.464" height="49.798" rx="4.266"/><rect width="40.66" height="6.276" rx="3.138" transform="translate(17.897 62.029)" fill="#BBC3C6"/><rect width="63.395" height="11.778" rx="5.889" transform="translate(6.53 73.946)" fill="#BBC3C6"/></g><g transform="translate(461.92 299.524)"><rect fill="#E2E6E7" width="78.646" height="92.052" rx="5"/><rect fill="#FFF" x="7.591" y="6.328" width="63.464" height="49.798" rx="4.266"/><rect width="40.66" height="6.276" rx="3.138" transform="translate(17.897 62.029)" fill="#BBC3C6"/><rect width="63.395" height="11.778" rx="5.889" transform="translate(6.53 73.946)" fill="#BBC3C6"/></g><g transform="translate(549.816 299.524)"><rect fill="#E2E6E7" width="78.646" height="92.052" rx="5"/><rect fill="#FFF" x="7.591" y="6.328" width="63.464" height="49.798" rx="4.266"/><rect width="40.66" height="6.276" rx="3.138" transform="translate(17.897 62.029)" fill="#BBC3C6"/><rect width="63.395" height="11.778" rx="5.889" transform="translate(6.53 73.946)" fill="#BBC3C6"/></g><g transform="translate(637.71 299.524)"><rect fill="#E2E6E7" width="78.646" height="92.052" rx="5"/><rect fill="#FFF" x="7.591" y="6.328" width="63.464" height="49.798" rx="4.266"/><rect width="40.66" height="6.276" rx="3.138" transform="translate(17.897 62.029)" fill="#BBC3C6"/><rect width="63.395" height="11.778" rx="5.889" transform="translate(6.53 73.946)" fill="#BBC3C6"/></g><g transform="translate(286.13 412.329)"><rect fill="#E2E6E7" width="78.646" height="92.052" rx="5"/><rect fill="#FFF" x="7.591" y="6.328" width="63.464" height="49.798" rx="4.266"/><rect width="40.66" height="6.276" rx="3.138" transform="translate(17.897 62.029)" fill="#BBC3C6"/><rect width="63.395" height="11.778" rx="5.889" transform="translate(6.53 73.946)" fill="#BBC3C6"/></g><g transform="translate(197.427 299.524)"><rect fill="#E2E6E7" width="78.646" height="92.052" rx="5"/><rect fill="#FFF" x="7.591" y="6.328" width="63.464" height="49.798" rx="4.266"/><rect width="40.66" height="6.276" rx="3.138" transform="translate(17.897 62.029)" fill="#BBC3C6"/><rect width="63.395" height="11.778" rx="5.889" transform="translate(6.53 73.946)" fill="#BBC3C6"/></g><g transform="translate(197.427 412.329)"><rect fill="#E2E6E7" width="78.646" height="92.052" rx="5"/><rect fill="#FFF" x="7.591" y="6.328" width="63.464" height="49.798" rx="4.266"/><rect width="40.66" height="6.276" rx="3.138" transform="translate(17.897 62.029)" fill="#BBC3C6"/><rect width="63.395" height="11.778" rx="5.889" transform="translate(6.53 73.946)" fill="#BBC3C6"/></g><g transform="translate(374.026 412.329)"><rect fill="#E2E6E7" width="78.646" height="92.052" rx="5"/><rect fill="#FFF" x="7.591" y="6.328" width="63.464" height="49.798" rx="4.266"/><rect width="40.66" height="6.276" rx="3.138" transform="translate(17.897 62.029)" fill="#BBC3C6"/><rect width="63.395" height="11.778" rx="5.889" transform="translate(6.53 73.946)" fill="#BBC3C6"/></g><g transform="translate(461.92 412.329)"><rect fill="#E2E6E7" width="78.646" height="92.052" rx="5"/><rect fill="#FFF" x="7.591" y="6.328" width="63.464" height="49.798" rx="4.266"/><rect width="40.66" height="6.276" rx="3.138" transform="translate(17.897 62.029)" fill="#BBC3C6"/><rect width="63.395" height="11.778" rx="5.889" transform="translate(6.53 73.946)" fill="#BBC3C6"/></g><g transform="translate(549.816 412.329)"><rect fill="#E2E6E7" width="78.646" height="92.052" rx="5"/><rect fill="#FFF" x="7.591" y="6.328" width="63.464" height="49.798" rx="4.266"/><rect width="40.66" height="6.276" rx="3.138" transform="translate(17.897 62.029)" fill="#BBC3C6"/><rect width="63.395" height="11.778" rx="5.889" transform="translate(6.53 73.946)" fill="#BBC3C6"/></g><g transform="translate(637.71 412.329)"><rect fill="#E2E6E7" width="78.646" height="92.052" rx="5"/><rect fill="#FFF" x="7.591" y="6.328" width="63.464" height="49.798" rx="4.266"/><rect width="40.66" height="6.276" rx="3.138" transform="translate(17.897 62.029)" fill="#BBC3C6"/><rect width="63.395" height="11.778" rx="5.889" transform="translate(6.53 73.946)" fill="#BBC3C6"/></g><rect fill="#80C0A1" x="198.235" y="84.968" width="517.697" height="81" rx="6"/><rect stroke="#D3D3D3" fill="#FFF" x="200.341" y="42.5" width="515.517" height="23.5" rx="11.75"/><g transform="translate(697.18 49.087)" stroke="#D3D3D3"><circle fill="#FFF" cx="4.78" cy="4.78" r="4.28"/><path stroke-linecap="round" d="m8.293 7.817 2.765 2.764"/></g><rect fill="#E2E6E7" opacity=".614" x="40" y="36.5" width="136" height="35.5" rx="3"/><rect fill="#E2E6E7" opacity=".614" x="40" y="84.968" width="136" height="16" rx="3"/><rect fill="#E2E6E7" opacity=".614" x="40" y="108.968" width="89" height="11" rx="2"/><rect fill="#E2E6E7" opacity=".614" x="40" y="127.968" width="78" height="11" rx="2"/><rect fill="#E2E6E7" opacity=".614" x="40" y="146.968" width="97.281" height="11" rx="2"/><rect fill="#E2E6E7" opacity=".614" x="40" y="165.968" width="71.36" height="11" rx="2"/><rect fill="#E2E6E7" opacity=".614" x="40" y="276.436" width="136" height="16" rx="3"/><rect fill="#E2E6E7" opacity=".614" x="40" y="300.436" width="89" height="11" rx="2"/><rect fill="#E2E6E7" opacity=".614" x="40" y="319.436" width="103" height="11" rx="2"/><rect fill="#E2E6E7" opacity=".614" x="40" y="338.436" width="64" height="11" rx="2"/><rect fill="#E2E6E7" opacity=".614" x="40" y="357.436" width="78" height="11" rx="2"/><rect fill="#E2E6E7" opacity=".614" x="40" y="184.968" width="111" height="11" rx="2"/><rect fill="#E2E6E7" opacity=".614" x="40" y="203.968" width="97" height="11" rx="2"/><rect fill="#E2E6E7" opacity=".614" x="40" y="222.968" width="59" height="11" rx="2"/><rect fill="#E2E6E7" opacity=".614" x="40" y="241.968" width="103" height="11" rx="2"/><rect fill="#80C0A1" x="209.827" y="49.087" width="55.271" height="10.581" rx="3"/><path d="M165.25 219.496h18.5a4 4 0 0 1 4 4v18.5a4 4 0 0 1-4 4h-18.5a4 4 0 0 1-4-4v-18.5a4 4 0 0 1 4-4Z" fill="#80C0A1"/><text font-family="Montserrat-Regular, Montserrat" font-size="13" fill="#FFF" transform="translate(161.25 219.496)">
                <tspan x="8.349" y="17.25">B</tspan>
            </text><path fill="#80C0A1" d="M186.75 229.121v8l4-4"/><g><path d="M165.25 110.126h18.5a4 4 0 0 1 4 4v18.5a4 4 0 0 1-4 4h-18.5a4 4 0 0 1-4-4v-18.5a4 4 0 0 1 4-4Z" fill="#80C0A1"/><text font-family="Montserrat-Regular, Montserrat" font-size="13" fill="#FFF" transform="translate(161.25 110.126)">
                <tspan x="8.589" y="17.25">A</tspan>
            </text><path fill="#80C0A1" d="M186.75 119.75v8l4-4"/></g><rect stroke="#202020" stroke-width="21.443" x="9.807" y="10.279" width="745.443" height="445.443" rx="7.213"/></g></svg>