<svg width="730" height="473" xmlns="http://www.w3.org/2000/svg" xmlns:xlink="http://www.w3.org/1999/xlink"><defs><filter x="-5.9%" y="-13%" width="123.7%" height="151.9%" filterUnits="objectBoundingBox" id="a"><feOffset dx="43" dy="43" in="SourceAlpha" result="shadowOffsetOuter1"/><feGaussianBlur stdDeviation="16" in="shadowOffsetOuter1" result="shadowBlurOuter1"/><feComposite in="shadowBlurOuter1" in2="SourceAlpha" operator="out" result="shadowBlurOuter1"/><feColorMatrix values="0 0 0 0 0.522616621 0 0 0 0 0.522616621 0 0 0 0 0.522616621 0 0 0 0.101016171 0" in="shadowBlurOuter1"/></filter><filter color-interpolation-filters="auto" id="c"><feColorMatrix in="SourceGraphic" values="0 0 0 0 0.141176 0 0 0 0 0.235294 0 0 0 0 0.278431 0 0 0 0.512729 0"/></filter><path d="M8.721 0h615.558A8.721 8.721 0 0 1 633 8.721v278.558c0 .95-.77 1.721-1.721 1.721H1.72C.771 289 0 288.23 0 287.279V8.72A8.721 8.721 0 0 1 8.721 0Z" id="b"/></defs><g transform="translate(21.365 22)" fill="none" fill-rule="evenodd"><path fill="#80C0A1" opacity=".25" d="M.164 306.821h633v143.363h-633z"/><rect fill="#53B9C9" x="40.762" y="149.62" width="494.079" height="30.606" rx="15.303"/><rect fill="#53B9C9" x="40.354" y="239.826" width="556.638" height="133.698" rx="5.1"/><rect fill="#53B9C9" opacity=".354" x="559.406" y="149.62" width="37.405" height="29.984" rx="14.992"/><rect fill="#53B9C9" x="40.354" y="209.22" width="104.495" height="9.665" rx="4.832"/><rect fill="#BBC3C6" x="40.354" y="394.464" width="166.79" height="51" rx="1.7"/><rect fill="#BBC3C6" x="233.269" y="394.464" width="168.8" height="51" rx="1.7"/><rect fill="#BBC3C6" x="430.202" y="394.464" width="166.79" height="51" rx="1.7"/><rect fill="#53B9C9" x="154.897" y="209.22" width="104.495" height="9.665" rx="4.832"/><rect fill="#53B9C9" x="269.44" y="209.22" width="104.495" height="9.665" rx="4.832"/><ellipse fill="#FFF" cx="593.978" cy="306.675" rx="15" ry="15.303"/><ellipse fill="#FFF" cx="39.35" cy="306.675" rx="15" ry="15.303"/><rect stroke="#202020" stroke-width="21.443" x="-10.557" y="-10.721" width="654.443" height="445.443" rx="7.213"/><g><use fill="#000" filter="url(#a)" xlink:href="#b"/><use fill-opacity=".882" fill="#F2F2F2" xlink:href="#b"/><rect fill-opacity=".593" fill="#FFF" y="92.854" width="633" height="196" rx="1.721"/><rect stroke="#C9C9C9" stroke-width=".861" fill="#FFF" x="59.907" y="36.111" width="512.337" height="29.245" rx="14.622"/><g opacity=".341" stroke-linecap="round" stroke-linejoin="round"><g filter="url(#c)" transform="translate(541.603 40.508)"><g transform="translate(2.346 2.474)" stroke="#BBC3C6" stroke-width="2.25"><ellipse cx="6.255" cy="6.598" rx="6.255" ry="6.598"/><path d="m14.074 14.846-3.402-3.588"/></g></g></g></g><g stroke="#1E3D49" stroke-linecap="round" stroke-linejoin="round"><path d="m254.296 156.238 3.382-3.384 2.382 2.384 4.957-4.96"/><path d="M261.467 149.863h3.998v4"/></g><g stroke="#1E3D49" stroke-linecap="round" stroke-linejoin="round"><path d="m254.296 180.874 3.382-3.384 2.382 2.384 4.957-4.959"/><path d="M261.467 174.5h3.998v4"/></g><g stroke="#1E3D49" stroke-linecap="round" stroke-linejoin="round"><path d="m254.296 207.21 3.382-3.384 2.382 2.384 4.957-4.96"/><path d="M261.467 200.835h3.998v4"/></g><g stroke="#1E3D49" stroke-linecap="round" stroke-linejoin="round"><path d="m254.296 233.545 3.382-3.384 2.382 2.384 4.957-4.959"/><path d="M261.467 227.17h3.998v4"/></g><g stroke="#1E3D49" stroke-linecap="round" stroke-linejoin="round"><path d="m254.296 259.881 3.382-3.384 2.382 2.384 4.957-4.959"/><path d="M261.467 253.506h3.998v4"/></g><path stroke="#BDBDBD" stroke-width=".5" d="m251.306 164.579 149.488.213M251.306 190.915l149.488.212"/><g transform="translate(80.062 146.863)" stroke="#1E3D49"><ellipse cx="5.997" cy="6" rx="4.997" ry="5"/><path stroke-linecap="round" stroke-linejoin="round" d="M5.997 3v3l1.999 2"/></g><g transform="translate(80.062 171.5)" stroke="#1E3D49"><ellipse cx="5.997" cy="6" rx="4.997" ry="5"/><path stroke-linecap="round" stroke-linejoin="round" d="M5.997 3v3l1.999 2"/></g><g transform="translate(80.062 197.835)" stroke="#1E3D49"><ellipse cx="5.997" cy="6" rx="4.997" ry="5"/><path stroke-linecap="round" stroke-linejoin="round" d="M5.997 3v3l1.999 2"/></g><path stroke="#BDBDBD" stroke-width=".5" d="m79.398 164.579 149.487.213M79.398 190.915l149.487.212M79.398 217.25l149.487.213M249.398 217.25l149.487.213M249.398 243.586l149.487.212"/><g transform="translate(78.062 222.17)"><path d="M15.726 13.652c.477 0 .914-.083 1.311-.25a2.66 2.66 0 0 0 1.004-.724l-.7-.666c-.422.46-.94.69-1.557.69-.4 0-.758-.087-1.074-.262a1.89 1.89 0 0 1-.741-.728 2.093 2.093 0 0 1-.267-1.058c0-.394.089-.747.267-1.057a1.89 1.89 0 0 1 .74-.73 2.183 2.183 0 0 1 1.075-.261 2.04 2.04 0 0 1 1.557.682l.7-.657a2.667 2.667 0 0 0-1-.725 3.326 3.326 0 0 0-1.307-.25c-.588 0-1.12.13-1.595.387a2.884 2.884 0 0 0-1.12 1.07 2.945 2.945 0 0 0-.408 1.541c0 .572.135 1.085.404 1.54.27.456.641.813 1.116 1.07a3.283 3.283 0 0 0 1.595.388Zm7.486-.083v-.916h-3.048V7.739h-1.082v5.83h4.13Zm5.23 0v-.908h-3.29v-1.607h2.815v-.891h-2.815V8.647h3.173V7.74H24.07v5.83h4.372Zm1.499 0 .574-1.35h2.915l.583 1.35h1.132l-2.631-5.83h-1.066l-2.623 5.83h1.116Zm3.13-2.199h-2.19l1.092-2.548 1.099 2.548Zm3.898 2.199v-1.7h1.316c.1 0 .175-.002.225-.007l1.19 1.707h1.166l-1.34-1.916c.4-.155.706-.391.92-.707.214-.317.32-.694.32-1.133 0-.427-.1-.797-.3-1.108a1.92 1.92 0 0 0-.861-.716c-.375-.166-.815-.25-1.32-.25h-2.398v5.83h1.082Zm1.266-2.59h-1.266V8.656h1.266c.472 0 .83.1 1.074.3.244.2.367.485.367.857s-.123.66-.367.862c-.244.203-.602.304-1.074.304Zm6.329 2.59.574-1.35h2.915l.583 1.35h1.132l-2.631-5.83h-1.066l-2.623 5.83h1.116Zm3.13-2.199h-2.19l1.092-2.548 1.099 2.548Zm6.946 2.199v-.916h-3.048V7.739H50.51v5.83h4.13Zm4.988 0v-.916H56.58V7.739h-1.082v5.83h4.13Z" fill="#243C47" fill-rule="nonzero"/><rect stroke="#1E3D49" x=".5" y=".5" width="71.464" height="20.5" rx="10.25"/></g><g stroke="#1E3D49" stroke-linecap="round" stroke-linejoin="round"><path d="m219.033 150.329 4.998 5M224.099 150.329l-4.998 5"/></g><g stroke="#1E3D49" stroke-linecap="round" stroke-linejoin="round"><path d="m219.033 175.329 4.998 5M224.099 175.329l-4.998 5"/></g><g stroke="#1E3D49" stroke-linecap="round" stroke-linejoin="round"><path d="m219.033 201.329 4.998 5M224.099 201.329l-4.998 5"/></g><path d="M102.675 158.328v-3.516c.264.408.602.718 1.014.93.412.212.874.318 1.386.318.6 0 1.138-.134 1.614-.402.476-.268.85-.646 1.122-1.134.272-.488.408-1.048.408-1.68 0-.624-.136-1.18-.408-1.668a2.875 2.875 0 0 0-1.128-1.134 3.242 3.242 0 0 0-1.608-.402c-.528 0-1.002.112-1.422.336-.42.224-.758.544-1.014.96v-1.248h-.816v8.64h.852Zm2.34-3.024c-.448 0-.85-.102-1.206-.306a2.173 2.173 0 0 1-.84-.87 2.649 2.649 0 0 1-.306-1.284c0-.48.102-.906.306-1.278.204-.372.484-.662.84-.87a2.346 2.346 0 0 1 1.206-.312c.44 0 .84.104 1.2.312.36.208.642.498.846.87.204.372.306.798.306 1.278s-.102.908-.306 1.284a2.161 2.161 0 0 1-.846.87c-.36.204-.76.306-1.2.306Zm6.72.756c.512 0 .954-.092 1.326-.276.372-.184.654-.44.846-.768V156h.816v-3.912c0-.808-.22-1.418-.66-1.83-.44-.412-1.072-.618-1.896-.618-.496 0-.968.074-1.416.222a3.405 3.405 0 0 0-1.152.63l.384.636c.264-.232.58-.414.948-.546a3.386 3.386 0 0 1 1.152-.198c.584 0 1.028.142 1.332.426.304.284.456.698.456 1.242v.384h-2.004c-.848 0-1.466.164-1.854.492-.388.328-.582.76-.582 1.296 0 .552.208.996.624 1.332.416.336.976.504 1.68.504Zm.132-.672c-.504 0-.896-.106-1.176-.318-.28-.212-.42-.502-.42-.87 0-.752.54-1.128 1.62-1.128h1.98v1.032a1.97 1.97 0 0 1-.768.954c-.344.22-.756.33-1.236.33Zm6.024.612v-3.312c0-.712.198-1.27.594-1.674.396-.404.934-.606 1.614-.606.608 0 1.076.172 1.404.516.328.344.492.844.492 1.5V156h.852v-3.66c0-.88-.234-1.55-.702-2.01-.468-.46-1.098-.69-1.89-.69-.544 0-1.022.106-1.434.318a2.37 2.37 0 0 0-.966.894v-1.164h-.816V156h.852Zm9.264.06c.256 0 .502-.038.738-.114.236-.076.434-.186.594-.33l-.3-.612c-.12.104-.262.184-.426.24a1.567 1.567 0 0 1-.51.084c-.352 0-.622-.098-.81-.294-.188-.196-.282-.482-.282-.858v-3.768h1.92v-.72h-1.92v-1.38h-.852v1.38h-1.128v.72h1.128v3.816c0 .584.16 1.036.48 1.356.32.32.776.48 1.368.48Zm4.572 0c.816 0 1.454-.162 1.914-.486.46-.324.69-.762.69-1.314 0-.408-.108-.728-.324-.96a1.78 1.78 0 0 0-.78-.492 11.043 11.043 0 0 0-1.212-.288 9.392 9.392 0 0 1-.96-.21 1.44 1.44 0 0 1-.582-.318.746.746 0 0 1-.234-.576c0-.312.138-.564.414-.756.276-.192.686-.288 1.23-.288.72 0 1.34.18 1.86.54l.372-.684c-.264-.176-.6-.318-1.008-.426a4.766 4.766 0 0 0-1.224-.162c-.784 0-1.396.168-1.836.504-.44.336-.66.768-.66 1.296 0 .424.11.756.33.996.22.24.486.41.798.51.312.1.724.198 1.236.294.384.064.692.13.924.198.232.068.424.168.576.3.152.132.228.314.228.546a.86.86 0 0 1-.414.762c-.276.18-.702.27-1.278.27-.432 0-.848-.066-1.248-.198a3.233 3.233 0 0 1-.996-.51l-.384.672c.264.224.63.41 1.098.558.468.148.958.222 1.47.222Zm-28.128 26c.512 0 .954-.092 1.326-.276.372-.184.654-.44.846-.768V182h.816v-3.912c0-.808-.22-1.418-.66-1.83-.44-.412-1.072-.618-1.896-.618-.496 0-.968.074-1.416.222a3.405 3.405 0 0 0-1.152.63l.384.636c.264-.232.58-.414.948-.546a3.386 3.386 0 0 1 1.152-.198c.584 0 1.028.142 1.332.426.304.284.456.698.456 1.242v.384h-2.004c-.848 0-1.466.164-1.854.492-.388.328-.582.76-.582 1.296 0 .552.208.996.624 1.332.416.336.976.504 1.68.504Zm.132-.672c-.504 0-.896-.106-1.176-.318-.28-.212-.42-.502-.42-.87 0-.752.54-1.128 1.62-1.128h1.98v1.032a1.97 1.97 0 0 1-.768.954c-.344.22-.756.33-1.236.33Zm6.024.612v-3.312c0-.712.198-1.27.594-1.674.396-.404.934-.606 1.614-.606.608 0 1.076.172 1.404.516.328.344.492.844.492 1.5V182h.852v-3.66c0-.88-.234-1.55-.702-2.01-.468-.46-1.098-.69-1.89-.69-.544 0-1.022.106-1.434.318a2.37 2.37 0 0 0-.966.894v-1.164h-.816V182h.852Zm7.704-7.692c.176 0 .324-.06.444-.18s.18-.268.18-.444c0-.16-.06-.298-.18-.414a.614.614 0 0 0-.444-.174.603.603 0 0 0-.444.18c-.12.12-.18.26-.18.42 0 .168.06.312.18.432s.268.18.444.18Zm.42 7.692v-6.312h-.852V182h.852Zm3.228 0v-3.312c0-.712.19-1.27.57-1.674.38-.404.894-.606 1.542-.606.584 0 1.034.172 1.35.516.316.344.474.844.474 1.5V182h.852v-3.312c0-.712.188-1.27.564-1.674.376-.404.892-.606 1.548-.606.576 0 1.022.172 1.338.516.316.344.474.844.474 1.5V182h.852v-3.66c0-.888-.226-1.56-.678-2.016-.452-.456-1.074-.684-1.866-.684-.56 0-1.058.118-1.494.354a2.46 2.46 0 0 0-1.002.978 2.066 2.066 0 0 0-.87-.996c-.388-.224-.846-.336-1.374-.336-.52 0-.98.104-1.38.312-.4.208-.712.504-.936.888v-1.152h-.816V182h.852Zm13.656.06c.512 0 .954-.092 1.326-.276.372-.184.654-.44.846-.768V182h.816v-3.912c0-.808-.22-1.418-.66-1.83-.44-.412-1.072-.618-1.896-.618-.496 0-.968.074-1.416.222a3.405 3.405 0 0 0-1.152.63l.384.636c.264-.232.58-.414.948-.546a3.386 3.386 0 0 1 1.152-.198c.584 0 1.028.142 1.332.426.304.284.456.698.456 1.242v.384h-2.004c-.848 0-1.466.164-1.854.492-.388.328-.582.76-.582 1.296 0 .552.208.996.624 1.332.416.336.976.504 1.68.504Zm.132-.672c-.504 0-.896-.106-1.176-.318-.28-.212-.42-.502-.42-.87 0-.752.54-1.128 1.62-1.128h1.98v1.032a1.97 1.97 0 0 1-.768.954c-.344.22-.756.33-1.236.33Zm6.024.612v-8.904h-.852V182h.852Zm6.372 2.328v-3.516c.264.408.602.718 1.014.93.412.212.874.318 1.386.318.6 0 1.138-.134 1.614-.402.476-.268.85-.646 1.122-1.134.272-.488.408-1.048.408-1.68 0-.624-.136-1.18-.408-1.668a2.875 2.875 0 0 0-1.128-1.134 3.242 3.242 0 0 0-1.608-.402c-.528 0-1.002.112-1.422.336-.42.224-.758.544-1.014.96v-1.248h-.816v8.64h.852Zm2.34-3.024c-.448 0-.85-.102-1.206-.306a2.173 2.173 0 0 1-.84-.87 2.649 2.649 0 0 1-.306-1.284c0-.48.102-.906.306-1.278.204-.372.484-.662.84-.87a2.346 2.346 0 0 1 1.206-.312c.44 0 .84.104 1.2.312.36.208.642.498.846.87.204.372.306.798.306 1.278s-.102.908-.306 1.284a2.161 2.161 0 0 1-.846.87c-.36.204-.76.306-1.2.306Zm5.796.696v-3.216c0-.736.188-1.308.564-1.716.376-.408.896-.612 1.56-.612l.204.012v-.828c-.584 0-1.074.108-1.47.324a2.065 2.065 0 0 0-.894.96v-1.236h-.816V182h.852Zm4.392-7.692c.176 0 .324-.06.444-.18s.18-.268.18-.444c0-.16-.06-.298-.18-.414a.614.614 0 0 0-.444-.174.603.603 0 0 0-.444.18c-.12.12-.18.26-.18.42 0 .168.06.312.18.432s.268.18.444.18Zm.42 7.692v-6.312h-.852V182h.852Zm3.228 0v-3.312c0-.712.198-1.27.594-1.674.396-.404.934-.606 1.614-.606.608 0 1.076.172 1.404.516.328.344.492.844.492 1.5V182h.852v-3.66c0-.88-.234-1.55-.702-2.01-.468-.46-1.098-.69-1.89-.69-.544 0-1.022.106-1.434.318a2.37 2.37 0 0 0-.966.894v-1.164h-.816V182h.852Zm9.264.06c.256 0 .502-.038.738-.114.236-.076.434-.186.594-.33l-.3-.612c-.12.104-.262.184-.426.24a1.567 1.567 0 0 1-.51.084c-.352 0-.622-.098-.81-.294-.188-.196-.282-.482-.282-.858v-3.768h1.92v-.72h-1.92v-1.38h-.852v1.38h-1.128v.72h1.128v3.816c0 .584.16 1.036.48 1.356.32.32.776.48 1.368.48Zm-68.22 28.328c1.056 0 1.846-.258 2.37-.774s.786-1.31.786-2.382v-5.544h-.816v1.212a2.617 2.617 0 0 0-1.044-.936 3.202 3.202 0 0 0-1.452-.324c-.6 0-1.14.128-1.62.384a2.86 2.86 0 0 0-1.134 1.08 3.039 3.039 0 0 0-.414 1.584c0 .592.138 1.122.414 1.59a2.88 2.88 0 0 0 1.14 1.092c.484.26 1.022.39 1.614.39.52 0 .994-.104 1.422-.312a2.568 2.568 0 0 0 1.038-.912v.804c0 .784-.188 1.362-.564 1.734-.376.372-.964.558-1.764.558-.48 0-.938-.076-1.374-.228a3.242 3.242 0 0 1-1.11-.636l-.432.648c.328.304.754.542 1.278.714a5.295 5.295 0 0 0 1.662.258Zm-.072-3.384c-.456 0-.866-.098-1.23-.294a2.134 2.134 0 0 1-.852-.822 2.35 2.35 0 0 1-.306-1.2c0-.448.102-.848.306-1.2.204-.352.488-.624.852-.816a2.596 2.596 0 0 1 1.23-.288c.464 0 .878.098 1.242.294.364.196.648.468.852.816.204.348.306.746.306 1.194 0 .448-.102.848-.306 1.2-.204.352-.49.626-.858.822-.368.196-.78.294-1.236.294Zm6.468.996v-3.216c0-.736.188-1.308.564-1.716.376-.408.896-.612 1.56-.612l.204.012v-.828c-.584 0-1.074.108-1.47.324a2.065 2.065 0 0 0-.894.96v-1.236h-.816V208h.852Zm6.636.06c.504 0 .966-.088 1.386-.264.42-.176.77-.432 1.05-.768l-.48-.552a2.36 2.36 0 0 1-.852.618c-.328.14-.688.21-1.08.21-.696 0-1.272-.202-1.728-.606-.456-.404-.708-.934-.756-1.59h5.28l.012-.264c0-.624-.132-1.178-.396-1.662a2.892 2.892 0 0 0-1.092-1.134 3.05 3.05 0 0 0-1.572-.408c-.584 0-1.11.136-1.578.408a2.91 2.91 0 0 0-1.104 1.14c-.268.488-.402 1.04-.402 1.656 0 .616.14 1.168.42 1.656.28.488.67.87 1.17 1.146.5.276 1.074.414 1.722.414Zm2.016-3.588h-4.476c.056-.624.29-1.13.702-1.518.412-.388.922-.582 1.53-.582.616 0 1.13.194 1.542.582.412.388.646.894.702 1.518Zm5.232 3.588c.504 0 .966-.088 1.386-.264.42-.176.77-.432 1.05-.768l-.48-.552a2.36 2.36 0 0 1-.852.618c-.328.14-.688.21-1.08.21-.696 0-1.272-.202-1.728-.606-.456-.404-.708-.934-.756-1.59h5.28l.012-.264c0-.624-.132-1.178-.396-1.662a2.892 2.892 0 0 0-1.092-1.134 3.05 3.05 0 0 0-1.572-.408c-.584 0-1.11.136-1.578.408a2.91 2.91 0 0 0-1.104 1.14c-.268.488-.402 1.04-.402 1.656 0 .616.14 1.168.42 1.656.28.488.67.87 1.17 1.146.5.276 1.074.414 1.722.414Zm2.016-3.588h-4.476c.056-.624.29-1.13.702-1.518.412-.388.922-.582 1.53-.582.616 0 1.13.194 1.542.582.412.388.646.894.702 1.518Zm3.408 3.528v-3.312c0-.712.198-1.27.594-1.674.396-.404.934-.606 1.614-.606.608 0 1.076.172 1.404.516.328.344.492.844.492 1.5V208h.852v-3.66c0-.88-.234-1.55-.702-2.01-.468-.46-1.098-.69-1.89-.69-.544 0-1.022.106-1.434.318a2.37 2.37 0 0 0-.966.894v-1.164h-.816V208h.852ZM277.515 156.06c.816 0 1.454-.162 1.914-.486.46-.324.69-.762.69-1.314 0-.408-.108-.728-.324-.96a1.78 1.78 0 0 0-.78-.492 11.043 11.043 0 0 0-1.212-.288 9.392 9.392 0 0 1-.96-.21 1.44 1.44 0 0 1-.582-.318.746.746 0 0 1-.234-.576c0-.312.138-.564.414-.756.276-.192.686-.288 1.23-.288.72 0 1.34.18 1.86.54l.372-.684c-.264-.176-.6-.318-1.008-.426a4.766 4.766 0 0 0-1.224-.162c-.784 0-1.396.168-1.836.504-.44.336-.66.768-.66 1.296 0 .424.11.756.33.996.22.24.486.41.798.51.312.1.724.198 1.236.294.384.064.692.13.924.198.232.068.424.168.576.3.152.132.228.314.228.546a.86.86 0 0 1-.414.762c-.276.18-.702.27-1.278.27-.432 0-.848-.066-1.248-.198a3.233 3.233 0 0 1-.996-.51l-.384.672c.264.224.63.41 1.098.558.468.148.958.222 1.47.222Zm6.78 0a2.78 2.78 0 0 0 1.344-.318c.392-.212.7-.51.924-.894V156h.816v-6.312h-.852V153c0 .72-.192 1.282-.576 1.686-.384.404-.908.606-1.572.606-.608 0-1.076-.172-1.404-.516-.328-.344-.492-.848-.492-1.512v-3.576h-.852v3.66c0 .888.238 1.562.714 2.022.476.46 1.126.69 1.95.69Zm6.324-.06v-3.312c0-.712.19-1.27.57-1.674.38-.404.894-.606 1.542-.606.584 0 1.034.172 1.35.516.316.344.474.844.474 1.5V156h.852v-3.312c0-.712.188-1.27.564-1.674.376-.404.892-.606 1.548-.606.576 0 1.022.172 1.338.516.316.344.474.844.474 1.5V156h.852v-3.66c0-.888-.226-1.56-.678-2.016-.452-.456-1.074-.684-1.866-.684-.56 0-1.058.118-1.494.354a2.46 2.46 0 0 0-1.002.978 2.066 2.066 0 0 0-.87-.996c-.388-.224-.846-.336-1.374-.336-.52 0-.98.104-1.38.312-.4.208-.712.504-.936.888v-1.152h-.816V156h.852Zm12.732 0v-3.312c0-.712.19-1.27.57-1.674.38-.404.894-.606 1.542-.606.584 0 1.034.172 1.35.516.316.344.474.844.474 1.5V156h.852v-3.312c0-.712.188-1.27.564-1.674.376-.404.892-.606 1.548-.606.576 0 1.022.172 1.338.516.316.344.474.844.474 1.5V156h.852v-3.66c0-.888-.226-1.56-.678-2.016-.452-.456-1.074-.684-1.866-.684-.56 0-1.058.118-1.494.354a2.46 2.46 0 0 0-1.002.978 2.066 2.066 0 0 0-.87-.996c-.388-.224-.846-.336-1.374-.336-.52 0-.98.104-1.38.312-.4.208-.712.504-.936.888v-1.152h-.816V156h.852Zm14.556.06c.504 0 .966-.088 1.386-.264.42-.176.77-.432 1.05-.768l-.48-.552a2.36 2.36 0 0 1-.852.618c-.328.14-.688.21-1.08.21-.696 0-1.272-.202-1.728-.606-.456-.404-.708-.934-.756-1.59h5.28l.012-.264c0-.624-.132-1.178-.396-1.662a2.892 2.892 0 0 0-1.092-1.134 3.05 3.05 0 0 0-1.572-.408c-.584 0-1.11.136-1.578.408a2.91 2.91 0 0 0-1.104 1.14c-.268.488-.402 1.04-.402 1.656 0 .616.14 1.168.42 1.656.28.488.67.87 1.17 1.146.5.276 1.074.414 1.722.414Zm-2.46-3.588c.056-.624.29-1.13.702-1.518.412-.388.922-.582 1.53-.582.616 0 1.13.194 1.542.582.412.388.646.894.702 1.518h-4.476Zm7.884 3.528v-3.216c0-.736.188-1.308.564-1.716.376-.408.896-.612 1.56-.612l.204.012v-.828c-.584 0-1.074.108-1.47.324a2.065 2.065 0 0 0-.894.96v-1.236h-.816V156h.852Zm9.612.06c.528 0 1.002-.112 1.422-.336.42-.224.758-.548 1.014-.972V156h.816v-8.904h-.852v3.792a2.627 2.627 0 0 0-1.014-.93 2.984 2.984 0 0 0-1.386-.318c-.592 0-1.128.134-1.608.402-.48.268-.856.646-1.128 1.134-.272.488-.408 1.044-.408 1.668 0 .624.136 1.18.408 1.668.272.488.648.868 1.128 1.14.48.272 1.016.408 1.608.408Zm.072-.756c-.448 0-.85-.102-1.206-.306a2.173 2.173 0 0 1-.84-.87 2.649 2.649 0 0 1-.306-1.284c0-.48.102-.908.306-1.284.204-.376.484-.666.84-.87a2.382 2.382 0 0 1 1.206-.306c.44 0 .838.102 1.194.306.356.204.636.494.84.87.204.376.306.804.306 1.284s-.102.908-.306 1.284a2.173 2.173 0 0 1-.84.87 2.358 2.358 0 0 1-1.194.306Zm6.408.696v-3.216c0-.736.188-1.308.564-1.716.376-.408.896-.612 1.56-.612l.204.012v-.828c-.584 0-1.074.108-1.47.324a2.065 2.065 0 0 0-.894.96v-1.236h-.816V156h.852Zm6.636.06c.504 0 .966-.088 1.386-.264.42-.176.77-.432 1.05-.768l-.48-.552a2.36 2.36 0 0 1-.852.618c-.328.14-.688.21-1.08.21-.696 0-1.272-.202-1.728-.606-.456-.404-.708-.934-.756-1.59h5.28l.012-.264c0-.624-.132-1.178-.396-1.662a2.892 2.892 0 0 0-1.092-1.134 3.05 3.05 0 0 0-1.572-.408c-.584 0-1.11.136-1.578.408a2.91 2.91 0 0 0-1.104 1.14c-.268.488-.402 1.04-.402 1.656 0 .616.14 1.168.42 1.656.28.488.67.87 1.17 1.146.5.276 1.074.414 1.722.414Zm-2.46-3.588c.056-.624.29-1.13.702-1.518.412-.388.922-.582 1.53-.582.616 0 1.13.194 1.542.582.412.388.646.894.702 1.518H343.6Zm8.724 3.588c.816 0 1.454-.162 1.914-.486.46-.324.69-.762.69-1.314 0-.408-.108-.728-.324-.96a1.78 1.78 0 0 0-.78-.492 11.043 11.043 0 0 0-1.212-.288 9.392 9.392 0 0 1-.96-.21 1.44 1.44 0 0 1-.582-.318.746.746 0 0 1-.234-.576c0-.312.138-.564.414-.756.276-.192.686-.288 1.23-.288.72 0 1.34.18 1.86.54l.372-.684c-.264-.176-.6-.318-1.008-.426a4.766 4.766 0 0 0-1.224-.162c-.784 0-1.396.168-1.836.504-.44.336-.66.768-.66 1.296 0 .424.11.756.33.996.22.24.486.41.798.51.312.1.724.198 1.236.294.384.064.692.13.924.198.232.068.424.168.576.3.152.132.228.314.228.546a.86.86 0 0 1-.414.762c-.276.18-.702.27-1.278.27-.432 0-.848-.066-1.248-.198a3.233 3.233 0 0 1-.996-.51l-.384.672c.264.224.63.41 1.098.558.468.148.958.222 1.47.222Zm5.868 0c.816 0 1.454-.162 1.914-.486.46-.324.69-.762.69-1.314 0-.408-.108-.728-.324-.96a1.78 1.78 0 0 0-.78-.492 11.043 11.043 0 0 0-1.212-.288 9.392 9.392 0 0 1-.96-.21 1.44 1.44 0 0 1-.582-.318.746.746 0 0 1-.234-.576c0-.312.138-.564.414-.756.276-.192.686-.288 1.23-.288.72 0 1.34.18 1.86.54l.372-.684c-.264-.176-.6-.318-1.008-.426a4.766 4.766 0 0 0-1.224-.162c-.784 0-1.396.168-1.836.504-.44.336-.66.768-.66 1.296 0 .424.11.756.33.996.22.24.486.41.798.51.312.1.724.198 1.236.294.384.064.692.13.924.198.232.068.424.168.576.3.152.132.228.314.228.546a.86.86 0 0 1-.414.762c-.276.18-.702.27-1.278.27-.432 0-.848-.066-1.248-.198a3.233 3.233 0 0 1-.996-.51l-.384.672c.264.224.63.41 1.098.558.468.148.958.222 1.47.222Zm-81.876 18.236c.176 0 .324-.06.444-.18s.18-.268.18-.444c0-.16-.06-.298-.18-.414a.614.614 0 0 0-.444-.174.603.603 0 0 0-.444.18c-.12.12-.18.26-.18.42 0 .168.06.312.18.432s.268.18.444.18Zm-1.428 10.092c.592 0 1.048-.172 1.368-.516.32-.344.48-.812.48-1.404v-6.78h-.852v6.78c0 .392-.09.688-.27.888-.18.2-.438.3-.774.3-.408 0-.736-.108-.984-.324l-.3.648c.152.136.346.238.582.306s.486.102.75.102Zm6-2.328c.512 0 .954-.092 1.326-.276.372-.184.654-.44.846-.768V182h.816v-3.912c0-.808-.22-1.418-.66-1.83-.44-.412-1.072-.618-1.896-.618-.496 0-.968.074-1.416.222a3.405 3.405 0 0 0-1.152.63l.384.636c.264-.232.58-.414.948-.546a3.386 3.386 0 0 1 1.152-.198c.584 0 1.028.142 1.332.426.304.284.456.698.456 1.242v.384h-2.004c-.848 0-1.466.164-1.854.492-.388.328-.582.76-.582 1.296 0 .552.208.996.624 1.332.416.336.976.504 1.68.504Zm.132-.672c-.504 0-.896-.106-1.176-.318-.28-.212-.42-.502-.42-.87 0-.752.54-1.128 1.62-1.128h1.98v1.032a1.97 1.97 0 0 1-.768.954c-.344.22-.756.33-1.236.33Zm7.788.672c.536 0 1.02-.106 1.452-.318a2.413 2.413 0 0 0 1.02-.93l-.636-.432a1.945 1.945 0 0 1-.792.696c-.32.152-.668.228-1.044.228-.456 0-.866-.102-1.23-.306a2.16 2.16 0 0 1-.852-.864c-.204-.372-.306-.802-.306-1.29 0-.48.102-.908.306-1.284a2.15 2.15 0 0 1 .852-.87 2.472 2.472 0 0 1 1.23-.306c.376 0 .724.078 1.044.234.32.156.584.39.792.702l.636-.432a2.421 2.421 0 0 0-1.014-.93 3.241 3.241 0 0 0-1.458-.318c-.624 0-1.182.136-1.674.408a2.965 2.965 0 0 0-1.158 1.14c-.28.488-.42 1.04-.42 1.656 0 .616.14 1.17.42 1.662.28.492.666.874 1.158 1.146.492.272 1.05.408 1.674.408Zm4.992-.06v-1.8l1.488-1.368 2.544 3.168h1.044l-2.952-3.732 2.7-2.58h-1.056l-3.768 3.444v-6.036h-.852V182h.852Zm9.036.06c.504 0 .966-.088 1.386-.264.42-.176.77-.432 1.05-.768l-.48-.552a2.36 2.36 0 0 1-.852.618c-.328.14-.688.21-1.08.21-.696 0-1.272-.202-1.728-.606-.456-.404-.708-.934-.756-1.59h5.28l.012-.264c0-.624-.132-1.178-.396-1.662a2.892 2.892 0 0 0-1.092-1.134 3.05 3.05 0 0 0-1.572-.408c-.584 0-1.11.136-1.578.408a2.91 2.91 0 0 0-1.104 1.14c-.268.488-.402 1.04-.402 1.656 0 .616.14 1.168.42 1.656.28.488.67.87 1.17 1.146.5.276 1.074.414 1.722.414Zm-2.46-3.588c.056-.624.29-1.13.702-1.518.412-.388.922-.582 1.53-.582.616 0 1.13.194 1.542.582.412.388.646.894.702 1.518h-4.476Zm9.024 3.588c.256 0 .502-.038.738-.114.236-.076.434-.186.594-.33l-.3-.612c-.12.104-.262.184-.426.24a1.567 1.567 0 0 1-.51.084c-.352 0-.622-.098-.81-.294-.188-.196-.282-.482-.282-.858v-3.768h1.92v-.72h-1.92v-1.38h-.852v1.38h-1.128v.72h1.128v3.816c0 .584.16 1.036.48 1.356.32.32.776.48 1.368.48Zm4.572 0c.816 0 1.454-.162 1.914-.486.46-.324.69-.762.69-1.314 0-.408-.108-.728-.324-.96a1.78 1.78 0 0 0-.78-.492 11.043 11.043 0 0 0-1.212-.288 9.392 9.392 0 0 1-.96-.21 1.44 1.44 0 0 1-.582-.318.746.746 0 0 1-.234-.576c0-.312.138-.564.414-.756.276-.192.686-.288 1.23-.288.72 0 1.34.18 1.86.54l.372-.684c-.264-.176-.6-.318-1.008-.426a4.766 4.766 0 0 0-1.224-.162c-.784 0-1.396.168-1.836.504-.44.336-.66.768-.66 1.296 0 .424.11.756.33.996.22.24.486.41.798.51.312.1.724.198 1.236.294.384.064.692.13.924.198.232.068.424.168.576.3.152.132.228.314.228.546a.86.86 0 0 1-.414.762c-.276.18-.702.27-1.278.27-.432 0-.848-.066-1.248-.198a3.233 3.233 0 0 1-.996-.51l-.384.672c.264.224.63.41 1.098.558.468.148.958.222 1.47.222Zm-36.456 26c.816 0 1.454-.162 1.914-.486.46-.324.69-.762.69-1.314 0-.408-.108-.728-.324-.96a1.78 1.78 0 0 0-.78-.492 11.043 11.043 0 0 0-1.212-.288 9.392 9.392 0 0 1-.96-.21 1.44 1.44 0 0 1-.582-.318.746.746 0 0 1-.234-.576c0-.312.138-.564.414-.756.276-.192.686-.288 1.23-.288.72 0 1.34.18 1.86.54l.372-.684c-.264-.176-.6-.318-1.008-.426a4.766 4.766 0 0 0-1.224-.162c-.784 0-1.396.168-1.836.504-.44.336-.66.768-.66 1.296 0 .424.11.756.33.996.22.24.486.41.798.51.312.1.724.198 1.236.294.384.064.692.13.924.198.232.068.424.168.576.3.152.132.228.314.228.546a.86.86 0 0 1-.414.762c-.276.18-.702.27-1.278.27-.432 0-.848-.066-1.248-.198a3.233 3.233 0 0 1-.996-.51l-.384.672c.264.224.63.41 1.098.558.468.148.958.222 1.47.222Zm6.264-.06 1.992-5.172 1.992 5.172h.804l2.388-6.312h-.78l-2.004 5.364-2.016-5.364h-.732l-2.028 5.364-1.98-5.364h-.816l2.376 6.312h.804Zm8.892-7.692c.176 0 .324-.06.444-.18s.18-.268.18-.444c0-.16-.06-.298-.18-.414a.614.614 0 0 0-.444-.174.603.603 0 0 0-.444.18c-.12.12-.18.26-.18.42 0 .168.06.312.18.432s.268.18.444.18Zm.42 7.692v-6.312h-.852V208h.852Zm3.228 0v-3.312c0-.712.19-1.27.57-1.674.38-.404.894-.606 1.542-.606.584 0 1.034.172 1.35.516.316.344.474.844.474 1.5V208h.852v-3.312c0-.712.188-1.27.564-1.674.376-.404.892-.606 1.548-.606.576 0 1.022.172 1.338.516.316.344.474.844.474 1.5V208h.852v-3.66c0-.888-.226-1.56-.678-2.016-.452-.456-1.074-.684-1.866-.684-.56 0-1.058.118-1.494.354a2.46 2.46 0 0 0-1.002.978 2.066 2.066 0 0 0-.87-.996c-.388-.224-.846-.336-1.374-.336-.52 0-.98.104-1.38.312-.4.208-.712.504-.936.888v-1.152h-.816V208h.852Zm13.572.06c.816 0 1.454-.162 1.914-.486.46-.324.69-.762.69-1.314 0-.408-.108-.728-.324-.96a1.78 1.78 0 0 0-.78-.492 11.043 11.043 0 0 0-1.212-.288 9.392 9.392 0 0 1-.96-.21 1.44 1.44 0 0 1-.582-.318.746.746 0 0 1-.234-.576c0-.312.138-.564.414-.756.276-.192.686-.288 1.23-.288.72 0 1.34.18 1.86.54l.372-.684c-.264-.176-.6-.318-1.008-.426a4.766 4.766 0 0 0-1.224-.162c-.784 0-1.396.168-1.836.504-.44.336-.66.768-.66 1.296 0 .424.11.756.33.996.22.24.486.41.798.51.312.1.724.198 1.236.294.384.064.692.13.924.198.232.068.424.168.576.3.152.132.228.314.228.546a.86.86 0 0 1-.414.762c-.276.18-.702.27-1.278.27-.432 0-.848-.066-1.248-.198a3.233 3.233 0 0 1-.996-.51l-.384.672c.264.224.63.41 1.098.558.468.148.958.222 1.47.222Zm6.78 0a2.78 2.78 0 0 0 1.344-.318c.392-.212.7-.51.924-.894V208h.816v-6.312h-.852V205c0 .72-.192 1.282-.576 1.686-.384.404-.908.606-1.572.606-.608 0-1.076-.172-1.404-.516-.328-.344-.492-.848-.492-1.512v-3.576h-.852v3.66c0 .888.238 1.562.714 2.022.476.46 1.126.69 1.95.69Zm5.904-7.752c.176 0 .324-.06.444-.18s.18-.268.18-.444c0-.16-.06-.298-.18-.414a.614.614 0 0 0-.444-.174.603.603 0 0 0-.444.18c-.12.12-.18.26-.18.42 0 .168.06.312.18.432s.268.18.444.18Zm.42 7.692v-6.312h-.852V208h.852Zm4.368.06c.256 0 .502-.038.738-.114.236-.076.434-.186.594-.33l-.3-.612c-.12.104-.262.184-.426.24a1.567 1.567 0 0 1-.51.084c-.352 0-.622-.098-.81-.294-.188-.196-.282-.482-.282-.858v-3.768h1.92v-.72h-1.92v-1.38h-.852v1.38h-1.128v.72h1.128v3.816c0 .584.16 1.036.48 1.356.32.32.776.48 1.368.48Zm4.572 0c.816 0 1.454-.162 1.914-.486.46-.324.69-.762.69-1.314 0-.408-.108-.728-.324-.96a1.78 1.78 0 0 0-.78-.492 11.043 11.043 0 0 0-1.212-.288 9.392 9.392 0 0 1-.96-.21 1.44 1.44 0 0 1-.582-.318.746.746 0 0 1-.234-.576c0-.312.138-.564.414-.756.276-.192.686-.288 1.23-.288.72 0 1.34.18 1.86.54l.372-.684c-.264-.176-.6-.318-1.008-.426a4.766 4.766 0 0 0-1.224-.162c-.784 0-1.396.168-1.836.504-.44.336-.66.768-.66 1.296 0 .424.11.756.33.996.22.24.486.41.798.51.312.1.724.198 1.236.294.384.064.692.13.924.198.232.068.424.168.576.3.152.132.228.314.228.546a.86.86 0 0 1-.414.762c-.276.18-.702.27-1.278.27-.432 0-.848-.066-1.248-.198a3.233 3.233 0 0 1-.996-.51l-.384.672c.264.224.63.41 1.098.558.468.148.958.222 1.47.222Zm-54.42 26c.816 0 1.454-.162 1.914-.486.46-.324.69-.762.69-1.314 0-.408-.108-.728-.324-.96a1.78 1.78 0 0 0-.78-.492 11.043 11.043 0 0 0-1.212-.288 9.392 9.392 0 0 1-.96-.21 1.44 1.44 0 0 1-.582-.318.746.746 0 0 1-.234-.576c0-.312.138-.564.414-.756.276-.192.686-.288 1.23-.288.72 0 1.34.18 1.86.54l.372-.684c-.264-.176-.6-.318-1.008-.426a4.766 4.766 0 0 0-1.224-.162c-.784 0-1.396.168-1.836.504-.44.336-.66.768-.66 1.296 0 .424.11.756.33.996.22.24.486.41.798.51.312.1.724.198 1.236.294.384.064.692.13.924.198.232.068.424.168.576.3.152.132.228.314.228.546a.86.86 0 0 1-.414.762c-.276.18-.702.27-1.278.27-.432 0-.848-.066-1.248-.198a3.233 3.233 0 0 1-.996-.51l-.384.672c.264.224.63.41 1.098.558.468.148.958.222 1.47.222Zm6.78 0a2.78 2.78 0 0 0 1.344-.318c.392-.212.7-.51.924-.894V234h.816v-6.312h-.852V231c0 .72-.192 1.282-.576 1.686-.384.404-.908.606-1.572.606-.608 0-1.076-.172-1.404-.516-.328-.344-.492-.848-.492-1.512v-3.576h-.852v3.66c0 .888.238 1.562.714 2.022.476.46 1.126.69 1.95.69Zm6.324-.06v-3.312c0-.712.198-1.27.594-1.674.396-.404.934-.606 1.614-.606.608 0 1.076.172 1.404.516.328.344.492.844.492 1.5V234h.852v-3.66c0-.88-.234-1.55-.702-2.01-.468-.46-1.098-.69-1.89-.69-.544 0-1.022.106-1.434.318a2.37 2.37 0 0 0-.966.894v-1.164h-.816V234h.852Zm9.96 2.388c1.056 0 1.846-.258 2.37-.774s.786-1.31.786-2.382v-5.544h-.816v1.212a2.617 2.617 0 0 0-1.044-.936 3.202 3.202 0 0 0-1.452-.324c-.6 0-1.14.128-1.62.384a2.86 2.86 0 0 0-1.134 1.08 3.039 3.039 0 0 0-.414 1.584c0 .592.138 1.122.414 1.59a2.88 2.88 0 0 0 1.14 1.092c.484.26 1.022.39 1.614.39.52 0 .994-.104 1.422-.312a2.568 2.568 0 0 0 1.038-.912v.804c0 .784-.188 1.362-.564 1.734-.376.372-.964.558-1.764.558-.48 0-.938-.076-1.374-.228a3.242 3.242 0 0 1-1.11-.636l-.432.648c.328.304.754.542 1.278.714a5.295 5.295 0 0 0 1.662.258Zm-.072-3.384c-.456 0-.866-.098-1.23-.294a2.134 2.134 0 0 1-.852-.822 2.35 2.35 0 0 1-.306-1.2c0-.448.102-.848.306-1.2.204-.352.488-.624.852-.816a2.596 2.596 0 0 1 1.23-.288c.464 0 .878.098 1.242.294.364.196.648.468.852.816.204.348.306.746.306 1.194 0 .448-.102.848-.306 1.2-.204.352-.49.626-.858.822-.368.196-.78.294-1.236.294Zm6.468.996v-8.904h-.852V234h.852Zm4.152.06c.512 0 .954-.092 1.326-.276.372-.184.654-.44.846-.768V234h.816v-3.912c0-.808-.22-1.418-.66-1.83-.44-.412-1.072-.618-1.896-.618-.496 0-.968.074-1.416.222a3.405 3.405 0 0 0-1.152.63l.384.636c.264-.232.58-.414.948-.546a3.386 3.386 0 0 1 1.152-.198c.584 0 1.028.142 1.332.426.304.284.456.698.456 1.242v.384h-2.004c-.848 0-1.466.164-1.854.492-.388.328-.582.76-.582 1.296 0 .552.208.996.624 1.332.416.336.976.504 1.68.504Zm.132-.672c-.504 0-.896-.106-1.176-.318-.28-.212-.42-.502-.42-.87 0-.752.54-1.128 1.62-1.128h1.98v1.032a1.97 1.97 0 0 1-.768.954c-.344.22-.756.33-1.236.33Zm6.864.672c.816 0 1.454-.162 1.914-.486.46-.324.69-.762.69-1.314 0-.408-.108-.728-.324-.96a1.78 1.78 0 0 0-.78-.492 11.043 11.043 0 0 0-1.212-.288 9.392 9.392 0 0 1-.96-.21 1.44 1.44 0 0 1-.582-.318.746.746 0 0 1-.234-.576c0-.312.138-.564.414-.756.276-.192.686-.288 1.23-.288.72 0 1.34.18 1.86.54l.372-.684c-.264-.176-.6-.318-1.008-.426a4.766 4.766 0 0 0-1.224-.162c-.784 0-1.396.168-1.836.504-.44.336-.66.768-.66 1.296 0 .424.11.756.33.996.22.24.486.41.798.51.312.1.724.198 1.236.294.384.064.692.13.924.198.232.068.424.168.576.3.152.132.228.314.228.546a.86.86 0 0 1-.414.762c-.276.18-.702.27-1.278.27-.432 0-.848-.066-1.248-.198a3.233 3.233 0 0 1-.996-.51l-.384.672c.264.224.63.41 1.098.558.468.148.958.222 1.47.222Zm5.868 0c.816 0 1.454-.162 1.914-.486.46-.324.69-.762.69-1.314 0-.408-.108-.728-.324-.96a1.78 1.78 0 0 0-.78-.492 11.043 11.043 0 0 0-1.212-.288 9.392 9.392 0 0 1-.96-.21 1.44 1.44 0 0 1-.582-.318.746.746 0 0 1-.234-.576c0-.312.138-.564.414-.756.276-.192.686-.288 1.23-.288.72 0 1.34.18 1.86.54l.372-.684c-.264-.176-.6-.318-1.008-.426a4.766 4.766 0 0 0-1.224-.162c-.784 0-1.396.168-1.836.504-.44.336-.66.768-.66 1.296 0 .424.11.756.33.996.22.24.486.41.798.51.312.1.724.198 1.236.294.384.064.692.13.924.198.232.068.424.168.576.3.152.132.228.314.228.546a.86.86 0 0 1-.414.762c-.276.18-.702.27-1.278.27-.432 0-.848-.066-1.248-.198a3.233 3.233 0 0 1-.996-.51l-.384.672c.264.224.63.41 1.098.558.468.148.958.222 1.47.222Zm6.852 0c.504 0 .966-.088 1.386-.264.42-.176.77-.432 1.05-.768l-.48-.552a2.36 2.36 0 0 1-.852.618c-.328.14-.688.21-1.08.21-.696 0-1.272-.202-1.728-.606-.456-.404-.708-.934-.756-1.59h5.28l.012-.264c0-.624-.132-1.178-.396-1.662a2.892 2.892 0 0 0-1.092-1.134 3.05 3.05 0 0 0-1.572-.408c-.584 0-1.11.136-1.578.408a2.91 2.91 0 0 0-1.104 1.14c-.268.488-.402 1.04-.402 1.656 0 .616.14 1.168.42 1.656.28.488.67.87 1.17 1.146.5.276 1.074.414 1.722.414Zm-2.46-3.588c.056-.624.29-1.13.702-1.518.412-.388.922-.582 1.53-.582.616 0 1.13.194 1.542.582.412.388.646.894.702 1.518h-4.476Zm8.724 3.588c.816 0 1.454-.162 1.914-.486.46-.324.69-.762.69-1.314 0-.408-.108-.728-.324-.96a1.78 1.78 0 0 0-.78-.492 11.043 11.043 0 0 0-1.212-.288 9.392 9.392 0 0 1-.96-.21 1.44 1.44 0 0 1-.582-.318.746.746 0 0 1-.234-.576c0-.312.138-.564.414-.756.276-.192.686-.288 1.23-.288.72 0 1.34.18 1.86.54l.372-.684c-.264-.176-.6-.318-1.008-.426a4.766 4.766 0 0 0-1.224-.162c-.784 0-1.396.168-1.836.504-.44.336-.66.768-.66 1.296 0 .424.11.756.33.996.22.24.486.41.798.51.312.1.724.198 1.236.294.384.064.692.13.924.198.232.068.424.168.576.3.152.132.228.314.228.546a.86.86 0 0 1-.414.762c-.276.18-.702.27-1.278.27-.432 0-.848-.066-1.248-.198a3.233 3.233 0 0 1-.996-.51l-.384.672c.264.224.63.41 1.098.558.468.148.958.222 1.47.222Zm-58.032 26c.592 0 1.128-.136 1.608-.408.48-.272.856-.652 1.128-1.14.272-.488.408-1.044.408-1.668 0-.624-.136-1.18-.408-1.668a2.875 2.875 0 0 0-1.128-1.134 3.242 3.242 0 0 0-1.608-.402c-.512 0-.974.106-1.386.318-.412.212-.75.522-1.014.93v-3.792h-.852V260h.816v-1.248c.256.424.594.748 1.014.972.42.224.894.336 1.422.336Zm-.06-.756c-.448 0-.85-.102-1.206-.306a2.173 2.173 0 0 1-.84-.87 2.649 2.649 0 0 1-.306-1.284c0-.48.102-.908.306-1.284.204-.376.484-.666.84-.87a2.382 2.382 0 0 1 1.206-.306c.44 0 .84.102 1.2.306.36.204.642.494.846.87.204.376.306.804.306 1.284s-.102.908-.306 1.284a2.161 2.161 0 0 1-.846.87c-.36.204-.76.306-1.2.306Zm5.796.696v-8.904h-.852V260h.852Zm4.98.06a2.78 2.78 0 0 0 1.344-.318c.392-.212.7-.51.924-.894V260h.816v-6.312h-.852V257c0 .72-.192 1.282-.576 1.686-.384.404-.908.606-1.572.606-.608 0-1.076-.172-1.404-.516-.328-.344-.492-.848-.492-1.512v-3.576h-.852v3.66c0 .888.238 1.562.714 2.022.476.46 1.126.69 1.95.69Zm8.148 0c.504 0 .966-.088 1.386-.264.42-.176.77-.432 1.05-.768l-.48-.552a2.36 2.36 0 0 1-.852.618c-.328.14-.688.21-1.08.21-.696 0-1.272-.202-1.728-.606-.456-.404-.708-.934-.756-1.59h5.28l.012-.264c0-.624-.132-1.178-.396-1.662a2.892 2.892 0 0 0-1.092-1.134 3.05 3.05 0 0 0-1.572-.408c-.584 0-1.11.136-1.578.408a2.91 2.91 0 0 0-1.104 1.14c-.268.488-.402 1.04-.402 1.656 0 .616.14 1.168.42 1.656.28.488.67.87 1.17 1.146.5.276 1.074.414 1.722.414Zm-2.46-3.588c.056-.624.29-1.13.702-1.518.412-.388.922-.582 1.53-.582.616 0 1.13.194 1.542.582.412.388.646.894.702 1.518h-4.476Zm10.668-4.176c.176 0 .324-.06.444-.18s.18-.268.18-.444c0-.16-.06-.298-.18-.414a.614.614 0 0 0-.444-.174.603.603 0 0 0-.444.18c-.12.12-.18.26-.18.42 0 .168.06.312.18.432s.268.18.444.18Zm-1.428 10.092c.592 0 1.048-.172 1.368-.516.32-.344.48-.812.48-1.404v-6.78h-.852v6.78c0 .392-.09.688-.27.888-.18.2-.438.3-.774.3-.408 0-.736-.108-.984-.324l-.3.648c.152.136.346.238.582.306s.486.102.75.102Zm6.9-2.328c.504 0 .966-.088 1.386-.264.42-.176.77-.432 1.05-.768l-.48-.552a2.36 2.36 0 0 1-.852.618c-.328.14-.688.21-1.08.21-.696 0-1.272-.202-1.728-.606-.456-.404-.708-.934-.756-1.59h5.28l.012-.264c0-.624-.132-1.178-.396-1.662a2.892 2.892 0 0 0-1.092-1.134 3.05 3.05 0 0 0-1.572-.408c-.584 0-1.11.136-1.578.408a2.91 2.91 0 0 0-1.104 1.14c-.268.488-.402 1.04-.402 1.656 0 .616.14 1.168.42 1.656.28.488.67.87 1.17 1.146.5.276 1.074.414 1.722.414Zm-2.46-3.588c.056-.624.29-1.13.702-1.518.412-.388.922-.582 1.53-.582.616 0 1.13.194 1.542.582.412.388.646.894.702 1.518h-4.476Zm8.808 3.588c.512 0 .954-.092 1.326-.276.372-.184.654-.44.846-.768V260h.816v-3.912c0-.808-.22-1.418-.66-1.83-.44-.412-1.072-.618-1.896-.618-.496 0-.968.074-1.416.222a3.405 3.405 0 0 0-1.152.63l.384.636c.264-.232.58-.414.948-.546a3.386 3.386 0 0 1 1.152-.198c.584 0 1.028.142 1.332.426.304.284.456.698.456 1.242v.384H318.1c-.848 0-1.466.164-1.854.492-.388.328-.582.76-.582 1.296 0 .552.208.996.624 1.332.416.336.976.504 1.68.504Zm.132-.672c-.504 0-.896-.106-1.176-.318-.28-.212-.42-.502-.42-.87 0-.752.54-1.128 1.62-1.128h1.98v1.032a1.97 1.97 0 0 1-.768.954c-.344.22-.756.33-1.236.33Zm6.024.612v-3.312c0-.712.198-1.27.594-1.674.396-.404.934-.606 1.614-.606.608 0 1.076.172 1.404.516.328.344.492.844.492 1.5V260h.852v-3.66c0-.88-.234-1.55-.702-2.01-.468-.46-1.098-.69-1.89-.69-.544 0-1.022.106-1.434.318a2.37 2.37 0 0 0-.966.894v-1.164h-.816V260h.852Zm8.964.06c.816 0 1.454-.162 1.914-.486.46-.324.69-.762.69-1.314 0-.408-.108-.728-.324-.96a1.78 1.78 0 0 0-.78-.492 11.043 11.043 0 0 0-1.212-.288 9.392 9.392 0 0 1-.96-.21 1.44 1.44 0 0 1-.582-.318.746.746 0 0 1-.234-.576c0-.312.138-.564.414-.756.276-.192.686-.288 1.23-.288.72 0 1.34.18 1.86.54l.372-.684c-.264-.176-.6-.318-1.008-.426a4.766 4.766 0 0 0-1.224-.162c-.784 0-1.396.168-1.836.504-.44.336-.66.768-.66 1.296 0 .424.11.756.33.996.22.24.486.41.798.51.312.1.724.198 1.236.294.384.064.692.13.924.198.232.068.424.168.576.3.152.132.228.314.228.546a.86.86 0 0 1-.414.762c-.276.18-.702.27-1.278.27-.432 0-.848-.066-1.248-.198a3.233 3.233 0 0 1-.996-.51l-.384.672c.264.224.63.41 1.098.558.468.148.958.222 1.47.222ZM84.523 55v-7.632h2.952V46.6h-6.792v.768h2.952V55h.888Zm4.236 2.388c.472 0 .876-.124 1.212-.372.336-.248.632-.668.888-1.26l3.156-7.068h-.84L90.8 54.052l-2.376-5.364h-.888l2.82 6.3-.276.612c-.176.384-.366.656-.57.816-.204.16-.45.24-.738.24-.448 0-.832-.16-1.152-.48l-.396.636c.192.192.42.336.684.432.264.096.548.144.852.144Zm7.308-.06v-3.516c.264.408.602.718 1.014.93.412.212.874.318 1.386.318.6 0 1.138-.134 1.614-.402.476-.268.85-.646 1.122-1.134.272-.488.408-1.048.408-1.68 0-.624-.136-1.18-.408-1.668a2.875 2.875 0 0 0-1.128-1.134 3.242 3.242 0 0 0-1.608-.402c-.528 0-1.002.112-1.422.336-.42.224-.758.544-1.014.96v-1.248h-.816v8.64h.852Zm2.34-3.024c-.448 0-.85-.102-1.206-.306a2.173 2.173 0 0 1-.84-.87 2.649 2.649 0 0 1-.306-1.284c0-.48.102-.906.306-1.278.204-.372.484-.662.84-.87a2.346 2.346 0 0 1 1.206-.312c.44 0 .84.104 1.2.312.36.208.642.498.846.87.204.372.306.798.306 1.278s-.102.908-.306 1.284a2.161 2.161 0 0 1-.846.87c-.36.204-.76.306-1.2.306Zm7.62.756c.504 0 .966-.088 1.386-.264.42-.176.77-.432 1.05-.768l-.48-.552a2.36 2.36 0 0 1-.852.618c-.328.14-.688.21-1.08.21-.696 0-1.272-.202-1.728-.606-.456-.404-.708-.934-.756-1.59h5.28l.012-.264c0-.624-.132-1.178-.396-1.662a2.892 2.892 0 0 0-1.092-1.134 3.05 3.05 0 0 0-1.572-.408c-.584 0-1.11.136-1.578.408a2.91 2.91 0 0 0-1.104 1.14c-.268.488-.402 1.04-.402 1.656 0 .616.14 1.168.42 1.656.28.488.67.87 1.17 1.146.5.276 1.074.414 1.722.414Zm2.016-3.588h-4.476c.056-.624.29-1.13.702-1.518.412-.388.922-.582 1.53-.582.616 0 1.13.194 1.542.582.412.388.646.894.702 1.518Zm5.748 5.916c.472 0 .876-.124 1.212-.372.336-.248.632-.668.888-1.26l3.156-7.068h-.84l-2.376 5.364-2.376-5.364h-.888l2.82 6.3-.276.612c-.176.384-.366.656-.57.816-.204.16-.45.24-.738.24-.448 0-.832-.16-1.152-.48l-.396.636c.192.192.42.336.684.432.264.096.548.144.852.144Zm9.036-2.328a3.28 3.28 0 0 0 1.644-.414c.488-.276.87-.658 1.146-1.146.276-.488.414-1.04.414-1.656 0-.616-.138-1.168-.414-1.656a2.935 2.935 0 0 0-1.146-1.14 3.319 3.319 0 0 0-1.644-.408c-.608 0-1.156.136-1.644.408a2.976 2.976 0 0 0-1.152 1.14c-.28.488-.42 1.04-.42 1.656 0 .616.14 1.168.42 1.656.28.488.664.87 1.152 1.146a3.28 3.28 0 0 0 1.644.414Zm0-.756c-.448 0-.85-.102-1.206-.306a2.173 2.173 0 0 1-.84-.87 2.649 2.649 0 0 1-.306-1.284c0-.48.102-.908.306-1.284.204-.376.484-.666.84-.87a2.382 2.382 0 0 1 1.206-.306c.448 0 .85.102 1.206.306.356.204.634.494.834.87.2.376.3.804.3 1.284s-.1.908-.3 1.284c-.2.376-.478.666-.834.87a2.382 2.382 0 0 1-1.206.306Zm7.548.756a2.78 2.78 0 0 0 1.344-.318c.392-.212.7-.51.924-.894V55h.816v-6.312h-.852V52c0 .72-.192 1.282-.576 1.686-.384.404-.908.606-1.572.606-.608 0-1.076-.172-1.404-.516-.328-.344-.492-.848-.492-1.512v-3.576h-.852v3.66c0 .888.238 1.562.714 2.022.476.46 1.126.69 1.95.69ZM136.7 55v-3.216c0-.736.188-1.308.564-1.716.376-.408.896-.612 1.56-.612l.204.012v-.828c-.584 0-1.074.108-1.47.324a2.065 2.065 0 0 0-.894.96v-1.236h-.816V55h.852Zm8.796.06c.816 0 1.454-.162 1.914-.486.46-.324.69-.762.69-1.314 0-.408-.108-.728-.324-.96a1.78 1.78 0 0 0-.78-.492 11.043 11.043 0 0 0-1.212-.288 9.392 9.392 0 0 1-.96-.21 1.44 1.44 0 0 1-.582-.318.746.746 0 0 1-.234-.576c0-.312.138-.564.414-.756.276-.192.686-.288 1.23-.288.72 0 1.34.18 1.86.54l.372-.684c-.264-.176-.6-.318-1.008-.426a4.766 4.766 0 0 0-1.224-.162c-.784 0-1.396.168-1.836.504-.44.336-.66.768-.66 1.296 0 .424.11.756.33.996.22.24.486.41.798.51.312.1.724.198 1.236.294.384.064.692.13.924.198.232.068.424.168.576.3.152.132.228.314.228.546a.86.86 0 0 1-.414.762c-.276.18-.702.27-1.278.27-.432 0-.848-.066-1.248-.198a3.233 3.233 0 0 1-.996-.51l-.384.672c.264.224.63.41 1.098.558.468.148.958.222 1.47.222Zm6.852 0c.504 0 .966-.088 1.386-.264.42-.176.77-.432 1.05-.768l-.48-.552a2.36 2.36 0 0 1-.852.618c-.328.14-.688.21-1.08.21-.696 0-1.272-.202-1.728-.606-.456-.404-.708-.934-.756-1.59h5.28l.012-.264c0-.624-.132-1.178-.396-1.662a2.892 2.892 0 0 0-1.092-1.134 3.05 3.05 0 0 0-1.572-.408c-.584 0-1.11.136-1.578.408a2.91 2.91 0 0 0-1.104 1.14c-.268.488-.402 1.04-.402 1.656 0 .616.14 1.168.42 1.656.28.488.67.87 1.17 1.146.5.276 1.074.414 1.722.414Zm2.016-3.588h-4.476c.056-.624.29-1.13.702-1.518.412-.388.922-.582 1.53-.582.616 0 1.13.194 1.542.582.412.388.646.894.702 1.518Zm4.332 3.588c.512 0 .954-.092 1.326-.276.372-.184.654-.44.846-.768V55h.816v-3.912c0-.808-.22-1.418-.66-1.83-.44-.412-1.072-.618-1.896-.618-.496 0-.968.074-1.416.222a3.405 3.405 0 0 0-1.152.63l.384.636c.264-.232.58-.414.948-.546a3.386 3.386 0 0 1 1.152-.198c.584 0 1.028.142 1.332.426.304.284.456.698.456 1.242v.384h-2.004c-.848 0-1.466.164-1.854.492-.388.328-.582.76-.582 1.296 0 .552.208.996.624 1.332.416.336.976.504 1.68.504Zm.132-.672c-.504 0-.896-.106-1.176-.318-.28-.212-.42-.502-.42-.87 0-.752.54-1.128 1.62-1.128h1.98v1.032a1.97 1.97 0 0 1-.768.954c-.344.22-.756.33-1.236.33Zm6.024.612v-3.216c0-.736.188-1.308.564-1.716.376-.408.896-.612 1.56-.612l.204.012v-.828c-.584 0-1.074.108-1.47.324a2.065 2.065 0 0 0-.894.96v-1.236H164V55h.852Zm6.576.06c.536 0 1.02-.106 1.452-.318a2.413 2.413 0 0 0 1.02-.93l-.636-.432a1.945 1.945 0 0 1-.792.696c-.32.152-.668.228-1.044.228-.456 0-.866-.102-1.23-.306a2.16 2.16 0 0 1-.852-.864c-.204-.372-.306-.802-.306-1.29 0-.48.102-.908.306-1.284a2.15 2.15 0 0 1 .852-.87 2.472 2.472 0 0 1 1.23-.306c.376 0 .724.078 1.044.234.32.156.584.39.792.702l.636-.432a2.421 2.421 0 0 0-1.014-.93 3.241 3.241 0 0 0-1.458-.318c-.624 0-1.182.136-1.674.408a2.965 2.965 0 0 0-1.158 1.14c-.28.488-.42 1.04-.42 1.656 0 .616.14 1.17.42 1.662.28.492.666.874 1.158 1.146.492.272 1.05.408 1.674.408Zm4.992-.06v-3.312c0-.712.198-1.27.594-1.674.396-.404.934-.606 1.614-.606.608 0 1.076.172 1.404.516.328.344.492.844.492 1.5V55h.852v-3.66c0-.88-.234-1.55-.702-2.01-.468-.46-1.098-.69-1.89-.69-.528 0-.996.1-1.404.3a2.31 2.31 0 0 0-.96.852v-3.696h-.852V55h.852Zm11.268 0v-3.312c0-.712.198-1.27.594-1.674.396-.404.934-.606 1.614-.606.608 0 1.076.172 1.404.516.328.344.492.844.492 1.5V55h.852v-3.66c0-.88-.234-1.55-.702-2.01-.468-.46-1.098-.69-1.89-.69-.528 0-.996.1-1.404.3a2.31 2.31 0 0 0-.96.852v-3.696h-.852V55h.852Zm9.948.06c.504 0 .966-.088 1.386-.264.42-.176.77-.432 1.05-.768l-.48-.552a2.36 2.36 0 0 1-.852.618c-.328.14-.688.21-1.08.21-.696 0-1.272-.202-1.728-.606-.456-.404-.708-.934-.756-1.59h5.28l.012-.264c0-.624-.132-1.178-.396-1.662a2.892 2.892 0 0 0-1.092-1.134 3.05 3.05 0 0 0-1.572-.408c-.584 0-1.11.136-1.578.408a2.91 2.91 0 0 0-1.104 1.14c-.268.488-.402 1.04-.402 1.656 0 .616.14 1.168.42 1.656.28.488.67.87 1.17 1.146.5.276 1.074.414 1.722.414Zm2.016-3.588h-4.476c.056-.624.29-1.13.702-1.518.412-.388.922-.582 1.53-.582.616 0 1.13.194 1.542.582.412.388.646.894.702 1.518ZM203.06 55v-3.216c0-.736.188-1.308.564-1.716.376-.408.896-.612 1.56-.612l.204.012v-.828c-.584 0-1.074.108-1.47.324a2.065 2.065 0 0 0-.894.96v-1.236h-.816V55h.852Zm6.636.06c.504 0 .966-.088 1.386-.264.42-.176.77-.432 1.05-.768l-.48-.552a2.36 2.36 0 0 1-.852.618c-.328.14-.688.21-1.08.21-.696 0-1.272-.202-1.728-.606-.456-.404-.708-.934-.756-1.59h5.28l.012-.264c0-.624-.132-1.178-.396-1.662a2.892 2.892 0 0 0-1.092-1.134 3.05 3.05 0 0 0-1.572-.408c-.584 0-1.11.136-1.578.408a2.91 2.91 0 0 0-1.104 1.14c-.268.488-.402 1.04-.402 1.656 0 .616.14 1.168.42 1.656.28.488.67.87 1.17 1.146.5.276 1.074.414 1.722.414Zm2.016-3.588h-4.476c.056-.624.29-1.13.702-1.518.412-.388.922-.582 1.53-.582.616 0 1.13.194 1.542.582.412.388.646.894.702 1.518Zm2.64 3.588a.623.623 0 0 0 .456-.192.637.637 0 0 0 .192-.468.617.617 0 0 0-.192-.462.633.633 0 0 0-.456-.186.613.613 0 0 0-.45.186.627.627 0 0 0-.186.462c0 .184.062.34.186.468a.603.603 0 0 0 .45.192Zm2.604 0a.623.623 0 0 0 .456-.192.637.637 0 0 0 .192-.468.617.617 0 0 0-.192-.462.633.633 0 0 0-.456-.186.613.613 0 0 0-.45.186.627.627 0 0 0-.186.462c0 .184.062.34.186.468a.603.603 0 0 0 .45.192Zm2.616 0a.623.623 0 0 0 .456-.192.637.637 0 0 0 .192-.468.617.617 0 0 0-.192-.462.633.633 0 0 0-.456-.186.613.613 0 0 0-.45.186.627.627 0 0 0-.186.462c0 .184.062.34.186.468a.603.603 0 0 0 .45.192Z" fill="#243C47" fill-rule="nonzero"/></g></svg>