<svg xmlns="http://www.w3.org/2000/svg" width="741" height="473"><g transform="translate(0 5.43)" fill="none" fill-rule="evenodd"><rect width="563.875" height="424" x="155.653" y="16.57" fill="#FFF" rx="7.213"/><g opacity=".411" transform="translate(193.324)"><rect width="150.734" height="224" fill="#E2E6E7" rx="5"/><rect width="121.637" height="95.211" x="12.515" y="15.404" fill="#FFF" rx="4.266"/><rect width="49.996" height="4.568" x="12.515" y="135.487" fill="#243C47" fill-opacity=".139" rx="2.284"/><rect width="121.504" height="9.935" x="12.515" y="117.902" fill="#1E3D49" rx="4.266"/><rect width="121.504" height="22.52" x="12.515" y="189.885" fill="#0086B2" rx="11.26"/><rect width="46.29" height="46.033" x="86.202" y="135.487" fill="#FDCB5B" rx="23.016"/><rect width="46.155" height="4.568" x="12.515" y="157.412" fill="#243C47" fill-opacity=".139" rx="2.284"/><rect width="68.189" height="4.568" x="12.515" y="146.45" fill="#243C47" fill-opacity=".139" rx="2.284"/></g><g opacity=".411" transform="translate(363.695)"><rect width="150.734" height="224" fill="#E2E6E7" rx="5"/><rect width="121.637" height="95.211" x="12.515" y="15.404" fill="#FFF" rx="4.266"/><rect width="49.996" height="4.568" x="12.515" y="135.487" fill="#243C47" fill-opacity=".139" rx="2.284"/><rect width="121.504" height="9.935" x="12.515" y="117.902" fill="#1E3D49" rx="4.266"/><rect width="121.504" height="22.52" x="12.515" y="189.885" fill="#0086B2" rx="11.26"/><rect width="46.29" height="46.033" x="86.202" y="135.487" fill="#FDCB5B" rx="23.016"/><rect width="46.155" height="4.568" x="12.515" y="157.412" fill="#243C47" fill-opacity=".139" rx="2.284"/><rect width="68.189" height="4.568" x="12.515" y="146.45" fill="#243C47" fill-opacity=".139" rx="2.284"/></g><g opacity=".411" transform="translate(193.324 243.32)"><rect width="150.734" height="224" fill="#E2E6E7" rx="5"/><rect width="121.637" height="95.211" x="12.515" y="15.404" fill="#FFF" rx="4.266"/><rect width="49.996" height="4.568" x="12.515" y="135.487" fill="#243C47" fill-opacity=".139" rx="2.284"/><rect width="121.504" height="9.935" x="12.515" y="117.902" fill="#1E3D49" rx="4.266"/><rect width="121.504" height="22.52" x="12.515" y="189.885" fill="#0086B2" rx="11.26"/><rect width="46.29" height="46.033" x="86.202" y="135.487" fill="#FDCB5B" rx="23.016"/><rect width="46.155" height="4.568" x="12.515" y="157.412" fill="#243C47" fill-opacity=".139" rx="2.284"/><rect width="68.189" height="4.568" x="12.515" y="146.45" fill="#243C47" fill-opacity=".139" rx="2.284"/></g><g opacity=".411" transform="translate(363.695 243.32)"><rect width="150.734" height="224" fill="#E2E6E7" rx="5"/><rect width="121.637" height="95.211" x="12.515" y="15.404" fill="#FFF" rx="4.266"/><rect width="49.996" height="4.568" x="12.515" y="135.487" fill="#243C47" fill-opacity=".139" rx="2.284"/><rect width="121.504" height="9.935" x="12.515" y="117.902" fill="#1E3D49" rx="4.266"/><rect width="121.504" height="22.52" x="12.515" y="189.885" fill="#0086B2" rx="11.26"/><rect width="46.29" height="46.033" x="86.202" y="135.487" fill="#FDCB5B" rx="23.016"/><rect width="46.155" height="4.568" x="12.515" y="157.412" fill="#243C47" fill-opacity=".139" rx="2.284"/><rect width="68.189" height="4.568" x="12.515" y="146.45" fill="#243C47" fill-opacity=".139" rx="2.284"/></g><g opacity=".411" transform="translate(534.067)"><rect width="150.734" height="224" fill="#E2E6E7" rx="5"/><rect width="121.637" height="95.211" x="12.515" y="15.404" fill="#FFF" rx="4.266"/><rect width="49.996" height="4.568" x="12.515" y="135.487" fill="#243C47" fill-opacity=".139" rx="2.284"/><rect width="121.504" height="9.935" x="12.515" y="117.902" fill="#1E3D49" rx="4.266"/><rect width="121.504" height="22.52" x="12.515" y="189.885" fill="#0086B2" rx="11.26"/><rect width="46.29" height="46.033" x="86.202" y="135.487" fill="#FDCB5B" rx="23.016"/><rect width="46.155" height="4.568" x="12.515" y="157.412" fill="#243C47" fill-opacity=".139" rx="2.284"/><rect width="68.189" height="4.568" x="12.515" y="146.45" fill="#243C47" fill-opacity=".139" rx="2.284"/></g><rect width="563.875" height="424" x="155.653" y="16.57" fill="#1E3D49" fill-opacity=".692" rx="7.213"/><g opacity=".411" transform="translate(534.067 243.32)"><rect width="150.734" height="224" fill="#E2E6E7" rx="5"/><rect width="121.637" height="95.211" x="12.515" y="15.404" fill="#FFF" rx="4.266"/><rect width="49.996" height="4.568" x="12.515" y="135.487" fill="#243C47" fill-opacity=".139" rx="2.284"/><rect width="121.504" height="9.935" x="12.515" y="117.902" fill="#1E3D49" rx="4.266"/><rect width="121.504" height="22.52" x="12.515" y="189.885" fill="#0086B2" rx="11.26"/><rect width="46.29" height="46.033" x="86.202" y="135.487" fill="#FDCB5B" rx="23.016"/><rect width="46.155" height="4.568" x="12.515" y="157.412" fill="#243C47" fill-opacity=".139" rx="2.284"/><rect width="68.189" height="4.568" x="12.515" y="146.45" fill="#243C47" fill-opacity=".139" rx="2.284"/></g><rect width="585.318" height="445.443" x="144.932" y="5.848" stroke="#202020" stroke-width="21.443" rx="7.213"/><rect width="222.957" height="363" x="32.303" y="57.57" fill="#E2E6E7" rx="7"/><rect width="183.2" height="143.75" x="53" y="99.57" fill="#FFF" rx="4.266"/><rect width="183" height="15" x="53" y="254.32" fill="#1E3D49" rx="4.266"/><rect width="132" height="34" x="78.5" y="371.5" fill="#0086B2" rx="17"/><rect width="69.719" height="69.5" x="166.481" y="295.07" fill="#FDCB5B" rx="34.75"/><path d="m109.7 83.2-4.408 2.318.842-4.909-3.567-3.477 4.929-.716 2.204-4.466 2.204 4.466 4.929.716-3.567 3.477.842 4.909zm-47.85 0-4.408 2.318.842-4.909-3.567-3.477 4.929-.716 2.204-4.466 2.204 4.466 4.929.716-3.567 3.477.842 4.909zm15.95 0-4.408 2.318.842-4.909-3.567-3.477 4.929-.716L77.8 71.95l2.204 4.466 4.929.716-3.567 3.477.842 4.909zm15.95 0-4.408 2.318.842-4.909-3.567-3.477 4.929-.716 2.204-4.466 2.204 4.466 4.929.716-3.567 3.477.842 4.909zm31.9 0-4.408 2.318.842-4.909-3.567-3.477 4.929-.716 2.204-4.466 2.204 4.466 4.929.716-3.567 3.477.842 4.909z" fill="#243C47"/><text fill="#1E3D49" font-family="Montserrat-SemiBold, Montserrat" font-size="48.328" font-weight="500">
                    <tspan x="179.441" y="346.32">€</tspan>
                </text><rect width="69.515" height="6.897" x="53" y="289.948" fill="#243C47" rx="3.448"/><rect width="102.7" height="6.897" x="53" y="277.421" fill="#243C47" rx="3.448"/><rect width="55.357" height="6.897" x="53" y="302.474" fill="#243C47" rx="3.448"/><rect width="51.104" height="6.897" x="53" y="327.528" fill="#243C47" rx="3.448"/><rect width="75.5" height="6.897" x="53" y="315.001" fill="#243C47" rx="3.448"/><path fill="#8B6391" d="M183.341 141.121c3.959 5.218 6.453 12.763 6.835 20.512.36.024.724.107 1.073.252a3.345 3.345 0 0 1 2.075 3.1v8.56a3.337 3.337 0 0 1-1.557 2.831l-14.743 9.376c.902 6.867 2.32 14.691 2.34 14.806.017.092.026.184.026.277v3.094c0 .344-.01.685-.03 1.023.02.172.03.347.03.524h-.07c-.785 8.66-8.092 15.469-16.96 15.469h-10.193c-1.674 0-3.35-.396-4.846-1.144l-2.154-1.076a3.118 3.118 0 0 0-2.771 0l-2.154 1.076a10.896 10.896 0 0 1-4.846 1.144h-10.193c-8.868 0-16.176-6.81-16.96-15.469h-.07c0-.177.01-.352.03-.525-.02-.337-.03-.678-.03-1.022v-3.094c0-.093.009-.185.026-.277.016-.09.896-4.948 1.71-10.358l.107-.724.054-.364.106-.73c.126-.88.249-1.764.363-2.631l-14.744-9.375a3.338 3.338 0 0 1-1.556-2.83v-8.561c0-1.363.814-2.579 2.074-3.1.35-.145.713-.227 1.074-.25.043-.917.117-1.833.22-2.739l3.077.348a40.078 40.078 0 0 0-.248 3.83l10.658 10.648c-.316-3.433-1.058-6.594-2.217-9.436l2.867-1.168c1.74 4.265 2.622 9.148 2.622 14.514 0 6.028-2.781 21.593-3.097 23.342v.126a4.647 4.647 0 0 1 5.993 3.029 4.647 4.647 0 0 1 3.296 4.44 4.646 4.646 0 0 1-3.299 4.442 4.673 4.673 0 0 1-.908 1.661 13.87 13.87 0 0 0 8.852 3.179h10.193a7.782 7.782 0 0 0 3.46-.817l2.156-1.077a6.251 6.251 0 0 1 1.22-.454l.001-5.387h3.097v5.387c.419.107.828.259 1.221.454l2.155 1.077a7.788 7.788 0 0 0 3.46.817h10.194c3.36 0 6.445-1.194 8.854-3.18a4.635 4.635 0 0 1-.91-1.66 4.645 4.645 0 0 1-3.3-4.441 4.646 4.646 0 0 1 3.297-4.441 4.65 4.65 0 0 1 5.993-3.029v-.126c-.316-1.75-3.097-17.314-3.097-23.342 0-5.363.881-10.243 2.618-14.505l2.868 1.166c-1.157 2.841-1.898 6-2.214 9.43l10.658-10.649c-.124-7.593-2.442-15.06-6.254-20.084l2.468-1.869zm-50.397 59.714a4.652 4.652 0 0 1 4.445 3.294 4.647 4.647 0 0 1 3.296 4.44 4.65 4.65 0 0 1-3.296 4.442 4.652 4.652 0 0 1-4.445 3.293 4.652 4.652 0 0 1-4.445-3.293 4.65 4.65 0 0 1-3.296-4.441 4.647 4.647 0 0 1 3.296-4.441 4.652 4.652 0 0 1 4.445-3.294zm21.675 0a4.652 4.652 0 0 1 4.445 3.294 4.647 4.647 0 0 1 3.296 4.44 4.65 4.65 0 0 1-3.296 4.442 4.652 4.652 0 0 1-4.445 3.293 4.652 4.652 0 0 1-4.445-3.293 4.65 4.65 0 0 1-3.296-4.441 4.647 4.647 0 0 1 3.296-4.441 4.65 4.65 0 0 1 4.445-3.294zm0 3.094c-.855 0-1.548.693-1.548 1.547s-.692 1.547-1.549 1.547c-.854 0-1.548.693-1.548 1.547 0 .852.694 1.546 1.548 1.546.857 0 1.549.693 1.549 1.547a1.548 1.548 0 0 0 3.096 0c0-.854.692-1.547 1.548-1.547.855 0 1.549-.694 1.549-1.546 0-.854-.694-1.547-1.549-1.547-.856 0-1.548-.693-1.548-1.547s-.694-1.547-1.548-1.547zm-21.675 0c-.855 0-1.548.693-1.548 1.547s-.692 1.547-1.548 1.547c-.855 0-1.549.693-1.549 1.547 0 .852.694 1.546 1.549 1.546.856 0 1.548.693 1.548 1.547a1.548 1.548 0 0 0 3.096 0c0-.854.692-1.547 1.548-1.547.855 0 1.549-.694 1.549-1.546 0-.854-.694-1.547-1.549-1.547-.856 0-1.548-.693-1.548-1.547s-.693-1.547-1.548-1.547zm41.802 0c-.855 0-1.549.693-1.549 1.547s-.692 1.547-1.548 1.547c-.854 0-1.548.693-1.548 1.547 0 .852.694 1.546 1.548 1.546.856 0 1.548.693 1.548 1.547 0 .268.07.528.198.756a13.837 13.837 0 0 0 2.85-7.326 1.547 1.547 0 0 0-1.5-1.164zm-61.929 0a1.55 1.55 0 0 0-1.5 1.163 13.843 13.843 0 0 0 2.849 7.325c.13-.227.2-.486.2-.754 0-.854.692-1.547 1.548-1.547.854 0 1.548-.694 1.548-1.546 0-.854-.694-1.547-1.548-1.547-.856 0-1.548-.693-1.548-1.547s-.694-1.547-1.549-1.547zm21.675 3.094v3.093h-3.096v-3.093h3.096zm21.675 0v3.093h-3.096v-3.093h3.096zm4.581-85.078c4.329 0 7.608 1.427 9.745 4.246 1.785 2.355 2.488 5.36 2.66 8.23 3.132.417 6.151 2.14 8.809 5.044l-2.282 2.09c-2.034-2.22-4.264-3.583-6.529-4.002a33.306 33.306 0 0 1-.972 6.31l-.026.098-.016.058a1.546 1.546 0 0 1-1.49 1.129c-13.817 0-25.317 22.462-25.317 30.937v30.938h-3.097v-30.938c0-8.475-11.5-30.937-25.318-30.937a1.546 1.546 0 0 1-1.489-1.13l-.016-.057-.026-.098a33.362 33.362 0 0 1-.973-6.309c-5.918 1.108-11.354 8.635-13.276 18.711l-3.043-.578c2.25-11.797 8.834-20.258 16.318-21.266.171-2.869.874-5.874 2.66-8.23 2.137-2.819 5.416-4.246 9.745-4.246h33.933zm-38.641 61.875a4.65 4.65 0 0 1 4.444 3.293 4.648 4.648 0 0 1 3.297 4.441c0 2.09-1.39 3.863-3.297 4.441a4.65 4.65 0 0 1-4.444 3.293 4.65 4.65 0 0 1-4.445-3.293 4.648 4.648 0 0 1-3.296-4.441 4.647 4.647 0 0 1 3.296-4.441 4.65 4.65 0 0 1 4.445-3.293zm43.35 0a4.65 4.65 0 0 1 4.444 3.293 4.647 4.647 0 0 1 3.296 4.441c0 2.09-1.39 3.863-3.296 4.441a4.651 4.651 0 0 1-4.445 3.293 4.651 4.651 0 0 1-4.445-3.293 4.65 4.65 0 0 1-3.296-4.441 4.647 4.647 0 0 1 3.296-4.441 4.652 4.652 0 0 1 4.445-3.293zm-43.35 3.093c-.808 0-1.471.619-1.542 1.407l-.007.14c0 .807-.617 1.47-1.407 1.54l-.14.007a1.55 1.55 0 0 0-1.55 1.547 1.55 1.55 0 0 0 1.55 1.547c.855 0 1.547.693 1.547 1.547a1.55 1.55 0 0 0 3.097 0c0-.854.692-1.547 1.548-1.547a1.548 1.548 0 1 0 0-3.094c-.856 0-1.548-.693-1.548-1.547s-.694-1.547-1.548-1.547zm43.35 0c-.855 0-1.549.693-1.549 1.547 0 .807-.617 1.47-1.407 1.54l-.141.007a1.548 1.548 0 1 0 0 3.094c.856 0 1.548.693 1.548 1.547a1.55 1.55 0 0 0 3.097 0c0-.854.692-1.547 1.548-1.547a1.547 1.547 0 0 0 .141-3.087l-.141-.007c-.856 0-1.548-.693-1.548-1.547s-.694-1.547-1.549-1.547zm1.548 3.094v3.094h-3.097v-3.094h3.097zm-43.35 0v3.094h-3.097v-3.094h3.097zm66.572-18.62-13.712 9.965c.03.323.064.654.1.992l13.49-8.578a.258.258 0 0 0 .123-.22l-.001-2.158zm-92.892 0v2.158c0 .09.045.172.121.221l13.491 8.578c.037-.339.07-.67.1-.993l-13.712-9.963zm58.832-7.677a4.652 4.652 0 0 1 4.445 3.294 4.647 4.647 0 0 1 3.296 4.44 4.65 4.65 0 0 1-3.296 4.442 4.651 4.651 0 0 1-4.445 3.293 4.652 4.652 0 0 1-4.445-3.293 4.65 4.65 0 0 1-3.296-4.441 4.647 4.647 0 0 1 3.296-4.441 4.652 4.652 0 0 1 4.445-3.294zm-24.771 0a4.652 4.652 0 0 1 4.445 3.294 4.647 4.647 0 0 1 3.296 4.44 4.65 4.65 0 0 1-3.296 4.442 4.652 4.652 0 0 1-4.445 3.293 4.652 4.652 0 0 1-4.445-3.293 4.65 4.65 0 0 1-3.296-4.441 4.647 4.647 0 0 1 3.296-4.441 4.65 4.65 0 0 1 4.445-3.294zm58.384 1.09c-.002 0-.004.002-.006.004l-11.332 11.322 11.785-8.563v-2.608c-.004-.059-.026-.156-.162-.213-.161-.068-.252.025-.285.057zm-92.282-.058c-.163.068-.163.195-.163.243v2.578l11.782 8.56-11.322-11.314c-.092-.08-.175-.119-.297-.067zm58.67 2.062c-.856 0-1.55.693-1.55 1.547s-.691 1.547-1.547 1.547c-.855 0-1.549.693-1.549 1.547 0 .852.694 1.546 1.549 1.546.856 0 1.548.693 1.548 1.547a1.548 1.548 0 0 0 3.096 0c0-.854.692-1.547 1.549-1.547.854 0 1.548-.694 1.548-1.546 0-.854-.694-1.547-1.548-1.547-.857 0-1.549-.693-1.549-1.547s-.693-1.547-1.548-1.547zm-24.772 0c-.855 0-1.548.693-1.548 1.547s-.692 1.547-1.549 1.547c-.854 0-1.548.693-1.548 1.547 0 .852.694 1.546 1.548 1.546.857 0 1.549.693 1.549 1.547a1.548 1.548 0 0 0 3.096 0c0-.854.692-1.547 1.548-1.547a1.548 1.548 0 1 0 0-3.093c-.856 0-1.548-.693-1.548-1.547s-.694-1.547-1.548-1.547zm26.32 3.094v3.093h-3.097v-3.093h3.096zm-24.772 0v3.093h-3.096v-3.093h3.096zm35.609-20.11a4.652 4.652 0 0 1 4.445 3.294 4.648 4.648 0 0 1 3.296 4.44 4.65 4.65 0 0 1-3.296 4.442 4.652 4.652 0 0 1-4.445 3.293 4.651 4.651 0 0 1-4.445-3.293 4.65 4.65 0 0 1-3.296-4.441 4.647 4.647 0 0 1 3.296-4.441 4.65 4.65 0 0 1 4.445-3.294zm-49.543 0a4.652 4.652 0 0 1 4.445 3.294 4.647 4.647 0 0 1 3.296 4.44 4.65 4.65 0 0 1-3.296 4.442 4.651 4.651 0 0 1-4.445 3.293 4.651 4.651 0 0 1-4.445-3.293 4.65 4.65 0 0 1-3.296-4.441 4.647 4.647 0 0 1 3.296-4.441 4.652 4.652 0 0 1 4.445-3.294zm41.738-24.75h-33.933c-3.355 0-5.735.987-7.275 3.02-3.123 4.118-1.976 11.321-1.392 14.044 8.883.68 15.692 8.58 19.04 13.374l.32.467c-5.393-13.888-13.492-26.792-13.615-26.985a1.547 1.547 0 0 1 1.31-2.373h29.416v3.094H127.96c3.495 5.86 12.253 21.4 15.821 35.507 3.57-14.108 12.327-29.647 15.822-35.507h-1.888v-3.094h4.645a1.547 1.547 0 0 1 1.31 2.373c-.122.193-8.216 13.093-13.61 26.977l.315-.459c3.347-4.792 10.156-12.692 19.037-13.374.584-2.727 1.725-9.946-1.392-14.047-1.542-2.03-3.92-3.017-7.272-3.017zm7.805 27.844c-.855 0-1.548.693-1.548 1.547s-.693 1.547-1.549 1.547c-.854 0-1.548.693-1.548 1.547a1.55 1.55 0 0 0 1.548 1.547c.856 0 1.549.693 1.549 1.546a1.548 1.548 0 0 0 3.096 0c0-.853.692-1.546 1.548-1.546a1.548 1.548 0 1 0 0-3.094c-.856 0-1.548-.693-1.548-1.547s-.694-1.547-1.548-1.547zm-49.543 0c-.854 0-1.548.693-1.548 1.547s-.692 1.547-1.548 1.547a1.548 1.548 0 1 0 0 3.094c.856 0 1.548.693 1.548 1.546a1.549 1.549 0 0 0 3.096 0c0-.853.692-1.546 1.549-1.546a1.55 1.55 0 0 0 1.548-1.547c0-.854-.694-1.547-1.548-1.547a1.547 1.547 0 0 1-1.542-1.406l-.007-.141c0-.854-.693-1.547-1.548-1.547zm60.834 3.546 2.189 2.188c-.005.005-.886.911-1.943 2.766l-2.69-1.53c1.26-2.215 2.328-3.307 2.444-3.424zm-72.125.001c.118.116 1.183 1.207 2.443 3.419l-2.69 1.531c-1.057-1.852-1.939-2.76-1.948-2.769l2.195-2.18zm62.382-.453v3.094h-3.096v-3.094h3.096zm-49.543 0v3.094h-3.096v-3.094h3.096z"/><g transform="translate(241.084 101.945)"><rect width="26.5" height="26.5" x="4" fill="#8B6391" rx="4"/><text fill="#FFF" font-family="Montserrat-Regular, Montserrat" font-size="13">
                        <tspan x="12.589" y="17.25">A</tspan>
                    </text><path fill="#8B6391" d="M4 17.625v-8l-4 4"/></g><path fill="#0086B2" d="M72.147 385.17v8l4-4"/><path fill="#1E3D49" d="M43.053 75.67v8l4-4"/><g transform="translate(17.553 66.2)"><rect width="26.5" height="26.5" fill="#1E3D49" rx="4"/><text fill="#FFF" font-family="Montserrat-Regular, Montserrat" font-size="13">
                            <tspan x="8.902" y="17.25">E</tspan>
                        </text></g><g transform="rotate(-180 134.93 171.535)"><path fill="#FDCB5B" d="M25.851 10.1v8l4-4-.916-.9"/><rect width="26.5" height="26.5" fill="#FDCB5B" rx="4"/><text fill="#1E3D49" font-family="Montserrat-Regular, Montserrat" font-size="13" transform="rotate(-180 13.25 13.25)">
                            <tspan x="8.576" y="18.25">C</tspan>
                        </text></g><g transform="rotate(-180 137.823 137.535)"><rect width="26.5" height="26.5" fill="#1E3D49" rx="4"/><text fill="#FFF" font-family="Montserrat-Regular, Montserrat" font-size="13" transform="rotate(-180 13.25 14.25)">
                            <tspan x="8.349" y="19.25">B</tspan>
                        </text></g><path fill="#1E3D49" d="M250.147 265.82v-8l-4 4"/><g transform="translate(45.647 375.25)"><rect width="26.5" height="26.5" fill="#0086B2" rx="4"/><text fill="#FFF" font-family="Montserrat-Regular, Montserrat" font-size="13">
                        <tspan x="9.136" y="17.25">F</tspan>
                    </text></g><g transform="translate(272.296 116.57)"><rect width="26.5" height="26.5" x="145.704" y="57.75" fill="#FFF" rx="4"/><text fill="#0086B2" font-family="Montserrat-Regular, Montserrat" font-size="13">
                        <tspan x="153.585" y="75">D</tspan>
                    </text><path stroke="#D3D3D3" stroke-dasharray="2" d="M145.704 63H21.037a8 8 0 0 1-8-8V8a8 8 0 0 0-8-8H0M145.704 74h-123a8 8 0 0 0-8 8v56.087a8 8 0 0 1-8 8h-4"/><path stroke="#D3D3D3" stroke-dasharray="2" d="M145.704 79h-55a8 8 0 0 0-8 8v127a8 8 0 0 1-8 8h-45"/></g><rect width="300" height="396" x="1" y="38.57" stroke="#D3D3D3" stroke-width="2" rx="16"/><path stroke="#D3D3D3" stroke-width="2" d="M302 389.57h232"/><g><path d="M129 375.57h26.5v26.5H129z"/><path fill="#FFF" fill-rule="nonzero" d="M152.884 393.182h-15.411l.774-1.576 12.856-.023a.899.899 0 0 0 .885-.74l1.78-9.967a.899.899 0 0 0-.882-1.058l-16.355-.054-.14-.658a.919.919 0 0 0-.895-.724h-3.999a.913.913 0 0 0 0 1.827h3.258l.611 2.903 1.504 7.28-1.936 3.16a.906.906 0 0 0-.078.952.912.912 0 0 0 .816.502h1.625a2.657 2.657 0 0 0 2.122 4.252 2.657 2.657 0 0 0 2.122-4.252h4.169a2.657 2.657 0 0 0 2.122 4.252 2.657 2.657 0 0 0 2.122-4.252h2.932a.915.915 0 0 0 .914-.913.917.917 0 0 0-.916-.911zm-15.974-11.617 14.901.049-1.46 8.173-11.704.02-1.737-8.242zm2.51 15.855a.82.82 0 0 1-.818-.818.82.82 0 0 1 .818-.818.818.818 0 0 1 0 1.636zm8.413 0a.82.82 0 0 1-.818-.818.82.82 0 0 1 .818-.818.818.818 0 1 1 0 1.636z"/></g></g></svg>