<svg xmlns="http://www.w3.org/2000/svg" xmlns:xlink="http://www.w3.org/1999/xlink" width="766" height="466" viewBox="0 0 766 466">
    <defs>
        <linearGradient id="k0cmj7adoc" x1="50%" x2="50%" y1="0%" y2="100%">
            <stop offset="0%" stop-color="#FFF" stop-opacity="0"/>
            <stop offset="100%" stop-color="#FFF"/>
        </linearGradient>
        <path id="d4s4dbt83a" d="M0 0H766V466H0z"/>
    </defs>
    <g fill="none" fill-rule="evenodd">
        <g>
            <mask id="73o94a0x5b" fill="#fff">
                <use xlink:href="#d4s4dbt83a"/>
            </mask>
            <use fill="#FFF" xlink:href="#d4s4dbt83a"/>
            <g mask="url(#73o94a0x5b)">
                <g transform="translate(0.000000, 21.475521)">
                    <rect width="486.443" height="360.443" x="269.55" y="-10.721" fill="#E2E6E7" stroke="#202020" stroke-width="21.443" rx="7.213"/>
                    <g opacity=".414" transform="translate(305.920658, 133.524479)">
                        <rect width="73" height="14" x="190.26" y="21.3" fill="#BBC3C6" rx="4"/>
                        <rect width="66" height="14" x="276.26" y="21.3" fill="#BBC3C6" rx="4"/>
                        <text fill="#000" font-family="Montserrat-Regular, Montserrat" font-size="11">
                            <tspan x="0" y="11">TERM</tspan>
                        </text>
                        <text fill="#000" font-family="Montserrat-Regular, Montserrat" font-size="11">
                            <tspan x="110.26" y="11">SYNONYMS (4)</tspan>
                        </text>
                        <text fill="#000" font-family="Montserrat-Light, Montserrat" font-size="18" font-weight="300" transform="translate(247.940606, 28.299983) rotate(-45.000000) translate(-247.940606, -28.299983)">
                            <tspan x="242.441" y="34.3">+</tspan>
                        </text>
                        <text fill="#000" font-family="Montserrat-Light, Montserrat" font-size="18" font-weight="300" transform="translate(333.940606, 28.299983) rotate(-45.000000) translate(-333.940606, -28.299983)">
                            <tspan x="328.441" y="34.3">+</tspan>
                        </text>
                        <rect width="66" height="14" x="355.26" y="21.3" fill="#BBC3C6" rx="4"/>
                        <text fill="#000" font-family="Montserrat-Light, Montserrat" font-size="18" font-weight="300" transform="translate(412.940606, 28.299983) rotate(-45.000000) translate(-412.940606, -28.299983)">
                            <tspan x="407.441" y="34.3">+</tspan>
                        </text>
                        <rect width="66" height="14" x="190.26" y="171.3" fill="#BBC3C6" rx="4"/>
                        <rect width="66" height="14" x="270.26" y="171.3" fill="#BBC3C6" rx="4"/>
                        <text fill="#000" font-family="Montserrat-Light, Montserrat" font-size="18" font-weight="300" transform="translate(247.940606, 178.299983) rotate(-45.000000) translate(-247.940606, -178.299983)">
                            <tspan x="242.441" y="184.3">+</tspan>
                        </text>
                        <text fill="#000" font-family="Montserrat-Light, Montserrat" font-size="18" font-weight="300" transform="translate(327.940606, 178.299983) rotate(-45.000000) translate(-327.940606, -178.299983)">
                            <tspan x="322.441" y="184.3">+</tspan>
                        </text>
                        <rect width="66" height="14" x="346.26" y="171.3" fill="#BBC3C6" rx="4"/>
                        <text fill="#000" font-family="Montserrat-Light, Montserrat" font-size="18" font-weight="300" transform="translate(403.940606, 178.299983) rotate(-45.000000) translate(-403.940606, -178.299983)">
                            <tspan x="398.441" y="184.3">+</tspan>
                        </text>
                        <rect width="66" height="14" x="170.26" y="121.3" fill="#BBC3C6" rx="4"/>
                        <rect width="66" height="14" x="250.26" y="121.3" fill="#BBC3C6" rx="4"/>
                        <rect width="44" height="13" x="326.202" y="121.8" stroke="#D3D3D3" rx="4"/>
                        <text fill="#000" font-family="Montserrat-Light, Montserrat" font-size="18" font-weight="300" transform="translate(227.940606, 128.299983) rotate(-45.000000) translate(-227.940606, -128.299983)">
                            <tspan x="222.441" y="134.3">+</tspan>
                        </text>
                        <text fill="#000" font-family="Montserrat-Light, Montserrat" font-size="18" font-weight="300" transform="translate(307.940606, 128.299983) rotate(-45.000000) translate(-307.940606, -128.299983)">
                            <tspan x="302.441" y="134.3">+</tspan>
                        </text>
                        <text fill="#000" font-family="Montserrat-Light, Montserrat" font-size="18" font-weight="300" transform="translate(359.592998, 128.299983) rotate(-90.000000) translate(-359.592998, -128.299983)">
                            <tspan x="354.093" y="134.3">+</tspan>
                        </text>
                        <text fill="#000" font-family="Montserrat-SemiBold, Montserrat" font-size="7" font-weight="500">
                            <tspan x="333.514" y="130.8">ADD</tspan>
                        </text>
                        <rect width="99.5" height="14" x="190.26" y="71.3" fill="#BBC3C6" rx="4"/>
                        <rect width="44" height="13" x="301.202" y="71.8" stroke="#D3D3D3" rx="4"/>
                        <text fill="#000" font-family="Montserrat-Light, Montserrat" font-size="18" font-weight="300" transform="translate(277.940606, 78.299983) rotate(-45.000000) translate(-277.940606, -78.299983)">
                            <tspan x="272.441" y="84.3">+</tspan>
                        </text>
                        <text fill="#000" font-family="Montserrat-Light, Montserrat" font-size="18" font-weight="300" transform="translate(334.592998, 78.299983) rotate(-90.000000) translate(-334.592998, -78.299983)">
                            <tspan x="329.093" y="84.3">+</tspan>
                        </text>
                        <text fill="#000" font-family="Montserrat-SemiBold, Montserrat" font-size="7" font-weight="500">
                            <tspan x="308.514" y="80.8">ADD</tspan>
                        </text>
                    </g>
                    <path fill="#1E3D49" d="M287.082.024h451c3.866 0 7 3.134 7 7v55.5c0 .553-.447 1-1 1h-463c-.552 0-1-.447-1-1v-55.5c0-3.866 3.134-7 7-7z"/>
                    <rect width="486.443" height="380.443" x="10.807" y="153.279" fill="#FFF" stroke="#202020" stroke-width="21.443" rx="7.213"/>
                    <rect width="78.646" height="92.052" x="128.13" y="338.72" fill="#E2E6E7" rx="5"/>
                    <rect width="63.464" height="49.798" x="135.721" y="345.048" fill="#53B9C9" rx="4.266"/>
                    <g transform="translate(146.027660, 400.748681)">
                        <rect width="40.66" height="6.276" fill="#BBC3C6" rx="3.138"/>
                    </g>
                    <rect width="78.646" height="92.052" x="40.235" y="338.72" fill="#E2E6E7" rx="5"/>
                    <rect width="63.464" height="49.798" x="47.826" y="345.048" fill="#53B9C9" rx="4.266"/>
                    <g transform="translate(58.132577, 400.748681)">
                        <rect width="40.66" height="6.276" fill="#BBC3C6" rx="3.138"/>
                    </g>
                    <rect width="78.646" height="92.052" x="216.026" y="338.72" fill="#E2E6E7" rx="5"/>
                    <rect width="63.464" height="49.798" x="223.616" y="345.048" fill="#FDCB5B" rx="4.266"/>
                    <g transform="translate(233.922744, 400.748681)">
                        <rect width="40.66" height="6.276" fill="#BBC3C6" rx="3.138"/>
                    </g>
                    <rect width="78.646" height="92.052" x="303.921" y="338.72" fill="#E2E6E7" rx="5"/>
                    <rect width="63.464" height="49.798" x="311.511" y="345.048" fill="#53B9C9" rx="4.266"/>
                    <g transform="translate(321.817827, 400.748681)">
                        <rect width="40.66" height="6.276" fill="#BBC3C6" rx="3.138"/>
                    </g>
                    <rect width="78.646" height="92.052" x="391.816" y="338.72" fill="#E2E6E7" rx="5"/>
                    <rect width="63.464" height="49.798" x="399.406" y="345.048" fill="#53B9C9" rx="4.266"/>
                    <g transform="translate(409.712911, 400.748681)">
                        <rect width="40.66" height="6.276" fill="#BBC3C6" rx="3.138"/>
                    </g>
                    <rect width="78.646" height="92.052" x="128.13" y="226.968" fill="#E2E6E7" rx="5"/>
                    <rect width="63.464" height="49.798" x="135.721" y="233.296" fill="#53B9C9" rx="4.266"/>
                    <g transform="translate(146.027660, 288.996684)">
                        <rect width="40.66" height="6.276" fill="#BBC3C6" rx="3.138"/>
                    </g>
                    <g transform="translate(134.659948, 300.914203)">
                        <rect width="63.395" height="11.778" fill="#BBC3C6" rx="5.889"/>
                    </g>
                    <rect width="78.646" height="92.052" x="40.235" y="226.968" fill="#E2E6E7" rx="5"/>
                    <rect width="63.464" height="49.798" x="47.826" y="233.296" fill="#53B9C9" rx="4.266"/>
                    <g transform="translate(58.132577, 288.996684)">
                        <rect width="40.66" height="6.276" fill="#BBC3C6" rx="3.138"/>
                    </g>
                    <g transform="translate(46.764865, 300.914203)">
                        <rect width="63.395" height="11.778" fill="#BBC3C6" rx="5.889"/>
                    </g>
                    <rect width="78.646" height="92.052" x="216.026" y="226.968" fill="#E2E6E7" rx="5"/>
                    <rect width="63.464" height="49.798" x="223.616" y="233.296" fill="#FDCB5B" rx="4.266"/>
                    <g transform="translate(233.922744, 288.996684)">
                        <rect width="40.66" height="6.276" fill="#BBC3C6" rx="3.138"/>
                    </g>
                    <g transform="translate(222.555032, 300.914203)">
                        <rect width="63.395" height="11.778" fill="#BBC3C6" rx="5.889"/>
                    </g>
                    <rect width="78.646" height="92.052" x="303.921" y="226.968" fill="#E2E6E7" rx="5"/>
                    <rect width="63.464" height="49.798" x="311.511" y="233.296" fill="#53B9C9" rx="4.266"/>
                    <g transform="translate(321.817827, 288.996684)">
                        <rect width="40.66" height="6.276" fill="#BBC3C6" rx="3.138"/>
                    </g>
                    <g transform="translate(310.450115, 300.914203)">
                        <rect width="63.395" height="11.778" fill="#BBC3C6" rx="5.889"/>
                    </g>
                    <rect width="78.646" height="92.052" x="391.816" y="226.968" fill="#E2E6E7" rx="5"/>
                    <rect width="63.464" height="49.798" x="399.406" y="233.296" fill="#FDCB5B" rx="4.266"/>
                    <g transform="translate(409.712911, 288.996684)">
                        <rect width="40.66" height="6.276" fill="#BBC3C6" rx="3.138"/>
                    </g>
                    <g transform="translate(398.345198, 300.914203)">
                        <rect width="63.395" height="11.778" fill="#BBC3C6" rx="5.889"/>
                    </g>
                    <rect width="341" height="23.5" x="128.857" y="185.5" fill="#FFF" stroke="#D3D3D3" rx="11.75"/>
                    <g stroke="#D3D3D3" transform="translate(449.180917, 192.086933)">
                        <circle cx="4.78" cy="4.78" r="4.28" fill="#FFF"/>
                        <path stroke-linecap="round" d="M8.293 7.817L11.058 10.581"/>
                    </g>
                    <rect width="79.733" height="22.002" x="129.555" y="186.249" fill="#53B9C9" rx="11.001"/>
                    <rect width="79.5" height="43" x="40.235" y="175.75" fill="#BBC3C6" rx="10"/>
                    <text font-family="Montserrat-Regular, Montserrat" font-size="19">
                        <tspan x="303.921" y="41.524" fill="#FFF">Playboard</tspan>
                    </text>
                    <text font-family="Montserrat-Regular, Montserrat" font-size="19">
                        <tspan x="40.235" y="121.508" fill="#000">RESULTS</tspan>
                    </text>
                    <g transform="translate(303.920658, 83.524479)">
                        <rect width="66" height="22" y="17.3" fill="#53B9C9" rx="4"/>
                        <rect width="60.5" height="22" x="112.26" y="17.3" fill="#FDCB5B" rx="4"/>
                        <rect width="73.5" height="22" x="184.76" y="17.3" fill="#FDCB5B" rx="4"/>
                        <rect width="44" height="21" x="272.202" y="17.8" stroke="#D3D3D3" rx="4"/>
                        <text fill="#000" font-family="Montserrat-Regular, Montserrat" font-size="11">
                            <tspan x="2" y="11">TERM</tspan>
                        </text>
                        <text fill="#000" font-family="Montserrat-Regular, Montserrat" font-size="11">
                            <tspan x="112.26" y="11">SYNONYMS (2)</tspan>
                        </text>
                        <text fill="#000" font-family="Montserrat-Light, Montserrat" font-size="18" font-weight="300" transform="translate(160.940606, 28.299983) rotate(-45.000000) translate(-160.940606, -28.299983)">
                            <tspan x="155.441" y="34.3">+</tspan>
                        </text>
                        <text fill="#000" font-family="Montserrat-Light, Montserrat" font-size="18" font-weight="300" transform="translate(249.940606, 28.299983) rotate(-45.000000) translate(-249.940606, -28.299983)">
                            <tspan x="244.441" y="34.3">+</tspan>
                        </text>
                        <text fill="#000" font-family="Montserrat-Light, Montserrat" font-size="18" font-weight="300" transform="translate(305.592998, 28.299983) rotate(-90.000000) translate(-305.592998, -28.299983)">
                            <tspan x="300.093" y="34.3">+</tspan>
                        </text>
                        <text fill="#000" font-family="Montserrat-SemiBold, Montserrat" font-size="7" font-weight="500">
                            <tspan x="279.514" y="30.8">ADD</tspan>
                        </text>
                    </g>
                    <path fill="#000" fill-rule="nonzero" d="M437.255 253.589l.49.871-6.636 3.733v.662l6.636 3.734-.49.871-8-4.5-.775-.436.775-.435 8-4.5zm-2.146 4.435v1h-2v-1h2zm4 0v1h-2v-1h2zm4 0v1h-2v-1h2zm4 0v1h-2v-1h2zm4 0v1h-2v-1h2zm4 0v1h-2v-1h2zm4 0v1h-2v-1h2zm4 0v1h-2v-1h2zm4 0v1h-2v-1h2zm4 0v1h-2v-1h2zm4 0v1h-2v-1h2zm4 0v1h-2v-1h2zm4 0v1h-2v-1h2zm4 0v1h-2v-1h2zm4 0v1h-2v-1h2zm4 0v1h-2v-1h2zm4 0v1h-2v-1h2zm4 0v1h-2v-1h2zm4 0v1h-2v-1h2zm4 0v1h-2v-1h2zm4 0v1h-2v-1h2zm3.98-.017l.061.998-.319.014-.32.005h-1.402v-1h1.401c.194 0 .387-.006.58-.017zm3.6-.954l.442.898c-.503.247-1.026.454-1.563.618l-.406.115-.253-.968c.616-.16 1.212-.383 1.78-.663zm3.056-2.383l.762.647c-.363.428-.76.826-1.186 1.19l-.325.267-.62-.785c.5-.393.958-.835 1.369-1.319zm1.83-3.327l.955.296c-.167.538-.376 1.06-.626 1.561l-.195.373-.877-.481c.306-.556.555-1.142.743-1.749zm1.425-3.819v1c0 .235-.008.468-.023.7l-.029.348-.995-.099c.021-.209.035-.42.042-.63l.005-.319v-1h1zm0-4v2h-1v-2h1zm0-4v2h-1v-2h1zm0-4v2h-1v-2h1zm0-4v2h-1v-2h1zm0-4v2h-1v-2h1zm0-4v2h-1v-2h1zm0-4v2h-1v-2h1zm0-4v2h-1v-2h1zm0-4v2h-1v-2h1zm0-4v2h-1v-2h1zm0-4v2h-1v-2h1zm0-4v2h-1v-2h1zm0-4v2h-1v-2h1zm0-4v2h-1v-2h1zm0-4v2h-1v-2h1zm0-4v2h-1v-2h1zm0-4v2h-1v-2h1zm0-4v2h-1v-2h1zm0-4v2h-1v-2h1zm0-4v2h-1v-2h1zm0-4v2h-1v-2h1zm0-4v2h-1v-2h1zm0-4v2h-1v-2h1zm0-4v2h-1v-2h1zm0-4v2h-1v-2h1zm0-4v2h-1v-2h1zm0-4v2h-1v-2h1zm0-4v2h-1v-2h1zm0-4v2h-1v-2h1zm-.5-12.5c2.485 0 4.5 2.015 4.5 4.5 0 2.317-1.75 4.224-4 4.473v1.527h-1v-1.527c-2.25-.249-4-2.156-4-4.473 0-2.485 2.015-4.5 4.5-4.5zm0 1c-1.933 0-3.5 1.567-3.5 3.5s1.567 3.5 3.5 3.5 3.5-1.567 3.5-3.5-1.567-3.5-3.5-3.5zM262.255 253.589l.49.871-7.149 4.021v.086l7.15 4.022-.491.871-8-4.5-.775-.436.775-.435 8-4.5zm53.341 4.435v1h-2v-1h2zm4 0v1h-2v-1h2zm-60 0v1h-2v-1h2zm4 0v1h-2v-1h2zm4 0v1h-2v-1h2zm4 0v1h-2v-1h2zm4 0v1h-2v-1h2zm4 0v1h-2v-1h2zm4 0v1h-2v-1h2zm4 0v1h-2v-1h2zm4 0v1h-2v-1h2zm4 0v1h-2v-1h2zm4 0v1h-2v-1h2zm4 0v1h-2v-1h2zm4 0v1h-2v-1h2zm4 0v1h-2v-1h2zm64 0v1h-2v-1h2zm3.927-.169l.188.983c-.511.097-1.03.157-1.557.178l-.395.008h-.162v-1h.16c.598-.001 1.188-.058 1.766-.169zm-55.927.17v1h-2v-1h2zm4 0v1h-2v-1h2zm4 0v1h-2v-1h2zm4 0v1h-2v-1h2zm4 0v1h-2v-1h2zm4 0v1h-2v-1h2zm4 0v1h-2v-1h2zm4 0v1h-2v-1h2zm4 0v1h-2v-1h2zm4 0v1h-2v-1h2zm4 0v1h-2v-1h2zm4 0v1h-2v-1h2zm4 0v1h-2v-1h2zm11.394-1.589l.554.833c-.467.31-.958.584-1.469.817l-.387.166-.377-.926c.588-.24 1.15-.538 1.679-.89zm2.675-2.686l.834.55c-.309.469-.655.912-1.034 1.325l-.291.304-.709-.705c.448-.45.85-.944 1.2-1.474zm1.422-3.576l.985.173c-.097.555-.239 1.1-.423 1.628l-.146.394-.93-.367c.231-.588.404-1.2.514-1.828zm1.142-3.907v2h-1v-2h1zm0-4v2h-1v-2h1zm0-4v2h-1v-2h1zm0-4v2h-1v-2h1zm0-4v2h-1v-2h1zm0-4v2h-1v-2h1zm0-4v2h-1v-2h1zm0-4v2h-1v-2h1zm0-4v2h-1v-2h1zm0-4v2h-1v-2h1zm0-4v2h-1v-2h1zm0-4v2h-1v-2h1zm0-4v2h-1v-2h1zm0-4v2h-1v-2h1zm0-4v2h-1v-2h1zm0-4v2h-1v-2h1zm0-4v2h-1v-2h1zm0-4v2h-1v-2h1zm0-4v2h-1v-2h1zm0-4v2h-1v-2h1zm0-4v2h-1v-2h1zm0-4v2h-1v-2h1zm0-4v2h-1v-2h1zm0-4v2h-1v-2h1zm0-4v2h-1v-2h1zm0-4v2h-1v-2h1zm0-4v2h-1v-2h1zm0-4v2h-1v-2h1zm0-4v2h-1v-2h1zm0-4v2h-1v-2h1zm0-4v2h-1v-2h1zm0-4v2h-1v-2h1zm-.695-4.005l.964.266c-.132.48-.217.974-.25 1.477l-.017.379-1-.019c.013-.717.115-1.422.303-2.103zm29.966-10.238c2.485 0 4.5 2.015 4.5 4.5 0 2.486-2.015 4.5-4.5 4.5-2.316 0-4.224-1.75-4.473-4H411.5v-1h1.527c.25-2.25 2.157-4 4.473-4zm-27.77 6.48l.706.707c-.356.355-.675.744-.953 1.16l-.2.32-.86-.513c.364-.61.803-1.173 1.307-1.675zm27.77-5.48c-1.933 0-3.5 1.567-3.5 3.5s1.567 3.5 3.5 3.5 3.5-1.567 3.5-3.5-1.567-3.5-3.5-3.5zm-24.117 3.328l.276.962c-.483.138-.95.325-1.394.557l-.329.182-.506-.862c.612-.36 1.268-.642 1.953-.839zm4.117-.328v1h-1.77l-.108.001-.108.003-.028-1 .122-.003h1.892zm4 0v1h-2v-1h2zm4 0v1h-2v-1h2zm4 0v1h-2v-1h2z"/>
                    <path fill="#000" fill-rule="nonzero" d="M262.255 364.589l.49.871-7.225 4.064 7.225 4.065-.49.871-8-4.5-.775-.436.775-.435 8-4.5zm84.341 4.435v1h-2v-1h2zm4 0v1h-2v-1h2zm-92 0v1h-2v-1h2zm4 0v1h-2v-1h2zm4 0v1h-2v-1h2zm4 0v1h-2v-1h2zm4 0v1h-2v-1h2zm4 0v1h-2v-1h2zm4 0v1h-2v-1h2zm4 0v1h-2v-1h2zm4 0v1h-2v-1h2zm4 0v1h-2v-1h2zm4 0v1h-2v-1h2zm4 0v1h-2v-1h2zm4 0v1h-2v-1h2zm4 0v1h-2v-1h2zm4 0v1h-2v-1h2zm4 0v1h-2v-1h2zm4 0v1h-2v-1h2zm4 0v1h-2v-1h2zm4 0v1h-2v-1h2zm4 0v1h-2v-1h2zm4 0v1h-2v-1h2zm4 0v1h-2v-1h2zm35.972-.036l.087.996c-.201.018-.403.03-.605.036l-.305.004h-1.149v-1h1.148c.276 0 .551-.012.824-.036zm-3.972.036v1h-2v-1h2zm-20 0v1h-2v-1h2zm4 0v1h-2v-1h2zm4 0v1h-2v-1h2zm4 0v1h-2v-1h2zm4 0v1h-2v-1h2zm11.55-1.086l.465.885c-.497.261-1.013.482-1.546.66l-.402.126-.28-.96c.612-.178 1.201-.416 1.762-.71zm2.987-2.46l.778.628c-.351.437-.738.845-1.154 1.22l-.318.276-.64-.77c.489-.405.935-.86 1.334-1.354zm1.742-3.372l.962.27c-.152.542-.348 1.07-.585 1.577l-.185.378-.889-.458c.29-.564.524-1.155.697-1.767zm1.354-3.84v1.258l-.007.39-.021.388-.997-.073.019-.351.006-.354v-1.257h1zm0-4v2h-1v-2h1zm0-4v2h-1v-2h1zm0-4v2h-1v-2h1zm0-4v2h-1v-2h1zm0-4v2h-1v-2h1zm0-4v2h-1v-2h1zm0-4v2h-1v-2h1zm0-4v2h-1v-2h1zm0-4v2h-1v-2h1zm0-4v2h-1v-2h1zm0-4v2h-1v-2h1zm0-4v2h-1v-2h1zm0-4v2h-1v-2h1zm0-4v2h-1v-2h1zm0-4v2h-1v-2h1zm0-4v2h-1v-2h1zm0-4v2h-1v-2h1zm0-4v2h-1v-2h1zm0-4v2h-1v-2h1zm0-4v2h-1v-2h1zm0-4v2h-1v-2h1zm0-4v2h-1v-2h1zm0-4v2h-1v-2h1zm0-4v2h-1v-2h1zm0-4v2h-1v-2h1zm0-4v2h-1v-2h1zm0-4v2h-1v-2h1zm0-4v2h-1v-2h1zm0-4v2h-1v-2h1zm0-4v2h-1v-2h1zm0-4v2h-1v-2h1zm0-4v2h-1v-2h1zm0-4v2h-1v-2h1zm0-4v2h-1v-2h1zm0-4v2h-1v-2h1zm0-4v2h-1v-2h1zm0-4v2h-1v-2h1zm0-4v2h-1v-2h1zm0-4v2h-1v-2h1zm0-4v2h-1v-2h1zm0-4v2h-1v-2h1zm0-4v2h-1v-2h1zm0-4v2h-1v-2h1zm0-4v2h-1v-2h1zm0-4v2h-1v-2h1zm0-4v2h-1v-2h1zm0-4v2h-1v-2h1zm0-4v2h-1v-2h1zm0-4v2h-1v-2h1zm0-4v2h-1v-2h1zm0-4v2h-1v-2h1zm0-4v2h-1v-2h1zm0-4v2h-1v-2h1zm0-4v2h-1v-2h1zm0-4v2h-1v-2h1zm0-4v2h-1v-2h1zm0-4v2h-1v-2h1zm0-4v2h-1v-2h1zm0-4v2h-1v-2h1zm-.695-4.004l.964.266c-.132.48-.217.974-.25 1.477l-.017.379-1-.019c.013-.717.115-1.422.303-2.103zm29.966-10.238c2.485 0 4.5 2.015 4.5 4.5 0 2.486-2.015 4.5-4.5 4.5-2.316 0-4.224-1.75-4.473-4H411.5v-1h1.527c.25-2.25 2.157-4 4.473-4zm-27.77 6.48l.706.707c-.356.355-.675.744-.953 1.16l-.2.32-.86-.513c.364-.61.803-1.173 1.307-1.675zm27.77-5.48c-1.933 0-3.5 1.567-3.5 3.5s1.567 3.5 3.5 3.5 3.5-1.567 3.5-3.5-1.567-3.5-3.5-3.5zm-24.117 3.328l.276.962c-.483.138-.95.325-1.394.557l-.329.182-.506-.862c.612-.36 1.268-.642 1.953-.839zm4.117-.328v1h-1.77l-.108.001-.108.003-.028-1 .122-.003h1.892zm4 0v1h-2v-1h2zm4 0v1h-2v-1h2zm4 0v1h-2v-1h2z"/>
                    <path fill="#1E3D49" fill-rule="nonzero" d="M291.986 101.867l.435.775 4.5 8-.871.49-3.565-6.336v93.591c0 4.61-3.668 8.362-8.244 8.496l-.255.004h-72.802c-.25 2.25-2.157 4-4.473 4-2.485 0-4.5-2.014-4.5-4.5 0-2.485 2.015-4.5 4.5-4.5 2.316 0 4.224 1.75 4.473 4h72.802c4.06 0 7.368-3.227 7.496-7.257l.004-.243-.001-93.591-3.564 6.336-.871-.49 4.5-8 .436-.775zm-85.275 101.02c-1.933 0-3.5 1.567-3.5 3.5s1.567 3.5 3.5 3.5 3.5-1.567 3.5-3.5-1.567-3.5-3.5-3.5z"/>
                    <rect width="766" height="44" y="400.524" fill="url(#k0cmj7adoc)" rx="1"/>
                    <text font-family="Montserrat-Regular, Montserrat" font-size="14">
                        <tspan x="145" y="201.524" fill="#FFF">t-shirt</tspan>
                    </text>
                    <text font-family="Montserrat-Regular, Montserrat" font-size="12">
                        <tspan x="309.511" y="116.008" fill="#FFF">t-shirt</tspan>
                    </text>
                    <text font-family="Montserrat-Regular, Montserrat" font-size="12">
                        <tspan x="428.74" y="116.008" fill="#1E3D49">top</tspan>
                    </text>
                    <text font-family="Montserrat-Regular, Montserrat" font-size="12">
                        <tspan x="500.225" y="115.75" fill="#1E3D49">v-neck</tspan>
                    </text>
                    <g transform="translate(134.659948, 412.666201)">
                        <rect width="63.395" height="11.778" fill="#BBC3C6" rx="5.889"/>
                    </g>
                    <g transform="translate(46.764865, 412.666201)">
                        <rect width="63.395" height="11.778" fill="#BBC3C6" rx="5.889"/>
                    </g>
                    <g transform="translate(222.555032, 412.666201)">
                        <rect width="63.395" height="11.778" fill="#BBC3C6" rx="5.889"/>
                    </g>
                    <g transform="translate(310.450115, 412.666201)">
                        <rect width="63.395" height="11.778" fill="#BBC3C6" rx="5.889"/>
                    </g>
                    <g transform="translate(398.345198, 412.666201)">
                        <rect width="63.395" height="11.778" fill="#BBC3C6" rx="5.889"/>
                    </g>
                </g>
            </g>
        </g>
    </g>
</svg>
