<svg width="766" height="466" xmlns="http://www.w3.org/2000/svg"><defs><filter x="-28.5%" y="-19.1%" width="157.1%" height="138.3%" filterUnits="objectBoundingBox" id="a"><feOffset dy="2" in="SourceAlpha" result="shadowOffsetOuter1"/><feGaussianBlur stdDeviation="7" in="shadowOffsetOuter1" result="shadowBlurOuter1"/><feColorMatrix values="0 0 0 0 0 0 0 0 0 0 0 0 0 0 0 0 0 0 0.133783941 0" in="shadowBlurOuter1" result="shadowMatrixOuter1"/><feMerge><feMergeNode in="shadowMatrixOuter1"/><feMergeNode in="SourceGraphic"/></feMerge></filter><filter x="-28.5%" y="-19.1%" width="157.1%" height="138.3%" filterUnits="objectBoundingBox" id="b"><feOffset dy="2" in="SourceAlpha" result="shadowOffsetOuter1"/><feGaussianBlur stdDeviation="7" in="shadowOffsetOuter1" result="shadowBlurOuter1"/><feColorMatrix values="0 0 0 0 0 0 0 0 0 0 0 0 0 0 0 0 0 0 0.133783941 0" in="shadowBlurOuter1" result="shadowMatrixOuter1"/><feMerge><feMergeNode in="shadowMatrixOuter1"/><feMergeNode in="SourceGraphic"/></feMerge></filter><filter x="-28.5%" y="-19.1%" width="157.1%" height="138.3%" filterUnits="objectBoundingBox" id="c"><feOffset dy="2" in="SourceAlpha" result="shadowOffsetOuter1"/><feGaussianBlur stdDeviation="7" in="shadowOffsetOuter1" result="shadowBlurOuter1"/><feColorMatrix values="0 0 0 0 0 0 0 0 0 0 0 0 0 0 0 0 0 0 0.133783941 0" in="shadowBlurOuter1" result="shadowMatrixOuter1"/><feMerge><feMergeNode in="shadowMatrixOuter1"/><feMergeNode in="SourceGraphic"/></feMerge></filter><filter x="-28.5%" y="-19.1%" width="157.1%" height="138.3%" filterUnits="objectBoundingBox" id="d"><feOffset dy="2" in="SourceAlpha" result="shadowOffsetOuter1"/><feGaussianBlur stdDeviation="7" in="shadowOffsetOuter1" result="shadowBlurOuter1"/><feColorMatrix values="0 0 0 0 0 0 0 0 0 0 0 0 0 0 0 0 0 0 0.133783941 0" in="shadowBlurOuter1" result="shadowMatrixOuter1"/><feMerge><feMergeNode in="shadowMatrixOuter1"/><feMergeNode in="SourceGraphic"/></feMerge></filter><filter x="-28.5%" y="-19.1%" width="157.1%" height="138.3%" filterUnits="objectBoundingBox" id="e"><feOffset dy="2" in="SourceAlpha" result="shadowOffsetOuter1"/><feGaussianBlur stdDeviation="7" in="shadowOffsetOuter1" result="shadowBlurOuter1"/><feColorMatrix values="0 0 0 0 0 0 0 0 0 0 0 0 0 0 0 0 0 0 0.133783941 0" in="shadowBlurOuter1" result="shadowMatrixOuter1"/><feMerge><feMergeNode in="shadowMatrixOuter1"/><feMergeNode in="SourceGraphic"/></feMerge></filter></defs><g fill="none" fill-rule="evenodd"><rect stroke="#D3D3D3" fill="#FFF" x="200.341" y="42.5" width="515.517" height="23.5" rx="11.75"/><g transform="translate(697.18 49.087)" stroke="#D3D3D3"><circle fill="#FFF" cx="4.78" cy="4.78" r="4.28"/><path stroke-linecap="round" d="m8.293 7.817 2.765 2.764"/></g><rect fill="#243C47" x="40" y="41.25" width="144" height="26" rx="13"/><rect stroke="#202020" stroke-width="21.443" x="9.807" y="10.279" width="745.443" height="445.443" rx="7.213"/><path d="M219.687 58.315c.58 0 1.105-.115 1.573-.344.468-.23.836-.566 1.105-1.008l-.689-.468c-.225.338-.511.59-.858.754a2.602 2.602 0 0 1-1.131.247c-.494 0-.938-.11-1.333-.332a2.34 2.34 0 0 1-.923-.936c-.22-.403-.331-.868-.331-1.397 0-.52.11-.984.332-1.391a2.33 2.33 0 0 1 .923-.942 2.678 2.678 0 0 1 1.332-.332c.407 0 .784.085 1.131.254.347.169.633.422.858.76l.689-.468a2.623 2.623 0 0 0-1.099-1.008c-.463-.23-.99-.344-1.579-.344-.676 0-1.28.147-1.814.442a3.212 3.212 0 0 0-1.254 1.235c-.303.529-.455 1.127-.455 1.794s.152 1.267.455 1.8a3.2 3.2 0 0 0 1.255 1.242c.532.295 1.137.442 1.813.442Zm5.304-.065v-3.588c0-.771.214-1.376.643-1.813.43-.438 1.012-.657 1.749-.657.659 0 1.166.186 1.521.559.355.373.533.914.533 1.625v3.874h.923v-3.965c0-.953-.254-1.68-.76-2.177-.507-.499-1.19-.748-2.048-.748-.572 0-1.079.108-1.521.325a2.502 2.502 0 0 0-1.04.923v-4.004h-.923v9.646h.923Zm8.346-8.333c.19 0 .351-.065.481-.195s.195-.29.195-.481a.603.603 0 0 0-.195-.449.665.665 0 0 0-.481-.188.654.654 0 0 0-.481.195.624.624 0 0 0-.195.455c0 .182.065.338.195.468s.29.195.481.195Zm.455 8.333v-6.838h-.923v6.838h.923Zm5.408.065c.58 0 1.105-.115 1.573-.344.468-.23.836-.566 1.105-1.008l-.689-.468c-.225.338-.511.59-.858.754a2.602 2.602 0 0 1-1.131.247c-.494 0-.938-.11-1.332-.332a2.34 2.34 0 0 1-.923-.936c-.221-.403-.332-.868-.332-1.397 0-.52.11-.984.332-1.391a2.33 2.33 0 0 1 .923-.942 2.678 2.678 0 0 1 1.332-.332c.407 0 .784.085 1.131.254.347.169.633.422.858.76l.689-.468a2.623 2.623 0 0 0-1.098-1.008c-.464-.23-.99-.344-1.58-.344-.676 0-1.28.147-1.813.442a3.212 3.212 0 0 0-1.255 1.235c-.303.529-.455 1.127-.455 1.794s.152 1.267.455 1.8a3.2 3.2 0 0 0 1.255 1.242c.532.295 1.137.442 1.813.442Zm5.304-.065V56.3l1.612-1.482 2.756 3.432h1.131l-3.198-4.043 2.925-2.795h-1.144l-4.082 3.731v-6.539h-.923v9.646h.923Zm7.709 2.522v-3.809c.286.442.652.778 1.099 1.008.446.23.946.344 1.501.344.65 0 1.233-.145 1.749-.435.515-.29.92-.7 1.215-1.229.295-.529.442-1.135.442-1.82 0-.676-.147-1.278-.442-1.807a3.114 3.114 0 0 0-1.222-1.229c-.52-.29-1.1-.435-1.742-.435-.572 0-1.085.121-1.54.364-.456.243-.822.59-1.099 1.04v-1.352h-.884v9.36h.923Zm2.535-3.276c-.485 0-.92-.11-1.306-.332a2.354 2.354 0 0 1-.91-.942 2.87 2.87 0 0 1-.332-1.391c0-.52.11-.982.332-1.385a2.41 2.41 0 0 1 .91-.942 2.541 2.541 0 0 1 1.306-.338c.477 0 .91.113 1.3.338.39.225.695.54.916.943.221.402.332.864.332 1.384 0 .52-.11.984-.332 1.391a2.342 2.342 0 0 1-.916.942 2.59 2.59 0 0 1-1.3.332Zm8.255.819c.546 0 1.047-.095 1.502-.286.454-.19.834-.468 1.137-.832l-.52-.598c-.26.295-.568.518-.923.67a2.95 2.95 0 0 1-1.17.227c-.754 0-1.378-.219-1.872-.657-.494-.437-.767-1.011-.819-1.722h5.72l.013-.286c0-.676-.143-1.276-.429-1.8a3.133 3.133 0 0 0-1.183-1.229 3.304 3.304 0 0 0-1.703-.442 3.34 3.34 0 0 0-1.71.442 3.153 3.153 0 0 0-1.195 1.235c-.29.529-.436 1.127-.436 1.794s.152 1.265.455 1.794c.303.529.726.943 1.267 1.242.542.299 1.164.448 1.866.448Zm2.184-3.887h-4.849c.06-.676.314-1.224.76-1.645.447-.42 1-.63 1.658-.63.667 0 1.224.21 1.67.63.447.42.7.969.761 1.645Zm4.498 3.887c.555 0 1.034-.1 1.437-.299.402-.2.708-.477.916-.832v1.066h.884v-4.238c0-.875-.238-1.536-.715-1.983-.477-.446-1.161-.669-2.054-.669-.537 0-1.049.08-1.534.24-.485.16-.901.388-1.248.683l.416.689a3.145 3.145 0 0 1 1.027-.592 3.668 3.668 0 0 1 1.248-.214c.633 0 1.114.154 1.443.462.33.307.494.756.494 1.345v.416h-2.171c-.919 0-1.588.178-2.008.533-.42.355-.631.823-.631 1.404 0 .598.225 1.079.676 1.443.45.364 1.057.546 1.82.546Zm.143-.728c-.546 0-.97-.115-1.274-.345-.303-.23-.455-.543-.455-.942 0-.815.585-1.222 1.755-1.222h2.145v1.118c-.182.45-.46.795-.832 1.034-.373.238-.819.357-1.339.357Zm11.713.663 3.042-6.838h-.91l-2.587 5.824-2.561-5.824h-.962l3.029 6.838h.949Zm7.046.065c.546 0 1.047-.095 1.502-.286.454-.19.834-.468 1.137-.832l-.52-.598c-.26.295-.568.518-.923.67a2.95 2.95 0 0 1-1.17.227c-.754 0-1.378-.219-1.872-.657-.494-.437-.767-1.011-.819-1.722h5.72l.013-.286c0-.676-.143-1.276-.429-1.8a3.133 3.133 0 0 0-1.183-1.229 3.304 3.304 0 0 0-1.703-.442 3.34 3.34 0 0 0-1.71.442 3.153 3.153 0 0 0-1.195 1.235c-.29.529-.436 1.127-.436 1.794s.152 1.265.455 1.794c.303.529.726.943 1.267 1.242.542.299 1.164.448 1.866.448Zm2.184-3.887h-4.849c.06-.676.314-1.224.76-1.645.447-.42 1-.63 1.658-.63.667 0 1.224.21 1.67.63.447.42.7.969.761 1.645Zm5.681 6.409c1.144 0 2-.28 2.567-.839.568-.558.852-1.419.852-2.58v-6.006h-.884v1.313a2.835 2.835 0 0 0-1.131-1.014 3.468 3.468 0 0 0-1.573-.351 3.67 3.67 0 0 0-1.755.416 3.1 3.1 0 0 0-1.228 1.17c-.3.503-.449 1.075-.449 1.716s.15 1.215.449 1.723c.298.507.71.9 1.234 1.183a3.635 3.635 0 0 0 1.749.422c.563 0 1.077-.113 1.54-.338a2.782 2.782 0 0 0 1.125-.988v.871c0 .85-.204 1.476-.611 1.879-.407.402-1.044.604-1.911.604-.52 0-1.016-.082-1.488-.247a3.513 3.513 0 0 1-1.203-.689l-.468.702c.355.33.817.587 1.385.773.567.187 1.167.28 1.8.28Zm-.078-3.666c-.494 0-.938-.106-1.333-.319a2.311 2.311 0 0 1-.923-.89 2.545 2.545 0 0 1-.331-1.3c0-.485.11-.919.332-1.3.22-.381.528-.676.922-.884a2.812 2.812 0 0 1 1.333-.312c.503 0 .951.106 1.345.319.395.212.702.507.923.883.221.377.332.809.332 1.294s-.11.919-.332 1.3a2.3 2.3 0 0 1-.929.89 2.803 2.803 0 0 1-1.339.319Zm8.996 3.666c1.144 0 2-.28 2.567-.839.568-.558.852-1.419.852-2.58v-6.006h-.884v1.313a2.835 2.835 0 0 0-1.131-1.014 3.468 3.468 0 0 0-1.573-.351 3.67 3.67 0 0 0-1.755.416 3.1 3.1 0 0 0-1.229 1.17c-.298.503-.448 1.075-.448 1.716s.15 1.215.448 1.723c.3.507.711.9 1.236 1.183a3.635 3.635 0 0 0 1.748.422c.563 0 1.077-.113 1.54-.338a2.782 2.782 0 0 0 1.125-.988v.871c0 .85-.204 1.476-.611 1.879-.407.402-1.044.604-1.911.604-.52 0-1.016-.082-1.488-.247a3.513 3.513 0 0 1-1.203-.689l-.468.702c.355.33.817.587 1.385.773.567.187 1.167.28 1.8.28Zm-.078-3.666c-.494 0-.938-.106-1.332-.319a2.311 2.311 0 0 1-.923-.89 2.545 2.545 0 0 1-.332-1.3c0-.485.11-.919.332-1.3.22-.381.528-.676.923-.884a2.812 2.812 0 0 1 1.332-.312c.503 0 .951.106 1.346.319.394.212.702.507.923.883.22.377.331.809.331 1.294s-.11.919-.332 1.3a2.3 2.3 0 0 1-.929.89 2.803 2.803 0 0 1-1.339.319Zm6.552-7.254c.19 0 .351-.065.481-.195s.195-.29.195-.481a.603.603 0 0 0-.195-.449.665.665 0 0 0-.481-.188.654.654 0 0 0-.481.195.624.624 0 0 0-.195.455c0 .182.065.338.195.468s.29.195.481.195Zm.455 8.333v-6.838h-.923v6.838h.923Zm5.473.065c.546 0 1.046-.095 1.502-.286.454-.19.834-.468 1.137-.832l-.52-.598c-.26.295-.568.518-.923.67a2.95 2.95 0 0 1-1.17.227c-.754 0-1.378-.219-1.872-.657-.494-.437-.767-1.011-.819-1.722h5.72l.013-.286c0-.676-.143-1.276-.429-1.8a3.133 3.133 0 0 0-1.183-1.229 3.304 3.304 0 0 0-1.703-.442 3.34 3.34 0 0 0-1.71.442 3.153 3.153 0 0 0-1.195 1.235c-.29.529-.436 1.127-.436 1.794s.152 1.265.455 1.794c.303.529.726.943 1.267 1.242.542.299 1.164.448 1.866.448Zm2.184-3.887h-4.849c.06-.676.314-1.224.76-1.645.447-.42 1-.63 1.658-.63.667 0 1.224.21 1.67.63.447.42.7.969.761 1.645Zm9.698 3.887a3.47 3.47 0 0 0 1.742-.442c.52-.295.927-.706 1.222-1.235.295-.529.442-1.131.442-1.807 0-.676-.147-1.278-.442-1.807a3.114 3.114 0 0 0-1.222-1.229c-.52-.29-1.1-.435-1.742-.435-.555 0-1.055.115-1.502.345-.446.23-.812.565-1.098 1.007v-4.108h-.923v9.646h.884v-1.352c.277.46.644.81 1.099 1.053.454.243.968.364 1.54.364Zm-.065-.819c-.485 0-.92-.11-1.306-.332a2.354 2.354 0 0 1-.91-.942 2.87 2.87 0 0 1-.332-1.391c0-.52.11-.984.332-1.391.22-.407.524-.721.91-.942a2.58 2.58 0 0 1 1.306-.332c.477 0 .91.11 1.3.332.39.22.695.535.916.942.221.407.332.871.332 1.391s-.11.984-.332 1.391a2.342 2.342 0 0 1-.916.942 2.59 2.59 0 0 1-1.3.332Zm8.177.819c.546 0 1.031-.115 1.456-.344.425-.23.758-.553 1.001-.969v1.248h.884v-6.838h-.923V55c0 .78-.208 1.389-.624 1.827-.416.437-.984.656-1.703.656-.659 0-1.166-.186-1.521-.559-.355-.373-.533-.919-.533-1.638v-3.874h-.923v3.965c0 .962.258 1.692.774 2.19.515.499 1.22.748 2.112.748Zm6.851-.065v-3.484c0-.797.204-1.417.611-1.859.407-.442.97-.663 1.69-.663l.221.013v-.897c-.633 0-1.163.117-1.593.351-.428.234-.751.58-.968 1.04v-1.339h-.884v6.838h.923Zm7.033 2.587c1.144 0 2-.28 2.567-.839.568-.558.852-1.419.852-2.58v-6.006h-.884v1.313a2.835 2.835 0 0 0-1.131-1.014 3.468 3.468 0 0 0-1.573-.351 3.67 3.67 0 0 0-1.755.416 3.1 3.1 0 0 0-1.228 1.17c-.3.503-.449 1.075-.449 1.716s.15 1.215.449 1.723c.298.507.71.9 1.235 1.183a3.635 3.635 0 0 0 1.748.422c.563 0 1.077-.113 1.54-.338a2.782 2.782 0 0 0 1.125-.988v.871c0 .85-.204 1.476-.611 1.879-.407.402-1.044.604-1.911.604-.52 0-1.016-.082-1.489-.247a3.513 3.513 0 0 1-1.202-.689l-.468.702c.355.33.817.587 1.385.773.567.187 1.167.28 1.8.28Zm-.078-3.666c-.494 0-.938-.106-1.332-.319a2.311 2.311 0 0 1-.923-.89 2.545 2.545 0 0 1-.332-1.3c0-.485.11-.919.332-1.3.22-.381.528-.676.923-.884a2.812 2.812 0 0 1 1.332-.312c.503 0 .951.106 1.346.319.394.212.702.507.923.883.22.377.331.809.331 1.294s-.11.919-.332 1.3a2.3 2.3 0 0 1-.929.89 2.803 2.803 0 0 1-1.339.319Zm8.983 1.144c.546 0 1.046-.095 1.502-.286.454-.19.834-.468 1.137-.832l-.52-.598c-.26.295-.568.518-.923.67a2.95 2.95 0 0 1-1.17.227c-.754 0-1.378-.219-1.872-.657-.494-.437-.767-1.011-.819-1.722h5.72l.013-.286c0-.676-.143-1.276-.429-1.8a3.133 3.133 0 0 0-1.183-1.229 3.304 3.304 0 0 0-1.703-.442 3.34 3.34 0 0 0-1.71.442 3.153 3.153 0 0 0-1.196 1.235c-.29.529-.435 1.127-.435 1.794s.152 1.265.455 1.794c.303.529.726.943 1.267 1.242.542.299 1.164.448 1.866.448Zm2.184-3.887h-4.849c.06-.676.314-1.224.76-1.645.447-.42 1-.63 1.658-.63.667 0 1.224.21 1.67.63.447.42.7.969.761 1.645Zm3.692 3.822v-3.484c0-.797.204-1.417.611-1.859.407-.442.97-.663 1.69-.663l.221.013v-.897c-.633 0-1.163.117-1.592.351-.43.234-.752.58-.969 1.04v-1.339h-.884v6.838h.923Z" fill="#1E3D49" fill-rule="nonzero"/><rect fill="#D44A6F" x="39.932" y="84.968" width="676" height="67" rx="6"/><path d="M257.426 122.468v-6.248l4.95 6.248h.67v-7.7h-.802v6.248l-4.961-6.248h-.671v7.7h.814Zm10.329.055c.557 0 1.06-.126 1.507-.38a2.728 2.728 0 0 0 1.05-1.05 3.03 3.03 0 0 0 .38-1.518 3.03 3.03 0 0 0-.38-1.518 2.69 2.69 0 0 0-1.05-1.045 3.042 3.042 0 0 0-1.507-.374c-.558 0-1.06.125-1.507.374-.448.25-.8.598-1.056 1.045a2.995 2.995 0 0 0-.385 1.518c0 .565.128 1.07.385 1.518.256.447.608.798 1.056 1.05.447.254.95.38 1.507.38Zm0-.693c-.411 0-.78-.093-1.106-.28a1.992 1.992 0 0 1-.77-.798 2.428 2.428 0 0 1-.28-1.177c0-.44.093-.832.28-1.177.187-.345.444-.61.77-.797.326-.187.695-.281 1.106-.281.41 0 .779.094 1.105.28.326.188.581.453.765.798.183.345.275.737.275 1.177 0 .44-.092.832-.275 1.177-.184.345-.439.61-.765.798-.326.187-.695.28-1.105.28Zm8.195.638v-2.948c0-.675.172-1.199.517-1.573.344-.374.82-.561 1.43-.561l.187.011v-.759c-.536 0-.985.099-1.348.297a1.893 1.893 0 0 0-.82.88v-1.133h-.747v5.786h.78Zm5.94.055c.462 0 .885-.08 1.27-.242.385-.161.706-.396.963-.704l-.44-.506c-.22.25-.48.438-.781.567-.301.128-.631.192-.99.192-.638 0-1.166-.185-1.584-.555-.418-.37-.65-.857-.693-1.458h4.84l.01-.242c0-.572-.12-1.08-.362-1.523a2.651 2.651 0 0 0-1.001-1.04 2.796 2.796 0 0 0-1.441-.374c-.536 0-1.018.125-1.447.374-.429.25-.766.598-1.012 1.045a3.1 3.1 0 0 0-.368 1.518c0 .565.128 1.07.385 1.518.256.447.614.798 1.072 1.05.458.254.985.38 1.579.38Zm1.848-3.289h-4.103c.05-.572.265-1.036.643-1.391.378-.356.845-.534 1.403-.534.564 0 1.035.178 1.413.534.378.355.592.819.644 1.391Zm3.894 3.289c.748 0 1.332-.148 1.754-.445.422-.297.633-.699.633-1.205 0-.374-.1-.667-.297-.88a1.632 1.632 0 0 0-.715-.451 10.123 10.123 0 0 0-1.111-.264 8.609 8.609 0 0 1-.88-.192 1.32 1.32 0 0 1-.534-.292.684.684 0 0 1-.214-.528c0-.286.126-.517.379-.693.253-.176.629-.264 1.128-.264.66 0 1.228.165 1.705.495l.34-.627a3.087 3.087 0 0 0-.923-.39 4.369 4.369 0 0 0-1.122-.149c-.72 0-1.28.154-1.683.462-.404.308-.605.704-.605 1.188 0 .389.1.693.302.913.202.22.446.376.732.468a9.71 9.71 0 0 0 1.133.269c.352.059.634.12.847.182.212.062.388.154.528.275.139.12.209.287.209.5 0 .3-.127.534-.38.699-.253.165-.643.247-1.171.247-.396 0-.778-.06-1.144-.181a2.964 2.964 0 0 1-.913-.468l-.352.616c.242.205.577.376 1.006.512.429.135.878.203 1.348.203Zm6.215 0c.462 0 .872-.097 1.232-.291.359-.195.641-.468.847-.82v1.056h.748v-5.786h-.781v3.036c0 .66-.176 1.175-.528 1.546-.352.37-.833.555-1.441.555-.558 0-.987-.158-1.287-.473-.301-.315-.451-.777-.451-1.386v-3.278h-.781v3.355c0 .814.218 1.432.654 1.854.436.421 1.032.632 1.788.632Zm5.797-.055v-8.162h-.781v8.162h.78Zm4.026.055c.234 0 .46-.035.676-.104.216-.07.398-.171.545-.303l-.275-.561c-.11.095-.24.169-.391.22-.15.051-.306.077-.467.077-.323 0-.57-.09-.743-.27-.172-.18-.258-.441-.258-.786v-3.454h1.76v-.66h-1.76v-1.265h-.781v1.265h-1.034v.66h1.034v3.498c0 .535.146.95.44 1.243.293.293.71.44 1.254.44Zm4.19 0c.749 0 1.333-.148 1.755-.445.422-.297.633-.699.633-1.205 0-.374-.1-.667-.297-.88a1.632 1.632 0 0 0-.715-.451 10.123 10.123 0 0 0-1.111-.264 8.609 8.609 0 0 1-.88-.192 1.32 1.32 0 0 1-.534-.292.684.684 0 0 1-.214-.528c0-.286.126-.517.379-.693.253-.176.629-.264 1.128-.264.66 0 1.228.165 1.705.495l.34-.627a3.087 3.087 0 0 0-.923-.39 4.369 4.369 0 0 0-1.122-.149c-.72 0-1.28.154-1.683.462-.404.308-.605.704-.605 1.188 0 .389.1.693.302.913.202.22.446.376.732.468a9.71 9.71 0 0 0 1.133.269c.352.059.634.12.847.182.212.062.388.154.528.275.139.12.209.287.209.5 0 .3-.127.534-.38.699-.253.165-.643.247-1.171.247-.396 0-.778-.06-1.144-.181a2.964 2.964 0 0 1-.913-.468l-.352.616c.242.205.577.376 1.006.512.429.135.878.203 1.348.203Zm7.624-.055v-5.126h1.76v-.66h-1.782V116c0-.36.086-.63.258-.814.172-.183.427-.275.765-.275.344 0 .63.095.858.286l.264-.583a1.442 1.442 0 0 0-.517-.27 2.184 2.184 0 0 0-.638-.093c-.558 0-.989.154-1.293.462-.304.308-.456.726-.456 1.254v.715h-1.034v.66h1.034v5.126h.78Zm5.082.055c.557 0 1.06-.126 1.507-.38a2.728 2.728 0 0 0 1.05-1.05 3.03 3.03 0 0 0 .38-1.518 3.03 3.03 0 0 0-.38-1.518 2.69 2.69 0 0 0-1.05-1.045 3.042 3.042 0 0 0-1.507-.374c-.558 0-1.06.125-1.507.374-.448.25-.8.598-1.056 1.045a2.995 2.995 0 0 0-.385 1.518c0 .565.128 1.07.385 1.518.256.447.608.798 1.056 1.05.447.254.95.38 1.507.38Zm0-.693c-.411 0-.78-.093-1.106-.28a1.992 1.992 0 0 1-.77-.798 2.428 2.428 0 0 1-.28-1.177c0-.44.093-.832.28-1.177.187-.345.444-.61.77-.797.326-.187.695-.281 1.106-.281.41 0 .779.094 1.105.28.326.188.581.453.765.798.183.345.275.737.275 1.177 0 .44-.092.832-.275 1.177-.184.345-.439.61-.765.798-.326.187-.695.28-1.105.28Zm6.919.693c.462 0 .872-.097 1.232-.291.359-.195.641-.468.847-.82v1.056h.748v-5.786h-.781v3.036c0 .66-.176 1.175-.528 1.546-.352.37-.833.555-1.441.555-.558 0-.987-.158-1.287-.473-.301-.315-.451-.777-.451-1.386v-3.278h-.781v3.355c0 .814.218 1.432.654 1.854.436.421 1.032.632 1.788.632Zm5.797-.055v-3.036c0-.653.181-1.164.544-1.534.363-.37.856-.556 1.48-.556.557 0 .986.158 1.287.473.3.315.45.774.45 1.375v3.278h.782v-3.355c0-.807-.215-1.42-.644-1.842-.429-.422-1.006-.633-1.732-.633-.5 0-.937.097-1.315.292a2.173 2.173 0 0 0-.885.819v-1.067h-.748v5.786h.78Zm8.987.055c.484 0 .918-.103 1.303-.308.385-.205.695-.502.93-.891v1.144h.748v-8.162h-.781v3.476a2.408 2.408 0 0 0-.93-.852 2.736 2.736 0 0 0-1.27-.292c-.543 0-1.034.123-1.474.369-.44.245-.785.592-1.034 1.039-.25.447-.374.957-.374 1.529s.124 1.082.374 1.529c.249.447.594.796 1.034 1.045.44.25.93.374 1.474.374Zm.066-.693c-.411 0-.78-.093-1.106-.28a1.992 1.992 0 0 1-.77-.798 2.428 2.428 0 0 1-.28-1.177c0-.44.093-.832.28-1.177.187-.345.444-.61.77-.797.326-.187.695-.281 1.106-.281.403 0 .768.094 1.094.28.326.188.583.453.77.798.187.345.28.737.28 1.177 0 .44-.093.832-.28 1.177-.187.345-.444.61-.77.798-.326.187-.691.28-1.094.28Zm8.888.638v-5.126h1.76v-.66H351.2V116c0-.36.086-.63.258-.814.172-.183.427-.275.765-.275.344 0 .63.095.858.286l.264-.583a1.442 1.442 0 0 0-.517-.27 2.184 2.184 0 0 0-.638-.093c-.558 0-.989.154-1.293.462-.304.308-.456.726-.456 1.254v.715h-1.034v.66h1.034v5.126h.78Zm5.082.055c.557 0 1.06-.126 1.507-.38a2.728 2.728 0 0 0 1.05-1.05 3.03 3.03 0 0 0 .38-1.518 3.03 3.03 0 0 0-.38-1.518 2.69 2.69 0 0 0-1.05-1.045 3.042 3.042 0 0 0-1.507-.374c-.558 0-1.06.125-1.507.374-.448.25-.8.598-1.056 1.045a2.995 2.995 0 0 0-.385 1.518c0 .565.128 1.07.385 1.518.256.447.608.798 1.056 1.05.447.254.95.38 1.507.38Zm0-.693c-.411 0-.78-.093-1.106-.28a1.992 1.992 0 0 1-.77-.798 2.428 2.428 0 0 1-.28-1.177c0-.44.093-.832.28-1.177.187-.345.444-.61.77-.797.326-.187.695-.281 1.106-.281.41 0 .779.094 1.105.28.326.188.581.453.765.798.183.345.275.737.275 1.177 0 .44-.092.832-.275 1.177-.184.345-.439.61-.765.798-.326.187-.695.28-1.105.28Zm5.313.638v-2.948c0-.675.172-1.199.517-1.573.344-.374.82-.561 1.43-.561l.187.011v-.759c-.536 0-.985.099-1.348.297a1.893 1.893 0 0 0-.82.88v-1.133h-.747v5.786h.78Zm6.864-4.422c.308 0 .56-.097.759-.291.198-.195.297-.45.297-.765 0-.22-.052-.41-.154-.572a.947.947 0 0 0-.43-.363l.485-1.749h-1.09l-.637 1.584a4.968 4.968 0 0 0-.242.66 1.808 1.808 0 0 0-.055.44c0 .308.1.561.302.759.202.198.457.297.765.297Zm4.994 4.51c.623 0 1.167-.132 1.633-.396.466-.264.805-.63 1.018-1.1l-1.331-.726c-.301.543-.745.814-1.331.814-.448 0-.818-.147-1.111-.44-.294-.293-.44-.693-.44-1.199 0-.506.146-.906.44-1.199.293-.293.663-.44 1.11-.44.58 0 1.024.271 1.332.814l1.33-.715a2.316 2.316 0 0 0-1.017-1.116c-.466-.26-1.01-.391-1.633-.391-.631 0-1.198.13-1.7.39s-.895.622-1.177 1.084a2.956 2.956 0 0 0-.423 1.573c0 .587.14 1.111.423 1.573.282.462.675.823 1.177 1.084.502.26 1.069.39 1.7.39Zm5.313-.088v-2.926c0-.528.128-.926.385-1.193.256-.268.6-.402 1.034-.402.388 0 .685.116.89.347.206.23.309.58.309 1.05v3.124h1.716v-3.388c0-.865-.226-1.518-.677-1.958-.451-.44-1.043-.66-1.776-.66-.382 0-.734.06-1.056.182a2.283 2.283 0 0 0-.825.522v-2.86h-1.716v8.162h1.716Zm6.743-6.743c.315 0 .572-.093.77-.28a.934.934 0 0 0 .297-.71.846.846 0 0 0-.297-.66c-.198-.176-.455-.264-.77-.264-.316 0-.572.092-.77.275a.892.892 0 0 0-.297.682c0 .271.099.499.297.682.198.183.454.275.77.275Zm.858 6.743v-5.918h-1.716v5.918h1.716Zm4.455.088c.623 0 1.167-.132 1.633-.396.466-.264.805-.63 1.018-1.1l-1.331-.726c-.301.543-.745.814-1.331.814-.448 0-.818-.147-1.111-.44-.294-.293-.44-.693-.44-1.199 0-.506.146-.906.44-1.199.293-.293.663-.44 1.11-.44.58 0 1.024.271 1.332.814l1.33-.715a2.316 2.316 0 0 0-1.017-1.116c-.466-.26-1.01-.391-1.633-.391-.631 0-1.198.13-1.7.39s-.895.622-1.177 1.084a2.956 2.956 0 0 0-.423 1.573c0 .587.14 1.111.423 1.573.282.462.675.823 1.177 1.084.502.26 1.069.39 1.7.39Zm5.313-.088v-1.507l.825-.814 1.87 2.321h2.079l-2.684-3.41 2.464-2.508h-2.046l-2.508 2.376v-4.62h-1.716v8.162h1.716Zm7.216 2.134v-2.761c.432.477 1.026.715 1.782.715.55 0 1.05-.126 1.501-.38a2.725 2.725 0 0 0 1.062-1.066c.256-.459.385-.992.385-1.601s-.129-1.142-.385-1.6a2.725 2.725 0 0 0-1.062-1.067 3.016 3.016 0 0 0-1.501-.38c-.814 0-1.434.257-1.86.77v-.682h-1.638v8.052h1.716Zm1.485-3.454c-.44 0-.802-.148-1.084-.445-.282-.297-.423-.695-.423-1.194s.14-.896.423-1.193c.282-.297.644-.446 1.084-.446.44 0 .8.149 1.083.446.282.297.424.694.424 1.193 0 .499-.142.897-.424 1.194-.282.297-.643.445-1.083.445Zm7.326 1.408c1.07 0 1.884-.319 2.442-.957l-.913-.99a1.985 1.985 0 0 1-.666.435 2.272 2.272 0 0 1-.82.137c-.447 0-.82-.106-1.121-.319a1.394 1.394 0 0 1-.572-.869h4.477l.03-.41.003-.052c0-.616-.134-1.157-.402-1.622a2.73 2.73 0 0 0-1.105-1.073 3.3 3.3 0 0 0-1.573-.374c-.594 0-1.132.13-1.612.39a2.89 2.89 0 0 0-1.133 1.09 3.024 3.024 0 0 0-.412 1.567c0 .587.139 1.111.418 1.573.278.462.674.823 1.188 1.084.513.26 1.103.39 1.77.39Zm1.243-3.564h-2.915c.058-.381.22-.682.484-.902.264-.22.59-.33.979-.33.38 0 .704.112.968.336.264.223.425.522.484.896Zm4.422 3.564c.88 0 1.48-.275 1.804-.825v.737h1.606v-3.377c0-.88-.246-1.538-.737-1.974-.492-.437-1.196-.655-2.112-.655-.477 0-.941.062-1.392.187-.451.125-.838.3-1.16.528l.616 1.199a2.46 2.46 0 0 1 .775-.401c.304-.1.614-.149.93-.149.454 0 .795.1 1.023.303.227.201.34.489.34.863h-1.363c-.866 0-1.506.158-1.92.473-.414.315-.621.748-.621 1.298 0 .345.088.653.264.924.176.271.43.484.764.638.334.154.728.231 1.183.231Zm.429-1.155c-.301 0-.538-.064-.71-.192a.617.617 0 0 1-.258-.523c0-.462.352-.693 1.056-.693h1.177v.605a1.114 1.114 0 0 1-.484.6 1.494 1.494 0 0 1-.781.203Zm11.022 1.067 2.497-5.918h-1.65l-1.694 4.026-1.64-4.026h-1.77l2.486 5.918h1.77Zm5.973.088c1.07 0 1.884-.319 2.442-.957l-.913-.99a1.985 1.985 0 0 1-.666.435 2.272 2.272 0 0 1-.82.137c-.447 0-.82-.106-1.121-.319a1.394 1.394 0 0 1-.572-.869h4.477l.03-.41.003-.052c0-.616-.134-1.157-.402-1.622a2.73 2.73 0 0 0-1.105-1.073 3.3 3.3 0 0 0-1.573-.374c-.594 0-1.132.13-1.612.39a2.89 2.89 0 0 0-1.133 1.09 3.024 3.024 0 0 0-.412 1.567c0 .587.139 1.111.418 1.573.278.462.674.823 1.188 1.084.513.26 1.103.39 1.77.39Zm1.243-3.564h-2.915c.058-.381.22-.682.484-.902.264-.22.59-.33.979-.33.38 0 .704.112.968.336.264.223.425.522.484.896Zm5.544 5.698c1.085 0 1.91-.264 2.475-.792.564-.528.847-1.335.847-2.42v-4.928h-1.628v.759c-.448-.565-1.1-.847-1.958-.847-.543 0-1.04.12-1.491.358a2.725 2.725 0 0 0-1.072 1.006c-.264.433-.396.931-.396 1.496s.132 1.063.396 1.496c.264.433.621.768 1.072 1.007a3.14 3.14 0 0 0 1.49.357c.8 0 1.423-.246 1.87-.737v.253c0 .543-.14.948-.423 1.216-.282.267-.72.401-1.314.401-.382 0-.763-.06-1.144-.181a2.807 2.807 0 0 1-.946-.49l-.682 1.232c.337.264.762.466 1.276.605a6.19 6.19 0 0 0 1.628.209Zm.077-3.916c-.455 0-.83-.134-1.122-.401-.294-.268-.44-.618-.44-1.051 0-.433.146-.783.44-1.05.293-.268.667-.402 1.122-.402.454 0 .826.134 1.116.402.29.267.435.617.435 1.05 0 .433-.145.783-.435 1.05-.29.268-.662.402-1.116.402Zm7.623 3.916c1.085 0 1.91-.264 2.475-.792.564-.528.847-1.335.847-2.42v-4.928h-1.628v.759c-.448-.565-1.1-.847-1.958-.847-.543 0-1.04.12-1.491.358a2.725 2.725 0 0 0-1.072 1.006c-.264.433-.396.931-.396 1.496s.132 1.063.396 1.496c.264.433.621.768 1.072 1.007a3.14 3.14 0 0 0 1.49.357c.8 0 1.423-.246 1.87-.737v.253c0 .543-.14.948-.423 1.216-.282.267-.72.401-1.314.401-.382 0-.763-.06-1.144-.181a2.807 2.807 0 0 1-.946-.49l-.682 1.232c.337.264.762.466 1.276.605a6.19 6.19 0 0 0 1.628.209Zm.077-3.916c-.455 0-.83-.134-1.122-.401-.294-.268-.44-.618-.44-1.051 0-.433.146-.783.44-1.05.293-.268.667-.402 1.122-.402.454 0 .826.134 1.116.402.29.267.435.617.435 1.05 0 .433-.145.783-.435 1.05-.29.268-.662.402-1.116.402Zm5.698-5.049c.315 0 .572-.093.77-.28a.934.934 0 0 0 .297-.71.846.846 0 0 0-.297-.66c-.198-.176-.455-.264-.77-.264-.316 0-.572.092-.77.275a.892.892 0 0 0-.297.682c0 .271.099.499.297.682.198.183.454.275.77.275Zm.858 6.743v-5.918h-1.716v5.918h1.716Zm4.532.088c1.07 0 1.884-.319 2.442-.957l-.913-.99a1.985 1.985 0 0 1-.666.435 2.272 2.272 0 0 1-.82.137c-.447 0-.82-.106-1.121-.319a1.394 1.394 0 0 1-.572-.869h4.477l.03-.41.003-.052c0-.616-.134-1.157-.402-1.622a2.73 2.73 0 0 0-1.105-1.073 3.3 3.3 0 0 0-1.573-.374c-.594 0-1.132.13-1.612.39a2.89 2.89 0 0 0-1.133 1.09 3.024 3.024 0 0 0-.412 1.567c0 .587.139 1.111.418 1.573.278.462.674.823 1.188 1.084.513.26 1.103.39 1.77.39Zm1.243-3.564h-2.915c.058-.381.22-.682.484-.902.264-.22.59-.33.979-.33.38 0 .704.112.968.336.264.223.425.522.484.896Zm9.372 3.564c.55 0 1.05-.126 1.501-.38a2.725 2.725 0 0 0 1.062-1.066c.256-.459.385-.992.385-1.601s-.129-1.142-.385-1.6a2.725 2.725 0 0 0-1.062-1.067 3.016 3.016 0 0 0-1.501-.38c-.756 0-1.35.238-1.782.715v-2.871h-1.716v8.162h1.639v-.682c.425.513 1.045.77 1.859.77Zm-.297-1.408c-.44 0-.802-.148-1.084-.445-.282-.297-.423-.695-.423-1.194s.14-.896.423-1.193c.282-.297.644-.446 1.084-.446.44 0 .8.149 1.083.446.282.297.424.694.424 1.193 0 .499-.142.897-.424 1.194-.282.297-.643.445-1.083.445Zm6.886 1.408a2.56 2.56 0 0 0 1.023-.203c.315-.136.586-.332.814-.589v.704h1.628v-5.918h-1.716v2.926c0 .528-.125.926-.374 1.194-.25.267-.58.401-.99.401-.8 0-1.2-.477-1.2-1.43v-3.091H475.6v3.344c0 .88.227 1.544.682 1.991.454.447 1.07.671 1.848.671Zm6.776-.088v-2.794c0-.55.139-.962.418-1.237.278-.275.663-.413 1.155-.413.066 0 .194.007.385.022v-1.584c-.455 0-.857.073-1.205.22a1.908 1.908 0 0 0-.83.649v-.781h-1.64v5.918h1.717Zm5.709 2.222c1.085 0 1.91-.264 2.475-.792.564-.528.847-1.335.847-2.42v-4.928h-1.628v.759c-.448-.565-1.1-.847-1.958-.847-.543 0-1.04.12-1.491.358a2.725 2.725 0 0 0-1.072 1.006c-.264.433-.396.931-.396 1.496s.132 1.063.396 1.496c.264.433.621.768 1.072 1.007a3.14 3.14 0 0 0 1.49.357c.8 0 1.423-.246 1.87-.737v.253c0 .543-.14.948-.423 1.216-.282.267-.72.401-1.314.401-.382 0-.763-.06-1.144-.181a2.807 2.807 0 0 1-.946-.49l-.682 1.232c.337.264.762.466 1.276.605a6.19 6.19 0 0 0 1.628.209Zm.077-3.916c-.455 0-.83-.134-1.122-.401-.294-.268-.44-.618-.44-1.051 0-.433.146-.783.44-1.05.293-.268.667-.402 1.122-.402.454 0 .826.134 1.116.402.29.267.435.617.435 1.05 0 .433-.145.783-.435 1.05-.29.268-.662.402-1.116.402Zm7.777 1.782c1.07 0 1.884-.319 2.442-.957l-.913-.99a1.985 1.985 0 0 1-.666.435 2.272 2.272 0 0 1-.82.137c-.447 0-.82-.106-1.121-.319a1.394 1.394 0 0 1-.572-.869h4.477l.03-.41.003-.052c0-.616-.134-1.157-.402-1.622a2.73 2.73 0 0 0-1.105-1.073 3.3 3.3 0 0 0-1.573-.374c-.594 0-1.132.13-1.612.39a2.89 2.89 0 0 0-1.133 1.09 3.024 3.024 0 0 0-.412 1.567c0 .587.139 1.111.418 1.573.278.462.674.823 1.188 1.084.513.26 1.103.39 1.77.39Zm1.243-3.564h-2.915c.058-.381.22-.682.484-.902.264-.22.59-.33.979-.33.38 0 .704.112.968.336.264.223.425.522.484.896Zm4.477 3.476v-2.794c0-.55.139-.962.418-1.237.278-.275.663-.413 1.155-.413.066 0 .194.007.385.022v-1.584c-.455 0-.857.073-1.205.22a1.908 1.908 0 0 0-.83.649v-.781h-1.64v5.918h1.717Zm4.213-4.51.638-1.584c.117-.293.194-.513.23-.66.037-.147.056-.293.056-.44 0-.315-.1-.57-.297-.764a1.038 1.038 0 0 0-.76-.292c-.307 0-.562.097-.764.292-.202.194-.302.449-.302.764 0 .227.05.422.154.583a.947.947 0 0 0 .429.363l-.473 1.738h1.089Z" fill="#FFF" fill-rule="nonzero"/><path d="M188.994 212.22c.975 0 1.796-.145 2.465-.434.669-.29 1.165-.68 1.487-1.173a2.93 2.93 0 0 0 .485-1.64c0-.726-.187-1.301-.561-1.726a3.474 3.474 0 0 0-1.369-.952c-.538-.21-1.243-.422-2.116-.638a19.97 19.97 0 0 1-1.76-.501 2.84 2.84 0 0 1-1.088-.663c-.288-.29-.433-.672-.433-1.148 0-.634.263-1.153.79-1.555.528-.403 1.312-.604 2.355-.604.544 0 1.1.082 1.666.247.567.164 1.1.41 1.598.74l.425-1.004a5.74 5.74 0 0 0-1.691-.773 7.207 7.207 0 0 0-1.998-.28c-.975 0-1.79.147-2.448.441-.657.295-1.145.689-1.462 1.182a2.968 2.968 0 0 0-.476 1.64c0 .737.19 1.32.57 1.751.38.43.835.751 1.368.96.533.21 1.247.429 2.142.655.748.182 1.332.349 1.751.502.42.153.774.37 1.063.654.288.284.433.663.433 1.14 0 .623-.266 1.13-.799 1.52-.533.392-1.332.587-2.397.587-.76 0-1.496-.133-2.21-.4-.714-.266-1.286-.614-1.717-1.045l-.493.97c.442.464 1.068.838 1.878 1.121.81.284 1.658.425 2.542.425Zm8.432-.103v-5.49h7.446v5.49h1.241v-11.9h-1.241v5.304h-7.446v-5.304h-1.258v11.9h1.258Zm17.765.102c1.179 0 2.241-.26 3.188-.782a5.787 5.787 0 0 0 2.235-2.167c.544-.924.816-1.958.816-3.103 0-1.144-.272-2.179-.816-3.102a5.787 5.787 0 0 0-2.236-2.168c-.946-.521-2.008-.782-3.187-.782-1.179 0-2.247.264-3.204.79a5.774 5.774 0 0 0-2.244 2.168c-.539.918-.808 1.95-.808 3.094 0 1.145.27 2.176.808 3.094a5.774 5.774 0 0 0 2.244 2.168c.957.527 2.025.79 3.204.79Zm0-1.122c-.94 0-1.793-.212-2.559-.637a4.658 4.658 0 0 1-1.802-1.768c-.436-.754-.654-1.595-.654-2.525 0-.93.218-1.77.655-2.524a4.658 4.658 0 0 1 1.802-1.768c.764-.425 1.617-.638 2.558-.638.94 0 1.79.213 2.55.638a4.614 4.614 0 0 1 1.785 1.768c.43.753.646 1.595.646 2.524 0 .93-.215 1.771-.646 2.525a4.614 4.614 0 0 1-1.785 1.768c-.76.425-1.61.637-2.55.637Zm12.716 1.02 3.502-10.149 3.485 10.15h1.326l4.012-11.9h-1.207l-3.485 10.284-3.502-10.285h-1.173l-3.553 10.234-3.434-10.234h-1.292l4.012 11.9h1.309Zm15.878 0v-11.9h-1.258v11.9h1.258Zm5.134 0v-9.656l7.65 9.656h1.037v-11.9h-1.241v9.656l-7.667-9.656h-1.037v11.9h1.258Zm17.782.102a7.33 7.33 0 0 0 2.397-.39 5.813 5.813 0 0 0 1.972-1.123v-4.539h-1.207v4.012c-.85.612-1.887.918-3.111.918-.963 0-1.83-.215-2.601-.646a4.783 4.783 0 0 1-1.819-1.768c-.442-.748-.663-1.586-.663-2.516 0-.93.221-1.77.663-2.524a4.686 4.686 0 0 1 1.827-1.768c.777-.425 1.647-.638 2.61-.638 1.45 0 2.646.465 3.587 1.394l.782-.799a4.967 4.967 0 0 0-1.921-1.283c-.76-.29-1.592-.434-2.499-.434-1.201 0-2.278.26-3.23.782a5.771 5.771 0 0 0-2.244 2.168c-.544.923-.816 1.958-.816 3.102 0 1.145.272 2.179.816 3.103a5.771 5.771 0 0 0 2.244 2.167c.952.522 2.023.782 3.213.782Zm13.634-.102v-3.774h3.196c.329 0 .646-.017.952-.05l2.72 3.824h1.377l-2.907-4.08c.873-.283 1.544-.745 2.014-1.385.47-.64.706-1.425.706-2.355 0-1.27-.43-2.266-1.292-2.992-.861-.725-2.051-1.088-3.57-1.088h-4.454v11.9h1.258Zm3.162-4.845h-3.162v-5.967h3.162c1.179 0 2.08.258 2.703.774.623.515.935 1.255.935 2.218 0 .94-.312 1.672-.935 2.193-.623.522-1.524.782-2.703.782Zm16.286 4.845v-1.088h-7.157v-4.42h6.154v-1.07h-6.154v-4.234h6.902v-1.088h-8.16v11.9h8.415Zm6.239.102c.975 0 1.796-.144 2.465-.433.669-.29 1.164-.68 1.487-1.173a2.93 2.93 0 0 0 .485-1.64c0-.726-.187-1.301-.561-1.726a3.474 3.474 0 0 0-1.369-.952c-.538-.21-1.243-.422-2.116-.638a19.97 19.97 0 0 1-1.76-.501 2.84 2.84 0 0 1-1.088-.663c-.288-.29-.433-.672-.433-1.148 0-.634.264-1.153.79-1.555.527-.403 1.312-.604 2.355-.604.544 0 1.1.082 1.666.247.567.164 1.1.41 1.598.74l.425-1.004a5.74 5.74 0 0 0-1.692-.773 7.207 7.207 0 0 0-1.997-.28c-.975 0-1.79.147-2.448.441-.657.295-1.145.689-1.462 1.182a2.968 2.968 0 0 0-.476 1.64c0 .737.19 1.32.57 1.751.38.43.835.751 1.368.96.533.21 1.247.429 2.142.655.748.182 1.332.349 1.751.502.42.153.774.37 1.063.654.288.284.433.663.433 1.14 0 .623-.266 1.13-.799 1.52-.533.392-1.332.587-2.397.587-.76 0-1.496-.133-2.21-.4-.714-.266-1.286-.614-1.717-1.045l-.493.97c.442.464 1.068.838 1.879 1.121.81.284 1.657.425 2.541.425Zm11.968 0c1.541 0 2.74-.442 3.596-1.326.855-.884 1.283-2.17 1.283-3.859v-6.817h-1.224v6.766c0 1.383-.312 2.414-.935 3.094-.623.68-1.53 1.02-2.72 1.02-1.179 0-2.08-.34-2.703-1.02-.623-.68-.935-1.711-.935-3.094v-6.766h-1.258v6.817c0 1.689.43 2.975 1.292 3.86.861.883 2.063 1.325 3.604 1.325Zm16.592-.102v-1.088h-6.664v-10.812h-1.258v11.9h7.922Zm4.556 0v-10.812h4.182v-1.088h-9.622v1.088h4.182v10.812h1.258Zm9.282.102c.975 0 1.796-.144 2.465-.433.669-.29 1.165-.68 1.488-1.173a2.93 2.93 0 0 0 .484-1.64c0-.726-.187-1.301-.561-1.726a3.474 3.474 0 0 0-1.368-.952c-.539-.21-1.244-.422-2.117-.638a19.97 19.97 0 0 1-1.76-.501 2.84 2.84 0 0 1-1.087-.663c-.29-.29-.434-.672-.434-1.148 0-.634.264-1.153.79-1.555.528-.403 1.312-.604 2.355-.604.544 0 1.1.082 1.666.247.567.164 1.1.41 1.598.74l.425-1.004a5.74 5.74 0 0 0-1.691-.773 7.207 7.207 0 0 0-1.998-.28c-.975 0-1.79.147-2.448.441-.657.295-1.145.689-1.462 1.182a2.968 2.968 0 0 0-.476 1.64c0 .737.19 1.32.57 1.751.38.43.835.751 1.368.96.533.21 1.247.429 2.142.655.748.182 1.332.349 1.751.502.42.153.774.37 1.063.654.288.284.433.663.433 1.14 0 .623-.266 1.13-.799 1.52-.533.392-1.332.587-2.397.587-.76 0-1.496-.133-2.21-.4-.714-.266-1.286-.614-1.717-1.045l-.493.97c.442.464 1.068.838 1.878 1.121.81.284 1.658.425 2.542.425Zm12.886-.102v-5.049h6.154v-1.088h-6.154v-4.675h6.902v-1.088h-8.16v11.9h1.258Zm14.552.102c1.179 0 2.241-.26 3.188-.782a5.787 5.787 0 0 0 2.235-2.167c.544-.924.816-1.958.816-3.103 0-1.144-.272-2.179-.816-3.102a5.787 5.787 0 0 0-2.236-2.168c-.946-.521-2.008-.782-3.187-.782-1.179 0-2.247.264-3.204.79a5.774 5.774 0 0 0-2.245 2.168c-.538.918-.807 1.95-.807 3.094 0 1.145.27 2.176.808 3.094a5.774 5.774 0 0 0 2.243 2.168c.958.527 2.026.79 3.205.79Zm0-1.122c-.94 0-1.793-.212-2.558-.637a4.658 4.658 0 0 1-1.803-1.768c-.436-.754-.654-1.595-.654-2.525 0-.93.218-1.77.654-2.524a4.658 4.658 0 0 1 1.803-1.768c.764-.425 1.617-.638 2.558-.638.94 0 1.79.213 2.55.638a4.614 4.614 0 0 1 1.785 1.768c.43.753.646 1.595.646 2.524 0 .93-.215 1.771-.646 2.525a4.614 4.614 0 0 1-1.785 1.768c-.76.425-1.61.637-2.55.637Zm10.319 1.02v-3.774h3.196c.329 0 .646-.017.952-.05l2.72 3.824h1.377l-2.907-4.08c.873-.283 1.544-.745 2.014-1.385.47-.64.706-1.425.706-2.355 0-1.27-.43-2.266-1.292-2.992-.861-.725-2.051-1.088-3.57-1.088h-4.454v11.9h1.258Zm3.162-4.845h-3.162v-5.967h3.162c1.179 0 2.08.258 2.703.774.623.515.935 1.255.935 2.218 0 .94-.312 1.672-.935 2.193-.623.522-1.524.782-2.703.782Zm12.461-2.499c.385 0 .708-.13.969-.39.26-.261.391-.596.391-1.004 0-.306-.07-.57-.213-.79a1.233 1.233 0 0 0-.586-.485l.68-2.6h-1.36l-.901 2.413a9.504 9.504 0 0 0-.297.867 2.315 2.315 0 0 0-.077.595c0 .408.13.743.391 1.003.26.26.595.391 1.003.391Zm9.622 7.344 5.185-11.9h-2.21l-3.995 9.18-3.961-9.18h-2.397l5.202 11.9h2.176Zm15.368 0v-1.853h-6.715v-3.28h5.746v-1.82h-5.746v-3.094h6.477v-1.853h-8.687v11.9h8.925Zm7.973.17c.861 0 1.7-.13 2.516-.39a6.649 6.649 0 0 0 2.142-1.123v-4.743h-2.091v3.706c-.703.408-1.519.612-2.448.612-.827 0-1.567-.181-2.219-.544a3.962 3.962 0 0 1-1.53-1.496c-.368-.634-.552-1.348-.552-2.142 0-.816.184-1.541.553-2.176a3.843 3.843 0 0 1 1.53-1.479c.651-.351 1.396-.527 2.235-.527 1.28 0 2.374.454 3.281 1.36l1.394-1.36a5.337 5.337 0 0 0-2.057-1.445c-.816-.328-1.723-.493-2.72-.493-1.224 0-2.326.264-3.307.79a5.858 5.858 0 0 0-2.303 2.185c-.555.93-.833 1.978-.833 3.145 0 1.168.278 2.216.833 3.145a5.873 5.873 0 0 0 2.295 2.185c.975.527 2.068.79 3.281.79Zm13.124 0c.861 0 1.7-.13 2.516-.39a6.649 6.649 0 0 0 2.142-1.123v-4.743h-2.091v3.706c-.703.408-1.519.612-2.448.612-.827 0-1.567-.181-2.218-.544a3.962 3.962 0 0 1-1.53-1.496c-.369-.634-.553-1.348-.553-2.142 0-.816.184-1.541.553-2.176a3.843 3.843 0 0 1 1.53-1.479c.651-.351 1.396-.527 2.235-.527 1.28 0 2.374.454 3.281 1.36l1.394-1.36a5.337 5.337 0 0 0-2.057-1.445c-.816-.328-1.723-.493-2.72-.493-1.224 0-2.326.264-3.306.79a5.858 5.858 0 0 0-2.304 2.185c-.555.93-.833 1.978-.833 3.145 0 1.168.278 2.216.833 3.145a5.873 5.873 0 0 0 2.295 2.185c.975.527 2.068.79 3.281.79Zm9.775-.17v-11.9h-2.21v11.9h2.21Zm12.138 0v-1.853h-6.715v-3.28h5.746v-1.82h-5.746v-3.094h6.477v-1.853h-8.687v11.9h8.925Zm13.073 0c1.519 0 2.675-.28 3.468-.841.793-.561 1.19-1.357 1.19-2.389 0-.748-.193-1.374-.578-1.878-.385-.505-.907-.864-1.564-1.08.476-.25.85-.6 1.122-1.054.272-.453.408-.974.408-1.564 0-.963-.38-1.72-1.139-2.27-.76-.549-1.842-.824-3.247-.824h-5.576v11.9h5.916Zm-.578-6.885h-3.128v-3.28h3.128c.77 0 1.363.138 1.776.416.414.277.621.688.621 1.232 0 .533-.207.938-.62 1.216-.414.277-1.006.416-1.777.416Zm.442 5.151h-3.57v-3.434h3.57c1.711 0 2.567.573 2.567 1.717 0 1.145-.856 1.717-2.567 1.717Zm12.274 1.904c1.643 0 2.921-.462 3.833-1.385.913-.924 1.369-2.247 1.369-3.97v-6.715h-2.176v6.63c0 2.335-1.003 3.502-3.009 3.502-2.017 0-3.026-1.167-3.026-3.502v-6.63h-2.21v6.715c0 1.723.459 3.046 1.377 3.97.918.923 2.199 1.385 3.842 1.385Zm10.506-.17v-3.468h2.686c.204 0 .357-.005.459-.017l2.431 3.485h2.38l-2.737-3.91c.816-.317 1.442-.799 1.879-1.445.436-.646.654-1.416.654-2.312 0-.872-.204-1.626-.612-2.26-.408-.635-.995-1.123-1.76-1.463-.764-.34-1.663-.51-2.694-.51h-4.896v11.9h2.21Zm2.584-5.287h-2.584v-4.743h2.584c.963 0 1.694.204 2.193.612.499.408.748.992.748 1.751 0 .76-.25 1.346-.748 1.76-.499.413-1.23.62-2.193.62Zm13.192 5.457c.861 0 1.7-.13 2.516-.39a6.649 6.649 0 0 0 2.142-1.123v-4.743h-2.091v3.706c-.703.408-1.519.612-2.448.612-.827 0-1.567-.181-2.219-.544a3.962 3.962 0 0 1-1.53-1.496c-.368-.634-.552-1.348-.552-2.142 0-.816.184-1.541.553-2.176a3.843 3.843 0 0 1 1.53-1.479c.651-.351 1.396-.527 2.235-.527 1.28 0 2.374.454 3.281 1.36l1.394-1.36a5.337 5.337 0 0 0-2.057-1.445c-.816-.328-1.723-.493-2.72-.493-1.224 0-2.326.264-3.307.79a5.858 5.858 0 0 0-2.303 2.185c-.555.93-.833 1.978-.833 3.145 0 1.168.278 2.216.833 3.145a5.873 5.873 0 0 0 2.295 2.185c.975.527 2.068.79 3.281.79Zm16.49-.17v-1.853h-6.715v-3.28h5.746v-1.82h-5.746v-3.094h6.477v-1.853h-8.687v11.9h8.925Zm4.675 0v-3.468h2.686c.204 0 .357-.005.459-.017l2.431 3.485h2.38l-2.737-3.91c.816-.317 1.442-.799 1.879-1.445.436-.646.654-1.416.654-2.312 0-.872-.204-1.626-.612-2.26-.408-.635-.994-1.123-1.76-1.463-.764-.34-1.663-.51-2.694-.51h-4.896v11.9h2.21Zm2.584-5.287h-2.584v-4.743h2.584c.963 0 1.694.204 2.193.612.499.408.748.992.748 1.751 0 .76-.25 1.346-.748 1.76-.499.413-1.23.62-2.193.62Zm8.245-2.176.884-2.414c.147-.385.246-.674.297-.867.052-.192.077-.39.077-.595 0-.408-.13-.742-.391-1.003-.26-.26-.59-.39-.986-.39-.397 0-.725.13-.986.39-.26.26-.391.595-.391 1.003 0 .306.07.57.212.79.142.222.338.378.587.468l-.68 2.618h1.377Z" fill="#1E3D49" fill-rule="nonzero"/><g transform="translate(81.797 233)" filter="url(#a)"><rect fill="#FFF" width="109.228" height="162" rx="5"/><rect width="77.739" height="12" rx="4.266" transform="translate(14.223 104.596)" fill="#BBC3C6"/><rect width="80.17" height="22.52" rx="11.26" transform="translate(12.484 127.382)" fill="#BBC3C6"/></g><g transform="translate(202.624 233)" filter="url(#b)"><rect fill="#FFF" width="109.228" height="162" rx="5"/><rect width="77.739" height="12" rx="4.266" transform="translate(14.223 104.596)" fill="#BBC3C6"/><rect width="80.17" height="22.52" rx="11.26" transform="translate(12.484 127.382)" fill="#BBC3C6"/></g><g transform="translate(323.451 233)" filter="url(#c)"><rect fill="#FFF" width="109.228" height="162" rx="5"/><rect width="77.739" height="12" rx="4.266" transform="translate(14.223 104.596)" fill="#BBC3C6"/><rect width="80.17" height="22.52" rx="11.26" transform="translate(12.484 127.382)" fill="#BBC3C6"/></g><g transform="translate(444.278 233)" filter="url(#d)"><rect fill="#FFF" width="109.228" height="162" rx="5"/><rect width="77.739" height="12" rx="4.266" transform="translate(14.223 104.596)" fill="#BBC3C6"/><rect width="80.17" height="22.52" rx="11.26" transform="translate(12.484 127.382)" fill="#BBC3C6"/></g><g transform="translate(565.105 233)" filter="url(#e)"><rect fill="#FFF" width="109.228" height="162" rx="5"/><rect width="77.739" height="12" rx="4.266" transform="translate(14.223 104.596)" fill="#BBC3C6"/><rect width="80.17" height="22.52" rx="11.26" transform="translate(12.484 127.382)" fill="#BBC3C6"/></g><g transform="translate(223.134 261.085)"><path d="M33.832 0c19.234 0 30.613 8.56 33.74 25.477l.093.515-2.616.453c-2.761-15.93-13.031-23.79-31.217-23.79-18.003 0-28.248 7.703-31.13 23.315l-.086.475L0 25.992C2.991 8.735 14.404 0 33.832 0ZM66.492 42.512a1.229 1.229 0 0 1 .061 2.456l-.061.001H1.315a1.229 1.229 0 0 1-.061-2.455l.061-.002h65.177Z" fill="#FDCB5B" fill-rule="nonzero"/><circle fill="#80C0A1" cx="17.173" cy="30.697" r="2.715"/><circle fill="#80C0A1" cx="52.519" cy="30.697" r="2.715"/><path d="m30.86 26.58.277 1.276.095.46c1.096 5.407.935 9.319-.558 11.766-2.075 3.402-5.05 3.652-8.43 1.911-2.87-1.48-4.252-4.819-2.633-7.71.539-.964 1.607-2 3.21-3.138l.288-.202.3-.203c.153-.103.31-.206.47-.31l.328-.21.338-.212.298-.18.43-.252.39-.223.43-.242.599-.33.662-.359.728-.389.96-.506 1.818-.947Zm-1.152 2.44-.75.396-.786.42-.709.383-.511.282-.462.258-.412.235-.276.162-.325.195-.23.142-.304.193c-.05.031-.1.063-.148.095l-.289.188-.278.186-.266.184-.257.18-.245.178c-.36.265-.684.52-.972.766l-.186.162c-.603.536-1.026 1.023-1.268 1.454-.984 1.76-.364 3.783 1.212 4.992l.013-.026 3.814-7.1a.979.979 0 0 1 1.751.872l-.026.054-3.814 7.1-.01.019c2.224.868 3.954.46 5.308-1.758.99-1.625 1.275-4.24.814-7.832l-.054-.403a38.946 38.946 0 0 0-.321-1.913l-.013-.064ZM32.554 33.126l1.161-.598.42-.211c4.939-2.458 8.759-3.315 11.51-2.506 3.823 1.124 4.835 3.933 4.027 7.647-.686 3.156-3.553 5.355-6.766 4.54-1.07-.271-2.347-1.034-3.861-2.289l-.27-.226-.274-.237c-.139-.12-.28-.245-.421-.374l-.287-.262-.293-.272-.25-.24-.356-.35-.316-.32-.345-.353-.473-.493-.519-.547-.564-.602-.737-.796-1.386-1.511Zm2.655.48.577.623.609.65.554.586.404.421.369.38.334.336.228.225.272.264.197.185.265.244.13.118.257.23.251.22.246.21.241.202.235.19c.35.28.68.527.991.741l.205.138c.674.444 1.254.726 1.733.848 1.954.496 3.748-.627 4.508-2.462l-.029-.006-7.845-1.846a.979.979 0 0 1 .39-1.918l.059.012 7.845 1.846.02.006c.263-2.374-.578-3.94-3.071-4.673-1.826-.537-4.426-.135-7.776 1.24l-.375.157c-.567.241-1.156.51-1.765.805l-.059.029ZM67.448 28.265l-.063 1.304-.027.47c-.341 5.506-1.509 9.243-3.584 11.22-2.886 2.749-5.825 2.22-8.637-.335-2.39-2.172-2.861-5.756-.549-8.13.77-.792 2.07-1.516 3.913-2.2l.33-.12.343-.12c.174-.059.352-.118.534-.177l.37-.118c.126-.039.254-.078.383-.116l.333-.098.48-.132.435-.115.48-.122.662-.163.734-.175.803-.188 1.058-.24 2.002-.445Zm-1.744 2.059-.828.188-.868.202-.784.187-.566.14-.513.13-.459.12-.309.085-.364.104-.259.078-.343.108-.168.053-.328.108-.316.107-.305.108-.295.108-.283.109c-.416.162-.795.325-1.136.488l-.222.108c-.721.362-1.256.723-1.601 1.077-1.407 1.444-1.331 3.56-.122 5.135l.02-.022 5.521-5.871a.979.979 0 0 1 1.466 1.297l-.04.044-5.52 5.871-.016.016c1.925 1.414 3.701 1.468 5.582-.324 1.378-1.313 2.33-3.766 2.814-7.354l.052-.404c.075-.612.136-1.255.185-1.93l.005-.066Z" fill="#80C0A1" fill-rule="nonzero"/><path d="M23.622 10.14a1.229 1.229 0 0 1 .062 2.455l-.062.001h-5.22a1.229 1.229 0 0 1-.062-2.455l.061-.002h5.221ZM35.935 12.987a1.229 1.229 0 0 1 .062 2.456l-.062.001h-5.221a1.229 1.229 0 0 1-.061-2.456l.061-.001h5.221ZM35.024 6.6a1.229 1.229 0 0 1 .061 2.455l-.061.001h-5.221a1.229 1.229 0 0 1-.062-2.455l.062-.002h5.22ZM45.78 8.426a1.229 1.229 0 0 1 .061 2.456l-.06.001h-5.222a1.229 1.229 0 0 1-.061-2.455l.06-.002h5.222Z" fill="#FDCB5B" fill-rule="nonzero"/><path d="M45.78 8.426a1.229 1.229 0 0 1 .061 2.456l-.06.001h-5.222a1.229 1.229 0 0 1-.061-2.455l.06-.002h5.222ZM66.492 24.545A1.229 1.229 0 0 1 66.553 27l-.061.002H1.315a1.229 1.229 0 0 1-.061-2.456l.061-.001h65.177ZM64.471 46.696c.658 0 1.195.517 1.227 1.167l.002.061v1.536a8.293 8.293 0 0 1-8.156 8.291l-.137.001H11.644a8.293 8.293 0 0 1-8.291-8.155l-.002-.137v-1.536a1.229 1.229 0 0 1 2.456-.061l.002.061v1.536a5.836 5.836 0 0 0 5.731 5.835h45.867a5.836 5.836 0 0 0 5.835-5.731V47.924c0-.678.55-1.228 1.23-1.228Z" fill="#FDCB5B" fill-rule="nonzero"/><path d="m2.667 26.407 1.243.399.447.147c5.23 1.754 8.537 3.85 9.91 6.366 1.908 3.499.638 6.2-2.56 8.256C8.992 43.32 5.409 42.849 3.714 40c-.565-.95-.928-2.392-1.112-4.349l-.03-.35-.027-.362c-.013-.184-.024-.371-.033-.562l-.018-.389-.014-.399-.008-.347-.003-.499.002-.449.006-.495.013-.682.02-.754.028-.824.041-1.085.089-2.048Zm1.537 2.217-.032.849-.03.89-.022.806-.012.583-.007.53-.002.474.002.32.006.379.009.27.014.36.009.176.019.344.022.333.025.323.028.312.031.302c.05.444.109.852.178 1.224l.047.242c.163.79.373 1.4.626 1.825 1.031 1.733 3.093 2.207 4.928 1.447l-.016-.025-4.242-6.853a.979.979 0 0 1 1.632-1.08l.033.05 4.242 6.853.01.019c1.865-1.493 2.377-3.196 1.133-5.477-.912-1.67-3.034-3.225-6.375-4.62l-.376-.155a38.946 38.946 0 0 0-1.818-.679l-.062-.022Z" fill="#80C0A1" fill-rule="nonzero"/></g><g transform="translate(461.048 252.328)"><g fill-rule="nonzero"><path d="M38.842 0c19.233 0 30.612 8.56 33.74 25.477l.092.515-2.616.453c-2.761-15.93-13.03-23.79-31.216-23.79-18.004 0-28.25 7.703-31.132 23.315l-.085.475-2.616-.453C8.001 8.735 19.414 0 38.842 0ZM71.501 40.855a1.229 1.229 0 0 1 .062 2.455l-.062.002H6.324a1.229 1.229 0 0 1-.061-2.456l.061-.001h65.177Z" fill="#FDCB5B"/><path d="m75.133 29.017-.361 1.127-.134.404c-1.59 4.74-3.488 7.736-5.768 8.98-3.17 1.73-5.619.578-7.481-2.319-1.583-2.461-1.154-5.708 1.426-7.244.86-.512 2.167-.841 3.94-1.007l.319-.028.327-.024c.166-.012.336-.022.51-.03l.351-.017c.12-.004.24-.009.362-.012l.315-.007.451-.004.408.002.448.006.618.012.683.019.747.024.983.038 1.856.08Zm-2.01 1.393-.768-.03-.807-.026-.73-.02-.528-.01-.48-.007-.43-.002-.29.001-.343.006-.245.008-.326.013-.16.008-.311.017-.302.02-.293.023-.283.025-.273.029a15.41 15.41 0 0 0-1.11.16l-.219.043c-.716.148-1.268.338-1.653.567-1.537.915-1.982 2.723-1.354 4.358l6.122-3.79a.887.887 0 0 1 .98 1.479l-.046.03-6.144 3.804c1.37 1.762 2.93 2.261 5.032 1.114 1.514-.825 2.922-2.749 4.187-5.776l.14-.341c.21-.518.414-1.067.615-1.647l.02-.056Z" fill="#80C0A1"/><path d="M28.632 10.14a1.229 1.229 0 0 1 .06 2.455l-.06.001H23.41a1.229 1.229 0 0 1-.061-2.455l.061-.002h5.222ZM40.945 12.987a1.229 1.229 0 0 1 .06 2.456l-.06.001h-5.222a1.229 1.229 0 0 1-.061-2.456l.061-.001h5.222ZM40.033 6.6a1.229 1.229 0 0 1 .062 2.455l-.062.001h-5.221a1.229 1.229 0 0 1-.061-2.455l.06-.002h5.222ZM50.79 17.183a1.229 1.229 0 0 1 .06 2.455l-.06.002h-5.222a1.229 1.229 0 0 1-.061-2.456l.061-.001h5.221ZM50.79 8.426a1.229 1.229 0 0 1 .06 2.456l-.06.001h-5.222a1.229 1.229 0 0 1-.061-2.455l.061-.002h5.221ZM71.501 24.545A1.229 1.229 0 0 1 71.563 27l-.062.002H6.324a1.229 1.229 0 0 1-.061-2.456l.061-.001h65.177ZM69.48 55.452c.658 0 1.196.518 1.228 1.168l.001.06v1.537a8.293 8.293 0 0 1-8.155 8.291l-.138.001H16.653a8.293 8.293 0 0 1-8.291-8.155l-.001-.137V56.68a1.229 1.229 0 0 1 2.455-.061l.002.06v1.537a5.836 5.836 0 0 0 5.732 5.834l.103.001h45.763a5.836 5.836 0 0 0 5.835-5.732l.001-.103V56.68c0-.679.55-1.229 1.229-1.229Z" fill="#FDCB5B"/><path d="m.158 27.524.983.315.354.117c4.137 1.388 6.754 3.045 7.84 5.036 1.51 2.768.505 4.906-2.025 6.532-2.149 1.381-4.984 1.007-6.325-1.246-.447-.75-.734-1.892-.88-3.44l-.023-.278-.022-.286a26 26 0 0 1-.026-.444l-.014-.308-.011-.315-.006-.275L0 32.538l.002-.356.004-.391.011-.54.016-.596.022-.653.032-.858.07-1.62Zm1.216 1.754-.026.671-.023.705-.017.637-.01.461-.006.419-.001.375.001.254.005.3.007.213.011.285.007.139.015.272.018.264.02.255.022.247.025.239c.038.351.085.674.14.968l.037.192c.129.625.295 1.108.495 1.444.816 1.37 2.447 1.746 3.899 1.145l-.012-.02-3.356-5.422a.774.774 0 0 1 1.29-.854l.027.04 3.356 5.42.009.015c1.474-1.18 1.879-2.527.895-4.332-.721-1.322-2.4-2.551-5.044-3.656l-.297-.122a30.811 30.811 0 0 0-1.438-.537l-.05-.017Z" fill="#80C0A1"/><g fill="#80C0A1"><path d="m40.903 40.997-.232-1.072-.08-.386c-.92-4.541-.786-7.827.468-9.882 1.744-2.857 4.243-3.068 7.08-1.606 2.411 1.243 3.572 4.048 2.213 6.477-.453.809-1.35 1.68-2.697 2.634l-.242.17-.252.171c-.128.086-.26.173-.395.26l-.275.176c-.093.06-.188.119-.284.178l-.25.152-.36.212-.328.187-.363.203-.502.277-.556.301-.612.327-.805.425-1.528.796Zm.968-2.05.63-.332.66-.352.595-.323.43-.236.388-.217.346-.198.232-.135.273-.164.192-.12.256-.161.125-.08.242-.159.233-.156.224-.154.216-.151.206-.15c.302-.222.574-.437.816-.643l.156-.136c.507-.45.862-.86 1.065-1.222.827-1.477.306-3.177-1.017-4.192l-.012.022-3.203 5.963a.822.822 0 0 1-1.471-.733l.022-.045 3.203-5.963.01-.016c-1.87-.729-3.322-.386-4.459 1.477-.832 1.364-1.071 3.56-.684 6.577l.046.339c.072.512.162 1.048.27 1.606l.01.055Z"/><path d="m41.773 35.567-.845.435-.305.154c-3.593 1.788-6.372 2.412-8.373 1.823-2.781-.818-3.518-2.861-2.93-5.563.499-2.296 2.585-3.896 4.922-3.303.779.197 1.708.753 2.809 1.665l.196.165.2.172c.1.088.203.178.306.272l.21.19.212.199.182.175.258.254.23.232.252.258.344.358.377.398.41.438.537.58 1.008 1.098Zm-1.931-.35-.42-.452-.443-.474-.403-.425-.294-.307-.269-.275-.243-.246-.165-.163-.198-.192-.144-.135-.192-.177-.095-.086-.187-.168-.183-.16-.179-.153-.175-.146-.171-.139a12.372 12.372 0 0 0-.721-.539l-.15-.1c-.49-.323-.91-.528-1.26-.617-1.421-.36-2.727.456-3.279 1.791l.02.005 5.708 1.343a.712.712 0 0 1-.284 1.395l-.042-.009-5.708-1.343-.015-.004c-.19 1.727.421 2.866 2.235 3.4 1.328.39 3.22.098 5.657-.903l.273-.114c.412-.175.84-.37 1.283-.586l.044-.02ZM9.122 38.418l.045-.949.02-.341c.248-4.006 1.097-6.724 2.607-8.163 2.1-2 4.237-1.615 6.284.244 1.738 1.58 2.081 4.187.399 5.915-.56.575-1.506 1.102-2.847 1.6l-.24.087-.25.087a23.91 23.91 0 0 1-.388.13l-.27.085-.277.085-.243.07-.35.097-.316.083-.349.089-.482.119-.533.127-.585.137-.77.175-1.455.323Zm1.268-1.497.602-.138.632-.146.57-.137.412-.101.373-.095.334-.088.225-.061.265-.076.188-.057.25-.078.122-.039.238-.078.23-.078.223-.079.214-.078.206-.08c.303-.117.578-.236.827-.354l.161-.08c.525-.262.913-.525 1.164-.782 1.024-1.051.97-2.59.089-3.736l-.014.016-4.017 4.271a.712.712 0 0 1-1.066-.943l.028-.033 4.017-4.271.011-.011c-1.4-1.03-2.692-1.068-4.06.236-1.003.955-1.696 2.739-2.048 5.35l-.038.293c-.054.445-.099.913-.134 1.405l-.004.048ZM60.02 38.914l-.904-.29-.325-.107c-3.805-1.276-6.21-2.8-7.21-4.63-1.388-2.546-.463-4.512 1.863-6.007 1.976-1.27 4.583-.927 5.816 1.145.41.69.675 1.74.808 3.164l.023.255.02.263.023.409.013.283.01.29.006.253.003.362-.002.327-.004.36-.01.496-.015.549-.02.6-.03.788-.064 1.49Zm-1.118-1.613.024-.617.021-.647.016-.587.01-.424.004-.385.002-.345-.001-.233-.005-.276-.006-.196-.01-.262-.007-.128-.014-.25-.016-.243-.018-.235-.02-.227-.024-.219c-.035-.323-.078-.62-.129-.89l-.034-.177c-.118-.575-.271-1.018-.455-1.328-.75-1.26-2.25-1.605-3.585-1.052l.01.018 3.087 4.985a.712.712 0 0 1-1.187.786l-.024-.036-3.086-4.985-.007-.014c-1.357 1.086-1.73 2.324-.824 3.984.663 1.215 2.207 2.346 4.637 3.362l.274.112c.416.168.857.332 1.322.494l.045.015Z"/></g><path d="m28.104 27.514.225 1.038.078.375c.89 4.397.76 7.578-.454 9.569-1.688 2.767-4.108 2.97-6.856 1.554-2.335-1.203-3.46-3.919-2.143-6.271.44-.784 1.308-1.626 2.611-2.551l.235-.165.244-.165c.124-.084.251-.168.382-.253l.267-.17.275-.172.242-.147.349-.205.317-.181.351-.197.487-.268.539-.292.592-.316.78-.412 1.479-.77Zm-.937 1.985-.61.322-.64.341-.576.312-.416.23-.375.21-.335.19-.225.132-.264.159-.187.116-.248.156-.12.077-.235.154-.226.151-.217.149-.208.147-.2.145c-.293.215-.556.423-.79.622l-.152.132c-.49.436-.834.832-1.03 1.183-.801 1.43-.297 3.076.984 4.06l.012-.021 3.101-5.775a.796.796 0 0 1 1.425.71l-.022.043-3.102 5.775-.009.015c1.81.706 3.217.375 4.318-1.43.806-1.32 1.038-3.448.662-6.369l-.044-.328a31.675 31.675 0 0 0-.26-1.556l-.01-.052Z" fill="#80C0A1"/></g><rect fill="#80C0A1" x=".262" y="45.556" width="74.87" height="7.797" rx="3.898"/></g><g transform="translate(101.544 261.085)"><g fill="#FDCB5B" fill-rule="nonzero"><path d="M37.407 0c19.234 0 30.612 8.56 33.74 25.477l.093.515-2.616.453c-2.762-15.93-13.031-23.79-31.217-23.79-18.003 0-28.249 7.703-31.131 23.315l-.085.475-2.616-.453C6.566 8.735 17.979 0 37.407 0ZM70.067 42.512a1.229 1.229 0 0 1 .061 2.456l-.061.001H4.89a1.229 1.229 0 0 1-.061-2.455l.06-.002h65.178Z"/><path d="M27.197 10.14a1.229 1.229 0 0 1 .062 2.455l-.062.001h-5.221a1.229 1.229 0 0 1-.061-2.455l.06-.002h5.222ZM39.51 12.987a1.229 1.229 0 0 1 .062 2.456l-.062.001H34.29a1.229 1.229 0 0 1-.061-2.456l.06-.001h5.222ZM38.599 6.6a1.229 1.229 0 0 1 .061 2.455l-.061.001h-5.221a1.229 1.229 0 0 1-.062-2.455l.062-.002h5.22ZM49.355 8.426a1.229 1.229 0 0 1 .061 2.456l-.061.001h-5.221a1.229 1.229 0 0 1-.062-2.455l.062-.002h5.221Z"/><path d="M49.355 8.426a1.229 1.229 0 0 1 .061 2.456l-.061.001h-5.221a1.229 1.229 0 0 1-.062-2.455l.062-.002h5.221ZM70.067 24.545A1.229 1.229 0 0 1 70.128 27l-.061.002H4.89a1.229 1.229 0 0 1-.061-2.456l.06-.001h65.178ZM68.046 46.696c.658 0 1.195.517 1.227 1.167l.002.061v1.536a8.293 8.293 0 0 1-8.156 8.291l-.137.001H15.22a8.293 8.293 0 0 1-8.292-8.155v-1.673a1.229 1.229 0 0 1 2.455-.061l.001.061v1.536a5.836 5.836 0 0 0 5.732 5.835h45.867a5.836 5.836 0 0 0 5.835-5.731V47.924c0-.678.55-1.228 1.23-1.228Z"/></g><rect fill="#80C0A1" y="28.793" width="74.87" height="11.432" rx="5.716"/></g><g transform="translate(338.348 254.955)"><g fill="#FDCB5B" fill-rule="nonzero"><path d="M38.517 0c19.234 0 30.613 8.56 33.74 25.477l.093.515-2.616.453c-2.761-15.93-13.031-23.79-31.217-23.79-18.003 0-28.248 7.703-31.13 23.315l-.086.475-2.616-.453C7.676 8.735 19.089 0 38.517 0ZM71.177 39.01a1.229 1.229 0 0 1 .061 2.455l-.061.002H6a1.229 1.229 0 0 1-.061-2.456l.06-.002h65.178Z"/><path d="M28.307 10.14a1.229 1.229 0 0 1 .062 2.455l-.062.001h-5.221a1.229 1.229 0 0 1-.061-2.455l.061-.002h5.221ZM40.62 12.987a1.229 1.229 0 0 1 .062 2.456l-.062.001H35.4a1.229 1.229 0 0 1-.061-2.456l.061-.001h5.221ZM39.709 6.6a1.229 1.229 0 0 1 .061 2.455l-.061.001h-5.221a1.229 1.229 0 0 1-.062-2.455l.062-.002h5.22ZM50.465 14.556a1.229 1.229 0 0 1 .061 2.455l-.06.002h-5.222a1.229 1.229 0 0 1-.062-2.456l.062-.001h5.221ZM50.465 8.426a1.229 1.229 0 0 1 .061 2.456l-.06.001h-5.222a1.229 1.229 0 0 1-.062-2.455l.062-.002h5.221ZM71.177 25.42a1.229 1.229 0 0 1 .061 2.456l-.061.001H6a1.229 1.229 0 0 1-.061-2.455l.06-.002h65.178ZM69.156 52.825c.658 0 1.195.518 1.227 1.168l.002.06v1.537a8.293 8.293 0 0 1-8.156 8.291l-.137.001H16.33a8.293 8.293 0 0 1-8.291-8.155l-.002-.137v-1.536a1.229 1.229 0 0 1 2.456-.061l.002.06v1.537a5.836 5.836 0 0 0 5.731 5.834l.104.001h45.763a5.836 5.836 0 0 0 5.835-5.732v-1.639c0-.679.55-1.229 1.23-1.229Z"/></g><rect fill="#80C0A1" x="1.11" y="43.765" width="74.87" height="7.797" rx="3.898"/><rect fill="#80C0A1" y="29.356" width="74.87" height="7.797" rx="3.898"/></g><g transform="translate(582.901 256.707)"><g fill="#FDCB5B" fill-rule="nonzero"><path d="M37.443 0c19.234 0 30.612 8.56 33.74 25.477l.093.515-2.616.453c-2.762-15.93-13.031-23.79-31.217-23.79-18.003 0-28.249 7.703-31.131 23.315l-.085.475-2.616-.453C6.602 8.735 18.015 0 37.443 0ZM70.103 36.82a1.229 1.229 0 0 1 .061 2.456l-.061.001H4.926a1.229 1.229 0 0 1-.061-2.455l.06-.002h65.178Z"/><path d="M70.103 24.545A1.229 1.229 0 0 1 70.164 27l-.061.002H4.926a1.229 1.229 0 0 1-.061-2.456l.06-.001h65.178ZM68.082 51.074c.658 0 1.195.517 1.227 1.167l.002.062v1.535a8.293 8.293 0 0 1-8.156 8.292h-45.9a8.293 8.293 0 0 1-8.292-8.155v-1.672a1.229 1.229 0 0 1 2.455-.062l.001.062v1.535a5.836 5.836 0 0 0 5.732 5.835h45.867a5.836 5.836 0 0 0 5.835-5.731v-1.639c0-.679.55-1.229 1.23-1.229Z"/></g><rect fill="#80C0A1" x="1.012" y="42.013" width="74.87" height="7.797" rx="3.898"/><path d="m0 32.774 3.726-.98a19.001 19.001 0 0 1 9.215-.114l.869.206c2.459.582 5.027.51 7.45-.206 2.434-.721 4.998-.89 7.505-.494l1.264.2a25.34 25.34 0 0 0 8.33-.071 26.485 26.485 0 0 1 8.34-.13l1.356.195c3.07.44 6.19.419 9.253-.065l1.346-.213a17.316 17.316 0 0 1 6.51.213c2.13.48 4.341.48 6.471 0l3.235-.73h0" stroke="#80C0A1" stroke-width="4" stroke-linecap="round" stroke-linejoin="round"/></g><path stroke="#D3D3D3" stroke-width="3" stroke-linecap="round" stroke-linejoin="round" d="m693 293 11 11-11 11"/></g></svg>