<?xml version="1.0" encoding="UTF-8"?>
<svg width="822px" height="474px" viewBox="0 0 822 474" version="1.1" xmlns="http://www.w3.org/2000/svg" xmlns:xlink="http://www.w3.org/1999/xlink">
    <title>illustration/ExplainOverview</title>
    <defs>
        <polygon id="path-1" points="0 0 56 0 56 44 0 44"></polygon>
        <polygon id="path-3" points="0 0 61 0 61 48 0 48"></polygon>
        <polygon id="path-5" points="0 0 48 0 48 42 0 42"></polygon>
    </defs>
    <g id="illustration/ExplainOverview" stroke="none" stroke-width="1" fill="none" fill-rule="evenodd">
        <rect id="Rectangle" stroke="#000A0D" stroke-width="18" fill="#FFFFFF" x="52" y="167" width="695" height="345" rx="18"></rect>
        <g id="Group-6" opacity="0.5" transform="translate(85.924687, 420.500000)">
            <rect id="Rectangle-Copy-11" fill="#CFD4D7" opacity="0.605880011" x="0" y="0" width="100" height="104" rx="8"></rect>
            <g id="Group-11-Copy-2" transform="translate(22.075313, 35.500000)">
                <mask id="mask-2" fill="white">
                    <use xlink:href="#path-1"></use>
                </mask>
                <g id="Clip-10"></g>
                <path d="M12.351571,17.5873157 C11.0594075,18.9113745 10.0005918,19.9429808 9.0095928,21.0358489 C8.55784603,21.5336016 8.31902913,21.4493666 7.8884295,21.0114171 C5.40765061,18.4883758 2.91265208,15.9784622 0.377182291,13.511213 C-0.194884447,12.9543863 -0.0654493344,12.6736027 0.426039489,12.1871542 C4.30544681,8.34698262 8.16188397,4.48383783 12.0172273,0.619599071 C12.4000635,0.235618378 12.7712324,-0.0101584379 13.368457,0.000781182944 C15.5972931,0.0419870883 17.8275877,0.038340548 20.0567885,0 C20.6795355,-0.0101584379 20.9486147,0.178732349 21.1502418,0.784058039 C22.3031258,4.24571874 24.7470795,6.07919921 28.0792133,6.05841393 C31.3139973,6.0379933 33.8115481,4.10787952 34.8532273,0.742122826 C35.0318842,0.16524015 35.2703365,-0.00359466541 35.8456847,0.00406306921 C38.1186382,0.0332353916 40.3926855,0.0325060835 42.665639,0.00406306921 C43.1994221,-0.00286535735 43.5552775,0.195506435 43.9136852,0.555055308 C47.7996554,4.45393619 51.6856256,8.35281708 55.6051396,12.2174205 C56.1473087,12.7520033 56.1188694,13.0258585 55.5952952,13.5374681 C53.0951922,15.9799208 50.6206116,18.4486285 48.1773872,20.9476026 C47.6545422,21.4825501 47.3522839,21.4934897 46.8575136,20.9439561 C45.8960477,19.8762491 44.869682,18.8665221 43.5804353,17.5326176 C43.5804353,18.4030468 43.5800707,18.8905892 43.5804353,19.3781317 C43.5815291,27.1496384 43.5647573,34.921145 43.606687,42.6922871 C43.612156,43.6888865 43.402143,44.0050416 42.337129,44 C32.7633059,43.95399 23.1887537,43.9532607 13.6149306,44 C12.5502812,44.0050416 12.3213087,43.7038373 12.3267778,42.6930164 C12.3687074,35.008662 12.3508417,27.323943 12.351571,19.639224 C12.351571,19.0791154 12.351571,18.5190068 12.351571,17.5873157" id="Fill-9" fill="#53B9C9" mask="url(#mask-2)"></path>
            </g>
            <text id="13,120" font-family="Montserrat-Regular, Montserrat" font-size="12" font-weight="normal" fill="#1E3D49">
                <tspan x="33.8033125" y="20.1246726">13,120</tspan>
            </text>
        </g>
        <g id="Group-3" opacity="0.5" transform="translate(201.924687, 310.500000)">
            <rect id="Rectangle-Copy-8" fill="#CFD4D7" opacity="0.605880011" x="0" y="0" width="100" height="91" rx="8"></rect>
            <text id="18,020" font-family="Montserrat-Regular, Montserrat" font-size="12" font-weight="normal" fill="#1E3D49">
                <tspan x="31.4993125" y="19.1246726">18,020</tspan>
            </text>
            <path d="M64.904067,52.3236807 C64.904067,59.6973783 64.8734085,66.8302368 64.9313189,73.9620733 C64.9422197,75.3038914 64.7368081,75.8472272 63.1814028,75.8309077 C54.6985507,75.7412852 46.2143359,75.760021 37.7311432,75.818272 C36.4482574,75.8271289 36.0834219,75.5035119 36.0953446,74.1991653 C36.160068,66.9549145 36.1263437,59.7099824 36.1263437,52.2736053 C34.5808172,52.9331026 33.18177,53.52447 31.7881732,54.1277601 C31.1450271,54.4064114 30.7733785,54.4244658 30.4364762,53.5881714 C29.1535905,50.4048025 27.798487,47.2480042 26.3640123,44.1303806 C25.8905096,43.10196 26.2039071,42.7660797 27.1103752,42.3903433 C32.147899,40.3011404 37.1789504,38.1949049 42.1783215,36.0164518 C43.0933058,35.617892 43.3743416,35.881214 43.8621516,36.6166761 C47.1661104,41.5969708 53.7672151,41.6249041 57.0738991,36.6609606 C57.6220041,35.8382922 57.9807079,35.6488911 58.9117028,36.0542639 C63.8003628,38.1829822 68.7091211,40.2691193 73.645472,42.2850827 C74.8190093,42.7643764 75.0731338,43.2245938 74.51515,44.412779 C73.1344979,47.3539462 71.8393487,50.3387165 70.6286807,53.3538046 C70.2028689,54.4149276 69.7545742,54.4094772 68.8712702,53.9795776 C67.6684371,53.3940013 66.4012212,52.9399156 64.904067,52.3236807" id="Fill-3" fill="#53B9C9"></path>
        </g>
        <g id="Group-7" opacity="0.5" transform="translate(201.924687, 420.500000)">
            <rect id="Rectangle-Copy-12" fill="#E2E6E7" opacity="0.605880011" x="0" y="0" width="100" height="104" rx="8"></rect>
            <path d="M65.4508642,78.4295817 C65.4628511,79.9050873 65.236974,80.5025566 63.5266011,80.4842017 C54.1985886,80.3860595 44.8690777,80.4066618 35.5406906,80.4707165 C34.1299889,80.4804559 33.7288042,80.1245964 33.7419148,78.6902956 C33.8130867,70.7242882 33.7760024,62.7575318 33.7760024,54.5802563 C32.0764926,55.3054604 30.538056,55.9557467 29.0056129,56.6191436 C28.2983891,56.9255574 27.8897126,56.9454106 27.5192442,56.0257948 C26.1085424,52.5252617 24.6184278,49.0539464 23.041034,45.6257089 C22.5203554,44.4948251 22.8649772,44.1254804 23.8617583,43.7123089 C29.4011787,41.4149552 34.933482,39.0988721 40.4309486,36.7033762 C41.4370943,36.2651072 41.8648748,36.4872384 42.2825414,37.3634018 C47.1802912,47.6421209 48.6632886,57.1214673 56.8105969,37.4120984 C57.226016,36.407451 57.8077525,36.2991948 58.831504,36.7449556 C64.2072291,39.0857615 69.605055,41.3797439 75.0332226,43.5965609 C76.3236813,44.1236075 76.6031246,44.6296771 75.989548,45.9362431 C74.4713393,49.1704436 73.0467777,52.4525914 71.7158634,55.7680777 C71.2472527,56.9349221 70.7546683,56.9289287 69.7833593,56.4561975 C68.4606859,55.8122792 67.0672153,55.3129522 65.4208971,54.6353209 C65.4208971,62.743672 65.3871841,70.5871887 65.4508642,78.4295817 Z" id="Fill-5-Copy-2" fill="#53B9C9"></path>
            <text id="12,500" font-family="Montserrat-Regular, Montserrat" font-size="12" font-weight="normal" fill="#1E3D49">
                <tspan x="32.8293125" y="20.1246726">12,500</tspan>
            </text>
        </g>
        <g id="Group-4" opacity="0.5" transform="translate(317.924687, 310.500000)">
            <rect id="Rectangle-Copy-9" fill="#CFD4D7" opacity="0.605880011" x="0" y="0" width="100" height="91" rx="8"></rect>
            <text id="16,350" font-family="Montserrat-Regular, Montserrat" font-size="12" font-weight="normal" fill="#1E3D49">
                <tspan x="33.1713125" y="19.1246726">16,350</tspan>
            </text>
            <path d="M67.4210384,52.6352421 C67.4210384,60.7436654 67.3873251,68.5872519 67.4510058,76.4297147 C67.4629927,77.9052335 67.2371136,78.5027081 65.5267255,78.4847625 C56.19863,78.3862099 46.8690361,78.4068125 37.5405659,78.4708677 C36.1298516,78.4806071 35.7286633,78.1247445 35.7417741,76.6904309 C35.8129466,68.7243527 35.775862,60.7575253 35.775862,52.5801771 C34.076337,53.3053876 32.5378868,53.9556797 31.00543,54.6190825 C30.2981999,54.925499 29.8895198,54.9453524 29.5190481,54.0257284 C28.1083337,50.5251641 26.6182059,47.053818 25.040798,43.62555 C24.5201148,42.494656 24.8647397,42.1253081 25.8615296,41.7121329 C31.4009994,39.4147588 36.9333519,37.0986551 42.4308674,34.7031378 C43.4370221,34.2648649 43.8648064,34.4869981 44.2824768,35.3631693 C49.1802701,45.6419799 50.6632807,55.1214107 58.8106615,35.4118663 C59.2260843,34.4072099 59.807826,34.2989528 60.8315866,34.7447175 C66.2073596,37.0855443 71.6052335,39.3795471 77.0334494,41.5963839 C78.3239196,42.1234351 78.6033654,42.6295092 77.9897834,43.9360869 C76.4715611,47.1703162 75.0469869,50.4524932 73.7160607,53.768009 C73.2474458,54.9348638 72.754857,54.9288703 71.7835394,54.4561349 C70.4608543,53.8122109 69.0673712,53.3128794 67.4210384,52.6352421" id="Fill-5-Copy" fill="#53B9C9"></path>
        </g>
        <g id="Group-8" opacity="0.5" transform="translate(317.924687, 420.500000)">
            <rect id="Rectangle-Copy-13" fill="#E2E6E7" opacity="0.605880011" x="0" y="0" width="100" height="104" rx="8"></rect>
            <g id="Group-11-Copy" transform="translate(19.075313, 34.500000)">
                <mask id="mask-4" fill="white">
                    <use xlink:href="#path-3"></use>
                </mask>
                <g id="Clip-10"></g>
                <path d="M13.4543898,19.1861626 C12.0468546,20.6305904 10.8935018,21.755979 9.81402073,22.9481988 C9.32193942,23.4912018 9.06179959,23.399309 8.59275356,22.9215459 C5.89047655,20.1691373 3.1727103,17.4310496 0.410859281,14.7395051 C-0.212284844,14.1320578 -0.0712930249,13.8257484 0.464078729,13.2950773 C4.68986171,9.10579922 8.8906236,4.89145945 13.090194,0.67592626 C13.5072121,0.257038231 13.911521,-0.0110819323 14.5620692,0.000852199575 C16.9899086,0.0458040963 19.4193366,0.0418260524 21.8475732,0 C22.5259226,-0.0110819323 22.8190267,0.194980745 23.0386562,0.855336042 C24.2944763,4.63169317 26.9566402,6.63185368 30.5862859,6.60917883 C34.1098899,6.58690178 36.8304363,4.48132311 37.9651226,0.809588537 C38.159731,0.180261982 38.4194737,-0.00392145318 39.0461922,0.00443243914 C41.522088,0.0362567908 43.9991753,0.035461182 46.475071,0.00443243914 C47.0565134,-0.00312584439 47.4441416,0.213279747 47.8345499,0.605514882 C52.0674818,4.85883949 56.3004136,9.11216409 60.5698842,13.3280951 C61.1604612,13.9112763 61.1294827,14.2100274 60.5591609,14.768147 C57.8358344,17.4326408 55.1403091,20.1257766 52.4789396,22.8519301 C51.9094121,23.4355092 51.5801664,23.4474433 51.0412202,22.8479521 C49.9939091,21.6831808 48.8759036,20.5816604 47.4715456,19.126492 C47.4715456,20.0760511 47.4711485,20.6079155 47.4715456,21.13978 C47.4727371,29.6177873 47.4544677,38.0957946 47.5001411,46.5734041 C47.5060985,47.6606035 47.2773344,48.0054999 46.1172298,48 C35.6886011,47.9498073 25.2591781,47.9490117 14.8305494,48 C13.670842,48.0054999 13.4214255,47.6769135 13.4273829,46.5741997 C13.4730563,38.1912676 13.4535955,29.8079378 13.4543898,21.424608 C13.4543898,20.8135804 13.4543898,20.2025528 13.4543898,19.1861626" id="Fill-9" fill="#53B9C9" mask="url(#mask-4)"></path>
            </g>
            <text id="10,220" font-family="Montserrat-Regular, Montserrat" font-size="12" font-weight="normal" fill="#1E3D49">
                <tspan x="30.9073125" y="20.1246726">10,220</tspan>
            </text>
        </g>
        <g id="Group-5" opacity="0.5" transform="translate(433.924687, 310.500000)">
            <rect id="Rectangle-Copy-10" fill="#CFD4D7" opacity="0.605880011" x="0" y="0" width="100" height="91" rx="8"></rect>
            <text id="14,400" font-family="Montserrat-Regular, Montserrat" font-size="12" font-weight="normal" fill="#1E3D49">
                <tspan x="30.7193125" y="19.1246726">14,400</tspan>
            </text>
            <g id="Group-14-Copy" transform="translate(26.075313, 35.500000)">
                <mask id="mask-6" fill="white">
                    <use xlink:href="#path-5"></use>
                </mask>
                <g id="Clip-13"></g>
                <path d="M9.25451334,16.7878923 C8.02568646,18.0517666 7.01876962,19.0364816 6.07634539,20.0796739 C5.64674141,20.5548016 5.41963035,20.4743954 5.01013696,20.0563527 C2.65095578,17.6479951 2.77023243,17.753463 0.358694346,15.3983615 C-0.185332003,14.8668451 -0.0622412736,14.5991725 0.405156762,14.1344872 C4.09441129,10.4688689 5.2701878,4.28002701 8.93655785,0.591435477 C9.30062902,0.224908452 9.65360469,-0.00969669077 10.2215557,0.000745674628 C12.3411434,0.0400785843 14.462118,0.0365977958 16.5820524,0 C17.1742749,-0.00969669077 17.4301649,0.170608152 17.621909,0.748419037 C18.7182834,4.05273153 21.0424444,4.19022267 24.2112505,4.1700341 C27.2874785,4.15054168 29.6626095,3.92115772 30.6532298,0.70838997 C30.8231297,0.157729234 31.049894,-0.00343127153 31.5970409,0.00387838425 C33.7585835,0.031724692 35.9211662,0.0310285343 38.0827088,0.00387838425 C38.590328,-0.00273511384 38.9287408,0.186619779 39.2695808,0.529825521 C42.9650766,4.25148455 43.8970987,10.747332 47.6244941,14.4362716 C48.1400882,14.9465552 48.1130429,15.2079624 47.6151322,15.696317 C45.2375741,18.0277491 45.647761,17.6100545 43.3242934,19.9954389 C42.8270762,20.5060705 42.5396334,20.5165129 42.0691147,19.9919581 C41.154776,18.9727832 40.1787185,18.0089529 38.9526655,16.7356805 C38.9526655,17.5665447 38.9523188,18.0319261 38.9526655,18.4973075 C38.9537057,25.9155639 42.4026733,33.3338203 42.4425477,40.7517286 C42.4477488,41.7030281 42.2483764,42.0048124 41.2355651,42 C32.1306653,41.9560814 16.151755,41.9553852 7.04720184,42 C6.03508399,42.0048124 5.81698802,41.7172993 5.82218904,40.7524247 C5.8620635,33.4173592 9.25381987,26.0819456 9.25451334,18.746532 C9.25451334,18.2118829 9.25451334,17.6772337 9.25451334,16.7878923" id="Fill-12" fill="#53B9C9" mask="url(#mask-6)"></path>
            </g>
        </g>
        <g id="Group-9" opacity="0.5" transform="translate(433.924687, 420.500000)">
            <rect id="Rectangle-Copy-14" fill="#E2E6E7" opacity="0.605880011" x="0" y="0" width="100" height="104" rx="8"></rect>
            <path d="M64.2983538,54.119874 C64.2983538,63.336996 67.7670166,72.253069 67.8394046,81.1678646 C67.8530306,82.8451373 67.5958403,83.5243071 65.6515836,83.5039077 C55.0484443,83.3918796 44.4431759,83.4152993 33.8387591,83.4881131 C32.2355777,83.4991842 31.7795333,83.094663 31.7940109,81.4642296 C31.8749151,72.4089161 33.9622445,63.352751 33.9622445,54.0572797 C32.0307622,54.8816513 28.1524684,55.6208606 26.4104724,56.3749732 C25.6065398,56.7232873 25.1419791,56.7458553 24.7204254,55.7004874 C23.117244,51.7212762 27.646604,45.529547 25.8535106,41.6325175 C25.262058,40.3469917 25.6533791,39.9271413 26.7864642,39.4570451 C33.083369,36.8459672 33.148944,36.4589043 39.397732,33.7358379 C40.5418883,33.2376381 40.8927572,33.5667906 41.5029455,34.4861182 C45.632894,40.7114866 53.8842748,40.7464032 58.0176299,34.5414738 C58.702761,33.5131383 59.1511409,33.2763869 60.3144587,33.783103 C66.4257095,36.4440008 67.9811999,39.0516722 74.1516386,41.5716264 C75.618986,42.1707436 75.9366416,42.7460153 75.2391619,44.2312468 C73.5129209,47.9077058 76.474016,51.6386687 74.9611068,55.4075289 C74.4284162,56.7339326 73.8680479,56.7271196 72.7643437,56.1897451 C71.2603765,55.4577746 66.1697966,54.8901675 64.2983538,54.119874" id="Fill-7-Copy" fill="#53B9C9"></path>
            <text id="7,780" font-family="Montserrat-Regular, Montserrat" font-size="12" font-weight="normal" fill="#1E3D49">
                <tspan x="34.4393125" y="20.1246726">7,780</tspan>
            </text>
        </g>
        <path d="M75.9246875,173.5 L721.924687,173.5 C731.313528,173.5 738.924687,181.111159 738.924687,190.5 L738.924687,298.5 L738.924687,298.5 L58.9246875,298.5 L58.9246875,190.5 C58.9246875,181.111159 66.5358468,173.5 75.9246875,173.5 Z" id="Rectangle-Copy" fill="#1E3D49"></path>
        <rect id="Rectangle-Copy-18" fill="#1E3D49" opacity="0.2" x="58.9246875" y="298.5" width="680" height="178"></rect>
        <g id="Group-13" transform="translate(85.924687, 310.500000)">
            <rect id="Rectangle" fill="#FFFFFF" x="0" y="0" width="100" height="91" rx="8"></rect>
            <text id="20,500" font-family="Montserrat-Regular, Montserrat" font-size="12" font-weight="normal" fill="#1E3D49">
                <tspan x="30.1733125" y="19.1246726">20,500</tspan>
            </text>
            <g id="Group-15" transform="translate(25.075313, 32.500000)" fill="#80C0A1">
                <path d="M11.4536881,15.6855269 C10.3990711,17.1974934 9.35497022,18.6487565 8.36382554,20.1348678 C7.89210227,20.8419511 7.53342733,21.2271559 6.60951072,20.6186222 C4.69933193,19.360711 2.70126838,18.2328251 0.717476713,17.0899508 C-0.0115160214,16.6698976 -0.182027459,16.2041295 0.192421668,15.4337198 C1.86598768,11.9916071 3.590632,8.57947142 5.76108487,5.41352213 C6.71392081,4.0240867 8.16965282,3.29676896 9.64040787,2.64401909 C12.1285979,1.53974017 14.762887,0.857013269 17.375017,0.113582876 C18.4701962,-0.198178257 18.9043619,0.133067946 19.1417258,1.26207791 C19.8819859,4.78288032 22.1005124,6.61297812 25.4465177,6.63808389 C28.799659,6.66318965 31.1203422,4.80011711 31.8305561,1.35051016 C32.0731781,0.172787514 32.5062171,-0.244267944 33.6964169,0.137189788 C35.3410636,0.664410838 37.011625,1.10994448 38.6724214,1.58657929 C42.6208504,2.72083523 45.6160678,4.95225055 47.3598665,8.78144168 C48.379555,11.0203513 49.6013032,13.1685803 50.7580769,15.3437887 C51.1843555,16.1449249 51.0701804,16.656408 50.2322707,17.1266727 C48.238714,18.2451907 46.2586781,19.3955593 44.3424901,20.6396061 C43.5428891,21.1589582 43.1477833,20.949119 42.6989702,20.2817553 C41.66839,18.7488048 40.6133975,17.231967 39.4603796,15.5506302 C38.4065137,17.6471489 38.3719608,19.7564078 38.2637949,21.7970943 C37.954696,27.6321235 38.4527096,33.4461689 39.2079926,39.2234924 C39.4464833,41.0468453 39.0468706,41.8936965 37.2437309,42.378575 C29.2702555,44.5230569 21.348234,44.607742 13.4025512,42.2283151 C11.9002478,41.7782849 11.5731212,41.1094224 11.750393,39.5858397 C12.5668949,32.568966 13.3030236,25.536729 12.3918766,18.4632736 C12.344554,18.0975538 12.3148835,17.7164708 12.1841831,17.3777303 C11.9870058,16.8666219 12.1222131,16.2363548 11.4536881,15.6855269" id="Fill-1-Copy"></path>
            </g>
        </g>
        <g id="Group-14" transform="translate(563.924687, 211.500000)">
            <rect id="Rectangle-Copy-7" fill="#FFFFFF" x="0" y="0" width="160" height="292" rx="8"></rect>
            <g id="Group-15-Copy" transform="translate(28.075313, 21.500000)" fill="#80C0A1">
                <path d="M24.0302868,32.7970107 C21.817659,35.9583953 19.6270944,38.9928544 17.547634,42.1001782 C16.55794,43.578625 15.805426,44.3840533 13.8670127,43.1116646 C9.85938267,40.4814866 5.66736699,38.1231799 1.50529428,35.7335335 C-0.0241610645,34.8552405 -0.381900748,33.8813617 0.403708205,32.270505 C3.91491532,25.0733603 7.53328675,17.9388948 12.086982,11.3191826 C14.0860692,8.41399946 17.140252,6.89324419 20.2259538,5.52840355 C25.446274,3.21945672 30.9731158,1.79193684 36.4534671,0.237491467 C38.751196,-0.414372719 39.6620926,0.278232979 40.1600915,2.63889018 C41.713186,10.0005679 46.3677418,13.8271361 53.3877921,13.8796299 C60.4228139,13.9321238 65.2916983,10.0366085 66.781755,2.82379397 C67.2907854,0.361282983 68.1993181,-0.510742064 70.6964042,0.286851376 C74.1469374,1.38922266 77.6518407,2.320793 81.1362568,3.31739305 C89.4202156,5.68901912 95.7042992,10.3547057 99.3628573,18.3611962 C101.502204,23.0425526 104.065479,27.5343043 106.492436,32.0824673 C107.386785,33.7575702 107.147241,34.8270349 105.389274,35.8103156 C101.206714,38.149035 97.0525208,40.5543512 93.0322832,43.15554 C91.354689,44.241458 90.5257415,43.8027033 89.5841139,42.4073065 C87.4219164,39.2020464 85.2085006,36.0304764 82.7894238,32.5149541 C80.578372,36.898584 80.5058785,41.3088527 80.2789423,45.5757425 C79.6304406,57.7762583 80.6752926,69.9328986 82.2599061,82.0127568 C82.7602688,85.8252221 81.9218657,87.5959109 78.138808,88.6097477 C61.4101439,93.0936645 44.7894321,93.2707333 28.119078,88.295568 C24.9671865,87.3545958 24.2808622,85.956065 24.6527854,82.7703922 C26.3658384,68.0987471 27.9102652,53.3949788 25.998643,38.6050266 C25.8993584,37.8403397 25.8371086,37.0435298 25.562894,36.3352543 C25.1492083,35.2665731 25.4328785,33.9487419 24.0302868,32.7970107" id="Fill-1-Copy"></path>
            </g>
            <g id="Group-11" transform="translate(24.000000, 136.500000)">
                <rect id="Rectangle-Copy-20" fill="#1E3D49" x="0" y="0" width="63.7048872" height="79" rx="3"></rect>
                <text id="CATALOGUE-DEFINITION" font-family="Montserrat-SemiBold, Montserrat" font-size="7" font-weight="500" fill="#1E3D49">
                    <tspan x="69.0753125" y="10.6246726">CATALOGUE </tspan>
                    <tspan x="69.0753125" y="19.6246726">DEFINITION</tspan>
                </text>
                <text id="BUSINESS-RULES" font-family="Montserrat-SemiBold, Montserrat" font-size="7" font-weight="500" fill="#1E3D49">
                    <tspan x="69.0753125" y="37.6246726">BUSINESS </tspan>
                    <tspan x="69.0753125" y="46.6246726">RULES</tspan>
                </text>
                <text id="WISDOM-OF-THE-CROWD" font-family="Montserrat-SemiBold, Montserrat" font-size="7" font-weight="500" fill="#1E3D49">
                    <tspan x="69.0753125" y="65.6246726">WISDOM OF </tspan>
                    <tspan x="69.0753125" y="74.6246726">THE CROWD</tspan>
                </text>
                <text id="15,500" font-family="Montserrat-Regular, Montserrat" font-size="12" font-weight="normal" fill="#FFFFFF">
                    <tspan x="13.9013125" y="17.6246726">15,500</tspan>
                </text>
                <text id="4,998" font-family="Montserrat-Regular, Montserrat" font-size="12" font-weight="normal" fill="#FFFFFF">
                    <tspan x="15.5813125" y="69.6246726">4,998</tspan>
                </text>
                <line x1="6.31134556" y1="27.5" x2="56.8434943" y2="27.5" id="Line" stroke="#FFFFFF" stroke-width="0.5" stroke-linecap="square"></line>
                <line x1="6.31134556" y1="53.5" x2="56.8434943" y2="53.5" id="Line-Copy" stroke="#FFFFFF" stroke-width="0.5" stroke-linecap="square"></line>
                <text id="2" font-family="Montserrat-Regular, Montserrat" font-size="12" font-weight="normal" fill="#FFFFFF">
                    <tspan x="28.6673125" y="43.6246726">2</tspan>
                </text>
            </g>
            <g id="Group-10" transform="translate(27.075313, 226.124673)" fill="#1E3D49" font-family="Montserrat-Regular, Montserrat" font-weight="normal">
                <text id="TOTAL" font-size="12">
                    <tspan x="66" y="17">TOTAL</tspan>
                </text>
                <text id="20,500" font-size="18">
                    <tspan x="0.147" y="17">20,500</tspan>
                </text>
            </g>
        </g>
        <g id="Group-12" transform="translate(85.924687, 211.500000)">
            <rect id="Rectangle-Copy" stroke="#1E3D49" fill="#F6F7F8" x="0.5" y="0.5" width="447" height="71" rx="8"></rect>
            <rect id="Rectangle-Copy-2" fill="#1E3D49" x="8" y="7.5" width="45.9642857" height="57" rx="3"></rect>
            <rect id="Rectangle-Copy-3" fill="#8B6391" opacity="0.5" x="62.7193878" y="15.5" width="45.9642857" height="49" rx="3"></rect>
            <rect id="Rectangle-Copy-4" fill="#53B9C9" opacity="0.5" x="117.438776" y="21.5" width="45.9642857" height="43" rx="3"></rect>
            <rect id="Rectangle-Copy-5" fill="#80C0A1" opacity="0.5" x="172.158163" y="26.5" width="45.9642857" height="38" rx="3"></rect>
            <rect id="Rectangle-Copy-6" fill="#D44A6F" opacity="0.5" x="226.877551" y="31.5" width="45.9642857" height="33" rx="3"></rect>
            <rect id="Rectangle-Copy-15" fill="#FDCB5B" opacity="0.5" x="281.596939" y="33.5" width="45.9642857" height="31" rx="3"></rect>
            <rect id="Rectangle-Copy-16" fill="#0086B2" opacity="0.5" x="336.316327" y="38.5" width="45.9642857" height="26" rx="3"></rect>
            <rect id="Rectangle-Copy-17" fill="#BBC3C6" opacity="0.5" x="391.035714" y="45.5" width="45.9642857" height="19" rx="3"></rect>
        </g>
        <g id="Group-12" transform="translate(85.924687, 211.500000)">
            <rect id="Rectangle-Copy" fill="#FFFFFF" x="0" y="0" width="448" height="72" rx="8"></rect>
            <rect id="Rectangle-Copy-3" fill="#53B9C9" opacity="0.5" x="62.7193878" y="15.5" width="45.9642857" height="49" rx="3"></rect>
            <rect id="Rectangle-Copy-4" fill="#53B9C9" opacity="0.5" x="117.438776" y="21.5" width="45.9642857" height="43" rx="3"></rect>
            <rect id="Rectangle-Copy-5" fill="#53B9C9" opacity="0.5" x="172.158163" y="26.5" width="45.9642857" height="38" rx="3"></rect>
            <rect id="Rectangle-Copy-6" fill="#53B9C9" opacity="0.5" x="226.877551" y="31.5" width="45.9642857" height="33" rx="3"></rect>
            <rect id="Rectangle-Copy-15" fill="#53B9C9" opacity="0.5" x="281.596939" y="33.5" width="45.9642857" height="31" rx="3"></rect>
            <rect id="Rectangle-Copy-16" fill="#53B9C9" opacity="0.5" x="336.316327" y="38.5" width="45.9642857" height="26" rx="3"></rect>
            <rect id="Rectangle-Copy-17" fill="#53B9C9" opacity="0.5" x="391.035714" y="45.5" width="45.9642857" height="19" rx="3"></rect>
            <rect id="Rectangle-Copy" fill="#1E3D49" opacity="0.1" x="0" y="0" width="448" height="72" rx="8"></rect>
            <rect id="Rectangle-Copy-2" fill="#80C0A1" x="8" y="7.5" width="45.9642857" height="57" rx="3"></rect>
        </g>
        <g id="Group-2" transform="translate(98.000000, 55.000000)">
            <rect id="Rectangle" stroke="#D3D3D3" fill="#FFFFFF" x="0.5" y="0.5" width="604" height="23.5" rx="11.75"></rect>
            <g id="Group" transform="translate(584.823720, 7.086933)" stroke="#D3D3D3">
                <circle id="Oval" fill="#FFFFFF" cx="4.78029079" cy="4.78029079" r="4.28029079"></circle>
                <line x1="8.29332654" y1="7.81681274" x2="11.0576172" y2="10.5811034" id="Path-21" stroke-linecap="round"></line>
            </g>
            <rect id="Rectangle" fill="#243C47" x="1.19771225" y="1.24885305" width="84" height="22.0022939" rx="11.001147"></rect>
            <text id="T-shirt" font-family="Montserrat-Regular, Montserrat" font-size="14" font-weight="normal" fill="#FFFFFF">
                <tspan x="16.6428025" y="16.5244791">T-shirt</tspan>
            </text>
        </g>
        <path id="Path-38" d="M413,62.75 C415.485281,62.75 417.5,64.7647186 417.5,67.25 C417.5,69.5660341 415.750342,71.4734136 413.500707,71.7224574 L413.5,91.5 C413.5,97.2039245 408.951858,101.845573 403.284295,101.996226 L403,102 L178,102 C172.843755,102 168.646961,106.107894 168.503776,111.229521 L168.5,111.5 L168.5,122.591 L172.064212,116.254869 L172.935788,116.745131 L168.435788,124.745131 L168,125.519864 L167.564212,124.745131 L163.064212,116.745131 L163.935788,116.254869 L167.5,122.591 L167.5,111.5 C167.5,105.796076 172.048142,101.154427 177.715705,101.003774 L178,101 L403,101 C408.156245,101 412.353039,96.8921061 412.496224,91.7704787 L412.5,91.5 L412.500297,71.7225684 C410.250179,71.4739814 408.5,69.5663788 408.5,67.25 C408.5,64.7647186 410.514719,62.75 413,62.75 Z M413,63.75 C411.067003,63.75 409.5,65.3170034 409.5,67.25 C409.5,69.1829966 411.067003,70.75 413,70.75 C414.932997,70.75 416.5,69.1829966 416.5,67.25 C416.5,65.3170034 414.932997,63.75 413,63.75 Z" transform="translate(290.500000, 95.625000) scale(-1, 1) translate(-290.500000, -95.625000) " fill="#1E3D49" fill-rule="nonzero"></path>
        <text id="EXPLAIN" font-family="Montserrat-Regular, Montserrat" font-size="18" font-weight="normal" fill="#1E3D49">
            <tspan x="373.193" y="143.624673">EXPLAIN</tspan>
        </text>
        <text id="TOP-RESULTS" font-family="Montserrat-Medium, Montserrat" font-size="12" font-weight="400" fill="#FFFFFF">
            <tspan x="91.33" y="200.624673">TOP RESULTS</tspan>
        </text>
        <path d="M135.924687,401.5 C135.924687,407.022847 140.40184,411.5 145.924687,411.5 L563.924687,411.5 L563.924687,411.5" id="Path-59" stroke="#1E3D49" stroke-width="1.5" stroke-dasharray="3,3"></path>
    </g>
</svg>