<svg xmlns="http://www.w3.org/2000/svg" width="767" height="468" viewBox="0 0 767 468">
    <g fill="none" fill-rule="evenodd">
        <g>
            <g transform="translate(1.000000, 1.000000) translate(20.528526, 21.000000)">
                <g opacity=".627" transform="translate(265.601965, 231.720017)">
                    <rect width="78.646" height="92.052" fill="#E2E6E7" rx="5"/>
                    <rect width="63.464" height="49.798" x="7.591" y="6.328" fill="#FFF" rx="4.266"/>
                    <g fill="#BBC3C6" transform="translate(17.897170, 62.028664)">
                        <rect width="40.66" height="6.276" rx="3.138"/>
                    </g>
                    <g fill="#BBC3C6" transform="translate(6.529457, 73.946184)">
                        <rect width="63.395" height="11.778" rx="5.889"/>
                    </g>
                </g>
                <g opacity=".627" transform="translate(177.706882, 231.720017)">
                    <rect width="78.646" height="92.052" fill="#E2E6E7" rx="5"/>
                    <rect width="63.464" height="49.798" x="7.591" y="6.328" fill="#FFF" rx="4.266"/>
                    <g fill="#BBC3C6" transform="translate(17.897170, 62.028664)">
                        <rect width="40.66" height="6.276" rx="3.138"/>
                    </g>
                    <g fill="#BBC3C6" transform="translate(6.529457, 73.946184)">
                        <rect width="63.395" height="11.778" rx="5.889"/>
                    </g>
                </g>
                <g opacity=".627" transform="translate(353.497049, 231.720017)">
                    <rect width="78.646" height="92.052" fill="#E2E6E7" rx="5"/>
                    <rect width="63.464" height="49.798" x="7.591" y="6.328" fill="#FFF" rx="4.266"/>
                    <g fill="#BBC3C6" transform="translate(17.897170, 62.028664)">
                        <rect width="40.66" height="6.276" rx="3.138"/>
                    </g>
                    <g fill="#BBC3C6" transform="translate(6.529457, 73.946184)">
                        <rect width="63.395" height="11.778" rx="5.889"/>
                    </g>
                </g>
                <g opacity=".627" transform="translate(441.392132, 231.720017)">
                    <rect width="78.646" height="92.052" fill="#E2E6E7" rx="5"/>
                    <rect width="63.464" height="49.798" x="7.591" y="6.328" fill="#FFF" rx="4.266"/>
                    <g fill="#BBC3C6" transform="translate(17.897170, 62.028664)">
                        <rect width="40.66" height="6.276" rx="3.138"/>
                    </g>
                    <g fill="#BBC3C6" transform="translate(6.529457, 73.946184)">
                        <rect width="63.395" height="11.778" rx="5.889"/>
                    </g>
                </g>
                <g opacity=".627" transform="translate(529.287216, 231.720017)">
                    <rect width="78.646" height="92.052" fill="#E2E6E7" rx="5"/>
                    <rect width="63.464" height="49.798" x="7.591" y="6.328" fill="#FFF" rx="4.266"/>
                    <g fill="#BBC3C6" transform="translate(17.897170, 62.028664)">
                        <rect width="40.66" height="6.276" rx="3.138"/>
                    </g>
                    <g fill="#BBC3C6" transform="translate(6.529457, 73.946184)">
                        <rect width="63.395" height="11.778" rx="5.889"/>
                    </g>
                </g>
                <g opacity=".627" transform="translate(617.182299, 231.720017)">
                    <rect width="78.646" height="92.052" fill="#E2E6E7" rx="5"/>
                    <rect width="63.464" height="49.798" x="7.591" y="6.328" fill="#FFF" rx="4.266"/>
                    <g fill="#BBC3C6" transform="translate(17.897170, 62.028664)">
                        <rect width="40.66" height="6.276" rx="3.138"/>
                    </g>
                    <g fill="#BBC3C6" transform="translate(6.529457, 73.946184)">
                        <rect width="63.395" height="11.778" rx="5.889"/>
                    </g>
                </g>
                <g opacity=".627" transform="translate(265.601965, 119.968019)">
                    <rect width="78.646" height="92.052" fill="#E2E6E7" rx="5"/>
                    <rect width="63.464" height="49.798" x="7.591" y="6.328" fill="#FFF" rx="4.266"/>
                    <g fill="#BBC3C6" transform="translate(17.897170, 62.028664)">
                        <rect width="40.66" height="6.276" rx="3.138"/>
                    </g>
                    <g fill="#BBC3C6" transform="translate(6.529457, 73.946184)">
                        <rect width="63.395" height="11.778" rx="5.889"/>
                    </g>
                </g>
                <g opacity=".627" transform="translate(177.706882, 119.968019)">
                    <rect width="78.646" height="92.052" fill="#E2E6E7" rx="5"/>
                    <rect width="63.464" height="49.798" x="7.591" y="6.328" fill="#FFF" rx="4.266"/>
                    <g fill="#BBC3C6" transform="translate(17.897170, 62.028664)">
                        <rect width="40.66" height="6.276" rx="3.138"/>
                    </g>
                    <g fill="#BBC3C6" transform="translate(6.529457, 73.946184)">
                        <rect width="63.395" height="11.778" rx="5.889"/>
                    </g>
                </g>
                <g opacity=".627" transform="translate(353.497049, 119.968019)">
                    <rect width="78.646" height="92.052" fill="#E2E6E7" rx="5"/>
                    <rect width="63.464" height="49.798" x="7.591" y="6.328" fill="#FFF" rx="4.266"/>
                    <g fill="#BBC3C6" transform="translate(17.897170, 62.028664)">
                        <rect width="40.66" height="6.276" rx="3.138"/>
                    </g>
                    <g fill="#BBC3C6" transform="translate(6.529457, 73.946184)">
                        <rect width="63.395" height="11.778" rx="5.889"/>
                    </g>
                </g>
                <g opacity=".627" transform="translate(441.392132, 119.968019)">
                    <rect width="78.646" height="92.052" fill="#E2E6E7" rx="5"/>
                    <rect width="63.464" height="49.798" x="7.591" y="6.328" fill="#FFF" rx="4.266"/>
                    <g fill="#BBC3C6" transform="translate(17.897170, 62.028664)">
                        <rect width="40.66" height="6.276" rx="3.138"/>
                    </g>
                    <g fill="#BBC3C6" transform="translate(6.529457, 73.946184)">
                        <rect width="63.395" height="11.778" rx="5.889"/>
                    </g>
                </g>
                <g opacity=".627" transform="translate(529.287216, 119.968019)">
                    <rect width="78.646" height="92.052" fill="#E2E6E7" rx="5"/>
                    <rect width="63.464" height="49.798" x="7.591" y="6.328" fill="#FFF" rx="4.266"/>
                    <g fill="#BBC3C6" transform="translate(17.897170, 62.028664)">
                        <rect width="40.66" height="6.276" rx="3.138"/>
                    </g>
                    <g fill="#BBC3C6" transform="translate(6.529457, 73.946184)">
                        <rect width="63.395" height="11.778" rx="5.889"/>
                    </g>
                </g>
                <g opacity=".627" transform="translate(617.182299, 119.968019)">
                    <rect width="78.646" height="92.052" fill="#E2E6E7" rx="5"/>
                    <rect width="63.464" height="49.798" x="7.591" y="6.328" fill="#FFF" rx="4.266"/>
                    <g fill="#BBC3C6" transform="translate(17.897170, 62.028664)">
                        <rect width="40.66" height="6.276" rx="3.138"/>
                    </g>
                    <g fill="#BBC3C6" transform="translate(6.529457, 73.946184)">
                        <rect width="63.395" height="11.778" rx="5.889"/>
                    </g>
                </g>
                <g opacity=".627" transform="translate(265.601965, 343.472015)">
                    <rect width="78.646" height="92.052" fill="#E2E6E7" rx="5"/>
                    <rect width="63.464" height="49.798" x="7.591" y="6.328" fill="#FFF" rx="4.266"/>
                    <g fill="#BBC3C6" transform="translate(17.897170, 62.028664)">
                        <rect width="40.66" height="6.276" rx="3.138"/>
                    </g>
                    <g fill="#BBC3C6" transform="translate(6.529457, 73.946184)">
                        <rect width="63.395" height="11.778" rx="5.889"/>
                    </g>
                </g>
                <g opacity=".627" transform="translate(177.706882, 343.472015)">
                    <rect width="78.646" height="92.052" fill="#E2E6E7" rx="5"/>
                    <rect width="63.464" height="49.798" x="7.591" y="6.328" fill="#FFF" rx="4.266"/>
                    <g fill="#BBC3C6" transform="translate(17.897170, 62.028664)">
                        <rect width="40.66" height="6.276" rx="3.138"/>
                    </g>
                    <g fill="#BBC3C6" transform="translate(6.529457, 73.946184)">
                        <rect width="63.395" height="11.778" rx="5.889"/>
                    </g>
                </g>
                <g opacity=".627" transform="translate(353.497049, 343.472015)">
                    <rect width="78.646" height="92.052" fill="#E2E6E7" rx="5"/>
                    <rect width="63.464" height="49.798" x="7.591" y="6.328" fill="#FFF" rx="4.266"/>
                    <g fill="#BBC3C6" transform="translate(17.897170, 62.028664)">
                        <rect width="40.66" height="6.276" rx="3.138"/>
                    </g>
                    <g fill="#BBC3C6" transform="translate(6.529457, 73.946184)">
                        <rect width="63.395" height="11.778" rx="5.889"/>
                    </g>
                </g>
                <g opacity=".627" transform="translate(441.392132, 343.472015)">
                    <rect width="78.646" height="92.052" fill="#E2E6E7" rx="5"/>
                    <rect width="63.464" height="49.798" x="7.591" y="6.328" fill="#FFF" rx="4.266"/>
                    <g fill="#BBC3C6" transform="translate(17.897170, 62.028664)">
                        <rect width="40.66" height="6.276" rx="3.138"/>
                    </g>
                    <g fill="#BBC3C6" transform="translate(6.529457, 73.946184)">
                        <rect width="63.395" height="11.778" rx="5.889"/>
                    </g>
                </g>
                <g opacity=".627" transform="translate(529.287216, 343.472015)">
                    <rect width="78.646" height="92.052" fill="#E2E6E7" rx="5"/>
                    <rect width="63.464" height="49.798" x="7.591" y="6.328" fill="#FFF" rx="4.266"/>
                    <g fill="#BBC3C6" transform="translate(17.897170, 62.028664)">
                        <rect width="40.66" height="6.276" rx="3.138"/>
                    </g>
                    <g fill="#BBC3C6" transform="translate(6.529457, 73.946184)">
                        <rect width="63.395" height="11.778" rx="5.889"/>
                    </g>
                </g>
                <g opacity=".627" transform="translate(617.182299, 343.472015)">
                    <rect width="78.646" height="92.052" fill="#E2E6E7" rx="5"/>
                    <rect width="63.464" height="49.798" x="7.591" y="6.328" fill="#FFF" rx="4.266"/>
                    <g fill="#BBC3C6" transform="translate(17.897170, 62.028664)">
                        <rect width="40.66" height="6.276" rx="3.138"/>
                    </g>
                    <g fill="#BBC3C6" transform="translate(6.529457, 73.946184)">
                        <rect width="63.395" height="11.778" rx="5.889"/>
                    </g>
                </g>
                <rect width="515.517" height="23.5" x="179.812" y="21.5" fill="#FFF" stroke="#D3D3D3" rx="11.75"/>
                <g stroke="#D3D3D3" transform="translate(676.652392, 28.086933)">
                    <circle cx="4.78" cy="4.78" r="4.28" fill="#FFF"/>
                    <path stroke-linecap="round" d="M8.293 7.817L11.058 10.581"/>
                </g>
                <rect width="136" height="16" x="20.471" y="65.968" fill="#BBC3C6" rx="3"/>
                <rect width="89" height="11" x="20.471" y="89.968" fill="#BBC3C6" rx="2"/>
                <rect width="78" height="11" x="20.471" y="108.968" fill="#BBC3C6" rx="2"/>
                <rect width="97.281" height="11" x="20.471" y="127.968" fill="#BBC3C6" rx="2"/>
                <rect width="71.36" height="11" x="20.471" y="146.968" fill="#BBC3C6" rx="2"/>
                <rect width="136" height="16" x="20.471" y="257.436" fill="#BBC3C6" rx="3"/>
                <rect width="89" height="11" x="20.471" y="281.436" fill="#BBC3C6" rx="2"/>
                <rect width="103" height="11" x="20.471" y="300.436" fill="#BBC3C6" rx="2"/>
                <rect width="64" height="11" x="20.471" y="319.436" fill="#BBC3C6" rx="2"/>
                <rect width="78" height="11" x="20.471" y="338.436" fill="#BBC3C6" rx="2"/>
                <rect width="111" height="11" x="20.471" y="165.968" fill="#BBC3C6" rx="2"/>
                <rect width="97" height="11" x="20.471" y="184.968" fill="#BBC3C6" rx="2"/>
                <rect width="59" height="11" x="20.471" y="203.968" fill="#BBC3C6" rx="2"/>
                <rect width="103" height="11" x="20.471" y="222.968" fill="#BBC3C6" rx="2"/>
                <rect width="745.443" height="445.443" x="-10.721" y="-10.721" stroke="#202020" stroke-width="21.443" rx="7.213"/>
                <rect width="144" height="26" x="19.471" y="20.25" fill="#243C47" rx="13"/>
                <rect width="516" height="33" x="179.57" y="65.2" fill="#80C0A1" rx="6"/>
                <text fill="#FFF" font-family="Montserrat-Regular, Montserrat" font-size="13">
                    <tspan x="227.428" y="85.968">There were no results for “</tspan> <tspan x="396.233" y="85.968" font-family="Montserrat-Bold, Montserrat" font-weight="bold">bisiut</tspan> <tspan x="434.518" y="85.968">”. Showing results for &quot;</tspan> <tspan x="578.753" y="85.968" font-family="Montserrat-Bold, Montserrat" font-weight="bold">biscuits</tspan> <tspan x="631.624" y="85.968">&quot;</tspan>
                </text>
                <text fill="#1E3D49" font-family="Montserrat-Regular, Montserrat" font-size="11">
                    <tspan x="193.622" y="37.668">bisiut</tspan>
                </text>
            </g>
        </g>
    </g>
</svg>
