<svg width="822" height="474" xmlns="http://www.w3.org/2000/svg" xmlns:xlink="http://www.w3.org/1999/xlink"><defs><linearGradient x1="50%" y1="16.275%" x2="50%" y2="74.833%" id="j"><stop stop-color="#FFF" stop-opacity="0" offset="0%"/><stop stop-color="#FFF" offset="100%"/></linearGradient><linearGradient x1="50%" y1="19.427%" x2="50%" y2="76.732%" id="k"><stop stop-color="#FFF" stop-opacity="0" offset="0%"/><stop stop-color="#FFF" offset="100%"/></linearGradient><linearGradient x1="50%" y1="22.939%" x2="50%" y2="76.732%" id="l"><stop stop-color="#FFF" stop-opacity="0" offset="0%"/><stop stop-color="#FFF" offset="100%"/></linearGradient><filter x="-20.3%" y="-12.6%" width="140.6%" height="123.9%" filterUnits="objectBoundingBox" id="b"><feOffset dy="-2" in="SourceAlpha" result="shadowOffsetOuter1"/><feGaussianBlur stdDeviation="12" in="shadowOffsetOuter1" result="shadowBlurOuter1"/><feColorMatrix values="0 0 0 0 0.141176471 0 0 0 0 0.235294118 0 0 0 0 0.278431373 0 0 0 0.1 0" in="shadowBlurOuter1"/></filter><filter x="-20.3%" y="-12.6%" width="140.6%" height="123.9%" filterUnits="objectBoundingBox" id="e"><feOffset dy="-2" in="SourceAlpha" result="shadowOffsetOuter1"/><feGaussianBlur stdDeviation="12" in="shadowOffsetOuter1" result="shadowBlurOuter1"/><feColorMatrix values="0 0 0 0 0.141176471 0 0 0 0 0.235294118 0 0 0 0 0.278431373 0 0 0 0.1 0" in="shadowBlurOuter1"/></filter><filter x="-20.3%" y="-12.6%" width="140.6%" height="123.9%" filterUnits="objectBoundingBox" id="h"><feOffset dy="-2" in="SourceAlpha" result="shadowOffsetOuter1"/><feGaussianBlur stdDeviation="12" in="shadowOffsetOuter1" result="shadowBlurOuter1"/><feColorMatrix values="0 0 0 0 0.141176471 0 0 0 0 0.235294118 0 0 0 0 0.278431373 0 0 0 0.1 0" in="shadowBlurOuter1"/></filter><rect id="a" x="0" y="0" width="182.055" height="310" rx="8.93"/><rect id="d" x="0" y="0" width="182.055" height="310" rx="8.93"/><rect id="g" x="0" y="0" width="182.055" height="310" rx="8.93"/></defs><g fill="none" fill-rule="evenodd"><rect stroke="#000A0D" stroke-width="18" fill="#243C47" x="52" y="167" width="695" height="345" rx="18"/><g transform="translate(106 116)"><mask id="c" fill="#fff"><use xlink:href="#a"/></mask><use fill="#000" filter="url(#b)" xlink:href="#a"/><use fill="#FFF" xlink:href="#a"/><g mask="url(#c)"><g transform="translate(-21.418 85.863)"><ellipse fill="#FDCB5B" cx="101.29" cy="62.955" rx="60.239" ry="60.276"/><ellipse fill="#80C0A1" cx="182.055" cy="25.45" rx="26.773" ry="25.45"/><ellipse fill="#80C0A1" cx="203.473" cy="71.438" rx="20.526" ry="20.538"/><ellipse fill="#D44A6F" cx="171.792" cy="109.39" rx="17.402" ry="17.413"/><ellipse fill="#FDCB5B" cx="45.514" cy="136.179" rx="26.773" ry="25.45"/><ellipse fill="#FDCB5B" cx="17.402" cy="90.637" rx="17.402" ry="17.413"/></g></g><g transform="translate(203.473)"><mask id="f" fill="#fff"><use xlink:href="#d"/></mask><use fill="#000" filter="url(#e)" xlink:href="#d"/><use fill="#FFF" xlink:href="#d"/><g mask="url(#f)"><g transform="translate(-121.37 50.144)"><rect width="353.4" height="197.348" rx="14.833"/><g transform="translate(69.197 39.47)"><path d="M35.316 12.23 56.35 45.403a39.554 39.554 0 0 1 6.15 21.182v91.189" stroke="#53B9C9" stroke-width="2.472"/><path d="m24.713 44.299 21.09 21.942a39.554 39.554 0 0 1 11.038 27.41v64.123" stroke="#0086B2" stroke-width="2.472"/><path d="m7.414 68.967 23.365 14.548a39.554 39.554 0 0 1 18.648 33.578v40.68" stroke="#CFD4D7" stroke-width="2.472"/><ellipse fill="#CFD4D7" cx="29.656" cy="7.401" rx="7.414" ry="7.401"/><ellipse fill="#CFD4D7" cx="17.299" cy="37.003" rx="9.885" ry="9.867"/><ellipse fill="#CFD4D7" cx="4.943" cy="66.605" rx="4.943" ry="4.934"/></g><g transform="matrix(-1 0 0 1 287.391 39.47)"><path d="M35.316 12.23 56.35 45.403a39.554 39.554 0 0 1 6.15 21.182v91.189" stroke="#FDCB5B" stroke-width="2.472"/><path d="m24.713 44.299 21.09 21.942a39.554 39.554 0 0 1 11.038 27.41v64.123" stroke="#D44A6F" stroke-width="2.472"/><path d="m7.414 68.967 23.365 14.548a39.554 39.554 0 0 1 18.648 33.578v40.68" stroke="#8B6391" stroke-width="2.472"/><ellipse fill="#CFD4D7" cx="29.656" cy="7.401" rx="7.414" ry="7.401"/><ellipse fill="#CFD4D7" cx="17.299" cy="37.003" rx="9.885" ry="9.867"/><ellipse fill="#CFD4D7" cx="4.943" cy="66.605" rx="4.943" ry="4.934"/></g><g stroke="#243C47" stroke-width="2.472"><path d="m177.936 93.74-14.083 20.649a39.554 39.554 0 0 0-6.876 22.286v60.568"/><path d="m177.936 93.74-8.732 24.231a39.554 39.554 0 0 0-2.342 13.41v65.862M179.219 93.74 193.3 114.39a39.554 39.554 0 0 1 6.877 22.286v60.568"/><path d="m179.219 93.74 8.731 24.231a39.554 39.554 0 0 1 2.342 13.41v65.862"/><path stroke-linecap="square" d="M178.554 94.973v101.141"/></g><ellipse fill="#243C47" cx="177.936" cy="83.873" rx="9.885" ry="9.867"/><rect fill="#CFD4D7" x="46.955" y="41.936" width="34.599" height="7.401" rx="3.7"/><rect fill="#CFD4D7" x="274.317" y="41.936" width="34.599" height="7.401" rx="3.7"/><rect fill="#CFD4D7" x="27.185" y="71.539" width="42.013" height="7.401" rx="3.7"/><rect fill="#CFD4D7" x="289.145" y="71.539" width="42.013" height="7.401" rx="3.7"/><rect fill="#CFD4D7" x="27.185" y="102.374" width="34.599" height="7.401" rx="3.7"/><rect fill="#CFD4D7" x="296.559" y="102.374" width="34.599" height="7.401" rx="3.7"/></g></g></g><g transform="translate(406.945)"><mask id="i" fill="#fff"><use xlink:href="#g"/></mask><use fill="#000" filter="url(#h)" xlink:href="#g"/><use fill="#FFF" xlink:href="#g"/><g mask="url(#i)"><path d="M-34.805 179.207c28.878 1.238 50.803 1.238 65.776 0 32.584-2.694 46.32-36.703 60.056-37.296 23.058-.995 26.617 37.296 60.056 37.296 31.795 0 33.269-74.592 54.337-74.592h11.44v31.558c-6.595-2.745-10.408-2.745-11.44 0-17.733 47.167-34.111 74.592-54.337 74.592-30.41 0-43.988-37.296-60.055-37.296-15.633 0-29.76 37.296-60.057 37.296h-65.776v-31.558Z" fill="#243C47" opacity=".06"/><path d="M-34.805 141.911c7.96 1.312 14.263.216 18.912-3.286 20.941-15.78 31.218-34.01 47.539-34.01 38.524 0 25.778 38.67 59.381 37.296 32.967-1.347 26.482-37.296 59.382-37.296 27.137 0 30.229 19.333 52.312 34.992 3.886 2.756 8.6 3.524 14.138 2.304v31.558h-11.44c-16.625 0-13.795-37.296-55.01-37.296-29.839 0-25.614 37.296-59.382 37.296-33.767 0-29.815-37.296-59.381-37.296-18.151 0-25.396 16.989-50.28 35.467-2.719 2.019-8.109 2.629-16.17 1.83V141.91Z" fill="#FDCB5B" opacity=".25"/><g transform="translate(-34.805 141.911)"><rect fill="#243C47" width="11.439" height="31.558" rx=".858"/><rect fill="#BBC3C6" y="37.296" width="11.439" height="31.558" rx=".858"/><rect fill="#BBC3C6" y="74.592" width="11.439" height="31.558" rx=".858"/></g><g transform="translate(25.252 104.615)"><rect fill="#FDCB5B" width="11.439" height="31.558" rx=".858"/><rect fill="#BBC3C6" y="37.296" width="11.439" height="31.558" rx=".858"/><rect fill="#BBC3C6" y="74.592" width="11.439" height="31.558" rx=".858"/><rect fill="#BBC3C6" y="111.887" width="11.439" height="31.558" rx=".858"/></g><g transform="translate(85.308 141.911)"><rect fill="#FDCB5B" width="11.439" height="31.558" rx=".858"/><rect fill="#BBC3C6" y="37.296" width="11.439" height="31.558" rx=".858"/><rect fill="#BBC3C6" y="74.592" width="11.439" height="31.558" rx=".858"/></g><g transform="translate(145.364 104.615)"><rect fill="#FDCB5B" width="11.439" height="31.558" rx=".858"/><rect fill="#BBC3C6" y="37.296" width="11.439" height="31.558" rx=".858"/><rect fill="#BBC3C6" y="74.592" width="11.439" height="31.558" rx=".858"/><rect fill="#BBC3C6" y="111.887" width="11.439" height="31.558" rx=".858"/></g><g transform="translate(205.42 104.615)"><rect fill="#BBC3C6" width="11.439" height="31.558" rx=".858"/><rect fill="#243C47" y="37.296" width="11.439" height="31.558" rx=".858"/><rect fill="#BBC3C6" y="74.592" width="11.439" height="31.558" rx=".858"/><rect fill="#BBC3C6" y="111.887" width="11.439" height="31.558" rx=".858"/></g><path d="M-34.805 216.503c9.866-19.436 17.396-32.824 22.59-40.165 14.1-19.928 24.144-34.427 43.186-34.427 31.586 0 32.79 74.592 54.337 74.592h11.439c17.545 0 27.19.914 54.336 0 12.301-.414 34.227-.414 65.776 0v31.558c-31.24-.354-53.164-.354-65.776 0-26.006.729-36.653 0-54.336 0h-11.44c-30.939 0-24.923-74.592-54.336-74.592-30.228 0-34.7 14.542-46.675 43.034-2.714 6.457-5.268 16.977-7.661 31.558-7.626.445-11.44.227-11.44-.653v-30.905Z" fill="#243C47" opacity=".06"/></g></g><rect fill="url(#j)" y="43" width="182.055" height="267" rx="8.93"/><rect fill="url(#k)" x="203.473" y="43" width="182.055" height="267" rx="8.93"/><text font-family="Montserrat-Medium, Montserrat" font-size="10.716" font-weight="400" fill="#243C47">
                <tspan x="220.429" y="292.318">ORIGINS</tspan>
            </text><rect fill="url(#l)" x="406.945" y="43" width="182.055" height="267" rx="8.93"/><text font-family="Montserrat-Medium, Montserrat" font-size="10.716" font-weight="400" fill="#243C47">
                <tspan x="423.902" y="292.318">TERMS</tspan>
            </text><text font-family="Montserrat-Medium, Montserrat" font-size="10.716" font-weight="400" fill="#243C47">
                <tspan x="17.361" y="292.318">NOW</tspan>
            </text></g><text font-family="Montserrat-Regular, Montserrat" font-size="18" fill="#1E3D49">
            <tspan x="356.836" y="62.625">INSIGHTS</tspan>
        </text><path d="M345.08 56.125v1H213.027c-8.454 0-15.328 6.769-15.497 15.183l-.003.317v31.411l3.564-6.336.872.49-4.5 8-.436.775-.436-.775-4.5-8 .872-.49 3.564 6.336V72.625c0-9.006 7.215-16.326 16.18-16.497l.32-.003H345.08ZM455.027 56.125v1H587.08c8.455 0 15.328 6.769 15.497 15.183l.003.317v31.411l-3.564-6.336-.872.49 4.5 8 .436.775.436-.775 4.5-8-.872-.49-3.564 6.336V72.625c0-9.006-7.214-16.326-16.18-16.497l-.32-.003H455.027ZM399 71v33.091l3.564-6.336.245-.436.872.49-.245.436-4.5 8-.436.775-.436-.775-4.5-8-.245-.436.872-.49.245.436L398 104.09V71h1Z" fill="#243C47" fill-rule="nonzero"/></g></svg>