<?xml version="1.0" encoding="UTF-8"?>
<svg width="766px" height="466px" viewBox="0 0 766 466" version="1.1" xmlns="http://www.w3.org/2000/svg" xmlns:xlink="http://www.w3.org/1999/xlink">
    <title>illustration/next_queries/access_edition</title>
    <g id="illustration/next_queries/access_edition" stroke="none" stroke-width="1" fill="none" fill-rule="evenodd">
        <rect fill="#FFFFFF" x="0" y="0" width="766" height="466"></rect>
        <g id="Group-9">
            <rect id="Rectangle-Copy-18" fill="#CFD4D7" x="13.1764706" y="16" width="738.647059" height="433"></rect>
            <rect id="Rectangle" stroke="#202020" stroke-width="21" x="10.5" y="10.5" width="745" height="445" rx="28"></rect>
            <text id="Next-Queries" font-family="Montserrat-Regular, Montserrat" font-size="26" font-weight="normal" fill="#1E3D49">
                <tspan x="284.928" y="69">NEXT QUERIES</tspan>
            </text>
            <g id="Group-8" transform="translate(54.000000, 105.000000)">
                <rect id="Rectangle-Copy-2" fill="#FFFFFF" x="0" y="0" width="660" height="306" rx="10"></rect>
                <g id="Group-4-Copy" transform="translate(444.762699, 265.237301)">
                    <g id="Group-2" transform="translate(12.057024, 10.819724) rotate(-180.000000) translate(-12.057024, -10.819724) " fill="#80C0A1">
                        <polyline id="Path-2" transform="translate(1.633166, 11.366524) rotate(-180.000000) translate(-1.633166, -11.366524) " points="-1.64736751e-12 8.10019242 -1.64736751e-12 14.6328557 3.26633166 11.3665241"></polyline>
                        <path d="M6.47460141,0 L20.1140486,0 C22.3231876,-4.05812251e-16 24.1140486,1.790861 24.1140486,4 L24.1140486,17.6394472 C24.1140486,19.8485862 22.3231876,21.6394472 20.1140486,21.6394472 L6.47460141,21.6394472 C4.26546241,21.6394472 2.47460141,19.8485862 2.47460141,17.6394472 L2.47460141,11.1932664 L2.47460141,11.1932664 L2.47460141,4 C2.47460141,1.790861 4.26546241,4.05812251e-16 6.47460141,0 Z" id="Rectangle"></path>
                    </g>
                    <text id="C" font-family="Montserrat-Regular, Montserrat" font-size="13" font-weight="normal" fill="#FFFFFF">
                        <tspan x="6.61970191" y="15.0031407">C</tspan>
                    </text>
                </g>
                <rect id="Rectangle" fill="#E2E6E7" opacity="0.2992234" x="19.9241071" y="56.1875" width="620.8125" height="39.1875"></rect>
                <rect id="Rectangle-Copy-15" fill="#8E9EA4" opacity="0.498093378" x="19.9241071" y="133.375" width="620.8125" height="38"></rect>
                <text id="Query" font-family="Montserrat-SemiBold, Montserrat" font-size="10" font-weight="500" fill="#8E9EA4">
                    <tspan x="91.0803571" y="78.59375">Query</tspan>
                </text>
                <text id="sandal" font-family="Montserrat-Regular, Montserrat" font-size="10" font-weight="normal" fill="#1E3D49">
                    <tspan x="91" y="116">sandal</tspan>
                </text>
                <rect id="Rectangle-Copy" stroke="#BBC3C6" stroke-width="2" x="36" y="108" width="11" height="11" rx="1"></rect>
                <line x1="20.5157546" y1="133.5" x2="640.5" y2="133.5" id="Line" stroke="#E2E6E7" stroke-linecap="square"></line>
                <g id="Group" transform="translate(165.000000, 112.000000)" fill="#E2E6E7">
                    <rect id="Rectangle" x="0" y="0" width="47" height="4" rx="2"></rect>
                    <rect id="Rectangle" x="0" y="38" width="47" height="4" rx="2"></rect>
                    <rect id="Rectangle" x="0" y="76" width="47" height="4" rx="2"></rect>
                    <rect id="Rectangle" x="0" y="115" width="47" height="4" rx="2"></rect>
                </g>
                <g id="Group-3" transform="translate(262.000000, 112.000000)" fill="#E2E6E7">
                    <rect id="Rectangle-Copy-3" x="0" y="0" width="47" height="4" rx="2"></rect>
                    <rect id="Rectangle-Copy-9" x="0" y="39" width="47" height="4" rx="2"></rect>
                    <rect id="Rectangle-Copy-10" x="0" y="76" width="47" height="4" rx="2"></rect>
                    <rect id="Rectangle-Copy-11" x="0" y="115" width="47" height="4" rx="2"></rect>
                </g>
                <g id="Group-4" transform="translate(361.000000, 112.000000)" fill="#E2E6E7">
                    <rect id="Rectangle-Copy-4" x="0" y="0" width="47" height="4" rx="2"></rect>
                    <rect id="Rectangle-Copy-12" x="0" y="39" width="47" height="4" rx="2"></rect>
                    <rect id="Rectangle-Copy-13" x="0" y="76" width="47" height="4" rx="2"></rect>
                    <rect id="Rectangle-Copy-14" x="0" y="115" width="47" height="4" rx="2"></rect>
                </g>
                <g id="Group-5" transform="translate(464.000000, 112.000000)" fill="#E2E6E7">
                    <rect id="Rectangle-Copy-5" x="0" y="0" width="47" height="4" rx="2"></rect>
                    <rect id="Rectangle-Copy-5" x="0" y="38" width="47" height="4" rx="2"></rect>
                    <rect id="Rectangle-Copy-5" x="0" y="76" width="47" height="4" rx="2"></rect>
                    <rect id="Rectangle-Copy-5" x="0" y="115" width="47" height="4" rx="2"></rect>
                </g>
                <g id="Group-6" transform="translate(567.000000, 112.000000)" fill="#E2E6E7">
                    <rect id="Rectangle-Copy-6" x="0" y="0" width="47" height="4" rx="2"></rect>
                    <rect id="Rectangle-Copy-6" x="0" y="38" width="47" height="4" rx="2"></rect>
                    <rect id="Rectangle-Copy-6" x="0" y="76" width="47" height="4" rx="2"></rect>
                    <rect id="Rectangle-Copy-6" x="0" y="115" width="47" height="4" rx="2"></rect>
                </g>
                <text id="jeans" font-family="Montserrat-Regular, Montserrat" font-size="10" font-weight="normal" fill="#1E3D49">
                    <tspan x="91" y="154">jeans</tspan>
                </text>
                <rect id="Rectangle-Copy" fill="#1E3D49" x="35" y="145" width="13" height="13" rx="1"></rect>
                <polyline id="Path-30" stroke="#FFFFFF" stroke-width="1.5" stroke-linecap="round" stroke-linejoin="round" points="45 150 40.625 154 38 151.6"></polyline>
                <line x1="20.5157546" y1="171.5" x2="640.5" y2="171.5" id="Line" stroke="#E2E6E7" stroke-linecap="square"></line>
                <text id="t-shirt" font-family="Montserrat-Regular, Montserrat" font-size="10" font-weight="normal" fill="#1E3D49">
                    <tspan x="91" y="192">t-shirt</tspan>
                </text>
                <rect id="Rectangle-Copy" stroke="#BBC3C6" stroke-width="2" x="36" y="184" width="11" height="11" rx="1"></rect>
                <line x1="20.5157546" y1="208.5" x2="641.484245" y2="208.5" id="Line" stroke="#E2E6E7" stroke-linecap="square"></line>
                <text id="shoes" font-family="Montserrat-Regular, Montserrat" font-size="10" font-weight="normal" fill="#1E3D49">
                    <tspan x="91" y="231">shoes</tspan>
                </text>
                <rect id="Rectangle-Copy" stroke="#BBC3C6" stroke-width="2" x="36" y="223" width="11" height="11" rx="1"></rect>
                <line x1="20.5157546" y1="247.5" x2="641.484245" y2="247.5" id="Line" stroke="#E2E6E7" stroke-linecap="square"></line>
                <rect id="Rectangle-Copy-7" stroke="#D44A6F" x="17.5" y="260.5" width="89" height="30" rx="9"></rect>
                <rect id="Rectangle-Copy-8" stroke="#80C0A1" x="474.5" y="260.5" width="168" height="30" rx="9"></rect>
                <g id="Group-4-Copy-4" transform="translate(125.057024, 275.819724) rotate(-270.000000) translate(-125.057024, -275.819724) translate(114.237301, 263.762699)">
                    <g id="Group-2" transform="translate(10.819724, 12.057024) rotate(-90.000000) translate(-10.819724, -12.057024) translate(-1.237301, 1.237301)" fill="#D44A6F">
                        <polyline id="Path-2" transform="translate(1.633166, 11.366524) rotate(-180.000000) translate(-1.633166, -11.366524) " points="-3.44634095e-13 8.10019242 -3.44634095e-13 14.6328557 3.26633166 11.3665241"></polyline>
                        <path d="M6.47460141,0 L20.1140486,0 C22.3231876,-4.05812251e-16 24.1140486,1.790861 24.1140486,4 L24.1140486,17.6394472 C24.1140486,19.8485862 22.3231876,21.6394472 20.1140486,21.6394472 L6.47460141,21.6394472 C4.26546241,21.6394472 2.47460141,19.8485862 2.47460141,17.6394472 L2.47460141,11.1932664 L2.47460141,11.1932664 L2.47460141,4 C2.47460141,1.790861 4.26546241,4.05812251e-16 6.47460141,0 Z" id="Rectangle"></path>
                    </g>
                    <text id="B" transform="translate(10.057024, 12.240441) rotate(-90.000000) translate(-10.057024, -12.240441) " font-family="Montserrat-Regular, Montserrat" font-size="13" font-weight="normal" fill="#FFFFFF">
                        <tspan x="6.38240121" y="17.2404414">B</tspan>
                    </text>
                </g>
                <path d="M24.9241071,17 L635.736607,17 C638.498031,17 640.736607,19.2385763 640.736607,22 L640.736607,55.1875 C640.736607,55.7397847 640.288892,56.1875 639.736607,56.1875 L20.9241071,56.1875 C20.3718224,56.1875 19.9241071,55.7397847 19.9241071,55.1875 L19.9241071,22 C19.9241071,19.2385763 22.1626834,17 24.9241071,17 Z" id="Rectangle-Copy-21" fill="#243C47"></path>
                <text id="CLEAR-SELECTION-(-1" font-family="Montserrat-SemiBold, Montserrat" font-size="11" font-weight="500" fill="#FFFFFF">
                    <tspan x="41.5803571" y="40.375">CLEAR SELECTION ( 1 )</tspan>
                </text>
                <text id="10" font-family="Montserrat-SemiBold, Montserrat" font-size="11" font-weight="500" fill="#1E3D49">
                    <tspan x="32" y="277">10</tspan>
                </text>
                <text id="1---10-of-11" font-family="Montserrat-SemiBold, Montserrat" font-size="11" font-weight="500" fill="#1E3D49">
                    <tspan x="490" y="279">1 - 10 of 11</tspan>
                </text>
                <text id="rows" font-family="Montserrat-SemiBold, Montserrat" font-size="11" font-weight="500" fill="#1E3D49">
                    <tspan x="64" y="277">rows</tspan>
                </text>
                <text id="Curated" font-family="Montserrat-SemiBold, Montserrat" font-size="10" font-weight="500" fill="#8E9EA4">
                    <tspan x="166.361607" y="78.59375">Curated</tspan>
                </text>
                <text id="Inactive" font-family="Montserrat-SemiBold, Montserrat" font-size="10" font-weight="500" fill="#8E9EA4">
                    <tspan x="261.986607" y="78.59375">Inactive</tspan>
                </text>
                <text id="Total-Organic" font-family="Montserrat-SemiBold, Montserrat" font-size="10" font-weight="500" fill="#8E9EA4">
                    <tspan x="348.705357" y="78.59375">Total Organic</tspan>
                </text>
                <text id="Updated-on" font-family="Montserrat-SemiBold, Montserrat" font-size="10" font-weight="500" fill="#8E9EA4">
                    <tspan x="457.174107" y="78.59375">Updated on</tspan>
                </text>
                <text id="Updated-by" font-family="Montserrat-SemiBold, Montserrat" font-size="10" font-weight="500" fill="#8E9EA4">
                    <tspan x="560.392857" y="78.59375">Updated by</tspan>
                </text>
                <rect id="Rectangle" stroke="#BBC3C6" stroke-width="2" x="36.3928571" y="69.625" width="11.40625" height="11.40625" rx="1"></rect>
                <g id="Group" transform="translate(609.000000, 263.000000)">
                    <g id="ic_navigate_next_48px" transform="translate(12.000000, 12.000000) rotate(-270.000000) translate(-12.000000, -12.000000) ">
                        <g id="Group" transform="translate(-0.000000, -0.000000)">
                            <path d="M12,8.41500002 L16.585,13 L18,11.585 L12,5.58500001 L6.00000001,11.585 L7.41500002,13 L12,8.41500002 Z M6.00000001,18 L18,18 L18,16 L6.00000001,16 L6.00000001,18 Z" id="Shape" fill="#8E9EA4" fill-rule="nonzero"></path>
                            <polygon id="Path" points="0 0 24 0 24 24 0 24"></polygon>
                        </g>
                    </g>
                </g>
                <g id="Group-2" opacity="0.397484189" transform="translate(565.000000, 275.000000) scale(-1, 1) translate(-565.000000, -275.000000) translate(547.000000, 263.000000)">
                    <g id="Group" transform="translate(12.000000, 0.000000)">
                        <g id="ic_navigate_next_48px-copy" transform="translate(12.000000, 12.000000) rotate(-270.000000) translate(-12.000000, -12.000000) ">
                            <g id="Group" transform="translate(-0.000000, -0.000000)">
                                <path d="M12,8.41500002 L16.585,13 L18,11.585 L12,5.58500001 L6.00000001,11.585 L7.41500002,13 L12,8.41500002 Z M6.00000001,18 L18,18 L18,16 L6.00000001,16 L6.00000001,18 Z" id="Shape" fill="#BBC3C6" fill-rule="nonzero"></path>
                                <polygon id="Path" points="0 0 24 0 24 24 0 24"></polygon>
                            </g>
                        </g>
                    </g>
                    <polygon id="Path-Copy" fill="#BBC3C6" fill-rule="nonzero" transform="translate(3.707500, 12.000000) rotate(-270.000000) translate(-3.707500, -12.000000) " points="3.70750001 11.1225 8.29250002 15.7075 9.70750002 14.2925 3.70750001 8.29249999 -2.2925 14.2925 -0.877500002 15.7075"></polygon>
                </g>
                <polygon id="Path" fill="#8E9EA4" fill-rule="nonzero" transform="translate(600.707500, 275.000000) rotate(-270.000000) translate(-600.707500, -275.000000) " points="600.7075 274.1225 605.2925 278.7075 606.7075 277.2925 600.7075 271.2925 594.7075 277.2925 596.1225 278.7075"></polygon>
                <polygon id="Triangle" fill="#1E3D49" transform="translate(52.052736, 273.230732) rotate(-180.000000) translate(-52.052736, -273.230732) " points="52.052736 271 55.105472 275.461464 49 275.461464"></polygon>
                <line x1="32.5" y1="283.5" x2="55.5" y2="283.5" id="Line-7" stroke="#BBC3C6" stroke-linecap="square"></line>
                <g id="01_icon/48/delete_48px" transform="translate(598.000000, 24.000000)" fill="#FFFFFF">
                    <path d="M16.8981481,9.02777778 L16.8981481,20.6018519 L7.63888889,20.6018519 L7.63888889,9.02777778 L16.8981481,9.02777778 M15.162037,2.08333333 L9.375,2.08333333 L8.21759259,3.24074074 L4.16666667,3.24074074 L4.16666667,5.55555556 L20.3703704,5.55555556 L20.3703704,3.24074074 L16.3194444,3.24074074 L15.162037,2.08333333 Z M19.212963,6.71296296 L5.32407407,6.71296296 L5.32407407,20.6018519 C5.32407407,21.875 6.36574074,22.9166667 7.63888889,22.9166667 L16.8981481,22.9166667 C18.1712963,22.9166667 19.212963,21.875 19.212963,20.6018519 L19.212963,6.71296296 Z" id="Shape"></path>
                </g>
                <g id="Group-7" transform="translate(562.767857, 22.156250)">
                    <circle id="Oval" fill="#000000" opacity="0.802106585" cx="14.4375" cy="14.4375" r="14.4375"></circle>
                    <g id="01_icon/48/edit_1" transform="translate(4.232143, 3.843750)" fill="#FFFFFF">
                        <path d="M1.75,15.6041667 L1.75,19.25 L5.39532704,19.25 L16.1466116,8.49722222 L12.5012845,4.85138889 L1.75,15.6041667 Z M4.58849465,17.3055556 L3.69417442,17.3055556 L3.69417442,16.4111111 L12.5012845,7.60277778 L13.3956048,8.49722222 L4.58849465,17.3055556 Z M18.9656645,4.30694444 L16.6909804,2.03194444 C16.496563,1.8375 16.2535412,1.75 16.0007985,1.75 C15.7480558,1.75 15.505034,1.84722222 15.3203375,2.03194444 L13.5414179,3.81111111 L17.1867449,7.45694444 L18.9656645,5.67777778 C19.3447785,5.29861111 19.3447785,4.68611111 18.9656645,4.30694444 Z" id="Shape"></path>
                    </g>
                </g>
                <rect id="Rectangle-Copy" stroke="#FDCB5B" x="554.049107" y="21.625" width="76" height="30.96875" rx="8"></rect>
                <g id="Group-4-Copy-5" transform="translate(535.675697, 36.652556) rotate(-270.000000) translate(-535.675697, -36.652556) translate(524.517857, 24.218750)">
                    <g id="Group-2" transform="translate(10.505284, 12.109503) scale(-1, 1) rotate(-270.000000) translate(-10.505284, -12.109503) translate(-1.494716, 1.109503)" fill="#FDCB5B">
                        <polyline id="Path-2" transform="translate(1.625442, 11.555911) rotate(-180.000000) translate(-1.625442, -11.555911) " points="0 8.23515644 0 14.8766659 3.25088337 11.5559112"></polyline>
                        <path d="M6.46289766,1.84929709e-12 L20,1.84929709e-12 C22.209139,1.84889128e-12 24,1.790861 24,4 L24,18 C24,20.209139 22.209139,22 20,22 L6.46289766,22 C4.25375866,22 2.46289766,20.209139 2.46289766,18 L2.46289766,11.3797667 L2.46289766,11.3797667 L2.46289766,4 C2.46289766,1.790861 4.25375866,1.84970291e-12 6.46289766,1.84929709e-12 Z" id="Rectangle"></path>
                    </g>
                    <text id="A" transform="translate(10.505284, 14.609503) rotate(-90.000000) translate(-10.505284, -14.609503) " font-family="Montserrat-Regular, Montserrat" font-size="13" font-weight="normal" fill="#FFFFFF">
                        <tspan x="7.00528365" y="19.6095035">A</tspan>
                    </text>
                </g>
            </g>
        </g>
    </g>
</svg>