<?xml version="1.0" encoding="UTF-8"?>
<svg width="766px" height="466px" viewBox="0 0 766 466" version="1.1" xmlns="http://www.w3.org/2000/svg" xmlns:xlink="http://www.w3.org/1999/xlink">
    <title>illustration/next_queries/edition 2</title>
    <g id="illustration/next_queries/edition-2" stroke="none" stroke-width="1" fill="none" fill-rule="evenodd">
        <rect fill="#FFFFFF" x="0" y="0" width="766" height="466"></rect>
        <g id="Group-11">
            <rect id="Rectangle-Copy-18" fill="#CFD4D7" x="13.1764706" y="16" width="738.647059" height="433"></rect>
            <text id="Next-Queries" font-family="Montserrat-Regular, Montserrat" font-size="26" font-weight="normal" fill="#1E3D49">
                <tspan x="284.928" y="69">NEXT QUERIES</tspan>
            </text>
            <g id="Group-10" transform="translate(53.000000, 106.000000)">
                <rect id="Rectangle-Copy-2" fill="#FFFFFF" x="0" y="0" width="660" height="306" rx="10"></rect>
                <g id="Group-2" transform="translate(271.000000, 190.000000)" fill="#FFFFFF" stroke="#C9C9C9">
                    <rect id="Rectangle" x="0.5" y="0.5" width="83" height="19" rx="9.5"></rect>
                </g>
                <text id="jewelry" font-family="Montserrat-Regular, Montserrat" font-size="11" font-weight="normal" fill="#000000">
                    <tspan x="284" y="203">jewelry</tspan>
                </text>
                <g id="Group" transform="translate(335.000000, 196.000000)" stroke="#8E9EA4" stroke-linecap="round" stroke-linejoin="round" stroke-width="1.84300311">
                    <g id="Icon/Search-Copy-5" transform="translate(4.000000, 4.000000) rotate(-90.000000) translate(-4.000000, -4.000000) ">
                        <path d="M1.33333333,6.66666667 L6.66666667,1.33333333 M6.66666667,6.66666667 L1.33333333,1.33333333" id="Combined-Shape"></path>
                    </g>
                </g>
                <g id="Group-8" transform="translate(108.000000, 190.000000)">
                    <rect id="Rectangle" stroke="#C9C9C9" fill="#FFFFFF" x="0.5" y="0.5" width="77" height="19" rx="9.5"></rect>
                    <text id="t-shirt" font-family="Montserrat-Regular, Montserrat" font-size="11" font-weight="normal" fill="#000000">
                        <tspan x="15" y="13">t-shirt</tspan>
                    </text>
                    <g id="Group" transform="translate(59.000000, 6.000000)" stroke="#8E9EA4" stroke-linecap="round" stroke-linejoin="round" stroke-width="1.84300311">
                        <g id="Icon/Search-Copy-5" transform="translate(4.000000, 4.000000) rotate(-90.000000) translate(-4.000000, -4.000000) ">
                            <path d="M1.33333333,6.66666667 L6.66666667,1.33333333 M6.66666667,6.66666667 L1.33333333,1.33333333" id="Combined-Shape"></path>
                        </g>
                    </g>
                </g>
                <g id="Group-8-Copy" transform="translate(193.000000, 190.000000)">
                    <rect id="Rectangle" stroke="#C9C9C9" fill="#FFFFFF" x="0.5" y="0.5" width="70" height="19" rx="9.5"></rect>
                    <text id="shirt" font-family="Montserrat-Regular, Montserrat" font-size="11" font-weight="normal" fill="#000000">
                        <tspan x="15" y="13">shirt</tspan>
                    </text>
                    <g id="Group" transform="translate(50.000000, 6.000000)" stroke="#8E9EA4" stroke-linecap="round" stroke-linejoin="round" stroke-width="1.84300311">
                        <g id="Icon/Search-Copy-5" transform="translate(4.000000, 4.000000) rotate(-90.000000) translate(-4.000000, -4.000000) ">
                            <path d="M1.33333333,6.66666667 L6.66666667,1.33333333 M6.66666667,6.66666667 L1.33333333,1.33333333" id="Combined-Shape"></path>
                        </g>
                    </g>
                </g>
                <g id="Group-4" transform="translate(158.895083, 72.000000)">
                    <g id="Group" opacity="0.626521519">
                        <g id="gridProduct">
                            <rect id="Rectangle-Copy-13" fill="#E2E6E7" x="3.93929788e-13" y="0" width="78.6455902" height="92.0524646" rx="5"></rect>
                            <rect id="Rectangle" fill="#FFFFFF" x="7.59067224" y="6.32798201" width="63.4642457" height="49.7979548" rx="4.26584808"></rect>
                            <g id="faketitle" transform="translate(17.897170, 62.028664)" fill="#BBC3C6">
                                <rect id="Rectangle-Copy-10" x="0" y="0" width="40.6595372" height="6.2763044" rx="3.1381522"></rect>
                            </g>
                            <g id="fakecart" transform="translate(6.529457, 73.946184)" fill="#BBC3C6">
                                <rect id="Rectangle-Copy-10" x="0" y="0" width="63.3949616" height="11.7782989" rx="5.88914944"></rect>
                            </g>
                        </g>
                    </g>
                    <g id="Group-79-Copy" transform="translate(26.104917, 13.000000)" fill="#53B9C9">
                        <path d="M9.65908845,0 L22.519078,0 C23.0454173,-9.66869656e-17 23.4816603,0.407996229 23.5168416,0.933158452 L25.9285308,36.9331585 C25.9654464,37.4842081 25.5486584,37.960848 24.9976088,37.9977636 C24.9753594,37.9992541 24.9530664,38 24.9307672,38 L19.564932,38 C19.0911204,38 18.6823459,37.6674872 18.5858778,37.2036 L12.7282639,9.03601629 C12.7091689,8.94419375 12.6772515,8.85551398 12.6334499,8.77258376 L8.77484833,1.46703256 C8.51691337,0.978680232 8.70370355,0.373694846 9.19205588,0.115759883 C9.33599147,0.0397368593 9.4963096,-1.92142615e-16 9.65908845,0 Z" id="Path-69"></path>
                        <path d="M1.05676509,0 L9.30623887,0 C9.82010502,1.27648924e-16 10.2503274,0.389463187 10.3013058,0.900794416 L13.8904121,36.9007944 C13.9452018,37.4503547 13.544111,37.9402772 12.9945507,37.995067 C12.9615843,37.9983536 12.9284749,38 12.8953451,38 L7.44900729,38 C6.97636481,38 6.56826301,37.6690892 6.47059208,37.2066486 L0.507343486,8.97257504 C0.496801744,8.92266326 0.490094662,8.87201801 0.487280975,8.82108279 L0.0582873615,1.0551564 C0.027825321,0.503712382 0.450164663,0.0319843135 1.00160869,0.00152227307 C1.01997665,0.000507617541 1.03836912,-2.1866532e-16 1.05676509,0 Z" id="Path-69-Copy" transform="translate(7.000000, 19.000000) scale(-1, 1) translate(-7.000000, -19.000000) "></path>
                    </g>
                </g>
                <g id="Group-3" transform="translate(71.000000, 72.000000)">
                    <g id="Group" opacity="0.626521519">
                        <g id="gridProduct">
                            <rect id="Rectangle-Copy-13" fill="#E2E6E7" x="3.93929788e-13" y="0" width="78.6455902" height="92.0524646" rx="5"></rect>
                            <rect id="Rectangle" fill="#FFFFFF" x="7.59067224" y="6.32798201" width="63.4642457" height="49.7979548" rx="4.26584808"></rect>
                            <g id="faketitle" transform="translate(17.897170, 62.028664)" fill="#BBC3C6">
                                <rect id="Rectangle-Copy-10" x="0" y="0" width="40.6595372" height="6.2763044" rx="3.1381522"></rect>
                            </g>
                            <g id="fakecart" transform="translate(6.529457, 73.946184)" fill="#BBC3C6">
                                <rect id="Rectangle-Copy-10" x="0" y="0" width="63.3949616" height="11.7782989" rx="5.88914944"></rect>
                            </g>
                        </g>
                    </g>
                    <g id="Group-79" transform="translate(25.000000, 13.000000)" fill="#53B9C9">
                        <path d="M9.65908845,0 L22.519078,0 C23.0454173,-9.66869656e-17 23.4816603,0.407996229 23.5168416,0.933158452 L25.9285308,36.9331585 C25.9654464,37.4842081 25.5486584,37.960848 24.9976088,37.9977636 C24.9753594,37.9992541 24.9530664,38 24.9307672,38 L19.564932,38 C19.0911204,38 18.6823459,37.6674872 18.5858778,37.2036 L12.7282639,9.03601629 C12.7091689,8.94419375 12.6772515,8.85551398 12.6334499,8.77258376 L8.77484833,1.46703256 C8.51691337,0.978680232 8.70370355,0.373694846 9.19205588,0.115759883 C9.33599147,0.0397368593 9.4963096,-1.92142615e-16 9.65908845,0 Z" id="Path-69"></path>
                        <path d="M1.05676509,0 L9.30623887,0 C9.82010502,1.27648924e-16 10.2503274,0.389463187 10.3013058,0.900794416 L13.8904121,36.9007944 C13.9452018,37.4503547 13.544111,37.9402772 12.9945507,37.995067 C12.9615843,37.9983536 12.9284749,38 12.8953451,38 L7.44900729,38 C6.97636481,38 6.56826301,37.6690892 6.47059208,37.2066486 L0.507343486,8.97257504 C0.496801744,8.92266326 0.490094662,8.87201801 0.487280975,8.82108279 L0.0582873615,1.0551564 C0.027825321,0.503712382 0.450164663,0.0319843135 1.00160869,0.00152227307 C1.01997665,0.000507617541 1.03836912,-2.1866532e-16 1.05676509,0 Z" id="Path-69-Copy" transform="translate(7.000000, 19.000000) scale(-1, 1) translate(-7.000000, -19.000000) "></path>
                    </g>
                </g>
                <g id="Group-5" transform="translate(246.790167, 72.000000)">
                    <g id="Group" opacity="0.626521519">
                        <g id="gridProduct">
                            <rect id="Rectangle-Copy-13" fill="#E2E6E7" x="3.93929788e-13" y="0" width="78.6455902" height="92.0524646" rx="5"></rect>
                            <rect id="Rectangle" fill="#FFFFFF" x="7.59067224" y="6.32798201" width="63.4642457" height="49.7979548" rx="4.26584808"></rect>
                            <g id="faketitle" transform="translate(17.897170, 62.028664)" fill="#BBC3C6">
                                <rect id="Rectangle-Copy-10" x="0" y="0" width="40.6595372" height="6.2763044" rx="3.1381522"></rect>
                            </g>
                            <g id="fakecart" transform="translate(6.529457, 73.946184)" fill="#BBC3C6">
                                <rect id="Rectangle-Copy-10" x="0" y="0" width="63.3949616" height="11.7782989" rx="5.88914944"></rect>
                            </g>
                        </g>
                    </g>
                    <g id="Group-79-Copy-2" transform="translate(26.209833, 13.000000)" fill="#53B9C9">
                        <path d="M9.65908845,0 L22.519078,0 C23.0454173,-9.66869656e-17 23.4816603,0.407996229 23.5168416,0.933158452 L25.9285308,36.9331585 C25.9654464,37.4842081 25.5486584,37.960848 24.9976088,37.9977636 C24.9753594,37.9992541 24.9530664,38 24.9307672,38 L19.564932,38 C19.0911204,38 18.6823459,37.6674872 18.5858778,37.2036 L12.7282639,9.03601629 C12.7091689,8.94419375 12.6772515,8.85551398 12.6334499,8.77258376 L8.77484833,1.46703256 C8.51691337,0.978680232 8.70370355,0.373694846 9.19205588,0.115759883 C9.33599147,0.0397368593 9.4963096,-1.92142615e-16 9.65908845,0 Z" id="Path-69"></path>
                        <path d="M1.05676509,0 L9.30623887,0 C9.82010502,1.27648924e-16 10.2503274,0.389463187 10.3013058,0.900794416 L13.8904121,36.9007944 C13.9452018,37.4503547 13.544111,37.9402772 12.9945507,37.995067 C12.9615843,37.9983536 12.9284749,38 12.8953451,38 L7.44900729,38 C6.97636481,38 6.56826301,37.6690892 6.47059208,37.2066486 L0.507343486,8.97257504 C0.496801744,8.92266326 0.490094662,8.87201801 0.487280975,8.82108279 L0.0582873615,1.0551564 C0.027825321,0.503712382 0.450164663,0.0319843135 1.00160869,0.00152227307 C1.01997665,0.000507617541 1.03836912,-2.1866532e-16 1.05676509,0 Z" id="Path-69-Copy" transform="translate(7.000000, 19.000000) scale(-1, 1) translate(-7.000000, -19.000000) "></path>
                    </g>
                </g>
                <g id="Group" transform="translate(334.685250, 72.000000)" opacity="0.626521519">
                    <g id="gridProduct">
                        <rect id="Rectangle-Copy-13" fill="#E2E6E7" x="3.93929788e-13" y="0" width="78.6455902" height="92.0524646" rx="5"></rect>
                        <rect id="Rectangle" fill="#FFFFFF" x="7.59067224" y="6.32798201" width="63.4642457" height="49.7979548" rx="4.26584808"></rect>
                        <g id="faketitle" transform="translate(17.897170, 62.028664)" fill="#BBC3C6">
                            <rect id="Rectangle-Copy-10" x="0" y="0" width="40.6595372" height="6.2763044" rx="3.1381522"></rect>
                        </g>
                        <g id="fakecart" transform="translate(6.529457, 73.946184)" fill="#BBC3C6">
                            <rect id="Rectangle-Copy-10" x="0" y="0" width="63.3949616" height="11.7782989" rx="5.88914944"></rect>
                        </g>
                    </g>
                </g>
                <g id="Group-6" transform="translate(422.580334, 72.000000)">
                    <g id="Group" opacity="0.626521519">
                        <g id="gridProduct">
                            <rect id="Rectangle-Copy-13" fill="#E2E6E7" x="3.93929788e-13" y="0" width="78.6455902" height="92.0524646" rx="5"></rect>
                            <rect id="Rectangle" fill="#FFFFFF" x="7.59067224" y="6.32798201" width="63.4642457" height="49.7979548" rx="4.26584808"></rect>
                            <g id="faketitle" transform="translate(17.897170, 62.028664)" fill="#BBC3C6">
                                <rect id="Rectangle-Copy-10" x="0" y="0" width="40.6595372" height="6.2763044" rx="3.1381522"></rect>
                            </g>
                            <g id="fakecart" transform="translate(6.529457, 73.946184)" fill="#BBC3C6">
                                <rect id="Rectangle-Copy-10" x="0" y="0" width="63.3949616" height="11.7782989" rx="5.88914944"></rect>
                            </g>
                        </g>
                    </g>
                    <g id="Group-79-Copy-4" transform="translate(26.419666, 13.000000)" fill="#53B9C9">
                        <path d="M9.65908845,0 L22.519078,0 C23.0454173,-9.66869656e-17 23.4816603,0.407996229 23.5168416,0.933158452 L25.9285308,36.9331585 C25.9654464,37.4842081 25.5486584,37.960848 24.9976088,37.9977636 C24.9753594,37.9992541 24.9530664,38 24.9307672,38 L19.564932,38 C19.0911204,38 18.6823459,37.6674872 18.5858778,37.2036 L12.7282639,9.03601629 C12.7091689,8.94419375 12.6772515,8.85551398 12.6334499,8.77258376 L8.77484833,1.46703256 C8.51691337,0.978680232 8.70370355,0.373694846 9.19205588,0.115759883 C9.33599147,0.0397368593 9.4963096,-1.92142615e-16 9.65908845,0 Z" id="Path-69"></path>
                        <path d="M1.05676509,0 L9.30623887,0 C9.82010502,1.27648924e-16 10.2503274,0.389463187 10.3013058,0.900794416 L13.8904121,36.9007944 C13.9452018,37.4503547 13.544111,37.9402772 12.9945507,37.995067 C12.9615843,37.9983536 12.9284749,38 12.8953451,38 L7.44900729,38 C6.97636481,38 6.56826301,37.6690892 6.47059208,37.2066486 L0.507343486,8.97257504 C0.496801744,8.92266326 0.490094662,8.87201801 0.487280975,8.82108279 L0.0582873615,1.0551564 C0.027825321,0.503712382 0.450164663,0.0319843135 1.00160869,0.00152227307 C1.01997665,0.000507617541 1.03836912,-2.1866532e-16 1.05676509,0 Z" id="Path-69-Copy" transform="translate(7.000000, 19.000000) scale(-1, 1) translate(-7.000000, -19.000000) "></path>
                    </g>
                </g>
                <g id="Group-9" transform="translate(510.475417, 72.000000)">
                    <g id="Group" opacity="0.626521519">
                        <g id="gridProduct">
                            <rect id="Rectangle-Copy-13" fill="#E2E6E7" x="3.93929788e-13" y="0" width="78.6455902" height="92.0524646" rx="5"></rect>
                            <rect id="Rectangle" fill="#FFFFFF" x="7.59067224" y="6.32798201" width="63.4642457" height="49.7979548" rx="4.26584808"></rect>
                            <g id="faketitle" transform="translate(17.897170, 62.028664)" fill="#BBC3C6">
                                <rect id="Rectangle-Copy-10" x="0" y="0" width="40.6595372" height="6.2763044" rx="3.1381522"></rect>
                            </g>
                            <g id="fakecart" transform="translate(6.529457, 73.946184)" fill="#BBC3C6">
                                <rect id="Rectangle-Copy-10" x="0" y="0" width="63.3949616" height="11.7782989" rx="5.88914944"></rect>
                            </g>
                        </g>
                    </g>
                    <g id="Group-79-Copy-5" transform="translate(26.524583, 13.000000)" fill="#53B9C9">
                        <path d="M9.65908845,0 L22.519078,0 C23.0454173,-9.66869656e-17 23.4816603,0.407996229 23.5168416,0.933158452 L25.9285308,36.9331585 C25.9654464,37.4842081 25.5486584,37.960848 24.9976088,37.9977636 C24.9753594,37.9992541 24.9530664,38 24.9307672,38 L19.564932,38 C19.0911204,38 18.6823459,37.6674872 18.5858778,37.2036 L12.7282639,9.03601629 C12.7091689,8.94419375 12.6772515,8.85551398 12.6334499,8.77258376 L8.77484833,1.46703256 C8.51691337,0.978680232 8.70370355,0.373694846 9.19205588,0.115759883 C9.33599147,0.0397368593 9.4963096,-1.92142615e-16 9.65908845,0 Z" id="Path-69"></path>
                        <path d="M1.05676509,0 L9.30623887,0 C9.82010502,1.27648924e-16 10.2503274,0.389463187 10.3013058,0.900794416 L13.8904121,36.9007944 C13.9452018,37.4503547 13.544111,37.9402772 12.9945507,37.995067 C12.9615843,37.9983536 12.9284749,38 12.8953451,38 L7.44900729,38 C6.97636481,38 6.56826301,37.6690892 6.47059208,37.2066486 L0.507343486,8.97257504 C0.496801744,8.92266326 0.490094662,8.87201801 0.487280975,8.82108279 L0.0582873615,1.0551564 C0.027825321,0.503712382 0.450164663,0.0319843135 1.00160869,0.00152227307 C1.01997665,0.000507617541 1.03836912,-2.1866532e-16 1.05676509,0 Z" id="Path-69-Copy" transform="translate(7.000000, 19.000000) scale(-1, 1) translate(-7.000000, -19.000000) "></path>
                    </g>
                </g>
                <rect id="Rectangle" stroke="#D3D3D3" fill="#FFFFFF" x="70.5" y="23.5" width="518" height="25" rx="12.5"></rect>
                <g id="Group" transform="translate(566.823720, 30.086933)" stroke="#D3D3D3">
                    <circle id="Oval" fill="#FFFFFF" cx="4.78029079" cy="4.78029079" r="4.28029079"></circle>
                    <line x1="8.29332654" y1="7.81681274" x2="11.0576172" y2="10.5811034" id="Path-21" stroke-linecap="round"></line>
                </g>
                <rect id="Rectangle" fill="#243C47" x="72" y="25" width="71" height="22.002294" rx="11.001147"></rect>
                <text id="jeans" font-family="Montserrat-Regular, Montserrat" font-size="14" font-weight="normal" fill="#FFFFFF">
                    <tspan x="88" y="40">jeans</tspan>
                </text>
                <circle id="Oval" fill="#1E3D49" cx="82.5" cy="199.5" r="11.5"></circle>
                <g id="Group" transform="translate(78.000000, 195.000000)" stroke="#FFFFFF" stroke-linecap="round" stroke-linejoin="round" stroke-width="1.84300311">
                    <g id="Icon/Search" transform="translate(4.500000, 4.500000) rotate(-45.000000) translate(-4.500000, -4.500000) ">
                        <path d="M1.5,7.5 L7.5,1.5 M7.5,7.5 L1.5,1.5" id="Combined-Shape"></path>
                    </g>
                </g>
                <rect id="Rectangle-Copy-19" fill="#243C47" x="70" y="262" width="73" height="21" rx="2"></rect>
                <rect id="Rectangle-Copy-20" fill="#E2E6E7" x="150" y="262" width="73" height="21" rx="2"></rect>
                <text id="SAVE" font-family="Montserrat-SemiBold, Montserrat" font-size="8" font-weight="500" fill="#FFFFFF">
                    <tspan x="96.1" y="275">SAVE</tspan>
                </text>
                <text id="CANCEL" font-family="Montserrat-SemiBold, Montserrat" font-size="8" font-weight="500" fill="#1E3D49">
                    <tspan x="169.932" y="275">CANCEL</tspan>
                </text>
                <g id="Group-79-Copy-3" transform="translate(361.000000, 85.000000)" fill="#53B9C9">
                    <path d="M9.65908845,0 L22.519078,0 C23.0454173,-9.66869656e-17 23.4816603,0.407996229 23.5168416,0.933158452 L25.9285308,36.9331585 C25.9654464,37.4842081 25.5486584,37.960848 24.9976088,37.9977636 C24.9753594,37.9992541 24.9530664,38 24.9307672,38 L19.564932,38 C19.0911204,38 18.6823459,37.6674872 18.5858778,37.2036 L12.7282639,9.03601629 C12.7091689,8.94419375 12.6772515,8.85551398 12.6334499,8.77258376 L8.77484833,1.46703256 C8.51691337,0.978680232 8.70370355,0.373694846 9.19205588,0.115759883 C9.33599147,0.0397368593 9.4963096,-1.92142615e-16 9.65908845,0 Z" id="Path-69"></path>
                    <path d="M1.05676509,0 L9.30623887,0 C9.82010502,1.27648924e-16 10.2503274,0.389463187 10.3013058,0.900794416 L13.8904121,36.9007944 C13.9452018,37.4503547 13.544111,37.9402772 12.9945507,37.995067 C12.9615843,37.9983536 12.9284749,38 12.8953451,38 L7.44900729,38 C6.97636481,38 6.56826301,37.6690892 6.47059208,37.2066486 L0.507343486,8.97257504 C0.496801744,8.92266326 0.490094662,8.87201801 0.487280975,8.82108279 L0.0582873615,1.0551564 C0.027825321,0.503712382 0.450164663,0.0319843135 1.00160869,0.00152227307 C1.01997665,0.000507617541 1.03836912,-2.1866532e-16 1.05676509,0 Z" id="Path-69-Copy" transform="translate(7.000000, 19.000000) scale(-1, 1) translate(-7.000000, -19.000000) "></path>
                </g>
                <rect id="Rectangle-Copy-9" stroke="#FDCB5B" x="62.8616071" y="16.609375" width="533" height="39" rx="8"></rect>
                <rect id="Rectangle-Copy-12" stroke="#80C0A1" x="103.861607" y="182.609375" width="257" height="35" rx="8"></rect>
                <rect id="Rectangle-Copy-10" stroke="#D44A6F" x="62.8616071" y="64.609375" width="533" height="109" rx="8"></rect>
                <g id="Group-4-Copy-6" transform="translate(45.675697, 36.652556) rotate(-270.000000) translate(-45.675697, -36.652556) translate(34.517857, 24.218750)">
                    <g id="Group-2" transform="translate(10.505284, 12.109503) scale(-1, 1) rotate(-270.000000) translate(-10.505284, -12.109503) translate(-1.494716, 1.109503)" fill="#FDCB5B">
                        <polyline id="Path-2" transform="translate(1.625442, 11.555911) rotate(-180.000000) translate(-1.625442, -11.555911) " points="0 8.23515644 0 14.8766659 3.25088337 11.5559112"></polyline>
                        <path d="M6.46289766,1.84929709e-12 L20,1.84929709e-12 C22.209139,1.84889128e-12 24,1.790861 24,4 L24,18 C24,20.209139 22.209139,22 20,22 L6.46289766,22 C4.25375866,22 2.46289766,20.209139 2.46289766,18 L2.46289766,11.3797667 L2.46289766,11.3797667 L2.46289766,4 C2.46289766,1.790861 4.25375866,1.84970291e-12 6.46289766,1.84929709e-12 Z" id="Rectangle"></path>
                    </g>
                    <text id="A" transform="translate(10.505284, 14.609503) rotate(-90.000000) translate(-10.505284, -14.609503) " font-family="Montserrat-Regular, Montserrat" font-size="13" font-weight="normal" fill="#FFFFFF">
                        <tspan x="7.00528365" y="19.6095035">A</tspan>
                    </text>
                </g>
                <g id="Group-4-Copy-7" transform="translate(46.000000, 117.000000) rotate(-270.000000) translate(-46.000000, -117.000000) translate(35.000000, 105.000000)">
                    <g id="Group-2" transform="translate(11.000000, 12.000000) scale(-1, 1) rotate(-270.000000) translate(-11.000000, -12.000000) translate(-1.000000, 1.000000)" fill="#D44A6F">
                        <polyline id="Path-2" transform="translate(1.625442, 11.555911) rotate(-180.000000) translate(-1.625442, -11.555911) " points="0 8.23515644 0 14.8766659 3.25088337 11.5559112"></polyline>
                        <path d="M6.46289766,0 L20,0 C22.209139,-4.05812251e-16 24,1.790861 24,4 L24,18 C24,20.209139 22.209139,22 20,22 L6.46289766,22 C4.25375866,22 2.46289766,20.209139 2.46289766,18 L2.46289766,11.3797667 L2.46289766,11.3797667 L2.46289766,4 C2.46289766,1.790861 4.25375866,4.05812251e-16 6.46289766,0 Z" id="Rectangle"></path>
                    </g>
                    <text id="B" transform="translate(11.000000, 14.500000) rotate(-90.000000) translate(-11.000000, -14.500000) " font-family="Montserrat-Regular, Montserrat" font-size="13" font-weight="normal" fill="#FFFFFF">
                        <tspan x="7.5" y="19.5">B</tspan>
                    </text>
                </g>
                <g id="Group-4-Copy-9" transform="translate(250.000000, 231.000000) rotate(-270.000000) translate(-250.000000, -231.000000) translate(238.000000, 220.000000)">
                    <g id="Group-2" transform="translate(12.000000, 11.000000) scale(-1, 1) rotate(-180.000000) translate(-12.000000, -11.000000) " fill="#80C0A1">
                        <polyline id="Path-2" transform="translate(1.625442, 11.555911) rotate(-180.000000) translate(-1.625442, -11.555911) " points="4.4408921e-16 8.23515644 4.4408921e-16 14.8766659 3.25088337 11.5559112"></polyline>
                        <path d="M6.46289766,0 L20,0 C22.209139,-4.05812251e-16 24,1.790861 24,4 L24,18 C24,20.209139 22.209139,22 20,22 L6.46289766,22 C4.25375866,22 2.46289766,20.209139 2.46289766,18 L2.46289766,11.3797667 L2.46289766,11.3797667 L2.46289766,4 C2.46289766,1.790861 4.25375866,4.05812251e-16 6.46289766,0 Z" id="Rectangle"></path>
                    </g>
                    <text id="C" transform="translate(13.000000, 12.500000) rotate(-90.000000) translate(-13.000000, -12.500000) " font-family="Montserrat-Regular, Montserrat" font-size="13" font-weight="normal" fill="#FFFFFF">
                        <tspan x="9.5" y="17.5">C</tspan>
                    </text>
                </g>
            </g>
            <rect id="Rectangle" stroke="#202020" stroke-width="21" x="10.5" y="10.5" width="745" height="445" rx="28"></rect>
        </g>
    </g>
</svg>