<?xml version="1.0" encoding="UTF-8"?>
<svg width="383px" height="434px" viewBox="0 0 383 434" version="1.1" xmlns="http://www.w3.org/2000/svg" xmlns:xlink="http://www.w3.org/1999/xlink">
    <title>2_data_processing</title>
    <defs>
        <linearGradient x1="92.6000754%" y1="18.8252811%" x2="79.3691658%" y2="75.9772737%" id="linearGradient-1">
            <stop stop-color="#D3DDE0" stop-opacity="0.352901005" offset="0%"></stop>
            <stop stop-color="#FFFFFF" stop-opacity="0.717247719" offset="31.3749579%"></stop>
            <stop stop-color="#FFFFFF" offset="100%"></stop>
        </linearGradient>
        <radialGradient cx="90.2540109%" cy="89.6655597%" fx="90.2540109%" fy="89.6655597%" r="42.1088598%" gradientTransform="translate(0.902540,0.896656),scale(0.694704,1.000000),rotate(90.000000),translate(-0.902540,-0.896656)" id="radialGradient-2">
            <stop stop-color="#AADBE2" offset="0%"></stop>
            <stop stop-color="#F9F9F9" offset="100%"></stop>
        </radialGradient>
        <radialGradient cx="8.37732978%" cy="7.63961434%" fx="8.37732978%" fy="7.63961434%" r="64.6331158%" gradientTransform="translate(0.083773,0.076396),scale(0.694704,1.000000),rotate(90.000000),translate(-0.083773,-0.076396)" id="radialGradient-3">
            <stop stop-color="#C9B1CC" offset="0%"></stop>
            <stop stop-color="#E0D2E2" stop-opacity="0.568154502" offset="51.7291302%"></stop>
            <stop stop-color="#FFFFFF" stop-opacity="0" offset="100%"></stop>
        </radialGradient>
        <radialGradient cx="91.2491517%" cy="-1.59144614%" fx="91.2491517%" fy="-1.59144614%" r="42.4756261%" gradientTransform="translate(0.912492,-0.015914),scale(0.694704,1.000000),rotate(90.000000),translate(-0.912492,0.015914)" id="radialGradient-4">
            <stop stop-color="#D4D4D4" offset="0%"></stop>
            <stop stop-color="#FFFFFF" stop-opacity="0" offset="100%"></stop>
        </radialGradient>
        <path d="M27,0 L294,0 C308.911688,-2.73923269e-15 321,12.0883118 321,27 L321,196 C321,210.911688 308.911688,223 294,223 L27,223 C12.0883118,223 8.93158249e-15,210.911688 0,196 L0,27 C-1.82615513e-15,12.0883118 12.0883118,6.29194637e-15 27,0 Z" id="path-5"></path>
        <path d="M33,10 L287,10 C299.702549,10 310,20.2974508 310,33 L310,190 C310,202.702549 299.702549,213 287,213 L33,213 C20.2974508,213 10,202.702549 10,190 L10,33 C10,20.2974508 20.2974508,10 33,10 Z" id="path-6"></path>
        <filter x="-19.5%" y="-16.5%" width="139.0%" height="166.0%" filterUnits="objectBoundingBox" id="filter-7">
            <feOffset dx="0" dy="42" in="SourceAlpha" result="shadowOffsetOuter1"></feOffset>
            <feGaussianBlur stdDeviation="12.5" in="shadowOffsetOuter1" result="shadowBlurOuter1"></feGaussianBlur>
            <feComposite in="shadowBlurOuter1" in2="SourceAlpha" operator="out" result="shadowBlurOuter1"></feComposite>
            <feColorMatrix values="0 0 0 0 0   0 0 0 0 0   0 0 0 0 0  0 0 0 0.0660784528 0" type="matrix" in="shadowBlurOuter1"></feColorMatrix>
        </filter>
        <path d="M69.3762693,134 L306.376269,134 L306.376269,194 C306.376269,198.970563 302.346832,203 297.376269,203 L78.3762693,203 C73.4057066,203 69.3762693,198.970563 69.3762693,194 L69.3762693,134 L69.3762693,134 Z" id="path-8"></path>
        <filter x="-7.0%" y="-12.3%" width="113.9%" height="149.3%" filterUnits="objectBoundingBox" id="filter-9">
            <feOffset dx="0" dy="9" in="SourceAlpha" result="shadowOffsetOuter1"></feOffset>
            <feGaussianBlur stdDeviation="4" in="shadowOffsetOuter1" result="shadowBlurOuter1"></feGaussianBlur>
            <feComposite in="shadowBlurOuter1" in2="SourceAlpha" operator="out" result="shadowBlurOuter1"></feComposite>
            <feColorMatrix values="0 0 0 0 0   0 0 0 0 0   0 0 0 0 0  0 0 0 0.0474759615 0" type="matrix" in="shadowBlurOuter1"></feColorMatrix>
        </filter>
        <rect id="path-10" x="0" y="0" width="50" height="46.969697" rx="4.85383987"></rect>
        <filter x="-99.0%" y="-86.2%" width="298.0%" height="310.8%" filterUnits="objectBoundingBox" id="filter-11">
            <feOffset dx="0" dy="9" in="SourceAlpha" result="shadowOffsetOuter1"></feOffset>
            <feGaussianBlur stdDeviation="15" in="shadowOffsetOuter1" result="shadowBlurOuter1"></feGaussianBlur>
            <feColorMatrix values="0 0 0 0 0.764266304   0 0 0 0 0.764266304   0 0 0 0 0.764266304  0 0 0 0.5 0" type="matrix" in="shadowBlurOuter1"></feColorMatrix>
        </filter>
        <rect id="path-12" x="0" y="0" width="50" height="46.969697" rx="4.85383987"></rect>
        <filter x="-99.0%" y="-86.2%" width="298.0%" height="310.8%" filterUnits="objectBoundingBox" id="filter-13">
            <feOffset dx="0" dy="9" in="SourceAlpha" result="shadowOffsetOuter1"></feOffset>
            <feGaussianBlur stdDeviation="15" in="shadowOffsetOuter1" result="shadowBlurOuter1"></feGaussianBlur>
            <feColorMatrix values="0 0 0 0 0.764266304   0 0 0 0 0.764266304   0 0 0 0 0.764266304  0 0 0 0.5 0" type="matrix" in="shadowBlurOuter1"></feColorMatrix>
        </filter>
        <rect id="path-14" x="0" y="0" width="50" height="46.969697" rx="4.85383987"></rect>
        <filter x="-99.0%" y="-86.2%" width="298.0%" height="310.8%" filterUnits="objectBoundingBox" id="filter-15">
            <feOffset dx="0" dy="9" in="SourceAlpha" result="shadowOffsetOuter1"></feOffset>
            <feGaussianBlur stdDeviation="15" in="shadowOffsetOuter1" result="shadowBlurOuter1"></feGaussianBlur>
            <feColorMatrix values="0 0 0 0 0.764266304   0 0 0 0 0.764266304   0 0 0 0 0.764266304  0 0 0 0.5 0" type="matrix" in="shadowBlurOuter1"></feColorMatrix>
        </filter>
        <rect id="path-16" x="0" y="0" width="50" height="46.969697" rx="4.85383987"></rect>
        <filter x="-99.0%" y="-86.2%" width="298.0%" height="310.8%" filterUnits="objectBoundingBox" id="filter-17">
            <feOffset dx="0" dy="9" in="SourceAlpha" result="shadowOffsetOuter1"></feOffset>
            <feGaussianBlur stdDeviation="15" in="shadowOffsetOuter1" result="shadowBlurOuter1"></feGaussianBlur>
            <feColorMatrix values="0 0 0 0 0.764266304   0 0 0 0 0.764266304   0 0 0 0 0.764266304  0 0 0 0.5 0" type="matrix" in="shadowBlurOuter1"></feColorMatrix>
        </filter>
        <rect id="path-18" x="0" y="0" width="96" height="46" rx="4.85383987"></rect>
        <filter x="-14.6%" y="-21.7%" width="129.2%" height="160.9%" filterUnits="objectBoundingBox" id="filter-19">
            <feOffset dx="0" dy="4" in="SourceAlpha" result="shadowOffsetOuter1"></feOffset>
            <feGaussianBlur stdDeviation="4" in="shadowOffsetOuter1" result="shadowBlurOuter1"></feGaussianBlur>
            <feColorMatrix values="0 0 0 0 0.564481431   0 0 0 0 0.564481431   0 0 0 0 0.564481431  0 0 0 0.153272509 0" type="matrix" in="shadowBlurOuter1"></feColorMatrix>
        </filter>
        <rect id="path-20" x="0" y="0" width="95" height="45" rx="4.85383987"></rect>
        <filter x="-48.4%" y="-64.4%" width="196.8%" height="304.4%" filterUnits="objectBoundingBox" id="filter-21">
            <feOffset dx="0" dy="17" in="SourceAlpha" result="shadowOffsetOuter1"></feOffset>
            <feGaussianBlur stdDeviation="12.5" in="shadowOffsetOuter1" result="shadowBlurOuter1"></feGaussianBlur>
            <feColorMatrix values="0 0 0 0 0.384369339   0 0 0 0 0.384369339   0 0 0 0 0.384369339  0 0 0 0.170208698 0" type="matrix" in="shadowBlurOuter1"></feColorMatrix>
        </filter>
        <rect id="path-22" x="0" y="0" width="108" height="51" rx="4.85383987"></rect>
        <filter x="-15.3%" y="-55.9%" width="152.8%" height="211.8%" filterUnits="objectBoundingBox" id="filter-23">
            <feOffset dx="12" dy="0" in="SourceAlpha" result="shadowOffsetOuter1"></feOffset>
            <feGaussianBlur stdDeviation="7.5" in="shadowOffsetOuter1" result="shadowBlurOuter1"></feGaussianBlur>
            <feColorMatrix values="0 0 0 0 0   0 0 0 0 0   0 0 0 0 0  0 0 0 0.108719406 0" type="matrix" in="shadowBlurOuter1"></feColorMatrix>
        </filter>
    </defs>
    <g id="Privacy" stroke="none" stroke-width="1" fill="none" fill-rule="evenodd">
        <g id="AboutEmpathyPlatformPage-Copy" transform="translate(-892.000000, -2006.000000)">
            <g id="2_data_processing_margin_top" transform="translate(892.000000, 1928.000000)">
                <g id="2_data_processing" transform="translate(0.000000, 78.000000)">
                    <circle id="Oval-Copy-61" fill-opacity="0.5" fill="#53B9C9" cx="317" cy="290" r="61"></circle>
                    <circle id="Oval-Copy-64" fill-opacity="0.652043269" fill="#8B6391" cx="74" cy="121" r="74"></circle>
                    <circle id="Oval-Copy-65" fill="#FDCB5B" opacity="0.291527158" cx="124" cy="21" r="21"></circle>
                    <g id="Group-6-Copy-4" transform="translate(27.000000, 86.000000)">
                        <g id="Rectangle-Copy-48">
                            <use fill="url(#linearGradient-1)" xlink:href="#path-5"></use>
                            <use fill="url(#radialGradient-2)" xlink:href="#path-5"></use>
                            <use fill="url(#radialGradient-3)" xlink:href="#path-5"></use>
                            <use fill="url(#radialGradient-4)" xlink:href="#path-5"></use>
                        </g>
                        <g id="Rectangle-Copy-48">
                            <use fill="black" fill-opacity="1" filter="url(#filter-7)" xlink:href="#path-6"></use>
                            <use fill-opacity="0.352901005" fill="#FFFFFF" fill-rule="evenodd" xlink:href="#path-6"></use>
                        </g>
                    </g>
                    <g id="Rectangle-Copy">
                        <use fill="black" fill-opacity="1" filter="url(#filter-9)" xlink:href="#path-8"></use>
                        <path stroke-opacity="0.466400787" stroke="#243C47" stroke-width="0.578525641" d="M306.087007,134.289263 L306.087007,194 C306.087007,196.405404 305.112024,198.583088 303.535691,200.159421 C301.959357,201.735755 299.781673,202.710737 297.376269,202.710737 L297.376269,202.710737 L78.3762693,202.710737 C75.9708657,202.710737 73.7931814,201.735755 72.216848,200.159421 C70.6405146,198.583088 69.6655322,196.405404 69.6655322,194 L69.6655322,194 L69.6655322,134.289263 L306.087007,134.289263 Z" stroke-linejoin="square" fill="#FFFFFF" fill-rule="evenodd"></path>
                    </g>
                    <path d="M89.9431909,162.673579 L88.3940572,161.14923 C88.7997255,160.708491 89.0489814,160.125608 89.0489814,159.484207 C89.0487853,158.11213 87.9186238,157 86.5243927,157 C85.1301615,157 84,158.11213 84,159.484207 C84,160.856283 85.1301615,161.968413 86.5243927,161.968413 C87.1267971,161.968413 87.6793091,161.760054 88.1133011,161.413657 L89.6684447,162.944016 C89.7442195,163.018661 89.8672396,163.018661 89.9430145,162.944016 C90.0189657,162.869379 90.0189657,162.748224 89.9431909,162.673579 Z M86.5243927,161.586203 C85.3447212,161.586203 84.3884134,160.64511 84.3884134,159.484207 C84.3884134,158.323303 85.3447212,157.38221 86.5243927,157.38221 C87.7040739,157.38221 88.660372,158.323303 88.660372,159.484207 C88.660372,160.64511 87.7040739,161.586203 86.5243927,161.586203 Z" id="Shape" stroke="#243C47" stroke-width="0.6" fill-rule="nonzero" transform="translate(87.000000, 160.000000) scale(-1, 1) translate(-87.000000, -160.000000) "></path>
                    <path d="M89.9431909,174.673579 L88.3940572,173.14923 C88.7997255,172.708491 89.0489814,172.125608 89.0489814,171.484207 C89.0487853,170.11213 87.9186238,169 86.5243927,169 C85.1301615,169 84,170.11213 84,171.484207 C84,172.856283 85.1301615,173.968413 86.5243927,173.968413 C87.1267971,173.968413 87.6793091,173.760054 88.1133011,173.413657 L89.6684447,174.944016 C89.7442195,175.018661 89.8672396,175.018661 89.9430145,174.944016 C90.0189657,174.869379 90.0189657,174.748224 89.9431909,174.673579 Z M86.5243927,173.586203 C85.3447212,173.586203 84.3884134,172.64511 84.3884134,171.484207 C84.3884134,170.323303 85.3447212,169.38221 86.5243927,169.38221 C87.7040739,169.38221 88.660372,170.323303 88.660372,171.484207 C88.660372,172.64511 87.7040739,173.586203 86.5243927,173.586203 Z" id="Shape-Copy" stroke="#243C47" stroke-width="0.6" fill-rule="nonzero" transform="translate(87.000000, 172.000000) scale(-1, 1) translate(-87.000000, -172.000000) "></path>
                    <path d="M89.9431909,186.673579 L88.3940572,185.14923 C88.7997255,184.708491 89.0489814,184.125608 89.0489814,183.484207 C89.0487853,182.11213 87.9186238,181 86.5243927,181 C85.1301615,181 84,182.11213 84,183.484207 C84,184.856283 85.1301615,185.968413 86.5243927,185.968413 C87.1267971,185.968413 87.6793091,185.760054 88.1133011,185.413657 L89.6684447,186.944016 C89.7442195,187.018661 89.8672396,187.018661 89.9430145,186.944016 C90.0189657,186.869379 90.0189657,186.748224 89.9431909,186.673579 Z M86.5243927,185.586203 C85.3447212,185.586203 84.3884134,184.64511 84.3884134,183.484207 C84.3884134,182.323303 85.3447212,181.38221 86.5243927,181.38221 C87.7040739,181.38221 88.660372,182.323303 88.660372,183.484207 C88.660372,184.64511 87.7040739,185.586203 86.5243927,185.586203 Z" id="Shape-Copy-2" stroke="#243C47" stroke-width="0.6" fill-rule="nonzero" transform="translate(87.000000, 184.000000) scale(-1, 1) translate(-87.000000, -184.000000) "></path>
                    <rect id="Rectangle" fill="#CFD4D7" x="96.8333333" y="157.297725" width="86" height="5" rx="2.5"></rect>
                    <rect id="Rectangle" fill="#CFD4D7" x="96.8333333" y="181.297725" width="77" height="5" rx="2.5"></rect>
                    <rect id="Rectangle" fill="#CFD4D7" x="96.8333333" y="169.297725" width="68.5" height="5" rx="2.5"></rect>
                    <rect id="Rectangle-Copy" stroke-opacity="0.466400787" stroke="#243C47" stroke-width="0.578525641" fill="#FFFFFF" x="69.6655322" y="124.289263" width="236.421474" height="20.4214744" rx="10.2107372"></rect>
                    <g id="search" opacity="0.524913699" transform="translate(287.879474, 129.750966)" stroke="#243C47" stroke-linecap="round" stroke-linejoin="round" stroke-width="1.20747049">
                        <ellipse id="Oval" cx="3.71367511" cy="3.69405451" rx="3.71367511" ry="3.69405451"></ellipse>
                        <line x1="8.355769" y1="8.31162265" x2="6.49893144" y2="6.4645954" id="Path"></line>
                    </g>
                    <rect id="Rectangle" fill="#D8D8D8" x="78" y="132" width="50" height="5" rx="2.5"></rect>
                    <g id="Group-6-Copy-3" transform="translate(73.000000, 215.000000)">
                        <g id="Rectangle-Copy-62">
                            <use fill="black" fill-opacity="1" filter="url(#filter-11)" xlink:href="#path-10"></use>
                            <use fill="#FFFFFF" fill-rule="evenodd" xlink:href="#path-10"></use>
                        </g>
                        <g id="shoe" opacity="0.899999976" transform="translate(8.000000, 20.000000)" fill="#8E9EA4" fill-rule="nonzero">
                            <path d="M33.1392094,6.06211521 C32.5922009,5.62750158 31.8753074,5.4462445 31.1726375,5.56441453 L24.0754184,6.76010623 L29.4159626,3.69669771 C30.1912125,3.25193721 30.4403905,2.29208139 29.9713457,1.55696922 L29.4580351,0.752404589 C29.230857,0.396255854 28.8710145,0.145357232 28.4447733,0.0458423052 C28.018665,-0.0537356458 27.5770038,0.0101076861 27.2014755,0.225712857 L26.054087,0.883746646 C25.8185344,1.01887014 25.74303,1.30941087 25.8855978,1.53283102 C26.0280327,1.75618815 26.3345701,1.82765739 26.5701227,1.69259691 L27.7175112,1.03456312 C27.8651969,0.949858842 28.0388704,0.924649234 28.2064956,0.963850174 C28.3741208,1.00298809 28.5156252,1.10168371 28.6050209,1.24172308 L29.1183315,2.04628771 C29.3027724,2.33544191 29.2048027,2.71295579 28.8999269,2.88791047 L24.0405907,5.67533681 C23.8978235,4.9267375 23.4642711,4.27324144 22.8546524,3.82406926 L24.752167,2.73558141 C24.9877196,2.60045792 25.063224,2.30985416 24.9206562,2.08649704 C24.7781548,1.86301386 24.4716174,1.79154462 24.2361313,1.92673115 L21.815735,3.3151503 C21.5253486,3.23246278 21.2179472,3.18752666 20.8995789,3.18752666 C20.4815794,3.18752666 20.0825224,3.26485713 19.7162992,3.40401416 L15.8914272,0.39713819 C15.4503642,0.0505060826 14.8134948,0.0542875238 14.3769514,0.406213649 L12.0184343,2.30827856 C11.8086702,2.47743503 11.7832805,2.77566469 11.961673,2.9745685 C12.1399991,3.17328323 12.4545124,3.19754748 12.664343,3.02839101 L13.448034,2.39638614 L17.7402892,5.77894829 C17.7184887,5.9214456 17.7067243,6.06696806 17.7067243,6.21513753 C17.7067243,6.77832017 17.8702287,7.30576819 18.1539021,7.75790251 L9.68836429,9.18413607 C9.4172528,9.22982849 9.23653396,9.475181 9.28472122,9.73219295 C9.32765773,9.96128526 9.53788711,10.1222486 9.77496843,10.1222486 C9.80394725,10.1222486 18.9213091,8.58874816 18.9213091,8.58874816 C19.465659,8.99752195 20.1528426,9.24255934 20.8995789,9.24255934 C22.0489614,9.24255934 23.0581688,8.66349465 23.6205307,7.79704043 L24.3024635,7.68214764 L26.2239056,8.99878243 C26.7341588,9.34837667 27.3365993,9.53316309 27.966091,9.53316309 L30.3172305,9.53316309 C31.1116889,9.53316309 31.8586246,9.23978628 32.4204549,8.70710727 L33.0030222,8.15476476 L33.0030222,8.60469324 C33.0030222,10.4325789 31.4347097,11.9196306 29.5070199,11.9196306 L5.02217591,11.9196306 C4.71676838,11.9196306 4.41382007,11.8462707 4.14596537,11.7073657 L1.75654193,10.4687547 C1.28802884,10.225671 0.996977789,9.76030166 0.996977789,9.25384064 L0.996977789,9.14733005 L5.19664703,10.7172584 C5.34758946,10.7737279 5.5077041,10.8023408 5.66868278,10.8023408 C5.7438549,10.8023408 7.74957482,10.4708975 7.74957482,10.4708975 C8.02061985,10.4252051 8.20133869,10.1798526 8.15315143,9.92277758 C8.1048977,9.66576563 7.84648106,9.49459239 7.57510371,9.54009574 L5.71972804,9.8527579 C5.66675529,9.86164428 5.6123203,9.85653934 5.56240495,9.8378212 L1.00814394,8.13529034 C1.12226466,7.00873599 2.12582251,6.12488714 3.34333178,6.12488714 L8.43808768,6.12488714 C8.68726566,6.12488714 8.92906601,6.04049798 9.11869118,5.88747566 L11.0453175,4.33393357 C11.2550152,4.16477711 11.2804714,3.86648442 11.1021453,3.66764364 C10.9236198,3.46867681 10.609173,3.44466466 10.3994753,3.6137581 L8.47264958,5.16742623 C8.46294566,5.17524121 8.45071606,5.17952684 8.43802121,5.17952684 L3.34326532,5.17952684 C1.49972046,5.17946382 0,6.6015378 0,8.34963503 L0,9.25390366 C0,10.1060514 0.489781955,10.889377 1.27825846,11.2981508 L3.66768189,12.5366988 C4.08169353,12.7513586 4.55000723,12.8648649 5.02210945,12.8648649 L29.5070199,12.8648649 C31.9844432,12.8648649 34,10.9537245 34,8.60456719 L34,7.81103176 C34,7.13427984 33.6862179,6.49679188 33.1392094,6.06211521 L33.1392094,6.06211521 Z M14.2189637,1.77446511 L15.0228601,1.12613702 C15.0899235,1.07212544 15.1876273,1.07155822 15.2551559,1.1247505 L18.8158289,3.9238993 C18.5130135,4.17189882 18.2597811,4.47252339 18.0720834,4.8110254 L14.2189637,1.77446511 Z M20.8995789,8.297073 C19.6887826,8.297073 18.7037021,7.36305703 18.7037021,6.21494846 C18.7037021,5.0668399 19.6887826,4.1327609 20.8995789,4.1327609 C22.1103752,4.1327609 23.0954557,5.0668399 23.0954557,6.21494846 C23.0954557,7.36305703 22.1103752,8.297073 20.8995789,8.297073 Z M31.7155251,8.03842242 C31.3420572,8.39261741 30.8454293,8.58767675 30.317297,8.58767675 L27.9661575,8.58767675 C27.5476262,8.58767675 27.1471735,8.46484294 26.8078687,8.23234733 L25.6687883,7.45179485 L31.3470421,6.49515325 C31.7587275,6.42576381 32.1784551,6.53208533 32.4988173,6.78663934 C32.5975846,6.86510425 32.6832582,6.95491348 32.7546418,7.05316792 L31.7155251,8.03842242 Z" id="Shape"></path>
                            <path d="M4.08335516,6.92390566 C3.8079899,6.92390566 3.58486627,7.13547729 3.58486627,7.39658581 C3.58486627,7.65769432 3.8079899,7.86926595 4.08335516,7.86926595 L4.46267198,7.86926595 C4.73803724,7.86926595 4.96116087,7.65769432 4.96116087,7.39658581 C4.96116087,7.13547729 4.73803724,6.92390566 4.46267198,6.92390566 L4.08335516,6.92390566 Z" id="Path"></path>
                            <path d="M7.26025812,6.92390566 C6.98489285,6.92390566 6.76176923,7.13547729 6.76176923,7.39658581 C6.76176923,7.65769432 6.98489285,7.86926595 7.26025812,7.86926595 L7.63957494,7.86926595 C7.9149402,7.86926595 8.13806383,7.65769432 8.13806383,7.39658581 C8.13806383,7.13547729 7.9149402,6.92390566 7.63957494,6.92390566 L7.26025812,6.92390566 Z" id="Path"></path>
                            <path d="M10.8554265,5.71800407 C10.8554265,5.97911258 11.0785501,6.19068421 11.3539154,6.19068421 L11.7332322,6.19068421 C12.0085975,6.19068421 12.2317211,5.97911258 12.2317211,5.71800407 C12.2317211,5.45689555 12.0085975,5.24532392 11.7332322,5.24532392 L11.3539154,5.24532392 C11.0786166,5.24532392 10.8554265,5.45689555 10.8554265,5.71800407 Z" id="Path"></path>
                            <path d="M14.1673202,4.43596946 L13.7880034,4.43596946 C13.5126382,4.43596946 13.2895145,4.6475411 13.2895145,4.90864961 C13.2895145,5.16975812 13.5126382,5.38132976 13.7880034,5.38132976 L14.1673202,5.38132976 C14.4426855,5.38132976 14.6658091,5.16975812 14.6658091,4.90864961 C14.6658091,4.6475411 14.4426855,4.43596946 14.1673202,4.43596946 Z" id="Path"></path>
                            <path d="M13.9776951,6.40635241 C13.7023298,6.40635241 13.4792062,6.61792404 13.4792062,6.87903256 C13.4792062,7.14014107 13.7023298,7.3517127 13.9776951,7.3517127 L14.3570119,7.3517127 C14.6323771,7.3517127 14.8555008,7.14014107 14.8555008,6.87903256 C14.8555008,6.61792404 14.6323771,6.40635241 14.3570119,6.40635241 L13.9776951,6.40635241 Z" id="Path"></path>
                            <path d="M10.6188769,7.16516161 L10.2395601,7.16516161 C9.96419481,7.16516161 9.74107118,7.37673324 9.74107118,7.63784175 C9.74107118,7.89895027 9.96419481,8.1105219 10.2395601,8.1105219 L10.6188769,8.1105219 C10.8942422,8.1105219 11.1173658,7.89895027 11.1173658,7.63784175 C11.1173658,7.37673324 10.8941757,7.16516161 10.6188769,7.16516161 Z" id="Path"></path>
                        </g>
                    </g>
                    <g id="Group-7-Copy-2" transform="translate(133.000000, 215.000000)">
                        <g id="Rectangle-Copy-62">
                            <use fill="black" fill-opacity="1" filter="url(#filter-13)" xlink:href="#path-12"></use>
                            <use fill="#FFFFFF" fill-rule="evenodd" xlink:href="#path-12"></use>
                        </g>
                        <g id="running-shoe" opacity="0.899999976" transform="translate(8.000000, 16.000000)" fill="#8E9EA4" fill-rule="nonzero">
                            <path d="M31.7861252,12.1221527 C31.7659377,10.9974989 31.2289381,9.93897847 30.3386262,9.28034354 C30.1286263,9.12493963 29.8356891,9.17404161 29.6845642,9.39005176 C29.5334393,9.6060619 29.5811892,9.90716501 29.7912516,10.0626332 C30.4025636,10.5149627 30.7860009,11.2250776 30.8426258,11.9907857 C30.2801887,12.2039679 29.8008141,12.6147793 29.4942518,13.1426898 C25.7931295,14.3617557 22.3227569,14.7451882 19.1634467,14.2858533 L16.4849486,13.6889815 C16.4169487,13.6696363 16.3487612,13.6511909 16.2809488,13.6313316 C16.1002614,13.5784378 15.9320115,13.5270863 15.7726991,13.4768275 L13.3513259,12.6351527 C13.128951,12.561307 12.8900762,12.4854688 12.6260764,12.4068671 C12.6030764,12.3999902 12.5797639,12.393499 12.5567015,12.3866864 L9.91739085,11.7610218 C9.46057867,11.6813275 9.000579,11.6152583 8.54632933,11.565835 C8.44132941,11.5544593 8.33520448,11.5445618 8.22920456,11.5346643 L8.22920456,11.3000802 C8.22920456,9.92477488 7.14076784,8.8059053 5.8028938,8.8059053 L2.80539595,8.8059053 L2.80539595,8.73585143 C2.80539595,7.91866338 2.91120837,7.10436747 3.11995822,6.31571512 L3.64845785,4.31917979 C3.67445783,4.22097584 3.74802027,4.19012642 3.78945774,4.18042171 C3.83108271,4.17078127 3.91039516,4.16596105 3.97514511,4.24321312 L4.36439483,4.70711114 C4.53351971,4.90866063 4.829332,4.93089791 5.02533186,4.75711289 C5.22126922,4.58319934 5.2429567,4.27894702 5.07389432,4.0774618 L4.6846446,3.61356378 C4.4118323,3.28855238 3.9896451,3.14555251 3.58214539,3.24067153 C3.17495819,3.33572627 2.85395842,3.65199701 2.74427099,4.06621462 L2.21577137,6.06274995 C1.98514654,6.93392447 1.86827162,7.83331335 1.86827162,8.73604424 L1.86827162,11.8831983 C1.69077175,11.9923924 1.54277186,12.1507527 1.44514693,12.3438829 L0.0668979154,15.0708423 C0.0668354155,15.0709708 0.0667729155,15.0710994 0.0667104155,15.0712279 L0.0630854181,15.0784261 C0.061835419,15.0808683 0.0610229196,15.0835677 0.0597729205,15.0860099 C0.053522925,15.0988638 0.0478354291,15.1119748 0.0427104328,15.1254072 C0.040960434,15.1299703 0.0393979351,15.1345977 0.0377729363,15.1392894 C0.0334604394,15.151822 0.0296479421,15.1645474 0.0263354445,15.1774656 C0.0250229455,15.1824143 0.0237104464,15.1872988 0.0225854472,15.1923118 C0.0196479493,15.2055514 0.017335451,15.2189837 0.0154604523,15.2325446 C0.0148354528,15.2371078 0.0139604534,15.2416066 0.0134604538,15.246234 C-0.159414422,16.8181401 1.36402198,18.1621622 2.79395846,18.1621622 L9.86201589,18.1621622 C10.0965782,18.1621622 10.3250781,18.063428 10.4888904,17.8912497 C10.6297653,17.7431725 10.7131403,17.5547983 10.7281403,17.3533774 L11.4428273,17.4813382 C11.6980771,17.526841 11.9404519,17.3514493 11.9848894,17.0892936 C12.0293268,16.8270736 11.8586395,16.5775789 11.6036396,16.5319475 L10.8265777,16.3928038 C10.5689529,16.3415167 10.3060781,16.4111207 10.1044532,16.5843915 C9.92357834,16.7397954 9.81395342,16.9599188 9.79582843,17.1984233 L8.18895459,17.1984233 C7.96532975,15.84934 6.82070557,14.8187769 5.44558156,14.8187769 L1.25058457,14.8187769 L2.27677133,12.7882429 C2.29720881,12.7478174 2.33058379,12.7167109 2.37002126,12.6989082 C2.41170873,12.6958875 2.4517712,12.6874039 2.48964618,12.6739073 C3.89939517,12.4577686 5.33189414,12.3681125 6.74901812,12.4087309 C7.32220521,12.4251839 7.8938298,12.464067 8.4479544,12.5242234 C8.95514154,12.5793667 9.47045367,12.6552049 9.9758908,12.7489742 C10.7905152,12.9066918 11.5944521,13.1029712 12.3654516,13.3325422 C13.5985132,13.699586 14.7894499,14.1969684 16.024449,14.5582922 C16.6923235,14.7536075 17.368948,14.9246932 18.04026,15.0677573 C18.0415725,15.0680144 18.042885,15.0683358 18.0441975,15.0686571 C18.0450725,15.0688499 18.045885,15.0690427 18.04676,15.0692355 C21.3676326,15.7411743 25.019005,15.4922581 28.9145022,14.3319346 L28.0868153,16.0601443 L24.7068177,17.0903219 C24.4718179,17.1619825 24.2284431,17.1982305 23.9835058,17.1982305 L23.2643813,17.1982305 L18.098135,15.4913583 C17.4128855,15.2650008 16.668636,15.4466909 16.1556989,15.9655395 L14.9951372,17.1392953 L13.5537632,16.8811886 C13.2990134,16.8353001 13.0561386,17.0110132 13.0117011,17.2732332 C12.9672637,17.5354532 13.137951,17.7849478 13.3929509,17.8305792 L15.0716371,18.1311681 C15.1861371,18.1516701 15.3030745,18.1621622 15.4191369,18.1621622 L23.1893813,18.1621622 C23.1904438,18.1621622 23.1914438,18.1621622 23.1925063,18.1621622 L23.9835058,18.1621622 C24.318693,18.1621622 24.6516928,18.1123371 24.97313,18.0143903 L28.545315,16.9255989 C28.5482525,16.9247634 28.55119,16.9238636 28.554065,16.9229638 L30.1444388,16.4382424 C31.2370005,16.1053259 32,15.0547749 32,13.8833328 L32,12.6581613 C32,12.4565475 31.9211251,12.2644456 31.7861252,12.1221527 Z M5.44564406,15.7824354 C6.30183094,15.7824996 7.02358042,16.3845773 7.23158027,17.1983591 L2.79389596,17.1983591 C1.93770907,17.1983591 1.21595959,16.5962814 1.00795974,15.7824354 L5.44564406,15.7824354 Z M7.29208023,11.4666027 C5.7952688,11.389672 4.29126988,11.4554841 2.80539595,11.654977 L2.80539595,9.76962805 L5.8030188,9.76962805 C6.62414321,9.76962805 7.29208023,10.4562203 7.29208023,11.3000159 L7.29208023,11.4666027 Z M16.2733238,17.1984233 L16.8128859,16.6527744 C17.0765732,16.3860555 17.4591979,16.292736 17.8115102,16.409064 L20.2006335,17.1984233 L16.2733238,17.1984233 Z M31.0627507,13.883397 C31.0627507,14.6311096 30.575626,15.301763 29.8781265,15.5143668 L29.3100644,15.6875092 L30.2349388,13.7561432 C30.4086886,13.3932127 30.7051884,13.1020714 31.0627507,12.9377983 L31.0627507,13.883397 Z" id="Shape"></path>
                            <path d="M28.0735028,8.58655314 L25.7168795,8.3495911 C24.7755052,8.25492196 23.8382559,8.1055594 22.910944,7.90426699 C21.4105701,7.08669333 19.9500711,6.16326762 18.5633846,5.15751254 L18.6047596,5.10686809 C18.7712595,4.90313344 18.745572,4.59920247 18.5473847,4.42792397 C18.3493223,4.25670974 18.0536975,4.28312455 17.8871976,4.4868592 L17.8013852,4.59187574 C17.4993229,4.36153347 17.1998231,4.1269494 16.9036983,3.88760939 L16.9566358,3.82282562 C17.1231357,3.61909097 17.0974482,3.31516 16.8992608,3.1438815 C16.701136,2.97266727 16.4056362,2.99914634 16.2390738,3.20281673 L16.1736364,3.28296093 C15.8679491,3.02382587 15.5655743,2.76032049 15.267387,2.49193061 L15.326762,2.41924168 C15.4932618,2.21550703 15.4675744,1.91157606 15.269387,1.74029756 C15.0713246,1.56908333 14.7756999,1.59556241 14.6092,1.79923279 L14.5690125,1.84839904 C14.0466379,1.35583677 13.5368882,0.849649351 13.0417011,0.330543739 C13.0318886,0.320196332 13.0216386,0.310363082 13.0109511,0.301043989 C12.511639,-0.135989336 11.7686395,-0.092350273 11.3197023,0.400469071 C11.03514,0.71262655 10.7665777,1.13796281 10.5212654,1.66452369 C9.96376581,2.8611595 9.94745333,3.95245742 9.9825783,4.47316977 C8.94920404,5.16676737 7.64339248,5.34627238 6.44495584,4.91418781 C6.20058101,4.82613845 5.93333121,4.9584053 5.84770627,5.20944239 C5.76195633,5.46060801 5.89051874,5.73561766 6.13476856,5.82366702 C7.99320473,6.4938062 10.0628907,5.9712943 11.4075773,4.49257919 C11.6995771,4.17148824 12.1758267,4.10361953 12.541764,4.32972001 L12.0423268,4.94098824 C11.8758269,5.14472289 11.9015144,5.44865386 12.0997018,5.61993236 C12.2933891,5.78729042 12.5978889,5.75914033 12.7598888,5.56099713 L13.3518259,4.83655013 L14.2700752,5.41137749 C14.3064502,5.43412893 14.3432002,5.45630194 14.3795751,5.47886058 L14.0609504,5.86884855 C13.8944505,6.07264747 13.920138,6.37651417 14.1183253,6.54779267 C14.3120127,6.71515073 14.6165125,6.68700064 14.7785124,6.48885744 L15.2035121,5.96872352 C15.5399493,6.16043975 15.8805741,6.34476499 16.2250738,6.52144214 L16.013824,6.77999876 C15.8473241,6.98373342 15.8730116,7.28766439 16.0711989,7.45894289 C16.2648863,7.62630094 16.5693861,7.59815085 16.731386,7.40000766 L17.0995732,6.94934918 C18.8666969,7.77534216 20.7226331,8.40666251 22.6203817,8.8262145 C22.6485067,8.83501943 22.6769442,8.84151066 22.7055067,8.84472414 C23.670506,9.05469295 24.6460053,9.21035394 25.6258171,9.30887924 L27.9824404,9.54584128 C27.9979404,9.54738375 28.0133154,9.54815499 28.0285653,9.54815499 C28.2668152,9.54815499 28.4707525,9.36209448 28.49444,9.11311402 C28.5193775,8.84806616 28.3310651,8.61245379 28.0735028,8.58655314 Z M13.1517635,3.58309999 L13.0337011,3.50918994 C12.3729516,3.09561502 11.5333897,3.15814935 10.9368276,3.63515837 C10.9833901,3.19748235 11.1000775,2.65273316 11.3664523,2.08099074 C11.5703897,1.64337899 11.784702,1.29972941 12.0035768,1.05948962 C12.1063893,0.946760727 12.2736392,0.932878492 12.3910141,1.02465549 C12.9015137,1.55905727 13.4269508,2.08028378 13.9655754,2.5871139 L13.1517635,3.58309999 Z M14.9902622,4.73153359 C14.9124498,4.68403835 14.8347623,4.63647884 14.7575124,4.58821237 L13.9617629,4.09005865 L14.6644499,3.23000277 C14.9627622,3.49819984 15.2651995,3.76164096 15.5708243,4.02084028 L14.9902622,4.73153359 Z M16.8460109,5.76138977 C16.4994486,5.58747621 16.1566989,5.40572176 15.8183241,5.21619069 L16.3005738,4.62587436 C16.5966361,4.86540718 16.8956358,5.1005054 17.1973856,5.33116902 L16.8460109,5.76138977 Z M17.7261352,6.18241996 L17.9584476,5.89809122 C18.4011348,6.22053184 18.8512594,6.53455314 19.3079466,6.8397695 C18.773697,6.63847709 18.2461349,6.41906065 17.7261352,6.18241996 Z" id="Shape"></path>
                        </g>
                    </g>
                    <g id="Group-8-Copy-13" transform="translate(193.000000, 215.000000)">
                        <g id="Rectangle-Copy-62">
                            <use fill="black" fill-opacity="1" filter="url(#filter-15)" xlink:href="#path-14"></use>
                            <use fill="#FFFFFF" fill-rule="evenodd" xlink:href="#path-14"></use>
                        </g>
                        <g id="Group-3-Copy-3" transform="translate(13.000000, 12.000000)" fill="#8E9EA4" fill-rule="nonzero">
                            <g id="boot">
                                <path d="M28.7144787,16.7493741 C28.7854372,16.3279458 28.7313519,15.8829046 28.5362585,15.4700424 L28.3947391,15.1704553 C27.9930194,14.3203854 27.0918061,13.8246803 26.1521877,13.9373354 L23.1339212,14.2986884 C22.6953872,14.3510993 22.2557737,14.2745682 21.8617805,14.0774358 C21.8614396,14.0772667 21.8610419,14.0770977 21.8606442,14.0769286 L15.0924259,10.6861165 C15.053339,10.6665047 14.7774018,10.3748638 14.6999666,10.2457528 C14.6415636,10.1484264 14.4989647,9.86056134 14.4849889,9.8297911 C14.233765,9.27615233 14.0139014,8.55062856 13.9009018,7.91578117 L12.7642583,1.52611122 C12.7593725,1.49849691 12.7538617,1.47110802 12.7477259,1.44400091 C12.5892765,0.738877915 12.035868,0.201864086 11.3446329,0.0469985179 C11.2116921,0.0172426882 11.0733542,0.0107617783 10.9323461,0.00157579296 C10.7141301,-0.0126258531 10.3272952,0.0701043705 10.0750487,0.211782696 C9.78007926,0.377468566 9.51601574,0.601933471 9.3373411,0.897406607 L8.6202564,2.08284956 C8.20984443,2.76148536 7.67007088,3.33541219 7.01593419,3.78873775 C6.82299966,3.92241356 6.77584546,4.18593299 6.91060421,4.37726073 C7.04541977,4.56864481 7.31101721,4.61542008 7.50389493,4.48174426 C7.91220485,4.1987821 8.28142791,3.87473661 8.60957569,3.51304548 L9.72286928,10.1266168 C9.90285061,11.1958542 10.5240362,12.1591992 11.4270107,12.7697009 L16.0928335,15.9239879 C16.7768534,16.3864431 17.5689872,16.6165999 18.3603823,16.6165436 C19.2014314,16.6165436 20.0416284,16.3564618 20.7497935,15.838778 L21.8924023,15.0035296 C22.3229826,15.1461097 22.7802079,15.1926031 23.2360129,15.1379381 L26.2542793,14.7765851 C26.8281971,14.7081692 27.3777991,15.010405 27.6231146,15.5292723 L27.764634,15.8288594 C28.0422189,16.4161989 27.8534316,17.110558 27.3158169,17.4798008 C25.9527765,18.4158132 24.3560104,18.9106166 22.6982846,18.9106166 L15.4444916,18.9106166 C14.3526163,18.9106166 13.2891471,18.6966339 12.2836832,18.2746421 L10.4596679,17.5091058 C10.2428722,17.4181476 9.99284128,17.5185735 9.90120306,17.7336834 C9.80950802,17.9486805 9.91086115,18.1967021 10.1275432,18.2876603 L11.9516154,19.0531403 C13.0627501,19.5194277 14.2379123,19.7558963 15.4444348,19.7558963 L22.6982278,19.7558963 C24.53014,19.7558963 26.2946161,19.209133 27.8008234,18.1747797 C27.9228562,18.0909788 28.0334698,17.9966393 28.1330617,17.8942409 C28.2358351,18.9253818 27.7811096,19.9647507 26.8850094,20.5856219 L26.4405668,20.8935496 C24.8505045,21.9952479 22.9847322,22.5776281 21.0451038,22.5776281 L16.9192818,22.5776281 C16.8366768,22.5776281 16.7532195,22.573007 16.6711826,22.5638773 C16.5932929,22.5551986 16.5079609,22.53863 16.4026877,22.5118046 L10.5896544,21.0278453 C10.2104892,20.9310262 9.80280417,20.9938628 9.47102041,21.2003503 C9.13935027,21.4067813 8.90494277,21.7436196 8.8278485,22.1244716 L8.79711305,22.276294 C8.7238252,22.4575341 8.54617317,22.5776281 8.34772785,22.5776281 L7.46816,22.5776281 L7.46816,21.4280838 C7.46816,21.1946583 7.27744115,21.0054158 7.04206784,21.0054158 C6.80669453,21.0054158 6.61597568,21.1946583 6.61597568,21.4280838 L6.61597568,22.5776281 L5.4338824,22.5776281 L5.4338824,21.4280838 C5.4338824,21.1946583 5.24316355,21.0054158 5.00779024,21.0054158 C4.77241693,21.0054158 4.58169808,21.1946583 4.58169808,21.4280838 L4.58169808,22.5776281 L3.39977523,22.5776281 L3.39977523,21.4280838 C3.39977523,21.1946583 3.20905638,21.0054158 2.97368307,21.0054158 C2.73830976,21.0054158 2.54759091,21.1946583 2.54759091,21.4280838 L2.54759091,22.5776281 L1.71574539,22.5776281 C1.52076561,22.5776281 1.34322721,22.4561815 1.27391622,22.275505 C0.717894358,20.8259791 0.711531382,19.2271104 1.25596354,17.7733578 L1.40197112,17.3834325 L4.78718812,17.0781534 C6.05699958,16.9636386 7.35328556,17.1515286 8.53679914,17.6215918 C8.58872558,17.642218 8.64224275,17.6519676 8.69502137,17.6519676 C8.86409474,17.6519676 9.02402133,17.5514853 9.09071895,17.3863066 C9.17815307,17.1696188 9.0719709,16.9235696 8.85347084,16.8368382 C7.54565196,16.3174637 6.11261881,16.1099055 4.71003704,16.2363678 L1.40412999,16.5344333 L1.25772472,16.0502811 C1.12904489,15.6247389 1.05388223,15.1906871 1.03013469,14.7567479 L2.09576278,14.9074995 C2.22830585,14.9262659 2.36011036,14.9353956 2.49060819,14.9353956 C3.73491092,14.9353956 4.85121557,14.1055573 5.17737492,12.8811162 L5.68118629,10.9902121 C5.79782192,10.5525534 5.80367358,10.0883512 5.69822998,9.64787478 L4.73651156,5.63027421 L5.5716522,5.39358011 C5.67317576,5.36478233 5.77543788,5.3331104 5.87554113,5.29940967 C6.09841574,5.22440018 6.21772154,4.98438109 6.14210438,4.76335389 C6.06648723,4.54232668 5.82475094,4.42397963 5.60164909,4.49893276 C5.51461266,4.52823775 5.42570143,4.5557957 5.33747195,4.58081765 L3.10355596,5.21397437 C3.09628399,5.21605953 3.08935289,5.21887732 3.08213773,5.22101884 L2.36209879,4.48456205 C2.04622247,4.1614746 1.59496246,4.03439241 1.15506492,4.14451153 C0.715110556,4.254687 0.37878181,4.57901427 0.255328708,5.01205176 L0.227945185,5.10819465 C0.067734532,5.67034314 0.0703478972,6.26382542 0.235614844,6.82456501 L1.36731562,10.6645887 C1.3232861,10.7833865 1.27692727,10.883418 1.22835277,10.9565677 C0.180450112,12.5366136 -0.106338319,14.4817319 0.441502576,16.2932307 L0.646878998,16.9723737 L0.457125955,17.4790682 C-0.159287372,19.1249375 -0.152072211,20.9351402 0.477407942,22.5762192 C0.67176278,23.0827446 1.16943842,23.4230769 1.71574539,23.4230769 L8.34761422,23.4230769 C8.9175551,23.4230769 9.42534333,23.0639782 9.61111951,22.5295003 C9.61725524,22.5116356 9.62225472,22.4933763 9.62606115,22.4748916 L9.66327319,22.2909465 C9.69497445,22.1343339 9.78746486,22.0013344 9.92392797,21.9164626 C10.0602775,21.8315909 10.2213403,21.8067944 10.3772332,21.8465251 L16.1902665,23.3305408 C16.3350243,23.3675102 16.4576252,23.3908414 16.5760788,23.4040287 C16.6895329,23.4166524 16.8049755,23.4230769 16.919225,23.4230769 L21.0451606,23.4230769 C23.1601685,23.4230769 25.1946734,22.7880605 26.9285844,21.5866688 L27.3730269,21.2787411 C28.8389544,20.2629853 29.3891246,18.3781112 28.7144787,16.7493741 L28.7144787,16.7493741 Z M16.3723499,14.9960907 C16.3404782,15.0036987 16.3104813,15.0150262 16.2823025,15.0289461 L15.4204032,14.4462841 C15.5579458,14.3831093 15.7033852,14.3088325 15.8491656,14.2220446 C16.5480135,13.806252 16.9835365,13.2707034 17.131987,12.6549043 L18.3098762,13.2450052 C18.3098194,13.2470904 18.3095353,13.2490628 18.3095353,13.2510916 C18.305388,14.5154326 16.3916661,14.9914132 16.3723499,14.9960907 L16.3723499,14.9960907 Z M13.1702389,12.9250737 C13.2744895,12.8888369 13.3821488,12.8474155 13.490717,12.8000203 C14.179282,12.4993061 14.6580391,12.0694245 14.9046613,11.5390043 L16.3334903,12.2548349 C16.2649747,13.2407222 15.0251033,13.7248179 14.5681053,13.8700467 L13.1702389,12.9250737 Z M12.7382383,6.24415726 C12.4313951,6.77221053 11.9130398,7.10408947 11.1937394,7.23043904 C10.7168571,7.31424002 10.2865608,7.28132827 10.1043638,7.26019487 L9.81774581,5.55751895 C10.3944473,5.48915944 11.6121619,5.25663566 12.4248049,4.48225147 L12.7382383,6.24415726 Z M10.5610778,9.79366707 C10.5507379,9.79169462 10.5404549,9.79062387 10.5301719,9.78944039 L10.2493488,8.12114148 C10.3370101,8.12643892 10.4364884,8.13010204 10.5458521,8.13010204 C10.770147,8.13010204 11.0343241,8.11488599 11.3139542,8.06777259 C11.9653639,7.95793526 12.5107619,7.70839205 12.9321954,7.33402088 L13.0618411,8.06275693 C13.0618979,8.06303871 13.0619547,8.06337685 13.0620115,8.06371498 C13.0632046,8.07036496 13.0657611,8.08445389 13.0696244,8.10485467 C13.0958148,8.24664571 13.1314361,8.41283878 13.175977,8.59458603 C13.1618875,8.61515588 13.1491616,8.63696555 13.1385945,8.66046589 C12.4791743,10.1275748 10.6415808,9.80848863 10.5610778,9.79366707 Z M10.0680607,1.33236019 C10.1699252,1.16391289 10.3192847,1.0313642 10.4931303,0.947619569 C10.5124465,0.938320872 10.6326045,0.891658321 10.6743047,0.880612597 C10.7577051,0.858521147 10.8444007,0.846855509 10.9324029,0.846855509 C11.4224089,0.846855509 11.8399224,1.19428864 11.925084,1.67297427 L12.2199398,3.33062196 C11.7509543,4.39016619 10.240202,4.65808137 9.67707858,4.72176335 L9.31569562,2.57500422 C9.32751257,2.5561814 10.0680607,1.33236019 10.0680607,1.33236019 L10.0680607,1.33236019 Z M10.7622501,10.6701679 C10.8521839,10.6768178 10.9467764,10.68065 11.0454594,10.68065 C11.8191859,10.68065 12.824877,10.4547199 13.4983867,9.66861369 C13.6197946,10.0017888 13.767961,10.3413885 13.9446472,10.6385523 C14.0261729,10.776962 14.1098574,10.8991976 14.1959848,11.0056536 C13.9349323,11.916306 12.6748926,12.2183727 12.2398809,12.2961436 L11.9069609,12.0710588 C11.3941164,11.7243583 10.997453,11.2328799 10.7622501,10.6701679 L10.7622501,10.6701679 Z M20.2442778,15.1582261 C19.3742544,15.7942006 18.2519277,15.9364989 17.2674843,15.5789781 C17.4400233,15.5052648 17.6303444,15.4128414 17.8211201,15.2993409 C18.550249,14.8655144 18.9925327,14.3012808 19.1212693,13.6515555 L21.0105051,14.5980501 L20.2442778,15.1582261 Z M1.05342773,6.58730735 C0.93321293,6.17923545 0.931281312,5.74732508 1.04786013,5.33823877 L1.07524365,5.24203953 C1.13228319,5.04203301 1.29584577,4.98099975 1.3635092,4.96403667 C1.43117264,4.94701724 1.6043933,4.92379867 1.75028726,5.07302867 L2.33198828,5.6679762 C2.00645387,5.99286703 1.80891754,6.43824643 1.80891754,6.9162558 L1.80891754,7.85384621 C1.80891754,8.11539319 1.78204533,8.49156774 1.73364126,8.89541296 L1.05342773,6.58730735 Z M1.94021074,11.4211081 C2.4536802,10.646893 2.66110186,8.58376573 2.66110186,7.85384621 L2.66110186,6.9162558 C2.66110186,6.50536611 2.93925483,6.13956101 3.33756578,6.02668047 L3.91619893,5.86268527 L4.86905463,9.84314741 C4.94217205,10.1486519 4.93808156,10.4706122 4.85723768,10.7742006 L4.3534263,12.6651046 C4.10345224,13.6033713 3.18474072,14.2075048 2.21597759,14.0706168 L1.04979175,13.9056072 C1.13875979,13.0295008 1.4388423,12.1771203 1.94021074,11.4211081 L1.94021074,11.4211081 Z" id="Shape"></path>
                            </g>
                        </g>
                    </g>
                    <g id="Group-9-Copy-2" transform="translate(253.000000, 215.000000)">
                        <g id="Rectangle-Copy-63">
                            <use fill="black" fill-opacity="1" filter="url(#filter-17)" xlink:href="#path-16"></use>
                            <use fill="#FFFFFF" fill-rule="evenodd" xlink:href="#path-16"></use>
                        </g>
                        <g id="sneakers" opacity="0.899999976" transform="translate(8.000000, 14.000000)" fill="#8E9EA4" fill-rule="nonzero">
                            <path d="M33.4023134,16.3863349 L33.4023134,12.167442 C33.4023134,11.3956626 33.1621098,10.6534302 32.7076687,10.0210456 L32.5551923,9.80884988 C32.5142175,9.7518247 32.492568,9.68490741 32.492568,9.61527463 L32.492568,4.47486274 C32.492568,3.73954837 31.8781462,3.14136596 31.1228695,3.14136596 L30.1783255,3.14136596 C29.9032568,3.14136596 29.6802533,3.3584754 29.6802533,3.62627388 C29.6802533,3.89407236 29.9032568,4.1111818 30.1783255,4.1111818 L31.1228695,4.1111818 C31.3288722,4.1111818 31.4964236,4.27430483 31.4964236,4.47486274 L31.4964236,9.61527463 C31.4964236,9.88481878 31.580299,10.1440182 31.739018,10.364813 L31.8914945,10.5770087 C32.2282577,11.0456237 32.4062355,11.5955739 32.4062355,12.1675067 L32.4062355,16.0997866 L8.85293394,16.0997866 L6.60516745,15.6232838 L8.62142999,13.0718276 L9.27616246,12.8988125 L9.60083911,13.6237175 C9.68252294,13.8061075 9.86554786,13.9149208 10.0576709,13.9149208 C10.1240805,13.9149208 10.1916855,13.9018607 10.2565013,13.8743825 C10.5086586,13.7673149 10.6239457,13.4815425 10.5139714,13.2360498 L10.2479345,12.6419406 L11.6629907,12.2680442 L12.0714099,13.0418926 C12.1597347,13.2091535 12.3340599,13.3052946 12.5148269,13.3052946 C12.5913972,13.3052946 12.6692293,13.2880319 12.7420142,13.2515668 C12.9866673,13.129176 13.0830941,12.8368089 12.9573806,12.5986221 L12.6458531,12.0083276 L14.2196948,11.5924705 L14.6498963,12.2110837 C14.7461902,12.3495734 14.9030498,12.4241846 15.0627649,12.4241846 C15.1588596,12.4241846 15.2560169,12.397159 15.3415525,12.3407158 C15.5693375,12.1905883 15.6289733,11.8891049 15.4747038,11.6672756 L15.2358948,11.3238962 L16.6598499,10.9476723 L17.0026564,11.4964587 C17.0964268,11.6465862 17.2605249,11.7294732 17.4287405,11.7294732 C17.5169325,11.7294732 17.606187,11.7066502 17.687074,11.6588059 C17.9220976,11.5196697 17.9968084,11.2213543 17.8538285,10.9925424 L17.6606429,10.6832358 L19.0308727,10.3211713 C19.0712497,10.3105033 19.1107634,10.297831 19.1502772,10.2850941 L19.4382293,10.7129122 C19.5338591,10.8549579 19.6929766,10.9320906 19.8552817,10.9320906 C19.9489193,10.9320906 20.0436194,10.9064228 20.1278268,10.852695 C20.3578697,10.7058649 20.4222207,10.4053513 20.2714044,10.1813238 L20.0033088,9.78305277 C20.0417599,9.74678166 20.0790821,9.70915281 20.1150097,9.67010156 L21.0976065,8.60239897 L21.5642005,9.31657135 C21.6590999,9.46184977 21.8202096,9.54131001 21.9849055,9.54131001 C22.0762851,9.54131001 22.1688601,9.516806 22.2517393,9.46547041 C22.483841,9.3217437 22.5523093,9.02207061 22.4046807,8.79603886 L21.788001,7.85214943 L22.7506084,6.80610606 L23.0863091,7.28985021 C23.1825366,7.42859853 23.3395954,7.50340365 23.4995097,7.50340365 C23.5954052,7.50340365 23.6924297,7.47644277 23.7778325,7.42025811 C24.0058167,7.27032458 24.0657182,6.96890582 23.9117807,6.74701195 L23.4360221,6.06135215 L24.3438417,5.07492013 L24.4712153,5.25724551 C24.5675757,5.39521798 24.7241696,5.46950587 24.8834863,5.46950587 C24.979913,5.46950587 25.0774024,5.44228637 25.1631372,5.38551982 C25.3905901,5.23487509 25.4495619,4.93326236 25.2948939,4.71188573 L25.0286577,4.33081276 L25.0516354,4.30585617 C25.1655943,4.18204301 25.3288292,4.11105249 25.4995683,4.11105249 L28.0556083,4.11105249 C28.3306769,4.11105249 28.5536805,3.89394305 28.5536805,3.62614457 C28.5536805,3.35834609 28.3306769,3.14123665 28.0556083,3.14123665 L27.0073988,3.14123665 C26.9482278,1.94028137 26.2657362,0.831911166 25.1956115,0.219052208 L25.0501744,0.1357127 C24.6289382,-0.105448172 24.0922156,-0.0184233642 23.7740471,0.342865364 L17.2517589,7.75044808 L8.21128417,12.1616231 L5.73101759,12.1616231 C5.45594893,12.1616231 5.23294542,12.3787325 5.23294542,12.646531 C5.23294542,12.9143295 5.45594893,13.131439 5.73101759,13.131439 L7.31741065,13.131439 L5.52866747,15.3949245 L1.05890143,14.4474144 C1.26815815,13.6903761 1.97907316,13.131439 2.82181126,13.131439 L3.60843324,13.131439 C3.8835019,13.131439 4.10650541,12.9143295 4.10650541,12.646531 C4.10650541,12.3787325 3.8835019,12.1616231 3.60843324,12.1616231 L2.82181126,12.1616231 C1.26590022,12.1617524 0,13.3941297 0,14.9089821 L0,17.5230884 C0,18.3002988 0.538316399,18.9844715 1.3091993,19.1867751 L8.5124518,21.0771401 C8.65895143,21.1156095 8.81023255,21.1351351 8.96211136,21.1351351 L32.5161434,21.1351351 C33.3343099,21.1351351 34,20.4871042 34,19.6904975 L34,17.5443597 C34,17.0709602 33.7648435,16.6499955 33.4023134,16.3863349 L33.4023134,16.3863349 Z M12.9996836,10.9100434 L13.5561298,10.638495 L13.6292468,10.7436877 L12.9996836,10.9100434 Z M14.6455797,10.475178 L14.4543864,10.2002675 L15.7868954,9.55010301 L16.1212015,10.085312 L14.6455797,10.475178 Z M19.4416826,8.94875253 L18.6042572,7.70460811 L19.6988206,6.46143351 L20.5424221,7.75264633 L19.4416826,8.94875253 Z M21.2327501,7.00239679 L20.3764644,5.69178766 L21.2717325,4.67496808 L22.1757003,5.97775403 L21.2327501,7.00239679 Z M22.861114,5.23300011 L21.9440636,3.91139974 L22.8289054,2.90647656 L23.7666757,4.24889565 L22.861114,5.23300011 Z M24.5302535,0.974150823 C24.5339724,0.969948288 24.5402813,0.968913818 24.5449964,0.971693956 L24.6904335,1.05503346 C25.4576639,1.4944247 25.9520835,2.28282032 26.0100591,3.14136596 L25.4995683,3.14136596 C25.1163184,3.14136596 24.7476122,3.27649363 24.4597929,3.51662004 L23.5005723,2.14355477 L24.5302535,0.974150823 Z M17.7876845,8.57382173 C17.8408122,8.54789532 17.8882287,8.51259402 17.9286722,8.47031005 L18.5786231,9.43592336 L17.1218617,9.82081094 L16.6804369,9.11407381 L17.7876845,8.57382173 Z M0.996144335,17.5230884 L0.996144335,15.4267344 L8.30126921,16.9753364 L8.30126921,20.0172607 L1.56846246,18.2503856 C1.23150004,18.1619384 0.996144335,17.8628472 0.996144335,17.5230884 Z M32.5161434,20.1653193 L9.29741354,20.1653193 L9.29741354,19.1023365 L28.4180056,19.1023365 C28.6930743,19.1023365 28.9160778,18.885227 28.9160778,18.6174286 C28.9160778,18.3496301 28.6930743,18.1325206 28.4180056,18.1325206 L9.29741354,18.1325206 L9.29741354,17.0695378 L32.5161434,17.0695378 C32.785036,17.0695378 33.0038557,17.2825094 33.0038557,17.5443597 L33.0038557,18.1325206 L30.5406564,18.1325206 C30.2655877,18.1325206 30.0425842,18.3496301 30.0425842,18.6174286 C30.0425842,18.885227 30.2655877,19.1023365 30.5406564,19.1023365 L33.0038557,19.1023365 L33.0038557,19.6904975 C33.0038557,19.9523477 32.785036,20.1653193 32.5161434,20.1653193 Z" id="Shape"></path>
                            <path d="M25.9543414,9.96285663 L25.8791657,10.1880479 L25.6359073,10.1880479 C25.2402388,10.1880479 24.8921859,10.4341871 24.7699258,10.8005836 C24.6476657,11.16698 24.7805514,11.5653157 25.1007121,11.7917353 L25.2974839,11.9308716 L25.2223082,12.1560628 C25.100048,12.5224593 25.2329337,12.9207303 25.5530945,13.1472146 C25.7131417,13.2604245 25.9006825,13.3170617 26.088356,13.3170617 C26.2758968,13.3170617 26.463504,13.2604891 26.6235512,13.1472793 L26.8203229,13.0080784 L27.0170946,13.1472146 C27.337189,13.3736343 27.7673905,13.3736989 28.0874849,13.1472146 C28.4076457,12.920795 28.5405314,12.5224593 28.4182712,12.1560628 L28.3430955,11.9308716 L28.5398673,11.7916707 C28.860028,11.565251 28.9929137,11.1669153 28.8706536,10.8005189 C28.7483935,10.4341225 28.4003406,10.1879832 28.0046721,10.1879832 L27.7614137,10.1879832 L27.686238,9.96279198 C27.5639779,9.59639555 27.215925,9.35019164 26.8202565,9.35019164 C26.424588,9.35019164 26.076668,9.59646021 25.9543414,9.96285663 Z M27.6993207,11.1578637 L27.7412915,11.1578637 L27.7072898,11.1819151 C27.3871954,11.4083348 27.2542434,11.8066705 27.3765699,12.1730669 L27.3895198,12.2119889 L27.3555181,12.1879374 C27.1954709,12.0747276 27.0079301,12.0180904 26.8203229,12.0180904 C26.6327821,12.0180904 26.445175,12.074663 26.2851278,12.1878728 L26.251126,12.2119242 L26.2640759,12.1730023 C26.386336,11.8066059 26.2534504,11.4082702 25.9332896,11.1818505 L25.8992879,11.1577991 L25.9412587,11.1577991 C26.3369937,11.1577991 26.6850465,10.9115951 26.8072402,10.5452634 L26.8202565,10.5062768 L26.8332064,10.5451341 C26.9555329,10.9117245 27.3035857,11.1578637 27.6993207,11.1578637 L27.6993207,11.1578637 Z" id="Shape"></path>
                            <path d="M22.964381,11.3343702 C22.964381,13.4043451 24.6941524,15.088398 26.8203229,15.088398 C28.9464934,15.088398 30.6762648,13.4043451 30.6762648,11.3343702 C30.6762648,9.26439526 28.9464934,7.58034238 26.8203229,7.58034238 C24.6941524,7.58034238 22.964381,9.26439526 22.964381,11.3343702 Z M29.6801205,11.3343702 C29.6801205,12.8695887 28.3972194,14.1185822 26.8203229,14.1185822 C25.2434264,14.1185822 23.9605253,12.8695887 23.9605253,11.3343702 C23.9605253,9.79915172 25.2434264,8.55015822 26.8203229,8.55015822 C28.3972194,8.55015822 29.6801205,9.79915172 29.6801205,11.3343702 Z" id="Shape"></path>
                            <path d="M21.1440268,13.8646844 L20.7146222,13.8646844 C20.4395536,13.8646844 20.2165501,14.0817938 20.2165501,14.3495923 C20.2165501,14.6173908 20.4395536,14.8345002 20.7146222,14.8345002 L21.1440268,14.8345002 C21.4190955,14.8345002 21.642099,14.6173908 21.642099,14.3495923 C21.642099,14.0817938 21.4190955,13.8646844 21.1440268,13.8646844 Z" id="Path"></path>
                            <path d="M17.982464,13.8646844 C17.7073953,13.8646844 17.4843918,14.0817938 17.4843918,14.3495923 C17.4843918,14.6173908 17.7073953,14.8345002 17.982464,14.8345002 L18.4118686,14.8345002 C18.6869372,14.8345002 18.9099407,14.6173908 18.9099407,14.3495923 C18.9099407,14.0817938 18.6869372,13.8646844 18.4118686,13.8646844 L17.982464,13.8646844 Z" id="Path"></path>
                        </g>
                    </g>
                    <g id="Group-10" transform="translate(279.000000, 70.000000)">
                        <g id="Rectangle">
                            <use fill="black" fill-opacity="1" filter="url(#filter-19)" xlink:href="#path-18"></use>
                            <use fill="#FFFFFF" fill-rule="evenodd" xlink:href="#path-18"></use>
                        </g>
                        <g id="Group-9" transform="translate(15.000000, 13.000000)">
                            <g id="Group-8">
                                <path d="M7.69744842,0 L7.69744842,3.5066428 C7.69744842,3.75925133 7.49695753,3.96403099 7.24963948,3.96403099 C7.02293126,3.96403099 6.83557087,3.79195919 6.8059185,3.56870767 L6.80183053,3.5066428 L6.801,1.557 L4.34692925,4.06430485 C4.18794718,4.22668776 3.93916622,4.24144984 3.76385708,4.1085911 L3.71363177,4.06430485 L2.83612332,3.16823254 L0.764457687,5.28400669 C0.605475622,5.4463896 0.356694657,5.46115169 0.181385519,5.32829294 L0.131160203,5.28400669 C-0.0278218613,5.12162379 -0.0422747763,4.86752106 0.0878014585,4.68846182 L0.131160203,4.63716211 L2.51947458,2.19775842 C2.67845664,2.03537551 2.92723761,2.02061343 3.10254675,2.15347217 L3.15277206,2.19775842 L4.03028051,3.09383073 L6.164,0.914 L4.26424651,0.914776383 C4.03753829,0.914776383 3.8501779,0.742704578 3.82052553,0.51945306 L3.81643756,0.457388192 C3.81643756,0.225830379 3.9849056,0.0344620896 4.20348149,0.00417541508 L4.26424651,0 L7.69744842,0 Z" id="Combined-Shape" fill="#1E3D49" fill-rule="nonzero"></path>
                                <g id="Group-Copy-2" opacity="0.218341206" transform="translate(13.473684, 0.000000)" fill="#243C47">
                                    <rect id="Rectangle-Copy-50" x="0" y="0" width="50.5263158" height="4.85714286" rx="2.42857143"></rect>
                                    <rect id="Rectangle-Copy-51" x="0" y="12.1428571" width="36.3157895" height="4.85714286" rx="2.42857143"></rect>
                                </g>
                            </g>
                            <path d="M7.69744842,11.468254 L7.69744842,14.9748968 C7.69744842,15.2275053 7.49695753,15.432285 7.24963948,15.432285 C7.02293126,15.432285 6.83557087,15.2602132 6.8059185,15.0369616 L6.80183053,14.9748968 L6.801,13.025254 L4.34692925,15.5325588 C4.18794718,15.6949417 3.93916622,15.7097038 3.76385708,15.5768451 L3.71363177,15.5325588 L2.83612332,14.6364865 L0.764457687,16.7522607 C0.605475622,16.9146436 0.356694657,16.9294057 0.181385519,16.7965469 L0.131160203,16.7522607 C-0.0278218613,16.5898778 -0.0422747763,16.335775 0.0878014585,16.1567158 L0.131160203,16.1054161 L2.51947458,13.6660124 C2.67845664,13.5036295 2.92723761,13.4888674 3.10254675,13.6217261 L3.15277206,13.6660124 L4.03028051,14.5620847 L6.164,12.382254 L4.26424651,12.3830304 C4.03753829,12.3830304 3.8501779,12.2109585 3.82052553,11.987707 L3.81643756,11.9256422 C3.81643756,11.6940843 3.9849056,11.5027161 4.20348149,11.4724294 L4.26424651,11.468254 L7.69744842,11.468254 Z" id="Combined-Shape-Copy" fill="#1E3D49" fill-rule="nonzero"></path>
                        </g>
                    </g>
                    <g id="Group-13" transform="translate(346.019231, 41.500000)">
                        <circle id="Oval" fill="#FDCB5B" cx="17.5" cy="18.2280431" r="17.5269646"></circle>
                        <path d="M23.8097072,11.9183359 L23.8097072,18.2709059 C23.8097072,18.7285269 23.4079745,19.099502 22.912412,19.099502 C22.4581464,19.099502 22.0827238,18.7877799 22.023308,18.3833415 L22.0151168,18.2709059 L22.0139784,14.7383359 L17.096119,19.2811563 C16.7775594,19.5753262 16.2790656,19.6020689 15.9277907,19.3613845 L15.8271519,19.2811563 L14.0688482,17.6578481 L9.9177572,21.4907459 C9.59919757,21.7849158 9.1007038,21.8116585 8.74942887,21.570974 L8.64879012,21.4907459 C8.33023049,21.196576 8.30127053,20.7362481 8.56191022,20.4118677 L8.64879012,20.3189341 L13.4343647,15.8997549 C13.7529243,15.605585 14.2514181,15.5788423 14.602693,15.8195267 L14.7033317,15.8997549 L16.4616355,17.5230631 L20.7369784,13.5743359 L16.9304438,13.5755281 C16.4761782,13.5755281 16.1007557,13.2638059 16.0413399,12.8593676 L16.0331486,12.746932 C16.0331486,12.3274461 16.3707157,11.9807668 16.8086862,11.9259 L16.9304438,11.9183359 L23.8097072,11.9183359 Z" id="Combined-Shape" fill="#1E3D49" fill-rule="nonzero"></path>
                    </g>
                    <g id="Group-12" transform="translate(228.000000, 7.000000)">
                        <g id="Group-7" transform="translate(13.000000, 24.000000)">
                            <g id="Rectangle-Copy-2">
                                <use fill="black" fill-opacity="1" filter="url(#filter-21)" xlink:href="#path-20"></use>
                                <use fill="#FFFFFF" fill-rule="evenodd" xlink:href="#path-20"></use>
                            </g>
                            <g id="Group-2" transform="translate(30.176471, 13.500000)" fill="#243C47" opacity="0.218341206">
                                <g id="Group">
                                    <rect id="Rectangle-Copy-50" x="0" y="0" width="50.2941176" height="4.76470588" rx="2.38235294"></rect>
                                    <rect id="Rectangle-Copy-51" x="0" y="11.9117647" width="36.1488971" height="4.76470588" rx="2.38235294"></rect>
                                </g>
                            </g>
                        </g>
                        <polyline id="Path-30-Copy" stroke="#1E3D49" stroke-linecap="round" stroke-linejoin="round" points="37 37 32 42 29 39"></polyline>
                        <polyline id="Path-30-Copy-2" stroke="#1E3D49" stroke-linecap="round" stroke-linejoin="round" points="36 50 31.625 54 29 51.6"></polyline>
                        <g id="Group-5">
                            <circle id="Oval-Copy" fill="#8B6391" cx="17.5" cy="17.5" r="17.5"></circle>
                            <path d="M24.1035378,17.0459454 L19.5391902,12.8254893 C19.4088977,12.7050161 19.2352428,12.6388889 19.0500795,12.6388889 C18.8647107,12.6388889 18.6911586,12.7051111 18.5608661,12.8254893 L18.1464579,13.2087612 C18.0162681,13.3290443 17.9445456,13.4897068 17.9445456,13.6610106 C17.9445456,13.8322193 18.0162681,13.9982974 18.1464579,14.1185806 L20.8092338,16.5860951 L12.3494692,16.5860951 C11.9680451,16.5860951 11.6666667,16.8621953 11.6666667,17.2149689 L11.6666667,17.7568131 C11.6666667,18.1095866 11.9680451,18.4135248 12.3494692,18.4135248 L20.8394435,18.4135248 L18.1465606,20.8948159 C18.0163709,21.0152891 17.9446484,21.1715811 17.9446484,21.3428849 C17.9446484,21.5139986 18.0163709,21.6725709 18.1465606,21.792949 L18.5609689,22.1749858 C18.6912614,22.2954589 18.8648135,22.3611111 19.0501823,22.3611111 C19.2353456,22.3611111 19.4090004,22.2946038 19.5392929,22.1741307 L24.1036405,17.9537696 C24.2342413,17.8329164 24.3060666,17.6715887 24.3055556,17.500095 C24.3059638,17.3280312 24.2342413,17.1666086 24.1035378,17.0459454 Z" id="Path-Copy" fill="#FFFFFF" fill-rule="nonzero"></path>
                        </g>
                    </g>
                    <g id="Group-6" transform="translate(10.000000, 56.000000)">
                        <g id="Group-4-Copy-2">
                            <g id="Rectangle">
                                <use fill="black" fill-opacity="1" filter="url(#filter-23)" xlink:href="#path-22"></use>
                                <use fill="#FFFFFF" fill-rule="evenodd" xlink:href="#path-22"></use>
                            </g>
                            <g id="Group-Copy-2" opacity="0.218341206" transform="translate(31.764706, 16.170732)" fill="#243C47">
                                <rect id="Rectangle-Copy-50" x="0" y="0" width="57.1764706" height="5.26829268" rx="2.63414634"></rect>
                                <rect id="Rectangle-Copy-51" x="0" y="13.1707317" width="41.0955882" height="5.26829268" rx="2.63414634"></rect>
                            </g>
                        </g>
                        <path d="M20.8788709,10.1228963 C21.0340987,10.2685511 21.0513463,10.4946489 20.9306135,10.6581799 L20.8788709,10.7162919 L20.1665743,11.3846425 C22.7019416,11.733084 24.6608118,14.0423418 24.6608118,16.8391882 C24.6608118,17.0702898 24.6474143,17.2997353 24.6208485,17.5266123 C24.5891273,17.7975182 24.5386846,18.0642943 24.470116,18.3252518 C23.8511681,20.6808363 21.8289991,22.3391882 19.5,22.3391882 C16.6497624,22.3391882 14.3391882,19.8767543 14.3391882,16.8391882 C14.3391882,16.5922222 14.5270469,16.3920168 14.7587823,16.3920168 C14.9905177,16.3920168 15.1783764,16.5922222 15.1783764,16.8391882 C15.1783764,19.3828224 17.1132332,21.4448454 19.5,21.4448454 C21.4502585,21.4448454 23.1439017,20.0559127 23.6620137,18.0840885 C23.7193658,17.8658183 23.7615663,17.6426328 23.788119,17.4158672 C23.8103857,17.225705 23.8216236,17.0332455 23.8216236,16.8391882 C23.8216236,14.3144353 21.915385,12.2641703 19.5530754,12.2338713 L20.8788709,13.4796491 C21.0340987,13.6253039 21.0513463,13.8514017 20.9306135,14.0149328 L20.8788709,14.0730448 C20.7236431,14.2186996 20.4826853,14.2348835 20.3084064,14.1215964 L20.246475,14.0730448 L18.4577893,12.3946684 C18.3025615,12.2490135 18.2853139,12.0229157 18.4060467,11.8593847 L18.4577893,11.8012727 L20.246475,10.1228963 C20.4211063,9.95903458 20.7042396,9.95903458 20.8788709,10.1228963 Z M19.3660571,14.195941 C19.5855824,14.195941 19.7681612,14.3443726 19.806024,14.5401126 L19.8132285,14.6155351 L19.8132285,16.9593878 L21.4709408,18.5147783 C21.6261686,18.6604332 21.6434161,18.886531 21.5226834,19.050062 L21.4709408,19.108174 C21.3157129,19.2538289 21.0747552,19.2700127 20.9004762,19.1567256 L20.8385449,19.108174 L19.0498592,17.4297976 C18.9827704,17.3668463 18.9392007,17.2859518 18.9244563,17.199135 L18.9188857,17.1330998 L18.9188857,14.6155351 C18.9188857,14.3837997 19.1190912,14.195941 19.3660571,14.195941 Z" id="Combined-Shape-Copy-4" fill="#1E3D49" fill-rule="nonzero"></path>
                        <path d="M20.8788709,28.1228963 C21.0340987,28.2685511 21.0513463,28.4946489 20.9306135,28.6581799 L20.8788709,28.7162919 L20.1665743,29.3846425 C22.7019416,29.733084 24.6608118,32.0423418 24.6608118,34.8391882 C24.6608118,35.0702898 24.6474143,35.2997353 24.6208485,35.5266123 C24.5891273,35.7975182 24.5386846,36.0642943 24.470116,36.3252518 C23.8511681,38.6808363 21.8289991,40.3391882 19.5,40.3391882 C16.6497624,40.3391882 14.3391882,37.8767543 14.3391882,34.8391882 C14.3391882,34.5922222 14.5270469,34.3920168 14.7587823,34.3920168 C14.9905177,34.3920168 15.1783764,34.5922222 15.1783764,34.8391882 C15.1783764,37.3828224 17.1132332,39.4448454 19.5,39.4448454 C21.4502585,39.4448454 23.1439017,38.0559127 23.6620137,36.0840885 C23.7193658,35.8658183 23.7615663,35.6426328 23.788119,35.4158672 C23.8103857,35.225705 23.8216236,35.0332455 23.8216236,34.8391882 C23.8216236,32.3144353 21.915385,30.2641703 19.5530754,30.2338713 L20.8788709,31.4796491 C21.0340987,31.6253039 21.0513463,31.8514017 20.9306135,32.0149328 L20.8788709,32.0730448 C20.7236431,32.2186996 20.4826853,32.2348835 20.3084064,32.1215964 L20.246475,32.0730448 L18.4577893,30.3946684 C18.3025615,30.2490135 18.2853139,30.0229157 18.4060467,29.8593847 L18.4577893,29.8012727 L20.246475,28.1228963 C20.4211063,27.9590346 20.7042396,27.9590346 20.8788709,28.1228963 Z M19.3660571,32.195941 C19.5855824,32.195941 19.7681612,32.3443726 19.806024,32.5401126 L19.8132285,32.6155351 L19.8132285,34.9593878 L21.4709408,36.5147783 C21.6261686,36.6604332 21.6434161,36.886531 21.5226834,37.050062 L21.4709408,37.108174 C21.3157129,37.2538289 21.0747552,37.2700127 20.9004762,37.1567256 L20.8385449,37.108174 L19.0498592,35.4297976 C18.9827704,35.3668463 18.9392007,35.2859518 18.9244563,35.199135 L18.9188857,35.1330998 L18.9188857,32.6155351 C18.9188857,32.3837997 19.1190912,32.195941 19.3660571,32.195941 Z" id="Combined-Shape-Copy-5" fill="#1E3D49" fill-rule="nonzero"></path>
                    </g>
                    <g id="Group-14" transform="translate(93.000000, 82.000000)">
                        <circle id="Oval-Copy-2" fill="#D44A6F" cx="17.5" cy="17.5" r="17.5"></circle>
                        <path d="M20.3802785,7.1843444 C20.5919528,7.40282666 20.6154722,7.74197333 20.4508366,7.98726989 L20.3802785,8.07443791 L18.7437823,9.762 C22.9099401,9.89076479 26.2412177,13.197865 26.2412177,17.2587823 C26.2412177,17.5739208 26.2211214,17.8868011 26.1812728,18.1961788 C26.133691,18.565596 26.0580269,18.9293815 25.9551741,19.2852326 C25.0267522,22.4973933 21.9934987,24.7587823 18.5,24.7587823 C14.2246435,24.7587823 10.7587823,21.4009179 10.7587823,17.2587823 C10.7587823,16.9220105 11.0405703,16.6490031 11.3881735,16.6490031 C11.7357766,16.6490031 12.0175646,16.9220105 12.0175646,17.2587823 C12.0175646,20.7273744 14.9198498,23.5392239 18.5,23.5392239 C21.4253877,23.5392239 23.9658526,21.6452248 24.7430205,18.9563736 C24.8290488,18.6587325 24.8923495,18.3543886 24.9321785,18.0451628 C24.9655786,17.7858507 24.9824354,17.5234059 24.9824354,17.2587823 C24.9824354,14.0244103 22.4588757,11.3610811 19.2153018,11.0161412 L20.3802785,12.2194736 C20.5919528,12.4379559 20.6154722,12.7771026 20.4508366,13.0223991 L20.3802785,13.1095672 C20.1686042,13.3280494 19.8400254,13.3523252 19.6023723,13.1823946 L19.5179205,13.1095672 L17.0788036,10.5920025 C16.8671293,10.3735203 16.8436099,10.0343736 17.0082455,9.78907704 L17.0788036,9.70190902 L19.5179205,7.1843444 C19.7560541,6.93855187 20.1421449,6.93855187 20.3802785,7.1843444 Z M18.3173506,13.2939116 C18.6167033,13.2939116 18.8656743,13.5165589 18.9173055,13.8101689 L18.9271298,13.9233027 L18.9271298,17.4390817 L21.1876465,19.7721675 C21.3993208,19.9906498 21.4228402,20.3297964 21.2582046,20.575093 L21.1876465,20.662261 C20.9759722,20.8807433 20.6473934,20.9050191 20.4097403,20.7350884 L20.3252885,20.662261 L17.8861716,18.1446964 C17.794687,18.0502694 17.7352736,17.9289276 17.7151677,17.7987024 L17.7075714,17.6996496 L17.7075714,13.9233027 C17.7075714,13.5756996 17.9805789,13.2939116 18.3173506,13.2939116 Z" id="Combined-Shape-Copy-6" fill="#FFFFFF" fill-rule="nonzero"></path>
                    </g>
                    <g id="Group-3" transform="translate(76.000000, 211.000000)">
                        <g id="Group-Copy-2">
                            <circle id="Oval-Copy-54" stroke="#80C0A1" opacity="0.140322731" cx="111.5" cy="111.5" r="111"></circle>
                            <circle id="Oval-Copy-55" fill="#1E3D49" cx="111.5" cy="111.5" r="50.4404762"></circle>
                            <circle id="Oval-Copy-56" stroke="#80C0A1" opacity="0.79859561" cx="111.5" cy="111.5" r="64.5416667"></circle>
                            <circle id="Oval-Copy-57" stroke="#80C0A1" opacity="0.30094401" cx="111.5" cy="111.5" r="79.1428571"></circle>
                            <circle id="Oval-Copy-58" stroke="#80C0A1" opacity="0.20359003" cx="111.5" cy="111.5" r="95.0714286"></circle>
                            <g id="Group-4" transform="translate(95.571429, 142.029762)">
                                <polygon id="Path-2" fill="#1E3D49" points="14.1587578 3.5848477 4.52516234 11.0385993 6.22845767 28.9074308 11.5059392 30.0848979 22.4551513 30.0848979 23.8928571 27.386043 26.8716867 19.9107143 26.8716867 12.8550055 23.8928571 7.40578669"></polygon>
                                <g id="Group-2-Copy" fill="#80C0A1" fill-rule="nonzero">
                                    <path d="M15.9285714,18.3041393 C14.9529464,18.3041393 14.1587578,19.1192168 14.1587578,20.120503 C14.1587578,20.7839402 14.5245342,21.3405225 15.0437061,21.6575964 L15.0437061,22.8450911 C15.0437061,23.3470965 15.4395145,23.7533155 15.9286544,23.7533155 C16.4177943,23.7533155 16.8136027,23.3470965 16.8136027,22.8450911 L16.8136027,21.6575964 C17.3327746,21.3405225 17.698551,20.783855 17.698551,20.120503 C17.698385,19.1192168 16.9041964,18.3041393 15.9285714,18.3041393 Z" id="Path"></path>
                                    <path d="M15.9285714,11.0385993 C14.4646362,11.0385993 13.2738095,12.2607473 13.2738095,13.7631874 L13.2738095,14.6714118 L18.5833333,14.6714118 L18.5833333,13.7631874 C18.5833333,12.2607473 17.3924237,11.0385993 15.9285714,11.0385993 Z" id="Path"></path>
                                    <path d="M31.2668731,5.50109246 L16.22325,0.0519161756 C16.0331027,-0.0173053919 15.8240402,-0.0173053919 15.6338929,0.0519161756 L0.590269717,5.50109246 C0.236854539,5.62965896 0,5.97295706 0,6.35789028 L0,17.2562428 C0,31.3599031 2.03777865,31.4845784 15.5301912,38.4663355 C15.6554628,38.5310444 15.7920171,38.5639098 15.9285714,38.5639098 C16.0651257,38.5639098 16.2016801,38.5311296 16.3269516,38.4663355 C29.8193642,31.4845784 31.8571429,31.3599031 31.8571429,17.2562428 L31.8571429,6.35789028 C31.8571429,5.97295706 31.6202883,5.6297441 31.2668731,5.50109246 Z M23.8928571,25.5696792 C23.8928571,26.5709654 23.0986685,27.386043 22.1230435,27.386043 L9.73409933,27.386043 C8.75847433,27.386043 7.96428571,26.5709654 7.96428571,25.5696792 L7.96428571,16.4877755 C7.96428571,15.4864894 8.75847433,14.6714118 9.73409933,14.6714118 L9.73409933,13.7631874 C9.73409933,10.2580899 12.5133032,7.40578669 15.9285714,7.40578669 C19.3438397,7.40578669 22.1230435,10.2580899 22.1230435,13.7631874 L22.1230435,14.6714118 C23.0986685,14.6714118 23.8928571,15.4864894 23.8928571,16.4877755 L23.8928571,25.5696792 L23.8928571,25.5696792 Z" id="Shape"></path>
                                </g>
                            </g>
                        </g>
                        <g id="01_icon/24/user-copy" transform="translate(80.970238, 75.660714)" fill="#FFFFFF">
                            <path d="M20.8699544,20.8699544 C20.8699544,15.5435445 25.2034315,11.2101469 30.5297619,11.2101469 C35.8560923,11.2101469 40.1895694,15.5435445 40.1895694,20.8699544 C40.1895694,26.1963643 35.8560923,30.5297619 30.5297619,30.5297619 C25.2034315,30.5297619 20.8699544,26.1963643 20.8699544,20.8699544 Z M46.7207123,37.2362919 C44.2268919,34.7424715 41.2582701,32.896375 38.0197302,31.778779 C41.4884358,29.3896661 43.7674349,25.3912214 43.7674349,20.8701929 C43.7674349,13.5711152 37.8291577,7.63259949 30.5297619,7.63259949 C23.2303661,7.63259949 17.2921684,13.5708767 17.2921684,20.8701929 C17.2921684,25.3914599 19.5711675,29.3895866 23.0400322,31.778779 C19.8013333,32.8964545 16.8327909,34.7426305 14.33905,37.2362919 C10.0142389,41.5611825 7.63244048,47.3110339 7.63244048,53.4271628 L11.2102265,53.4271628 C11.2102265,42.774184 19.8768626,34.1075479 30.5298414,34.1075479 C41.1828202,34.1075479 49.8494564,42.774184 49.8494564,53.4271628 L53.4273218,53.4271628 C53.4273218,47.3109544 51.0455234,41.5611825 46.7207918,37.2362919 L46.7207123,37.2362919 Z" id="Shape"></path>
                        </g>
                    </g>
                </g>
            </g>
        </g>
    </g>
</svg>