<?xml version="1.0" encoding="UTF-8"?>
<svg width="385px" height="458px" viewBox="0 0 385 458" version="1.1" xmlns="http://www.w3.org/2000/svg" xmlns:xlink="http://www.w3.org/1999/xlink">
    <title>3_data_persistence</title>
    <defs>
        <linearGradient x1="92.6000754%" y1="18.8252811%" x2="79.3691658%" y2="75.9772737%" id="linearGradient-1">
            <stop stop-color="#D3DDE0" stop-opacity="0.352901005" offset="0%"></stop>
            <stop stop-color="#FFFFFF" stop-opacity="0.717247719" offset="31.3749579%"></stop>
            <stop stop-color="#FFFFFF" offset="100%"></stop>
        </linearGradient>
        <radialGradient cx="111.528456%" cy="68.5229736%" fx="111.528456%" fy="68.5229736%" r="42.1088598%" gradientTransform="translate(1.115285,0.685230),scale(0.694704,1.000000),rotate(90.000000),translate(-1.115285,-0.685230)" id="radialGradient-2">
            <stop stop-color="#EB9FB3" offset="0%"></stop>
            <stop stop-color="#FFFFFF" stop-opacity="0" offset="100%"></stop>
        </radialGradient>
        <radialGradient cx="11.6262598%" cy="-16.1512478%" fx="11.6262598%" fy="-16.1512478%" r="66.1219081%" gradientTransform="translate(0.116263,-0.161512),scale(0.694704,1.000000),rotate(86.568285),scale(1.000000,1.570607),translate(-0.116263,0.161512)" id="radialGradient-3">
            <stop stop-color="#BED8DC" offset="0%"></stop>
            <stop stop-color="#FFFFFF" stop-opacity="0" offset="100%"></stop>
        </radialGradient>
        <radialGradient cx="97.3161638%" cy="4.98459413%" fx="97.3161638%" fy="4.98459413%" r="42.4756261%" gradientTransform="translate(0.973162,0.049846),scale(0.694704,1.000000),rotate(90.000000),translate(-0.973162,-0.049846)" id="radialGradient-4">
            <stop stop-color="#FCEDC3" offset="0%"></stop>
            <stop stop-color="#FFFFFF" stop-opacity="0" offset="100%"></stop>
        </radialGradient>
        <radialGradient cx="3.75789757%" cy="91.8849298%" fx="3.75789757%" fy="91.8849298%" r="28.7921792%" gradientTransform="translate(0.037579,0.918849),scale(0.694704,1.000000),rotate(90.000000),translate(-0.037579,-0.918849)" id="radialGradient-5">
            <stop stop-color="#C1ADCF" offset="0%"></stop>
            <stop stop-color="#FFFFFF" stop-opacity="0" offset="100%"></stop>
        </radialGradient>
        <path d="M27,0 L294,0 C308.911688,-2.73923269e-15 321,12.0883118 321,27 L321,223 L321,223 L0,223 L0,27 C-1.82615513e-15,12.0883118 12.0883118,6.29194637e-15 27,0 Z" id="path-6"></path>
        <filter x="-15.0%" y="-17.5%" width="129.9%" height="143.0%" filterUnits="objectBoundingBox" id="filter-7">
            <feOffset dx="0" dy="9" in="SourceAlpha" result="shadowOffsetOuter1"></feOffset>
            <feGaussianBlur stdDeviation="14.5" in="shadowOffsetOuter1" result="shadowBlurOuter1"></feGaussianBlur>
            <feColorMatrix values="0 0 0 0 0.633123868   0 0 0 0 0.633123868   0 0 0 0 0.633123868  0 0 0 0 0" type="matrix" in="shadowBlurOuter1"></feColorMatrix>
        </filter>
        <path d="M33,10 L287,10 C299.702549,10 310,20.2974508 310,33 L310,213 L310,213 L10,213 L10,33 C10,20.2974508 20.2974508,10 33,10 Z" id="path-8"></path>
        <filter x="-19.5%" y="-16.5%" width="139.0%" height="166.0%" filterUnits="objectBoundingBox" id="filter-9">
            <feOffset dx="0" dy="42" in="SourceAlpha" result="shadowOffsetOuter1"></feOffset>
            <feGaussianBlur stdDeviation="12.5" in="shadowOffsetOuter1" result="shadowBlurOuter1"></feGaussianBlur>
            <feComposite in="shadowBlurOuter1" in2="SourceAlpha" operator="out" result="shadowBlurOuter1"></feComposite>
            <feColorMatrix values="0 0 0 0 0.633123868   0 0 0 0 0.633123868   0 0 0 0 0.633123868  0 0 0 0.303840691 0" type="matrix" in="shadowBlurOuter1"></feColorMatrix>
        </filter>
        <linearGradient x1="-17.2399091%" y1="6.80011603e-13%" x2="124.142272%" y2="-6.79541046e-05%" id="linearGradient-10">
            <stop stop-color="#EBEBEB" offset="0%"></stop>
            <stop stop-color="#FFFFFF" offset="43.7745848%"></stop>
            <stop stop-color="#ECECEC" offset="100%"></stop>
        </linearGradient>
        <circle id="path-11" cx="27" cy="27" r="27"></circle>
        <filter x="-48.1%" y="-24.1%" width="196.3%" height="196.3%" filterUnits="objectBoundingBox" id="filter-12">
            <feOffset dx="0" dy="13" in="SourceAlpha" result="shadowOffsetOuter1"></feOffset>
            <feGaussianBlur stdDeviation="6.5" in="shadowOffsetOuter1" result="shadowBlurOuter1"></feGaussianBlur>
            <feColorMatrix values="0 0 0 0 0   0 0 0 0 0   0 0 0 0 0  0 0 0 0.158080201 0" type="matrix" in="shadowBlurOuter1"></feColorMatrix>
        </filter>
        <radialGradient cx="51.005071%" cy="106.93506%" fx="51.005071%" fy="106.93506%" r="72.3211785%" gradientTransform="translate(0.510051,1.069351),scale(0.420000,1.000000),rotate(90.000000),scale(1.000000,1.242959),translate(-0.510051,-1.069351)" id="radialGradient-13">
            <stop stop-color="#F9F9F9" offset="0%"></stop>
            <stop stop-color="#FAFAFA" stop-opacity="0.784910402" offset="58.5527753%"></stop>
            <stop stop-color="#FFFFFF" stop-opacity="0" offset="100%"></stop>
        </radialGradient>
        <rect id="path-14" x="0" y="0" width="50" height="46.969697" rx="4.85383987"></rect>
        <filter x="-99.0%" y="-86.2%" width="298.0%" height="310.8%" filterUnits="objectBoundingBox" id="filter-15">
            <feOffset dx="0" dy="9" in="SourceAlpha" result="shadowOffsetOuter1"></feOffset>
            <feGaussianBlur stdDeviation="15" in="shadowOffsetOuter1" result="shadowBlurOuter1"></feGaussianBlur>
            <feColorMatrix values="0 0 0 0 0.764266304   0 0 0 0 0.764266304   0 0 0 0 0.764266304  0 0 0 0.5 0" type="matrix" in="shadowBlurOuter1"></feColorMatrix>
        </filter>
        <rect id="path-16" x="0" y="0" width="50" height="46.969697" rx="4.85383987"></rect>
        <filter x="-99.0%" y="-86.2%" width="298.0%" height="310.8%" filterUnits="objectBoundingBox" id="filter-17">
            <feOffset dx="0" dy="9" in="SourceAlpha" result="shadowOffsetOuter1"></feOffset>
            <feGaussianBlur stdDeviation="15" in="shadowOffsetOuter1" result="shadowBlurOuter1"></feGaussianBlur>
            <feColorMatrix values="0 0 0 0 0.764266304   0 0 0 0 0.764266304   0 0 0 0 0.764266304  0 0 0 0.5 0" type="matrix" in="shadowBlurOuter1"></feColorMatrix>
        </filter>
        <rect id="path-18" x="50" y="0" width="50" height="46.969697" rx="4.85383987"></rect>
        <filter x="-99.0%" y="-86.2%" width="298.0%" height="310.8%" filterUnits="objectBoundingBox" id="filter-19">
            <feOffset dx="0" dy="9" in="SourceAlpha" result="shadowOffsetOuter1"></feOffset>
            <feGaussianBlur stdDeviation="15" in="shadowOffsetOuter1" result="shadowBlurOuter1"></feGaussianBlur>
            <feColorMatrix values="0 0 0 0 0.764266304   0 0 0 0 0.764266304   0 0 0 0 0.764266304  0 0 0 0.5 0" type="matrix" in="shadowBlurOuter1"></feColorMatrix>
        </filter>
        <rect id="path-20" x="0" y="0" width="50" height="46.969697" rx="4.85383987"></rect>
        <filter x="-99.0%" y="-86.2%" width="298.0%" height="310.8%" filterUnits="objectBoundingBox" id="filter-21">
            <feOffset dx="0" dy="9" in="SourceAlpha" result="shadowOffsetOuter1"></feOffset>
            <feGaussianBlur stdDeviation="15" in="shadowOffsetOuter1" result="shadowBlurOuter1"></feGaussianBlur>
            <feColorMatrix values="0 0 0 0 0.764266304   0 0 0 0 0.764266304   0 0 0 0 0.764266304  0 0 0 0.5 0" type="matrix" in="shadowBlurOuter1"></feColorMatrix>
        </filter>
        <rect id="path-22" x="0" y="0" width="50" height="46.969697" rx="4.85383987"></rect>
        <filter x="-99.0%" y="-86.2%" width="298.0%" height="310.8%" filterUnits="objectBoundingBox" id="filter-23">
            <feOffset dx="0" dy="9" in="SourceAlpha" result="shadowOffsetOuter1"></feOffset>
            <feGaussianBlur stdDeviation="15" in="shadowOffsetOuter1" result="shadowBlurOuter1"></feGaussianBlur>
            <feColorMatrix values="0 0 0 0 0.764266304   0 0 0 0 0.764266304   0 0 0 0 0.764266304  0 0 0 0.5 0" type="matrix" in="shadowBlurOuter1"></feColorMatrix>
        </filter>
        <rect id="path-24" x="158" y="57" width="50" height="46.969697" rx="4.85383987"></rect>
        <filter x="-99.0%" y="-86.2%" width="298.0%" height="310.8%" filterUnits="objectBoundingBox" id="filter-25">
            <feOffset dx="0" dy="9" in="SourceAlpha" result="shadowOffsetOuter1"></feOffset>
            <feGaussianBlur stdDeviation="15" in="shadowOffsetOuter1" result="shadowBlurOuter1"></feGaussianBlur>
            <feColorMatrix values="0 0 0 0 0.764266304   0 0 0 0 0.764266304   0 0 0 0 0.764266304  0 0 0 0.5 0" type="matrix" in="shadowBlurOuter1"></feColorMatrix>
        </filter>
        <rect id="path-26" x="0" y="0" width="50" height="46.969697" rx="4.85383987"></rect>
        <filter x="-99.0%" y="-86.2%" width="298.0%" height="310.8%" filterUnits="objectBoundingBox" id="filter-27">
            <feOffset dx="0" dy="9" in="SourceAlpha" result="shadowOffsetOuter1"></feOffset>
            <feGaussianBlur stdDeviation="15" in="shadowOffsetOuter1" result="shadowBlurOuter1"></feGaussianBlur>
            <feColorMatrix values="0 0 0 0 0.764266304   0 0 0 0 0.764266304   0 0 0 0 0.764266304  0 0 0 0.5 0" type="matrix" in="shadowBlurOuter1"></feColorMatrix>
        </filter>
        <rect id="path-28" x="0" y="0" width="50" height="46.969697" rx="4.85383987"></rect>
        <filter x="-99.0%" y="-86.2%" width="298.0%" height="310.8%" filterUnits="objectBoundingBox" id="filter-29">
            <feOffset dx="0" dy="9" in="SourceAlpha" result="shadowOffsetOuter1"></feOffset>
            <feGaussianBlur stdDeviation="15" in="shadowOffsetOuter1" result="shadowBlurOuter1"></feGaussianBlur>
            <feColorMatrix values="0 0 0 0 0.764266304   0 0 0 0 0.764266304   0 0 0 0 0.764266304  0 0 0 0.5 0" type="matrix" in="shadowBlurOuter1"></feColorMatrix>
        </filter>
        <circle id="path-30" cx="17" cy="17" r="17"></circle>
        <filter x="-76.5%" y="-38.2%" width="252.9%" height="252.9%" filterUnits="objectBoundingBox" id="filter-31">
            <feOffset dx="0" dy="13" in="SourceAlpha" result="shadowOffsetOuter1"></feOffset>
            <feGaussianBlur stdDeviation="6.5" in="shadowOffsetOuter1" result="shadowBlurOuter1"></feGaussianBlur>
            <feColorMatrix values="0 0 0 0 0   0 0 0 0 0   0 0 0 0 0  0 0 0 0.158080201 0" type="matrix" in="shadowBlurOuter1"></feColorMatrix>
        </filter>
        <circle id="path-32" cx="54.6538462" cy="54.6538462" r="34.5"></circle>
        <filter x="-37.7%" y="-18.8%" width="175.4%" height="175.4%" filterUnits="objectBoundingBox" id="filter-33">
            <feOffset dx="0" dy="13" in="SourceAlpha" result="shadowOffsetOuter1"></feOffset>
            <feGaussianBlur stdDeviation="6.5" in="shadowOffsetOuter1" result="shadowBlurOuter1"></feGaussianBlur>
            <feColorMatrix values="0 0 0 0 0   0 0 0 0 0   0 0 0 0 0  0 0 0 0.101753715 0" type="matrix" in="shadowBlurOuter1"></feColorMatrix>
        </filter>
        <circle id="path-34" cx="81" cy="81" r="51"></circle>
        <filter x="-25.5%" y="-12.7%" width="151.0%" height="151.0%" filterUnits="objectBoundingBox" id="filter-35">
            <feOffset dx="0" dy="13" in="SourceAlpha" result="shadowOffsetOuter1"></feOffset>
            <feGaussianBlur stdDeviation="6.5" in="shadowOffsetOuter1" result="shadowBlurOuter1"></feGaussianBlur>
            <feColorMatrix values="0 0 0 0 0   0 0 0 0 0   0 0 0 0 0  0 0 0 0.101753715 0" type="matrix" in="shadowBlurOuter1"></feColorMatrix>
        </filter>
    </defs>
    <g id="Privacy" stroke="none" stroke-width="1" fill="none" fill-rule="evenodd">
        <g id="AboutEmpathyPlatformPage-Copy" transform="translate(-891.000000, -2546.000000)">
            <g id="Group-21" transform="translate(891.615385, 2546.000000)">
                <g id="Group-6-Copy-4" transform="translate(30.384615, 111.000000)">
                    <g id="Rectangle-Copy-48">
                        <use fill="black" fill-opacity="1" filter="url(#filter-7)" xlink:href="#path-6"></use>
                        <use fill="url(#linearGradient-1)" fill-rule="evenodd" xlink:href="#path-6"></use>
                        <use fill="url(#radialGradient-2)" fill-rule="evenodd" xlink:href="#path-6"></use>
                        <use fill="url(#radialGradient-3)" fill-rule="evenodd" xlink:href="#path-6"></use>
                        <use fill="url(#radialGradient-4)" fill-rule="evenodd" xlink:href="#path-6"></use>
                        <use fill="url(#radialGradient-5)" fill-rule="evenodd" xlink:href="#path-6"></use>
                    </g>
                    <g id="Rectangle-Copy-48">
                        <use fill="black" fill-opacity="1" filter="url(#filter-9)" xlink:href="#path-8"></use>
                        <use fill-opacity="0.352901005" fill="#FFFFFF" fill-rule="evenodd" xlink:href="#path-8"></use>
                    </g>
                </g>
                <rect id="Rectangle-Copy-35" fill="url(#linearGradient-10)" x="1.38461538" y="334" width="379" height="8" rx="4"></rect>
                <g id="Group-15" transform="translate(0.000000, 287.615385)">
                    <g id="Group-13" transform="translate(-0.000000, -0.000000)">
                        <g id="Oval-Copy-52" transform="translate(15.384615, 15.384615)">
                            <use fill="black" fill-opacity="1" filter="url(#filter-12)" xlink:href="#path-11"></use>
                            <use fill="#8B6391" fill-rule="evenodd" xlink:href="#path-11"></use>
                        </g>
                        <circle id="Oval-Copy-52" stroke-opacity="0.667313156" stroke="#8B6391" stroke-width="0.8" cx="41.8846154" cy="41.8846154" r="33.8692308"></circle>
                        <circle id="Oval-Copy-52" stroke-opacity="0.32" stroke="#8B6391" stroke-width="0.8" cx="41.8846154" cy="41.8846154" r="41.4846154"></circle>
                    </g>
                    <g id="user-(1)-copy-2" transform="translate(27.384615, 28.384615)" fill="#FFFFFF" fill-rule="nonzero">
                        <path d="M16.4497939,13.3764916 C18.610575,12.1397322 20.0869653,9.83690772 20.0869653,7.17393059 C20.0869653,3.21823762 16.8687277,0 12.9130347,0 C8.95734174,0 5.73910412,3.21823762 5.73910412,7.17393059 C5.73910412,9.83690772 7.21549442,12.1397322 9.37627556,13.3764916 C3.97149798,14.795513 0,19.365315 0,24.7815932 L0,26.5434826 C0,26.9394824 0.321413504,27.2608959 0.717413235,27.2608959 C1.11341297,27.2608959 1.43482647,26.9394824 1.43482647,26.5434826 L1.43482647,24.7815932 C1.43475922,19.0295761 6.58423534,14.3478612 12.9130347,14.3478612 C19.2418341,14.3478612 24.3913102,19.0295761 24.3913102,24.7815932 L24.3913102,26.5434826 C24.3913102,26.9394824 24.7127237,27.2608959 25.1087234,27.2608959 C25.5047232,27.2608959 25.8261367,26.9394824 25.8261367,26.5434826 L25.8261367,24.7815932 C25.8261367,19.365315 21.8545714,14.7941007 16.4497939,13.3764916 Z M7.17393059,7.17393059 C7.17393059,4.00882472 9.74792884,1.43482647 12.9130347,1.43482647 C16.0781406,1.43482647 18.6521388,4.00882472 18.6521388,7.17393059 C18.6521388,10.3390365 16.0781406,12.9130347 12.9130347,12.9130347 C9.74792884,12.9130347 7.17393059,10.3391037 7.17393059,7.17393059 Z" id="Shape"></path>
                        <path d="M26.1101562,13.3951886 C27.665437,12.3664502 28.6956551,10.6073855 28.6956551,8.60875706 C28.6956551,5.44365119 26.1216568,2.86965294 22.956551,2.86965294 C22.5605512,2.86965294 22.2391377,3.19106645 22.2391377,3.58706618 C22.2391377,3.98306591 22.5605512,4.30447941 22.956551,4.30447941 C25.3296574,4.30447941 27.2608959,6.23571791 27.2608959,8.60882431 C27.2608959,10.9819307 25.3296574,12.9131692 22.956551,12.9131692 C22.5605512,12.9131692 22.2391377,13.2345827 22.2391377,13.6305825 C22.2391377,14.0265822 22.560484,14.3478612 22.9564837,14.3478612 C27.7041762,14.3478612 31.5651735,17.9161631 31.5651735,22.3037029 L31.5651735,23.673897 C31.5651735,24.0698967 31.886587,24.3913102 32.2825868,24.3913102 C32.6785865,24.3913102 33,24.0698967 33,23.673897 L33,22.3037029 C33,18.1572064 30.1074802,14.6348399 26.1101562,13.3951886 Z" id="Path"></path>
                    </g>
                </g>
                <g id="Group-17" transform="translate(38.384615, 188.000000)">
                    <rect id="Rectangle" fill="url(#radialGradient-13)" x="0" y="7" width="300" height="126"></rect>
                    <g id="Rectangle-Copy-62" transform="translate(38.000000, 0.000000)">
                        <use fill="black" fill-opacity="1" filter="url(#filter-15)" xlink:href="#path-14"></use>
                        <use fill="#FFFFFF" fill-rule="evenodd" xlink:href="#path-14"></use>
                    </g>
                    <g id="Group-9" transform="translate(38.000000, 57.000000)">
                        <g id="Rectangle-Copy-62">
                            <use fill="black" fill-opacity="1" filter="url(#filter-17)" xlink:href="#path-16"></use>
                            <use fill="#FFFFFF" fill-rule="evenodd" xlink:href="#path-16"></use>
                        </g>
                        <g id="boot-(1)" opacity="0.899999976" transform="translate(11.000000, 7.000000)" fill="#8B6391" fill-rule="nonzero">
                            <path d="M30.6933237,27.0866209 L30.6933237,26.7841969 C30.6933237,25.9397056 30.3044918,24.8494763 28.4521816,24.4513725 L24.5041629,23.6030943 C24.2589481,23.5507277 24.0174267,23.701851 23.96354,23.9409618 C23.9097138,24.1801318 24.0645321,24.416639 24.3092626,24.4693014 L28.2572813,25.3175797 C28.9134276,25.4585846 29.7857868,25.7640263 29.7857868,26.7841969 L29.7857868,27.0533075 L15.5911198,27.0533075 L12.5055306,26.145503 C12.265765,26.074971 12.0126186,26.2078103 11.9402651,26.4423058 C11.8680327,26.6768012 12.004021,26.9240776 12.2439682,26.994728 L15.3935554,27.9214081 C15.4359382,27.9338933 15.4800769,27.9402246 15.5243366,27.9402246 L29.9929782,27.9402246 C29.8035876,28.4873806 29.273742,28.8822892 28.6514414,28.8822892 L15.5712605,28.8822892 L10.2198866,27.3485718 C9.7125644,27.1999929 9.18405084,27.5835998 9.18066022,28.100756 L9.17575592,29.195009 C9.17545319,29.2393282 9.1385196,29.2754226 9.09347273,29.2754226 L8.18290847,29.2754226 L8.18290847,29.2206893 C8.18290847,28.6500422 7.27543209,28.6490955 7.27543209,29.2206893 L7.27543209,29.2754226 L6.09168038,29.2754226 L6.09168038,29.2206893 C6.09168038,28.6500422 5.18420401,28.6490955 5.18420401,29.2206893 L5.18420401,29.2754226 L4.05379409,29.2754226 L4.05379409,29.2206893 C4.05379409,28.6500422 3.14631771,28.6490955 3.14631771,29.2206893 L3.14631771,29.2742392 C1.90746836,29.2488548 0.907355282,28.2556662 0.907355282,27.037568 L0.907355282,26.2417746 L9.68489449,26.2417746 L10.2079588,26.3956788 C10.447906,26.4662701 10.7009919,26.3334308 10.7732243,26.0988761 C10.8454567,25.8643807 10.7094685,25.6170451 10.4695213,25.5464538 L9.8824589,25.3737331 C9.8400761,25.361248 9.79593743,25.3549167 9.75167768,25.3549167 L6.09155929,25.3549167 L6.09155929,24.7657491 C6.09155929,22.2792571 4.16665344,20.2251882 1.69803676,19.9519356 C1.78752502,19.708742 1.89099961,19.4706963 2.00839998,19.2393961 C2.50076706,18.2689884 2.77873771,17.1924277 2.8194252,16.1094765 C3.22351496,16.2255704 3.56947973,16.4961011 3.77261446,16.8722524 L5.13158879,19.3889217 C6.35778385,21.6597938 9.87119718,21.426541 10.7742536,19.017149 L11.3856559,17.386095 C11.4718746,17.1561558 11.3509625,16.9014829 11.1157379,16.8172231 C10.8802106,16.7329634 10.6197986,16.8511282 10.5336404,17.0810675 L9.92223819,18.7121215 C9.28358988,20.4158969 6.80013922,20.5786177 5.93419799,18.97496 L4.57522367,16.4582907 C4.21454601,15.7902479 3.56736059,15.3344521 2.82535879,15.2008436 L2.82535879,11.2422906 C2.82535879,10.6716436 1.91788242,10.6706968 1.91788242,11.2422906 L1.91788242,15.8325553 C1.91788242,16.8723115 1.66806606,17.9141388 1.19561889,18.8453751 C0.661111192,19.8984448 0.378660078,21.0765434 0.378660078,22.2522158 L0.378660078,25.4443835 C0.153183562,25.5667496 0,25.8017184 0,26.071184 L0,27.037568 C0,28.7604557 1.43308369,30.1621622 3.19451301,30.1621622 L9.09347273,30.1621622 C9.63579098,30.1621622 10.0797811,29.7308041 10.0832323,29.1996835 L10.0875311,28.2347788 L15.3784187,29.7510999 C15.4198933,29.7629933 15.4628816,29.7690287 15.5060515,29.7690287 L15.7817819,29.7690287 C15.8404518,30.2758892 16.6242915,30.2765401 16.6830219,29.7690287 L18.0092404,29.7690287 C18.0679103,30.2758892 18.85175,30.2765401 18.9104805,29.7690287 L20.4681696,29.7690287 C20.5268395,30.2758892 21.3106792,30.2765401 21.3694097,29.7690287 L22.7385559,29.7690287 C22.7971652,30.2758892 23.5810654,30.2765401 23.6397354,29.7690287 L25.0088816,29.7690287 C25.0674909,30.2758892 25.8513912,30.2765401 25.9100611,29.7690287 L27.3416311,29.7690287 C27.4002404,30.2758892 28.1841407,30.2765401 28.2428106,29.7690287 L28.6513808,29.7690287 C29.3561463,29.7690287 30.0306383,29.4474925 30.4688765,28.9092713 C30.75823,28.5538299 31.3695717,27.358335 30.6933237,27.0866209 Z M1.286197,22.2523342 C1.286197,21.7714499 1.3403259,21.2902105 1.44452705,20.8195628 C3.53284888,20.9735263 5.18426456,22.6839289 5.18426456,24.7658083 L5.18426456,25.3549759 L1.28625755,25.3549759 L1.28625755,22.2523342 L1.286197,22.2523342 Z" id="Shape"></path>
                            <path d="M22.5371164,23.0778907 C20.6149957,22.3725109 18.9758105,21.1260105 17.7969631,19.4732406 C16.6069145,17.8047904 15.9779537,15.8465788 15.9779537,13.8102613 L15.9779537,3.59985723 C16.3301548,3.55340784 16.6028579,3.25843942 16.6028579,2.90169628 L16.6028579,0.705261486 C16.6028579,0.316329214 16.2790533,0 15.8811998,0 L2.03431403,0 C1.63640005,0 1.31265598,0.316388385 1.31265598,0.705261486 L1.31265598,2.90169628 C1.31265598,3.25175308 1.57530827,3.54228365 1.91794296,3.59689867 L1.91794296,9.31455217 C1.91794296,9.88519918 2.82541934,9.88614592 2.82541934,9.31455217 L2.82541934,3.60695777 L5.21266103,3.60695777 L5.21266103,5.37481559 C5.21266103,6.81746852 6.4484225,8.02509347 7.92455501,8.02509347 C9.40068751,8.02509347 10.636449,6.81746852 10.636449,5.37481559 L10.636449,3.60695777 L15.0705379,3.60695777 L15.0705379,11.614004 L14.3235107,11.614004 C13.2823469,11.614004 12.3420541,12.2563665 11.9837378,13.2124547 L11.3158453,14.9942769 C11.2296266,15.2242162 11.3505387,15.478889 11.5857632,15.5631488 C11.8152964,15.6452193 12.0840034,15.5231491 12.1678608,15.2993045 L12.8357532,13.5174822 C13.0637121,12.9093798 13.6615519,12.5008619 14.3235107,12.5008619 L15.0705379,12.5008619 L15.0705379,13.8102613 C15.0705379,18.2537814 17.9611662,22.3458247 22.2181556,23.9081218 C22.4470833,23.9920857 22.7166984,23.8720273 22.8024328,23.6488928 C22.8904679,23.4196044 22.7717355,23.1639848 22.5371164,23.0778907 Z M9.7289726,5.37481559 C9.7289726,6.333744 8.90571691,7.13829475 7.92449446,7.13829475 C6.94327201,7.13829475 6.12001632,6.33380317 6.12001632,5.37481559 L6.12001632,3.60695777 L9.72891206,3.60695777 L9.72891206,5.37481559 L9.7289726,5.37481559 Z M15.6953815,2.72015905 L15.5242155,2.72015905 L10.1826502,2.72015905 L5.66633868,2.72015905 L2.3716206,2.72015905 L2.22007181,2.72015905 L2.22007181,0.886857886 L15.6953815,0.886857886 L15.6953815,2.72015905 Z" id="Shape"></path>
                            <path d="M7.87769173,4.12689507 C6.24661981,4.12689507 6.22294598,6.61829828 7.87769173,6.61829828 C9.52989452,6.61829828 9.51009569,4.12689507 7.87769173,4.12689507 Z M7.87769173,5.73144039 C7.41051214,5.7359374 7.40318597,5.01375296 7.87769173,5.01375296 C8.34747484,5.01375296 8.34717211,5.72694338 7.87769173,5.73144039 Z" id="Shape"></path>
                        </g>
                    </g>
                    <g id="Group-6" transform="translate(48.000000, 0.000000)">
                        <g id="Rectangle-Copy-62">
                            <use fill="black" fill-opacity="1" filter="url(#filter-19)" xlink:href="#path-18"></use>
                            <use fill="#FFFFFF" fill-rule="evenodd" xlink:href="#path-18"></use>
                        </g>
                        <g id="running-shoe" opacity="0.899999976" transform="translate(0.000000, 16.000000)" fill="#53B9C9" fill-rule="nonzero">
                            <path d="M31.7861252,12.1221527 C31.7659377,10.9974989 31.2289381,9.93897847 30.3386262,9.28034354 C30.1286263,9.12493963 29.8356891,9.17404161 29.6845642,9.39005176 C29.5334393,9.6060619 29.5811892,9.90716501 29.7912516,10.0626332 C30.4025636,10.5149627 30.7860009,11.2250776 30.8426258,11.9907857 C30.2801887,12.2039679 29.8008141,12.6147793 29.4942518,13.1426898 C25.7931295,14.3617557 22.3227569,14.7451882 19.1634467,14.2858533 L16.4849486,13.6889815 C16.4169487,13.6696363 16.3487612,13.6511909 16.2809488,13.6313316 C16.1002614,13.5784378 15.9320115,13.5270863 15.7726991,13.4768275 L13.3513259,12.6351527 C13.128951,12.561307 12.8900762,12.4854688 12.6260764,12.4068671 C12.6030764,12.3999902 12.5797639,12.393499 12.5567015,12.3866864 L9.91739085,11.7610218 C9.46057867,11.6813275 9.000579,11.6152583 8.54632933,11.565835 C8.44132941,11.5544593 8.33520448,11.5445618 8.22920456,11.5346643 L8.22920456,11.3000802 C8.22920456,9.92477488 7.14076784,8.8059053 5.8028938,8.8059053 L2.80539595,8.8059053 L2.80539595,8.73585143 C2.80539595,7.91866338 2.91120837,7.10436747 3.11995822,6.31571512 L3.64845785,4.31917979 C3.67445783,4.22097584 3.74802027,4.19012642 3.78945774,4.18042171 C3.83108271,4.17078127 3.91039516,4.16596105 3.97514511,4.24321312 L4.36439483,4.70711114 C4.53351971,4.90866063 4.829332,4.93089791 5.02533186,4.75711289 C5.22126922,4.58319934 5.2429567,4.27894702 5.07389432,4.0774618 L4.6846446,3.61356378 C4.4118323,3.28855238 3.9896451,3.14555251 3.58214539,3.24067153 C3.17495819,3.33572627 2.85395842,3.65199701 2.74427099,4.06621462 L2.21577137,6.06274995 C1.98514654,6.93392447 1.86827162,7.83331335 1.86827162,8.73604424 L1.86827162,11.8831983 C1.69077175,11.9923924 1.54277186,12.1507527 1.44514693,12.3438829 L0.0668979154,15.0708423 C0.0668354155,15.0709708 0.0667729155,15.0710994 0.0667104155,15.0712279 L0.0630854181,15.0784261 C0.061835419,15.0808683 0.0610229196,15.0835677 0.0597729205,15.0860099 C0.053522925,15.0988638 0.0478354291,15.1119748 0.0427104328,15.1254072 C0.040960434,15.1299703 0.0393979351,15.1345977 0.0377729363,15.1392894 C0.0334604394,15.151822 0.0296479421,15.1645474 0.0263354445,15.1774656 C0.0250229455,15.1824143 0.0237104464,15.1872988 0.0225854472,15.1923118 C0.0196479493,15.2055514 0.017335451,15.2189837 0.0154604523,15.2325446 C0.0148354528,15.2371078 0.0139604534,15.2416066 0.0134604538,15.246234 C-0.159414422,16.8181401 1.36402198,18.1621622 2.79395846,18.1621622 L9.86201589,18.1621622 C10.0965782,18.1621622 10.3250781,18.063428 10.4888904,17.8912497 C10.6297653,17.7431725 10.7131403,17.5547983 10.7281403,17.3533774 L11.4428273,17.4813382 C11.6980771,17.526841 11.9404519,17.3514493 11.9848894,17.0892936 C12.0293268,16.8270736 11.8586395,16.5775789 11.6036396,16.5319475 L10.8265777,16.3928038 C10.5689529,16.3415167 10.3060781,16.4111207 10.1044532,16.5843915 C9.92357834,16.7397954 9.81395342,16.9599188 9.79582843,17.1984233 L8.18895459,17.1984233 C7.96532975,15.84934 6.82070557,14.8187769 5.44558156,14.8187769 L1.25058457,14.8187769 L2.27677133,12.7882429 C2.29720881,12.7478174 2.33058379,12.7167109 2.37002126,12.6989082 C2.41170873,12.6958875 2.4517712,12.6874039 2.48964618,12.6739073 C3.89939517,12.4577686 5.33189414,12.3681125 6.74901812,12.4087309 C7.32220521,12.4251839 7.8938298,12.464067 8.4479544,12.5242234 C8.95514154,12.5793667 9.47045367,12.6552049 9.9758908,12.7489742 C10.7905152,12.9066918 11.5944521,13.1029712 12.3654516,13.3325422 C13.5985132,13.699586 14.7894499,14.1969684 16.024449,14.5582922 C16.6923235,14.7536075 17.368948,14.9246932 18.04026,15.0677573 C18.0415725,15.0680144 18.042885,15.0683358 18.0441975,15.0686571 C18.0450725,15.0688499 18.045885,15.0690427 18.04676,15.0692355 C21.3676326,15.7411743 25.019005,15.4922581 28.9145022,14.3319346 L28.0868153,16.0601443 L24.7068177,17.0903219 C24.4718179,17.1619825 24.2284431,17.1982305 23.9835058,17.1982305 L23.2643813,17.1982305 L18.098135,15.4913583 C17.4128855,15.2650008 16.668636,15.4466909 16.1556989,15.9655395 L14.9951372,17.1392953 L13.5537632,16.8811886 C13.2990134,16.8353001 13.0561386,17.0110132 13.0117011,17.2732332 C12.9672637,17.5354532 13.137951,17.7849478 13.3929509,17.8305792 L15.0716371,18.1311681 C15.1861371,18.1516701 15.3030745,18.1621622 15.4191369,18.1621622 L23.1893813,18.1621622 C23.1904438,18.1621622 23.1914438,18.1621622 23.1925063,18.1621622 L23.9835058,18.1621622 C24.318693,18.1621622 24.6516928,18.1123371 24.97313,18.0143903 L28.545315,16.9255989 C28.5482525,16.9247634 28.55119,16.9238636 28.554065,16.9229638 L30.1444388,16.4382424 C31.2370005,16.1053259 32,15.0547749 32,13.8833328 L32,12.6581613 C32,12.4565475 31.9211251,12.2644456 31.7861252,12.1221527 Z M5.44564406,15.7824354 C6.30183094,15.7824996 7.02358042,16.3845773 7.23158027,17.1983591 L2.79389596,17.1983591 C1.93770907,17.1983591 1.21595959,16.5962814 1.00795974,15.7824354 L5.44564406,15.7824354 Z M7.29208023,11.4666027 C5.7952688,11.389672 4.29126988,11.4554841 2.80539595,11.654977 L2.80539595,9.76962805 L5.8030188,9.76962805 C6.62414321,9.76962805 7.29208023,10.4562203 7.29208023,11.3000159 L7.29208023,11.4666027 Z M16.2733238,17.1984233 L16.8128859,16.6527744 C17.0765732,16.3860555 17.4591979,16.292736 17.8115102,16.409064 L20.2006335,17.1984233 L16.2733238,17.1984233 Z M31.0627507,13.883397 C31.0627507,14.6311096 30.575626,15.301763 29.8781265,15.5143668 L29.3100644,15.6875092 L30.2349388,13.7561432 C30.4086886,13.3932127 30.7051884,13.1020714 31.0627507,12.9377983 L31.0627507,13.883397 Z" id="Shape"></path>
                            <path d="M28.0735028,8.58655314 L25.7168795,8.3495911 C24.7755052,8.25492196 23.8382559,8.1055594 22.910944,7.90426699 C21.4105701,7.08669333 19.9500711,6.16326762 18.5633846,5.15751254 L18.6047596,5.10686809 C18.7712595,4.90313344 18.745572,4.59920247 18.5473847,4.42792397 C18.3493223,4.25670974 18.0536975,4.28312455 17.8871976,4.4868592 L17.8013852,4.59187574 C17.4993229,4.36153347 17.1998231,4.1269494 16.9036983,3.88760939 L16.9566358,3.82282562 C17.1231357,3.61909097 17.0974482,3.31516 16.8992608,3.1438815 C16.701136,2.97266727 16.4056362,2.99914634 16.2390738,3.20281673 L16.1736364,3.28296093 C15.8679491,3.02382587 15.5655743,2.76032049 15.267387,2.49193061 L15.326762,2.41924168 C15.4932618,2.21550703 15.4675744,1.91157606 15.269387,1.74029756 C15.0713246,1.56908333 14.7756999,1.59556241 14.6092,1.79923279 L14.5690125,1.84839904 C14.0466379,1.35583677 13.5368882,0.849649351 13.0417011,0.330543739 C13.0318886,0.320196332 13.0216386,0.310363082 13.0109511,0.301043989 C12.511639,-0.135989336 11.7686395,-0.092350273 11.3197023,0.400469071 C11.03514,0.71262655 10.7665777,1.13796281 10.5212654,1.66452369 C9.96376581,2.8611595 9.94745333,3.95245742 9.9825783,4.47316977 C8.94920404,5.16676737 7.64339248,5.34627238 6.44495584,4.91418781 C6.20058101,4.82613845 5.93333121,4.9584053 5.84770627,5.20944239 C5.76195633,5.46060801 5.89051874,5.73561766 6.13476856,5.82366702 C7.99320473,6.4938062 10.0628907,5.9712943 11.4075773,4.49257919 C11.6995771,4.17148824 12.1758267,4.10361953 12.541764,4.32972001 L12.0423268,4.94098824 C11.8758269,5.14472289 11.9015144,5.44865386 12.0997018,5.61993236 C12.2933891,5.78729042 12.5978889,5.75914033 12.7598888,5.56099713 L13.3518259,4.83655013 L14.2700752,5.41137749 C14.3064502,5.43412893 14.3432002,5.45630194 14.3795751,5.47886058 L14.0609504,5.86884855 C13.8944505,6.07264747 13.920138,6.37651417 14.1183253,6.54779267 C14.3120127,6.71515073 14.6165125,6.68700064 14.7785124,6.48885744 L15.2035121,5.96872352 C15.5399493,6.16043975 15.8805741,6.34476499 16.2250738,6.52144214 L16.013824,6.77999876 C15.8473241,6.98373342 15.8730116,7.28766439 16.0711989,7.45894289 C16.2648863,7.62630094 16.5693861,7.59815085 16.731386,7.40000766 L17.0995732,6.94934918 C18.8666969,7.77534216 20.7226331,8.40666251 22.6203817,8.8262145 C22.6485067,8.83501943 22.6769442,8.84151066 22.7055067,8.84472414 C23.670506,9.05469295 24.6460053,9.21035394 25.6258171,9.30887924 L27.9824404,9.54584128 C27.9979404,9.54738375 28.0133154,9.54815499 28.0285653,9.54815499 C28.2668152,9.54815499 28.4707525,9.36209448 28.49444,9.11311402 C28.5193775,8.84806616 28.3310651,8.61245379 28.0735028,8.58655314 Z M13.1517635,3.58309999 L13.0337011,3.50918994 C12.3729516,3.09561502 11.5333897,3.15814935 10.9368276,3.63515837 C10.9833901,3.19748235 11.1000775,2.65273316 11.3664523,2.08099074 C11.5703897,1.64337899 11.784702,1.29972941 12.0035768,1.05948962 C12.1063893,0.946760727 12.2736392,0.932878492 12.3910141,1.02465549 C12.9015137,1.55905727 13.4269508,2.08028378 13.9655754,2.5871139 L13.1517635,3.58309999 Z M14.9902622,4.73153359 C14.9124498,4.68403835 14.8347623,4.63647884 14.7575124,4.58821237 L13.9617629,4.09005865 L14.6644499,3.23000277 C14.9627622,3.49819984 15.2651995,3.76164096 15.5708243,4.02084028 L14.9902622,4.73153359 Z M16.8460109,5.76138977 C16.4994486,5.58747621 16.1566989,5.40572176 15.8183241,5.21619069 L16.3005738,4.62587436 C16.5966361,4.86540718 16.8956358,5.1005054 17.1973856,5.33116902 L16.8460109,5.76138977 Z M17.7261352,6.18241996 L17.9584476,5.89809122 C18.4011348,6.22053184 18.8512594,6.53455314 19.3079466,6.8397695 C18.773697,6.63847709 18.2461349,6.41906065 17.7261352,6.18241996 Z" id="Shape"></path>
                        </g>
                    </g>
                    <g id="Group-12" transform="translate(98.000000, 57.000000)">
                        <g id="Rectangle-Copy-62">
                            <use fill="black" fill-opacity="1" filter="url(#filter-21)" xlink:href="#path-20"></use>
                            <use fill="#FFFFFF" fill-rule="evenodd" xlink:href="#path-20"></use>
                        </g>
                        <g id="flip-flops" transform="translate(8.000000, 23.000000)" fill="#8B6391" fill-rule="nonzero">
                            <path d="M36.4577196,6.64962179 L31.2514229,6.64962179 L31.2514229,3.69598612 C31.2514229,3.46223011 31.1043626,3.24648408 30.8915406,3.16801739 L22.9146564,0.221630545 C22.3287276,0.00513721081 21.69467,-0.0541238227 21.080919,0.0499005892 C19.6173255,0.298228981 18.1845171,0.733009174 16.8223122,1.34213488 C16.5474865,1.46506603 16.4209495,1.79507451 16.5398986,2.07919865 C16.6587753,2.36339753 16.9778999,2.49439954 17.2526533,2.3712442 C18.533415,1.79858682 19.8805165,1.38988746 21.2565242,1.15643038 C21.6892501,1.08289588 22.1365736,1.12474478 22.5500046,1.277568 L27.7220474,3.18789562 L27.0864,3.19910515 C24.050598,3.25276142 21.1125712,4.20983085 18.5900712,5.96666267 L17.6095005,6.64954706 L11.4164904,6.64954706 L11.9250228,6.12202672 C12.9161444,5.09396362 14.027588,4.19406278 15.2284963,3.44728408 C15.4851111,3.28766041 15.5679997,2.94322901 15.4137851,2.67786213 C15.2593537,2.41242053 14.9262096,2.32700393 14.6697393,2.48625395 C13.3926632,3.28048631 12.210833,4.23733155 11.1571295,5.33040991 L9.88532871,6.64954706 L0.71411231,6.64954706 C-0.364667285,6.64954706 0.0121251057,8.16089025 0.343534754,8.73459384 C0.790713755,9.50872379 1.61439609,10 2.48823068,10 L30.5831837,10 C31.2809072,10 31.2820635,8.87867363 30.5831837,8.87867363 L2.48823068,8.87867363 C1.82938599,8.87867363 1.27402551,8.40712619 1.11655896,7.77087343 L10.1104358,7.77087343 L17.7750607,7.77087343 L35.8695506,7.77087343 C35.7098438,8.40757457 35.1534716,8.87867363 34.4933984,8.87867363 L33.0605178,8.87867363 C32.3627942,8.87867363 32.361638,10 33.0605178,10 L34.4933984,10 C35.8754763,10 37,8.83189254 37,7.39602684 L37,7.21017288 C37,6.90064047 36.7571879,6.64962179 36.4577196,6.64962179 Z M30.1670788,6.64962179 L19.5633432,6.64962179 C21.827494,5.1719072 24.4252224,4.36773572 27.1048999,4.32035678 L30.1670788,4.26632686 L30.1670788,6.64962179 L30.1670788,6.64962179 Z" id="Shape"></path>
                            <path d="M20.7952534,2.66007635 C20.7952534,3.41642051 21.9298219,3.42411772 21.9298219,2.66007635 C21.9298219,1.90089244 20.7952534,1.90283543 20.7952534,2.66007635 Z" id="Path"></path>
                            <path d="M18.3045502,3.5976412 C18.3045502,4.35398536 19.4391187,4.36168257 19.4391187,3.5976412 C19.4391187,2.83845729 18.3045502,2.84040028 18.3045502,3.5976412 Z" id="Path"></path>
                            <path d="M16.4703792,4.42378335 C15.7421596,4.42378335 15.7350053,5.60392237 16.4703792,5.60392237 C17.2012726,5.60392237 17.1993937,4.42378335 16.4703792,4.42378335 Z" id="Path"></path>
                        </g>
                    </g>
                    <g id="Group-7" transform="translate(158.000000, 0.000000)">
                        <g id="Rectangle-Copy-62">
                            <use fill="black" fill-opacity="1" filter="url(#filter-23)" xlink:href="#path-22"></use>
                            <use fill="#FFFFFF" fill-rule="evenodd" xlink:href="#path-22"></use>
                        </g>
                        <path d="M41.7144787,28.7493741 C41.7854372,28.3279458 41.7313519,27.8829046 41.5362585,27.4700424 L41.3947391,27.1704553 C40.9930194,26.3203854 40.0918061,25.8246803 39.1521877,25.9373354 L36.1339212,26.2986884 C35.6953872,26.3510993 35.2557737,26.2745682 34.8617805,26.0774358 C34.8614396,26.0772667 34.8610419,26.0770977 34.8606442,26.0769286 L28.0924259,22.6861165 C28.053339,22.6665047 27.7774018,22.3748638 27.6999666,22.2457528 C27.6415636,22.1484264 27.4989647,21.8605613 27.4849889,21.8297911 C27.233765,21.2761523 27.0139014,20.5506286 26.9009018,19.9157812 L25.7642583,13.5261112 C25.7593725,13.4984969 25.7538617,13.471108 25.7477259,13.4440009 C25.5892765,12.7388779 25.035868,12.2018641 24.3446329,12.0469985 C24.2116921,12.0172427 24.0733542,12.0107618 23.9323461,12.0015758 C23.7141301,11.9873741 23.3272952,12.0701044 23.0750487,12.2117827 C22.7800793,12.3774686 22.5160157,12.6019335 22.3373411,12.8974066 L21.6202564,14.0828496 C21.2098444,14.7614854 20.6700709,15.3354122 20.0159342,15.7887378 C19.8229997,15.9224136 19.7758455,16.185933 19.9106042,16.3772607 C20.0454198,16.5686448 20.3110172,16.6154201 20.5038949,16.4817443 C20.9122048,16.1987821 21.2814279,15.8747366 21.6095757,15.5130455 L22.7228693,22.1266168 C22.9028506,23.1958542 23.5240362,24.1591992 24.4270107,24.7697009 L29.0928335,27.9239879 C29.7768534,28.3864431 30.5689872,28.6165999 31.3603823,28.6165436 C32.2014314,28.6165436 33.0416284,28.3564618 33.7497935,27.838778 L34.8924023,27.0035296 C35.3229826,27.1461097 35.7802079,27.1926031 36.2360129,27.1379381 L39.2542793,26.7765851 C39.8281971,26.7081692 40.3777991,27.010405 40.6231146,27.5292723 L40.764634,27.8288594 C41.0422189,28.4161989 40.8534316,29.110558 40.3158169,29.4798008 C38.9527765,30.4158132 37.3560104,30.9106166 35.6982846,30.9106166 L28.4444916,30.9106166 C27.3526163,30.9106166 26.2891471,30.6966339 25.2836832,30.2746421 L23.4596679,29.5091058 C23.2428722,29.4181476 22.9928413,29.5185735 22.9012031,29.7336834 C22.809508,29.9486805 22.9108611,30.1967021 23.1275432,30.2876603 L24.9516154,31.0531403 C26.0627501,31.5194277 27.2379123,31.7558963 28.4444348,31.7558963 L35.6982278,31.7558963 C37.53014,31.7558963 39.2946161,31.209133 40.8008234,30.1747797 C40.9228562,30.0909788 41.0334698,29.9966393 41.1330617,29.8942409 C41.2358351,30.9253818 40.7811096,31.9647507 39.8850094,32.5856219 L39.4405668,32.8935496 C37.8505045,33.9952479 35.9847322,34.5776281 34.0451038,34.5776281 L29.9192818,34.5776281 C29.8366768,34.5776281 29.7532195,34.573007 29.6711826,34.5638773 C29.5932929,34.5551986 29.5079609,34.53863 29.4026877,34.5118046 L23.5896544,33.0278453 C23.2104892,32.9310262 22.8028042,32.9938628 22.4710204,33.2003503 C22.1393503,33.4067813 21.9049428,33.7436196 21.8278485,34.1244716 L21.797113,34.276294 C21.7238252,34.4575341 21.5461732,34.5776281 21.3477278,34.5776281 L20.46816,34.5776281 L20.46816,33.4280838 C20.46816,33.1946583 20.2774412,33.0054158 20.0420678,33.0054158 C19.8066945,33.0054158 19.6159757,33.1946583 19.6159757,33.4280838 L19.6159757,34.5776281 L18.4338824,34.5776281 L18.4338824,33.4280838 C18.4338824,33.1946583 18.2431635,33.0054158 18.0077902,33.0054158 C17.7724169,33.0054158 17.5816981,33.1946583 17.5816981,33.4280838 L17.5816981,34.5776281 L16.3997752,34.5776281 L16.3997752,33.4280838 C16.3997752,33.1946583 16.2090564,33.0054158 15.9736831,33.0054158 C15.7383098,33.0054158 15.5475909,33.1946583 15.5475909,33.4280838 L15.5475909,34.5776281 L14.7157454,34.5776281 C14.5207656,34.5776281 14.3432272,34.4561815 14.2739162,34.275505 C13.7178944,32.8259791 13.7115314,31.2271104 14.2559635,29.7733578 L14.4019711,29.3834325 L17.7871881,29.0781534 C19.0569996,28.9636386 20.3532856,29.1515286 21.5367991,29.6215918 C21.5887256,29.642218 21.6422428,29.6519676 21.6950214,29.6519676 C21.8640947,29.6519676 22.0240213,29.5514853 22.090719,29.3863066 C22.1781531,29.1696188 22.0719709,28.9235696 21.8534708,28.8368382 C20.545652,28.3174637 19.1126188,28.1099055 17.710037,28.2363678 L14.40413,28.5344333 L14.2577247,28.0502811 C14.1290449,27.6247389 14.0538822,27.1906871 14.0301347,26.7567479 L15.0957628,26.9074995 C15.2283059,26.9262659 15.3601104,26.9353956 15.4906082,26.9353956 C16.7349109,26.9353956 17.8512156,26.1055573 18.1773749,24.8811162 L18.6811863,22.9902121 C18.7978219,22.5525534 18.8036736,22.0883512 18.69823,21.6478748 L17.7365116,17.6302742 L18.5716522,17.3935801 C18.6731758,17.3647823 18.7754379,17.3331104 18.8755411,17.2994097 C19.0984157,17.2244002 19.2177215,16.9843811 19.1421044,16.7633539 C19.0664872,16.5423267 18.8247509,16.4239796 18.6016491,16.4989328 C18.5146127,16.5282377 18.4257014,16.5557957 18.3374719,16.5808177 L16.103556,17.2139744 C16.096284,17.2160595 16.0893529,17.2188773 16.0821377,17.2210188 L15.3620988,16.4845621 C15.0462225,16.1614746 14.5949625,16.0343924 14.1550649,16.1445115 C13.7151106,16.254687 13.3787818,16.5790143 13.2553287,17.0120518 L13.2279452,17.1081946 C13.0677345,17.6703431 13.0703479,18.2638254 13.2356148,18.824565 L14.3673156,22.6645887 C14.3232861,22.7833865 14.2769273,22.883418 14.2283528,22.9565677 C13.1804501,24.5366136 12.8936617,26.4817319 13.4415026,28.2932307 L13.646879,28.9723737 L13.457126,29.4790682 C12.8407126,31.1249375 12.8479278,32.9351402 13.4774079,34.5762192 C13.6717628,35.0827446 14.1694384,35.4230769 14.7157454,35.4230769 L21.3476142,35.4230769 C21.9175551,35.4230769 22.4253433,35.0639782 22.6111195,34.5295003 C22.6172552,34.5116356 22.6222547,34.4933763 22.6260611,34.4748916 L22.6632732,34.2909465 C22.6949745,34.1343339 22.7874649,34.0013344 22.923928,33.9164626 C23.0602775,33.8315909 23.2213403,33.8067944 23.3772332,33.8465251 L29.1902665,35.3305408 C29.3350243,35.3675102 29.4576252,35.3908414 29.5760788,35.4040287 C29.6895329,35.4166524 29.8049755,35.4230769 29.919225,35.4230769 L34.0451606,35.4230769 C36.1601685,35.4230769 38.1946734,34.7880605 39.9285844,33.5866688 L40.3730269,33.2787411 C41.8389544,32.2629853 42.3891246,30.3781112 41.7144787,28.7493741 L41.7144787,28.7493741 Z M29.3723499,26.9960907 C29.3404782,27.0036987 29.3104813,27.0150262 29.2823025,27.0289461 L28.4204032,26.4462841 C28.5579458,26.3831093 28.7033852,26.3088325 28.8491656,26.2220446 C29.5480135,25.806252 29.9835365,25.2707034 30.131987,24.6549043 L31.3098762,25.2450052 C31.3098194,25.2470904 31.3095353,25.2490628 31.3095353,25.2510916 C31.305388,26.5154326 29.3916661,26.9914132 29.3723499,26.9960907 L29.3723499,26.9960907 Z M26.1702389,24.9250737 C26.2744895,24.8888369 26.3821488,24.8474155 26.490717,24.8000203 C27.179282,24.4993061 27.6580391,24.0694245 27.9046613,23.5390043 L29.3334903,24.2548349 C29.2649747,25.2407222 28.0251033,25.7248179 27.5681053,25.8700467 L26.1702389,24.9250737 Z M25.7382383,18.2441573 C25.4313951,18.7722105 24.9130398,19.1040895 24.1937394,19.230439 C23.7168571,19.31424 23.2865608,19.2813283 23.1043638,19.2601949 L22.8177458,17.5575189 C23.3944473,17.4891594 24.6121619,17.2566357 25.4248049,16.4822515 L25.7382383,18.2441573 Z M23.5610778,21.7936671 C23.5507379,21.7916946 23.5404549,21.7906239 23.5301719,21.7894404 L23.2493488,20.1211415 C23.3370101,20.1264389 23.4364884,20.130102 23.5458521,20.130102 C23.770147,20.130102 24.0343241,20.114886 24.3139542,20.0677726 C24.9653639,19.9579353 25.5107619,19.7083921 25.9321954,19.3340209 L26.0618411,20.0627569 C26.0618979,20.0630387 26.0619547,20.0633768 26.0620115,20.063715 C26.0632046,20.070365 26.0657611,20.0844539 26.0696244,20.1048547 C26.0958148,20.2466457 26.1314361,20.4128388 26.175977,20.594586 C26.1618875,20.6151559 26.1491616,20.6369655 26.1385945,20.6604659 C25.4791743,22.1275748 23.6415808,21.8084886 23.5610778,21.7936671 Z M23.0680607,13.3323602 C23.1699252,13.1639129 23.3192847,13.0313642 23.4931303,12.9476196 C23.5124465,12.9383209 23.6326045,12.8916583 23.6743047,12.8806126 C23.7577051,12.8585211 23.8444007,12.8468555 23.9324029,12.8468555 C24.4224089,12.8468555 24.8399224,13.1942886 24.925084,13.6729743 L25.2199398,15.330622 C24.7509543,16.3901662 23.240202,16.6580814 22.6770786,16.7217634 L22.3156956,14.5750042 C22.3275126,14.5561814 23.0680607,13.3323602 23.0680607,13.3323602 L23.0680607,13.3323602 Z M23.7622501,22.6701679 C23.8521839,22.6768178 23.9467764,22.68065 24.0454594,22.68065 C24.8191859,22.68065 25.824877,22.4547199 26.4983867,21.6686137 C26.6197946,22.0017888 26.767961,22.3413885 26.9446472,22.6385523 C27.0261729,22.776962 27.1098574,22.8991976 27.1959848,23.0056536 C26.9349323,23.916306 25.6748926,24.2183727 25.2398809,24.2961436 L24.9069609,24.0710588 C24.3941164,23.7243583 23.997453,23.2328799 23.7622501,22.6701679 L23.7622501,22.6701679 Z M33.2442778,27.1582261 C32.3742544,27.7942006 31.2519277,27.9364989 30.2674843,27.5789781 C30.4400233,27.5052648 30.6303444,27.4128414 30.8211201,27.2993409 C31.550249,26.8655144 31.9925327,26.3012808 32.1212693,25.6515555 L34.0105051,26.5980501 L33.2442778,27.1582261 Z M14.0534277,18.5873074 C13.9332129,18.1792355 13.9312813,17.7473251 14.0478601,17.3382388 L14.0752437,17.2420395 C14.1322832,17.042033 14.2958458,16.9809997 14.3635092,16.9640367 C14.4311726,16.9470172 14.6043933,16.9237987 14.7502873,17.0730287 L15.3319883,17.6679762 C15.0064539,17.992867 14.8089175,18.4382464 14.8089175,18.9162558 L14.8089175,19.8538462 C14.8089175,20.1153932 14.7820453,20.4915677 14.7336413,20.895413 L14.0534277,18.5873074 Z M14.9402107,23.4211081 C15.4536802,22.646893 15.6611019,20.5837657 15.6611019,19.8538462 L15.6611019,18.9162558 C15.6611019,18.5053661 15.9392548,18.139561 16.3375658,18.0266805 L16.9161989,17.8626853 L17.8690546,21.8431474 C17.942172,22.1486519 17.9380816,22.4706122 17.8572377,22.7742006 L17.3534263,24.6651046 C17.1034522,25.6033713 16.1847407,26.2075048 15.2159776,26.0706168 L14.0497917,25.9056072 C14.1387598,25.0295008 14.4388423,24.1771203 14.9402107,23.4211081 L14.9402107,23.4211081 Z" id="Shape" fill="#FDCB5B" fill-rule="nonzero"></path>
                    </g>
                    <g id="Rectangle-Copy-62">
                        <use fill="black" fill-opacity="1" filter="url(#filter-25)" xlink:href="#path-24"></use>
                        <use fill="#FFFFFF" fill-rule="evenodd" xlink:href="#path-24"></use>
                    </g>
                    <g id="shoes" transform="translate(107.000000, 20.000000)" fill="#FDCB5B" fill-rule="nonzero">
                        <path d="M30.793119,6.12584213 C28.9559422,5.77863357 26.2035285,5.13052902 23.3650052,3.99851909 C23.3092531,3.51773743 23.0273343,3.0866637 22.5936281,2.86637334 L22.0618884,2.59637506 C22.5750655,2.28923163 22.1721035,1.43625162 21.6285688,1.68737176 L21.1460714,1.91017467 L20.90102,1.28237432 C20.7994416,1.02222255 20.5168783,0.898088529 20.2700866,1.00504208 C20.064674,1.09406817 19.9491092,1.31496969 19.9743749,1.53655028 L19.6814346,1.38783392 C19.2687402,1.17847659 18.7954596,1.20733707 18.4136382,1.42905348 C18.304261,1.35469529 18.1958505,1.27979386 18.0894381,1.20428126 L16.5771704,0.146629507 C16.3336014,-0.0238850064 16.0302841,-0.0470412983 15.7658322,0.0842908677 C15.5012514,0.215894662 15.3253584,0.477404575 15.2953232,0.784140559 L15.2311277,1.43957906 C15.1549439,2.21663903 15.3947746,2.99627946 15.888938,3.57858211 L16.0792042,3.80274317 C15.9506843,3.81442317 15.8193929,3.80851526 15.6883594,3.78203153 L6.6895186,1.96212354 C6.42732258,1.90908816 6.17389221,2.09006035 6.12368309,2.36623818 C6.07334506,2.64248392 6.2451131,2.90942639 6.50724467,2.96239386 L15.5060854,4.78230185 C16.4500685,4.97332428 17.4055242,4.55270824 17.9406155,3.71120451 L18.7390629,2.45553591 C18.7525337,2.43428101 18.7678736,2.41492751 18.7842447,2.39693215 C18.785276,2.39577773 18.7862428,2.39441959 18.787274,2.39326517 C18.9090263,2.26274789 19.1008393,2.22363345 19.2617792,2.30552931 L19.7515598,2.55413689 L19.1469234,2.83330263 C18.9024521,2.94616409 18.7910768,3.24658472 18.8982626,3.50422393 C19.0026769,3.75520826 19.2952949,3.87703344 19.5350612,3.76620919 L20.6283181,3.26145636 L21.1082373,4.49098076 C21.2072376,4.74440974 21.4975353,4.87309353 21.7391707,4.76831301 C21.9860913,4.66129155 22.1039119,4.36372301 22.002398,4.10357124 L21.8043974,3.59630584 L22.1741015,3.78400083 C22.3240199,3.8601925 22.4132233,4.02045306 22.4078737,4.19110338 C22.3936939,4.23877411 22.3864752,4.287056 22.3857662,4.33493044 L21.9762299,6.35441714 C21.9228626,6.29139944 21.8541554,6.24128406 21.7729442,6.21188032 C21.7653387,6.20916404 21.7576043,6.20658357 21.7498055,6.20407101 C21.4941837,6.12244678 21.2251556,6.27469431 21.1476828,6.54367399 C21.0705322,6.81136345 21.2132962,7.09439988 21.466211,7.1778576 C21.578682,7.21649669 21.7059128,7.20800832 21.8134209,7.15714596 L21.7023034,7.70495185 C21.6185786,8.1178944 21.2310209,8.38965828 20.8370178,8.31020707 L19.8120815,8.10363393 C19.5503366,8.05100599 19.296584,8.23184237 19.2465038,8.50815602 C19.1963591,8.78440175 19.3682561,9.05120841 19.6304521,9.10404007 L20.6553884,9.31061321 C21.5505159,9.49131377 22.4573738,8.856519 22.6477044,7.91777243 L23.2325536,5.03410106 C26.0653406,6.14247935 28.7900394,6.78216343 30.6225756,7.1284892 C31.4401657,7.28304557 32.0335228,8.03233157 32.0335228,8.91002973 L32.0335228,11.3042273 L5.81114904,9.50822262 C5.79742048,9.4635398 5.77795559,9.42007931 5.75172309,9.3792672 C5.40161277,8.83478876 5.15475663,8.23354005 5.01792228,7.59209039 C4.91550599,7.11171617 4.87850979,6.6240759 4.90616026,6.13663935 L17.5726516,8.68926402 C17.8286601,8.74066963 18.0890514,8.55589465 18.1382293,8.28474194 C18.188374,8.0084962 18.016477,7.74168954 17.754281,7.68885789 L1.32010758,4.37703279 C1.50238151,3.58611979 1.75400719,2.81157238 2.07272876,2.06574964 L4.53813192,2.56432294 C4.80026349,2.61749414 5.05369386,2.43631822 5.10396743,2.1602083 C5.15430546,1.88396257 4.98253742,1.61702009 4.72040585,1.56405262 L1.88562083,0.990781604 C1.67144252,0.947456929 1.4552017,1.06113327 1.35968191,1.26838548 C0.870868082,2.32834607 0.508382725,3.44731785 0.282151644,4.5939957 C-0.0488160491,6.2717064 -0.0886481882,7.98988968 0.162848587,9.70182552 L0.162848587,12.0350426 C0.162848587,13.1184311 0.999001241,14 2.02677356,14 L8.47771094,14 C8.71199869,14 8.93932548,13.9492735 9.15356824,13.8494501 L10.1805027,13.3710452 C10.3534309,13.2905075 10.5441482,13.253634 10.7374436,13.2646349 L26.1489365,13.9993209 C26.4110036,14.0133777 26.6418754,13.7890808 26.6536703,13.5135821 C26.6657875,13.2325828 26.4592792,12.9945008 26.1926359,12.9818022 L10.7853324,12.24732 C10.4456635,12.2280344 10.1010962,12.2943116 9.7895934,12.4394968 L8.76259453,12.9179017 C8.67235991,12.9599362 8.5764534,12.9813269 8.47771094,12.9813269 L2.02677356,12.9813269 C1.53209448,12.9813269 1.12964808,12.5568401 1.12964808,12.0351105 L1.12964808,10.2086156 L31.9909836,12.3222893 C31.8754833,12.7041304 31.5358144,12.9813948 31.1360106,12.9813948 L27.8931073,12.9813948 C27.271004,12.9813948 27.2699728,14 27.8931073,14 L31.1360106,14 C32.1637829,14 33,13.1186349 33,12.0351784 L33,11.8478909 L33,8.90996182 C33,7.53837594 32.0719369,6.3675232 30.793119,6.12584213 Z M17.137334,3.14431676 C17.09183,3.21589075 17.0407185,3.28169265 16.9856754,3.34274105 L16.6095904,2.89964778 C16.2964763,2.53064107 16.1444954,2.03654963 16.1927064,1.54408796 L16.2334409,1.12883656 L17.5519621,2.05101382 C17.6155775,2.09617199 17.6813198,2.14119434 17.7464821,2.18628459 L17.137334,3.14431676 Z M1.07002878,9.18349128 C0.915598672,7.9077901 0.934741302,6.6308666 1.12803675,5.3752659 L3.95070455,5.94412296 C3.90255793,6.57056517 3.94297015,7.19795808 4.07464824,7.81543656 C4.19556263,8.38225641 4.38885808,8.92252462 4.65021621,9.42877141 L1.07002878,9.18349128 Z" id="Shape"></path>
                        <path d="M23.5953613,6.69795873 L23.4915914,7.19537761 L23.5919452,6.69714385 C23.3304582,6.63867591 23.0741274,6.81455507 23.0186976,7.08964639 C22.9633322,7.36487352 23.1301373,7.63521134 23.3912377,7.69361138 C23.3922045,7.6938151 23.3994232,7.69537696 23.40039,7.69558068 C23.655754,7.75112862 23.9185946,7.56968108 23.9713173,7.29947907 C24.0252003,7.0239124 23.8568483,6.75466109 23.5953613,6.69795873 Z" id="Path"></path>
                        <path d="M31.2363644,7.53036291 L31.229919,7.53015919 C30.9629535,7.52282524 30.7435544,7.74325141 30.7356911,8.02438645 C30.7278923,8.30552149 30.9410393,8.54027603 31.207876,8.54856069 C31.21271,8.5486965 31.217544,8.54876441 31.222378,8.54876441 C31.4827693,8.54876441 31.6975922,8.33044336 31.7053266,8.05446925 C31.7131254,7.77326631 31.5031366,7.53864757 31.2363644,7.53036291 Z" id="Path"></path>
                        <path d="M27.3991372,7.27482882 L27.3787699,7.27265579 C27.1133512,7.24637578 26.879128,7.45478241 26.8555381,7.73489884 C26.8319481,8.01392876 27.0273705,8.26043123 27.2916935,8.28711868 C27.3090315,8.28895217 27.3262405,8.28997078 27.3433206,8.28997078 C27.5850205,8.28990287 27.7938492,8.09921998 27.8227243,7.84008681 C27.8539197,7.56078526 27.6642981,7.30762791 27.3991372,7.27482882 Z" id="Path"></path>
                        <path d="M29.3083728,7.43407077 L29.3019275,7.43366333 C28.6798242,7.39543168 28.630453,8.41247503 29.2515895,8.4509104 C29.2612575,8.45152157 29.2707965,8.45179319 29.2804001,8.45179319 C29.884392,8.45179319 29.913267,7.47155544 29.3083728,7.43407077 Z" id="Path"></path>
                        <path d="M20.079047,5.4623227 C20.0776935,5.4614399 20.0706681,5.45716176 20.0693146,5.45621106 C19.8396675,5.31448912 19.5475651,5.39645289 19.4118265,5.63752279 C19.2760878,5.87859269 19.3535607,6.19157612 19.5816609,6.33581062 C19.8058295,6.47746465 20.110178,6.39760601 20.2448854,6.16108587 C20.3822354,5.91988016 20.3079852,5.60710045 20.079047,5.4623227 Z" id="Path"></path>
                        <path d="M25.4760441,7.03599985 C25.2123656,6.99559518 24.9670564,7.18783993 24.9282555,7.46591916 C24.8893901,7.7442021 25.0719863,8.00292783 25.3361804,8.04387576 C25.3401765,8.04448692 25.3505535,8.04598088 25.3546785,8.04652413 C25.6132652,8.07952694 25.861217,7.87607753 25.8927347,7.60220854 C25.924639,7.32474047 25.7384335,7.07239801 25.4760441,7.03599985 Z" id="Path"></path>
                        <path d="M18.570582,6.22159102 L13.0324967,5.01576617 C12.4232841,4.88327958 12.2266371,5.88049409 12.836881,6.0132523 L18.3749663,7.21907716 C18.6303302,7.27455719 18.8931708,7.09378872 18.9461514,6.82338299 C19.0001633,6.54788423 18.8320046,6.2784971 18.570582,6.22159102 Z" id="Path"></path>
                        <path d="M9.97940837,4.35109231 L4.44138752,3.14526745 C4.18002939,3.08849719 3.92427869,3.26546287 3.87020237,3.54096163 C3.81619051,3.81639248 3.98434917,4.08584751 4.24577175,4.14275359 L9.78379261,5.34857845 C10.3936497,5.48099712 10.5890077,4.48371471 9.97940837,4.35109231 Z" id="Path"></path>
                    </g>
                    <g id="Group-8" transform="translate(218.000000, 0.000000)">
                        <g id="Rectangle-Copy-63">
                            <use fill="black" fill-opacity="1" filter="url(#filter-27)" xlink:href="#path-26"></use>
                            <use fill="#FFFFFF" fill-rule="evenodd" xlink:href="#path-26"></use>
                        </g>
                        <g id="sneakers" opacity="0.899999976" transform="translate(8.000000, 14.000000)" fill="#FDCB5B" fill-rule="nonzero">
                            <path d="M33.4023134,16.3863349 L33.4023134,12.167442 C33.4023134,11.3956626 33.1621098,10.6534302 32.7076687,10.0210456 L32.5551923,9.80884988 C32.5142175,9.7518247 32.492568,9.68490741 32.492568,9.61527463 L32.492568,4.47486274 C32.492568,3.73954837 31.8781462,3.14136596 31.1228695,3.14136596 L30.1783255,3.14136596 C29.9032568,3.14136596 29.6802533,3.3584754 29.6802533,3.62627388 C29.6802533,3.89407236 29.9032568,4.1111818 30.1783255,4.1111818 L31.1228695,4.1111818 C31.3288722,4.1111818 31.4964236,4.27430483 31.4964236,4.47486274 L31.4964236,9.61527463 C31.4964236,9.88481878 31.580299,10.1440182 31.739018,10.364813 L31.8914945,10.5770087 C32.2282577,11.0456237 32.4062355,11.5955739 32.4062355,12.1675067 L32.4062355,16.0997866 L8.85293394,16.0997866 L6.60516745,15.6232838 L8.62142999,13.0718276 L9.27616246,12.8988125 L9.60083911,13.6237175 C9.68252294,13.8061075 9.86554786,13.9149208 10.0576709,13.9149208 C10.1240805,13.9149208 10.1916855,13.9018607 10.2565013,13.8743825 C10.5086586,13.7673149 10.6239457,13.4815425 10.5139714,13.2360498 L10.2479345,12.6419406 L11.6629907,12.2680442 L12.0714099,13.0418926 C12.1597347,13.2091535 12.3340599,13.3052946 12.5148269,13.3052946 C12.5913972,13.3052946 12.6692293,13.2880319 12.7420142,13.2515668 C12.9866673,13.129176 13.0830941,12.8368089 12.9573806,12.5986221 L12.6458531,12.0083276 L14.2196948,11.5924705 L14.6498963,12.2110837 C14.7461902,12.3495734 14.9030498,12.4241846 15.0627649,12.4241846 C15.1588596,12.4241846 15.2560169,12.397159 15.3415525,12.3407158 C15.5693375,12.1905883 15.6289733,11.8891049 15.4747038,11.6672756 L15.2358948,11.3238962 L16.6598499,10.9476723 L17.0026564,11.4964587 C17.0964268,11.6465862 17.2605249,11.7294732 17.4287405,11.7294732 C17.5169325,11.7294732 17.606187,11.7066502 17.687074,11.6588059 C17.9220976,11.5196697 17.9968084,11.2213543 17.8538285,10.9925424 L17.6606429,10.6832358 L19.0308727,10.3211713 C19.0712497,10.3105033 19.1107634,10.297831 19.1502772,10.2850941 L19.4382293,10.7129122 C19.5338591,10.8549579 19.6929766,10.9320906 19.8552817,10.9320906 C19.9489193,10.9320906 20.0436194,10.9064228 20.1278268,10.852695 C20.3578697,10.7058649 20.4222207,10.4053513 20.2714044,10.1813238 L20.0033088,9.78305277 C20.0417599,9.74678166 20.0790821,9.70915281 20.1150097,9.67010156 L21.0976065,8.60239897 L21.5642005,9.31657135 C21.6590999,9.46184977 21.8202096,9.54131001 21.9849055,9.54131001 C22.0762851,9.54131001 22.1688601,9.516806 22.2517393,9.46547041 C22.483841,9.3217437 22.5523093,9.02207061 22.4046807,8.79603886 L21.788001,7.85214943 L22.7506084,6.80610606 L23.0863091,7.28985021 C23.1825366,7.42859853 23.3395954,7.50340365 23.4995097,7.50340365 C23.5954052,7.50340365 23.6924297,7.47644277 23.7778325,7.42025811 C24.0058167,7.27032458 24.0657182,6.96890582 23.9117807,6.74701195 L23.4360221,6.06135215 L24.3438417,5.07492013 L24.4712153,5.25724551 C24.5675757,5.39521798 24.7241696,5.46950587 24.8834863,5.46950587 C24.979913,5.46950587 25.0774024,5.44228637 25.1631372,5.38551982 C25.3905901,5.23487509 25.4495619,4.93326236 25.2948939,4.71188573 L25.0286577,4.33081276 L25.0516354,4.30585617 C25.1655943,4.18204301 25.3288292,4.11105249 25.4995683,4.11105249 L28.0556083,4.11105249 C28.3306769,4.11105249 28.5536805,3.89394305 28.5536805,3.62614457 C28.5536805,3.35834609 28.3306769,3.14123665 28.0556083,3.14123665 L27.0073988,3.14123665 C26.9482278,1.94028137 26.2657362,0.831911166 25.1956115,0.219052208 L25.0501744,0.1357127 C24.6289382,-0.105448172 24.0922156,-0.0184233642 23.7740471,0.342865364 L17.2517589,7.75044808 L8.21128417,12.1616231 L5.73101759,12.1616231 C5.45594893,12.1616231 5.23294542,12.3787325 5.23294542,12.646531 C5.23294542,12.9143295 5.45594893,13.131439 5.73101759,13.131439 L7.31741065,13.131439 L5.52866747,15.3949245 L1.05890143,14.4474144 C1.26815815,13.6903761 1.97907316,13.131439 2.82181126,13.131439 L3.60843324,13.131439 C3.8835019,13.131439 4.10650541,12.9143295 4.10650541,12.646531 C4.10650541,12.3787325 3.8835019,12.1616231 3.60843324,12.1616231 L2.82181126,12.1616231 C1.26590022,12.1617524 0,13.3941297 0,14.9089821 L0,17.5230884 C0,18.3002988 0.538316399,18.9844715 1.3091993,19.1867751 L8.5124518,21.0771401 C8.65895143,21.1156095 8.81023255,21.1351351 8.96211136,21.1351351 L32.5161434,21.1351351 C33.3343099,21.1351351 34,20.4871042 34,19.6904975 L34,17.5443597 C34,17.0709602 33.7648435,16.6499955 33.4023134,16.3863349 L33.4023134,16.3863349 Z M12.9996836,10.9100434 L13.5561298,10.638495 L13.6292468,10.7436877 L12.9996836,10.9100434 Z M14.6455797,10.475178 L14.4543864,10.2002675 L15.7868954,9.55010301 L16.1212015,10.085312 L14.6455797,10.475178 Z M19.4416826,8.94875253 L18.6042572,7.70460811 L19.6988206,6.46143351 L20.5424221,7.75264633 L19.4416826,8.94875253 Z M21.2327501,7.00239679 L20.3764644,5.69178766 L21.2717325,4.67496808 L22.1757003,5.97775403 L21.2327501,7.00239679 Z M22.861114,5.23300011 L21.9440636,3.91139974 L22.8289054,2.90647656 L23.7666757,4.24889565 L22.861114,5.23300011 Z M24.5302535,0.974150823 C24.5339724,0.969948288 24.5402813,0.968913818 24.5449964,0.971693956 L24.6904335,1.05503346 C25.4576639,1.4944247 25.9520835,2.28282032 26.0100591,3.14136596 L25.4995683,3.14136596 C25.1163184,3.14136596 24.7476122,3.27649363 24.4597929,3.51662004 L23.5005723,2.14355477 L24.5302535,0.974150823 Z M17.7876845,8.57382173 C17.8408122,8.54789532 17.8882287,8.51259402 17.9286722,8.47031005 L18.5786231,9.43592336 L17.1218617,9.82081094 L16.6804369,9.11407381 L17.7876845,8.57382173 Z M0.996144335,17.5230884 L0.996144335,15.4267344 L8.30126921,16.9753364 L8.30126921,20.0172607 L1.56846246,18.2503856 C1.23150004,18.1619384 0.996144335,17.8628472 0.996144335,17.5230884 Z M32.5161434,20.1653193 L9.29741354,20.1653193 L9.29741354,19.1023365 L28.4180056,19.1023365 C28.6930743,19.1023365 28.9160778,18.885227 28.9160778,18.6174286 C28.9160778,18.3496301 28.6930743,18.1325206 28.4180056,18.1325206 L9.29741354,18.1325206 L9.29741354,17.0695378 L32.5161434,17.0695378 C32.785036,17.0695378 33.0038557,17.2825094 33.0038557,17.5443597 L33.0038557,18.1325206 L30.5406564,18.1325206 C30.2655877,18.1325206 30.0425842,18.3496301 30.0425842,18.6174286 C30.0425842,18.885227 30.2655877,19.1023365 30.5406564,19.1023365 L33.0038557,19.1023365 L33.0038557,19.6904975 C33.0038557,19.9523477 32.785036,20.1653193 32.5161434,20.1653193 Z" id="Shape"></path>
                            <path d="M25.9543414,9.96285663 L25.8791657,10.1880479 L25.6359073,10.1880479 C25.2402388,10.1880479 24.8921859,10.4341871 24.7699258,10.8005836 C24.6476657,11.16698 24.7805514,11.5653157 25.1007121,11.7917353 L25.2974839,11.9308716 L25.2223082,12.1560628 C25.100048,12.5224593 25.2329337,12.9207303 25.5530945,13.1472146 C25.7131417,13.2604245 25.9006825,13.3170617 26.088356,13.3170617 C26.2758968,13.3170617 26.463504,13.2604891 26.6235512,13.1472793 L26.8203229,13.0080784 L27.0170946,13.1472146 C27.337189,13.3736343 27.7673905,13.3736989 28.0874849,13.1472146 C28.4076457,12.920795 28.5405314,12.5224593 28.4182712,12.1560628 L28.3430955,11.9308716 L28.5398673,11.7916707 C28.860028,11.565251 28.9929137,11.1669153 28.8706536,10.8005189 C28.7483935,10.4341225 28.4003406,10.1879832 28.0046721,10.1879832 L27.7614137,10.1879832 L27.686238,9.96279198 C27.5639779,9.59639555 27.215925,9.35019164 26.8202565,9.35019164 C26.424588,9.35019164 26.076668,9.59646021 25.9543414,9.96285663 Z M27.6993207,11.1578637 L27.7412915,11.1578637 L27.7072898,11.1819151 C27.3871954,11.4083348 27.2542434,11.8066705 27.3765699,12.1730669 L27.3895198,12.2119889 L27.3555181,12.1879374 C27.1954709,12.0747276 27.0079301,12.0180904 26.8203229,12.0180904 C26.6327821,12.0180904 26.445175,12.074663 26.2851278,12.1878728 L26.251126,12.2119242 L26.2640759,12.1730023 C26.386336,11.8066059 26.2534504,11.4082702 25.9332896,11.1818505 L25.8992879,11.1577991 L25.9412587,11.1577991 C26.3369937,11.1577991 26.6850465,10.9115951 26.8072402,10.5452634 L26.8202565,10.5062768 L26.8332064,10.5451341 C26.9555329,10.9117245 27.3035857,11.1578637 27.6993207,11.1578637 L27.6993207,11.1578637 Z" id="Shape"></path>
                            <path d="M22.964381,11.3343702 C22.964381,13.4043451 24.6941524,15.088398 26.8203229,15.088398 C28.9464934,15.088398 30.6762648,13.4043451 30.6762648,11.3343702 C30.6762648,9.26439526 28.9464934,7.58034238 26.8203229,7.58034238 C24.6941524,7.58034238 22.964381,9.26439526 22.964381,11.3343702 Z M29.6801205,11.3343702 C29.6801205,12.8695887 28.3972194,14.1185822 26.8203229,14.1185822 C25.2434264,14.1185822 23.9605253,12.8695887 23.9605253,11.3343702 C23.9605253,9.79915172 25.2434264,8.55015822 26.8203229,8.55015822 C28.3972194,8.55015822 29.6801205,9.79915172 29.6801205,11.3343702 Z" id="Shape"></path>
                            <path d="M21.1440268,13.8646844 L20.7146222,13.8646844 C20.4395536,13.8646844 20.2165501,14.0817938 20.2165501,14.3495923 C20.2165501,14.6173908 20.4395536,14.8345002 20.7146222,14.8345002 L21.1440268,14.8345002 C21.4190955,14.8345002 21.642099,14.6173908 21.642099,14.3495923 C21.642099,14.0817938 21.4190955,13.8646844 21.1440268,13.8646844 Z" id="Path"></path>
                            <path d="M17.982464,13.8646844 C17.7073953,13.8646844 17.4843918,14.0817938 17.4843918,14.3495923 C17.4843918,14.6173908 17.7073953,14.8345002 17.982464,14.8345002 L18.4118686,14.8345002 C18.6869372,14.8345002 18.9099407,14.6173908 18.9099407,14.3495923 C18.9099407,14.0817938 18.6869372,13.8646844 18.4118686,13.8646844 L17.982464,13.8646844 Z" id="Path"></path>
                        </g>
                    </g>
                    <g id="shoe" opacity="0.899999976" transform="translate(166.000000, 79.000000)" fill="#8B6391" fill-rule="nonzero">
                        <path d="M33.1392094,6.06211521 C32.5922009,5.62750158 31.8753074,5.4462445 31.1726375,5.56441453 L24.0754184,6.76010623 L29.4159626,3.69669771 C30.1912125,3.25193721 30.4403905,2.29208139 29.9713457,1.55696922 L29.4580351,0.752404589 C29.230857,0.396255854 28.8710145,0.145357232 28.4447733,0.0458423052 C28.018665,-0.0537356458 27.5770038,0.0101076861 27.2014755,0.225712857 L26.054087,0.883746646 C25.8185344,1.01887014 25.74303,1.30941087 25.8855978,1.53283102 C26.0280327,1.75618815 26.3345701,1.82765739 26.5701227,1.69259691 L27.7175112,1.03456312 C27.8651969,0.949858842 28.0388704,0.924649234 28.2064956,0.963850174 C28.3741208,1.00298809 28.5156252,1.10168371 28.6050209,1.24172308 L29.1183315,2.04628771 C29.3027724,2.33544191 29.2048027,2.71295579 28.8999269,2.88791047 L24.0405907,5.67533681 C23.8978235,4.9267375 23.4642711,4.27324144 22.8546524,3.82406926 L24.752167,2.73558141 C24.9877196,2.60045792 25.063224,2.30985416 24.9206562,2.08649704 C24.7781548,1.86301386 24.4716174,1.79154462 24.2361313,1.92673115 L21.815735,3.3151503 C21.5253486,3.23246278 21.2179472,3.18752666 20.8995789,3.18752666 C20.4815794,3.18752666 20.0825224,3.26485713 19.7162992,3.40401416 L15.8914272,0.39713819 C15.4503642,0.0505060826 14.8134948,0.0542875238 14.3769514,0.406213649 L12.0184343,2.30827856 C11.8086702,2.47743503 11.7832805,2.77566469 11.961673,2.9745685 C12.1399991,3.17328323 12.4545124,3.19754748 12.664343,3.02839101 L13.448034,2.39638614 L17.7402892,5.77894829 C17.7184887,5.9214456 17.7067243,6.06696806 17.7067243,6.21513753 C17.7067243,6.77832017 17.8702287,7.30576819 18.1539021,7.75790251 L9.68836429,9.18413607 C9.4172528,9.22982849 9.23653396,9.475181 9.28472122,9.73219295 C9.32765773,9.96128526 9.53788711,10.1222486 9.77496843,10.1222486 C9.80394725,10.1222486 18.9213091,8.58874816 18.9213091,8.58874816 C19.465659,8.99752195 20.1528426,9.24255934 20.8995789,9.24255934 C22.0489614,9.24255934 23.0581688,8.66349465 23.6205307,7.79704043 L24.3024635,7.68214764 L26.2239056,8.99878243 C26.7341588,9.34837667 27.3365993,9.53316309 27.966091,9.53316309 L30.3172305,9.53316309 C31.1116889,9.53316309 31.8586246,9.23978628 32.4204549,8.70710727 L33.0030222,8.15476476 L33.0030222,8.60469324 C33.0030222,10.4325789 31.4347097,11.9196306 29.5070199,11.9196306 L5.02217591,11.9196306 C4.71676838,11.9196306 4.41382007,11.8462707 4.14596537,11.7073657 L1.75654193,10.4687547 C1.28802884,10.225671 0.996977789,9.76030166 0.996977789,9.25384064 L0.996977789,9.14733005 L5.19664703,10.7172584 C5.34758946,10.7737279 5.5077041,10.8023408 5.66868278,10.8023408 C5.7438549,10.8023408 7.74957482,10.4708975 7.74957482,10.4708975 C8.02061985,10.4252051 8.20133869,10.1798526 8.15315143,9.92277758 C8.1048977,9.66576563 7.84648106,9.49459239 7.57510371,9.54009574 L5.71972804,9.8527579 C5.66675529,9.86164428 5.6123203,9.85653934 5.56240495,9.8378212 L1.00814394,8.13529034 C1.12226466,7.00873599 2.12582251,6.12488714 3.34333178,6.12488714 L8.43808768,6.12488714 C8.68726566,6.12488714 8.92906601,6.04049798 9.11869118,5.88747566 L11.0453175,4.33393357 C11.2550152,4.16477711 11.2804714,3.86648442 11.1021453,3.66764364 C10.9236198,3.46867681 10.609173,3.44466466 10.3994753,3.6137581 L8.47264958,5.16742623 C8.46294566,5.17524121 8.45071606,5.17952684 8.43802121,5.17952684 L3.34326532,5.17952684 C1.49972046,5.17946382 0,6.6015378 0,8.34963503 L0,9.25390366 C0,10.1060514 0.489781955,10.889377 1.27825846,11.2981508 L3.66768189,12.5366988 C4.08169353,12.7513586 4.55000723,12.8648649 5.02210945,12.8648649 L29.5070199,12.8648649 C31.9844432,12.8648649 34,10.9537245 34,8.60456719 L34,7.81103176 C34,7.13427984 33.6862179,6.49679188 33.1392094,6.06211521 L33.1392094,6.06211521 Z M14.2189637,1.77446511 L15.0228601,1.12613702 C15.0899235,1.07212544 15.1876273,1.07155822 15.2551559,1.1247505 L18.8158289,3.9238993 C18.5130135,4.17189882 18.2597811,4.47252339 18.0720834,4.8110254 L14.2189637,1.77446511 Z M20.8995789,8.297073 C19.6887826,8.297073 18.7037021,7.36305703 18.7037021,6.21494846 C18.7037021,5.0668399 19.6887826,4.1327609 20.8995789,4.1327609 C22.1103752,4.1327609 23.0954557,5.0668399 23.0954557,6.21494846 C23.0954557,7.36305703 22.1103752,8.297073 20.8995789,8.297073 Z M31.7155251,8.03842242 C31.3420572,8.39261741 30.8454293,8.58767675 30.317297,8.58767675 L27.9661575,8.58767675 C27.5476262,8.58767675 27.1471735,8.46484294 26.8078687,8.23234733 L25.6687883,7.45179485 L31.3470421,6.49515325 C31.7587275,6.42576381 32.1784551,6.53208533 32.4988173,6.78663934 C32.5975846,6.86510425 32.6832582,6.95491348 32.7546418,7.05316792 L31.7155251,8.03842242 Z" id="Shape"></path>
                        <path d="M4.08335516,6.92390566 C3.8079899,6.92390566 3.58486627,7.13547729 3.58486627,7.39658581 C3.58486627,7.65769432 3.8079899,7.86926595 4.08335516,7.86926595 L4.46267198,7.86926595 C4.73803724,7.86926595 4.96116087,7.65769432 4.96116087,7.39658581 C4.96116087,7.13547729 4.73803724,6.92390566 4.46267198,6.92390566 L4.08335516,6.92390566 Z" id="Path"></path>
                        <path d="M7.26025812,6.92390566 C6.98489285,6.92390566 6.76176923,7.13547729 6.76176923,7.39658581 C6.76176923,7.65769432 6.98489285,7.86926595 7.26025812,7.86926595 L7.63957494,7.86926595 C7.9149402,7.86926595 8.13806383,7.65769432 8.13806383,7.39658581 C8.13806383,7.13547729 7.9149402,6.92390566 7.63957494,6.92390566 L7.26025812,6.92390566 Z" id="Path"></path>
                        <path d="M10.8554265,5.71800407 C10.8554265,5.97911258 11.0785501,6.19068421 11.3539154,6.19068421 L11.7332322,6.19068421 C12.0085975,6.19068421 12.2317211,5.97911258 12.2317211,5.71800407 C12.2317211,5.45689555 12.0085975,5.24532392 11.7332322,5.24532392 L11.3539154,5.24532392 C11.0786166,5.24532392 10.8554265,5.45689555 10.8554265,5.71800407 Z" id="Path"></path>
                        <path d="M14.1673202,4.43596946 L13.7880034,4.43596946 C13.5126382,4.43596946 13.2895145,4.6475411 13.2895145,4.90864961 C13.2895145,5.16975812 13.5126382,5.38132976 13.7880034,5.38132976 L14.1673202,5.38132976 C14.4426855,5.38132976 14.6658091,5.16975812 14.6658091,4.90864961 C14.6658091,4.6475411 14.4426855,4.43596946 14.1673202,4.43596946 Z" id="Path"></path>
                        <path d="M13.9776951,6.40635241 C13.7023298,6.40635241 13.4792062,6.61792404 13.4792062,6.87903256 C13.4792062,7.14014107 13.7023298,7.3517127 13.9776951,7.3517127 L14.3570119,7.3517127 C14.6323771,7.3517127 14.8555008,7.14014107 14.8555008,6.87903256 C14.8555008,6.61792404 14.6323771,6.40635241 14.3570119,6.40635241 L13.9776951,6.40635241 Z" id="Path"></path>
                        <path d="M10.6188769,7.16516161 L10.2395601,7.16516161 C9.96419481,7.16516161 9.74107118,7.37673324 9.74107118,7.63784175 C9.74107118,7.89895027 9.96419481,8.1105219 10.2395601,8.1105219 L10.6188769,8.1105219 C10.8942422,8.1105219 11.1173658,7.89895027 11.1173658,7.63784175 C11.1173658,7.37673324 10.8941757,7.16516161 10.6188769,7.16516161 Z" id="Path"></path>
                    </g>
                    <g id="Group-11" transform="translate(218.000000, 57.000000)">
                        <g id="Rectangle-Copy-63">
                            <use fill="black" fill-opacity="1" filter="url(#filter-29)" xlink:href="#path-28"></use>
                            <use fill="#FFFFFF" fill-rule="evenodd" xlink:href="#path-28"></use>
                        </g>
                        <g id="shoe-(1)" opacity="0.899999976" transform="translate(8.000000, 19.000000)" fill="#D44A6F" fill-rule="nonzero">
                            <path d="M31.9129701,2.51127216 L31.6738371,2.02837109 C31.5337999,1.74613114 31.1933754,1.63176359 30.9135134,1.77299072 C30.8719343,1.79399263 30.8330468,1.82006643 30.7977719,1.85064064 C28.7424044,3.61772994 25.7083344,3.58086944 23.6957502,1.76434708 L21.9124531,0.145342681 C21.7238242,-0.0246013474 21.4463705,-0.0479606149 21.2324542,0.0881946262 L19.3397906,1.29344711 L18.696625,0.264782116 L17.7366932,0.875123344 L18.3804255,1.90378833 L17.4221937,2.51355808 L16.7790281,1.48489309 L15.8207963,2.0958058 L16.463962,3.12447079 L15.5062969,3.73481202 L14.8631312,2.70614703 L13.9043328,3.31648826 L14.5474984,4.34515325 L13.5887,4.95378003 L12.9455344,3.92511504 L11.9878693,4.53888515 L12.6151682,5.54011908 L12.0213026,5.92758289 C11.9589693,5.96815801 11.9079694,6.01901978 11.8473362,6.06416674 L10.547405,6.89224206 L2.21741856,8.75869754 C0.918479011,9.04429494 -0.00582364685,10.2067578 2.76235195e-05,11.5475941 L2.76235195e-05,15.4285185 C2.76235195e-05,15.7441186 0.253780096,16 0.566721252,16 L15.3000305,16 C15.338068,16 15.3760346,15.996213 15.4133637,15.9885694 L23.2333509,14.4106402 L23.2333509,15.428447 C23.2333509,15.7440472 23.4870755,16 23.8000167,16 L33.4333343,16 C33.7462754,16 34,15.7440472 34,15.428447 L34,11.4280832 C33.9963875,8.33323027 33.2820345,5.28116695 31.9129701,2.51127216 Z M32.0121366,5.81735858 C32.5185941,7.45029282 32.8029895,9.14494695 32.857531,10.8549596 L24.7338818,10.8549596 C25.5079472,9.58227244 27.5536105,7.06597215 32.0121366,5.81735858 Z M1.13336806,11.5475941 C1.12963283,10.7426637 1.68461109,10.0448145 2.46448482,9.87372753 L10.7531046,8.01641574 C10.7003339,8.48038651 10.7618171,8.95028639 10.932171,9.38454017 L11.3736036,10.4972128 C11.4748951,10.7568078 11.7483113,10.9036783 12.0184692,10.84353 L15.9562295,9.99259548 C17.7352057,9.60620319 19.587636,10.1476096 20.8862214,11.4332979 L15.243364,12.5711157 L1.13336806,12.5711157 L1.13336806,11.5475941 Z M23.2333509,13.2453913 L15.243364,14.8569665 L1.13338699,14.8569665 L1.13338699,13.7140054 L15.3000305,13.7140054 C15.338068,13.7140768 15.3760346,13.7102193 15.4133637,13.7025758 L23.2333509,12.124718 L23.2333509,13.2453913 Z M23.4033506,10.9257518 L22.1946526,11.1692025 C20.6404301,9.23166913 18.1354134,8.34401696 15.7210632,8.87527957 L12.2485355,9.62513349 L11.9844693,8.95993013 C11.716578,8.27793952 11.9086069,7.49958301 12.4621685,7.02375402 L13.2362339,6.53056631 L13.8028996,7.43636298 L14.7616981,6.82487879 L14.1950323,5.91908212 L15.1526974,5.31045533 L15.7193632,6.216252 L16.6775949,5.60533929 L16.1109292,4.69954262 L17.069161,4.08920139 L17.6358267,4.99499807 L18.5934918,4.38408536 L18.0268261,3.47943165 L18.9833579,2.86901898 L19.5500236,3.77424418 L20.5133554,3.16390295 L19.9466896,2.25810628 L21.4766871,1.28658934 L22.9409514,2.6158531 C25.1760227,4.63417953 28.4865548,4.85869996 30.9694716,3.16047407 C31.2193712,3.67480656 31.4409375,4.20456903 31.6432372,4.74118927 C25.9686464,6.34940697 23.9014498,9.87022721 23.4033506,10.9257518 Z M32.8666685,14.8570379 L24.3666824,14.8570379 L24.3666824,11.9996352 L32.8666685,11.9996352 L32.8666685,14.8570379 Z" id="Shape"></path>
                        </g>
                    </g>
                </g>
                <g id="Group-Copy-5" transform="translate(79.384615, 235.000000)">
                    <circle id="Oval-Copy-54" stroke="#80C0A1" opacity="0.140322731" cx="111.5" cy="111.5" r="111"></circle>
                    <circle id="Oval-Copy-55" fill="#1E3D49" cx="111.5" cy="111.5" r="50.4404762"></circle>
                    <g id="molecule" transform="translate(80.970238, 76.988095)" fill="#FFFFFF" fill-rule="nonzero">
                        <path d="M55.297523,42.5364233 C53.5201596,42.5364233 51.9130754,43.2166094 50.6674189,44.3012916 L40.9540634,36.8733454 C41.9339993,35.1963417 42.5365562,33.2718284 42.5365562,31.1933859 C42.5365562,29.1965605 41.9732127,27.3463532 41.0634621,25.7148104 L47.7222941,20.8308162 C48.9809774,21.9714605 50.6335226,22.6860747 52.4617969,22.6860747 C56.3706406,22.6860747 59.5511787,19.5055366 59.5511787,15.596693 C59.5511787,11.6878493 56.3706406,8.50717831 52.4617969,8.50717831 C48.5529533,8.50717831 45.3724152,11.6877164 45.3724152,15.59656 C45.3724152,16.6530617 45.6204565,17.6472208 46.0366501,18.5488629 L39.4055998,23.4126522 C37.336861,21.230261 34.4306837,19.8503486 31.1935188,19.8503486 C30.2898829,19.8503486 29.4220042,19.983807 28.5789828,20.1843935 L26.9459779,15.8281184 C29.473181,14.3515682 31.1935188,11.6395969 31.1935188,8.50731124 C31.1935188,3.8160608 27.377458,0 22.6862076,0 C17.9949572,0 14.1788964,3.8160608 14.1788964,8.50731124 C14.1788964,13.1985617 17.9949572,17.0146225 22.6862076,17.0146225 C23.2391828,17.0146225 23.7771373,16.9526786 24.3010016,16.8513884 L25.9329432,21.204872 C22.9233489,22.7976002 20.7030736,25.6662921 20.0602399,29.1181337 L14.0766757,28.7669412 C13.5816565,25.338229 10.6530146,22.6860747 7.08938172,22.6860747 C3.18053806,22.6860747 0,25.8666127 0,29.7754564 C0,33.6843001 3.18053806,36.8648381 7.08938172,36.8648381 C10.3645636,36.8648381 13.1015252,34.6205031 13.9115807,31.5970844 L19.9269144,31.9501378 C20.121785,34.836642 21.3611939,37.4327011 23.3204011,39.3289011 L18.0549071,46.3499584 C16.8871457,45.7459393 15.582071,45.3720164 14.1788964,45.3720164 C9.48764593,45.3720164 5.67158513,49.1880772 5.67158513,53.8793277 C5.67158513,58.5705781 9.48764593,62.3866389 14.1788964,62.3866389 C18.8701468,62.3866389 22.6862076,58.5705781 22.6862076,53.8793277 C22.6862076,51.6131926 21.7821729,49.5635953 20.3328726,48.0373305 L25.6070068,41.0047085 C27.263274,41.9518115 29.1529605,42.5362903 31.1935188,42.5362903 C34.3498642,42.5362903 37.2036684,41.2354693 39.261906,39.1478549 L48.9401689,46.5488168 C48.4856923,47.4832918 48.2081413,48.5186582 48.2081413,49.6256721 C48.2081413,53.5345157 51.3886794,56.7150538 55.297523,56.7150538 C59.2063667,56.7150538 62.3869048,53.5345157 62.3869048,49.6256721 C62.3869048,45.7168284 59.2063667,42.5364233 55.297523,42.5364233 Z M52.4617969,11.3429044 C54.8074222,11.3429044 56.7154526,13.2509348 56.7154526,15.59656 C56.7154526,17.9421853 54.8074222,19.8502157 52.4617969,19.8502157 C50.1161717,19.8502157 48.2081413,17.9421853 48.2081413,15.59656 C48.2081413,13.2509348 50.1161717,11.3429044 52.4617969,11.3429044 Z M7.08938172,34.029112 C4.7437565,34.029112 2.8357261,32.1210816 2.8357261,29.7754564 C2.8357261,27.4298312 4.7437565,25.5218008 7.08938172,25.5218008 C9.43500694,25.5218008 11.3430373,27.4298312 11.3430373,29.7754564 C11.3430373,32.1210816 9.43500694,34.029112 7.08938172,34.029112 Z M14.1788964,59.5510457 C11.0508644,59.5510457 8.50731124,57.0074926 8.50731124,53.8794606 C8.50731124,50.7514286 11.0508644,48.2078755 14.1788964,48.2078755 C17.3069284,48.2078755 19.8504815,50.7514286 19.8504815,53.8794606 C19.8504815,57.0074926 17.3067954,59.5510457 14.1788964,59.5510457 Z M22.6862076,14.1787634 C19.5581756,14.1787634 17.0146225,11.6350774 17.0146225,8.50717831 C17.0146225,5.37927924 19.5581756,2.83559318 22.6862076,2.83559318 C25.8142396,2.83559318 28.3576598,5.37927924 28.3576598,8.50717831 C28.3576598,11.6350774 25.8141067,14.1787634 22.6862076,14.1787634 Z M31.1935188,39.7006972 C26.5022684,39.7006972 22.6862076,35.8846364 22.6862076,31.1933859 C22.6862076,26.5021355 26.5022684,22.6860747 31.1935188,22.6860747 C35.8847693,22.6860747 39.7008301,26.5021355 39.7008301,31.1933859 C39.7008301,35.8846364 35.8846364,39.7006972 31.1935188,39.7006972 Z M55.297523,53.8794606 C52.9518978,53.8794606 51.0438674,51.9714302 51.0438674,49.625805 C51.0438674,47.2801798 52.9518978,45.3721494 55.297523,45.3721494 C57.6431483,45.3721494 59.5511787,47.2801798 59.5511787,49.625805 C59.5511787,51.9714302 57.6431483,53.8794606 55.297523,53.8794606 Z" id="Shape"></path>
                    </g>
                    <circle id="Oval-Copy-56" stroke="#80C0A1" opacity="0.79859561" cx="111.5" cy="111.5" r="64.5416667"></circle>
                    <circle id="Oval-Copy-57" stroke="#80C0A1" opacity="0.30094401" cx="111.5" cy="111.5" r="79.1428571"></circle>
                    <circle id="Oval-Copy-58" stroke="#80C0A1" opacity="0.20359003" cx="111.5" cy="111.5" r="95.0714286"></circle>
                    <g id="Group-4" transform="translate(95.571429, 142.029762)">
                        <polygon id="Path-2" fill="#1E3D49" points="14.1587578 3.5848477 4.52516234 11.0385993 6.22845767 28.9074308 11.5059392 30.0848979 22.4551513 30.0848979 23.8928571 27.386043 26.8716867 19.9107143 26.8716867 12.8550055 23.8928571 7.40578669"></polygon>
                        <g id="Group-2-Copy" fill="#80C0A1" fill-rule="nonzero">
                            <path d="M15.9285714,18.3041393 C14.9529464,18.3041393 14.1587578,19.1192168 14.1587578,20.120503 C14.1587578,20.7839402 14.5245342,21.3405225 15.0437061,21.6575964 L15.0437061,22.8450911 C15.0437061,23.3470965 15.4395145,23.7533155 15.9286544,23.7533155 C16.4177943,23.7533155 16.8136027,23.3470965 16.8136027,22.8450911 L16.8136027,21.6575964 C17.3327746,21.3405225 17.698551,20.783855 17.698551,20.120503 C17.698385,19.1192168 16.9041964,18.3041393 15.9285714,18.3041393 Z" id="Path"></path>
                            <path d="M15.9285714,11.0385993 C14.4646362,11.0385993 13.2738095,12.2607473 13.2738095,13.7631874 L13.2738095,14.6714118 L18.5833333,14.6714118 L18.5833333,13.7631874 C18.5833333,12.2607473 17.3924237,11.0385993 15.9285714,11.0385993 Z" id="Path"></path>
                            <path d="M31.2668731,5.50109246 L16.22325,0.0519161756 C16.0331027,-0.0173053919 15.8240402,-0.0173053919 15.6338929,0.0519161756 L0.590269717,5.50109246 C0.236854539,5.62965896 0,5.97295706 0,6.35789028 L0,17.2562428 C0,31.3599031 2.03777865,31.4845784 15.5301912,38.4663355 C15.6554628,38.5310444 15.7920171,38.5639098 15.9285714,38.5639098 C16.0651257,38.5639098 16.2016801,38.5311296 16.3269516,38.4663355 C29.8193642,31.4845784 31.8571429,31.3599031 31.8571429,17.2562428 L31.8571429,6.35789028 C31.8571429,5.97295706 31.6202883,5.6297441 31.2668731,5.50109246 Z M23.8928571,25.5696792 C23.8928571,26.5709654 23.0986685,27.386043 22.1230435,27.386043 L9.73409933,27.386043 C8.75847433,27.386043 7.96428571,26.5709654 7.96428571,25.5696792 L7.96428571,16.4877755 C7.96428571,15.4864894 8.75847433,14.6714118 9.73409933,14.6714118 L9.73409933,13.7631874 C9.73409933,10.2580899 12.5133032,7.40578669 15.9285714,7.40578669 C19.3438397,7.40578669 22.1230435,10.2580899 22.1230435,13.7631874 L22.1230435,14.6714118 C23.0986685,14.6714118 23.8928571,15.4864894 23.8928571,16.4877755 L23.8928571,25.5696792 L23.8928571,25.5696792 Z" id="Shape"></path>
                        </g>
                    </g>
                </g>
                <g id="Group-19" transform="translate(327.307692, 234.923077)">
                    <g id="Group-16" transform="translate(0.000000, -0.000000)">
                        <g id="Oval-Copy-52" transform="translate(10.076923, 9.076923)">
                            <use fill="black" fill-opacity="1" filter="url(#filter-31)" xlink:href="#path-30"></use>
                            <use fill="#D44A6F" fill-rule="evenodd" xlink:href="#path-30"></use>
                        </g>
                        <g id="Group" stroke="#D44A6F" stroke-width="0.8">
                            <circle id="Oval-Copy-52" stroke-opacity="0.67111014" cx="27.0769231" cy="27.0769231" r="21.7538462"></circle>
                            <circle id="Oval-Copy-52" stroke-opacity="0.316296984" cx="27.0769231" cy="27.0769231" r="26.6769231"></circle>
                        </g>
                    </g>
                    <g id="user-(1)-copy-3" transform="translate(16.076923, 15.076923)" fill="#FFFFFF" fill-rule="nonzero">
                        <path d="M10.9665292,8.91766106 C12.40705,8.09315483 13.3913102,6.55793848 13.3913102,4.78262039 C13.3913102,2.14549175 11.2458184,0 8.6086898,0 C5.97156116,0 3.82606941,2.14549175 3.82606941,4.78262039 C3.82606941,6.55793848 4.81032961,8.09315483 6.25085037,8.91766106 C2.64766532,9.86367536 0,12.91021 0,16.5210621 L0,17.6956551 C0,17.9596549 0.21427567,18.1739306 0.47827549,18.1739306 C0.742275311,18.1739306 0.956550981,17.9596549 0.956550981,17.6956551 L0.956550981,16.5210621 C0.956506144,12.686384 4.38949022,9.56524078 8.6086898,9.56524078 C12.8278894,9.56524078 16.2608735,12.686384 16.2608735,16.5210621 L16.2608735,17.6956551 C16.2608735,17.9596549 16.4751491,18.1739306 16.739149,18.1739306 C17.0031488,18.1739306 17.2174244,17.9596549 17.2174244,17.6956551 L17.2174244,16.5210621 C17.2174244,12.91021 14.5697143,9.86273379 10.9665292,8.91766106 Z M4.78262039,4.78262039 C4.78262039,2.67254981 6.49861923,0.956550981 8.6086898,0.956550981 C10.7187604,0.956550981 12.4347592,2.67254981 12.4347592,4.78262039 C12.4347592,6.89269097 10.7187604,8.6086898 8.6086898,8.6086898 C6.49861923,8.6086898 4.78262039,6.89273581 4.78262039,4.78262039 Z" id="Shape"></path>
                        <path d="M17.4067708,8.93012573 C18.4436247,8.24430011 19.1304367,7.0715903 19.1304367,5.73917137 C19.1304367,3.6291008 17.4144379,1.91310196 15.3043673,1.91310196 C15.0403675,1.91310196 14.8260918,2.12737763 14.8260918,2.39137745 C14.8260918,2.65537727 15.0403675,2.86965294 15.3043673,2.86965294 C16.8864383,2.86965294 18.1739306,4.15714527 18.1739306,5.73921621 C18.1739306,7.32128715 16.8864383,8.60877948 15.3043673,8.60877948 C15.0403675,8.60877948 14.8260918,8.82305515 14.8260918,9.08705497 C14.8260918,9.35105479 15.0403227,9.56524078 15.3043225,9.56524078 C18.4694508,9.56524078 21.043449,11.9441087 21.043449,14.8691353 L21.043449,15.782598 C21.043449,16.0465978 21.2577247,16.2608735 21.5217245,16.2608735 C21.7857243,16.2608735 22,16.0465978 22,15.782598 L22,14.8691353 C22,12.1048043 20.0716535,9.75655995 17.4067708,8.93012573 Z" id="Path"></path>
                    </g>
                </g>
                <rect id="Rectangle-Copy-3" stroke-opacity="0.466400787" stroke="#243C47" stroke-width="0.578525641" fill="#FFFFFF" x="74.0501475" y="147.289263" width="236.421474" height="20.4214744" rx="10.2107372"></rect>
                <g id="Group-18" transform="translate(273.230769, 40.846154)">
                    <g id="Group-14">
                        <g id="Group-2" stroke="#FDCB5B" stroke-width="0.8">
                            <circle id="Oval-Copy-52" stroke-opacity="0.67111014" cx="54.1538462" cy="54.1538462" r="43.9076923"></circle>
                            <circle id="Oval-Copy-52" stroke-opacity="0.316296984" cx="54.1538462" cy="54.1538462" r="53.7538462"></circle>
                        </g>
                        <g id="Oval-Copy-52">
                            <use fill="black" fill-opacity="1" filter="url(#filter-33)" xlink:href="#path-32"></use>
                            <use fill="#FDCB5B" fill-rule="evenodd" xlink:href="#path-32"></use>
                        </g>
                    </g>
                    <g id="user-(1)-copy" transform="translate(36.153846, 36.153846)" fill="#FFFFFF" fill-rule="nonzero">
                        <path d="M19.4406655,15.808581 C21.9943159,14.3469563 23.7391408,11.6254364 23.7391408,8.4782816 C23.7391408,3.80337174 19.9357691,0 15.2608592,0 C10.5859493,0 6.78257759,3.80337174 6.78257759,8.4782816 C6.78257759,11.6254364 8.52740249,14.3469563 11.0810529,15.808581 C4.69358852,17.4856063 0,22.8862813 0,29.2873374 L0,31.3695704 C0,31.8375701 0.379852323,32.2174224 0.847852006,32.2174224 C1.31585169,32.2174224 1.69570401,31.8375701 1.69570401,31.3695704 L1.69570401,29.2873374 C1.69562453,22.489499 7.78136903,16.9565632 15.2608592,16.9565632 C22.7403494,16.9565632 28.8260939,22.489499 28.8260939,29.2873374 L28.8260939,31.3695704 C28.8260939,31.8375701 29.2059462,32.2174224 29.6739459,32.2174224 C30.1419456,32.2174224 30.5217979,31.8375701 30.5217979,31.3695704 L30.5217979,29.2873374 C30.5217979,22.8862813 25.8281299,17.4839372 19.4406655,15.808581 Z M8.4782816,8.4782816 C8.4782816,4.73770194 11.5202795,1.69570401 15.2608592,1.69570401 C19.0014389,1.69570401 22.0434368,4.73770194 22.0434368,8.4782816 C22.0434368,12.2188613 19.0014389,15.2608592 15.2608592,15.2608592 C11.5202795,15.2608592 8.4782816,12.2189407 8.4782816,8.4782816 Z" id="Shape"></path>
                        <path d="M30.8574573,15.8306774 C32.6955165,14.6148956 33.9130469,12.536001 33.9130469,10.1739856 C33.9130469,6.43340596 30.871049,3.39140802 27.1304693,3.39140802 C26.6624697,3.39140802 26.2826173,3.77126035 26.2826173,4.23926003 C26.2826173,4.70725971 26.6624697,5.08711203 27.1304693,5.08711203 C29.9350496,5.08711203 32.2174224,7.3694848 32.2174224,10.1740651 C32.2174224,12.9786454 29.9350496,15.2610182 27.1304693,15.2610182 C26.6624697,15.2610182 26.2826173,15.6408705 26.2826173,16.1088702 C26.2826173,16.5768699 26.6623902,16.9565632 27.1303899,16.9565632 C32.7412991,16.9565632 37.304296,21.1736473 37.304296,26.3589216 L37.304296,27.9782419 C37.304296,28.4462415 37.6841483,28.8260939 38.152148,28.8260939 C38.6201477,28.8260939 39,28.4462415 39,27.9782419 L39,26.3589216 C39,21.4585167 35.5815675,17.2957199 30.8574573,15.8306774 Z" id="Path"></path>
                    </g>
                </g>
                <g id="search-copy" opacity="0.524913699" transform="translate(292.264090, 152.750966)" stroke="#243C47" stroke-linecap="round" stroke-linejoin="round" stroke-width="1.20747049">
                    <ellipse id="Oval" cx="3.71367511" cy="3.69405451" rx="3.71367511" ry="3.69405451"></ellipse>
                    <line x1="8.355769" y1="8.31162265" x2="6.49893144" y2="6.4645954" id="Path"></line>
                </g>
                <rect id="Rectangle-Copy-4" fill="#D8D8D8" x="82.3846154" y="155" width="50" height="5" rx="2.5"></rect>
                <g id="Group-20" transform="translate(1.384615, 0.000000)">
                    <g id="Oval-Copy-52">
                        <use fill="black" fill-opacity="1" filter="url(#filter-35)" xlink:href="#path-34"></use>
                        <use fill="#53B9C9" fill-rule="evenodd" xlink:href="#path-34"></use>
                    </g>
                    <g id="user-(1)" transform="translate(50.000000, 50.000000)" fill="#FFFFFF" fill-rule="nonzero">
                        <path d="M30.4071947,24.726242 C34.4013659,22.4401111 37.130451,18.1833749 37.130451,13.260902 C37.130451,5.94886349 31.1815875,0 23.869549,0 C16.5575105,0 10.608647,5.94886349 10.608647,13.260902 C10.608647,18.1833749 13.3377321,22.4401111 17.3319033,24.726242 C7.34125384,27.3492817 0,35.7964913 0,45.8083996 L0,49.0652255 C0,49.797225 0.594127993,50.391353 1.3261275,50.391353 C2.058127,50.391353 2.65225499,49.797225 2.65225499,49.0652255 L2.65225499,45.8083996 C2.65213067,35.175883 12.1708593,26.521804 23.869549,26.521804 C35.5682387,26.521804 45.0869673,35.175883 45.0869673,45.8083996 L45.0869673,49.0652255 C45.0869673,49.797225 45.6810953,50.391353 46.4130948,50.391353 C47.1450943,50.391353 47.7392223,49.797225 47.7392223,49.0652255 L47.7392223,45.8083996 C47.7392223,35.7964913 40.3978442,27.346671 30.4071947,24.726242 Z M13.260902,13.260902 C13.260902,7.41025176 18.0188988,2.65225499 23.869549,2.65225499 C29.7201992,2.65225499 34.478196,7.41025176 34.478196,13.260902 C34.478196,19.1115522 29.7201992,23.869549 23.869549,23.869549 C18.0188988,23.869549 13.260902,19.1116766 13.260902,13.260902 Z" id="Shape"></path>
                        <path d="M48.2642281,24.7608032 C51.1391412,22.8591957 53.0434837,19.6075913 53.0434837,15.913157 C53.0434837,10.0625068 48.2854869,5.30450998 42.4348367,5.30450998 C41.7028372,5.30450998 41.1087092,5.89863798 41.1087092,6.63063748 C41.1087092,7.36263698 41.7028372,7.95676498 42.4348367,7.95676498 C46.8214879,7.95676498 50.391353,11.5266301 50.391353,15.9132813 C50.391353,20.2999325 46.8214879,23.8697976 42.4348367,23.8697976 C41.7028372,23.8697976 41.1087092,24.4639256 41.1087092,25.1959251 C41.1087092,25.9279246 41.7027128,26.521804 42.4347123,26.521804 C51.2107499,26.521804 58.347745,33.117756 58.347745,41.2280569 L58.347745,43.7608398 C58.347745,44.4928393 58.941873,45.0869673 59.6738725,45.0869673 C60.405872,45.0869673 61,44.4928393 61,43.7608398 L61,41.2280569 C61,33.5633209 55.653221,27.0522799 48.2642281,24.7608032 Z" id="Path"></path>
                    </g>
                    <circle id="Oval-Copy-52" stroke-opacity="0.67111014" stroke="#53B9C9" stroke-width="0.8" cx="81.5" cy="81.5" r="65.1"></circle>
                    <circle id="Oval-Copy-52" stroke-opacity="0.316296984" stroke="#53B9C9" stroke-width="0.8" cx="81" cy="81" r="80.6"></circle>
                </g>
            </g>
        </g>
    </g>
</svg>