<?xml version="1.0" encoding="UTF-8"?>
<svg width="384px" height="452px" viewBox="0 0 384 452" version="1.1" xmlns="http://www.w3.org/2000/svg" xmlns:xlink="http://www.w3.org/1999/xlink">
    <title>1_data_capture</title>
    <defs>
        <radialGradient cx="5.74790073%" cy="97.6369511%" fx="5.74790073%" fy="97.6369511%" r="51.488786%" gradientTransform="translate(0.057479,0.976370),scale(1.000000,0.541928),rotate(90.000000),translate(-0.057479,-0.976370)" id="radialGradient-1">
            <stop stop-color="#ADDAE1" offset="0%"></stop>
            <stop stop-color="#FFFFFF" offset="100%"></stop>
        </radialGradient>
        <radialGradient cx="78.3801132%" cy="-1.67790412%" fx="78.3801132%" fy="-1.67790412%" r="45.1628457%" gradientTransform="translate(0.783801,-0.016779),scale(1.000000,0.541928),rotate(87.200656),translate(-0.783801,0.016779)" id="radialGradient-2">
            <stop stop-color="#FDE5AE" offset="0%"></stop>
            <stop stop-color="#FFFFFF" stop-opacity="0" offset="100%"></stop>
        </radialGradient>
        <path d="M121.864198,56.2189055 L267.600823,56.2189055 C280.303372,56.2189055 290.600823,66.5163562 290.600823,79.2189055 L290.600823,387.023217 C290.600823,399.725766 280.303372,410.023217 267.600823,410.023217 L121.864198,410.023217 C109.161648,410.023217 98.8641975,399.725766 98.8641975,387.023217 L98.8641975,79.2189055 C98.8641975,66.5163562 109.161648,56.2189055 121.864198,56.2189055 Z" id="path-3"></path>
        <filter x="-30.0%" y="-15.1%" width="160.0%" height="132.5%" filterUnits="objectBoundingBox" id="filter-4">
            <feOffset dx="0" dy="4" in="SourceAlpha" result="shadowOffsetOuter1"></feOffset>
            <feGaussianBlur stdDeviation="18.5" in="shadowOffsetOuter1" result="shadowBlurOuter1"></feGaussianBlur>
            <feColorMatrix values="0 0 0 0 0   0 0 0 0 0   0 0 0 0 0  0 0 0 0.102819056 0" type="matrix" in="shadowBlurOuter1"></feColorMatrix>
        </filter>
        <linearGradient x1="63.678393%" y1="44.209341%" x2="-39.5206154%" y2="65.4117507%" id="linearGradient-5">
            <stop stop-color="#D1D1D1" stop-opacity="0.352901005" offset="0%"></stop>
            <stop stop-color="#FFFFFF" stop-opacity="0.352901005" offset="100%"></stop>
        </linearGradient>
        <path d="M121.864198,56.2189055 L267.600823,56.2189055 C280.303372,56.2189055 290.600823,66.5163562 290.600823,79.2189055 L290.600823,93.1264035 L290.600823,93.1264035 L98.8641975,93.1264035 L98.8641975,79.2189055 C98.8641975,66.5163562 109.161648,56.2189055 121.864198,56.2189055 Z" id="path-6"></path>
        <filter x="-68.8%" y="-243.9%" width="237.7%" height="815.3%" filterUnits="objectBoundingBox" id="filter-7">
            <feOffset dx="0" dy="42" in="SourceAlpha" result="shadowOffsetOuter1"></feOffset>
            <feGaussianBlur stdDeviation="37" in="shadowOffsetOuter1" result="shadowBlurOuter1"></feGaussianBlur>
            <feComposite in="shadowBlurOuter1" in2="SourceAlpha" operator="out" result="shadowBlurOuter1"></feComposite>
            <feColorMatrix values="0 0 0 0 0.633123868   0 0 0 0 0.633123868   0 0 0 0 0.633123868  0 0 0 0.303840691 0" type="matrix" in="shadowBlurOuter1"></feColorMatrix>
        </filter>
        <ellipse id="path-8" cx="307.078189" cy="314.076285" rx="38.9465021" ry="38.9784411"></ellipse>
        <filter x="-60.3%" y="-55.2%" width="220.7%" height="220.6%" filterUnits="objectBoundingBox" id="filter-9">
            <feOffset dx="0" dy="4" in="SourceAlpha" result="shadowOffsetOuter1"></feOffset>
            <feGaussianBlur stdDeviation="15" in="shadowOffsetOuter1" result="shadowBlurOuter1"></feGaussianBlur>
            <feColorMatrix values="0 0 0 0 0.764266304   0 0 0 0 0.764266304   0 0 0 0 0.764266304  0 0 0 0.5 0" type="matrix" in="shadowBlurOuter1"></feColorMatrix>
        </filter>
        <rect id="path-10" x="0" y="78.7064677" width="133.316872" height="88.4510779" rx="4.85383987"></rect>
        <filter x="-13.1%" y="-17.5%" width="135.3%" height="153.1%" filterUnits="objectBoundingBox" id="filter-11">
            <feOffset dx="6" dy="8" in="SourceAlpha" result="shadowOffsetOuter1"></feOffset>
            <feGaussianBlur stdDeviation="6.5" in="shadowOffsetOuter1" result="shadowBlurOuter1"></feGaussianBlur>
            <feColorMatrix values="0 0 0 0 0.458191803   0 0 0 0 0.458191803   0 0 0 0 0.458191803  0 0 0 0.103392701 0" type="matrix" in="shadowBlurOuter1"></feColorMatrix>
        </filter>
        <rect id="path-12" x="0" y="0" width="98.8641975" height="92.9485904" rx="4.85383987"></rect>
        <filter x="-29.3%" y="-29.0%" width="172.8%" height="177.5%" filterUnits="objectBoundingBox" id="filter-13">
            <feOffset dx="7" dy="9" in="SourceAlpha" result="shadowOffsetOuter1"></feOffset>
            <feGaussianBlur stdDeviation="10.5" in="shadowOffsetOuter1" result="shadowBlurOuter1"></feGaussianBlur>
            <feColorMatrix values="0 0 0 0 0.741423234   0 0 0 0 0.741423234   0 0 0 0 0.741423234  0 0 0 0.5 0" type="matrix" in="shadowBlurOuter1"></feColorMatrix>
        </filter>
        <linearGradient x1="6.27501507e-14%" y1="100%" x2="190.115111%" y2="100%" id="linearGradient-14">
            <stop stop-color="#FFFFFF" offset="0%"></stop>
            <stop stop-color="#E2E6E7" offset="100%"></stop>
        </linearGradient>
        <rect id="path-15" x="262" y="108" width="114" height="35" rx="17.5"></rect>
        <filter x="-38.2%" y="-50.0%" width="150.9%" height="257.1%" filterUnits="objectBoundingBox" id="filter-16">
            <feOffset dx="-16" dy="10" in="SourceAlpha" result="shadowOffsetOuter1"></feOffset>
            <feGaussianBlur stdDeviation="6.5" in="shadowOffsetOuter1" result="shadowBlurOuter1"></feGaussianBlur>
            <feComposite in="shadowBlurOuter1" in2="SourceAlpha" operator="out" result="shadowBlurOuter1"></feComposite>
            <feColorMatrix values="0 0 0 0 0   0 0 0 0 0   0 0 0 0 0  0 0 0 0.0873033217 0" type="matrix" in="shadowBlurOuter1"></feColorMatrix>
        </filter>
        <rect id="path-17" x="206" y="128" width="114" height="35" rx="17.5"></rect>
        <filter x="-29.4%" y="-67.1%" width="181.6%" height="368.6%" filterUnits="objectBoundingBox" id="filter-18">
            <feOffset dx="13" dy="24" in="SourceAlpha" result="shadowOffsetOuter1"></feOffset>
            <feGaussianBlur stdDeviation="11.5" in="shadowOffsetOuter1" result="shadowBlurOuter1"></feGaussianBlur>
            <feComposite in="shadowBlurOuter1" in2="SourceAlpha" operator="out" result="shadowBlurOuter1"></feComposite>
            <feColorMatrix values="0 0 0 0 0   0 0 0 0 0   0 0 0 0 0  0 0 0 0.084489729 0" type="matrix" in="shadowBlurOuter1"></feColorMatrix>
        </filter>
    </defs>
    <g id="Privacy" stroke="none" stroke-width="1" fill="none" fill-rule="evenodd">
        <g id="AboutEmpathyPlatformPage-Copy" transform="translate(-889.000000, -1342.000000)">
            <g id="1_data_capture_margin_top" transform="translate(892.000000, 1286.000000)">
                <g id="1_data_capture" transform="translate(4.000000, 56.000000)">
                    <g id="Group-5">
                        <ellipse id="Oval-Copy-44" fill-opacity="0.47" fill="#53B9C9" cx="109.349794" cy="395.031509" rx="56.9218107" ry="56.9684909"></ellipse>
                        <ellipse id="Oval-Copy-45" fill="#8B6391" opacity="0.243884859" cx="76.3950617" cy="26.2354892" rx="22.4691358" ry="22.4875622"></ellipse>
                        <ellipse id="Oval-Copy-46" fill-opacity="0.495547421" fill="#FDCB5B" cx="260.641975" cy="42.7263682" rx="42.691358" ry="42.7263682"></ellipse>
                        <g id="Rectangle-Copy-50">
                            <use fill="black" fill-opacity="1" filter="url(#filter-4)" xlink:href="#path-3"></use>
                            <use fill-opacity="0.352901005" fill="#FFFFFF" fill-rule="evenodd" xlink:href="#path-3"></use>
                            <use fill="url(#radialGradient-1)" fill-rule="evenodd" xlink:href="#path-3"></use>
                            <use fill="url(#radialGradient-2)" fill-rule="evenodd" xlink:href="#path-3"></use>
                        </g>
                        <ellipse id="Oval-Copy-47" fill="#E67962" opacity="0.481212798" cx="340.032922" cy="347.058043" rx="23.9670782" ry="23.986733"></ellipse>
                        <g id="Rectangle-Copy-63">
                            <use fill="black" fill-opacity="1" filter="url(#filter-7)" xlink:href="#path-6"></use>
                            <use fill="url(#linearGradient-5)" fill-rule="evenodd" xlink:href="#path-6"></use>
                        </g>
                        <g id="Oval-Copy-48">
                            <use fill="black" fill-opacity="1" filter="url(#filter-9)" xlink:href="#path-8"></use>
                            <use fill="#FFFFFF" fill-rule="evenodd" xlink:href="#path-8"></use>
                        </g>
                        <g id="l/Cart-Copy-2" transform="translate(284.597040, 296.075871)" stroke="#E67962" stroke-linecap="round" stroke-linejoin="round" stroke-width="2">
                            <ellipse id="Oval" cx="16.0319329" cy="35.2747416" rx="2.88474345" ry="2.81143634"></ellipse>
                            <ellipse id="Oval" cx="33.6228718" cy="35.2747416" rx="2.88474345" ry="2.81143634"></ellipse>
                            <path d="M0,0 L7.53897382,0 L12.5900863,24.2551327 C12.945807,25.9764166 14.5339804,27.2051697 16.3595732,27.1715452 L34.6792796,27.1715452 C36.5048723,27.2051697 38.0930457,25.9764166 38.4487665,24.2551327 L41.464356,9.05718172 L9.42371727,9.05718172" id="Path"></path>
                        </g>
                        <g id="Rectangle-Copy-64">
                            <use fill="black" fill-opacity="1" filter="url(#filter-11)" xlink:href="#path-10"></use>
                            <use fill="#FFFFFF" fill-rule="evenodd" xlink:href="#path-10"></use>
                        </g>
                        <g id="Group-7" transform="translate(82.905350, 137.190713)">
                            <g id="Group-3">
                                <ellipse id="Oval-Copy-25" stroke="#80C0A1" opacity="0.140322731" cx="112.327161" cy="112.419277" rx="111.827161" ry="111.919277"></ellipse>
                                <g id="Group-2" transform="translate(61.512493, 61.562938)">
                                    <g id="Group" fill="#1E3D49">
                                        <ellipse id="Oval-Copy-40" cx="50.8146678" cy="50.8563397" rx="50.8146678" ry="50.8563397"></ellipse>
                                    </g>
                                    <g id="Group-4" transform="translate(34.767931, 81.637808)">
                                        <polygon id="Path-2" fill="#1E3D49" points="14.2637943 3.61440348 4.55873216 11.1296085 6.27466336 29.1457621 11.5912958 30.332937 22.6217344 30.332937 24.0701058 27.611831 27.0710337 20.0748709 27.0710337 12.9609904 24.0701058 7.46684473"></polygon>
                                        <g id="Group-2-Copy" fill="#80C0A1" fill-rule="nonzero">
                                            <path d="M16.0467372,18.4550503 C15.0638746,18.4550503 14.2637943,19.2768479 14.2637943,20.2863892 C14.2637943,20.9552963 14.6322842,21.5164674 15.1553075,21.8361555 L15.1553075,23.0334406 C15.1553075,23.5395849 15.5540522,23.949153 16.0468208,23.949153 C16.5395893,23.949153 16.9383341,23.5395849 16.9383341,23.0334406 L16.9383341,21.8361555 C17.4613574,21.5164674 17.8298473,20.9552104 17.8298473,20.2863892 C17.8296802,19.2768479 17.0295999,18.4550503 16.0467372,18.4550503 Z" id="Path"></path>
                                            <path d="M16.0467372,11.1296085 C14.5719418,11.1296085 13.372281,12.3618328 13.372281,13.8766599 L13.372281,14.7923723 L18.7211934,14.7923723 L18.7211934,13.8766599 C18.7211934,12.3618328 17.5214491,11.1296085 16.0467372,11.1296085 Z" id="Path"></path>
                                            <path d="M31.4988258,5.54644698 L16.3436019,0.0523442057 C16.1520439,-0.0174480686 15.9414305,-0.0174480686 15.7498726,0.0523442057 L0.594648621,5.54644698 C0.238611639,5.67607346 0,6.02220194 0,6.41030879 L0,17.3985143 C0,31.6184541 2.05289587,31.7441573 15.6454016,38.7834765 C15.7716025,38.848719 15.9091699,38.8818553 16.0467372,38.8818553 C16.1843046,38.8818553 16.3218719,38.8488048 16.4480728,38.7834765 C30.0405786,31.7441573 32.0934744,31.6184541 32.0934744,17.3985143 L32.0934744,6.41030879 C32.0934744,6.02220194 31.8548628,5.67615931 31.4988258,5.54644698 Z M24.0701058,25.780492 C24.0701058,26.7900334 23.2700255,27.611831 22.2871629,27.611831 L9.80631155,27.611831 C8.8234489,27.611831 8.02336861,26.7900334 8.02336861,25.780492 L8.02336861,16.6237113 C8.02336861,15.6141699 8.8234489,14.7923723 9.80631155,14.7923723 L9.80631155,13.8766599 C9.80631155,10.3426642 12.6061329,7.46684473 16.0467372,7.46684473 C19.4873415,7.46684473 22.2871629,10.3426642 22.2871629,13.8766599 L22.2871629,14.7923723 C23.2700255,14.7923723 24.0701058,15.6141699 24.0701058,16.6237113 L24.0701058,25.780492 L24.0701058,25.780492 Z" id="Shape"></path>
                                        </g>
                                    </g>
                                </g>
                                <ellipse id="Oval-Copy-41" stroke="#80C0A1" opacity="0.79859561" cx="112.32716" cy="112.419277" rx="65.024177" ry="65.0779117"></ellipse>
                                <ellipse id="Oval-Copy-42" stroke="#80C0A1" opacity="0.30094401" cx="112.32716" cy="112.419277" rx="79.7336861" ry="79.7994837"></ellipse>
                                <ellipse id="Oval-Copy-43" stroke="#80C0A1" opacity="0.20359003" cx="112.327161" cy="112.419277" rx="95.7804233" ry="95.8593805"></ellipse>
                            </g>
                            <g id="click-copy" transform="translate(90.931511, 78.961159)" fill="#FFFFFF" fill-rule="nonzero">
                                <path d="M35.3675079,23.5785487 C34.768093,23.5785487 34.1948619,23.6905231 33.6663164,23.8926571 C33.0817246,21.9452494 31.2630306,20.5208543 29.1147665,20.5208543 C28.4968498,20.5208543 27.9067399,20.639921 27.364778,20.8540908 C26.7331202,18.9850221 24.9540265,17.6340228 22.8620252,17.6340228 C22.3366175,17.6340228 21.8314428,17.7204214 21.3586191,17.8776368 L21.3586191,12.8839255 C21.3586191,10.2830477 19.2280995,8.16692626 16.6092839,8.16692626 C13.9904684,8.16692626 11.8599487,10.2829402 11.8599487,12.8839255 L11.8599487,33.2867877 L10.0050085,30.5521209 L9.96194582,30.4989277 C8.14411735,28.2547128 4.94611986,27.7559865 2.52325022,29.338994 C1.25636412,30.1667659 0.398032281,31.4366322 0.106439655,32.9145429 C-0.183097216,34.3820299 0.1226693,35.8690748 0.967476433,37.1053058 L9.23442492,50.0475826 L9.26699241,50.0966923 C11.3989186,53.1795326 14.9196696,55.0200166 18.6852719,55.0200166 L27.9633273,55.0200166 C34.6648724,55.0200166 40.116843,49.6050584 40.116843,42.9492483 L40.116843,28.2956555 C40.116843,25.6945627 37.9863234,23.5785487 35.3675079,23.5785487 Z M36.8712386,42.9492483 C36.8712386,47.8275465 32.8749589,51.7961875 27.9633273,51.7961875 L18.6852719,51.7961875 C15.9988329,51.7961875 13.486592,50.4878502 11.9588414,48.2947868 L3.69394863,35.3557337 L3.66138114,35.3066241 C3.30065023,34.7850085 3.1695147,34.1557171 3.29199442,33.5347001 C3.41458234,32.9137907 3.77520506,32.3801395 4.30753742,32.0323958 C5.30879833,31.3780659 6.62502256,31.5702061 7.39495693,32.473738 L15.1062024,43.8426788 L15.1062024,12.884033 C15.1062024,12.0607745 15.7805982,11.3908628 16.6096085,11.3908628 C17.4386188,11.3908628 18.1130146,12.060667 18.1130146,12.884033 L18.1130146,28.9918951 L21.3589437,28.9918951 L21.3589437,22.3510221 C21.3589437,21.5277636 22.0333395,20.8578519 22.8623498,20.8578519 C23.6913601,20.8578519 24.365756,21.5276561 24.365756,22.3510221 L24.365756,28.9918951 L27.611685,28.9918951 L27.611685,25.2377461 C27.611685,24.4144876 28.2860809,23.7445759 29.1150911,23.7445759 C29.9441014,23.7445759 30.6184973,24.4143802 30.6184973,25.2377461 L30.6184973,28.9918951 L33.8644263,28.9918951 L33.8644263,28.4227818 L33.8644263,28.295548 C33.8644263,27.4721821 34.5388222,26.8022704 35.3678324,26.8022704 C36.1968427,26.8022704 36.8712386,27.4720746 36.8712386,28.295548 L36.8712386,42.9492483 L36.8712386,42.9492483 Z" id="Shape"></path>
                                <rect id="Rectangle" x="14.895758" y="0" width="3.24592904" height="4.45963025"></rect>
                                <polygon id="Rectangle" transform="translate(22.935500, 4.637635) rotate(-47.654624) translate(-22.935500, -4.637635) " points="20.6932418 3.01206981 25.1667564 3.02729007 25.177759 6.26320094 20.7042444 6.24798068"></polygon>
                                <polygon id="Rectangle" transform="translate(26.044533, 10.706888) rotate(-5.313219) translate(-26.044533, -10.706888) " points="23.7985522 9.0934743 28.2884767 9.09629307 28.2905144 12.3203008 23.8005898 12.317482"></polygon>
                                <polygon id="Rectangle" transform="translate(10.002300, 4.635956) rotate(-42.345376) translate(-10.002300, -4.635956) " points="8.3767342 2.39369705 11.6126451 2.40469965 11.6278653 6.87821419 8.39195446 6.86721159"></polygon>
                                <polygon id="Rectangle" transform="translate(6.893220, 10.708206) rotate(-84.686781) translate(-6.893220, -10.708206) " points="5.27980719 8.46222535 8.50381491 8.46426301 8.50663368 12.9541876 5.28262596 12.9521499"></polygon>
                            </g>
                        </g>
                        <g id="Group-8-Copy" transform="translate(20.971193, 292.338308)">
                            <g id="Rectangle-Copy-62">
                                <use fill="black" fill-opacity="1" filter="url(#filter-13)" xlink:href="#path-12"></use>
                                <use fill="#FFFFFF" fill-rule="evenodd" xlink:href="#path-12"></use>
                            </g>
                            <g id="Group-2-Copy-2" transform="translate(19.473251, 14.242123)" fill="#53B9C9" fill-rule="nonzero">
                                <g id="polo-shirt">
                                    <ellipse id="Oval" cx="30.1640949" cy="13.2763836" rx="1" ry="1"></ellipse>
                                    <ellipse id="Oval" cx="30.1640949" cy="16.8456582" rx="1" ry="1"></ellipse>
                                    <ellipse id="Oval" cx="30.1640949" cy="20.414808" rx="1" ry="1"></ellipse>
                                    <path d="M39.5983889,29.1155858 C41.8695269,29.1155858 43.7173065,27.2672961 43.7173065,24.9955311 L43.7173065,20.4003302 C43.7173065,19.3760266 42.8841898,18.5426799 41.8601688,18.5426799 L37.0210552,18.5426799 C35.9970342,18.5426799 35.1637928,19.3760266 35.1637928,20.4003302 L35.1637928,24.9955311 C35.1637928,27.2672961 37.0115723,29.1155858 39.2827104,29.1155858 L39.5983889,29.1155858 Z M37.0354042,24.9955311 L37.0354042,20.414808 L41.8456951,20.414808 L41.8456951,24.9955311 C41.8456951,26.2350047 40.8376451,27.2434577 39.5983889,27.2434577 L39.2827104,27.2434577 C38.0434541,27.2434577 37.0354042,26.2350047 37.0354042,24.9955311 Z" id="Shape"></path>
                                    <path d="M59.8046799,20.6462031 L58.7055449,16.9969262 C57.6106522,13.3621271 55.299836,10.1547972 52.1989502,7.96590505 C52.1413046,7.92521746 52.093017,7.89314167 52.0230188,7.85657277 C50.4433788,6.75750877 41.8536806,4.19518945 41.7970332,4.18233417 L39.3479672,0.424848269 C39.2034788,0.203188303 38.9717734,0.0529188208 38.7104964,0.0114823857 C38.6718164,0.00536676721 38.6331365,0.00249617079 38.5944565,0.0012480854 C38.5859719,0.000748851238 38.5779863,0 38.5686283,0 L21.6030947,0 C21.5956083,0 21.5893696,0.000873659778 21.582507,0.0012480854 C21.5405829,0.00212174518 21.498534,0.00486753305 21.4567347,0.0114823857 C21.195333,0.0529188208 20.9637523,0.203063494 20.8192639,0.424848269 L18.5329034,3.9328419 C17.8099623,4.08136406 10.3883992,6.41802954 8.90333794,7.15489916 C8.51603915,7.34710431 8.02455399,7.5750047 7.65547222,7.88677643 C4.58665339,10.0745453 2.2997938,13.2622802 1.2122628,16.8722424 L0.113003036,20.5213945 C-0.27641691,21.8140366 0.368914702,23.1819382 1.61378583,23.7032634 L9.64636766,27.0673528 L9.64636766,47.1170959 C9.64636766,47.6340529 10.0653591,48.0531599 10.5821734,48.0531599 C11.0989877,48.0531599 11.5179791,47.6340529 11.5179791,47.1170959 L11.5179791,19.0394179 C11.5179791,18.873173 11.500885,18.7064287 11.467196,18.5436784 C11.4643262,18.5296999 11.4610821,18.5157213 11.4574636,18.5018675 L9.07477754,9.16905937 C10.1321132,8.52217671 13.7343413,7.20569623 16.8430878,6.23418656 C17.4733218,6.07817589 18.1141615,5.9337724 18.7513828,5.8007265 L25.3435725,14.0105074 C25.5215004,14.2320426 25.7900142,14.3603458 26.0731266,14.3603458 C26.0823599,14.3603458 26.0915932,14.360221 26.1008265,14.3599713 C26.3940456,14.3513596 26.6661779,14.205708 26.8361202,13.96645 L30.0836156,9.39383955 L33.3309861,13.96645 C33.5008037,14.205708 33.7730607,14.3513596 34.0661551,14.3599713 C34.0753884,14.360221 34.0846217,14.3603458 34.0938549,14.3603458 C34.3770921,14.3603458 34.645606,14.2320426 34.8235338,14.0105074 L41.2698626,5.98244774 C41.3534613,6.00129382 49.4338316,8.52529692 50.6515019,9.20475461 L48.2779244,18.5017427 C48.2744307,18.5155965 48.2710618,18.529575 48.268192,18.5435536 C48.234503,18.7063039 48.2175337,18.8730481 48.2175337,19.0392931 L48.2175337,32.7126927 C48.2175337,33.2296497 48.6364003,33.6487567 49.1533394,33.6487567 C49.6702785,33.6487567 50.0891451,33.2296497 50.0891451,32.7126927 L50.0891451,27.2650495 C50.1086099,27.2583099 50.1281994,27.2520695 50.1474146,27.2439569 L58.3040219,23.8279472 C59.548893,23.3068715 60.1940998,21.9388451 59.8046799,20.6462031 Z M9.63763348,18.9393215 C9.64349786,18.9722709 9.64636766,19.0058444 9.64636766,19.0394179 L9.64636766,25.0378412 L2.33660216,21.9764125 C1.97862528,21.8265174 1.79308621,21.4331209 1.90500857,21.0614411 L3.00426833,17.412289 C3.81492562,14.7210425 5.37597431,12.2951389 7.46569083,10.4327458 L9.63763348,18.9393215 Z M30.0836156,6.57503868 L27.7769169,4.71414335 C29.2967901,4.66247262 30.8220286,4.67482866 32.3415276,4.75345804 L30.0836156,6.57503868 Z M34.4795317,3.02860403 C31.6334346,2.77449384 28.7491566,2.7402963 25.8996907,2.93225183 C25.8078569,2.93849226 25.7202655,2.95821201 25.6380394,2.98854048 L24.2541699,1.8721281 L35.913186,1.8721281 L34.4795317,3.02860403 Z M26.0274593,11.872662 L20.2675128,4.69941595 L21.8215742,2.3149488 L28.810795,7.95342419 L26.0274593,11.872662 Z M34.1397718,11.872662 L31.3563113,7.95342419 L38.3455322,2.3149488 L39.8995935,4.69941595 L34.1397718,11.872662 Z M57.5810808,22.101221 L50.0890203,25.2389077 L50.0890203,19.0394179 C50.0890203,19.0058444 50.0918901,18.9722709 50.0977545,18.9391967 L52.2769341,10.4041647 C54.4546163,12.2856534 56.080298,14.7713403 56.9134146,17.5370975 L58.0126744,21.1863744 C58.1247215,21.5580543 57.9390577,21.951326 57.5810808,22.101221 L57.5810808,22.101221 Z" id="Shape"></path>
                                    <path d="M49.1532146,35.5210096 C48.6362756,35.5210096 48.2174089,35.9401167 48.2174089,36.4570737 L48.2174089,57.7665093 L11.5179791,57.7665093 L11.5179791,50.8613521 C11.5179791,50.3443951 11.0989877,49.925288 10.5821734,49.925288 C10.0653591,49.925288 9.64636766,50.3443951 9.64636766,50.8613521 L9.64636766,57.7665093 L9.64636766,61.5669294 L9.64636766,61.5670542 C9.64636766,62.4553166 10.1887606,63.2192696 10.9601141,63.5457688 C11.2171487,63.6546018 11.4997621,63.7147595 11.7961005,63.7147595 L47.9394122,63.7147595 C49.1247661,63.7147595 50.0890203,62.7512376 50.0890203,61.5670542 L50.0890203,57.7666341 L50.0890203,36.4570737 C50.0890203,35.9401167 49.6701537,35.5210096 49.1532146,35.5210096 L49.1532146,35.5210096 Z M48.2175337,61.5670542 C48.2175337,61.719071 48.0926348,61.8426314 47.9394122,61.8426314 L11.7961005,61.8426314 C11.7385797,61.8426314 11.6851764,61.8252831 11.6407568,61.7954538 C11.5667657,61.7459048 11.5181038,61.6619087 11.5181038,61.5669294 L11.5181038,59.6386374 L48.2175337,59.6386374 L48.2175337,61.5670542 L48.2175337,61.5670542 Z" id="Shape"></path>
                                </g>
                            </g>
                        </g>
                        <rect id="Rectangle-Copy-65" fill="#8B6391" x="19.473251" y="102.693201" width="94.3703704" height="4.49751244" rx="2.24875622"></rect>
                        <rect id="Rectangle-Copy-66" fill="url(#linearGradient-14)" x="151.292181" y="395.031509" width="94.3703704" height="4.49751244" rx="2.24875622"></rect>
                        <rect id="Rectangle-Copy-67" fill="#8B6391" x="19.473251" y="114.686567" width="66.6143791" height="4.49751244" rx="2.24875622"></rect>
                        <rect id="Rectangle-Copy-68" fill="#8B6391" x="19.473251" y="126.679934" width="83.2679739" height="4.49751244" rx="2.24875622"></rect>
                        <rect id="Rectangle-Copy-69" fill="#8B6391" x="19.473251" y="138.6733" width="49.9607843" height="4.49751244" rx="2.24875622"></rect>
                        <rect id="Rectangle-Copy-35" fill="#FFFFFF" x="170.765432" y="74.2089552" width="47.9341564" height="4.49751244" rx="1"></rect>
                    </g>
                    <g id="Rectangle-Copy-48">
                        <use fill="black" fill-opacity="1" filter="url(#filter-16)" xlink:href="#path-15"></use>
                        <rect stroke="#D7D7D7" stroke-width="0.60673" stroke-linejoin="square" fill-opacity="0.727682474" fill="#FFFFFF" fill-rule="evenodd" x="262.303365" y="108.303365" width="113.39327" height="34.39327" rx="17.196635"></rect>
                    </g>
                    <g id="Rectangle-Copy-54">
                        <use fill="black" fill-opacity="1" filter="url(#filter-18)" xlink:href="#path-17"></use>
                        <rect stroke="#D7D7D7" stroke-width="0.60673" stroke-linejoin="square" fill-opacity="0.883249563" fill="#FFFFFF" fill-rule="evenodd" x="206.303365" y="128.303365" width="113.39327" height="34.39327" rx="17.196635"></rect>
                    </g>
                    <g id="pie-de-foto-letra-pequeña-copy-10" transform="translate(219.428000, 138.178000)" fill="#243D48" fill-rule="nonzero">
                        <path d="M0,6.562 L15.164,6.562 L15.164,8.262 L0,8.262 L0,6.562 Z M8.432,0 L8.432,15.164 L6.732,15.164 L6.732,0 L8.432,0 Z" id="Shape"></path>
                    </g>
                </g>
            </g>
        </g>
    </g>
</svg>