<svg width="822" height="384" xmlns="http://www.w3.org/2000/svg"><g fill="none" fill-rule="evenodd"><path fill="#FFF" d="M0 0h822v384H0z"/><g transform="translate(176.817 23.5)" fill="#FFF"><rect stroke="#D3D3D3" x=".5" y=".5" width="568" height="25.5" rx="12.75"/><ellipse stroke="#1E3D49" cx="552.997" cy="13.111" rx="6.297" ry="6.5"/><path stroke="#1E3D49" d="m557.599 17.853 3.431 3.534"/></g><rect fill="#243C47" x="184.839" y="28.25" width="85.5" height="17" rx="8.5"/><rect stroke="#1E3D49" stroke-width="2.5" fill="#FFF" x="274.629" y="29.5" width="83" height="14.5" rx="7.25"/><rect fill="#E2E6E7" opacity=".606" x="176.817" y="99.899" width="133.896" height="27.5" rx="13.75"/><rect fill="#E2E6E7" opacity=".606" x="177.043" y="255.553" width="131.307" height="116" rx="8"/><circle fill="#53B9C9" cx="201.051" cy="322.203" r="5.797"/><circle fill="#53B9C9" cx="216.644" cy="322.203" r="5.797"/><circle fill="#53B9C9" cx="232.237" cy="322.203" r="5.797"/><circle fill="#53B9C9" cx="247.831" cy="322.203" r="5.797"/><circle fill="#53B9C9" cx="263.424" cy="322.203" r="5.797"/><circle fill="#53B9C9" cx="279.017" cy="322.203" r="5.797"/><circle fill="#53B9C9" opacity=".5" cx="263.424" cy="337.797" r="5.797"/><circle fill="#53B9C9" opacity=".5" cx="279.017" cy="337.797" r="5.797"/><circle fill="#53B9C9" cx="247.831" cy="337.797" r="5.797"/><circle fill="#53B9C9" cx="201.051" cy="337.797" r="5.797"/><circle fill="#53B9C9" cx="216.644" cy="337.797" r="5.797"/><circle fill="#53B9C9" cx="232.237" cy="337.797" r="5.797"/><text font-family="Montserrat-Regular, Montserrat" font-size="35" fill="#1E3D49">
                <tspan x="227.349" y="301.649">A</tspan>
            </text><circle fill="#53B9C9" opacity=".5" cx="201.051" cy="353.39" r="5.797"/><circle fill="#53B9C9" opacity=".5" cx="216.644" cy="353.39" r="5.797"/><circle fill="#53B9C9" opacity=".5" cx="232.237" cy="353.39" r="5.797"/><rect stroke="#80C0A1" stroke-width="3" fill="#FFF" x="318.509" y="254.053" width="134.307" height="119" rx="8"/><circle fill="#53B9C9" cx="344.983" cy="322.203" r="5.797"/><circle fill="#53B9C9" cx="360.577" cy="322.203" r="5.797"/><circle fill="#53B9C9" cx="376.17" cy="322.203" r="5.797"/><circle fill="#53B9C9" cx="391.763" cy="322.203" r="5.797"/><circle fill="#53B9C9" cx="407.357" cy="322.203" r="5.797"/><circle fill="#53B9C9" cx="422.95" cy="322.203" r="5.797"/><circle fill="#53B9C9" cx="391.763" cy="337.86" r="5.797"/><circle fill="#53B9C9" cx="344.983" cy="337.86" r="5.797"/><circle fill="#53B9C9" cx="360.577" cy="337.86" r="5.797"/><circle fill="#53B9C9" cx="376.17" cy="337.86" r="5.797"/><text font-family="Montserrat-Regular, Montserrat" font-size="35" fill="#1E3D49">
                <tspan x="368.553" y="301.649">D</tspan>
            </text><rect stroke="#80C0A1" stroke-width="3" fill="#FFF" x="461.476" y="254.053" width="134.307" height="119" rx="8"/><circle fill="#53B9C9" opacity=".6" cx="485.583" cy="322.203" r="5.797"/><circle fill="#53B9C9" opacity=".6" cx="501.177" cy="322.203" r="5.797"/><circle fill="#53B9C9" opacity=".6" cx="516.77" cy="322.203" r="5.797"/><circle fill="#53B9C9" opacity=".6" cx="532.363" cy="322.203" r="5.797"/><circle fill="#53B9C9" opacity=".6" cx="485.583" cy="337.203" r="5.797"/><circle fill="#53B9C9" opacity=".6" cx="501.177" cy="337.203" r="5.797"/><circle fill="#53B9C9" opacity=".6" cx="516.77" cy="337.203" r="5.797"/><circle fill="#53B9C9" opacity=".6" cx="532.363" cy="337.203" r="5.797"/><circle fill="#53B9C9" opacity=".6" cx="547.957" cy="322.203" r="5.797"/><circle fill="#53B9C9" opacity=".6" cx="563.363" cy="322.203" r="5.797"/><text font-family="Montserrat-Regular, Montserrat" font-size="35" fill="#1E3D49">
                <tspan x="515.045" y="301.649">B</tspan>
            </text><rect fill="#E2E6E7" opacity=".606" x="605.943" y="255.553" width="131.307" height="116" rx="8"/><circle fill="#53B9C9" opacity=".2" cx="625.37" cy="322.203" r="5.797"/><text font-family="Montserrat-Regular, Montserrat" font-size="35" fill="#1E3D49">
                <tspan x="655.045" y="301.649">C</tspan>
            </text><text font-family="Montserrat-Regular, Montserrat" font-size="18" fill="#1E3D49">
                <tspan x="233.586" y="119.649">A</tspan>
            </text><rect fill="#E2E6E7" opacity=".606" x="321.543" y="99.899" width="133.896" height="27.5" rx="13.75"/><text font-family="Montserrat-Regular, Montserrat" font-size="18" fill="#1E3D49">
                <tspan x="378.312" y="119.649">B</tspan>
            </text><rect fill="#E2E6E7" opacity=".606" x="467.835" y="99.899" width="133.896" height="27.5" rx="13.75"/><text font-family="Montserrat-Regular, Montserrat" font-size="18" fill="#1E3D49">
                <tspan x="524.604" y="119.649">C</tspan>
            </text><rect fill="#E2E6E7" opacity=".606" x="611.92" y="99.899" width="133.896" height="27.5" rx="13.75"/><text font-family="Montserrat-Regular, Montserrat" font-size="18" fill="#1E3D49">
                <tspan x="668.689" y="119.649">D</tspan>
            </text><text font-family="Montserrat-Regular, Montserrat" font-size="18" fill="#1E3D49">
                <tspan x="35.032" y="119">PRODUCTS</tspan>
            </text><text font-family="Montserrat-Regular, Montserrat" font-size="18" fill="#1E3D49">
                <tspan x="62.392" y="42.75">SEARCH</tspan>
            </text><text font-family="Montserrat-Regular, Montserrat" font-size="18" fill="#1E3D49">
                <tspan x="57.982" y="269">RESULTS</tspan>
            </text><path d="M244 133a19.446 19.446 0 0 0 14.873 18.9l.354.083 60.12 13.36a12.943 12.943 0 0 1 7.26 4.493l3.948-1.327-1.396 9.965-7.134-7.095 3.565-1.2a11.94 11.94 0 0 0-6.098-3.774l-.362-.086-60.12-13.36a20.446 20.446 0 0 1-16.007-19.591L243 133h1ZM195.89 133c0 6.534 3.325 12.61 8.805 16.135l.325.204 21.115 12.994a18.387 18.387 0 0 1 6.737 7.29l.002.004 4.011-.915-2.384 9.775-6.39-7.772 3.755-.858a17.386 17.386 0 0 0-5.886-6.44l-.369-.232-21.115-12.994a20.185 20.185 0 0 1-9.602-16.802l-.004-.389h1ZM531.5 133a9.13 9.13 0 0 0 7.187 8.921l.269.055 114.34 21.332a14.93 14.93 0 0 1 9.708 6.422l3.973-1.142-1.839 9.893-6.81-7.407 3.664-1.054a13.927 13.927 0 0 0-8.508-5.655l-.372-.074-114.34-21.332a10.13 10.13 0 0 1-8.268-9.678L530.5 133h1ZM677.5 133v7l.005.995.015.995.46 23 .015 1.005L678 167l-.001 2.5H682l-4.5 9-4.5-9h3.999L677 167l-.005-.995-.015-.995-.46-23-.015-1.005L676.5 140v-7h1Z" fill="#1E3D49" fill-rule="nonzero"/><path d="M393 133c0 10.265 7.954 18.75 18.156 19.448l.345.02 243.54 12.421a13.103 13.103 0 0 1 9.603 4.936l3.951-1.31-1.438 9.96-7.104-7.126 3.575-1.186a12.1 12.1 0 0 0-8.286-4.252l-.352-.023-243.54-12.42c-10.781-.55-19.266-9.363-19.447-20.117L392 133h1Z" fill="#1E3D49" fill-rule="nonzero"/><path d="M216.5 133a7.973 7.973 0 0 0 7.264 7.941l.252.019 415.032 23.852a13.185 13.185 0 0 1 9.615 5.008l3.952-1.301-1.459 9.956-7.09-7.14 3.58-1.18a12.182 12.182 0 0 0-8.302-4.319l-.353-.025-415.033-23.853a8.973 8.973 0 0 1-8.454-8.695L215.5 133h1Z" fill="#1E3D49" fill-rule="nonzero"/><path d="M363.5 133c0 4.976 1.231 9.871 3.58 14.251l.265.485 4.228 7.55a46.488 46.488 0 0 1 5.1 13.982l.04.225 4.036-.35-3.706 9.355-5.26-8.578 3.93-.341-.023-.123a45.488 45.488 0 0 0-4.636-13.039l-.353-.643-4.228-7.55a31.159 31.159 0 0 1-3.968-14.653L362.5 133h1Z" fill="#1E3D49" fill-rule="nonzero"/><path stroke="#1E3D49" d="M157 13.5V372"/><path d="M230 46c0 12.735 9.385 23.5 21.957 25.268l.382.05L363.376 85.26a13.828 13.828 0 0 1 9.422 5.523l3.962-1.237-1.61 9.932-6.98-7.248 3.614-1.13a12.825 12.825 0 0 0-8.168-4.797l-.364-.05-111.038-13.94c-13.13-1.65-23.015-12.72-23.211-25.912L229 46h1ZM209.5 46c0 8.2 1.718 16.305 5.041 23.794l.327.723 2.665 5.796a54.296 54.296 0 0 1 4.242 13.846l.052.33 4.033-.298-3.823 9.308-5.152-8.644 3.941-.292-.037-.241a53.296 53.296 0 0 0-3.82-12.825l-.344-.766-2.666-5.796a59.676 59.676 0 0 1-5.454-24.153L208.5 46h1Z" fill="#1E3D49" fill-rule="nonzero"/><path d="M237.5 46c0 10.317 7.858 18.913 18.093 19.871l.346.03 260.856 19.926c3.73.285 7.1 2.116 9.369 4.993l3.951-1.301-1.459 9.956-7.089-7.14 3.58-1.18a12.184 12.184 0 0 0-8.072-4.299l-.357-.032-260.856-19.926c-10.805-.826-19.178-9.745-19.359-20.541L236.5 46h1Z" fill="#1E3D49" fill-rule="nonzero"/><path d="M246.5 46c0 6.918 5.287 12.668 12.143 13.28l.318.024 406.32 26.649a13.05 13.05 0 0 1 9.352 4.876l3.95-1.316-1.425 9.961-7.114-7.116 3.572-1.19a12.047 12.047 0 0 0-8.047-4.19l-.354-.028-406.32-26.648c-7.428-.487-13.227-6.573-13.391-13.98L245.5 46h1Z" fill="#1E3D49" fill-rule="nonzero"/><path d="M388.638 87.483c.5.945.94 1.92 1.313 2.922l.051.143 4.039-.672-2.959 9.617-5.918-8.137 3.836-.64a23.576 23.576 0 0 0-.964-2.217l-.281-.547.883-.469Zm-4.978-6.49a24.64 24.64 0 0 1 2.386 2.561l.361.459-.793.61a23.649 23.649 0 0 0-2.163-2.447l-.473-.452.682-.732Zm-6.806-4.489a24.522 24.522 0 0 1 3.094 1.64l.49.315-.55.835a23.515 23.515 0 0 0-2.843-1.602l-.595-.273.404-.915Zm-7.669-2.48 3.836 1.135-.284.958-3.835-1.134.283-.96Zm-7.67-2.27 3.835 1.135-.284.959-3.836-1.135.284-.96Zm-7.672-2.27 3.835 1.135-.283.959-3.836-1.135.284-.96Zm-7.671-2.27 3.835 1.135-.284.959-3.835-1.135.284-.96Zm-7.672-2.27 3.836 1.135-.284.959-3.835-1.135.283-.959Zm-7.67-2.27 3.835 1.135-.284.959-3.836-1.135.284-.959Zm-7.082-3.19c.907.68 1.882 1.267 2.912 1.753l.445.201-.4.917a17.788 17.788 0 0 1-3.14-1.767l-.417-.303.6-.8Zm-4.957-5.924a16.882 16.882 0 0 0 1.826 2.87l.307.377-.767.642a17.887 17.887 0 0 1-2.021-2.982l-.238-.458.893-.45ZM317 46c0 1.144.115 2.277.342 3.385l.105.473-.974.23a17.83 17.83 0 0 1-.466-3.57L316 46h1ZM313.045 89.725l-2.436 9.763-6.349-7.807 8.785-1.956Zm-8.21-4.654c.89.809 1.7 1.7 2.419 2.663l.302.416-.817.577a17.824 17.824 0 0 0-2.17-2.534l-.407-.381.672-.74Zm-6.987-4.166 2.143.976c.343.157.68.323 1.011.499l.494.27-.495.87a17.846 17.846 0 0 0-.942-.5l-.483-.229-2.143-.977.415-.91Zm-7.28-3.32 3.64 1.66-.414.91-3.64-1.66.415-.91Zm-7.278-3.318 3.64 1.66-.416.91-3.64-1.66.416-.91Zm-7.28-3.319 3.64 1.66-.415.91-3.64-1.66.416-.91Zm-7.279-3.318 3.64 1.66-.415.909-3.64-1.66.415-.91Zm-7.279-3.319 3.64 1.66-.415.91-3.64-1.66.415-.91Zm-6.5-4.224c.8.778 1.664 1.486 2.587 2.118l.466.31-.542.84a20.602 20.602 0 0 1-2.783-2.149l-.425-.402.697-.717Zm-4.403-6.44c.435 1.029.957 2.019 1.56 2.958l.308.466-.826.564a20.674 20.674 0 0 1-1.727-3.062l-.236-.537.92-.39ZM249 46c0 1.123.096 2.238.284 3.335l.103.547-.98.198a20.635 20.635 0 0 1-.399-3.49L248 46h1ZM343.95 167.38c.523.963.979 1.961 1.367 2.987l.066.182 4.039-.676-2.95 9.62-5.926-8.131 3.835-.644a23.37 23.37 0 0 0-1.017-2.304l-.292-.558.879-.476Zm-5.003-6.407a24.511 24.511 0 0 1 2.407 2.542l.365.456-.788.615c-.67-.859-1.4-1.67-2.183-2.428l-.476-.448.675-.737Zm-6.859-4.427c1.076.461 2.116.998 3.111 1.607l.495.31-.542.84a23.323 23.323 0 0 0-2.86-1.571l-.598-.266.394-.92Zm-7.85-2.019 2.296.388c.375.064.748.135 1.118.216l.553.126-.234.973a23.602 23.602 0 0 0-1.066-.232l-.538-.097-2.296-.388.166-.986Zm-7.889-1.333 3.944.667-.166.986-3.944-.667.166-.986Zm-7.888-1.333 3.944.667-.167.986-3.944-.667.167-.986Zm-7.888-1.333 3.944.666-.167.986-3.944-.666.167-.986Zm-7.888-1.333 3.944.666-.167.986-3.944-.666.167-.986Zm-7.888-1.333 3.944.666-.167.986-3.944-.666.167-.986Zm-7.889-1.333 3.944.666-.166.986-3.944-.666.166-.986Zm-7.769-1.561c.616.234 1.251.42 1.901.558l.49.094 1.434.242-.166.986-1.435-.242a13.854 13.854 0 0 1-2.077-.524l-.502-.18.355-.934Zm-5.987-4.7a12.851 12.851 0 0 0 2.303 2.534l.334.271-.618.787a13.847 13.847 0 0 1-2.573-2.648l-.269-.377.823-.567ZM260.89 133a12.8 12.8 0 0 0 .457 3.396l.12.41-.955.297a13.774 13.774 0 0 1-.614-3.636l-.008-.467h1ZM390.003 169.744l.163.63.03.131 4.04-.457-3.46 9.449-5.482-8.438 3.902-.441v-.004l-.159-.611.966-.259Zm-2.981-7.57c.509.956.974 1.934 1.393 2.932l.307.751-.93.367a34.815 34.815 0 0 0-1.29-2.88l-.363-.7.883-.47Zm-4.208-6.846 2.136 3.382-.845.534-2.137-3.382.846-.534Zm-3.876-6.95c.422.964.884 1.911 1.385 2.839l.382.691-.87.493a39.345 39.345 0 0 1-1.48-2.884l-.333-.739.916-.4Zm-2.405-7.523c.216 1.031.474 2.053.774 3.063l.233.755-.953.305a39.353 39.353 0 0 1-.859-3.126l-.174-.792.98-.205ZM375.72 133c0 1.054.043 2.107.13 3.157l.073.786-.995.103a39.347 39.347 0 0 1-.2-3.235l-.008-.811h1Z" fill="#1E3D49" fill-rule="nonzero"/><text font-family="Lora-Regular, Lora" font-size="13" fill="#1E3D49">
                <tspan x="177.879" y="202.283">Name (10)</tspan>
            </text><circle fill="#53B9C9" cx="182.839" cy="218.203" r="5.797"/><circle fill="#53B9C9" cx="198.433" cy="218.203" r="5.797"/><circle fill="#53B9C9" cx="214.026" cy="218.203" r="5.797"/><circle fill="#53B9C9" cx="229.619" cy="218.203" r="5.797"/><circle fill="#53B9C9" cx="245.213" cy="218.203" r="5.797"/><circle fill="#53B9C9" cx="182.806" cy="233.203" r="5.797"/><circle fill="#53B9C9" cx="198.399" cy="233.203" r="5.797"/><circle fill="#53B9C9" cx="213.993" cy="233.203" r="5.797"/><circle fill="#53B9C9" cx="229.586" cy="233.203" r="5.797"/><circle fill="#53B9C9" cx="245.179" cy="233.203" r="5.797"/><text font-family="Lora-Regular, Lora" font-size="13" fill="#1E3D49">
                <tspan x="325.192" y="202.283">Reference (5)</tspan>
            </text><circle fill="#53B9C9" opacity=".6" cx="330.152" cy="218.421" r="5.797"/><circle fill="#53B9C9" opacity=".6" cx="345.745" cy="218.421" r="5.797"/><circle fill="#53B9C9" opacity=".6" cx="361.339" cy="218.421" r="5.797"/><circle fill="#53B9C9" opacity=".6" cx="376.932" cy="218.421" r="5.797"/><circle fill="#53B9C9" opacity=".6" cx="392.525" cy="218.421" r="5.797"/><text font-family="Lora-Regular, Lora" font-size="13" fill="#1E3D49">
                <tspan x="466.648" y="202.283">Color (1)</tspan>
            </text><circle fill="#53B9C9" opacity=".3" cx="471.608" cy="218.421" r="5.797"/><text font-family="Lora-Regular, Lora" font-size="13" fill="#1E3D49">
                <tspan x="610.247" y="202.283">RootCategories (1)</tspan>
            </text><circle fill="#53B9C9" opacity=".2" cx="615.207" cy="218.421" r="5.797"/><text font-family="Montserrat-Regular, Montserrat" font-size="18" fill="#1E3D49">
                <tspan x="48.694" y="204">MATCHES</tspan>
            </text><g transform="translate(421.648 254.536)"><circle fill="#80C0A1" cx="35" cy="35" r="35"/><text font-family="Montserrat-Regular, Montserrat" font-size="12" fill="#FFF">
                    <tspan x="7.641" y="35">Business</tspan>
                    <tspan x="17.769" y="47">Rules</tspan>
                </text><path d="M44.47 13.61a.333.333 0 0 1-.096.056.311.311 0 0 1-.105.018l.061-.006a.31.31 0 0 1-.005.001l-.056.005H25.326l7.174 6.69.038.042a.312.312 0 0 1-.463.415l-7.753-7.23a.244.244 0 0 1-.043-.05.34.34 0 0 1-.036-.065l-.011-.04a.307.307 0 0 1 .058-.268l.024-.026c.009-.01.019-.019.03-.027L32.08 6.28a.312.312 0 0 1 .452.426l-.039.04-7.137 6.316H44.27l.056.005a.31.31 0 0 1 .01.002l-.066-.007a.312.312 0 0 1 .312.311l-.007-.066a.31.31 0 0 1 .002.01l.002.04.003.016-.005.056a.31.31 0 0 1-.002.01l.007-.066a.312.312 0 0 1-.073.201l-.038.038ZM25.333 56.504a.333.333 0 0 1 .096-.055.311.311 0 0 1 .105-.018l-.061.006a.31.31 0 0 1 .005-.001l.056-.005h18.943l-7.174-6.69-.038-.043a.312.312 0 0 1 .463-.414l7.753 7.23a.244.244 0 0 1 .043.05.34.34 0 0 1 .036.065l.011.039a.307.307 0 0 1-.058.268l-.024.027a.306.306 0 0 1-.03.027l-7.737 6.846a.312.312 0 0 1-.452-.426l.039-.04 7.137-6.316H25.534l-.056-.005a.31.31 0 0 1-.01-.002l.066.007a.312.312 0 0 1-.312-.312l.007.067a.31.31 0 0 1-.002-.01l-.002-.04-.003-.017.005-.056a.31.31 0 0 1 .002-.01l-.007.066a.312.312 0 0 1 .073-.2l.038-.038Z" fill="#FFF" fill-rule="nonzero"/></g></g></svg>