<svg width="822" height="384" xmlns="http://www.w3.org/2000/svg"><g fill="none" fill-rule="evenodd"><path fill="#FFF" d="M0 0h822v384H0z"/><rect fill="#FDCB5B" x="274.5" y="84.414" width="377" height="45" rx="8"/><rect fill-opacity=".698" fill="#FDCB5B" x="176.817" y="175.914" width="257" height="78" rx="8"/><rect fill-opacity=".3" fill="#FDCB5B" x="488.817" y="175.914" width="257" height="78" rx="8"/><rect fill="#E2E6E7" opacity=".606" x="176.817" y="14.899" width="133.896" height="27.5" rx="13.75"/><text font-family="Montserrat-Regular, Montserrat" font-size="18" fill="#1E3D49">
                <tspan x="233.586" y="34.649">A</tspan>
            </text><rect fill="#E2E6E7" opacity=".606" x="321.543" y="14.899" width="133.896" height="27.5" rx="13.75"/><text font-family="Montserrat-Regular, Montserrat" font-size="18" fill="#1E3D49">
                <tspan x="378.312" y="34.649">B</tspan>
            </text><rect fill="#E2E6E7" opacity=".606" x="467.835" y="14.899" width="133.896" height="27.5" rx="13.75"/><text font-family="Montserrat-Regular, Montserrat" font-size="18" fill="#1E3D49">
                <tspan x="524.604" y="34.649">C</tspan>
            </text><rect fill="#E2E6E7" opacity=".606" x="611.92" y="14.899" width="133.896" height="27.5" rx="13.75"/><text font-family="Montserrat-Regular, Montserrat" font-size="18" fill="#1E3D49">
                <tspan x="668.689" y="34.649">D</tspan>
            </text><text font-family="Montserrat-Regular, Montserrat" font-size="18" fill="#1E3D49">
                <tspan x="35.032" y="34">PRODUCTS</tspan>
            </text><text font-family="Montserrat-Regular, Montserrat" font-size="18" fill="#1E3D49">
                <tspan x="52.78" y="112.748">CONTEXT</tspan>
                <tspan x="53.158" y="134.748">SCORING</tspan>
            </text><text font-family="Montserrat-Regular, Montserrat" font-size="18" fill="#1E3D49">
                <tspan x="57.982" y="327.677">RESULTS</tspan>
            </text><path d="M239.5 45.407V58.69a5.5 5.5 0 0 0 5.269 5.496l.22.004 188.523.358a6.5 6.5 0 0 1 6.484 6.267l.004.233v2.357h4l-4.5 9-4.5-9h4v-2.357a5.5 5.5 0 0 0-5.269-5.495l-.22-.005-188.523-.358a6.5 6.5 0 0 1-6.484-6.267l-.004-.233V45.407h1ZM434.5 129.994l1 .012-.72 59.002a22.23 22.23 0 0 0 13.957 20.905l.675-3.823 8.08 5.997-9.645 2.866.712-4.035a23.23 23.23 0 0 1-14.78-21.52l.002-.402.719-59.002ZM481.28 206.263l8.214 5.813-9.578 3.083 1.365-8.896Zm-4.299 2.233c.692.37 1.4.708 2.124 1.013l.546.223-.367.93a26.36 26.36 0 0 1-2.232-1.002l-.543-.283.472-.881Zm-4.856-3.378c.589.52 1.2 1.012 1.834 1.476l.48.342-.572.82a26.607 26.607 0 0 1-1.94-1.489l-.464-.4.662-.749Zm-3.914-4.347c.456.64.94 1.258 1.453 1.854l.389.442-.743.67a26.63 26.63 0 0 1-1.553-1.892l-.36-.494.814-.58Zm-2.85-5.189c.296.728.625 1.441.986 2.138l.277.52-.877.48a26.394 26.394 0 0 1-1.076-2.197l-.236-.565.926-.376Zm-1.563-5.669c.12.778.276 1.549.466 2.309l.15.568-.964.266a26.336 26.336 0 0 1-.54-2.386l-.1-.605.988-.152ZM463.5 184v2l.005.49.013.49-.999.038-.014-.508-.005-.51v-2h1Zm0-6v3h-1v-3h1Zm0-6v3h-1v-3h1Zm0-6v3h-1v-3h1Zm0-6v3h-1v-3h1Zm0-6v3h-1v-3h1Zm0-6v3h-1v-3h1Zm0-6v3h-1v-3h1Zm0-6v3h-1v-3h1Zm0-6v3h-1v-3h1ZM609.593 292.913l9 .003-4.504 8.998-4.496-9.001Zm4.833-4.91c.112.644.17 1.299.172 1.962 0 .109 0 .188-.003.247l-.002.021v.878h-1v-1.326l-.006-.27c-.013-.302-.04-.6-.079-.897l-.067-.443.985-.172Zm-2.685-5.593a11.52 11.52 0 0 1 1.528 2.214l.203.402-.902.433a10.503 10.503 0 0 0-1.315-2.075l-.265-.314.751-.66Zm-5.246-3.402a11.43 11.43 0 0 1 2.46 1.09l.382.237-.543.84c-.69-.446-1.428-.81-2.203-1.082l-.39-.13.294-.955Zm-6.112-.508h2.863l.149.004-.025 1-.136-.003-.136-.001h-2.715v-1Zm-45 0v1h-3v-1h3Zm6 0v1h-3v-1h3Zm6 0v1h-3v-1h3Zm6 0v1h-3v-1h3Zm6 0v1h-3v-1h3Zm6 0v1h-3v-1h3Zm6 0v1h-3v-1h3Zm6 0v1h-3v-1h3Zm-50.812-.622c.768.278 1.569.465 2.389.556l.411.038-.072.998a11.456 11.456 0 0 1-2.644-.508l-.424-.143.34-.941Zm-4.615-3.3c.515.641 1.104 1.22 1.752 1.723l.33.245-.582.813c-.732-.523-1.4-1.13-1.99-1.808l-.29-.345.78-.627Zm-2.23-5.23c.104.82.305 1.62.596 2.384l.153.379-.92.392a11.42 11.42 0 0 1-.755-2.58l-.067-.448.992-.127Zm-.105-5.936.012 3-1 .004-.011-3 1-.004Zm-.023-6 .012 3-1 .004-.012-3 1-.004Z" fill="#1E3D49" fill-rule="nonzero"/><path d="m618.451 292.838-4.344 9.076-4.654-8.921 8.998-.155Zm-4.189-4.62c.06.384.1.773.122 1.165l.014.394.026 1.528-1 .017-.026-1.527c-.007-.36-.032-.717-.075-1.071l-.049-.353.988-.154Zm-2.578-5.64a11.51 11.51 0 0 1 1.486 2.242l.195.405-.91.416a10.494 10.494 0 0 0-1.275-2.1l-.26-.318.764-.646Zm-5.183-3.503c.856.282 1.674.664 2.439 1.137l.377.244-.558.83a10.469 10.469 0 0 0-2.183-1.125l-.388-.136.313-.95Zm-3.6-.575.254.003.254.008-.044 1-.232-.008-.233-.003h-2.512v-1h2.512Zm-101.513 0v1h-3v-1h3Zm-90 0v1h-3v-1h3Zm6 0v1h-3v-1h3Zm6 0v1h-3v-1h3Zm6 0v1h-3v-1h3Zm6 0v1h-3v-1h3Zm6 0v1h-3v-1h3Zm6 0v1h-3v-1h3Zm6 0v1h-3v-1h3Zm6 0v1h-3v-1h3Zm6 0v1h-3v-1h3Zm6 0v1h-3v-1h3Zm6 0v1h-3v-1h3Zm6 0v1h-3v-1h3Zm6 0v1h-3v-1h3Zm6 0v1h-3v-1h3Zm102 0v1h-3v-1h3Zm-90 0v1h-3v-1h3Zm6 0v1h-3v-1h3Zm6 0v1h-3v-1h3Zm6 0v1h-3v-1h3Zm6 0v1h-3v-1h3Zm6 0v1h-3v-1h3Zm6 0v1h-3v-1h3Zm6 0v1h-3v-1h3Zm6 0v1h-3v-1h3Zm6 0v1h-3v-1h3Zm6 0v1h-3v-1h3Zm6 0v1h-3v-1h3Zm6 0v1h-3v-1h3Zm6 0v1h-3v-1h3Zm6 0v1h-3v-1h3Zm-188.814-.622c.769.277 1.57.465 2.39.556l.411.038-.072.998a11.456 11.456 0 0 1-2.645-.508l-.423-.144.34-.94Zm-4.614-3.3c.515.64 1.104 1.219 1.753 1.722l.33.246-.583.813a11.562 11.562 0 0 1-1.99-1.809l-.289-.344.779-.627Zm-2.23-5.23c.105.82.306 1.62.597 2.384l.152.38-.92.391a11.42 11.42 0 0 1-.755-2.58l-.066-.448.992-.127Zm-.106-5.936.013 3-1 .004-.013-3 1-.004Zm-.026-6 .013 3-1 .005-.013-3 1-.005Z" fill="#1E3D49" fill-rule="nonzero"/><path d="M614.5 291.074v1.84h4l-4.5 9-4.5-9h4v-1.84h1Zm-1.108-6.004c.386.81.675 1.665.86 2.547l.085.444-.986.168a10.419 10.419 0 0 0-.693-2.357l-.169-.373.903-.43Zm-4.132-4.718c.754.49 1.449 1.067 2.069 1.718l.303.332-.75.66a10.562 10.562 0 0 0-1.827-1.641l-.34-.23.545-.84Zm-6.004-1.85c.908.02 1.802.146 2.667.373l.43.122-.291.956a10.465 10.465 0 0 0-2.414-.433l-.414-.017.022-1Zm-171.012-.002v1h-3v-1h3Zm-162 0v1h-3v-1h3Zm6 0v1h-3v-1h3Zm6 0v1h-3v-1h3Zm6 0v1h-3v-1h3Zm6 0v1h-3v-1h3Zm6 0v1h-3v-1h3Zm6 0v1h-3v-1h3Zm6 0v1h-3v-1h3Zm6 0v1h-3v-1h3Zm6 0v1h-3v-1h3Zm6 0v1h-3v-1h3Zm6 0v1h-3v-1h3Zm6 0v1h-3v-1h3Zm6 0v1h-3v-1h3Zm6 0v1h-3v-1h3Zm6 0v1h-3v-1h3Zm6 0v1h-3v-1h3Zm6 0v1h-3v-1h3Zm6 0v1h-3v-1h3Zm6 0v1h-3v-1h3Zm6 0v1h-3v-1h3Zm6 0v1h-3v-1h3Zm6 0v1h-3v-1h3Zm6 0v1h-3v-1h3Zm6 0v1h-3v-1h3Zm6 0v1h-3v-1h3Zm6 0v1h-3v-1h3Zm174 0v1h-3v-1h3Zm-162 0v1h-3v-1h3Zm6 0v1h-3v-1h3Zm6 0v1h-3v-1h3Zm6 0v1h-3v-1h3Zm6 0v1h-3v-1h3Zm6 0v1h-3v-1h3Zm6 0v1h-3v-1h3Zm6 0v1h-3v-1h3Zm6 0v1h-3v-1h3Zm6 0v1h-3v-1h3Zm6 0v1h-3v-1h3Zm6 0v1h-3v-1h3Zm6 0v1h-3v-1h3Zm6 0v1h-3v-1h3Zm6 0v1h-3v-1h3Zm6 0v1h-3v-1h3Zm6 0v1h-3v-1h3Zm6 0v1h-3v-1h3Zm6 0v1h-3v-1h3Zm6 0v1h-3v-1h3Zm6 0v1h-3v-1h3Zm6 0v1h-3v-1h3Zm6 0v1h-3v-1h3Zm6 0v1h-3v-1h3Zm6 0v1h-3v-1h3Zm6 0v1h-3v-1h3Zm6 0v1h-3v-1h3Zm-332.813-.622c.768.278 1.569.465 2.389.556l.412.038-.073.998a11.456 11.456 0 0 1-2.644-.508l-.424-.144.34-.94Zm-4.615-3.299c.516.64 1.104 1.218 1.753 1.722l.33.245-.582.814c-.732-.524-1.4-1.131-1.991-1.81l-.289-.344.78-.627Zm-2.23-5.231c.105.82.305 1.619.596 2.383l.153.38-.92.392a11.419 11.419 0 0 1-.755-2.58l-.066-.448.992-.127Zm-.086-5.934v3h-1v-3h1Zm0-6v3h-1v-3h1Z" fill="#1E3D49" fill-rule="nonzero"/><path d="M301.485 257.414v.327c0 5.704 4.548 10.346 10.216 10.496l.284.004h60c6.254 0 11.341 4.991 11.496 11.208l.004.292v13.173h4l-4.5 9-4.5-9h4v-13.173c0-5.704-4.548-10.346-10.216-10.496l-.284-.004h-60c-6.254 0-11.341-4.992-11.496-11.208l-.004-.292v-.327h1Z" fill="#1E3D49" fill-rule="nonzero"/><path d="M301.485 257.414v.327c0 5.704 4.548 10.346 10.216 10.496l.284.004h204.744c6.2 0 11.265 4.91 11.492 11.07l.007.295.157 13.303 4-.047-4.394 9.052-4.606-8.946 4-.048-.156-13.303c-.067-5.654-4.594-10.222-10.213-10.372l-.287-.004H311.985c-6.254 0-11.341-4.992-11.496-11.208l-.004-.292v-.327h1Z" fill="#1E3D49" fill-rule="nonzero"/><path d="M301.485 257.414v.327c0 5.704 4.548 10.346 10.216 10.496l.284.004h353.59c6.167 0 11.216 4.858 11.489 10.983l.01.293.26 13.389 4-.078-4.324 9.086-4.675-8.91 3.999-.079-.26-13.389c-.11-5.622-4.625-10.142-10.213-10.291l-.286-.004h-353.59c-6.254 0-11.341-4.992-11.496-11.208l-.004-.292v-.327h1ZM243.485 257.414v.327c0 5.704 4.548 10.346 10.216 10.496l.284.004h35.112c6.07 0 11.076 4.713 11.474 10.736l.016.298.552 13.625 3.998-.161-4.132 9.175-4.86-8.81 3.995-.163-.552-13.626a10.5 10.5 0 0 0-10.206-10.07l-.285-.004h-35.112c-6.254 0-11.341-4.992-11.496-11.208l-.004-.292v-.327h1ZM384.5 45.407v2.718c0 5.682 4.514 10.314 10.159 10.495l.283.005 46.622.26c6.227.034 11.276 5.014 11.432 11.204l.004.295v3.022h4l-4.5 9-4.5-9h4v-3.022c0-5.681-4.514-10.313-10.159-10.494l-.283-.006-46.622-.259c-6.227-.034-11.276-5.014-11.432-11.204l-.004-.296v-2.718h1ZM465 45.407v2.72c0 5.681 4.513 10.313 10.157 10.495l.283.005 44.626.256c6.226.035 11.274 5.014 11.43 11.204l.004.295v3.024h4l-4.5 9-4.5-9h4v-3.024c0-5.68-4.513-10.312-10.157-10.494l-.283-.005-44.626-.256c-6.226-.036-11.274-5.015-11.43-11.204l-.004-.296v-2.72h1Z" fill="#1E3D49" fill-rule="nonzero"/><path d="M478 45.407V58.69a5.5 5.5 0 0 0 5.269 5.496l.22.004 186.023.358a6.5 6.5 0 0 1 6.484 6.267l.004.233v2.357h4l-4.5 9-4.5-9h4v-2.357a5.5 5.5 0 0 0-5.269-5.495l-.22-.005-186.023-.358a6.5 6.5 0 0 1-6.484-6.267l-.004-.233V45.407h1Z" fill="#1E3D49" fill-rule="nonzero"/><text font-family="Montserrat-Regular, Montserrat" font-size="14" fill="#1E3D49">
                <tspan x="357.023" y="112.748">CONTEXT ADDITIONAL POINTS?</tspan>
            </text><text font-family="Montserrat-Regular, Montserrat" font-size="14" fill="#1E3D49">
                <tspan x="229.864" y="164.414">SPECIFIC PRODUCTS</tspan>
            </text><text font-family="Lora-Regular, Lora" font-size="11" fill="#1E3D49">
                <tspan x="241.362" y="193.414">Points from interactions:</tspan>
            </text><text font-family="Lora-Regular, Lora" font-size="11" fill="#1E3D49">
                <tspan x="572.409" y="193.414">Points from each:</tspan>
            </text><text font-family="Montserrat-Regular, Montserrat" font-size="14" fill="#1E3D49">
                <tspan x="541.993" y="164.414">SIMILAR ATTRIBUTES</tspan>
            </text><circle fill="#FFF" opacity=".577" cx="216.324" cy="224.427" r="22.5"/><circle fill="#FFF" opacity=".577" cx="305.317" cy="224.427" r="22.5"/><circle fill="#FFF" opacity=".577" cx="394.31" cy="224.427" r="22.5"/><rect fill="#FFF" opacity=".577" x="494.248" y="202.927" width="69" height="45" rx="5"/><rect fill="#FFF" opacity=".577" x="567.248" y="202.927" width="90" height="45" rx="5"/><rect fill="#FFF" opacity=".577" x="661.248" y="202.927" width="79.5" height="45" rx="5"/><text font-family="Lora-Regular, Lora" font-size="12" fill="#1E3D49">
                <tspan x="510.237" y="228.927">Family</tspan>
            </text><text font-family="Lora-Regular, Lora" font-size="12" fill="#1E3D49">
                <tspan x="584.894" y="228.927">Subfamily</tspan>
            </text><text font-family="Lora-Regular, Lora" font-size="12" fill="#1E3D49">
                <tspan x="675.552" y="228.927">Attribute</tspan>
            </text><rect fill="#E2E6E7" opacity=".606" x="320.009" y="303.427" width="131.307" height="76" rx="8"/><rect fill="#E2E6E7" opacity=".606" x="177.043" y="303.427" width="131.307" height="76" rx="8"/><rect fill="#E2E6E7" opacity=".606" x="462.974" y="303.427" width="131.307" height="76" rx="8"/><rect fill="#E2E6E7" opacity=".606" x="614.098" y="303.427" width="131.307" height="76" rx="8"/><circle fill="#1E3D49" cx="238.824" cy="235.077" r="11.85"/><circle fill="#1E3D49" cx="324.524" cy="235.077" r="11.85"/><circle fill="#1E3D49" cx="417.512" cy="235.077" r="11.85"/><text font-family="Montserrat-Medium, Montserrat" font-size="15" font-weight="400" fill="#FFF">
                <tspan x="230.964" y="239.427">+1</tspan>
            </text><text font-family="Montserrat-Medium, Montserrat" font-size="15" font-weight="400" fill="#FFF">
                <tspan x="315.829" y="239.427">+2</tspan>
            </text><text font-family="Montserrat-Medium, Montserrat" font-size="15" font-weight="400" fill="#FFF">
                <tspan x="409.652" y="239.427">+3</tspan>
            </text><path d="m215.054 224.93-10.818 4.694a1 1 0 0 0-.309 1.624l1.534 1.535a1 1 0 0 1 0 1.414l-1.866 1.866a1 1 0 0 0 0 1.415l.226.226a1 1 0 0 0 1.414 0l1.867-1.867a1 1 0 0 1 1.414 0l1.534 1.535a1 1 0 0 0 1.625-.31l4.694-10.817a1 1 0 0 0-1.315-1.316Z" stroke="#1E3D49"/><path stroke="#1E3D49" stroke-linecap="round" stroke-linejoin="round" d="m213 222-6-6M216 221v-9M219 222l6-6M220 225h8M219 228l5 5"/><g transform="translate(294.27 214)"><path stroke="#1E3D49" stroke-linecap="round" stroke-linejoin="round" d="m0 4.301 2.073 8.407.077.194h13.978L20.429 0h4.3"/><path stroke="#0B4854" stroke-linecap="round" stroke-linejoin="round" d="M4.301 4.799h13.977"/><path stroke="#1E3D49" d="M2.15 16.128h13.978v-3.226"/><circle stroke="#1E3D49" fill="#FFF" cx="4.233" cy="19.286" r="1.582"/><circle stroke="#1E3D49" fill="#FFF" cx="14.546" cy="19.286" r="1.582"/></g><rect stroke="#1E3D49" x="380.162" y="215.221" width="28" height="18.927" rx="3"/><path stroke="#1E3D49" fill="#1E3D49" d="M380.162 223.632h27.712v-3.233h-27.712z"/><rect fill-opacity=".698" fill="#FDCB5B" x="185.474" y="313.177" width="116" height="26.486" rx="8"/><rect fill="#FEEFCD" x="185.474" y="342.69" width="116" height="26.486" rx="8"/><rect fill-opacity=".698" fill="#FDCB5B" x="327.474" y="313.177" width="116" height="15.892" rx="7.946"/><rect fill="#FEEFCD" x="327.474" y="331.339" width="116" height="26.486" rx="8"/><rect fill-opacity=".698" fill="#FDCB5B" x="472.815" y="313.177" width="116" height="15.892" rx="7.946"/><rect fill-opacity=".698" fill="#FDCB5B" x="627.069" y="313.177" width="99.429" height="26.486" rx="8"/><rect fill="#FEEFCD" x="472.815" y="331.339" width="116" height="18.162" rx="8"/><path stroke="#1E3D49" d="M157 13.5V372"/></g></svg>