<svg width="822" height="384" xmlns="http://www.w3.org/2000/svg"><g fill="none" fill-rule="evenodd"><path fill="#FFF" d="M0 0h822v384H0z"/><g transform="translate(176.817 23.5)" fill="#FFF"><rect stroke="#D3D3D3" x=".5" y=".5" width="568" height="25.5" rx="12.75"/><ellipse stroke="#1E3D49" cx="552.997" cy="13.111" rx="6.297" ry="6.5"/><path stroke="#1E3D49" d="m557.599 17.853 3.431 3.534"/></g><rect fill="#243C47" x="184.839" y="28.25" width="134" height="17" rx="8.5"/><rect fill="#E2E6E7" opacity=".606" x="176.817" y="104.899" width="133.896" height="27.5" rx="13.75"/><rect fill="#E2E6E7" opacity=".606" x="320.009" y="255.553" width="131.307" height="116" rx="8"/><rect fill="#E2E6E7" opacity=".606" x="177.043" y="255.553" width="131.307" height="116" rx="8"/><rect fill="#E2E6E7" opacity=".606" x="462.974" y="255.553" width="131.307" height="116" rx="8"/><rect fill="#E2E6E7" opacity=".606" x="614.098" y="255.553" width="131.307" height="116" rx="8"/><circle fill="#53B9C9" cx="200.017" cy="322.203" r="5.797"/><circle fill="#53B9C9" cx="215.61" cy="322.203" r="5.797"/><circle fill="#53B9C9" cx="231.203" cy="322.203" r="5.797"/><circle fill="#53B9C9" cx="246.797" cy="322.203" r="5.797"/><circle fill="#53B9C9" cx="262.39" cy="322.203" r="5.797"/><circle fill="#53B9C9" cx="277.983" cy="322.203" r="5.797"/><circle fill="#53B9C9" cx="246.797" cy="337.86" r="5.797"/><circle fill="#53B9C9" cx="200.017" cy="337.86" r="5.797"/><circle fill="#53B9C9" cx="215.61" cy="337.86" r="5.797"/><circle fill="#53B9C9" cx="231.203" cy="337.86" r="5.797"/><circle fill="#53B9C9" opacity=".6" cx="341.582" cy="322.203" r="5.797"/><circle fill="#53B9C9" opacity=".6" cx="357.175" cy="322.203" r="5.797"/><circle fill="#53B9C9" opacity=".6" cx="372.769" cy="322.203" r="5.797"/><circle fill="#53B9C9" opacity=".6" cx="388.362" cy="322.203" r="5.797"/><circle fill="#53B9C9" opacity=".6" cx="403.955" cy="322.203" r="5.797"/><circle fill="#53B9C9" opacity=".2" cx="485.367" cy="322.203" r="5.797"/><text font-family="Montserrat-Regular, Montserrat" font-size="18" fill="#1E3D49">
                <tspan x="233.586" y="124.649">A</tspan>
            </text><rect fill="#E2E6E7" opacity=".606" x="321.543" y="104.899" width="133.896" height="27.5" rx="13.75"/><text font-family="Montserrat-Regular, Montserrat" font-size="18" fill="#1E3D49">
                <tspan x="378.312" y="124.649">B</tspan>
            </text><rect fill="#E2E6E7" opacity=".606" x="467.835" y="104.899" width="133.896" height="27.5" rx="13.75"/><text font-family="Montserrat-Regular, Montserrat" font-size="18" fill="#1E3D49">
                <tspan x="524.604" y="124.649">C</tspan>
            </text><text font-family="Montserrat-Regular, Montserrat" font-size="35" fill="#1E3D49">
                <tspan x="370.314" y="301.649">A</tspan>
            </text><text font-family="Montserrat-Regular, Montserrat" font-size="35" fill="#1E3D49">
                <tspan x="515.043" y="301.649">B</tspan>
            </text><text font-family="Montserrat-Regular, Montserrat" font-size="35" fill="#1E3D49">
                <tspan x="665.043" y="301.649">D</tspan>
            </text><text font-family="Montserrat-Regular, Montserrat" font-size="35" fill="#1E3D49">
                <tspan x="225.586" y="301.649">C</tspan>
            </text><rect fill="#E2E6E7" opacity=".606" x="611.92" y="104.899" width="133.896" height="27.5" rx="13.75"/><text font-family="Montserrat-Regular, Montserrat" font-size="18" fill="#1E3D49">
                <tspan x="668.689" y="124.649">D</tspan>
            </text><text font-family="Montserrat-Regular, Montserrat" font-size="18" fill="#1E3D49">
                <tspan x="35.032" y="124">PRODUCTS</tspan>
            </text><text font-family="Montserrat-Regular, Montserrat" font-size="18" fill="#1E3D49">
                <tspan x="62.392" y="42.75">SEARCH</tspan>
            </text><text font-family="Montserrat-Regular, Montserrat" font-size="18" fill="#1E3D49">
                <tspan x="57.982" y="269">RESULTS</tspan>
            </text><path d="M239.5 132a12.463 12.463 0 0 0 10.13 12.243l.305.054 124.78 20.582a12.258 12.258 0 0 1 7.226 4.01l3.932-1.408-1.205 9.99-7.269-6.958 3.521-1.26a11.254 11.254 0 0 0-6.014-3.323l-.354-.064-124.78-20.582a13.463 13.463 0 0 1-11.268-12.966L238.5 132h1ZM251 46c0 7.2 4.964 13.433 11.946 15.066l.334.074 109.799 23.162a15.005 15.005 0 0 1 9.437 6.424l3.975-1.135-1.854 9.89-6.8-7.417 3.668-1.048a14.003 14.003 0 0 0-8.257-5.651l-.375-.085-109.8-23.161a16.474 16.474 0 0 1-13.07-15.766L250 46h1ZM221.5 46a43.965 43.965 0 0 0 6.54 23.07l.34.545 4.716 7.404a40.922 40.922 0 0 1 5.475 13.31l.034.168 4.039-.398-3.595 9.399-5.362-8.515 3.917-.387-.01-.055a39.922 39.922 0 0 0-4.984-12.413l-.358-.572-4.715-7.404a44.965 44.965 0 0 1-7.032-23.51L220.5 46h1Z" fill="#1E3D49" fill-rule="nonzero"/><path d="M268 46a13.935 13.935 0 0 0 12.109 13.814l.325.04 236.41 25.603a13.6 13.6 0 0 1 9.408 5.339l3.958-1.26-1.558 9.94-7.018-7.211 3.603-1.147a12.597 12.597 0 0 0-8.138-4.622l-.362-.045-236.41-25.603c-7.472-.81-13.16-7.038-13.323-14.517L267 46h1ZM384.999 131.966a13.578 13.578 0 0 0 12.027 12.565l.321.032 237.736 21.057a11.393 11.393 0 0 1 7.117 3.348l3.907-1.522-.925 10.02-7.461-6.752 3.454-1.348a10.387 10.387 0 0 0-5.84-2.714l-.34-.036-237.736-21.057a14.578 14.578 0 0 1-13.232-13.196l-.026-.329.998-.068ZM199 132a8.124 8.124 0 0 0 7.262 8.078l.253.023 312.556 23.5a13.413 13.413 0 0 1 9.642 5.205l3.955-1.278-1.514 9.948-7.05-7.18 3.592-1.162a12.41 12.41 0 0 0-8.343-4.503l-.357-.032-312.556-23.5a9.124 9.124 0 0 1-8.436-8.835L198 132h1Z" fill="#1E3D49" fill-rule="nonzero"/><path stroke="#1E3D49" d="M157 13.5V372"/><text font-family="Lora-Regular, Lora" font-size="13" fill="#1E3D49">
                <tspan x="177.879" y="202.066">Name (10)</tspan>
            </text><circle fill="#53B9C9" cx="182.839" cy="218.203" r="5.797"/><circle fill="#53B9C9" cx="198.433" cy="218.203" r="5.797"/><circle fill="#53B9C9" cx="214.026" cy="218.203" r="5.797"/><circle fill="#53B9C9" cx="229.619" cy="218.203" r="5.797"/><circle fill="#53B9C9" cx="245.213" cy="218.203" r="5.797"/><circle fill="#53B9C9" cx="182.806" cy="233.203" r="5.797"/><circle fill="#53B9C9" cx="198.399" cy="233.203" r="5.797"/><circle fill="#53B9C9" cx="213.993" cy="233.203" r="5.797"/><circle fill="#53B9C9" cx="229.586" cy="233.203" r="5.797"/><circle fill="#53B9C9" cx="245.179" cy="233.203" r="5.797"/><text font-family="Lora-Regular, Lora" font-size="13" fill="#1E3D49">
                <tspan x="325.192" y="202.283">Reference (5)</tspan>
            </text><circle fill="#53B9C9" opacity=".6" cx="330.152" cy="218.421" r="5.797"/><circle fill="#53B9C9" opacity=".6" cx="345.745" cy="218.421" r="5.797"/><circle fill="#53B9C9" opacity=".6" cx="361.339" cy="218.421" r="5.797"/><circle fill="#53B9C9" opacity=".6" cx="376.932" cy="218.421" r="5.797"/><circle fill="#53B9C9" opacity=".6" cx="392.525" cy="218.421" r="5.797"/><text font-family="Lora-Regular, Lora" font-size="13" fill="#1E3D49">
                <tspan x="466.648" y="202.283">Color (1)</tspan>
            </text><circle fill="#53B9C9" opacity=".3" cx="471.608" cy="218.421" r="5.797"/><text font-family="Lora-Regular, Lora" font-size="13" fill="#1E3D49">
                <tspan x="610.247" y="202.283">RootCategories (1)</tspan>
            </text><circle fill="#53B9C9" opacity=".2" cx="615.207" cy="218.421" r="5.797"/><text font-family="Montserrat-Regular, Montserrat" font-size="18" fill="#1E3D49">
                <tspan x="48.694" y="204">MATCHES</tspan>
            </text></g></svg>