<svg width="822" height="475" xmlns="http://www.w3.org/2000/svg"><g fill="none" fill-rule="evenodd"><path fill="#FFF" d="M0 0h822v475H0z"/><rect fill="#E2E6E7" opacity=".6" x="137.5" y="147.261" width="549" height="55.5" rx="16"/><rect stroke="#1E3D49" stroke-width="18" fill="#FFF" x="52" y="270" width="695" height="242" rx="18"/><g transform="translate(98.61 47.5)" stroke="#D3D3D3"><rect fill="#FFF" x=".5" y=".5" width="604" height="20.5" rx="10.25"/><circle fill="#FFF" cx="591.094" cy="10.75" r="4.789"/><path d="m594.507 14.333 2.559 2.56"/></g><rect fill="#243C47" x="104.868" y="52.534" width="77.938" height="11.432" rx="5.716"/><rect fill="#53B9C9" x="145.999" y="156.363" width="151.978" height="36.5" rx="8"/><rect fill="#E2E6E7" opacity=".606" x="217.115" y="297.5" width="100" height="126" rx="8"/><rect fill="#E2E6E7" opacity=".606" x="85.925" y="297.5" width="100" height="126" rx="8"/><rect fill="#E2E6E7" opacity=".606" x="348.305" y="297.5" width="100" height="126" rx="8"/><rect fill="#E2E6E7" opacity=".606" x="479.495" y="297.5" width="100" height="126" rx="8"/><rect fill="#E2E6E7" opacity=".606" x="610.685" y="297.5" width="100" height="126" rx="8"/><rect fill="#E2E6E7" opacity=".606" x="217.115" y="447.5" width="100" height="126" rx="8"/><rect fill="#E2E6E7" opacity=".606" x="85.925" y="447.5" width="100" height="126" rx="8"/><rect fill="#E2E6E7" opacity=".606" x="348.305" y="447.5" width="100" height="126" rx="8"/><rect fill="#E2E6E7" opacity=".606" x="479.495" y="447.5" width="100" height="126" rx="8"/><rect fill="#E2E6E7" opacity=".606" x="610.685" y="447.5" width="100" height="126" rx="8"/><rect fill="#80C0A1" x="335.76" y="156.363" width="151.978" height="36.5" rx="8"/><rect fill="#FDCB5B" x="525.521" y="156.363" width="151.978" height="36.5" rx="8"/><rect fill="#53B9C9" x="93.925" y="307" width="84" height="35.833" rx="3"/><rect fill="#80C0A1" x="93.925" y="344.833" width="84" height="35.833" rx="3"/><rect fill="#FDCB5B" x="93.925" y="382.667" width="84" height="34" rx="3"/><rect fill="#53B9C9" x="225.115" y="307" width="84" height="39.5" rx="3"/><rect fill="#80C0A1" x="225.115" y="348.667" width="84" height="33.5" rx="3"/><rect fill="#FDCB5B" x="225.115" y="384.239" width="84" height="20.5" rx="3"/><rect fill="#53B9C9" x="356.305" y="307" width="84" height="27.833" rx="3"/><rect fill="#80C0A1" x="356.305" y="336.833" width="84" height="23" rx="3"/><rect fill="#FDCB5B" x="356.305" y="362" width="84" height="28" rx="3"/><rect fill="#53B9C9" x="487.495" y="307" width="84" height="32" rx="3"/><rect fill="#80C0A1" x="487.495" y="341" width="84" height="21.307" rx="3"/><rect fill="#FDCB5B" x="487.495" y="364.307" width="84" height="16.193" rx="3"/><rect fill="#53B9C9" x="618.685" y="307" width="84" height="23.167" rx="3"/><rect fill="#53B9C9" x="93.925" y="456.167" width="84" height="35.833" rx="3"/><rect fill="#53B9C9" x="225.115" y="456.167" width="84" height="31.167" rx="3"/><rect fill="#53B9C9" x="356.305" y="456.167" width="84" height="27.833" rx="3"/><rect fill="#53B9C9" x="487.495" y="456.167" width="84" height="25" rx="3"/><rect fill="#53B9C9" x="618.685" y="456.167" width="84" height="23.167" rx="3"/><rect fill="#80C0A1" x="618.685" y="332.167" width="84" height="23.167" rx="3"/><rect fill="#FDCB5B" x="618.685" y="357.333" width="84" height="23.167" rx="3"/><text font-family="Montserrat-Regular, Montserrat" font-size="12" fill="#FFF">
                <tspan x="167.581" y="179.011">Textual Relevance</tspan>
            </text><text font-family="Montserrat-Regular, Montserrat" font-size="12" fill="#FFF">
                <tspan x="366.775" y="179.011">Business Rules</tspan>
            </text><text font-family="Montserrat-Regular, Montserrat" font-size="12" fill="#FFF">
                <tspan x="578.223" y="179.011">Context</tspan>
            </text><path d="M413.5 66v15c0 5.704-4.548 10.346-10.216 10.496L403 91.5H154a9.5 9.5 0 0 0-9.496 9.23l-.004.27v6.5h4l-4.5 9-4.5-9h4V101c0-5.704 4.548-10.346 10.216-10.496L154 90.5h249a9.5 9.5 0 0 0 9.496-9.23l.004-.27V66h1ZM413.5 202.761V221.5h4l-4.5 9-4.5-9h4v-18.739h1Z" fill="#1E3D49" fill-rule="nonzero"/><text font-family="Montserrat-Regular, Montserrat" font-size="18" fill="#1E3D49">
                <tspan x="284.165" y="137">PRODUCT SCORING POINTS</tspan>
            </text><text font-family="Montserrat-Regular, Montserrat" font-size="18" fill="#1E3D49">
                <tspan x="275.147" y="252.625">PRODUCT SCORING RANKING</tspan>
            </text><text font-family="Montserrat-Regular, Montserrat" font-size="18" fill="#1E3D49">
                <tspan x="311.94" y="180.511">+</tspan>
            </text><text font-family="Montserrat-Regular, Montserrat" font-size="18" fill="#1E3D49">
                <tspan x="501.405" y="180.511">+</tspan>
            </text></g></svg>