<svg width="822" height="384" xmlns="http://www.w3.org/2000/svg"><g fill="none" fill-rule="evenodd"><path fill="#FFF" d="M0 0h822v384H0z"/><g transform="translate(176.817 23.5)" fill="#FFF"><rect stroke="#D3D3D3" x=".5" y=".5" width="568" height="25.5" rx="12.75"/><ellipse stroke="#1E3D49" cx="552.997" cy="13.111" rx="6.297" ry="6.5"/><path stroke="#1E3D49" d="m557.599 17.853 3.431 3.534"/></g><rect fill="#243C47" x="184.839" y="28.25" width="134" height="17" rx="8.5"/><rect fill="#E2E6E7" opacity=".606" x="176.817" y="104.899" width="133.896" height="27.5" rx="13.75"/><rect stroke="#80C0A1" stroke-width="3" fill="none" x="318.509" y="254.053" width="134.307" height="119" rx="8"/><rect stroke="#80C0A1" stroke-width="3" fill="none" x="175.847" y="254.053" width="134.307" height="119" rx="8"/><rect fill="#E2E6E7" opacity=".606" x="462.974" y="255.553" width="131.307" height="116" rx="8"/><text font-family="Lora-Regular, Lora" font-size="13" fill="#1E3D49">
                <tspan x="177.879" y="202.066">Name (10)</tspan>
            </text><rect fill="#E2E6E7" opacity=".606" x="605.94" y="255.553" width="131.307" height="116" rx="8"/><circle fill="#53B9C9" cx="182.839" cy="218.203" r="5.797"/><circle fill="#53B9C9" cx="198.433" cy="218.203" r="5.797"/><circle fill="#53B9C9" cx="214.026" cy="218.203" r="5.797"/><circle fill="#53B9C9" cx="229.619" cy="218.203" r="5.797"/><circle fill="#53B9C9" cx="245.213" cy="218.203" r="5.797"/><circle fill="#53B9C9" cx="182.806" cy="233.203" r="5.797"/><circle fill="#53B9C9" cx="198.399" cy="233.203" r="5.797"/><circle fill="#53B9C9" cx="213.993" cy="233.203" r="5.797"/><circle fill="#53B9C9" cx="229.586" cy="233.203" r="5.797"/><circle fill="#53B9C9" cx="245.179" cy="233.203" r="5.797"/><circle fill="#53B9C9" cx="344.017" cy="322.203" r="5.797"/><circle fill="#53B9C9" cx="359.61" cy="322.203" r="5.797"/><circle fill="#53B9C9" cx="375.203" cy="322.203" r="5.797"/><circle fill="#53B9C9" cx="390.797" cy="322.203" r="5.797"/><circle fill="#53B9C9" cx="406.39" cy="322.203" r="5.797"/><circle fill="#53B9C9" cx="421.983" cy="322.203" r="5.797"/><circle fill="#53B9C9" cx="390.797" cy="337.86" r="5.797"/><circle fill="#53B9C9" cx="344.017" cy="337.86" r="5.797"/><circle fill="#53B9C9" cx="359.61" cy="337.86" r="5.797"/><circle fill="#53B9C9" cx="375.203" cy="337.86" r="5.797"/><text font-family="Lora-Regular, Lora" font-size="13" fill="#1E3D49">
                <tspan x="325.192" y="202.283">Reference (5)</tspan>
            </text><circle fill="#53B9C9" opacity=".6" cx="330.152" cy="218.421" r="5.797"/><circle fill="#53B9C9" opacity=".6" cx="345.745" cy="218.421" r="5.797"/><circle fill="#53B9C9" opacity=".6" cx="361.339" cy="218.421" r="5.797"/><circle fill="#53B9C9" opacity=".6" cx="376.932" cy="218.421" r="5.797"/><circle fill="#53B9C9" opacity=".6" cx="392.525" cy="218.421" r="5.797"/><circle fill="#53B9C9" cx="202.017" cy="322.203" r="5.797"/><circle fill="#53B9C9" cx="217.61" cy="322.203" r="5.797"/><circle fill="#53B9C9" cx="233.203" cy="322.203" r="5.797"/><circle fill="#53B9C9" cx="248.797" cy="322.203" r="5.797"/><circle fill="#53B9C9" cx="264.39" cy="322.203" r="5.797"/><circle fill="#53B9C9" cx="279.983" cy="322.203" r="5.797"/><circle fill="#53B9C9" cx="248.797" cy="337.86" r="5.797"/><circle fill="#53B9C9" cx="202.017" cy="337.86" r="5.797"/><circle fill="#53B9C9" cx="217.61" cy="337.86" r="5.797"/><circle fill="#53B9C9" cx="233.203" cy="337.86" r="5.797"/><circle fill="#53B9C9" opacity=".6" cx="485.582" cy="322.203" r="5.797"/><circle fill="#53B9C9" opacity=".6" cx="501.175" cy="322.203" r="5.797"/><circle fill="#53B9C9" opacity=".6" cx="516.769" cy="322.203" r="5.797"/><circle fill="#53B9C9" opacity=".6" cx="532.362" cy="322.203" r="5.797"/><circle fill="#53B9C9" opacity=".6" cx="547.955" cy="322.203" r="5.797"/><text font-family="Lora-Regular, Lora" font-size="13" fill="#1E3D49">
                <tspan x="466.648" y="202.283">Color (1)</tspan>
            </text><circle fill="#53B9C9" opacity=".3" cx="471.608" cy="218.421" r="5.797"/><text font-family="Lora-Regular, Lora" font-size="13" fill="#1E3D49">
                <tspan x="610.247" y="202.283">RootCategories (1)</tspan>
            </text><circle fill="#53B9C9" opacity=".2" cx="615.207" cy="218.421" r="5.797"/><circle fill="#53B9C9" opacity=".2" cx="625.367" cy="322.203" r="5.797"/><text font-family="Montserrat-Regular, Montserrat" font-size="18" fill="#1E3D49">
                <tspan x="233.586" y="124.649">A</tspan>
            </text><rect fill="#E2E6E7" opacity=".606" x="321.543" y="104.899" width="133.896" height="27.5" rx="13.75"/><text font-family="Montserrat-Regular, Montserrat" font-size="18" fill="#1E3D49">
                <tspan x="378.312" y="124.649">B</tspan>
            </text><rect fill="#E2E6E7" opacity=".606" x="467.835" y="104.899" width="133.896" height="27.5" rx="13.75"/><text font-family="Montserrat-Regular, Montserrat" font-size="18" fill="#1E3D49">
                <tspan x="524.604" y="124.649">C</tspan>
            </text><text font-family="Montserrat-Regular, Montserrat" font-size="35" fill="#1E3D49">
                <tspan x="370.314" y="301.649">D</tspan>
            </text><text font-family="Montserrat-Regular, Montserrat" font-size="35" fill="#1E3D49">
                <tspan x="655.043" y="301.649">C</tspan>
            </text><text font-family="Montserrat-Regular, Montserrat" font-size="35" fill="#1E3D49">
                <tspan x="515.043" y="301.649">B</tspan>
            </text><text font-family="Montserrat-Regular, Montserrat" font-size="35" fill="#1E3D49">
                <tspan x="225.586" y="301.649">A</tspan>
            </text><rect fill="#E2E6E7" opacity=".606" x="611.92" y="104.899" width="133.896" height="27.5" rx="13.75"/><text font-family="Montserrat-Regular, Montserrat" font-size="18" fill="#1E3D49">
                <tspan x="668.689" y="124.649">D</tspan>
            </text><text font-family="Montserrat-Regular, Montserrat" font-size="18" fill="#1E3D49">
                <tspan x="35.032" y="124">PRODUCTS</tspan>
            </text><text font-family="Montserrat-Regular, Montserrat" font-size="18" fill="#1E3D49">
                <tspan x="62.392" y="42.75">SEARCH</tspan>
            </text><text font-family="Montserrat-Regular, Montserrat" font-size="18" fill="#1E3D49">
                <tspan x="48.694" y="204">MATCHES</tspan>
            </text><text font-family="Montserrat-Regular, Montserrat" font-size="18" fill="#1E3D49">
                <tspan x="57.982" y="269">RESULTS</tspan>
            </text><path d="m345.145 173.524-1.49 9.951-7.067-7.163 4.425-1.442.14-.108.038.05 3.954-1.288Zm-10.809-3.348c1.2.343 2.335.85 3.38 1.501l.389.252-.559.83a12.3 12.3 0 0 0-3.072-1.495l-.413-.127.275-.96Zm-7.77-1.97 3.879.98-.245.97-3.879-.98.245-.97Zm-7.756-1.96 3.878.98-.245.97-3.878-.98.245-.97Zm-7.756-1.959 3.878.98-.245.97-3.878-.98.245-.97Zm-7.757-1.96 3.879.98-.245.97-3.879-.98.245-.97Zm-7.756-1.959 3.878.98-.245.97-3.878-.98.245-.97Zm-7.756-1.96 3.878.98-.245.97-3.878-.98.245-.97Zm-7.757-1.959 3.879.98-.245.97-3.878-.98.244-.97Zm-7.756-1.96 3.878.98-.245.97-3.878-.98.245-.97Zm-7.756-1.959 3.878.98-.245.97-3.878-.98.245-.97Zm-7.625-2.17c.607.282 1.236.519 1.882.709l.487.134 1.378.348-.245.97-1.379-.35a14.665 14.665 0 0 1-2.05-.686l-.493-.217.42-.907Zm-5.75-5.028a13.664 13.664 0 0 0 2.157 2.601l.36.325-.66.753a14.66 14.66 0 0 1-2.445-2.755l-.255-.385.843-.539ZM249 138c0 1.14.141 2.265.418 3.355l.127.465-.96.28a14.599 14.599 0 0 1-.578-3.635L248 138h1Z" fill="#1E3D49" fill-rule="nonzero" opacity=".258"/><path d="M200.5 138c0 6.534 3.325 12.61 8.805 16.135l.325.204 21.115 12.994a18.387 18.387 0 0 1 6.737 7.29l.002.004 4.011-.915-2.384 9.775-6.39-7.772 3.755-.858a17.386 17.386 0 0 0-5.886-6.44l-.369-.232-21.115-12.994a20.185 20.185 0 0 1-9.602-16.802L199.5 138h1ZM360 137.997a27.152 27.152 0 0 0 8.394 19.453l.343.321 8.753 8.08a23.333 23.333 0 0 1 5.921 8.686l.008.022 4.035-.712-2.867 9.645-5.996-8.08 3.824-.676a22.332 22.332 0 0 0-5.232-7.8l-.37-.35-8.755-8.08a28.152 28.152 0 0 1-9.05-20.026l-.008-.477 1-.006ZM531.5 138c0 4.31 3 8.023 7.184 8.948l.269.055 111.852 21.265a14.98 14.98 0 0 1 9.707 6.46l3.974-1.138-1.848 9.89-6.804-7.413 3.666-1.05a13.977 13.977 0 0 0-8.51-5.69l-.372-.077-111.852-21.265a10.164 10.164 0 0 1-8.262-9.704L530.5 138h1Z" fill="#1E3D49" fill-rule="nonzero"/><path d="m682 174.5-4.5 9-4.5-9h9Zm-4.02-4.515.015 1.01L678 172v1.995h-1V172l-.005-.995-.015-.995v-.005l1-.02Zm-.16-7.998.08 4-1 .02-.08-4 1-.02Zm-.16-7.998.08 3.999-1 .02-.08-4 1-.02Zm-.155-7.994.006.497.009.498.06 3-1 .02-.06-3-.009-.503-.006-.502 1-.01ZM677.5 138v4h-1v-4h1ZM663.866 172.127a13.363 13.363 0 0 1 2.694 2.53l.122.157 3.956-1.291-1.483 9.952-7.072-7.157 3.585-1.172a12.366 12.366 0 0 0-2.033-1.949l-.346-.253.577-.817Zm-7.791-2.47.983.065c.904.059 1.791.208 2.652.443l.428.124-.295.956a12.305 12.305 0 0 0-2.433-.491l-.417-.034-.983-.064.065-.998Zm-7.983-.519 3.991.26-.064.998-3.992-.26.065-.998Zm-7.983-.519 3.991.26-.065.998-3.991-.26.065-.998Zm-7.983-.52 3.991.26-.065.998-3.991-.26.065-.997Zm-7.983-.519 3.991.26-.065.998-3.991-.26.065-.998Zm-7.984-.52 3.992.26-.065.998-3.991-.26.064-.997Zm-7.983-.519 3.992.26-.065.998-3.992-.26.065-.998Zm-7.983-.52 3.992.26-.065.998-3.992-.26.065-.997Zm-7.983-.519 3.992.26-.065.998-3.992-.26.065-.998Zm-7.983-.52 3.992.26-.065.999-3.992-.26.065-.998Zm-7.983-.519 3.991.26-.065.998-3.991-.26.065-.998Zm-7.983-.519 3.991.26-.065.998-3.991-.26.065-.998Zm-7.983-.52 3.991.26-.065.998-3.991-.26.065-.997Zm-7.983-.519 3.991.26-.065.998-3.991-.26.065-.998Zm-7.984-.52 3.992.26-.065.998-3.992-.26.065-.997Zm-7.983-.519 3.992.26-.065.998-3.992-.26.065-.998Zm-7.983-.52 3.992.26-.065.998-3.992-.26.065-.997Zm-7.983-.519 3.992.26-.065.998-3.992-.26.065-.998Zm-7.983-.52 3.991.26-.064.998-3.992-.26.065-.997Zm-7.983-.519 3.991.26-.065.998-3.991-.26.065-.998Zm-7.983-.52 3.991.26-.065.999-3.991-.26.065-.998Zm-7.983-.519 3.991.26-.065.998-3.991-.26.065-.998Zm-7.984-.519 3.992.26-.065.998-3.991-.26.064-.998Zm-7.983-.52 3.992.26-.065.998-3.992-.26.065-.997Zm-7.983-.519 3.992.26-.065.998-3.992-.26.065-.998Zm-7.983-.52 3.992.26-.065.998-3.992-.26.065-.997Zm-7.983-.519 3.992.26-.065.998-3.992-.26.065-.998Zm-7.983-.52 3.991.26-.065.998-3.991-.26.065-.997Zm-7.983-.519 3.991.26-.065.998-3.991-.26.065-.998Zm-7.983-.52 3.991.26-.065.999-3.991-.26.065-.998Zm-7.983-.519 3.991.26-.065.998-3.991-.26.065-.998Zm-7.984-.519 3.992.26-.065.998-3.992-.26.065-.998Zm-7.983-.52 3.992.26-.065.998-3.992-.26.065-.997Zm-7.983-.519 3.992.26-.065.998-3.992-.26.065-.998Zm-7.575-1.819c.993.54 2.046.96 3.142 1.253l.473.118-.226.974a15.347 15.347 0 0 1-3.407-1.226l-.459-.24.477-.879Zm-5.526-5.309a14.5 14.5 0 0 0 2.062 2.685l.345.342-.693.721a15.508 15.508 0 0 1-2.3-2.795l-.273-.44.86-.513ZM377.5 138c0 1.144.133 2.271.395 3.365l.12.467-.965.265c-.318-1.16-.5-2.357-.541-3.574L376.5 138h1Z" fill="#1E3D49" fill-rule="nonzero" opacity=".222"/><path d="M216.5 138a7.974 7.974 0 0 0 7.264 7.942l.252.019 414.033 23.85a13.187 13.187 0 0 1 9.615 5.01l3.951-1.302-1.459 9.956-7.089-7.14 3.58-1.18a12.183 12.183 0 0 0-8.303-4.32l-.353-.026-414.033-23.85a8.974 8.974 0 0 1-8.454-8.696L215.5 138h1Z" fill="#1E3D49" fill-rule="nonzero"/><path stroke="#1E3D49" d="M157 13.5V372"/><path d="M239.5 46a15.215 15.215 0 0 0 11.985 14.868l.328.067 121.22 23.55c3.892.756 7.265 3.02 9.443 6.252l3.972-1.155-1.808 9.898-6.834-7.385 3.658-1.064a13.766 13.766 0 0 0-8.248-5.486l-.373-.078-121.22-23.55a16.215 16.215 0 0 1-13.12-15.57L238.5 46h1ZM214.346 46c0 8.17 2.111 16.195 6.124 23.302l.339.59 4.031 6.907a44.04 44.04 0 0 1 5.136 13.493l.039.202 4.037-.369-3.66 9.373-5.302-8.552 3.924-.36-.018-.097a43.04 43.04 0 0 0-4.666-12.57l-.353-.616-4.032-6.907a48.394 48.394 0 0 1-6.594-23.701l-.005-.695h1Z" fill="#1E3D49" fill-rule="nonzero"/><path d="M258 46c0 7 5.208 12.884 12.117 13.765l.32.037 246.4 25.701a13.548 13.548 0 0 1 9.404 5.295l3.958-1.264-1.547 9.942-7.026-7.203 3.6-1.15a12.545 12.545 0 0 0-8.13-4.582l-.362-.043-246.4-25.701c-7.468-.78-13.167-6.994-13.33-14.467L257 46h1Z" fill="#1E3D49" fill-rule="nonzero"/><path d="M280.5 46c0 6.93 5.276 12.7 12.14 13.35l.318.027 372.33 26.51a13.122 13.122 0 0 1 9.36 4.937l3.952-1.308-1.443 9.959-7.101-7.13 3.576-1.184a12.118 12.118 0 0 0-8.06-4.246l-.356-.03-372.329-26.51c-7.435-.53-13.22-6.635-13.383-14.052L279.5 46h1Z" fill="#1E3D49" fill-rule="nonzero"/><g transform="translate(278.307 254.536)"><circle fill="#80C0A1" cx="35" cy="35" r="35"/><text font-family="Montserrat-Regular, Montserrat" font-size="12" fill="#FFF">
                    <tspan x="7.641" y="35">Business</tspan>
                    <tspan x="17.769" y="47">Rules</tspan>
                </text><path d="M44.47 13.61a.333.333 0 0 1-.096.056.311.311 0 0 1-.105.018l.061-.006a.31.31 0 0 1-.005.001l-.056.005H25.326l7.174 6.69.038.042a.312.312 0 0 1-.463.415l-7.753-7.23a.244.244 0 0 1-.043-.05.34.34 0 0 1-.036-.065l-.011-.04a.307.307 0 0 1 .058-.268l.024-.026c.009-.01.019-.019.03-.027L32.08 6.28a.312.312 0 0 1 .452.426l-.039.04-7.137 6.316H44.27l.056.005a.31.31 0 0 1 .01.002l-.066-.007a.312.312 0 0 1 .312.311l-.007-.066a.31.31 0 0 1 .002.01l.002.04.003.016-.005.056a.31.31 0 0 1-.002.01l.007-.066a.312.312 0 0 1-.073.201l-.038.038ZM25.333 56.504a.333.333 0 0 1 .096-.055.311.311 0 0 1 .105-.018l-.061.006a.31.31 0 0 1 .005-.001l.056-.005h18.943l-7.174-6.69-.038-.043a.312.312 0 0 1 .463-.414l7.753 7.23a.244.244 0 0 1 .043.05.34.34 0 0 1 .036.065l.011.039a.307.307 0 0 1-.058.268l-.024.027a.306.306 0 0 1-.03.027l-7.737 6.846a.312.312 0 0 1-.452-.426l.039-.04 7.137-6.316H25.534l-.056-.005a.31.31 0 0 1-.01-.002l.066.007a.312.312 0 0 1-.312-.312l.007.067a.31.31 0 0 1-.002-.01l-.002-.04-.003-.017.005-.056a.31.31 0 0 1 .002-.01l-.007.066a.312.312 0 0 1 .073-.2l.038-.038Z" fill="#FFF" fill-rule="nonzero"/></g></g></svg>