<svg width="766" height="466" xmlns="http://www.w3.org/2000/svg"><g fill="none" fill-rule="evenodd"><g transform="translate(40 36.5)"><rect fill="#E2E6E7" opacity=".614" width="136" height="35.5" rx="3"/><rect fill="#E2E6E7" opacity=".614" y="72.468" width="89" height="11" rx="2"/><rect fill="#E2E6E7" opacity=".614" y="91.468" width="78" height="11" rx="2"/><rect fill="#E2E6E7" opacity=".614" y="110.468" width="97.281" height="11" rx="2"/><rect fill="#E2E6E7" opacity=".614" y="239.936" width="136" height="16" rx="3"/><rect fill="#E2E6E7" opacity=".614" y="263.936" width="89" height="11" rx="2"/><rect fill="#E2E6E7" opacity=".614" y="282.936" width="103" height="11" rx="2"/><rect fill="#E2E6E7" opacity=".614" y="301.936" width="64" height="11" rx="2"/><rect fill="#E2E6E7" opacity=".614" y="320.936" width="78" height="11" rx="2"/><rect fill="#E2E6E7" opacity=".614" y="148.468" width="111" height="11" rx="2"/><rect fill="#E2E6E7" opacity=".614" y="167.468" width="97" height="11" rx="2"/><rect fill="#E2E6E7" opacity=".614" y="186.468" width="59" height="11" rx="2"/><rect fill="#E2E6E7" opacity=".614" y="205.468" width="103" height="11" rx="2"/><g transform="translate(246.13 160.22)"><rect fill="#E2E6E7" width="78.646" height="92.052" rx="5"/><rect fill="#FFF" x="7.591" y="6.328" width="63.464" height="49.798" rx="4.266"/><rect width="40.66" height="6.276" rx="3.138" transform="translate(17.897 62.029)" fill="#BBC3C6"/><rect width="63.395" height="11.778" rx="5.889" transform="translate(6.53 73.946)" fill="#BBC3C6"/></g><g transform="translate(246.13 273.024)"><rect fill="#E2E6E7" width="78.646" height="92.052" rx="5"/><rect fill="#FFF" x="7.591" y="6.328" width="63.464" height="49.798" rx="4.266"/><rect width="40.66" height="6.276" rx="3.138" transform="translate(17.897 62.029)" fill="#BBC3C6"/><rect width="63.395" height="11.778" rx="5.889" transform="translate(6.53 73.946)" fill="#BBC3C6"/></g><g transform="translate(509.816 273.024)"><rect fill="#E2E6E7" width="78.646" height="92.052" rx="5"/><rect fill="#FFF" x="7.591" y="6.328" width="63.464" height="49.798" rx="4.266"/><rect width="40.66" height="6.276" rx="3.138" transform="translate(17.897 62.029)" fill="#BBC3C6"/><rect width="63.395" height="11.778" rx="5.889" transform="translate(6.53 73.946)" fill="#BBC3C6"/></g><g transform="translate(597.71 273.024)"><rect fill="#E2E6E7" width="78.646" height="92.052" rx="5"/><rect fill="#FFF" x="7.591" y="6.328" width="63.464" height="49.798" rx="4.266"/><rect width="40.66" height="6.276" rx="3.138" transform="translate(17.897 62.029)" fill="#BBC3C6"/><rect width="63.395" height="11.778" rx="5.889" transform="translate(6.53 73.946)" fill="#BBC3C6"/></g><g transform="translate(246.13 385.829)"><rect fill="#E2E6E7" width="78.646" height="92.052" rx="5"/><rect fill="#FFF" x="7.591" y="6.328" width="63.464" height="49.798" rx="4.266"/><rect width="40.66" height="6.276" rx="3.138" transform="translate(17.897 62.029)" fill="#BBC3C6"/><rect width="63.395" height="11.778" rx="5.889" transform="translate(6.53 73.946)" fill="#BBC3C6"/></g><g transform="translate(157.427 273.024)"><rect fill="#E2E6E7" width="78.646" height="92.052" rx="5"/><rect fill="#FFF" x="7.591" y="6.328" width="63.464" height="49.798" rx="4.266"/><rect width="40.66" height="6.276" rx="3.138" transform="translate(17.897 62.029)" fill="#BBC3C6"/><rect width="63.395" height="11.778" rx="5.889" transform="translate(6.53 73.946)" fill="#BBC3C6"/></g><g transform="translate(157.427 160.22)"><rect fill="#E2E6E7" width="78.646" height="92.052" rx="5"/><rect fill="#FFF" x="7.591" y="6.328" width="63.464" height="49.798" rx="4.266"/><rect width="40.66" height="6.276" rx="3.138" transform="translate(17.897 62.029)" fill="#BBC3C6"/><rect width="63.395" height="11.778" rx="5.889" transform="translate(6.53 73.946)" fill="#BBC3C6"/></g><g transform="translate(246.13 47.416)"><rect fill="#E2E6E7" width="78.646" height="92.052" rx="5"/><rect fill="#FFF" x="7.591" y="6.328" width="63.464" height="49.798" rx="4.266"/><rect width="40.66" height="6.276" rx="3.138" transform="translate(17.897 62.029)" fill="#BBC3C6"/><rect width="63.395" height="11.778" rx="5.889" transform="translate(6.53 73.946)" fill="#BBC3C6"/></g><g transform="translate(334.026 47.416)"><rect fill="#E2E6E7" width="78.646" height="92.052" rx="5"/><rect fill="#FFF" x="7.591" y="6.328" width="63.464" height="49.798" rx="4.266"/><rect width="40.66" height="6.276" rx="3.138" transform="translate(17.897 62.029)" fill="#BBC3C6"/><rect width="63.395" height="11.778" rx="5.889" transform="translate(6.53 73.946)" fill="#BBC3C6"/></g><g transform="translate(421.92 47.416)"><rect fill="#E2E6E7" width="78.646" height="92.052" rx="5"/><rect fill="#FFF" x="7.591" y="6.328" width="63.464" height="49.798" rx="4.266"/><rect width="40.66" height="6.276" rx="3.138" transform="translate(17.897 62.029)" fill="#BBC3C6"/><rect width="63.395" height="11.778" rx="5.889" transform="translate(6.53 73.946)" fill="#BBC3C6"/></g><g transform="translate(509.816 47.416)"><rect fill="#E2E6E7" width="78.646" height="92.052" rx="5"/><rect fill="#FFF" x="7.591" y="6.328" width="63.464" height="49.798" rx="4.266"/><rect width="40.66" height="6.276" rx="3.138" transform="translate(17.897 62.029)" fill="#BBC3C6"/><rect width="63.395" height="11.778" rx="5.889" transform="translate(6.53 73.946)" fill="#BBC3C6"/></g><g transform="translate(597.71 47.416)"><rect fill="#E2E6E7" width="78.646" height="92.052" rx="5"/><rect fill="#FFF" x="7.591" y="6.328" width="63.464" height="49.798" rx="4.266"/><rect width="40.66" height="6.276" rx="3.138" transform="translate(17.897 62.029)" fill="#BBC3C6"/><rect width="63.395" height="11.778" rx="5.889" transform="translate(6.53 73.946)" fill="#BBC3C6"/></g><g transform="translate(157.427 385.829)"><rect fill="#E2E6E7" width="78.646" height="92.052" rx="5"/><rect fill="#FFF" x="7.591" y="6.328" width="63.464" height="49.798" rx="4.266"/><rect width="40.66" height="6.276" rx="3.138" transform="translate(17.897 62.029)" fill="#BBC3C6"/><rect width="63.395" height="11.778" rx="5.889" transform="translate(6.53 73.946)" fill="#BBC3C6"/></g><g transform="translate(334.026 385.829)"><rect fill="#E2E6E7" width="78.646" height="92.052" rx="5"/><rect fill="#FFF" x="7.591" y="6.328" width="63.464" height="49.798" rx="4.266"/><rect width="40.66" height="6.276" rx="3.138" transform="translate(17.897 62.029)" fill="#BBC3C6"/><rect width="63.395" height="11.778" rx="5.889" transform="translate(6.53 73.946)" fill="#BBC3C6"/></g><g transform="translate(421.92 385.829)"><rect fill="#E2E6E7" width="78.646" height="92.052" rx="5"/><rect fill="#FFF" x="7.591" y="6.328" width="63.464" height="49.798" rx="4.266"/><rect width="40.66" height="6.276" rx="3.138" transform="translate(17.897 62.029)" fill="#BBC3C6"/><rect width="63.395" height="11.778" rx="5.889" transform="translate(6.53 73.946)" fill="#BBC3C6"/></g><g transform="translate(509.816 385.829)"><rect fill="#E2E6E7" width="78.646" height="92.052" rx="5"/><rect fill="#FFF" x="7.591" y="6.328" width="63.464" height="49.798" rx="4.266"/><rect width="40.66" height="6.276" rx="3.138" transform="translate(17.897 62.029)" fill="#BBC3C6"/><rect width="63.395" height="11.778" rx="5.889" transform="translate(6.53 73.946)" fill="#BBC3C6"/></g><g transform="translate(597.71 385.829)"><rect fill="#E2E6E7" width="78.646" height="92.052" rx="5"/><rect fill="#FFF" x="7.591" y="6.328" width="63.464" height="49.798" rx="4.266"/><rect width="40.66" height="6.276" rx="3.138" transform="translate(17.897 62.029)" fill="#BBC3C6"/><rect width="63.395" height="11.778" rx="5.889" transform="translate(6.53 73.946)" fill="#BBC3C6"/></g><g transform="translate(509.816 160.22)"><rect fill="#E2E6E7" width="78.646" height="92.052" rx="5"/><rect fill="#FFF" x="7.591" y="6.328" width="63.464" height="49.798" rx="4.266"/><rect width="40.66" height="6.276" rx="3.138" transform="translate(17.897 62.029)" fill="#BBC3C6"/><rect width="63.395" height="11.778" rx="5.889" transform="translate(6.53 73.946)" fill="#BBC3C6"/></g><g transform="translate(597.71 160.22)"><rect fill="#E2E6E7" width="78.646" height="92.052" rx="5"/><rect fill="#FFF" x="7.591" y="6.328" width="63.464" height="49.798" rx="4.266"/><rect width="40.66" height="6.276" rx="3.138" transform="translate(17.897 62.029)" fill="#BBC3C6"/><rect width="63.395" height="11.778" rx="5.889" transform="translate(6.53 73.946)" fill="#BBC3C6"/></g></g><rect stroke="#202020" stroke-width="21.443" fill-opacity=".698" fill="#1E3D49" x="9.807" y="10.279" width="745.443" height="445.443" rx="7.213"/><g transform="translate(374.026 196.72)" opacity=".381"><rect fill="#E2E6E7" width="78.646" height="92.052" rx="5"/><rect fill="#FFF" x="7.591" y="6.328" width="63.464" height="49.798" rx="4.266"/><rect width="40.66" height="6.276" rx="3.138" transform="translate(17.897 62.029)" fill="#BBC3C6"/><rect width="63.395" height="11.778" rx="5.889" transform="translate(6.53 73.946)" fill="#BBC3C6"/></g><g transform="translate(461.92 196.72)" opacity=".381"><rect fill="#E2E6E7" width="78.646" height="92.052" rx="5"/><rect fill="#FFF" x="7.591" y="6.328" width="63.464" height="49.798" rx="4.266"/><rect width="40.66" height="6.276" rx="3.138" transform="translate(17.897 62.029)" fill="#BBC3C6"/><rect width="63.395" height="11.778" rx="5.889" transform="translate(6.53 73.946)" fill="#BBC3C6"/></g><g transform="translate(374.026 309.524)" opacity=".381"><rect fill="#E2E6E7" width="78.646" height="92.052" rx="5"/><rect fill="#FFF" x="7.591" y="6.328" width="63.464" height="49.798" rx="4.266"/><rect width="40.66" height="6.276" rx="3.138" transform="translate(17.897 62.029)" fill="#BBC3C6"/><rect width="63.395" height="11.778" rx="5.889" transform="translate(6.53 73.946)" fill="#BBC3C6"/></g><g transform="translate(461.92 309.524)" opacity=".381"><rect fill="#E2E6E7" width="78.646" height="92.052" rx="5"/><rect fill="#FFF" x="7.591" y="6.328" width="63.464" height="49.798" rx="4.266"/><rect width="40.66" height="6.276" rx="3.138" transform="translate(17.897 62.029)" fill="#BBC3C6"/><rect width="63.395" height="11.778" rx="5.889" transform="translate(6.53 73.946)" fill="#BBC3C6"/></g><g transform="translate(197.427 83.916)"><rect fill="#E2E6E7" width="78.646" height="92.052" rx="5"/><rect fill="#FFF" x="7.591" y="6.328" width="63.464" height="49.798" rx="4.266"/><rect width="40.66" height="6.276" rx="3.138" transform="translate(17.897 62.029)" fill="#BBC3C6"/><rect width="63.395" height="11.778" rx="5.889" transform="translate(6.53 73.946)" fill="#BBC3C6"/></g><rect stroke="#D3D3D3" fill="#FFF" x="200.341" y="42.5" width="427.5" height="23.5" rx="11.75"/><path d="M714.09 42h-64c-6.765 0-12.25 5.485-12.25 12.25s5.485 12.25 12.25 12.25h64c6.766 0 12.25-5.485 12.25-12.25S720.857 42 714.09 42Z" fill="#FDCB5B"/><g transform="translate(609.68 49.087)" stroke="#D3D3D3"><circle fill="#FFF" cx="4.78" cy="4.78" r="4.28"/><path stroke-linecap="round" d="m8.293 7.817 2.765 2.764"/></g><rect fill="#53B9C9" opacity=".614" x="40" y="84.968" width="136" height="16" rx="3"/><rect fill="#53B9C9" opacity=".614" x="40" y="165.968" width="71.36" height="11" rx="2"/><rect fill="#80C0A1" x="209.827" y="49.087" width="55.271" height="10.581" rx="3"/><rect fill="#FFF" x="352.421" y="100.968" width="201" height="316.5" rx="16"/><rect fill="#E2E6E7" x="362.691" y="111.8" width="182.063" height="296.42" rx="7"/><rect fill="#FFF" x="379.592" y="146.096" width="149.598" height="117.384" rx="4.266"/><rect fill="#1E3D49" x="379.592" y="272.462" width="149.435" height="12.249" rx="4.266"/><rect fill="#FDCB5B" x="373.109" y="368.15" width="162.4" height="27.764" rx="13.882"/><rect fill="#243C47" x="379.592" y="304.843" width="117.188" height="5.632" rx="2.816"/><rect fill="#243C47" x="379.592" y="291.327" width="134" height="5.632" rx="2.816"/><rect fill="#243C47" x="379.592" y="318.64" width="93.32" height="5.632" rx="2.816"/><rect fill="#243C47" x="379.592" y="345.672" width="86.151" height="5.632" rx="2.816"/><rect fill="#243C47" x="379.592" y="332.156" width="127.278" height="5.632" rx="2.816"/><path d="M486.026 180.026c3.233 4.261 5.27 10.423 5.582 16.751.294.019.59.086.876.205a2.731 2.731 0 0 1 1.694 2.531v6.99c0 .943-.475 1.807-1.272 2.312l-12.038 7.655c.072.552.149 1.111.228 1.672l.103.716c.708 4.89 1.565 9.623 1.58 9.704.013.074.021.15.021.226v2.526c0 .28-.008.556-.025.831.017.141.025.286.025.432l-.057.001c-.641 7.071-6.608 12.63-13.85 12.63h-8.323a8.907 8.907 0 0 1-3.957-.933l-1.759-.879a2.546 2.546 0 0 0-2.263 0l-1.759.88a8.907 8.907 0 0 1-3.957.933h-8.323c-7.242 0-13.209-5.56-13.85-12.631h-.057c0-.148.008-.293.025-.436-.017-.273-.025-.55-.025-.828v-2.526c0-.076.008-.152.022-.226.016-.094 1.174-6.484 1.91-12.091l-12.04-7.656a2.726 2.726 0 0 1-1.27-2.312v-6.99c0-1.113.665-2.106 1.694-2.531.286-.118.582-.186.878-.205.034-.748.094-1.496.178-2.236l2.513.285a32.63 32.63 0 0 0-.202 3.127l8.703 8.696c-.258-2.804-.864-5.385-1.81-7.707l2.34-.953c1.422 3.482 2.141 7.47 2.141 11.852 0 4.922-2.27 17.632-2.529 19.06v.104a3.798 3.798 0 0 1 4.895 2.473 3.795 3.795 0 0 1 2.69 3.626 3.793 3.793 0 0 1-2.693 3.626c-.152.498-.405.96-.742 1.357a11.326 11.326 0 0 0 7.229 2.596h8.323a6.36 6.36 0 0 0 2.826-.667l1.76-.88c.32-.16.655-.283.997-.37v-4.4h2.529v4.4c.342.087.676.21.997.37l1.76.88a6.36 6.36 0 0 0 2.826.667h8.323c2.743 0 5.262-.975 7.229-2.596a3.817 3.817 0 0 1-.742-1.357 3.793 3.793 0 0 1-2.694-3.626 3.795 3.795 0 0 1 2.692-3.627 3.798 3.798 0 0 1 4.893-2.473v-.102c-.143-.797-.912-5.098-1.565-9.601l-.114-.797c-.468-3.32-.849-6.646-.849-8.663 0-4.38.72-8.365 2.138-11.845l2.341.953c-.944 2.319-1.55 4.898-1.807 7.698l8.702-8.694c-.1-6.2-1.993-12.298-5.106-16.4l2.015-1.527Zm-41.153 48.762a3.798 3.798 0 0 1 3.63 2.69 3.795 3.795 0 0 1 2.691 3.626 3.797 3.797 0 0 1-2.692 3.626 3.798 3.798 0 0 1-3.63 2.69 3.798 3.798 0 0 1-3.629-2.69 3.797 3.797 0 0 1-2.691-3.626 3.795 3.795 0 0 1 2.691-3.627 3.798 3.798 0 0 1 3.63-2.69Zm17.7 0a3.798 3.798 0 0 1 3.629 2.69 3.795 3.795 0 0 1 2.691 3.626 3.797 3.797 0 0 1-2.691 3.626 3.798 3.798 0 0 1-3.63 2.69 3.798 3.798 0 0 1-3.63-2.69 3.797 3.797 0 0 1-2.691-3.626 3.795 3.795 0 0 1 2.692-3.627 3.798 3.798 0 0 1 3.63-2.69Zm0 2.526c-.699 0-1.265.566-1.265 1.263 0 .698-.565 1.264-1.264 1.264a1.264 1.264 0 1 0 0 2.526c.699 0 1.264.566 1.264 1.263a1.265 1.265 0 0 0 2.528 0c0-.697.566-1.263 1.265-1.263a1.264 1.264 0 0 0 0-2.526c-.7 0-1.265-.566-1.265-1.264 0-.697-.566-1.263-1.264-1.263Zm-17.7 0c-.698 0-1.264.566-1.264 1.263 0 .698-.566 1.264-1.265 1.264a1.264 1.264 0 1 0 0 2.526c.7 0 1.265.566 1.265 1.263a1.265 1.265 0 0 0 2.528 0c0-.697.565-1.263 1.264-1.263a1.264 1.264 0 1 0 0-2.526c-.699 0-1.264-.566-1.264-1.264 0-.697-.566-1.263-1.264-1.263Zm-16.435 0c-.591 0-1.088.406-1.226.953a11.316 11.316 0 0 0 2.328 5.98c.105-.186.162-.398.162-.617 0-.697.565-1.263 1.264-1.263a1.264 1.264 0 0 0 0-2.526c-.699 0-1.264-.566-1.264-1.264 0-.697-.566-1.263-1.264-1.263Zm50.57 0c-.699 0-1.265.566-1.265 1.263 0 .698-.565 1.264-1.264 1.264a1.264 1.264 0 1 0 0 2.526c.699 0 1.264.566 1.264 1.263 0 .219.057.43.162.617a11.298 11.298 0 0 0 2.327-5.98 1.263 1.263 0 0 0-1.225-.953Zm-32.87 2.527v2.526h-2.53v-2.526h2.53Zm17.698 0v2.526h-2.528v-2.526h2.528Zm3.741-69.474c3.535 0 6.213 1.166 7.957 3.468 1.459 1.923 2.033 4.377 2.173 6.72 2.558.341 5.023 1.748 7.193 4.119l-1.864 1.706c-1.66-1.813-3.481-2.925-5.33-3.267-.16 2.85-.776 5.094-.829 5.28-.153.545-.65.921-1.216.921-11.283 0-20.674 18.343-20.674 25.264v25.263h-2.529v-25.263c0-6.921-9.39-25.264-20.674-25.264a1.263 1.263 0 0 1-1.216-.922c-.053-.185-.669-2.429-.829-5.278-4.832.904-9.272 7.05-10.841 15.279l-2.484-.473c1.837-9.632 7.212-16.54 13.324-17.365.14-2.343.714-4.797 2.173-6.72 1.744-2.302 4.422-3.468 7.957-3.468h27.71Zm-31.554 50.526a3.798 3.798 0 0 1 3.63 2.69 3.795 3.795 0 0 1 2.691 3.626 3.797 3.797 0 0 1-2.691 3.627 3.798 3.798 0 0 1-3.63 2.689 3.798 3.798 0 0 1-3.63-2.69 3.797 3.797 0 0 1-2.691-3.626 3.795 3.795 0 0 1 2.692-3.626 3.798 3.798 0 0 1 3.63-2.69Zm35.399 0a3.798 3.798 0 0 1 3.63 2.69 3.795 3.795 0 0 1 2.691 3.626 3.797 3.797 0 0 1-2.692 3.627 3.798 3.798 0 0 1-3.63 2.689 3.798 3.798 0 0 1-3.629-2.69 3.797 3.797 0 0 1-2.691-3.626 3.795 3.795 0 0 1 2.691-3.626 3.798 3.798 0 0 1 3.63-2.69Zm-35.399 2.527c-.698 0-1.264.565-1.264 1.263 0 .697-.565 1.263-1.264 1.263a1.264 1.264 0 1 0 0 2.526c.699 0 1.264.566 1.264 1.263a1.265 1.265 0 0 0 2.528 0c0-.697.566-1.263 1.265-1.263a1.264 1.264 0 0 0 0-2.526c-.7 0-1.265-.566-1.265-1.263 0-.698-.566-1.263-1.264-1.263Zm35.399 0c-.698 0-1.264.565-1.264 1.263 0 .697-.566 1.263-1.265 1.263a1.264 1.264 0 1 0 0 2.526c.7 0 1.265.566 1.265 1.263a1.265 1.265 0 0 0 2.528 0c0-.697.565-1.263 1.264-1.263a1.264 1.264 0 1 0 0-2.526c-.699 0-1.264-.566-1.264-1.263 0-.698-.566-1.263-1.264-1.263Zm1.264 2.526v2.526h-2.528v-2.526h2.528Zm-35.399 0v2.526h-2.528v-2.526h2.528Zm-21.492-15.205v1.762c0 .074.037.14.099.181l11.017 7.004c.03-.276.057-.547.082-.811l-11.198-8.136Zm75.854 0-11.197 8.136c.025.264.053.534.082.81l11.016-7.003c.063-.04.1-.107.1-.18l-.001-1.763Zm-27.813-6.269a3.798 3.798 0 0 1 3.63 2.69 3.795 3.795 0 0 1 2.692 3.626 3.797 3.797 0 0 1-2.692 3.627 3.798 3.798 0 0 1-3.63 2.689 3.798 3.798 0 0 1-3.63-2.69 3.797 3.797 0 0 1-2.69-3.626 3.795 3.795 0 0 1 2.69-3.626 3.798 3.798 0 0 1 3.63-2.69Zm-20.227 0a3.798 3.798 0 0 1 3.63 2.69 3.795 3.795 0 0 1 2.69 3.626 3.797 3.797 0 0 1-2.69 3.627 3.798 3.798 0 0 1-3.63 2.689 3.798 3.798 0 0 1-3.63-2.69 3.797 3.797 0 0 1-2.692-3.626 3.795 3.795 0 0 1 2.692-3.626 3.798 3.798 0 0 1 3.63-2.69Zm47.675.89c-.002 0-.003.002-.005.003l-9.255 9.246 9.625-6.993v-2.13c-.003-.047-.021-.127-.132-.173-.132-.056-.206.02-.233.047Zm-75.356-.047c-.133.055-.133.159-.133.198v2.105l9.625 6.993-9.254-9.246c-.075-.062-.14-.091-.238-.05Zm47.908 1.684c-.697 0-1.264.565-1.264 1.263 0 .697-.565 1.263-1.264 1.263a1.264 1.264 0 1 0 0 2.526c.7 0 1.264.566 1.264 1.263a1.265 1.265 0 0 0 2.529 0c0-.697.565-1.263 1.264-1.263a1.264 1.264 0 0 0 0-2.526c-.7 0-1.264-.566-1.264-1.263 0-.698-.567-1.263-1.265-1.263Zm-20.227 0c-.655 0-1.193.497-1.258 1.134l-.007.129c0 .697-.565 1.263-1.264 1.263a1.264 1.264 0 1 0 0 2.526c.656 0 1.193.498 1.258 1.134l.006.13a1.265 1.265 0 0 0 2.529 0c0-.698.565-1.264 1.264-1.264a1.264 1.264 0 0 0 0-2.526c-.7 0-1.264-.566-1.264-1.263 0-.698-.567-1.263-1.264-1.263Zm21.492 2.526v2.526h-2.529v-2.526h2.529Zm-20.228 0v2.526h-2.529v-2.526h2.529Zm29.077-16.421a3.798 3.798 0 0 1 3.63 2.69 3.795 3.795 0 0 1 2.692 3.626 3.797 3.797 0 0 1-2.692 3.626 3.798 3.798 0 0 1-3.63 2.69 3.798 3.798 0 0 1-3.63-2.69 3.797 3.797 0 0 1-2.69-3.626 3.795 3.795 0 0 1 2.69-3.627 3.798 3.798 0 0 1 3.63-2.69Zm-40.455 0a3.798 3.798 0 0 1 3.63 2.69 3.795 3.795 0 0 1 2.69 3.626 3.797 3.797 0 0 1-2.69 3.626 3.798 3.798 0 0 1-3.63 2.69 3.798 3.798 0 0 1-3.63-2.69 3.797 3.797 0 0 1-2.692-3.626 3.795 3.795 0 0 1 2.692-3.627 3.798 3.798 0 0 1 3.63-2.69Zm34.082-20.21h-27.71c-2.739 0-4.682.805-5.94 2.465-2.55 3.363-1.613 9.245-1.137 11.468 7.255.556 12.815 7.007 15.548 10.922l.262.382c-4.404-11.342-11.018-21.88-11.118-22.037a1.264 1.264 0 0 1 1.07-1.937h24.02v2.526h-21.769c2.854 4.785 10.005 17.474 12.92 28.994 2.914-11.52 10.065-24.21 12.919-28.994H465.1v-2.526h3.792a1.265 1.265 0 0 1 1.07 1.937l-.026.042c-.468.75-6.817 10.992-11.089 21.99l.259-.377c2.733-3.914 8.293-10.365 15.545-10.922.477-2.227 1.408-8.122-1.137-11.47-1.259-1.658-3.2-2.463-5.938-2.463Zm6.373 22.736c-.698 0-1.264.566-1.264 1.263 0 .698-.565 1.264-1.264 1.264a1.264 1.264 0 1 0 0 2.526c.699 0 1.264.566 1.264 1.263a1.265 1.265 0 0 0 2.529 0c0-.697.565-1.263 1.264-1.263a1.264 1.264 0 0 0 0-2.526c-.7 0-1.264-.566-1.264-1.264 0-.697-.567-1.263-1.265-1.263Zm-40.455 0c-.698 0-1.265.566-1.265 1.263 0 .698-.565 1.264-1.264 1.264a1.264 1.264 0 1 0 0 2.526c.7 0 1.264.566 1.264 1.263a1.265 1.265 0 0 0 2.529 0c0-.697.565-1.263 1.264-1.263a1.264 1.264 0 0 0 0-2.526c-.699 0-1.264-.566-1.264-1.264 0-.697-.566-1.263-1.264-1.263Zm49.675 2.895 1.788 1.788-.018.02c-.118.125-.784.861-1.569 2.238l-2.197-1.249c1.03-1.809 1.902-2.7 1.996-2.797Zm-58.895.002c.02.02.078.078.166.175l.119.136c.355.41.994 1.224 1.71 2.48l-2.198 1.25c-.862-1.511-1.583-2.253-1.59-2.26l1.793-1.781Zm50.94-.37v2.526h-2.529v-2.526h2.529Zm-40.456 0v2.526h-2.529v-2.526h2.529Z" fill="#8B6391"/><path d="M250.039 104.944c1.34 1.766 2.183 4.319 2.313 6.94a1.132 1.132 0 0 1 1.065 1.133v2.898c0 .39-.197.748-.527.958l-4.988 3.172c.272 2.074.683 4.406.773 4.91l.016.086.002.014c.006.03.009.062.009.094v1.046c0 .117-.004.233-.01.348.007.057.01.116.01.176h-.024a5.769 5.769 0 0 1-5.738 5.234h-3.45a3.69 3.69 0 0 1-1.639-.387l-.729-.364a1.055 1.055 0 0 0-.937 0l-.729.364a3.69 3.69 0 0 1-1.64.387h-3.449c-3 0-5.472-2.304-5.738-5.233l-.024-.001c0-.06.004-.12.01-.179a5.975 5.975 0 0 1-.01-.345v-1.046c0-.032.003-.063.01-.094.005-.034.36-1.993.653-4.018l.072-.506.066-.486-4.989-3.172a1.13 1.13 0 0 1-.526-.958v-2.897a1.132 1.132 0 0 1 1.066-1.133c.013-.31.038-.62.073-.927l1.041.118a13.52 13.52 0 0 0-.083 1.296l3.606 3.602c-.107-1.161-.358-2.23-.75-3.192l.97-.395c.589 1.443.887 3.095.887 4.91 0 1.32-.394 3.991-.701 5.872l-.12.72c-.112.666-.199 1.15-.227 1.307v.042a1.574 1.574 0 0 1 2.028 1.025 1.573 1.573 0 0 1 1.115 1.502c0 .708-.47 1.308-1.116 1.503a1.582 1.582 0 0 1-.308.562 4.693 4.693 0 0 0 2.995 1.076h3.45c.403 0 .809-.096 1.17-.277l.73-.364c.132-.066.271-.117.413-.154v-1.822h1.047v1.823c.142.036.28.087.414.153l.729.364c.361.181.767.277 1.17.277h3.45a4.695 4.695 0 0 0 2.996-1.076 1.559 1.559 0 0 1-.308-.562 1.572 1.572 0 0 1-1.117-1.503c0-.707.47-1.306 1.115-1.502a1.574 1.574 0 0 1 2.028-1.025v-.042c-.028-.157-.115-.641-.227-1.307l-.12-.72c-.306-1.88-.7-4.552-.7-5.871 0-1.815.298-3.466.885-4.908l.97.394c-.39.961-.641 2.03-.748 3.19l3.606-3.602c-.042-2.57-.826-5.096-2.116-6.796l.835-.632Zm-17.052 20.205c.708 0 1.308.47 1.504 1.114a1.573 1.573 0 0 1 1.115 1.502c0 .708-.47 1.307-1.115 1.503a1.574 1.574 0 0 1-3.008 0 1.573 1.573 0 0 1-1.116-1.503c0-.707.47-1.306 1.116-1.502a1.574 1.574 0 0 1 1.504-1.114Zm7.333 0c.709 0 1.309.47 1.504 1.114a1.573 1.573 0 0 1 1.116 1.502c0 .708-.47 1.307-1.116 1.503a1.574 1.574 0 0 1-3.007 0 1.573 1.573 0 0 1-1.116-1.503c0-.707.47-1.306 1.116-1.502a1.574 1.574 0 0 1 1.503-1.114Zm0 1.046a.524.524 0 0 0-.523.524.523.523 0 0 1-.524.523.524.524 0 1 0 0 1.047c.29 0 .524.234.524.523a.524.524 0 0 0 1.047 0c0-.289.234-.523.524-.523a.524.524 0 0 0 0-1.047.523.523 0 0 1-.524-.523.524.524 0 0 0-.524-.524Zm-7.333 0a.524.524 0 0 0-.524.524.523.523 0 0 1-.524.523.524.524 0 1 0 0 1.047c.29 0 .524.234.524.523a.524.524 0 0 0 1.048 0c0-.289.234-.523.523-.523a.524.524 0 0 0 0-1.047.523.523 0 0 1-.523-.523.524.524 0 0 0-.524-.524Zm-6.81 0a.524.524 0 0 0-.509.397c.08.928.427 1.779.965 2.476a.522.522 0 0 0 .068-.256c0-.289.234-.523.523-.523a.524.524 0 0 0 0-1.047.523.523 0 0 1-.523-.523.524.524 0 0 0-.524-.524Zm20.953 0a.524.524 0 0 0-.523.524.523.523 0 0 1-.524.523.524.524 0 1 0 0 1.047c.29 0 .524.234.524.523 0 .091.023.179.067.256a4.686 4.686 0 0 0 .964-2.475.521.521 0 0 0-.508-.398Zm-13.62 1.047v1.047h-1.047v-1.047h1.048Zm7.334 0v1.047h-1.047v-1.047h1.047Zm1.55-28.787c1.465 0 2.575.484 3.297 1.437.605.798.843 1.815.9 2.786 1.06.14 2.082.723 2.981 1.705l-.772.708c-.688-.752-1.443-1.213-2.21-1.355a11.082 11.082 0 0 1-.342 2.188.523.523 0 0 1-.504.382c-4.675 0-8.567 7.6-8.567 10.468v10.468h-1.047v-10.468c0-2.867-3.891-10.468-8.567-10.468a.523.523 0 0 1-.504-.382 11.104 11.104 0 0 1-.343-2.186c-2.002.374-3.842 2.92-4.492 6.33l-1.03-.196c.762-3.991 2.99-6.854 5.522-7.195.057-.97.295-1.987.9-2.785.723-.953 1.832-1.437 3.297-1.437h11.481Zm-13.074 20.936c.708 0 1.308.47 1.504 1.114a1.573 1.573 0 0 1 1.115 1.503c0 .707-.47 1.307-1.115 1.503a1.574 1.574 0 0 1-3.008 0 1.573 1.573 0 0 1-1.115-1.503c0-.707.47-1.307 1.115-1.503a1.574 1.574 0 0 1 1.504-1.114Zm14.667 0c.709 0 1.308.47 1.504 1.114a1.573 1.573 0 0 1 1.116 1.503c0 .707-.47 1.307-1.116 1.503a1.574 1.574 0 0 1-3.008 0 1.573 1.573 0 0 1-1.115-1.503c0-.707.47-1.307 1.115-1.503a1.574 1.574 0 0 1 1.504-1.114Zm-14.667 1.047a.524.524 0 0 0-.524.523.523.523 0 0 1-.524.524.524.524 0 1 0 0 1.047c.29 0 .524.234.524.523a.524.524 0 0 0 1.048 0c0-.289.234-.523.523-.523a.524.524 0 0 0 0-1.047.523.523 0 0 1-.523-.524.524.524 0 0 0-.524-.523Zm14.667 0a.524.524 0 0 0-.523.523.523.523 0 0 1-.524.524.524.524 0 1 0 0 1.047c.29 0 .524.234.524.523a.524.524 0 0 0 1.047 0c0-.289.234-.523.524-.523a.524.524 0 0 0 0-1.047.523.523 0 0 1-.524-.524.524.524 0 0 0-.524-.523Zm.524 1.047v1.047h-1.047v-1.047h1.047Zm-14.667 0v1.047h-1.048v-1.047h1.048Zm22.525-6.302-4.64 3.372c.01.11.022.222.034.337l4.564-2.902a.088.088 0 0 0 .042-.075v-.732Zm-31.431 0v.732c0 .03.015.058.041.075l4.565 2.901c.012-.115.024-.227.034-.337l-4.64-3.37Zm19.906-2.596c.709 0 1.308.47 1.504 1.114a1.573 1.573 0 0 1 1.116 1.503c0 .707-.47 1.307-1.116 1.503a1.574 1.574 0 0 1-3.008 0 1.573 1.573 0 0 1-1.115-1.503c0-.708.47-1.307 1.115-1.503a1.574 1.574 0 0 1 1.504-1.114Zm-8.381 0c.708 0 1.308.47 1.504 1.114a1.573 1.573 0 0 1 1.115 1.503c0 .707-.47 1.307-1.115 1.503a1.574 1.574 0 0 1-3.008 0 1.573 1.573 0 0 1-1.115-1.503c0-.708.47-1.307 1.115-1.503a1.574 1.574 0 0 1 1.504-1.114Zm19.754.369-.002.001-3.833 3.83 3.987-2.897v-.872c0-.016 0-.059-.055-.082-.055-.023-.086.009-.097.02Zm-31.224-.02c-.055.023-.055.066-.055.082v.872l3.987 2.897-3.825-3.823-.008-.006c-.03-.026-.058-.04-.099-.022Zm19.851.698a.524.524 0 0 0-.524.523.523.523 0 0 1-.523.524.524.524 0 1 0 0 1.046c.29 0 .523.235.523.524a.524.524 0 0 0 1.04.094l.008-.094c0-.29.234-.524.524-.524a.524.524 0 0 0 0-1.046.524.524 0 0 1-.515-.43l-.009-.094a.524.524 0 0 0-.524-.523Zm-8.381 0a.524.524 0 0 0-.524.523.523.523 0 0 1-.524.524.524.524 0 1 0 0 1.046c.29 0 .524.235.524.524a.524.524 0 0 0 1.048 0c0-.29.234-.524.524-.524a.524.524 0 0 0 0-1.046.523.523 0 0 1-.524-.524.524.524 0 0 0-.524-.523Zm8.905 1.047v1.046h-1.048v-1.046h1.048Zm-8.381 0v1.046h-1.048v-1.046h1.048Zm12.048-6.804c.708 0 1.308.47 1.504 1.114a1.573 1.573 0 0 1 1.115 1.503c0 .707-.47 1.306-1.115 1.502a1.574 1.574 0 0 1-3.008 0 1.573 1.573 0 0 1-1.115-1.502c0-.708.47-1.307 1.115-1.503a1.574 1.574 0 0 1 1.504-1.114Zm-16.763 0c.708 0 1.308.47 1.504 1.114a1.573 1.573 0 0 1 1.115 1.503c0 .707-.47 1.306-1.115 1.502a1.574 1.574 0 0 1-3.008 0 1.573 1.573 0 0 1-1.115-1.502c0-.708.47-1.307 1.115-1.503a1.574 1.574 0 0 1 1.504-1.114Zm14.122-8.375h-11.481c-1.135 0-1.94.334-2.462 1.022-1.056 1.393-.668 3.83-.47 4.752 3.005.23 5.309 2.903 6.442 4.525l.11.162c-1.825-4.7-4.567-9.07-4.609-9.134a.524.524 0 0 1 .443-.803h9.953v1.046h-9.02c1.183 1.983 4.146 7.241 5.354 12.014 1.207-4.773 4.17-10.03 5.353-12.014h-.639v-1.046h1.572a.524.524 0 0 1 .443.803c-.041.065-2.782 4.432-4.607 9.132l.109-.16c1.132-1.621 3.436-4.294 6.44-4.525.198-.923.584-3.366-.47-4.753-.522-.687-1.326-1.02-2.46-1.02Zm2.641 9.421a.524.524 0 0 0-.524.524.523.523 0 0 1-.524.523.524.524 0 1 0 0 1.047c.29 0 .524.234.524.523a.524.524 0 0 0 1.048 0c0-.289.234-.523.524-.523a.524.524 0 0 0 0-1.047.523.523 0 0 1-.524-.523.524.524 0 0 0-.524-.524Zm-16.763 0a.524.524 0 0 0-.524.524.523.523 0 0 1-.524.523.524.524 0 1 0 0 1.047c.29 0 .524.234.524.523a.524.524 0 0 0 1.048 0c0-.289.234-.523.524-.523a.524.524 0 0 0 0-1.047.523.523 0 0 1-.524-.523.524.524 0 0 0-.524-.524Zm20.583 1.2.741.74c-.001.002-.3.309-.657.936l-.91-.517c.426-.75.787-1.12.826-1.159Zm-24.403 0c.04.04.4.409.826 1.157l-.91.518c-.357-.626-.656-.933-.66-.937l.744-.738Zm21.107-.153v1.047h-1.048v-1.047h1.048Zm-16.763 0v1.047h-1.048v-1.047h1.048Z" fill="#BBC3C6" opacity=".429"/><g transform="translate(536.11 119.664)"><rect fill="#D44A6F" x="3.266" width="21.639" height="21.639" rx="4"/><text font-family="Montserrat-Regular, Montserrat" font-size="13" fill="#FFF">
                <tspan x="9.738" y="15.003">E</tspan>
            </text><path fill="#D44A6F" d="M3.266 14.392V7.86L0 11.126"/></g><path fill="#FDCB5B" d="M365.137 379.312v6.533l3.267-3.266"/><rect fill="#FDCB5B" x="343.498" y="371.212" width="21.639" height="21.639" rx="4"/><text font-family="Montserrat-Regular, Montserrat" font-size="13" fill="#1E3D49">
            <tspan x="350.643" y="386.215">C</tspan>
        </text><path fill="#FDCB5B" d="M732.29 56.845v-6.533l-3.267 3.266"/><rect fill="#FDCB5B" x="731.498" y="42.212" width="21.639" height="21.639" rx="4"/><text font-family="Montserrat-Regular, Montserrat" font-size="13" fill="#1E3D49">
            <tspan x="738.643" y="57.215">D</tspan>
        </text><g fill="#80C0A1"><path d="M240.891 44.417h-6.533l3.266 3.266"/><path d="M226.258 41.209v-13.64a4 4 0 0 1 4-4h13.64a4 4 0 0 1 4 4v13.64a4 4 0 0 1-4 4h-13.64a4 4 0 0 1-4-4Z"/></g><text font-family="Montserrat-Regular, Montserrat" font-size="13" fill="#1E3D49">
            <tspan x="232.64" y="38.81">A</tspan>
        </text><rect fill="#53B9C9" x="150.106" y="212.148" width="21.639" height="21.639" rx="4"/><text font-family="Montserrat-Regular, Montserrat" font-size="13" fill="#FFF">
            <tspan x="156.812" y="227.151">F</tspan>
        </text><path d="M597.645 210.923v1h-2v-1h2Zm-4 0v1h-2v-1h2Zm-4 0v1h-2v-1h2Zm-4 0v1h-2v-1h2Zm-4 0v1h-2v-1h2Zm-4 0v1h-2v-1h2Zm-4 0v1h-2v-1h2Zm-4 0v1h-2v-1h2Zm-5.659-.776c.449.223.919.4 1.404.528l.367.087-.206.978a8.44 8.44 0 0 1-1.688-.546l-.32-.15.443-.897Zm-2.83-2.439c.287.412.614.794.977 1.14l.279.253-.654.757a8.547 8.547 0 0 1-1.214-1.29l-.209-.288.82-.572Zm-1.313-3.59c.046.504.143.997.287 1.475l.117.356-.941.336a8.448 8.448 0 0 1-.419-1.72l-.04-.355.996-.092Zm-.032-3.875v2h-1v-2h1Zm-.17-4.09c.09.444.145.896.163 1.354l.007.345v.391h-1v-.391c0-.382-.028-.76-.084-1.131l-.066-.37.98-.199Zm-1.858-3.813c.384.451.72.94 1.002 1.46l.163.316-.898.44a7.504 7.504 0 0 0-.792-1.275l-.237-.292.762-.649ZM529.356 185a4.5 4.5 0 1 1-.143 9 4.5 4.5 0 0 1 .143-9Zm-.016 1a3.5 3.5 0 1 0-.111 7 3.5 3.5 0 0 0 .111-7Zm24.967 3.895c.555.209 1.086.476 1.584.795l.295.198-.574.818a7.484 7.484 0 0 0-1.309-.734l-.349-.141.353-.936Zm-4.106-.562 1.26.02c.179.003.357.012.534.026l.265.025-.11.994-.352-.03-.354-.015-1.26-.02.017-1Zm-4-.064 2 .032-.016 1-2-.032.016-1Zm-4-.063 2 .031-.015 1-2-.032.016-1Zm-3.999-.064 2 .032-.016 1-2-.032.016-1Zm-4-.064 2 .032-.015 1-2-.032.016-1ZM597.645 216.822v-1h-2v1h2Zm-4 0v-1h-2v1h2Zm-4 0v-1h-2v1h2Zm-4 0v-1h-2v1h2Zm-4 0v-1h-2v1h2Zm-4 0v-1h-2v1h2Zm-4 0v-1h-2v1h2Zm-4 0v-1h-2v1h2Zm-5.659.776a7.443 7.443 0 0 1 1.404-.527l.367-.088-.206-.978a8.44 8.44 0 0 0-1.688.546l-.32.15.443.897Zm-2.83 2.439c.287-.412.614-.794.977-1.14l.279-.253-.654-.757c-.448.387-.855.82-1.214 1.29l-.209.288.82.572Zm-1.313 3.59c.046-.504.143-.997.287-1.475l.117-.356-.941-.336a8.448 8.448 0 0 0-.419 1.72l-.04.355.996.092Zm-.032 3.875v-2h-1v2h1Zm0 4v-2h-1v2h1Zm0 4v-2h-1v2h1Zm0 4v-2h-1v2h1Zm0 4v-2h-1v2h1Zm0 4v-2h-1v2h1Zm0 4v-2h-1v2h1Zm0 4v-2h-1v2h1Zm0 4v-2h-1v2h1Zm0 4v-2h-1v2h1Zm0 4v-2h-1v2h1Zm-.076 4.064c.034-.252.056-.506.068-.761l.008-.385v-.918h-1v.918c0 .227-.01.453-.03.677l-.037.335.99.134Zm-1.597 3.919c.354-.476.656-.987.903-1.525l.142-.326-.926-.379a7.48 7.48 0 0 1-.705 1.326l-.216.307.802.597ZM534.306 283a4.5 4.5 0 0 0 4.453-4.02l1.961-.01-.004-1-1.961.008a4.5 4.5 0 1 0-4.45 5.022Zm-.005-1a3.5 3.5 0 1 1-.033-7 3.5 3.5 0 0 1 .033 7Zm20.537-3.844a8.494 8.494 0 0 0 1.526-.9l.281-.218-.628-.778c-.39.315-.811.59-1.256.822l-.338.164.415.91Zm-4.118.767.655-.003c.367-.003.73-.029 1.09-.078l.358-.056-.177-.984a7.525 7.525 0 0 1-.955.109l-.322.009-.654.003.005 1Zm-4 .019 2-.01-.005-1-2 .01.005 1Zm-4 .018 2-.009-.005-1-2 .01.005 1ZM597.645 220.905v-1h-2v1h2Zm-4 0v-1h-2v1h2Zm-4 0v-1h-2v1h2Zm-4 0v-1h-2v1h2Zm-4 0v-1h-2v1h2Zm-4 0v-1h-2v1h2Zm-5.93.072c.229-.032.46-.053.691-.064l.35-.008h.889v-1h-.89a8.6 8.6 0 0 0-.787.036l-.39.045.138.99Zm-3.45 1.42c.402-.3.832-.56 1.285-.775l.344-.152-.381-.924c-.548.226-1.07.51-1.559.844l-.288.207.599.8Zm-2.348 2.922c.207-.457.46-.892.753-1.299l.228-.3-.78-.624c-.371.462-.692.962-.959 1.49l-.153.321.911.412Zm-.662 3.71v-.645c.001-.326.023-.65.065-.969l.049-.317-.985-.174a8.52 8.52 0 0 0-.12 1.09l-.009.368v.646h1Zm0 4v-2h-1v2h1Zm0 4v-2h-1v2h1Zm0 4v-2h-1v2h1Zm0 4v-2h-1v2h1Zm0 4v-2h-1v2h1Zm0 4v-2h-1v2h1Zm0 4v-2h-1v2h1Zm0 4v-2h-1v2h1Zm0 4v-2h-1v2h1Zm0 4v-2h-1v2h1Zm0 4v-2h-1v2h1Zm0 4v-2h-1v2h1Zm0 4v-2h-1v2h1Zm0 4v-2h-1v2h1Zm0 4v-2h-1v2h1Zm0 4v-2h-1v2h1Zm0 4v-2h-1v2h1Zm0 4v-2h-1v2h1Zm0 4v-2h-1v2h1Zm0 4v-2h-1v2h1Zm0 4v-2h-1v2h1Zm-.055 4.055c.025-.214.041-.43.05-.646l.005-.325v-1.085h-1v1.085c0 .192-.007.383-.021.573l-.027.285.993.113Zm-1.512 3.948c.343-.483.635-1 .87-1.543l.135-.33-.934-.358c-.18.469-.407.917-.676 1.34l-.21.312.815.58Zm-56.377 7.873a4.5 4.5 0 1 0-.053-9 4.5 4.5 0 0 0 .053 9Zm-.006-1a3.5 3.5 0 1 1-.041-7 3.5 3.5 0 0 1 .041 7Zm53.14-4.133a8.5 8.5 0 0 0 1.507-.933l.277-.223-.645-.765a7.515 7.515 0 0 1-1.239.848l-.334.172.434.9Zm-4.114.843.495-.003c.409-.003.814-.035 1.214-.096l.397-.07-.197-.98c-.349.07-.703.115-1.062.135l-.36.011-.493.003.006 1Zm-4 .024 2-.012-.006-1-2 .012.006 1Zm-4 .024 2-.012-.006-1-2 .012.006 1Zm-4 .023 2-.012-.006-1-2 .012.006 1Zm-4 .024 2-.012-.006-1-2 .012.006 1Zm-4 .024 2-.012-.006-1-2 .012.006 1Zm-4 .023 2-.012-.006-1-2 .012.006 1Zm-4 .024 2-.012-.006-1-2 .012.006 1Zm-4 .023 2-.011-.006-1-2 .011.006 1Zm-4 .024 2-.012-.006-1-2 .012.006 1Zm-4 .024 2-.012-.006-1-2 .012.006 1Zm-4 .023 2-.011-.006-1-2 .011.006 1ZM597.645 224.988v-1h-2v1h2Zm-4 0v-1h-2v1h2Zm-4 0v-1h-2v1h2Zm-4 0v-1h-2v1h2Zm-5.805.379a7.454 7.454 0 0 1 1.463-.326l.376-.035-.068-.998c-.596.041-1.18.144-1.748.306l-.338.104.315.949Zm-3.165 2.049c.34-.37.716-.705 1.121-1l.31-.213-.547-.837a8.538 8.538 0 0 0-1.375 1.117l-.245.256.736.677Zm-1.766 3.305c.118-.49.285-.964.498-1.417l.168-.335-.883-.47a8.448 8.448 0 0 0-.664 1.642l-.09.345.971.235Zm-.209 3.835v-2h-1v2h1Zm0 4v-2h-1v2h1Zm0 4v-2h-1v2h1Zm0 4v-2h-1v2h1Zm0 4v-2h-1v2h1Zm0 4v-2h-1v2h1Zm0 4v-2h-1v2h1Zm0 4v-2h-1v2h1Zm0 4v-2h-1v2h1Zm0 4v-2h-1v2h1Zm0 4v-2h-1v2h1Zm0 4v-2h-1v2h1Zm0 4v-2h-1v2h1Zm0 4v-2h-1v2h1Zm0 4v-2h-1v2h1Zm0 4v-2h-1v2h1Zm0 4v-2h-1v2h1Zm0 4v-2h-1v2h1Zm0 4v-2h-1v2h1Zm0 4v-2h-1v2h1Zm0 4v-2h-1v2h1Zm0 4v-2h-1v2h1Zm0 4v-2h-1v2h1Zm0 4v-2h-1v2h1Zm0 4v-2h-1v2h1Zm-.095 4.07c.047-.314.077-.632.089-.953l.006-.322v-.795h-1v.795c0 .253-.013.505-.037.754l-.047.373.989.149Zm-1.658 3.896c.36-.47.67-.976.926-1.51l.147-.324-.92-.393c-.197.462-.44.902-.725 1.314l-.222.304.794.609ZM553.337 346a4.5 4.5 0 0 0 4.425-4.051l1.728-.02-.011-1-1.728.02a4.5 4.5 0 1 0-4.415 5.05Zm-.012-1a3.5 3.5 0 1 1-.08-7 3.5 3.5 0 0 1 .08 7Zm16.278-3.858a8.487 8.487 0 0 0 1.54-.876l.285-.213-.615-.788c-.396.31-.821.578-1.27.801l-.34.16.4.916Zm-4.113.718.829-.01c.319-.004.635-.026.949-.066l.312-.045-.161-.987c-.244.04-.49.068-.74.084l-.373.014-.828.01.012 1Zm-4 .046 2-.023-.012-1-2 .023.012 1Z" fill="#53B9C9" fill-rule="nonzero"/><path d="M528.815 126.387a4.664 4.664 0 0 0-1.02-1.485 4.76 4.76 0 0 0-3.343-1.36 4.79 4.79 0 0 0-3.01 1.06 4.79 4.79 0 0 0-3.008-1.06 4.76 4.76 0 0 0-3.343 1.36 4.636 4.636 0 0 0-1.397 3.313c0 .597.122 1.22.364 1.853.203.53.494 1.078.865 1.632.588.877 1.397 1.792 2.402 2.72a26.848 26.848 0 0 0 3.382 2.642l.426.272c.188.12.43.12.618 0l.426-.272a27.195 27.195 0 0 0 3.382-2.643c1.005-.927 1.814-1.842 2.402-2.719a8.204 8.204 0 0 0 .865-1.632 5.19 5.19 0 0 0 .364-1.853 4.567 4.567 0 0 0-.375-1.828Z" fill="#D44A6F" fill-rule="nonzero"/><rect stroke="#FFF" x="193.38" y="79.929" width="87" height="100.026" rx="9"/><path d="M281 134.5a4.5 4.5 0 1 1 4.473-5H298.7c6.8 0 12.333 5.43 12.496 12.192l.004.308v109c0 6.254 4.992 11.341 11.208 11.496l.292.004h25.327a4.5 4.5 0 1 1 0 1H322.7c-6.8 0-12.333-5.43-12.496-12.192L310.2 251V142c0-6.254-4.992-11.341-11.208-11.496l-.292-.004h-13.228a4.5 4.5 0 0 1-4.472 4Zm71.5 125a3.5 3.5 0 1 0 0 7 3.5 3.5 0 0 0 0-7Zm-71.5-133a3.5 3.5 0 1 0 0 7 3.5 3.5 0 0 0 0-7Z" fill="#FFF" fill-rule="nonzero"/><path stroke="#53B9C9" stroke-dasharray="2" d="M161 101v111M150 223H92c-8.837 0-16-7.163-16-16v-30"/><path d="M442.23 373.08h16.5v16.5h-16.5z"/><path d="M457.1 384.39h-9.595l.482-.98 8.005-.015a.56.56 0 0 0 .55-.461l1.11-6.205a.56.56 0 0 0-.55-.66l-10.184-.033-.087-.41a.572.572 0 0 0-.557-.45h-2.49a.569.569 0 1 0 0 1.137h2.029l.38 1.808.936 4.533-1.205 1.967a.563.563 0 0 0-.048.593.567.567 0 0 0 .507.313h1.012a1.655 1.655 0 0 0 1.321 2.647 1.655 1.655 0 0 0 1.322-2.647h2.596a1.655 1.655 0 0 0 1.321 2.647 1.655 1.655 0 0 0 1.321-2.647h1.826a.57.57 0 0 0 .569-.57.57.57 0 0 0-.57-.566Zm-9.945-7.233 9.278.03-.909 5.09-7.288.012-1.08-5.132Zm1.562 9.873a.51.51 0 0 1 0-1.018.51.51 0 0 1 0 1.018Zm5.238 0a.51.51 0 0 1 0-1.018.51.51 0 0 1 0 1.018Z" fill="#000" fill-rule="nonzero"/><path d="M673.84 46.127h16.5v16.5h-16.5z"/><path d="M688.712 57.437h-9.596l.482-.98 8.005-.015a.56.56 0 0 0 .551-.461l1.109-6.205a.56.56 0 0 0-.55-.66l-10.183-.033-.087-.41a.572.572 0 0 0-.558-.45h-2.49a.569.569 0 1 0 0 1.137h2.03l.38 1.808.936 4.532-1.206 1.968a.563.563 0 0 0-.048.593.567.567 0 0 0 .508.312h1.012a1.655 1.655 0 0 0 1.321 2.647 1.655 1.655 0 0 0 1.321-2.647h2.596a1.655 1.655 0 0 0 1.321 2.647 1.655 1.655 0 0 0 1.322-2.647h1.825a.57.57 0 0 0 .569-.568.57.57 0 0 0-.57-.568Zm-9.946-7.233 9.278.03-.908 5.09-7.288.012-1.082-5.132Zm1.562 9.873a.51.51 0 0 1 0-1.019.51.51 0 0 1 0 1.019Zm5.238 0a.51.51 0 0 1 0-1.019.51.51 0 0 1 0 1.019Z" fill="#000" fill-rule="nonzero"/><rect fill="#FFF" x="594.645" y="207.136" width="21.639" height="21.639" rx="4"/><text font-family="Montserrat-Regular, Montserrat" font-size="13" fill="#53B9C9">
            <tspan x="600.973" y="222.139">B</tspan>
        </text></g></svg>