<?xml version="1.0" encoding="UTF-8"?>
<svg width="767px" height="467px" viewBox="0 0 767 467" version="1.1" xmlns="http://www.w3.org/2000/svg" xmlns:xlink="http://www.w3.org/1999/xlink">
    <title>illustration/Getting started with tagging in your store</title>
    <defs>
        <rect id="path-1" x="0" y="0" width="204" height="299" rx="10"></rect>
        <rect id="path-3" x="0" y="0" width="204" height="299" rx="10"></rect>
        <rect id="path-5" x="0" y="0" width="204" height="299" rx="10"></rect>
        <rect id="path-7" x="0" y="0" width="204" height="299" rx="10"></rect>
        <rect id="path-9" x="0" y="0" width="204" height="299" rx="10"></rect>
        <rect id="path-11" x="0" y="0" width="204" height="299" rx="10"></rect>
        <path d="M22,2.0004508 C22,3.10021187 21.0998549,4.00036064 20.0000984,4.00036064 C19.8199611,4.00036064 19.650102,3.98034531 19.4899801,3.93057747 L15.9299712,7.48032277 C15.9797389,7.64044539 15.9997541,7.82004237 15.9997541,8.00018032 C15.9997541,9.0999414 15.099609,10.0000902 13.9998525,10.0000902 C12.9000959,10.0000902 11.9999508,9.0999414 11.9999508,8.00018032 C11.9999508,7.82004237 12.0199661,7.64044539 12.0697337,7.48032277 L9.5196833,4.93026191 C9.35956134,4.98002975 9.17996508,5.00004508 8.99982788,5.00004508 C8.81969067,5.00004508 8.64009442,4.98002975 8.47997246,4.93026191 L3.93002041,9.4899698 C3.97978804,9.65009241 3.99980329,9.81995222 3.99980329,10.0000902 C3.99980329,11.0998512 3.09965822,12 1.99990164,12 C0.900145074,12 0,11.0998512 0,10.0000902 C0,8.90032908 0.900145074,8.00018032 1.99990164,8.00018032 C2.18003885,8.00018032 2.34989796,8.02019565 2.51001992,8.06996349 L7.06970912,3.51999279 C7.01994148,3.35987017 6.99992623,3.18027318 6.99992623,3.00013524 C6.99992623,1.90037416 7.90007131,1.0002254 8.99982788,1.0002254 C10.0995845,1.0002254 10.9997295,1.90037416 10.9997295,3.00013524 C10.9997295,3.18027318 10.9797143,3.35987017 10.9299466,3.51999279 L13.479997,6.07005364 C13.640119,6.0202858 13.8197153,6.00027048 13.9998525,6.00027048 C14.1799897,6.00027048 14.3595859,6.0202858 14.5197079,6.07005364 L18.0694386,2.5100302 C18.019671,2.34990759 17.9996558,2.18004778 17.9996558,1.99990984 C17.9996558,0.900148763 18.8998008,0 19.9995574,0 C21.099314,0 21.999459,0.900148763 21.999459,1.99990984 L22,2.0004508 Z" id="path-13"></path>
    </defs>
    <g id="illustration/Getting-started-with-tagging-in-your-store" stroke="none" stroke-width="1" fill="none" fill-rule="evenodd">
        <rect fill="#FFFFFF" x="0" y="0" width="767" height="467"></rect>
        <rect id="Rectangle-Copy-18" fill="#1E3D49" x="13" y="11" width="742" height="448"></rect>
        <g id="Group-24" transform="translate(54.000000, 38.000000)">
            <g id="Group-23" transform="translate(0.000000, 11.000000)">
                <g id="Group-2">
                    <g id="Group-16">
                        <g id="Group-71" transform="translate(0.000000, 22.000000)">
                            <mask id="mask-2" fill="white">
                                <use xlink:href="#path-1"></use>
                            </mask>
                            <use id="Mask" fill="#80C0A1" xlink:href="#path-1"></use>
                        </g>
                        <g id="Group-13">
                            <g id="Group-71" transform="translate(0.000000, 22.000000)">
                                <mask id="mask-4" fill="white">
                                    <use xlink:href="#path-3"></use>
                                </mask>
                                <use id="Mask" fill-opacity="0.601717862" fill="#FFFFFF" xlink:href="#path-3"></use>
                            </g>
                            <g id="Group-66-Copy-2" transform="translate(79.000000, 0.000000)">
                                <circle id="Oval" fill="#80C0A1" cx="22" cy="22" r="22"></circle>
                                <path d="M20.7185185,27.2713805 C24.3364485,27.2713805 27.2693603,24.3384687 27.2693603,20.7205387 C27.2693603,17.1026087 24.3364485,14.169697 20.7185185,14.169697 C17.1005885,14.169697 14.1676768,17.1026087 14.1676768,20.7205387 C14.1676768,24.3384687 17.1005885,27.2713805 20.7185185,27.2713805 Z M28.9070707,28.9090909 L25.3450505,25.3470707" id="Combined-Shape-Copy-3" stroke="#FFFFFF" stroke-width="2.02666667" stroke-linecap="round" stroke-linejoin="round"></path>
                            </g>
                            <g id="Group-12" transform="translate(36.000000, 74.000000)">
                                <g id="Group-7">
                                    <rect id="Rectangle" stroke="#A6B0B5" stroke-width="0.75" fill="#FFFFFF" x="0.375" y="0.375" width="131.25" height="29.25" rx="6"></rect>
                                    <g id="Group-55" transform="translate(8.000000, 10.000000)">
                                        <g id="Group-45">
                                            <rect id="Rectangle" fill="#1E3D49" x="16.9173554" y="0" width="98.0826446" height="10" rx="5"></rect>
                                            <line x1="0" y1="4.87121496" x2="9.12396694" y2="4.87121496" id="Path-41" stroke="#1E3D49" stroke-width="1.13798874" stroke-linecap="round" stroke-linejoin="round"></line>
                                        </g>
                                        <polyline id="Path-42" stroke="#1E3D49" stroke-width="1.13798874" stroke-linecap="round" stroke-linejoin="round" points="5.70247934 1.53788163 9.12396694 4.87121496 5.70247934 8.2045483"></polyline>
                                    </g>
                                </g>
                                <g id="Group-8" transform="translate(0.000000, 46.000000)">
                                    <rect id="Rectangle-Copy-3" stroke="#A6B0B5" stroke-width="0.75" fill="#FFFFFF" x="0.375" y="0.375" width="131.25" height="29.25" rx="6"></rect>
                                    <g id="Group-58" transform="translate(8.000000, 10.000000)">
                                        <rect id="Rectangle" fill="#1E3D49" x="16.9173554" y="0" width="98.0826446" height="10" rx="5"></rect>
                                        <polyline id="Path-30" stroke="#1E3D49" stroke-width="1.70698311" stroke-linecap="round" stroke-linejoin="round" points="9.12396694 2.64899274 3.4214876 8.2045483 0 4.87121496"></polyline>
                                    </g>
                                </g>
                                <g id="Group-9" transform="translate(0.000000, 92.000000)">
                                    <rect id="Rectangle-Copy-4" stroke="#A6B0B5" stroke-width="0.75" fill="#FFFFFF" x="0.375" y="0.375" width="131.25" height="29.25" rx="6"></rect>
                                    <g id="Group-63" transform="translate(8.000000, 10.000000)" fill="#1E3D49">
                                        <rect id="Rectangle" x="17.3477478" y="0" width="97.6522522" height="10" rx="5"></rect>
                                        <path d="M10.0553892,2.22222222 L10.0553892,6.61081336 C10.0553892,6.92695492 9.79348244,7.18323829 9.47040404,7.18323829 C9.17424885,7.18323829 8.9294948,6.96788907 8.89075909,6.68848804 L8.88541887,6.61081336 L8.884,4.17122222 L5.6785136,7.30873182 C5.47083094,7.51195531 5.1458415,7.53043017 4.91683034,7.36415641 L4.85121962,7.30873182 L3.70490613,6.18729025 L0.998632166,8.8351983 C0.790949509,9.03842179 0.46596007,9.05689666 0.236948908,8.89062289 L0.171338192,8.8351983 C-0.036344465,8.63197481 -0.0552247065,8.31396324 0.114697467,8.08986918 L0.171338192,8.0256672 L3.29125915,4.97273423 C3.4989418,4.76951074 3.82393124,4.75103588 4.05294241,4.91730964 L4.11855312,4.97273423 L5.26486661,6.0941758 L8.052,3.36622222 L5.57050285,3.36707209 C5.27434766,3.36707209 5.02959361,3.15172286 4.9908579,2.87232183 L4.98551767,2.79464715 C4.98551767,2.50485072 5.20559212,2.2653518 5.49112383,2.22744779 L5.57050285,2.22222222 L10.0553892,2.22222222 Z" id="Combined-Shape" fill-rule="nonzero"></path>
                                    </g>
                                </g>
                                <g id="Group-10" transform="translate(0.000000, 138.000000)">
                                    <rect id="Rectangle-Copy-5" stroke="#A6B0B5" stroke-width="0.75" fill="#FFFFFF" x="0.375" y="0.375" width="131.25" height="29.25" rx="6"></rect>
                                    <g id="Group-64" transform="translate(8.000000, 10.000000)">
                                        <rect id="Rectangle" fill="#1E3D49" x="27.3001955" y="0" width="87.6998045" height="10" rx="5"></rect>
                                        <path d="M3.63372118,8.38973348 C5.64056997,8.38973348 7.26744235,6.73152885 7.26744235,4.68602978 C7.26744235,2.64053071 5.64056997,0.982326075 3.63372118,0.982326075 C1.62687239,0.982326075 0,2.64053071 0,4.68602978 C0,6.73152885 1.62687239,8.38973348 3.63372118,8.38973348 Z M8.17587265,9.31565941 L6.20003676,7.30177052" id="Combined-Shape" stroke="#1E3D49" stroke-width="1.13798874" stroke-linecap="round" stroke-linejoin="round"></path>
                                        <rect id="Rectangle" fill="#D7DDDF" x="18.5177539" y="0" width="22.4275066" height="10" rx="5"></rect>
                                    </g>
                                </g>
                                <g id="Group-66" transform="translate(0.000000, 184.000000)">
                                    <rect id="Rectangle-Copy" stroke="#A6B0B5" stroke-width="0.64657604" fill="#FFFFFF" x="0.314246094" y="0.236593234" width="57.7433498" height="21.5268135" rx="10.7634068"></rect>
                                    <rect id="Rectangle-Copy-2" stroke="#A6B0B5" stroke-width="0.64657604" fill="#FFFFFF" x="63.8134202" y="0.236593234" width="65.8735927" height="21.5268135" rx="10.7634068"></rect>
                                    <g id="Group" transform="translate(6.546683, 5.833360)" stroke="#1E3D49" stroke-linecap="round" stroke-linejoin="round" stroke-opacity="0.5" stroke-width="1.63462504">
                                        <g id="Icon/Search" transform="translate(4.804234, 4.804234) rotate(-45.000000) translate(-4.804234, -4.804234) ">
                                            <path d="M1.60141147,8.00705735 L8.00705735,1.60141147 M8.00705735,8.00705735 L1.60141147,1.60141147" id="Combined-Shape"></path>
                                        </g>
                                    </g>
                                    <g id="Group" transform="translate(70.110400, 5.833360)" stroke="#1E3D49" stroke-linecap="round" stroke-linejoin="round" stroke-opacity="0.5" stroke-width="1.63462504">
                                        <g id="Icon/Search" transform="translate(4.804234, 4.804234) rotate(-45.000000) translate(-4.804234, -4.804234) ">
                                            <path d="M1.60141147,8.00705735 L8.00705735,1.60141147 M8.00705735,8.00705735 L1.60141147,1.60141147" id="Combined-Shape"></path>
                                        </g>
                                    </g>
                                    <rect id="Rectangle" fill="#1E3D49" x="21.2111189" y="5.9395004" width="28.3548519" height="10.1209992" rx="5.0604996"></rect>
                                    <rect id="Rectangle" fill="#1E3D49" x="84.7141727" y="5.9395004" width="35.4435649" height="10.1209992" rx="5.0604996"></rect>
                                </g>
                            </g>
                        </g>
                    </g>
                    <g id="Group-17" transform="translate(228.000000, 0.000000)">
                        <g id="Origins" transform="translate(0.000000, 22.000000)">
                            <mask id="mask-6" fill="white">
                                <use xlink:href="#path-5"></use>
                            </mask>
                            <use id="Mask" fill="#D44A6F" xlink:href="#path-5"></use>
                        </g>
                        <g id="Group-14">
                            <g id="Origins" transform="translate(0.000000, 22.000000)">
                                <mask id="mask-8" fill="white">
                                    <use xlink:href="#path-7"></use>
                                </mask>
                                <use id="Mask" fill-opacity="0.6" fill="#FFFFFF" xlink:href="#path-7"></use>
                            </g>
                            <g id="Group-3" transform="translate(80.000000, 0.000000)">
                                <circle id="Oval" fill="#D44A6F" cx="22" cy="22" r="22"></circle>
                                <g id="interactive" transform="translate(14.000000, 9.000000)" fill="#FFFFFF">
                                    <path d="M6.53698274,4.36262138e-13 L8.55680145,4.36262138e-13 L6.53698274,4.36262138e-13 Z M5.45454545,6.99515617 C6.20763636,6.99515617 6.81818182,7.604247 6.81818182,8.35554367 L6.81818182,8.35554367 L6.81818182,14.4772875 C6.81818182,13.7259908 7.42872727,13.1168999 8.18181818,13.1168999 C8.93490909,13.1168999 9.54545455,13.7259908 9.54545455,14.4772875 C9.54545455,13.7259908 10.156,13.1168999 10.9090909,13.1168999 C11.6621818,13.1168999 12.2727273,13.7259908 12.2727273,14.4772875 C12.2727273,13.7259908 12.8832727,13.1168999 13.6363636,13.1168999 C14.3894545,13.1168999 15,13.7259908 15,14.4772875 L15,14.4772875 L15,21.9594187 C15,23.0864091 14.0842273,24 12.9545455,24 L12.9545455,24 L5.35504545,24 C4.58031818,24 3.87204545,23.5633156 3.52559091,22.872012 L3.52559091,22.872012 L0.530727273,16.2163615 C0.227545455,15.6114425 0.423318182,14.8759717 0.987409091,14.5008222 C1.581,14.1060377 2.38036364,14.2425753 2.72727273,14.8119881 L2.72727273,14.8119881 L4.00977273,16.5178687 L4.09090909,16.5178687 L4.09090909,8.35554367 C4.09090909,7.604247 4.70145455,6.99515617 5.45454545,6.99515617 Z M5.45454545,0.873412388 C8.46218182,0.873412388 10.9090909,3.31449173 10.9090909,6.31496241 C10.9090909,7.51083372 10.5274545,8.64566898 9.80559091,9.59680658 C9.36577273,10.1761956 8.80922727,10.6628969 8.18181818,11.025803 L8.18181818,11.025803 L8.18181818,9.35175545 C9.02622727,8.59193368 9.54545455,7.49319403 9.54545455,6.31496241 C9.54545455,4.0646094 7.71027273,2.23379989 5.45454545,2.23379989 C3.19881818,2.23379989 1.36363636,4.0646094 1.36363636,6.31496241 C1.36363636,7.49319403 1.88286364,8.59193368 2.72727273,9.35175545 L2.72727273,9.35175545 L2.72727273,11.025803 C2.09986364,10.6628969 1.54331818,10.1761503 1.1035,9.59680658 C0.381590909,8.64566898 0,7.51083372 0,6.31496241 C0,3.31449173 2.44690909,0.873412388 5.45454545,0.873412388 Z M5.45468182,3.5941874 C6.18095455,3.5941874 6.86372727,3.87533415 7.37868182,4.38679451 C7.89659091,4.90115702 8.18181818,5.58593075 8.18181818,6.31496241 C8.18181818,6.67102117 8.11268182,7.01687702 7.98281818,7.33693086 C7.74754545,6.75794993 7.31840909,6.2775971 6.77577273,5.97645266 C6.71577273,5.74155908 6.59336364,5.52634578 6.41668182,5.35085579 C6.15922727,5.09519363 5.81772727,4.95457491 5.45459091,4.95457491 L5.45459091,4.95457491 C4.82895455,4.95738638 4.28836364,5.39565788 4.13481818,5.97563642 C3.59286364,6.27591929 3.164,6.75500243 2.92813636,7.33244158 C2.78118182,6.96976227 2.71077273,6.57561266 2.73081818,6.1760215 C2.80313636,4.73473629 3.99418182,3.60067191 5.44222727,3.5941874 L5.44222727,3.5941874 Z" id="Combined-Shape"></path>
                                </g>
                            </g>
                            <g id="Group-21" transform="translate(37.000000, 77.181818)">
                                <g id="Group-11">
                                    <g id="Group-38">
                                        <rect id="Rectangle" stroke="#A6B0B5" stroke-width="0.75" fill="#FFFFFF" x="0.375" y="0.375" width="129.25" height="22.8863636" rx="11.4431818"></rect>
                                        <path d="M116.444444,15.568988 C118.765156,15.568988 120.646465,13.6876794 120.646465,11.3669678 C120.646465,9.04625608 118.765156,7.16494755 116.444444,7.16494755 C114.123733,7.16494755 112.242424,9.04625608 112.242424,11.3669678 C112.242424,13.6876794 114.123733,15.568988 116.444444,15.568988 Z M121.69697,16.619493 L119.412121,14.3346445" id="Combined-Shape-Copy-3" stroke-opacity="0.5" stroke="#1E3D49" stroke-width="1.3" stroke-linecap="round" stroke-linejoin="round"></path>
                                        <rect id="Rectangle" fill="#1E3D49" x="10.4947917" y="7.15375874" width="69.875" height="9.47692308" rx="4.72727273"></rect>
                                    </g>
                                    <g id="Group-6" transform="translate(50.000000, 131.636364)">
                                        <circle id="Oval" fill="#243C47" cx="15" cy="15" r="15"></circle>
                                        <g id="diagram/icons/iheart" transform="translate(8.741294, 11.137645)" fill="#FFFFFF" fill-rule="nonzero">
                                            <path d="M1.56941954,8.8358209 L10.9479689,8.8358209 C11.8133574,8.8358209 12.5174129,8.14813134 12.5174129,7.30282985 C12.5174129,7.13265672 12.5174129,1.91794627 12.5174129,1.53301493 C12.5174129,0.687689552 11.8133574,0 10.9479934,0 L1.56941954,0 C0.704055581,0 0,0.687689552 0,1.53299104 L0,7.30280597 C0,8.14813134 0.704055581,8.8358209 1.56941954,8.8358209 Z M10.9479934,8.11940299 L1.56941954,8.11940299 C1.10847559,8.11940299 0.733442164,7.75309851 0.733442164,7.30282985 L0.733442164,5.01492537 L11.7839708,5.01492537 L11.7839708,7.30282985 C11.7839708,7.75309851 11.4089373,8.11940299 10.9479934,8.11940299 Z M0.733442164,3.58208955 L11.7839708,3.58208955 L11.7839708,4.29850746 L0.733442164,4.29850746 L0.733442164,3.58208955 Z M1.56941954,0.71641791 L10.9479689,0.71641791 C11.4089373,0.71641791 11.7839708,1.08272239 11.7839708,1.53299104 L11.7839708,2.86567164 L0.733442164,2.86567164 L0.733442164,1.53299104 C0.733442164,1.08272239 1.10847559,0.71641791 1.56941954,0.71641791 Z" id="Shape"></path>
                                            <path d="M2.68839426,2.20895522 L4.4690538,2.20895522 C4.635161,2.20895522 4.76982733,2.04411808 4.76982733,1.84079602 C4.76982733,1.63747396 4.635161,1.47263682 4.4690538,1.47263682 L2.68839426,1.47263682 C2.52228706,1.47263682 2.38762072,1.63747396 2.38762072,1.84079602 C2.38762072,2.04411808 2.52228706,2.20895522 2.68839426,2.20895522 Z" id="Path"></path>
                                            <path d="M9.83353565,5.89054726 L2.68387728,5.89054726 C2.52026466,5.89054726 2.38762072,6.05538441 2.38762072,6.25870647 C2.38762072,6.46202852 2.52026466,6.62686567 2.68387728,6.62686567 L9.83353565,6.62686567 C9.99714828,6.62686567 10.1297922,6.46202852 10.1297922,6.25870647 C10.1297922,6.05538441 9.99714828,5.89054726 9.83353565,5.89054726 Z" id="Path"></path>
                                        </g>
                                    </g>
                                </g>
                                <g id="diagram/iconsPlusText" transform="translate(50.000000, 39.636364)">
                                    <circle id="Oval" fill="#243C47" cx="15" cy="15" r="15"></circle>
                                    <g id="Group-5" transform="translate(0.000000, 46.000000)">
                                        <circle id="Oval-Copy-3" fill="#243C47" cx="15" cy="15" r="15"></circle>
                                        <g id="diagram/icons/iheart" transform="translate(7.925373, 9.109453)" fill="#FFFFFF" fill-rule="nonzero">
                                            <g id="Group" transform="translate(0.000000, 0.000000)">
                                                <path d="M10.6029851,8.41506752 C9.62855347,8.41506752 8.8358209,9.17007729 8.8358209,10.098081 C8.8358209,11.0260848 9.62858115,11.7810945 10.6029851,11.7810945 C11.577389,11.7810945 12.3701493,11.0260848 12.3701493,10.098081 C12.3701493,9.17007729 11.577389,8.41506752 10.6029851,8.41506752 Z M10.6029851,10.7712864 C10.2131515,10.7712864 9.8961194,10.4693511 9.8961194,10.098081 C9.8961194,9.72681099 10.2131515,9.42487562 10.6029851,9.42487562 C10.9928186,9.42487562 11.3098507,9.72681099 11.3098507,10.098081 C11.3098507,10.4693511 10.9928186,10.7712864 10.6029851,10.7712864 Z" id="Shape"></path>
                                                <path d="M13.1483775,2.27534461 C13.0545135,2.16320832 12.9105595,2.09780153 12.7580371,2.09780153 L3.06028461,2.09780153 L2.61408155,0.35523114 C2.56070389,0.147002194 2.36122366,0 2.13184469,0 L0.495775427,0 C0.221949588,0 0,0.207141652 0,0.462728307 C0,0.718314962 0.221949588,0.925480775 0.495775427,0.925480775 L1.7405207,0.925480775 L3.35179083,7.21832963 C3.40516849,7.42672771 3.60464872,7.57356077 3.8340277,7.57356077 L11.5516555,7.57356077 C11.7795589,7.57356077 11.9781849,7.42856403 12.0328827,7.2221714 L13.2392903,2.67174796 C13.2757901,2.53356493 13.2422414,2.3874809 13.1483775,2.27534461 Z M11.1637743,6.64807999 L4.22535169,6.64807999 L3.29724829,3.02330646 L12.1245722,3.02330646 L11.1637743,6.64807999 Z" id="Shape"></path>
                                                <path d="M4.41791045,8.41506752 C3.44347885,8.41506752 2.65074627,9.17007729 2.65074627,10.098081 C2.65074627,11.0260848 3.44350653,11.7810945 4.41791045,11.7810945 C5.39231437,11.7810945 6.18507463,11.0260848 6.18507463,10.098081 C6.18507463,9.17007729 5.39231437,8.41506752 4.41791045,8.41506752 Z M4.41791045,10.7712864 C4.02807691,10.7712864 3.71104478,10.4693511 3.71104478,10.098081 C3.71104478,9.72681099 4.02807691,9.42487562 4.41791045,9.42487562 C4.80774399,9.42487562 5.12477612,9.72681099 5.12477612,10.098081 C5.12477612,10.4693511 4.80774399,10.7712864 4.41791045,10.7712864 Z" id="Shape"></path>
                                            </g>
                                        </g>
                                    </g>
                                    <g id="diagram/icons/iheart" transform="translate(8.000000, 7.000000)" fill="#FFFFFF" fill-rule="nonzero">
                                        <g id="click">
                                            <path d="M13.8752006,11.465407 L11.4183898,9.00860089 L12.6233086,7.80371284 C12.7277063,7.69931534 12.7706184,7.54831383 12.7366806,7.40461107 C12.7027428,7.2609083 12.5968683,7.1450373 12.4568005,7.0983481 L5.22740164,4.6885436 C5.07435507,4.63750924 4.90554659,4.6773541 4.79146456,4.79146432 C4.67735412,4.90557454 4.63750919,5.07432589 4.68854365,5.22740057 L7.09835272,12.4568141 C7.14507041,12.5968817 7.26094164,12.7027843 7.40461627,12.7366937 C7.54829091,12.7706882 7.6993211,12.7277477 7.8037188,12.6233218 L9.00863754,11.4184338 L11.4654483,13.8752115 C11.5486314,13.9583944 11.6576582,14 11.7666567,14 C11.8756552,14 11.9847104,13.9584228 12.0678651,13.8752115 L13.875229,12.067851 C14.0415951,11.9014852 14.0415951,11.6317727 13.8752006,11.465407 Z M11.7666283,12.9715312 L9.30981753,10.5147535 C9.14347984,10.3483878 8.87371005,10.3483878 8.70737236,10.5147535 L7.68864277,11.5334812 L5.76623124,5.76625754 L11.5334659,7.68866543 L10.5147363,8.70739307 C10.3485122,8.87358845 10.3483702,9.14349973 10.5147363,9.3098371 L12.971547,11.7666432 L11.7666283,12.9715312 Z" id="Shape"></path>
                                            <path d="M5.13333333,2.8 C5.39105778,2.8 5.6,2.64329333 5.6,2.45 L5.6,0.35 C5.6,0.156706667 5.39105778,0 5.13333333,0 C4.87560889,0 4.66666667,0.156706667 4.66666667,0.35 L4.66666667,2.45 C4.66666667,2.64329333 4.87560889,2.8 5.13333333,2.8 Z" id="Path"></path>
                                            <path d="M1.79234586,1.15804001 C1.61721131,0.982875552 1.33320447,0.982875552 1.15804001,1.15804001 C0.982875552,1.33320447 0.982875552,1.6171814 1.15804001,1.79234586 L3.06098747,3.69529332 C3.23612203,3.87045778 3.52015876,3.87045778 3.69529332,3.69529332 C3.87045778,3.52012886 3.87045778,3.23615193 3.69529332,3.06098747 L1.79234586,1.15804001 Z" id="Path"></path>
                                            <path d="M3.06098747,7.50470668 L1.15804001,9.40765414 C0.982875552,9.5828186 0.982875552,9.86679553 1.15804001,10.04196 C1.33317457,10.2171244 1.61721131,10.2171244 1.79234586,10.04196 L3.69529332,8.13901253 C3.87045778,7.96384807 3.87045778,7.67987114 3.69529332,7.50470668 C3.52012886,7.32954222 3.23612203,7.32954222 3.06098747,7.50470668 Z" id="Path"></path>
                                            <path d="M8.13901253,3.69529332 L10.04196,1.79234586 C10.2171244,1.6171814 10.2171244,1.33320447 10.04196,1.15804001 C9.86682543,0.982875552 9.5828186,0.982875552 9.40765414,1.15804001 L7.50470668,3.06098747 C7.32954222,3.23615193 7.32954222,3.52012886 7.50470668,3.69529332 C7.67984124,3.87045778 7.96387797,3.87045778 8.13901253,3.69529332 Z" id="Path"></path>
                                            <path d="M2.8,5.13333333 C2.8,4.87560889 2.64329333,4.66666667 2.45,4.66666667 L0.35,4.66666667 C0.156706667,4.66666667 0,4.87560889 0,5.13333333 C0,5.39105778 0.156706667,5.6 0.35,5.6 L2.45,5.6 C2.64329333,5.6 2.8,5.39105778 2.8,5.13333333 Z" id="Path"></path>
                                        </g>
                                    </g>
                                </g>
                            </g>
                        </g>
                    </g>
                    <g id="Group-25" transform="translate(456.000000, 0.000000)">
                        <g id="Group-18">
                            <g id="Group-52" transform="translate(0.000000, 22.000000)">
                                <mask id="mask-10" fill="white">
                                    <use xlink:href="#path-9"></use>
                                </mask>
                                <use id="Mask" fill="#0086B2" xlink:href="#path-9"></use>
                            </g>
                            <g id="Group-15">
                                <g id="Group-52" transform="translate(0.000000, 22.000000)">
                                    <mask id="mask-12" fill="white">
                                        <use xlink:href="#path-11"></use>
                                    </mask>
                                    <use id="Mask" fill-opacity="0.6" fill="#FFFFFF" xlink:href="#path-11"></use>
                                </g>
                                <g id="Group-4" transform="translate(77.000000, 0.000000)">
                                    <g id="Group-3-Copy" fill="#0086B2">
                                        <circle id="Oval" cx="22" cy="22" r="22"></circle>
                                    </g>
                                    <g id="01_icon/menu/insight" transform="translate(11.000000, 17.000000)">
                                        <mask id="mask-14" fill="white">
                                            <use xlink:href="#path-13"></use>
                                        </mask>
                                        <use id="Mask" fill="#FFFFFF" fill-rule="nonzero" xlink:href="#path-13"></use>
                                        <g id="Group" mask="url(#mask-14)">
                                            <g transform="translate(-2.000000, -7.000000)" id="00_colores/anaranjado">
                                                <rect id="Rectangle" fill="#FFFFFF" x="0" y="0" width="26" height="26"></rect>
                                            </g>
                                        </g>
                                    </g>
                                </g>
                            </g>
                        </g>
                        <g id="Group-22" transform="translate(30.000000, 78.000000)">
                            <g id="Group-19">
                                <rect id="Rectangle" stroke="#A6B0B5" stroke-width="0.75" fill="#FFFFFF" x="0.375" y="0.375" width="142.25" height="61.25" rx="6"></rect>
                                <g id="Group-67" transform="translate(11.000000, 13.000000)">
                                    <rect id="Rectangle" fill="#E2E6E7" opacity="0.33380127" x="28.173913" y="0" width="32.6956522" height="14.7604246" rx="5.28371628"></rect>
                                    <ellipse id="Oval" fill="#243C47" cx="8.34782609" cy="19.3098861" rx="8.34782609" ry="8.2383765"></ellipse>
                                    <ellipse id="Oval" fill="#D7DDDF" cx="116.869565" cy="19.0512456" rx="3.13043478" ry="3.08939119"></ellipse>
                                    <line x1="16.6956522" y1="19.0512456" x2="113.73913" y2="19.0512456" id="Path-9" stroke="#D3D3D3" stroke-width="0.5"></line>
                                    <ellipse id="Oval" fill="#D7DDDF" cx="74.0869565" cy="19.0512456" rx="4.52173913" ry="4.46245394"></ellipse>
                                    <path d="M53.5652174,7.38021228 L36.8695652,7.38021228 C31.490792,7.38021228 27.1304348,11.7405695 27.1304348,17.1193427 L27.1304348,19.0512456 L27.1304348,19.0512456" id="Path-10" stroke="#D3D3D3" stroke-width="0.5"></path>
                                    <path d="M36.8695652,32.0953418 C31.490792,32.0953418 27.1304348,27.7349845 27.1304348,22.3562113 L27.1304348,19.0512456 L27.1304348,19.0512456" id="Path-11" stroke="#D3D3D3" stroke-width="0.5"></path>
                                    <ellipse id="Oval" fill="#243C47" cx="36.5217391" cy="7.38021228" rx="4.52173913" ry="4.46245394"></ellipse>
                                    <ellipse id="Oval" fill="#243C47" cx="53.2173913" cy="7.38021228" rx="4.52173913" ry="4.46245394"></ellipse>
                                    <ellipse id="Oval" fill="#D7DDDF" cx="36.5217391" cy="31.768773" rx="2.26086957" ry="2.23122697"></ellipse>
                                </g>
                            </g>
                            <g id="Group-20" transform="translate(0.000000, 72.000000)">
                                <rect id="Rectangle-Copy-6" stroke="#A6B0B5" stroke-width="0.75" fill="#FFFFFF" x="0.375" y="0.375" width="142.25" height="61.25" rx="6"></rect>
                                <g id="Group-73" transform="translate(13.000000, 13.000000)" fill="#243C47">
                                    <path d="M0,35 L116,35 L116,27.2952861 C116,22.1501096 111.82901,17.9791199 106.683834,17.9791199 C106.320903,17.9791199 105.958282,18.000328 105.597826,18.0426357 L100.992476,18.5831776 C97.1531649,19.0338075 93.2662574,18.8609737 89.4820942,18.0713611 L80.4523979,16.187203 C76.4413171,15.3502412 72.3165004,15.2065933 68.2569129,15.7624917 L65.9734357,16.075179 C62.3600981,16.5699703 58.84333,17.6128294 55.5443776,19.167802 L53.9021739,19.9418605 C49.5741217,21.9819029 44.7649189,22.7811007 40.0096795,22.2505281 L36.5919,21.8691844 C32.4272333,21.4045058 28.2114978,21.905511 24.2717391,23.3333333 L21.4264131,24.3645183 C19.3350758,25.1224475 17.1777799,25.6842308 14.9823955,26.0426106 L6.42656314,27.4392848 C2.72105584,28.0441805 -4.59800376e-16,31.245445 0,35 L0,35 L0,35 Z" id="Path-13" fill-opacity="0.3"></path>
                                    <path d="M0,35 L116,35 L116,12.5685264 C116,8.88884036 113.017025,5.90586542 109.337339,5.90586542 C108.004006,5.90586542 106.701341,6.30591149 105.597826,7.05426357 L103.863972,8.23008154 C98.2725313,12.0219329 91.5033298,13.6751496 84.7934783,12.8875969 L78.6784085,12.1698552 C75.8306084,11.8356015 73.0331485,11.1611494 70.3459077,10.1609352 L67.4565217,9.08548083 C63.1301718,7.47517611 58.2832389,8.15827446 54.5704595,10.901567 L53.9021739,11.3953488 C49.6749201,14.5187754 44.352586,15.7739312 39.1751875,14.8683856 L38.1279099,14.685213 C33.1554479,13.8155116 28.0572445,15.253187 24.2717391,18.5926042 C20.3941024,22.013296 15.4704781,24.0169576 10.306162,24.275875 L9.14130435,24.3342761 C4.02030439,24.5910219 -4.180643e-15,28.8179372 0,33.9453692 L0,35 L0,35 Z" id="Path-13" fill-opacity="0.3"></path>
                                    <path d="M0,35 L116,35 L116,33.7631546 C116,28.4196382 111.668224,24.0878623 106.324708,24.0878623 C106.082157,24.0878623 105.839692,24.0969831 105.597826,24.1152053 L98.9359478,24.6171147 C96.4491945,24.804468 93.9496836,24.7320271 91.4779549,24.400967 L82.4648771,23.193767 C77.2436705,22.4944453 71.9412689,23.62213 67.4565217,26.3856589 C63.3841215,28.895097 58.1248543,28.301113 54.7147319,24.9465954 L53.9021739,24.1472868 C49.9415501,20.2512441 43.9443581,19.2991908 38.9718698,21.7771032 L34.0307882,24.239365 C31.5261107,25.4875069 28.8839989,26.4383095 26.1583391,27.0723808 L24.2717391,27.5112613 C20.3634506,28.4204479 16.2751203,28.1736153 12.5046061,26.8008216 L9.14130435,25.5762885 C5.60662103,24.2893576 1.69793045,26.111521 0.410999595,29.6462044 C0.139098373,30.3930081 -9.7330227e-17,31.1816372 0,31.9763988 L0,35 L0,35 Z" id="Path-13"></path>
                                </g>
                            </g>
                            <g id="Group-26" transform="translate(0.000000, 144.000000)">
                                <g id="Group-20-Copy" fill="#FFFFFF" stroke="#A6B0B5" stroke-width="0.75">
                                    <rect id="Rectangle-Copy-6" x="0.375" y="0.375" width="142.25" height="61.25" rx="6"></rect>
                                </g>
                                <g id="Group-78" transform="translate(41.000000, 10.000000)" fill="#243C47">
                                    <ellipse id="Oval" cx="26.6997056" cy="17.4396021" rx="16.2924282" ry="16.1504852"></ellipse>
                                    <ellipse id="Oval" opacity="0.202864051" cx="46.2140992" cy="30.0236186" rx="4.54308094" ry="4.50350068"></ellipse>
                                    <ellipse id="Oval" opacity="0.202864051" cx="12.443831" cy="37.0118093" rx="7.04960836" ry="6.98819071"></ellipse>
                                    <ellipse id="Oval" opacity="0.202864051" cx="4.54308094" cy="24.7079478" rx="4.54308094" ry="4.50350068"></ellipse>
                                    <ellipse id="Oval" opacity="0.202864051" cx="48.7206266" cy="6.98819071" rx="7.04960836" ry="6.98819071"></ellipse>
                                    <ellipse id="Oval" opacity="0.202864051" cx="54.3603133" cy="19.8074013" rx="5.63968668" ry="5.59055257"></ellipse>
                                </g>
                            </g>
                        </g>
                    </g>
                </g>
                <path d="M0,310 L204,310 L204,353 C204,361.836556 196.836556,369 188,369 L16,369 C7.163444,369 -6.94190838e-16,361.836556 0,353 L0,310 L0,310 Z" id="Rectangle" fill="#80C0A1"></path>
                <path d="M228,310 L432,310 L432,353 C432,361.836556 424.836556,369 416,369 L244,369 C235.163444,369 228,361.836556 228,353 L228,310 L228,310 Z" id="Rectangle-Copy-7" fill="#D44A6F"></path>
                <path d="M456,310 L660,310 L660,353 C660,361.836556 652.836556,369 644,369 L472,369 C463.163444,369 456,361.836556 456,353 L456,310 L456,310 Z" id="Rectangle-Copy-8" fill="#0086B2"></path>
                <text id="Contextual-search-fe" font-family="Montserrat-Medium, Montserrat" font-size="16" font-weight="400" fill="#FFFFFF">
                    <tspan x="57.76" y="334">Contextual </tspan>
                    <tspan x="40" y="353">search features</tspan>
                </text>
                <text id="Interactions" font-family="Montserrat-Medium, Montserrat" font-size="16" font-weight="400" fill="#FFFFFF">
                    <tspan x="281.28" y="344">Interactions</tspan>
                </text>
                <text id="Analytics" font-family="Montserrat-Medium, Montserrat" font-size="16" font-weight="400" fill="#FFFFFF">
                    <tspan x="520.968" y="344">Analytics</tspan>
                </text>
            </g>
            <circle id="Oval" stroke="#80C0A1" cx="101" cy="32" r="31.5"></circle>
            <circle id="Oval-Copy" stroke="#D44A6F" cx="330" cy="33" r="31.5"></circle>
            <circle id="Oval-Copy-2" stroke="#0086B2" cx="555" cy="33" r="31.5"></circle>
        </g>
        <g id="Group" transform="translate(198.235407, 449.028383)" opacity="0.626521519">
            <g id="gridProduct">
                <rect id="Rectangle-Copy-13" fill="#E2E6E7" x="5.96718694e-13" y="0" width="119.131113" height="139.439637" rx="5"></rect>
                <rect id="Rectangle" fill="#FFFFFF" x="11.4982318" y="9.58552839" width="96.1346489" height="75.4331647" rx="4.26584808"></rect>
                <g id="faketitle" transform="translate(27.110353, 93.960053)" fill="#BBC3C6">
                    <rect id="Rectangle-Copy-10" x="0" y="0" width="61.5904324" height="9.50724795" rx="4.26584808"></rect>
                </g>
                <g id="fakecart" transform="translate(9.890720, 112.012525)" fill="#BBC3C6">
                    <rect id="Rectangle-Copy-10" x="0" y="0" width="96.0296984" height="17.8415833" rx="8.92079165"></rect>
                </g>
            </g>
        </g>
        <g id="Group" transform="translate(597.661709, 449.028383)" opacity="0.626521519">
            <g id="gridProduct">
                <rect id="Rectangle-Copy-13" fill="#E2E6E7" x="5.96718694e-13" y="0" width="119.131113" height="139.439637" rx="5"></rect>
                <rect id="Rectangle" fill="#FFFFFF" x="11.4982318" y="9.58552839" width="96.1346489" height="75.4331647" rx="4.26584808"></rect>
                <g id="faketitle" transform="translate(27.110353, 93.960053)" fill="#BBC3C6">
                    <rect id="Rectangle-Copy-10" x="0" y="0" width="61.5904324" height="9.50724795" rx="4.26584808"></rect>
                </g>
                <g id="fakecart" transform="translate(9.890720, 112.012525)" fill="#BBC3C6">
                    <rect id="Rectangle-Copy-10" x="0" y="0" width="96.0296984" height="17.8415833" rx="8.92079165"></rect>
                </g>
            </g>
        </g>
        <rect id="Rectangle" stroke="#000A0D" stroke-width="21.442545" x="10.807253" y="10.7787275" width="745.442545" height="445.442545" rx="7.212726"></rect>
    </g>
</svg>