<svg width="164" height="45" xmlns="http://www.w3.org/2000/svg"><g fill="none" fill-rule="evenodd"><g stroke="#1E3D49" transform="translate(.898 .642)"><circle fill="#FFF" cx="21.75" cy="21.75" r="21.25"/><circle cx="21.75" cy="16.304" r="4.946"/><rect x="12.303" y="24.185" width="18.894" height="8.424" rx="4.212"/></g><g transform="translate(60.402 .642)" stroke="#1E3D49"><circle fill="#FFF" cx="21.75" cy="21.75" r="21.25"/><path d="M21.594 31.351a9.246 9.246 0 1 0 0-18.493 9.246 9.246 0 0 0 0 18.493Zm11.558 2.312-5.027-5.028" stroke-linecap="round" stroke-linejoin="round"/></g><g transform="translate(119.906 .642)" stroke="#1E3D49"><circle fill="#FFF" cx="21.75" cy="21.75" r="21.25"/><path d="M22.257 14.332v2.875h9v2.155M31.257 22.456v2.874h4.807v2.156M31.256 22.456v2.874h-4.342v2.156"/><rect x="17.949" y="9.674" width="8.615" height="5.026" rx="2.513"/><rect x="24.415" y="27.821" width="5" height="3.342" rx="1.671"/><rect x="26.949" y="19.266" width="8.615" height="3.342" rx="1.671"/><rect x="33.561" y="27.821" width="5" height="3.342" rx="1.671"/><path d="M22.18 14.332v2.875h-8.994v2.155M13.186 22.482v2.991H8.382v2.243M13.186 22.482v2.991h4.804v2.243"/><rect transform="matrix(-1 0 0 1 36.366 0)" x="15.683" y="27.821" width="5" height="3.342" rx="1.671"/><rect transform="matrix(-1 0 0 1 26.372 0)" x="8.882" y="19.266" width="8.609" height="3.342" rx="1.671"/><rect transform="matrix(-1 0 0 1 16.763 0)" x="5.882" y="27.821" width="5" height="3.342" rx="1.671"/></g><text font-family="Montserrat-Light, Montserrat" font-size="23" font-weight="300" fill="#1E3D49" transform="translate(.898 .642)">
                    <tspan x="44.7" y="30.456">+</tspan>
                </text><text font-family="Montserrat-Light, Montserrat" font-size="23" font-weight="300" fill="#1E3D49" transform="translate(.898 .642)">
                    <tspan x="104.7" y="30.456">+</tspan>
                </text></g></svg>