<?xml version="1.0" encoding="UTF-8"?>
<svg width="155px" height="67px" viewBox="0 0 155 67" version="1.1" xmlns="http://www.w3.org/2000/svg" xmlns:xlink="http://www.w3.org/1999/xlink">
    <title>Group</title>
    <g id="Diagrams&amp;Illustrations" stroke="none" stroke-width="1" fill="none" fill-rule="evenodd">
        <g id="UI-Reference-Cards" transform="translate(-761.000000, -217.000000)">
            <g id="Group-111-Copy" transform="translate(727.000000, 190.000000)">
                <g id="Group" transform="translate(34.000000, 27.000000)">
                    <path d="M149.181818,8.01136364 C150.684911,8.01136364 152.045707,8.62061251 153.030729,9.60563468 C154.015751,10.5906568 154.625,11.9514523 154.625,13.4545455 L154.625,13.4545455 L154.625,66.2613636 L0.375,66.2613636 L0.375,13.4545455 C0.375,11.9514523 0.984248877,10.5906568 1.96927104,9.60563468 C2.95429321,8.62061251 4.31508866,8.01136364 5.81818182,8.01136364 L5.81818182,8.01136364 Z" id="Rectangle-Copy-43" stroke="#A6B0B5" stroke-width="0.75" fill="#FFFFFF" transform="translate(77.500000, 37.136364) scale(1, -1) translate(-77.500000, -37.136364) "></path>
                    <g id="Group-2" transform="translate(9.117775, 27.780714)" fill="#8E9EA4" fill-rule="nonzero">
                        <path d="M2.1598655,0.702421918 C2.25061974,0.702421918 2.34072364,0.708028952 2.42981889,0.719147049 C2.53620441,0.73242278 2.64096811,0.753533695 2.74344684,0.782230518 C3.66849152,1.0412681 4.319731,1.88757161 4.319731,2.86228742 C4.319731,4.05514819 3.35272628,5.02215292 2.1598655,5.02215292 C2.06288127,5.02215292 1.98426002,4.94353167 1.98426002,4.84654744 C1.98426002,4.74956321 2.06288127,4.67094196 2.1598655,4.67094196 C3.15875782,4.67094196 3.96852004,3.86117974 3.96852004,2.86228742 C3.96852004,2.04607939 3.42308228,1.3372681 2.64874136,1.12043165 C2.56302605,1.09642904 2.47538046,1.0787676 2.38632897,1.06765496 C2.31165174,1.05833607 2.23607234,1.05363288 2.1598655,1.05363288 C1.16097318,1.05363288 0.351210959,1.8633951 0.351210959,2.86228742 C0.351210959,2.95927165 0.272589708,3.0378929 0.175605479,3.0378929 C0.0786212511,3.0378929 -3.72146758e-13,2.95927165 -3.72146758e-13,2.86228742 C-3.72146758e-13,1.66942664 0.967004723,0.702421918 2.1598655,0.702421918 Z" id="Path" stroke="#8E9EA4" stroke-width="0.2" transform="translate(2.159865, 2.862287) rotate(-270.000000) translate(-2.159865, -2.862287) "></path>
                        <path d="M2.45300834,0.0514336541 C2.52158655,-0.0171445514 2.63277379,-0.0171445514 2.70135199,0.0514336541 C2.7623104,0.112392059 2.76908355,0.207016861 2.72167146,0.275456688 L2.70135199,0.299777305 L2.12307025,0.878027397 L2.70135199,1.45627749 C2.7623104,1.51723589 2.76908355,1.6118607 2.72167146,1.68030052 L2.70135199,1.70462114 C2.64039359,1.76557954 2.54576879,1.7723527 2.47732896,1.72494061 L2.45300834,1.70462114 L1.75058642,1.00219922 C1.68962802,0.941240817 1.68285486,0.846616015 1.73026696,0.778176189 L1.75058642,0.753855572 L2.45300834,0.0514336541 Z" id="Path-31"></path>
                        <path d="M2.10726575,1.75605479 C2.19347396,1.75605479 2.26517314,1.81817529 2.28004199,1.90009497 L2.28287123,1.93166027 L2.28287123,2.91259248 L2.9338595,3.56354324 C2.9948179,3.62450165 3.00159106,3.71912645 2.95417896,3.78756628 L2.9338595,3.81188689 C2.87290109,3.8728453 2.77827629,3.87961845 2.70983646,3.83220636 L2.68551584,3.81188689 L1.98309393,3.10946497 C1.95674799,3.08311904 1.93963802,3.04926365 1.93384786,3.01292972 L1.93166027,2.98529315 L1.93166027,1.93166027 C1.93166027,1.83467604 2.01028152,1.75605479 2.10726575,1.75605479 Z" id="Path-32" stroke="#8E9EA4" stroke-width="0.1"></path>
                    </g>
                    <g id="Group-2-Copy" transform="translate(9.117775, 37.780714)" fill="#8E9EA4" fill-rule="nonzero">
                        <path d="M2.1598655,0.702421918 C2.25061974,0.702421918 2.34072364,0.708028952 2.42981889,0.719147049 C2.53620441,0.73242278 2.64096811,0.753533695 2.74344684,0.782230518 C3.66849152,1.0412681 4.319731,1.88757161 4.319731,2.86228742 C4.319731,4.05514819 3.35272628,5.02215292 2.1598655,5.02215292 C2.06288127,5.02215292 1.98426002,4.94353167 1.98426002,4.84654744 C1.98426002,4.74956321 2.06288127,4.67094196 2.1598655,4.67094196 C3.15875782,4.67094196 3.96852004,3.86117974 3.96852004,2.86228742 C3.96852004,2.04607939 3.42308228,1.3372681 2.64874136,1.12043165 C2.56302605,1.09642904 2.47538046,1.0787676 2.38632897,1.06765496 C2.31165174,1.05833607 2.23607234,1.05363288 2.1598655,1.05363288 C1.16097318,1.05363288 0.351210959,1.8633951 0.351210959,2.86228742 C0.351210959,2.95927165 0.272589708,3.0378929 0.175605479,3.0378929 C0.0786212511,3.0378929 -3.72146758e-13,2.95927165 -3.72146758e-13,2.86228742 C-3.72146758e-13,1.66942664 0.967004723,0.702421918 2.1598655,0.702421918 Z" id="Path" stroke="#8E9EA4" stroke-width="0.2" transform="translate(2.159865, 2.862287) rotate(-270.000000) translate(-2.159865, -2.862287) "></path>
                        <path d="M2.45300834,0.0514336541 C2.52158655,-0.0171445514 2.63277379,-0.0171445514 2.70135199,0.0514336541 C2.7623104,0.112392059 2.76908355,0.207016861 2.72167146,0.275456688 L2.70135199,0.299777305 L2.12307025,0.878027397 L2.70135199,1.45627749 C2.7623104,1.51723589 2.76908355,1.6118607 2.72167146,1.68030052 L2.70135199,1.70462114 C2.64039359,1.76557954 2.54576879,1.7723527 2.47732896,1.72494061 L2.45300834,1.70462114 L1.75058642,1.00219922 C1.68962802,0.941240817 1.68285486,0.846616015 1.73026696,0.778176189 L1.75058642,0.753855572 L2.45300834,0.0514336541 Z" id="Path-31"></path>
                        <path d="M2.10726575,1.75605479 C2.19347396,1.75605479 2.26517314,1.81817529 2.28004199,1.90009497 L2.28287123,1.93166027 L2.28287123,2.91259248 L2.9338595,3.56354324 C2.9948179,3.62450165 3.00159106,3.71912645 2.95417896,3.78756628 L2.9338595,3.81188689 C2.87290109,3.8728453 2.77827629,3.87961845 2.70983646,3.83220636 L2.68551584,3.81188689 L1.98309393,3.10946497 C1.95674799,3.08311904 1.93963802,3.04926365 1.93384786,3.01292972 L1.93166027,2.98529315 L1.93166027,1.93166027 C1.93166027,1.83467604 2.01028152,1.75605479 2.10726575,1.75605479 Z" id="Path-32" stroke="#8E9EA4" stroke-width="0.1"></path>
                    </g>
                    <g id="Group-2-Copy-2" transform="translate(9.117775, 47.780714)" fill="#8E9EA4" fill-rule="nonzero">
                        <path d="M2.1598655,0.702421918 C2.25061974,0.702421918 2.34072364,0.708028952 2.42981889,0.719147049 C2.53620441,0.73242278 2.64096811,0.753533695 2.74344684,0.782230518 C3.66849152,1.0412681 4.319731,1.88757161 4.319731,2.86228742 C4.319731,4.05514819 3.35272628,5.02215292 2.1598655,5.02215292 C2.06288127,5.02215292 1.98426002,4.94353167 1.98426002,4.84654744 C1.98426002,4.74956321 2.06288127,4.67094196 2.1598655,4.67094196 C3.15875782,4.67094196 3.96852004,3.86117974 3.96852004,2.86228742 C3.96852004,2.04607939 3.42308228,1.3372681 2.64874136,1.12043165 C2.56302605,1.09642904 2.47538046,1.0787676 2.38632897,1.06765496 C2.31165174,1.05833607 2.23607234,1.05363288 2.1598655,1.05363288 C1.16097318,1.05363288 0.351210959,1.8633951 0.351210959,2.86228742 C0.351210959,2.95927165 0.272589708,3.0378929 0.175605479,3.0378929 C0.0786212511,3.0378929 -3.72146758e-13,2.95927165 -3.72146758e-13,2.86228742 C-3.72146758e-13,1.66942664 0.967004723,0.702421918 2.1598655,0.702421918 Z" id="Path" stroke="#8E9EA4" stroke-width="0.2" transform="translate(2.159865, 2.862287) rotate(-270.000000) translate(-2.159865, -2.862287) "></path>
                        <path d="M2.45300834,0.0514336541 C2.52158655,-0.0171445514 2.63277379,-0.0171445514 2.70135199,0.0514336541 C2.7623104,0.112392059 2.76908355,0.207016861 2.72167146,0.275456688 L2.70135199,0.299777305 L2.12307025,0.878027397 L2.70135199,1.45627749 C2.7623104,1.51723589 2.76908355,1.6118607 2.72167146,1.68030052 L2.70135199,1.70462114 C2.64039359,1.76557954 2.54576879,1.7723527 2.47732896,1.72494061 L2.45300834,1.70462114 L1.75058642,1.00219922 C1.68962802,0.941240817 1.68285486,0.846616015 1.73026696,0.778176189 L1.75058642,0.753855572 L2.45300834,0.0514336541 Z" id="Path-31"></path>
                        <path d="M2.10726575,1.75605479 C2.19347396,1.75605479 2.26517314,1.81817529 2.28004199,1.90009497 L2.28287123,1.93166027 L2.28287123,2.91259248 L2.9338595,3.56354324 C2.9948179,3.62450165 3.00159106,3.71912645 2.95417896,3.78756628 L2.9338595,3.81188689 C2.87290109,3.8728453 2.77827629,3.87961845 2.70983646,3.83220636 L2.68551584,3.81188689 L1.98309393,3.10946497 C1.95674799,3.08311904 1.93963802,3.04926365 1.93384786,3.01292972 L1.93166027,2.98529315 L1.93166027,1.93166027 C1.93166027,1.83467604 2.01028152,1.75605479 2.10726575,1.75605479 Z" id="Path-32" stroke="#8E9EA4" stroke-width="0.1"></path>
                    </g>
                    <path d="M111.411127,28.6159065 L111.411127,31.2275838 C111.411127,31.4157216 111.258611,31.5682374 111.070474,31.5682374 C110.898014,31.5682374 110.755487,31.4400817 110.73293,31.2738085 L110.72982,31.2275838 L110.728587,29.7749065 L108.862348,31.6429193 C108.741408,31.7638589 108.552158,31.7748534 108.418798,31.6759028 L108.380591,31.6429193 L107.71306,30.9755426 L106.137119,32.5513288 C106.01618,32.6722683 105.826929,32.6832629 105.693569,32.5843123 L105.655362,32.5513288 C105.534423,32.4303893 105.523428,32.2411387 105.622379,32.1077789 L105.655362,32.0695719 L107.472181,30.252753 C107.593121,30.1318134 107.782372,30.1208189 107.915731,30.2197694 L107.953938,30.252753 L108.621469,30.9201297 L110.245587,29.2959065 L108.79945,29.2972136 C108.62699,29.2972136 108.484463,29.169058 108.461906,29.0027848 L108.458796,28.9565601 C108.458796,28.7841005 108.586952,28.6415732 108.753225,28.6190163 L108.79945,28.6159065 L111.411127,28.6159065 Z" id="Combined-Shape" fill="#8E9EA4" fill-rule="nonzero"></path>
                    <path d="M111.411127,38.6159065 L111.411127,41.2275838 C111.411127,41.4157216 111.258611,41.5682374 111.070474,41.5682374 C110.898014,41.5682374 110.755487,41.4400817 110.73293,41.2738085 L110.72982,41.2275838 L110.728587,39.7749065 L108.862348,41.6429193 C108.741408,41.7638589 108.552158,41.7748534 108.418798,41.6759028 L108.380591,41.6429193 L107.71306,40.9755426 L106.137119,42.5513288 C106.01618,42.6722683 105.826929,42.6832629 105.693569,42.5843123 L105.655362,42.5513288 C105.534423,42.4303893 105.523428,42.2411387 105.622379,42.1077789 L105.655362,42.0695719 L107.472181,40.252753 C107.593121,40.1318134 107.782372,40.1208189 107.915731,40.2197694 L107.953938,40.252753 L108.621469,40.9201297 L110.245587,39.2959065 L108.79945,39.2972136 C108.62699,39.2972136 108.484463,39.169058 108.461906,39.0027848 L108.458796,38.9565601 C108.458796,38.7841005 108.586952,38.6415732 108.753225,38.6190163 L108.79945,38.6159065 L111.411127,38.6159065 Z" id="Combined-Shape-Copy" fill="#8E9EA4" fill-rule="nonzero"></path>
                    <path d="M111.411127,48.6159065 L111.411127,51.2275838 C111.411127,51.4157216 111.258611,51.5682374 111.070474,51.5682374 C110.898014,51.5682374 110.755487,51.4400817 110.73293,51.2738085 L110.72982,51.2275838 L110.728587,49.7749065 L108.862348,51.6429193 C108.741408,51.7638589 108.552158,51.7748534 108.418798,51.6759028 L108.380591,51.6429193 L107.71306,50.9755426 L106.137119,52.5513288 C106.01618,52.6722683 105.826929,52.6832629 105.693569,52.5843123 L105.655362,52.5513288 C105.534423,52.4303893 105.523428,52.2411387 105.622379,52.1077789 L105.655362,52.0695719 L107.472181,50.252753 C107.593121,50.1318134 107.782372,50.1208189 107.915731,50.2197694 L107.953938,50.252753 L108.621469,50.9201297 L110.245587,49.2959065 L108.79945,49.2972136 C108.62699,49.2972136 108.484463,49.169058 108.461906,49.0027848 L108.458796,48.9565601 C108.458796,48.7841005 108.586952,48.6415732 108.753225,48.6190163 L108.79945,48.6159065 L111.411127,48.6159065 Z" id="Combined-Shape-Copy-2" fill="#8E9EA4" fill-rule="nonzero"></path>
                    <rect id="Rectangle-Copy-49" fill="#8E9EA4" x="16.2710801" y="49" width="30.014634" height="4.15490291" rx="2.07745145"></rect>
                    <rect id="Rectangle-Copy-50" fill="#8E9EA4" x="16.2710801" y="48.7357888" width="29.8703831" height="4.15490291" rx="2.07745145"></rect>
                    <rect id="Rectangle-Copy-52" fill="#8E9EA4" x="65.2710801" y="48.7357888" width="29.8703831" height="4.15490291" rx="2.07745145"></rect>
                    <rect id="Rectangle-Copy-55" fill="#8E9EA4" x="65.2710801" y="27.7357888" width="29.8703831" height="4.15490291" rx="2.07745145"></rect>
                    <rect id="Rectangle-Copy-59" fill="#8E9EA4" x="16.2710801" y="27.7357888" width="29.8703831" height="4.15490291" rx="2.07745145"></rect>
                    <rect id="Rectangle-Copy-56" fill="#8E9EA4" x="16.2710801" y="38.3485315" width="26.7261322" height="4.15490291" rx="2.07745145"></rect>
                    <rect id="Rectangle-Copy-57" fill="#8E9EA4" x="65.2710801" y="38.3485315" width="26.7261322" height="4.15490291" rx="2.07745145"></rect>
                    <rect id="Rectangle-Copy-53" fill="#8E9EA4" x="114.27108" y="48.7357888" width="29.8703831" height="4.15490291" rx="2.07745145"></rect>
                    <rect id="Rectangle-Copy-54" fill="#8E9EA4" x="114.27108" y="27.7357888" width="29.8703831" height="4.15490291" rx="2.07745145"></rect>
                    <rect id="Rectangle-Copy-58" fill="#8E9EA4" x="114.27108" y="38.3485315" width="26.7261322" height="4.15490291" rx="2.07745145"></rect>
                    <path d="M59.3468922,31.4901751 C60.136784,31.4901751 60.7771178,30.8208016 60.7771178,29.9950876 C60.7771178,29.1693735 60.136784,28.5 59.3468922,28.5 C58.5570005,28.5 57.9166667,29.1693735 57.9166667,29.9950876 C57.9166667,30.8208016 58.5570005,31.4901751 59.3468922,31.4901751 Z M61.1346742,31.863947 L60.356989,31.0509931" id="Combined-Shape" stroke="#8E9EA4" stroke-linecap="round" stroke-linejoin="round"></path>
                    <path d="M59.3468922,41.4901751 C60.136784,41.4901751 60.7771178,40.8208016 60.7771178,39.9950876 C60.7771178,39.1693735 60.136784,38.5 59.3468922,38.5 C58.5570005,38.5 57.9166667,39.1693735 57.9166667,39.9950876 C57.9166667,40.8208016 58.5570005,41.4901751 59.3468922,41.4901751 Z M61.1346742,41.863947 L60.356989,41.0509931" id="Combined-Shape" stroke="#8E9EA4" stroke-linecap="round" stroke-linejoin="round"></path>
                    <path d="M59.3468922,51.4901751 C60.136784,51.4901751 60.7771178,50.8208016 60.7771178,49.9950876 C60.7771178,49.1693735 60.136784,48.5 59.3468922,48.5 C58.5570005,48.5 57.9166667,49.1693735 57.9166667,49.9950876 C57.9166667,50.8208016 58.5570005,51.4901751 59.3468922,51.4901751 Z M61.1346742,51.863947 L60.356989,51.0509931" id="Combined-Shape" stroke="#8E9EA4" stroke-linecap="round" stroke-linejoin="round"></path>
                    <rect id="Rectangle-Copy" stroke="#A6B0B5" stroke-width="0.706909091" fill="#FFFFFF" x="0.353454545" y="0.353454545" width="154.293091" height="15.2930909" rx="7.64654545"></rect>
                    <path d="M143.210391,10.4207819 C144.983441,10.4207819 146.420782,8.98344095 146.420782,7.21039097 C146.420782,5.437341 144.983441,4 143.210391,4 C141.437341,4 140,5.437341 140,7.21039097 C140,8.98344095 141.437341,10.4207819 143.210391,10.4207819 Z M147.22338,11.2233797 L145.47773,9.4777296" id="Combined-Shape-Copy-6" stroke-opacity="0.5" stroke="#1E3D49" stroke-linecap="round" stroke-linejoin="round"></path>
                    <rect id="Rectangle-Copy-60" fill="#1E3D49" opacity="0.177138556" x="6.91666667" y="4.81818182" width="45" height="6" rx="3"></rect>
                </g>
            </g>
        </g>
    </g>
</svg>