<svg width="165" height="47" xmlns="http://www.w3.org/2000/svg"><g fill="none" fill-rule="evenodd"><rect stroke="#A6B0B5" stroke-width=".729" fill="#FFF" x=".364" y=".364" width="164.271" height="16.271" rx="8.136"/><path d="M153.556 12.111a3.556 3.556 0 1 0 0-7.111 3.556 3.556 0 0 0 0 7.111ZM158 13l-1.933-1.933" stroke-opacity=".5" stroke="#1E3D49" stroke-width="1.056" stroke-linecap="round" stroke-linejoin="round"/><rect fill="#1E3D49" opacity=".431" y="29" width="45" height="4" rx="2"/><rect fill="#1E3D49" opacity=".431" y="36" width="30" height="4" rx="2"/><rect fill="#1E3D49" opacity=".431" y="43" width="37" height="4" rx="2"/><rect fill="#1E3D49" opacity=".431" x="60" y="29" width="45" height="4" rx="2"/><rect fill="#1E3D49" opacity=".431" x="60" y="36" width="30" height="4" rx="2"/><rect fill="#1E3D49" opacity=".431" x="60" y="43" width="37" height="4" rx="2"/><rect fill="#1E3D49" opacity=".431" x="120" y="29" width="45" height="4" rx="2"/><rect fill="#1E3D49" opacity=".431" x="120" y="36" width="30" height="4" rx="2"/><rect fill="#1E3D49" opacity=".431" x="120" y="43" width="37" height="4" rx="2"/></g></svg>