<?xml version="1.0" encoding="UTF-8"?>
<svg width="102px" height="73px" viewBox="0 0 102 73" version="1.1" xmlns="http://www.w3.org/2000/svg" xmlns:xlink="http://www.w3.org/1999/xlink">
    <title>Group 170</title>
    <g id="Diagrams&amp;Illustrations" stroke="none" stroke-width="1" fill="none" fill-rule="evenodd">
        <g id="UI-Reference-Cards" transform="translate(-1043.000000, -214.000000)">
            <g id="Group-170" transform="translate(1043.500000, 214.000000)">
                <g id="Group-163">
                    <rect id="Rectangle" fill="#FFFFFF" x="5.5" y="0" width="7" height="73" rx="3.5"></rect>
                    <rect id="Rectangle" fill="#8E9EA4" x="4.5" y="29" width="9" height="44" rx="4.5"></rect>
                    <circle id="Oval" stroke="#8E9EA4" fill="#E2E6E7" cx="9" cy="34" r="8.5"></circle>
                </g>
                <g id="Group-166" transform="translate(26.000000, 0.000000)">
                    <rect id="Rectangle-Copy-76" fill="#FFFFFF" x="5.5" y="0" width="7" height="73" rx="3.5"></rect>
                    <rect id="Rectangle-Copy-76" fill="#8E9EA4" x="4.5" y="19" width="9" height="54" rx="4.5"></rect>
                    <circle id="Oval-Copy-39" stroke="#8E9EA4" fill="#E2E6E7" cx="9" cy="19" r="8.5"></circle>
                </g>
                <g id="Group-167" transform="translate(52.000000, 0.000000)">
                    <rect id="Rectangle-Copy-77" fill="#FFFFFF" x="5.5" y="0" width="7" height="73" rx="3.5"></rect>
                    <rect id="Rectangle-Copy-77" fill="#8E9EA4" x="4.5" y="49" width="9" height="24" rx="4.5"></rect>
                    <circle id="Oval-Copy-40" stroke="#8E9EA4" fill="#E2E6E7" cx="9" cy="49" r="8.5"></circle>
                </g>
                <g id="Group-2" transform="translate(78.000000, 25.000000)" stroke="#8E9EA4" stroke-linecap="round" stroke-width="4">
                    <line x1="10.5" y1="9.41554527e-17" x2="10.5" y2="21" id="Line-4"></line>
                    <line x1="10.5" y1="5.16231367e-14" x2="10.5" y2="21" id="Line-4" transform="translate(10.500000, 10.500000) rotate(-90.000000) translate(-10.500000, -10.500000) "></line>
                </g>
            </g>
        </g>
    </g>
</svg>