<svg width="107" height="40" xmlns="http://www.w3.org/2000/svg"><g transform="translate(1)" fill="none" fill-rule="evenodd"><rect fill="#1E3D49" opacity=".431" x="15.804" width="90" height="9" rx="4.5"/><rect fill="#1E3D49" opacity=".431" x="15.804" y="15" width="61" height="9" rx="4.5"/><rect fill="#1E3D49" opacity=".431" x="15.804" y="30" width="74.262" height="9" rx="4.5"/><path d="M4 31c2.206 0 4 1.794 4 4s-1.794 4-4 4-4-1.794-4-4 1.794-4 4-4Zm0 .5C2.07 31.5.5 33.07.5 35s1.57 3.5 3.5 3.5 3.5-1.57 3.5-3.5-1.57-3.5-3.5-3.5Zm.272 1.021v2.392l1.418 1.424-.351.353-1.564-1.57V32.52h.497ZM4 16c2.206 0 4 1.794 4 4s-1.794 4-4 4-4-1.794-4-4 1.794-4 4-4Zm0 .5C2.07 16.5.5 18.07.5 20s1.57 3.5 3.5 3.5 3.5-1.57 3.5-3.5-1.57-3.5-3.5-3.5Zm.272 1.021v2.392l1.418 1.424-.351.353-1.564-1.57V17.52h.497ZM4 1c2.206 0 4 1.794 4 4S6.206 9 4 9 0 7.206 0 5s1.794-4 4-4Zm0 .5C2.07 1.5.5 3.07.5 5S2.07 8.5 4 8.5 7.5 6.93 7.5 5 5.93 1.5 4 1.5Zm.272 1.021v2.392L5.69 6.337l-.351.353-1.564-1.57V2.52h.497Z" stroke="#1E3D49" stroke-width=".52" fill="#243C47" fill-rule="nonzero" opacity=".5"/></g></svg>