<svg width="166" height="41" xmlns="http://www.w3.org/2000/svg"><g transform="translate(.539 .784)" fill="none" fill-rule="evenodd"><path d="M4.08 9.422c.798 0 1.504-.187 2.118-.56.613-.373 1.094-.914 1.441-1.622.348-.708.522-1.55.522-2.529 0-.978-.174-1.821-.522-2.53C7.292 1.475 6.811.934 6.198.56 5.584.187 4.878 0 4.08 0c-.798 0-1.504.187-2.117.56C1.349.933.869 1.474.52 2.182.174 2.89 0 3.732 0 4.71c0 .978.174 1.821.521 2.53.348.707.828 1.248 1.442 1.621.613.373 1.32.56 2.117.56Zm0-2.433c-.686 0-1.03-.76-1.03-2.278 0-1.519.344-2.278 1.03-2.278.687 0 1.03.76 1.03 2.278 0 1.519-.343 2.278-1.03 2.278Zm9.907 2.433c.798 0 1.504-.187 2.118-.56.613-.373 1.094-.914 1.441-1.622.348-.708.522-1.55.522-2.529 0-.978-.174-1.821-.522-2.53C17.2 1.475 16.718.934 16.105.56 15.49.187 14.785 0 13.987 0c-.798 0-1.503.187-2.117.56-.614.373-1.094.914-1.442 1.622-.347.708-.52 1.55-.52 2.529 0 .978.173 1.821.52 2.53.348.707.828 1.248 1.442 1.621s1.32.56 2.117.56Zm0-2.433c-.686 0-1.03-.76-1.03-2.278 0-1.519.344-2.278 1.03-2.278.687 0 1.03.76 1.03 2.278 0 1.519-.343 2.278-1.03 2.278ZM4.08 24.638c.798 0 1.504-.187 2.118-.56.613-.373 1.094-.914 1.441-1.622.348-.708.522-1.55.522-2.529 0-.978-.174-1.821-.522-2.53-.347-.707-.828-1.248-1.441-1.621-.614-.373-1.32-.56-2.118-.56-.798 0-1.504.187-2.117.56-.614.373-1.094.914-1.442 1.622-.347.708-.521 1.55-.521 2.529 0 .978.174 1.821.521 2.53.348.707.828 1.248 1.442 1.621.613.373 1.32.56 2.117.56Zm0-2.433c-.686 0-1.03-.76-1.03-2.278 0-1.519.344-2.278 1.03-2.278.687 0 1.03.76 1.03 2.278 0 1.519-.343 2.278-1.03 2.278Zm9.907 2.433c.798 0 1.504-.187 2.118-.56.613-.373 1.094-.914 1.441-1.622.348-.708.522-1.55.522-2.529 0-.978-.174-1.821-.522-2.53-.347-.707-.828-1.248-1.441-1.621-.614-.373-1.32-.56-2.118-.56-.798 0-1.503.187-2.117.56-.614.373-1.094.914-1.442 1.622-.347.708-.52 1.55-.52 2.529 0 .978.173 1.821.52 2.53.348.707.828 1.248 1.442 1.621s1.32.56 2.117.56Zm0-2.433c-.686 0-1.03-.76-1.03-2.278 0-1.519.344-2.278 1.03-2.278.687 0 1.03.76 1.03 2.278 0 1.519-.343 2.278-1.03 2.278ZM4.08 39.638c.798 0 1.504-.187 2.118-.56.613-.373 1.094-.914 1.441-1.622.348-.708.522-1.55.522-2.529 0-.978-.174-1.821-.522-2.53-.347-.707-.828-1.248-1.441-1.621-.614-.373-1.32-.56-2.118-.56-.798 0-1.504.187-2.117.56-.614.373-1.094.914-1.442 1.622-.347.708-.521 1.55-.521 2.529 0 .978.174 1.821.521 2.53.348.707.828 1.248 1.442 1.621.613.373 1.32.56 2.117.56Zm0-2.433c-.686 0-1.03-.76-1.03-2.278 0-1.519.344-2.278 1.03-2.278.687 0 1.03.76 1.03 2.278 0 1.519-.343 2.278-1.03 2.278Zm9.907 2.433c.798 0 1.504-.187 2.118-.56.613-.373 1.094-.914 1.441-1.622.348-.708.522-1.55.522-2.529 0-.978-.174-1.821-.522-2.53-.347-.707-.828-1.248-1.441-1.621-.614-.373-1.32-.56-2.118-.56-.798 0-1.503.187-2.117.56-.614.373-1.094.914-1.442 1.622-.347.708-.52 1.55-.52 2.529 0 .978.173 1.821.52 2.53.348.707.828 1.248 1.442 1.621s1.32.56 2.117.56Zm0-2.433c-.686 0-1.03-.76-1.03-2.278 0-1.519.344-2.278 1.03-2.278.687 0 1.03.76 1.03 2.278 0 1.519-.343 2.278-1.03 2.278Z" fill-opacity=".5" fill="#1E3D49" fill-rule="nonzero"/><rect fill="#1E3D49" opacity=".431" x="74.265" y=".216" width="90" height="9" rx="4.5"/><rect fill="#1E3D49" opacity=".431" x="21.527" y=".216" width="31.703" height="9" rx="4.5"/><rect fill="#1E3D49" opacity=".431" x="74.265" y="15.216" width="61" height="9" rx="4.5"/><rect fill="#1E3D49" opacity=".431" x="21.527" y="15.216" width="31.703" height="9" rx="4.5"/><rect fill="#1E3D49" opacity=".431" x="74.265" y="30.216" width="74.262" height="9" rx="4.5"/><rect fill="#1E3D49" opacity=".431" x="21.824" y="30.216" width="31.703" height="9" rx="4.5"/><path stroke="#1E3D49" opacity=".5" d="M64.42.216v39"/></g></svg>