<svg width="104" height="39" xmlns="http://www.w3.org/2000/svg"><g fill="#1E3D49" fill-rule="evenodd"><path d="M6.888 4.266 4.36 2.096A.414.414 0 0 0 4.09 2a.415.415 0 0 0-.272.096l-.23.197a.305.305 0 0 0-.111.233c0 .088.04.173.112.235L5.064 4.03H.378c-.211 0-.378.142-.378.323v.28c0 .18.167.337.378.337H5.08L3.59 6.246a.3.3 0 0 0-.112.23c0 .088.04.17.112.232l.23.196a.414.414 0 0 0 .27.096.414.414 0 0 0 .271-.096l2.528-2.17A.305.305 0 0 0 7 4.5a.305.305 0 0 0-.112-.234ZM6.888 19.266l-2.528-2.17A.414.414 0 0 0 4.09 17a.415.415 0 0 0-.272.096l-.23.197a.305.305 0 0 0-.111.233c0 .088.04.173.112.235l1.475 1.269H.378c-.211 0-.378.142-.378.323v.28c0 .18.167.337.378.337H5.08L3.59 21.246a.3.3 0 0 0-.112.23c0 .088.04.17.112.232l.23.196a.414.414 0 0 0 .27.096.414.414 0 0 0 .271-.096l2.528-2.17A.305.305 0 0 0 7 19.5a.305.305 0 0 0-.112-.234ZM6.888 34.266l-2.528-2.17A.414.414 0 0 0 4.09 32a.415.415 0 0 0-.272.096l-.23.197a.305.305 0 0 0-.111.233c0 .088.04.173.112.235l1.475 1.269H.378c-.211 0-.378.142-.378.323v.28c0 .18.167.337.378.337H5.08L3.59 36.246a.3.3 0 0 0-.112.23c0 .088.04.17.112.232l.23.196a.414.414 0 0 0 .27.096.414.414 0 0 0 .271-.096l2.528-2.17A.305.305 0 0 0 7 34.5a.305.305 0 0 0-.112-.234Z" fill-opacity=".5" fill-rule="nonzero"/><rect opacity=".431" x="13.804" width="90" height="9" rx="4.5"/><rect opacity=".431" x="13.804" y="15" width="61" height="9" rx="4.5"/><rect opacity=".431" x="13.804" y="30" width="74.262" height="9" rx="4.5"/></g></svg>