<svg width="112" height="39" xmlns="http://www.w3.org/2000/svg"><g fill="none" fill-rule="evenodd"><rect fill="#1E3D49" opacity=".431" x="21.804" width="90" height="9" rx="4.5"/><rect fill="#1E3D49" opacity=".431" x="21.804" y="15" width="61" height="9" rx="4.5"/><rect fill="#1E3D49" opacity=".431" x="21.804" y="30" width="74.262" height="9" rx="4.5"/><path d="M9.486 0h4.977c.298 0 .537.244.537.541v5.073a.539.539 0 0 1-.537.541.539.539 0 0 1-.537-.54V1.857L7.077 8.839a.535.535 0 0 1-.763 0L3.177 5.641.918 7.942a.534.534 0 0 1-.763 0 .544.544 0 0 1 0-.76l2.64-2.69a.534.534 0 0 1 .763-.001l3.138 3.198 6.482-6.607H9.486A.539.539 0 0 1 8.949.54c0-.297.24-.541.537-.541ZM9.486 15h4.977c.298 0 .537.244.537.541v5.073a.539.539 0 0 1-.537.541.539.539 0 0 1-.537-.54v-3.757l-6.849 6.981a.535.535 0 0 1-.763 0l-3.137-3.198-2.259 2.301a.534.534 0 0 1-.763 0 .544.544 0 0 1 0-.76l2.64-2.69a.534.534 0 0 1 .763-.001l3.138 3.198 6.482-6.607H9.486a.539.539 0 0 1-.537-.541c0-.297.24-.541.537-.541ZM9.486 30h4.977c.298 0 .537.244.537.541v5.073a.539.539 0 0 1-.537.541.539.539 0 0 1-.537-.54v-3.757l-6.849 6.981a.535.535 0 0 1-.763 0l-3.137-3.198-2.259 2.301a.534.534 0 0 1-.763 0 .544.544 0 0 1 0-.76l2.64-2.69a.534.534 0 0 1 .763-.001l3.138 3.198 6.482-6.607H9.486a.539.539 0 0 1-.537-.541c0-.297.24-.541.537-.541Z" fill-opacity=".5" fill="#233A45" fill-rule="nonzero"/></g></svg>