<?xml version="1.0" encoding="UTF-8"?>
<svg width="139px" height="76px" viewBox="0 0 139 76" version="1.1" xmlns="http://www.w3.org/2000/svg" xmlns:xlink="http://www.w3.org/1999/xlink">
    <title>Group 6</title>
    <g id="Diagrams&amp;Illustrations" stroke="none" stroke-width="1" fill="none" fill-rule="evenodd">
        <g id="UI-Reference-Cards" transform="translate(-769.000000, -560.000000)">
            <g id="Group-6" transform="translate(769.000000, 560.000000)">
                <rect id="Rectangle" fill="#CFD4D7" x="133" y="0" width="6" height="76" rx="3"></rect>
                <rect id="Rectangle" fill="#8E9EA4" x="133" y="13" width="6" height="9" rx="3"></rect>
                <rect id="Rectangle" stroke="#8E9EA4" stroke-width="0.71" fill="#FFFFFF" x="0.355" y="0.355" width="128.29" height="75.29" rx="6"></rect>
                <g id="Group-5" transform="translate(8.000000, 13.000000)" fill="#E2E6E7">
                    <rect id="Rectangle" x="0" y="0" width="35" height="50" rx="3"></rect>
                    <rect id="Rectangle-Copy" x="39" y="0" width="35" height="50" rx="3"></rect>
                    <rect id="Rectangle-Copy-2" x="78" y="0" width="35" height="50" rx="3"></rect>
                </g>
                <g id="Group-4" transform="translate(8.000000, 0.000000)" fill="#8E9EA4" opacity="0.166457403">
                    <path d="M0,0 L35,0 L35,5 C35,6.65685425 33.6568542,8 32,8 L3,8 C1.34314575,8 1.53517375e-15,6.65685425 0,5 L0,0 L0,0 Z" id="Rectangle-Copy-3"></path>
                    <path d="M39,0 L74,0 L74,5 C74,6.65685425 72.6568542,8 71,8 L42,8 C40.3431458,8 39,6.65685425 39,5 L39,0 L39,0 Z" id="Rectangle-Copy-4"></path>
                    <path d="M78,0 L113,0 L113,5 C113,6.65685425 111.656854,8 110,8 L81,8 C79.3431458,8 78,6.65685425 78,5 L78,0 L78,0 Z" id="Rectangle-Copy-5"></path>
                </g>
                <g id="Group-3" transform="translate(8.000000, 68.000000)" fill="#8E9EA4" opacity="0.17">
                    <path d="M3,0 L32,0 C33.6568542,-3.04359188e-16 35,1.34314575 35,3 L35,8 L35,8 L0,8 L0,3 C-2.02906125e-16,1.34314575 1.34314575,3.04359188e-16 3,0 Z" id="Rectangle-Copy-6"></path>
                    <path d="M42,0 L71,0 C72.6568542,-3.04359188e-16 74,1.34314575 74,3 L74,8 L74,8 L39,8 L39,3 C39,1.34314575 40.3431458,3.04359188e-16 42,0 Z" id="Rectangle-Copy-7"></path>
                    <path d="M81,0 L110,0 C111.656854,-3.04359188e-16 113,1.34314575 113,3 L113,8 L113,8 L78,8 L78,3 C78,1.34314575 79.3431458,3.04359188e-16 81,0 Z" id="Rectangle-Copy-8"></path>
                </g>
                <g id="Group-2" transform="translate(111.000000, 59.000000)">
                    <g id="Group" fill="#8E9EA4">
                        <circle id="Oval" cx="6" cy="6" r="6"></circle>
                    </g>
                    <g id="Group" transform="translate(2.000000, 2.000000)" stroke="#FFFFFF" stroke-linecap="round" stroke-linejoin="round">
                        <g id="icon/arrow" transform="translate(4.000000, 4.000000) rotate(-90.000000) translate(-4.000000, -4.000000) ">
                            <line x1="1" y1="4" x2="6.37777817" y2="4" id="Path-47"></line>
                            <polyline id="Path-48" points="5 2 7 4 5 6"></polyline>
                        </g>
                    </g>
                </g>
            </g>
        </g>
    </g>
</svg>