<?xml version="1.0" encoding="UTF-8"?>
<svg width="159px" height="82px" viewBox="0 0 159 82" version="1.1" xmlns="http://www.w3.org/2000/svg" xmlns:xlink="http://www.w3.org/1999/xlink">
    <title>Group 176 Copy</title>
    <g id="Diagrams&amp;Illustrations" stroke="none" stroke-width="1" fill="none" fill-rule="evenodd">
        <g id="UI-Reference-Cards" transform="translate(-504.000000, -904.000000)">
            <g id="Group-176-Copy" transform="translate(504.910180, 904.000000)">
                <rect id="Rectangle-Copy" stroke="#8E9EA4" stroke-width="0.636995005" fill="#FFFFFF" x="52.3184975" y="0.318497502" width="104.791576" height="13.7805874" rx="6.89029371"></rect>
                <path d="M146.499189,9.39015516 C148.096883,9.39015516 149.392069,8.09496877 149.392069,6.49727538 C149.392069,4.899582 148.096883,3.6043956 146.499189,3.6043956 C144.901496,3.6043956 143.60631,4.899582 143.60631,6.49727538 C143.60631,8.09496877 144.901496,9.39015516 146.499189,9.39015516 Z M150.115289,10.1133751 L148.542286,8.54037173" id="Combined-Shape-Copy-5" stroke-opacity="0.5" stroke="#1E3D49" stroke-width="0.901098901" stroke-linecap="round" stroke-linejoin="round"></path>
                <rect id="Rectangle-Copy-3" fill="#FFFFFF" x="52" y="29" width="105.08982" height="15.3186813" rx="3"></rect>
                <rect id="Rectangle-Copy-3" fill="#FFFFFF" x="0" y="17.8351648" width="46" height="63" rx="3"></rect>
                <rect id="Rectangle" fill="#8E9EA4" x="5.08982036" y="2.9010989" width="34.7812305" height="9.10818953" rx="2.7032967"></rect>
                <g id="Group-194" transform="translate(5.089820, 23.336477)" fill="#D6DCDE">
                    <rect id="Rectangle" x="0" y="0" width="34.7812305" height="4.10509951" rx="2.05254975"></rect>
                    <rect id="Rectangle-Copy-6" x="0" y="24.8681743" width="34.7812305" height="4.10509951" rx="2.05254975"></rect>
                    <rect id="Rectangle-Copy-78" x="0" y="48.8681743" width="34.7812305" height="4.10509951" rx="2.05254975"></rect>
                    <rect id="Rectangle" x="0" y="6.15764926" width="22.7612464" height="2.82225591" rx="1.41112796"></rect>
                    <rect id="Rectangle-Copy-7" x="0" y="31.0258235" width="22.7612464" height="2.82225591" rx="1.41112796"></rect>
                    <rect id="Rectangle-Copy-8" x="0" y="40.9730932" width="22.7612464" height="2.82225591" rx="1.41112796"></rect>
                    <rect id="Rectangle" x="0" y="11.0324549" width="19.9480587" height="2.82225591" rx="1.41112796"></rect>
                    <rect id="Rectangle-Copy-9" x="0" y="35.9006292" width="19.9480587" height="2.82225591" rx="1.41112796"></rect>
                </g>
                <g id="Group-187" transform="translate(52.000000, 18.000000)">
                    <rect id="Rectangle-Copy-2" fill="#FFFFFF" x="0" y="0" width="17.0658683" height="6.30769231" rx="3.15384615"></rect>
                    <path d="M2.5988024,3.97661908 L4.5988024,1.97661908 M4.5988024,3.97661908 L2.5988024,1.97661908" id="Combined-Shape" stroke="#D6DCDE" stroke-width="0.555876344" stroke-linecap="round" stroke-linejoin="round" transform="translate(3.598802, 2.976619) rotate(-45.000000) translate(-3.598802, -2.976619) "></path>
                </g>
                <g id="Group-187-Copy" transform="translate(72.556886, 18.023381)">
                    <rect id="Rectangle-Copy-2" fill="#FFFFFF" x="0" y="0" width="17.0658683" height="6.30769231" rx="3.15384615"></rect>
                    <path d="M2.5988024,3.97661908 L4.5988024,1.97661908 M4.5988024,3.97661908 L2.5988024,1.97661908" id="Combined-Shape" stroke="#D6DCDE" stroke-width="0.555876344" stroke-linecap="round" stroke-linejoin="round" transform="translate(3.598802, 2.976619) rotate(-45.000000) translate(-3.598802, -2.976619) "></path>
                </g>
                <g id="Group-187-Copy-2" transform="translate(93.622754, 18.023381)">
                    <rect id="Rectangle-Copy-2" fill="#FFFFFF" x="0" y="0" width="17.0658683" height="6.30769231" rx="3.15384615"></rect>
                    <path d="M2.5988024,3.97661908 L4.5988024,1.97661908 M4.5988024,3.97661908 L2.5988024,1.97661908" id="Combined-Shape" stroke="#D6DCDE" stroke-width="0.555876344" stroke-linecap="round" stroke-linejoin="round" transform="translate(3.598802, 2.976619) rotate(-45.000000) translate(-3.598802, -2.976619) "></path>
                </g>
                <g id="Group-187-Copy-3" transform="translate(114.688623, 18.023381)">
                    <rect id="Rectangle-Copy-2" fill="#FFFFFF" x="0" y="0" width="17.0658683" height="6.30769231" rx="3.15384615"></rect>
                    <path d="M2.5988024,3.97661908 L4.5988024,1.97661908 M4.5988024,3.97661908 L2.5988024,1.97661908" id="Combined-Shape" stroke="#D6DCDE" stroke-width="0.555876344" stroke-linecap="round" stroke-linejoin="round" transform="translate(3.598802, 2.976619) rotate(-45.000000) translate(-3.598802, -2.976619) "></path>
                </g>
                <rect id="Rectangle-Copy-5" fill="#D6DCDE" x="5.08982036" y="39.2437372" width="22.7612464" height="2.82225591" rx="1.41112796"></rect>
                <g id="Group-197" transform="translate(52.000000, 49.000000)">
                    <rect id="Rectangle" fill="#D6DCDE" x="0" y="0" width="31.4371257" height="32.4395604" rx="2.7032967"></rect>
                    <rect id="Rectangle-Copy-4" fill="#FFFFFF" x="3.08207115" y="24.447205" width="25.2729834" height="3.13425705" rx="1.56712852"></rect>
                </g>
                <g id="Group-200" transform="translate(89.038922, 48.659341)">
                    <rect id="Rectangle" fill="#FFFFFF" x="0" y="0" width="31.4371257" height="32.4395604" rx="2.7032967"></rect>
                    <rect id="Rectangle" fill="#D6DCDE" x="3.08207115" y="3.13425705" width="25.2729834" height="18.8055423" rx="1.96121526"></rect>
                    <rect id="Rectangle-Copy-2" fill="#1E3D49" opacity="0.18" x="3.08207115" y="24.447205" width="25.2729834" height="3.13425705" rx="1.56712852"></rect>
                </g>
                <g id="Group-204" transform="translate(125.976048, 48.659341)">
                    <rect id="Rectangle" fill="#FFFFFF" x="0" y="0" width="31.4371257" height="32.4395604" rx="2.7032967"></rect>
                    <rect id="Rectangle" fill="#D6DCDE" x="3.08207115" y="3.13425705" width="25.2729834" height="18.8055423" rx="1.96121526"></rect>
                    <rect id="Rectangle-Copy-2" fill="#1E3D49" opacity="0.18" x="3.08207115" y="24.447205" width="25.2729834" height="3.13425705" rx="1.56712852"></rect>
                </g>
            </g>
        </g>
    </g>
</svg>