<?xml version="1.0" encoding="UTF-8"?>
<svg width="124px" height="80px" viewBox="0 0 124 80" version="1.1" xmlns="http://www.w3.org/2000/svg" xmlns:xlink="http://www.w3.org/1999/xlink">
    <title>Group 160</title>
    <g id="Diagrams&amp;Illustrations" stroke="none" stroke-width="1" fill="none" fill-rule="evenodd">
        <g id="UI-Reference-Cards" transform="translate(-267.000000, -969.000000)">
            <g id="Group-160" transform="translate(267.000000, 969.000000)">
                <g id="Group" stroke-dasharray="2.619718309859155" transform="translate(3.492958, 6.956522)" stroke="#8E9EA4" stroke-width="0.873239437">
                    <path d="M16.1549296,0 L99.1126761,0 C108.034797,0 115.267606,7.20237576 115.267606,16.0869565 C115.267606,24.9715373 108.034797,32.173913 99.1126761,32.173913 C86.3021409,32.173913 77.2632851,32.173913 71.9961089,32.173913 M47.9232292,32.173913 C40.863607,32.173913 30.2741738,32.173913 16.1549296,32.173913" id="Shape"></path>
                    <path d="M99.1126761,64.3478261 L16.1549296,64.3478261 C7.23280834,64.3478261 0,57.1454503 0,48.2608696 C0,39.3762888 7.23280834,32.173913 16.1549296,32.173913" id="Path"></path>
                </g>
                <g id="interactive-copy" transform="translate(58.507042, 27.826087)" fill="#8E9EA4">
                    <path d="M6.08890787,-2.76889622e-13 L7.97027891,-2.76889622e-13 L6.08890787,-2.76889622e-13 Z M5.08066581,6.75860499 C5.78213641,6.75860499 6.35083227,7.34709855 6.35083227,8.07298906 L6.35083227,8.07298906 L6.35083227,13.9877173 C6.35083227,13.2618268 6.91952813,12.6733333 7.62099872,12.6733333 C8.32246931,12.6733333 8.89116517,13.2618268 8.89116517,13.9877173 C8.89116517,13.2618268 9.45986103,12.6733333 10.1613316,12.6733333 C10.8628022,12.6733333 11.4314981,13.2618268 11.4314981,13.9877173 C11.4314981,13.2618268 12.0001939,12.6733333 12.7016645,12.6733333 C13.4031351,12.6733333 13.971831,13.2618268 13.971831,13.9877173 L13.971831,13.9877173 L13.971831,21.2168297 C13.971831,22.3057093 13.1188295,23.1884058 12.0665813,23.1884058 L12.0665813,23.1884058 L4.987986,23.1884058 C4.2663621,23.1884058 3.60663764,22.7664885 3.28393069,22.0985623 L3.28393069,22.0985623 L0.494348784,15.6679821 C0.211948442,15.0835193 0.394302006,14.3729195 0.919727529,14.0104562 C1.47263099,13.6290219 2.21720256,13.7609423 2.54033291,14.3110996 L2.54033291,14.3110996 L3.73492446,15.9592934 L3.81049936,15.9592934 L3.81049936,8.07298906 C3.81049936,7.34709855 4.37919522,6.75860499 5.08066581,6.75860499 Z M5.08066581,0.843876703 C7.88214494,0.843876703 10.1613316,3.20240747 10.1613316,6.10141296 C10.1613316,7.25684418 9.80585437,8.35330337 9.13347059,9.27227689 C8.72379957,9.83207306 8.2054023,10.3023159 7.62099872,10.6529497 L7.62099872,10.6529497 L7.62099872,9.03551251 C8.40752813,8.30138519 8.89116517,7.239801 8.89116517,6.10141296 C8.89116517,3.92715884 7.18177516,2.15826077 5.08066581,2.15826077 C2.97955647,2.15826077 1.27016645,3.92715884 1.27016645,6.10141296 C1.27016645,7.239801 1.7538035,8.30138519 2.54033291,9.03551251 L2.54033291,9.03551251 L2.54033291,10.6529497 C1.95592932,10.3023159 1.43753205,9.83202925 1.02786103,9.27227689 C0.355434913,8.35330337 0,7.25684418 0,6.10141296 C0,3.20240747 2.27918668,0.843876703 5.08066581,0.843876703 Z M5.08079283,3.47264483 C5.75728348,3.47264483 6.39325583,3.74428421 6.87291302,4.2384488 C7.35532224,4.73541742 7.62099872,5.39703454 7.62099872,6.10141296 C7.62099872,6.44543108 7.55660128,6.77959132 7.4356391,7.08882208 C7.21649304,6.52942022 6.81677166,6.06531121 6.31133009,5.77435039 C6.25544277,5.54740008 6.14142416,5.33946452 5.97685292,5.16990897 C5.7370455,4.9228924 5.41895348,4.7870289 5.08070815,4.7870289 L5.08070815,4.7870289 C4.49795578,4.78974529 3.99441946,5.21319602 3.85139872,5.77356176 C3.34659223,6.06369014 2.94712488,6.52657239 2.72742843,7.08448462 C2.59054682,6.73406982 2.52496389,6.35324895 2.54363534,5.96717053 C2.6109965,4.57462443 3.72040222,3.47891006 5.06919198,3.47264483 L5.06919198,3.47264483 Z" id="Combined-Shape"></path>
                </g>
                <g id="Group-4" transform="translate(93.436620, 63.478261)">
                    <rect id="Rectangle" fill="#8E9EA4" x="0" y="0" width="30.5633803" height="15.6521739" rx="7.82608696"></rect>
                    <g id="Group" transform="translate(9.605634, 2.608696)" fill="#FFFFFF" fill-rule="nonzero">
                        <path d="M8.38309859,6.70807453 C7.61267817,6.70807453 6.98591549,7.30993088 6.98591549,8.04968944 C6.98591549,8.789448 7.61270006,9.39130435 8.38309859,9.39130435 C9.15349712,9.39130435 9.78028169,8.789448 9.78028169,8.04968944 C9.78028169,7.30993088 9.15349712,6.70807453 8.38309859,6.70807453 Z M8.38309859,8.5863354 C8.07488228,8.5863354 7.82422535,8.3456475 7.82422535,8.04968944 C7.82422535,7.75373138 8.07488228,7.51304348 8.38309859,7.51304348 C8.69131491,7.51304348 8.94197183,7.75373138 8.94197183,8.04968944 C8.94197183,8.3456475 8.69131491,8.5863354 8.38309859,8.5863354 Z" id="Shape"></path>
                        <path d="M10.3955767,1.81379189 C10.3213645,1.7244024 10.2075494,1.67226335 10.0869597,1.67226335 L2.41957029,1.67226335 L2.06678621,0.283172649 C2.02458393,0.117182859 1.86686774,0 1.68551253,0 L0.391977754,0 C0.175481269,0 0,0.165123053 0,0.36886406 C0,0.572605067 0.175481269,0.737747381 0.391977754,0.737747381 L1.37611781,0.737747381 L2.65004551,5.75409443 C2.69224779,5.92021905 2.84996399,6.03726708 3.03131919,6.03726708 L9.13315127,6.03726708 C9.31333987,6.03726708 9.47038066,5.92168287 9.51362675,5.7571569 L10.4674557,2.12978499 C10.4963137,2.01963233 10.4697889,1.90318138 10.3955767,1.81379189 Z M8.82647861,5.2995197 L3.34071392,5.2995197 L2.60692223,2.41002999 L9.58611971,2.41002999 L8.82647861,5.2995197 Z" id="Shape"></path>
                        <path d="M3.49295775,6.70807453 C2.72253733,6.70807453 2.09577465,7.30993088 2.09577465,8.04968944 C2.09577465,8.789448 2.72255921,9.39130435 3.49295775,9.39130435 C4.26335628,9.39130435 4.89014085,8.789448 4.89014085,8.04968944 C4.89014085,7.30993088 4.26335628,6.70807453 3.49295775,6.70807453 Z M3.49295775,8.5863354 C3.18474143,8.5863354 2.93408451,8.3456475 2.93408451,8.04968944 C2.93408451,7.75373138 3.18474143,7.51304348 3.49295775,7.51304348 C3.80117406,7.51304348 4.05183099,7.75373138 4.05183099,8.04968944 C4.05183099,8.3456475 3.80117406,8.5863354 3.49295775,8.5863354 Z" id="Shape"></path>
                    </g>
                </g>
                <g id="Group-6" stroke-width="0.873239437">
                    <path d="M8.04287663,10.8110012 C9.59117379,10.8110012 10.8463166,9.55585833 10.8463166,8.00756117 C10.8463166,6.45926401 9.59117379,5.20412116 8.04287663,5.20412116 C6.49457946,5.20412116 5.23943662,6.45926401 5.23943662,8.00756117 C5.23943662,9.55585833 6.49457946,10.8110012 8.04287663,10.8110012 Z M11.5471766,11.5118612 L10.0228061,9.98749067" id="Combined-Shape-Copy-4" stroke-opacity="0.5" stroke="#1E3D49" stroke-linecap="round" stroke-linejoin="round"></path>
                    <ellipse id="Oval" stroke="#8E9EA4" cx="8.29577465" cy="8.26086957" rx="7.85915493" ry="7.82424985"></ellipse>
                </g>
                <g id="Group-4-Copy" transform="translate(45.408451, 2.608696)">
                    <rect id="Rectangle-Copy-3" fill="#8E9EA4" x="0" y="0" width="30.5633803" height="8.69565217" rx="4.34782609"></rect>
                    <g id="Group-5" transform="translate(4.293427, 1.811594)" stroke="#FFFFFF" stroke-linecap="round" stroke-linejoin="round" stroke-width="0.736143465">
                        <line x1="5.23943662" y1="2.60869565" x2="0" y2="2.60869565" id="Path-Copy-2"></line>
                        <line x1="2.61971831" y1="5.2173913" x2="2.61971831" y2="-6.42320072e-16" id="Path-Copy" transform="translate(2.619718, 2.608696) rotate(0.000000) translate(-2.619718, -2.608696) "></line>
                    </g>
                </g>
                <g id="Group-3" transform="translate(88.197183, 13.560176)">
                    <rect id="Rectangle-Copy" fill="#FFFFFF" x="0" y="0" width="35.8028169" height="19.3540373" rx="1.90057995"></rect>
                    <rect id="Rectangle-Copy" fill="#8E9EA4" x="3.06881288" y="2.94577808" width="9.20643863" height="10.1863354" rx="0.873239437"></rect>
                    <rect id="Rectangle-Copy-7" fill="#8E9EA4" x="13.2981891" y="2.94577808" width="9.20643863" height="10.1863354" rx="0.873239437"></rect>
                    <rect id="Rectangle-Copy-9" fill="#8E9EA4" x="23.5275654" y="2.94577808" width="9.20643863" height="10.1863354" rx="0.873239437"></rect>
                    <rect id="Rectangle-Copy-5" fill="#8E9EA4" x="3.06881288" y="14.150747" width="9.20643863" height="2.03726708" rx="0.873239437"></rect>
                    <rect id="Rectangle-Copy-8" fill="#8E9EA4" x="13.2981891" y="14.150747" width="9.20643863" height="2.03726708" rx="0.873239437"></rect>
                    <rect id="Rectangle-Copy-10" fill="#8E9EA4" x="23.5275654" y="14.150747" width="9.20643863" height="2.03726708" rx="0.873239437"></rect>
                </g>
                <g id="Group-2" transform="translate(20.957746, 46.956522)">
                    <rect id="Rectangle" fill="#FFFFFF" x="0" y="0" width="25.3239437" height="33.0434783" rx="2.61971831"></rect>
                    <rect id="Rectangle" fill="#8E9EA4" x="2.48273957" y="2.39445495" width="20.3584645" height="14.3667297" rx="1.90057995"></rect>
                    <rect id="Rectangle-Copy-2" fill="#8E9EA4" x="2.48273957" y="18.6767486" width="20.3584645" height="2.39445495" rx="1.19722747"></rect>
                    <rect id="Rectangle-Copy-6" fill="#8E9EA4" x="2.73101353" y="22.70589" width="13.9033416" height="1" rx="0.5"></rect>
                    <rect id="Rectangle-Copy-11" fill="#8E9EA4" x="2.73101353" y="24.621454" width="7.44821872" height="1" rx="0.5"></rect>
                    <rect id="Rectangle-Copy-4" fill="#8E9EA4" x="2.48273957" y="28.2545684" width="20.3584645" height="2.39445495" rx="1.19722747"></rect>
                </g>
            </g>
        </g>
    </g>
</svg>