<?xml version="1.0" encoding="UTF-8"?>
<svg width="148px" height="74px" viewBox="0 0 148 74" version="1.1" xmlns="http://www.w3.org/2000/svg" xmlns:xlink="http://www.w3.org/1999/xlink">
    <title>Group 149</title>
    <g id="Diagrams&amp;Illustrations" stroke="none" stroke-width="1" fill="none" fill-rule="evenodd">
        <g id="UI-Reference-Cards" transform="translate(-1019.000000, -560.000000)">
            <g id="Group-149" transform="translate(1019.000000, 560.000000)">
                <path d="M3.7,0 L144.3,0 C146.343454,-3.75376332e-16 148,1.65654643 148,3.7 L148,37 L148,37 L0,37 L0,3.7 C-2.50250888e-16,1.65654643 1.65654643,-4.06551577e-15 3.7,0 Z" id="Rectangle-Copy-10" fill="#8E9EA4"></path>
                <path d="M0,37 L148,37 L148,70.3 C148,72.3434536 146.343454,74 144.3,74 L3.7,74 C1.65654643,74 2.47069694e-15,72.3434536 0,70.3 L0,37 L0,37 Z" id="Rectangle" fill="#FFFFFF"></path>
                <line x1="0.4625" y1="13.4125" x2="147.5375" y2="13.4125" id="Line" stroke="#FFFFFF" stroke-width="0.925" opacity="0.342447917" stroke-linecap="square"></line>
                <g id="Group" transform="translate(6.012500, 18.500000)">
                    <rect id="Rectangle-Copy" stroke="#E2E6E7" stroke-width="0.653890909" fill="#FFFFFF" x="32.2394455" y="0.326945455" width="101.096109" height="12.2961091" rx="6.14805455"></rect>
                    <g id="icon/arrow" transform="translate(13.875000, 4.625000)" stroke="#E2E6E7" stroke-linecap="round" stroke-linejoin="round" stroke-width="0.925">
                        <line x1="0" y1="2.775" x2="7.46166721" y2="2.775" id="Path-47"></line>
                        <polyline id="Path-48" points="5.55 0 8.325 2.775 5.55 5.55"></polyline>
                    </g>
                    <g id="icon/arrow-copy" transform="translate(4.162500, 7.400000) rotate(-180.000000) translate(-4.162500, -7.400000) translate(0.000000, 4.625000)" stroke="#E2E6E7" stroke-linecap="round" stroke-linejoin="round" stroke-width="0.925">
                        <line x1="0" y1="2.775" x2="7.46166721" y2="2.775" id="Path-47"></line>
                        <polyline id="Path-48" points="5.55 0 8.325 2.775 5.55 5.55"></polyline>
                    </g>
                    <text id="https://" font-family="Montserrat-SemiBold, Montserrat" font-size="7.4" font-weight="500" fill="#8E9EA4">
                        <tspan x="37.4625" y="8.85">https://</tspan>
                    </text>
                </g>
                <circle id="Oval" fill="#E2E6E7" cx="8.325" cy="6.475" r="2.775"></circle>
                <circle id="Oval-Copy" fill="#E2E6E7" cx="15.725" cy="6.475" r="2.775"></circle>
                <circle id="Oval-Copy-2" fill="#E2E6E7" cx="23.125" cy="6.475" r="2.775"></circle>
            </g>
        </g>
    </g>
</svg>