<svg width="390" height="309" viewBox="38 0 390 309" xmlns="http://www.w3.org/2000/svg" xmlns:xlink="http://www.w3.org/1999/xlink">
    <defs>
        <path d="M46.598 0c-5.523 0-10.79 4.484-11.763 10.016L.156 206.984C-.818 212.516 2.87 217 8.393 217h305.009c5.523 0 10.79-4.484 11.763-10.016l34.68-196.968C360.817 4.484 357.13 0 351.606 0H46.598z" id="b"/>
        <path d="M18.284 0c-1.472 0-2.877 1.196-3.137 2.67L.042 88.47c-.26 1.475.723 2.67 2.196 2.67h96.67c1.472 0 2.877-1.195 3.137-2.67L117.15 2.67c.26-1.475-.723-2.671-2.196-2.671h-96.67z" id="d"/>
        <path d="M24.854 0C19.33 0 14.064 4.484 13.09 10.016L.041 84.129c-.259 1.475.725 2.67 2.197 2.67h319.676c1.473 0 2.877-1.195 3.137-2.67L338.1 10.016C339.073 4.484 335.386 0 329.863 0H24.853z" id="f"/>
        <path d="M84.045 0h-.11c-3.18.06-6.19 2.652-6.752 5.843l-2.25 12.777-1.416-3.675-.959.49 2.06 5.342.3.776.572-.776 3.94-5.341-.785-.491-2.712 3.675 2.25-12.777.02-.106c.518-2.625 3.031-4.735 5.666-4.735H274.157c2.611.057 4.341 2.202 3.877 4.84l-32.27 183.282-.019.105c-.518 2.625-3.032 4.735-5.666 4.735H4.967c-2.61-.057-4.34-2.202-3.876-4.84L25.97 47.815l1.417 3.676.958-.491-2.06-5.342-.299-.775-.572.775L21.474 51l.784.491 2.712-3.676L.09 189.124l-.017.11c-.501 3.176 1.638 5.732 4.823 5.732H240.013c3.181-.06 6.19-2.652 6.752-5.842L279.033 5.843l.019-.11c.5-3.176-1.638-5.733-4.823-5.733H84.045z" id="h"/>
        <path d="m28.63.776-3.942 5.342.786.49 2.711-3.675-1.427 8.104-.02.105c-.517 2.625-3.03 4.736-5.665 4.736h-16l-.105-.001c-2.612-.056-4.341-2.202-3.877-4.84l1.705-9.682h-1L.09 11.037l-.018.11c-.501 3.176 1.638 5.733 4.823 5.733h16l.11-.002c3.181-.058 6.19-2.651 6.753-5.841l1.426-8.103 1.417 3.675.959-.491L29.5.776 29.2 0l-.572.776z" id="j"/>
        <path d="M39.942.776 36 6.118l.786.49 2.71-3.675-1.426 8.104-.02.105c-.518 2.625-3.031 4.736-5.666 4.736H7.051l-.105-.001c-2.61-.056-4.34-2.202-3.876-4.84l1.427-8.103 1.417 3.675.958-.491L4.812.776 4.513 0l-.572.776L0 6.118l.786.49 2.71-3.674-1.426 8.103-.018.11C1.55 14.323 3.69 16.88 6.875 16.88h25.334l.11-.002c3.181-.058 6.19-2.651 6.752-5.841l1.427-8.103 1.417 3.675.958-.491-2.06-5.342L40.515 0l-.572.776z" id="l"/>
        <path d="m44.942.776-3.94 5.342.784.49 2.712-3.675-1.427 8.104-.02.105c-.518 2.625-3.032 4.736-5.666 4.736H7.051l-.105-.001c-2.61-.056-4.34-2.202-3.876-4.84l1.426-8.103 1.418 3.675.958-.491L4.812.776 4.512 0 3.94.776 0 6.118l.785.49 2.711-3.674-1.426 8.103-.019.11c-.5 3.176 1.638 5.733 4.824 5.733h30.334l.11-.002c3.181-.058 6.19-2.651 6.752-5.841l1.427-8.103 1.417 3.675.958-.491-2.06-5.342L45.514 0l-.572.776z" id="n"/>
        <path d="m18.495.776-3.94 5.341.784.491 2.712-3.675L6.529 68.375l-.02.105c-.518 2.625-3.032 4.736-5.666 4.736H.176L0 74.217h.777c3.18-.06 6.19-2.653 6.752-5.842L19.05 2.933l1.417 3.675.958-.49-2.06-5.342-.3-.776-.571.776z" id="p"/>
        <path d="m15.363.776-3.94 5.341.784.491 2.712-3.675L.09 87.153c-.562 3.19 1.534 5.783 4.695 5.842l.11.001H35.32l-4.034 2.067.337.873 5.862-3.004.852-.437-.698-.436-4.804-3.005-.644.873 3.306 2.068H5.072c-2.635 0-4.405-2.111-3.999-4.736l.018-.106 14.828-84.22 1.417 3.675.958-.49-2.06-5.342L15.935 0l-.572.776z" id="r"/>
        <path d="M6.602 0C5.13 0 3.725 1.196 3.465 2.67L.042 22.118c-.26 1.476.723 2.671 2.196 2.671h83.67c1.472 0 2.876-1.195 3.136-2.67L92.468 2.67C92.728 1.196 91.744 0 90.272 0H6.602z" id="t"/>
        <path d="M6.602 0C5.13 0 3.725 1.196 3.465 2.671L.042 22.117c-.26 1.475.723 2.671 2.196 2.671h83.503c1.472 0 2.877-1.196 3.136-2.67L92.301 2.67C92.561 1.196 91.578 0 90.105 0H6.602z" id="v"/>
        <path d="M5.206 0C3.734 0 2.33 1.196 2.07 2.67L.042 14.19c-.26 1.475.723 2.67 2.196 2.67h71.335c1.473 0 2.878-1.195 3.137-2.67L78.738 2.67C78.998 1.196 78.015 0 76.542 0H5.206z" id="x"/>
        <path d="M5.206 0C3.733 0 2.33 1.196 2.07 2.67L.042 14.189c-.26 1.476.723 2.671 2.196 2.671h71.335c1.473 0 2.878-1.195 3.137-2.67L78.738 2.67C78.998 1.196 78.014 0 76.542 0H5.206z" id="z"/>
        <path d="M5.206 0C3.733 0 2.33 1.196 2.07 2.67L.042 14.189c-.26 1.475.723 2.671 2.196 2.671h71.335c1.473 0 2.878-1.196 3.138-2.67L78.738 2.67C78.998 1.196 78.014 0 76.542 0H5.206z" id="B"/>
        <path d="M.12 7.687c-.748 4.246 2.083 7.688 6.322 7.688s8.281-3.442 9.029-7.688C16.218 3.442 13.388 0 9.149 0 4.909 0 .867 3.442.119 7.687z" id="D"/>
        <path d="M.12 7.687c-.748 4.246 2.083 7.688 6.322 7.688s8.281-3.442 9.029-7.688C16.218 3.442 13.388 0 9.149 0 4.909 0 .867 3.442.119 7.687z" id="F"/>
        <path id="H" d="M1.243 0 0 7.061h24.334L25.577 0z"/>
        <path id="J" d="M1.243 0 0 7.061h24.334L25.577 0z"/>
        <path id="L" d="M1.243 0 0 7.061h24.334L25.577 0z"/>
        <path id="N" d="M1.243 0 0 7.061h24.334L25.577 0z"/>
        <path d="M6.617 0C5.144 0 3.74 1.196 3.48 2.67L.042 22.2c-.26 1.476.723 2.672 2.196 2.672h32.668c1.473 0 2.877-1.196 3.137-2.671l3.438-19.53C41.741 1.196 40.758 0 39.285 0H6.617z" id="P"/>
        <path d="M6.617 0C5.144 0 3.74 1.196 3.48 2.67L.042 22.2c-.26 1.476.724 2.672 2.196 2.672H40.24c1.473 0 2.877-1.196 3.137-2.671l3.439-19.53C47.075 1.196 46.09 0 44.618 0h-38z" id="R"/>
        <path d="M6.617 0C5.144 0 3.74 1.196 3.48 2.67L.042 22.2c-.26 1.476.724 2.672 2.196 2.672H63.24c1.472 0 2.877-1.196 3.137-2.671l3.438-19.53C70.075 1.196 69.092 0 67.62 0H6.617z" id="T"/>
        <path d="M6.617 0C5.144 0 3.74 1.196 3.48 2.67L.042 22.2c-.26 1.476.723 2.672 2.196 2.672h40.334c1.473 0 2.878-1.196 3.138-2.671l3.438-19.53C49.408 1.196 48.424 0 46.952 0H6.617z" id="V"/>
        <path d="M6.617 0C5.144 0 3.74 1.196 3.48 2.67L.042 22.2c-.26 1.476.723 2.672 2.196 2.672h31.334c1.473 0 2.878-1.196 3.137-2.671l3.44-19.53C40.406 1.196 39.423 0 37.95 0H6.617z" id="X"/>
        <path d="M6.617 0C5.144 0 3.74 1.196 3.48 2.67L.042 22.2c-.26 1.476.723 2.672 2.196 2.672h29.334c1.473 0 2.878-1.196 3.138-2.671l3.438-19.53C38.408 1.196 37.424 0 35.95 0H6.617z" id="Z"/>
        <filter x="-17.2%" y="-28.6%" width="134.4%" height="157.1%" filterUnits="objectBoundingBox" id="a">
            <feOffset dx="8" dy="8" in="SourceAlpha" result="shadowOffsetOuter1"/>
            <feGaussianBlur stdDeviation="12" in="shadowOffsetOuter1" result="shadowBlurOuter1"/>
            <feColorMatrix values="0 0 0 0 0.117647059 0 0 0 0 0.239215686 0 0 0 0 0.28627451 0 0 0 0.1 0" in="shadowBlurOuter1" result="shadowMatrixOuter1"/>
            <feMerge>
                <feMergeNode in="shadowMatrixOuter1"/>
                <feMergeNode in="SourceGraphic"/>
            </feMerge>
        </filter>
    </defs>
    <g filter="url(#a)" transform="translate(46 46)" fill="none" fill-rule="evenodd">
        <g>
            <mask id="c" fill="#fff">
                <use xlink:href="#b"/>
            </mask>
            <path fill="#E1E5E5" mask="url(#c)" d="M36.323-.334H362l-38.323 217.668H-2z"/>
        </g>
        <g transform="translate(181.044 106.163)">
            <mask id="e" fill="#fff">
                <use xlink:href="#d"/>
            </mask>
            <path fill="#BAC2C5" mask="url(#e)" d="M15.343-.334h102.67l-16.164 91.807H-.821z"/>
        </g>
        <g transform="translate(21.744)">
            <mask id="g" fill="#fff">
                <use xlink:href="#f"/>
            </mask>
            <path fill="#1E3D49" mask="url(#g)" d="M14.579-.334h325.676l-15.4 87.468H-.82z"/>
        </g>
        <g transform="translate(40.996 7.845)">
            <mask id="i" fill="#fff">
                <use xlink:href="#h"/>
            </mask>
            <path fill="#FEFEFE" mask="url(#i)" d="M30.178-.334h250.276L246.011 195.3H-4.266z"/>
        </g>
        <g transform="translate(72.9 52.06)">
            <mask id="k" fill="#fff">
                <use xlink:href="#j"/>
            </mask>
            <path fill="#FEFEFE" mask="url(#k)" d="M1.76-.334h31.27l-3.09 17.547H-1.33z"/>
        </g>
        <g transform="translate(118.255 52.06)">
            <mask id="m" fill="#fff">
                <use xlink:href="#l"/>
            </mask>
            <path fill="#FEFEFE" mask="url(#m)" d="M.803-.334h43.54l-3.09 17.547h-43.54z"/>
        </g>
        <g transform="translate(228.259 52.06)">
            <mask id="o" fill="#fff">
                <use xlink:href="#n"/>
            </mask>
            <path fill="#FEFEFE" mask="url(#o)" d="M.802-.334h48.54l-3.09 17.547H-2.286z"/>
        </g>
        <path fill="#FEFEFE" d="m111.848 52.92-3.941 5.34.785.492 2.712-3.675-10.611 60.267h1l10.61-60.267 1.418 3.675.958-.491-2.06-5.341-.299-.777zM223.934 52.92l-3.94 5.34.785.492 2.711-3.675-8.393 47.672-1.417-3.675-.958.49 2.06 5.342.298.776.573-.776 3.94-5.341-.785-.491-2.711 3.675 8.393-47.672 1.417 3.675.958-.491-2.06-5.341-.298-.777zM281.436 52.92l-3.94 5.34.785.492 2.71-3.675-10.61 60.267h1l10.61-60.267 1.418 3.675.958-.491-2.06-5.341-.299-.777zM145.103 164.262l-.851.436.698.437 4.804 3.004.644-.873-3.306-2.068H197.268l.177-1h-50.177l4.035-2.068-.337-.873z"/>
        <g transform="translate(150.438 52.144)">
            <mask id="q" fill="#fff">
                <use xlink:href="#p"/>
            </mask>
            <path fill="#FEFEFE" mask="url(#q)" d="M12.792-.334h10.103L9.71 74.551H-.392z"/>
        </g>
        <g transform="translate(163.903 52.144)">
            <mask id="s" fill="#fff">
                <use xlink:href="#r"/>
            </mask>
            <path fill="#FEFEFE" mask="url(#s)" d="M-4.784 96.27h42.79L55.016-.334h-42.79z"/>
        </g>
        <g transform="translate(58.773 115.344)">
            <mask id="u" fill="#fff">
                <use xlink:href="#t"/>
            </mask>
            <path fill="#1E3D49" mask="url(#u)" d="M3.661-.334h89.67l-4.482 25.456H-.821z"/>
        </g>
        <g fill="#FEFEFE">
            <path d="M93.16 127.98c.054-.438.119-.967.193-1.36h-.014c-.172.37-.372.762-.608 1.197l-.824 1.53h-.309l-.245-1.502a12.91 12.91 0 0 1-.148-1.225h-.01c-.078.393-.194.922-.305 1.394l-.322 1.351h-.388l.774-3.152h.519l.268 1.525c.063.388.11.734.131 1.061h.014c.135-.318.308-.664.518-1.061l.829-1.525h.518l-.358 3.152h-.397l.164-1.384zM94.57 126.213h.407l-.495 2.81h1.345l-.06.342h-1.751zM95.924 129.552l1.9-3.39h.318l-1.905 3.39zM97.86 128.87c.162.112.412.205.692.205.415 0 .697-.22.753-.538.052-.294-.086-.463-.483-.626-.481-.182-.752-.45-.673-.894.086-.49.556-.855 1.168-.855.322 0 .543.075.669.154l-.17.332a1.1 1.1 0 0 0-.572-.15c-.43 0-.638.258-.676.473-.052.294.114.44.519.608.496.206.72.463.64.926-.086.486-.52.907-1.262.907-.304 0-.62-.089-.768-.201l.163-.341zM102.347 129.262c-.163.075-.475.15-.858.15-.887 0-1.456-.561-1.274-1.595.174-.986.96-1.655 1.935-1.655.392 0 .625.084.722.14l-.156.332a1.326 1.326 0 0 0-.612-.13c-.738 0-1.31.471-1.457 1.3-.136.77.22 1.267.986 1.267.248 0 .51-.052.686-.131l.028.322zM103.797 126.213l-.555 3.152h-.406l.555-3.152zM105.841 127.887h-1.223l-.2 1.137h1.364l-.06.341h-1.77l.554-3.152h1.7l-.06.342h-1.293l-.176.996h1.224zM106.247 129.365l.555-3.152h.444l.728 1.595c.168.37.292.702.384 1.024l.01-.005c.037-.42.095-.804.182-1.295l.232-1.319h.383l-.555 3.152h-.41l-.719-1.6a8.177 8.177 0 0 1-.402-1.051l-.015.004c-.047.398-.104.776-.196 1.3l-.238 1.347h-.383zM111.536 129.262c-.163.075-.475.15-.858.15-.887 0-1.456-.561-1.274-1.595.174-.986.959-1.655 1.935-1.655.393 0 .625.084.723.14l-.157.332a1.327 1.327 0 0 0-.612-.13c-.738 0-1.311.471-1.457 1.3-.136.77.22 1.267.986 1.267.248 0 .509-.052.686-.131l.028.322zM113.915 127.887h-1.224l-.2 1.137h1.364l-.06.341h-1.77l.555-3.152h1.7l-.06.342h-1.294l-.175.996h1.223z"/>
        </g>
        <g transform="translate(52.327 152.429)">
            <mask id="w" fill="#fff">
                <use xlink:href="#v"/>
            </mask>
            <path fill="#1E3D49" mask="url(#w)" d="M3.661-.334h89.503l-4.482 25.456H-.821z"/>
        </g>
        <g fill="#FEFEFE">
            <path d="m62.398 163.298-.232 1.32h1.522l.232-1.32h.411l-.555 3.152h-.41l.26-1.477h-1.522l-.26 1.477h-.407l.555-3.152zM65.441 163.298l-.555 3.152h-.406l.555-3.152zM65.626 165.955c.163.112.412.205.693.205.415 0 .696-.22.753-.537.051-.295-.087-.463-.483-.627-.482-.182-.752-.449-.674-.893.086-.491.557-.856 1.168-.856.323 0 .543.075.67.155l-.171.331a1.097 1.097 0 0 0-.572-.15c-.429 0-.638.258-.676.473-.052.295.114.44.519.608.496.206.721.463.64.926-.086.486-.52.907-1.262.907-.303 0-.619-.089-.767-.201l.162-.341zM68.946 163.645h-.958l.061-.347h2.33l-.06.347h-.963l-.493 2.805h-.411zM70.653 164.893c-.119.674.14 1.277.779 1.277.644 0 1.113-.594 1.239-1.31.11-.626-.101-1.281-.778-1.281-.673 0-1.118.622-1.24 1.314m2.45-.051c-.19 1.085-.95 1.66-1.753 1.66-.83 0-1.3-.646-1.133-1.6.176-1 .912-1.655 1.753-1.655.859 0 1.298.66 1.134 1.595M74.048 164.776h.415c.434 0 .752-.238.815-.598.072-.407-.191-.585-.62-.59-.196 0-.34.02-.408.038l-.202 1.15zm-.154-1.436c.213-.042.511-.065.791-.065.435 0 .701.08.866.257.134.14.185.356.142.599-.073.416-.384.692-.735.805l-.002.014c.228.084.333.308.35.635.025.44.046.744.09.865h-.42c-.036-.089-.058-.36-.078-.752-.016-.435-.156-.599-.522-.613h-.383l-.24 1.365h-.406l.547-3.11zM76.516 166.45l.235-1.337-.675-1.814h.462l.291.87c.08.238.139.43.198.65h.01c.124-.206.268-.412.432-.65l.605-.87h.463l-1.374 1.809-.236 1.342h-.411zM77.79 167.025c.152-.275.366-.776.477-1.117l.466-.047c-.177.398-.474.917-.643 1.136l-.3.028zM81.219 163.645h-.957l.06-.347h2.33l-.06.347h-.962l-.494 2.805h-.411zM83.147 164.776h.416c.435 0 .752-.238.815-.598.072-.407-.191-.585-.62-.59-.196 0-.34.02-.408.038l-.203 1.15zm-.153-1.436a4.42 4.42 0 0 1 .791-.065c.435 0 .7.08.866.257.134.14.185.356.142.599-.073.416-.383.692-.735.805l-.002.014c.228.084.333.308.35.635.025.44.046.744.09.865h-.42c-.035-.089-.058-.36-.077-.752-.017-.435-.157-.599-.523-.613h-.383l-.24 1.365h-.407l.548-3.11zM86.847 164.973h-1.223l-.2 1.136h1.363l-.06.341h-1.77l.555-3.152h1.7l-.06.342h-1.294l-.175.996h1.223zM87.253 166.45l.555-3.151h.444l.728 1.594c.168.37.292.702.384 1.024l.01-.004c.037-.421.095-.805.182-1.296l.232-1.318h.383l-.555 3.151h-.411l-.718-1.6a8.18 8.18 0 0 1-.403-1.051l-.014.004c-.047.398-.104.777-.196 1.3l-.238 1.347h-.383zM90.787 166.128c.1.019.248.023.407.023.868 0 1.425-.486 1.575-1.337.136-.744-.2-1.216-1.06-1.216-.21 0-.372.019-.484.042l-.438 2.488zm.084-2.788a6.11 6.11 0 0 1 .876-.065c.584 0 .975.136 1.205.393.235.257.334.622.245 1.132-.09.514-.324.935-.669 1.225-.346.294-.86.454-1.47.454-.29 0-.53-.015-.732-.038l.545-3.1zM93.463 165.955c.163.112.412.205.692.205.416 0 .697-.22.754-.537.051-.295-.087-.463-.483-.627-.482-.182-.752-.449-.674-.893.086-.491.557-.856 1.168-.856.323 0 .543.075.67.155l-.171.331a1.098 1.098 0 0 0-.572-.15c-.43 0-.638.258-.676.473-.052.295.114.44.519.608.496.206.721.463.64.926-.086.486-.52.907-1.262.907-.303 0-.619-.089-.768-.201l.163-.341zM95.445 167.025c.15-.275.366-.776.477-1.117l.466-.047c-.178.398-.475.917-.644 1.136l-.3.028zM98.468 164.856c.085.023.195.033.33.033.49 0 .832-.239.908-.674.074-.416-.185-.617-.633-.617-.178 0-.316.014-.39.033l-.215 1.225zm-.138-1.52c.202-.033.463-.06.79-.06.402 0 .68.093.837.261.146.15.208.379.159.66-.05.285-.174.51-.361.673-.256.23-.626.346-1.023.346-.122 0-.233-.005-.322-.028l-.222 1.262h-.407l.549-3.114zM100.923 164.776h.416c.434 0 .751-.238.815-.598.071-.407-.192-.585-.62-.59-.196 0-.34.02-.408.038l-.203 1.15zm-.153-1.436a4.42 4.42 0 0 1 .791-.065c.434 0 .7.08.865.257.134.14.185.356.142.599-.073.416-.383.692-.735.805l-.002.014c.228.084.333.308.35.635.026.44.047.744.091.865h-.42c-.036-.089-.058-.36-.078-.752-.017-.435-.156-.599-.523-.613h-.382l-.24 1.365h-.407l.548-3.11zM104.623 164.973h-1.224l-.2 1.136h1.364l-.06.341h-1.77l.555-3.152h1.7l-.06.342h-1.294l-.175.996h1.223zM105.492 166.128c.1.019.248.023.407.023.868 0 1.425-.486 1.575-1.337.136-.744-.201-1.216-1.06-1.216-.21 0-.372.019-.484.042l-.438 2.488zm.084-2.788a6.11 6.11 0 0 1 .876-.065c.584 0 .975.136 1.205.393.235.257.334.622.245 1.132-.091.514-.324.935-.67 1.225-.345.294-.858.454-1.47.454-.29 0-.53-.015-.731-.038l.545-3.1zM109.098 163.298l-.555 3.152h-.406l.555-3.152zM111.47 166.347c-.163.075-.475.15-.858.15-.887 0-1.456-.56-1.274-1.595.174-.986.959-1.655 1.935-1.655.392 0 .625.084.722.14l-.156.332a1.327 1.327 0 0 0-.612-.13c-.738 0-1.311.472-1.457 1.3-.136.771.22 1.267.986 1.267.248 0 .509-.052.686-.131l.028.322zM113.018 163.645h-.957l.06-.347h2.33l-.06.347h-.962l-.494 2.805h-.411zM115.207 163.298l-.555 3.152h-.406l.554-3.152zM116.02 166.45l-.473-3.151h.44l.216 1.552c.06.426.11.81.129 1.178h.009c.153-.364.354-.762.566-1.173l.807-1.557h.434l-1.68 3.151h-.449zM119.757 164.973h-1.224l-.2 1.136h1.364l-.06.341h-1.77l.555-3.152h1.7l-.06.342h-1.294l-.175.996h1.223z"/>
        </g>
        <g transform="translate(204.874 116.095)">
            <mask id="y" fill="#fff">
                <use xlink:href="#x"/>
            </mask>
            <path fill="#FEFEFE" mask="url(#y)" d="M2.265-.334h77.336l-3.086 17.527H-.821z"/>
        </g>
        <g fill="#1E3D49">
            <path d="M231.28 125.67c.163.112.412.206.692.206.416 0 .697-.22.754-.538.051-.295-.087-.463-.483-.627-.482-.182-.753-.449-.674-.893.086-.491.557-.855 1.169-.855.322 0 .542.074.668.154l-.17.332a1.097 1.097 0 0 0-.572-.15c-.43 0-.638.257-.676.472-.052.295.114.44.519.608.496.206.721.463.64.926-.086.486-.52.907-1.262.907-.304 0-.62-.089-.768-.2l.163-.342zM234.6 123.36h-.958l.061-.346h2.33l-.06.346h-.963l-.494 2.806h-.41zM237.44 124.856l-.149-.907c-.034-.206-.047-.393-.062-.575h-.01c-.079.187-.164.379-.258.57l-.47.912h.949zm-1.088.318-.502.992h-.42l1.624-3.153h.49l.52 3.153h-.434l-.162-.992h-1.116zM239.453 123.36h-.957l.06-.346h2.33l-.06.346h-.962l-.494 2.806h-.411zM241.642 123.014l-.555 3.151h-.407l.555-3.151zM241.827 125.67c.163.112.412.206.692.206.416 0 .697-.22.753-.538.052-.295-.086-.463-.482-.627-.482-.182-.753-.449-.674-.893.086-.491.557-.855 1.168-.855.322 0 .543.074.67.154l-.172.332a1.097 1.097 0 0 0-.571-.15c-.43 0-.638.257-.676.472-.052.295.114.44.519.608.496.206.721.463.64.926-.086.486-.52.907-1.262.907-.304 0-.62-.089-.768-.2l.163-.342zM245.146 123.36h-.957l.06-.346h2.331l-.061.346h-.962l-.494 2.806h-.41zM247.335 123.014l-.555 3.151h-.406l.555-3.151zM249.707 126.063c-.163.075-.475.15-.858.15-.887 0-1.456-.562-1.274-1.595.174-.987.96-1.656 1.935-1.656.392 0 .625.085.723.14l-.157.333a1.326 1.326 0 0 0-.612-.131c-.738 0-1.311.472-1.457 1.3-.136.771.22 1.267.986 1.267.248 0 .509-.051.686-.13l.028.322zM250.218 125.67c.163.112.412.206.692.206.416 0 .697-.22.753-.538.052-.295-.086-.463-.482-.627-.482-.182-.753-.449-.674-.893.086-.491.557-.855 1.168-.855.322 0 .543.074.669.154l-.17.332a1.097 1.097 0 0 0-.572-.15c-.43 0-.638.257-.676.472-.052.295.114.44.519.608.496.206.72.463.64.926-.086.486-.52.907-1.262.907-.304 0-.62-.089-.768-.2l.163-.342z"/>
        </g>
        <g transform="translate(201.328 136.237)">
            <mask id="A" fill="#fff">
                <use xlink:href="#z"/>
            </mask>
            <path fill="#FEFEFE" mask="url(#A)" d="M2.265-.334h77.336l-3.086 17.527H-.821z"/>
        </g>
        <g fill="#1E3D49">
            <path d="M223.016 146.205c-.163.075-.475.15-.858.15-.887 0-1.456-.562-1.274-1.595.173-.987.959-1.655 1.935-1.655.392 0 .625.084.722.14l-.156.332a1.327 1.327 0 0 0-.612-.131c-.738 0-1.311.472-1.457 1.3-.136.771.22 1.267.986 1.267.248 0 .509-.051.686-.13l.028.322zM223.961 144.75c-.119.674.14 1.277.78 1.277.643 0 1.112-.594 1.238-1.31.11-.626-.1-1.28-.778-1.28-.672 0-1.118.622-1.24 1.314m2.451-.052c-.19 1.085-.95 1.66-1.754 1.66-.83 0-1.3-.645-1.133-1.6.176-1 .913-1.654 1.753-1.654.86 0 1.299.659 1.134 1.594M226.655 146.308l.555-3.152h.443l.728 1.595c.168.369.292.701.385 1.024l.01-.005c.037-.42.095-.805.181-1.295l.232-1.319h.384l-.556 3.152h-.41l-.718-1.6a8.134 8.134 0 0 1-.403-1.052l-.015.005c-.047.398-.104.776-.196 1.3l-.237 1.347h-.383zM230.817 143.502h-.957l.061-.346h2.33l-.061.346h-.962l-.494 2.806h-.41zM233.935 144.83h-1.224l-.2 1.136h1.364l-.06.342h-1.77l.555-3.152h1.7l-.06.341h-1.294l-.175.996h1.223zM236.031 146.308l-.279-.697a10 10 0 0 1-.254-.622h-.01c-.12.182-.239.351-.45.627l-.5.692h-.468l1.243-1.595-.65-1.557h.471l.285.739c.081.206.142.364.196.533h.014c.122-.187.227-.332.379-.533l.56-.739h.466l-1.227 1.534.696 1.618h-.472z"/>
            <path d="M237.93 143.502h-.958l.06-.346h2.331l-.061.346h-.962l-.494 2.806h-.41zM240.062 143.156l-.328 1.866c-.124.706.136 1.005.556 1.005.467 0 .82-.308.943-1.005l.328-1.866h.411l-.324 1.838c-.17.968-.75 1.365-1.43 1.365-.645 0-1.065-.37-.893-1.346l.327-1.857h.41zM243.827 144.999l-.15-.908c-.033-.206-.046-.393-.061-.575h-.01c-.08.187-.164.379-.258.57l-.47.913h.949zm-1.089.317-.5.992h-.42l1.623-3.152h.49l.52 3.152h-.435l-.161-.992h-1.117zM245.466 143.156h.406l-.495 2.81h1.345l-.06.342h-1.751zM248.075 143.156l-.555 3.152h-.406l.554-3.152zM248.056 146.07l2.197-2.559.003-.014h-1.597l.06-.341h2.124l-.044.248-2.185 2.548-.002.014h1.76l-.06.342h-2.298zM252.7 144.83h-1.224l-.2 1.136h1.364l-.06.342h-1.77l.555-3.152h1.7l-.06.341h-1.294l-.175.996h1.223z"/>
        </g>
        <g transform="translate(197.781 156.38)">
            <mask id="C" fill="#fff">
                <use xlink:href="#B"/>
            </mask>
            <path fill="#FEFEFE" mask="url(#C)" d="M2.265-.334h77.336l-3.086 17.527H-.821z"/>
        </g>
        <path fill="#1E3D49" d="M225.045 164.973h-1.223l-.2 1.136h1.363l-.06.341h-1.77l.555-3.152h1.7l-.06.342h-1.294l-.175.996h1.223zM228.347 165.066c.054-.44.12-.968.193-1.36h-.014c-.172.369-.372.762-.608 1.197l-.824 1.529h-.309l-.245-1.501a12.795 12.795 0 0 1-.148-1.226h-.01c-.078.393-.194.922-.305 1.394l-.322 1.351h-.388l.775-3.152h.518l.269 1.525c.062.388.108.734.13 1.061h.014c.135-.317.308-.663.518-1.061l.83-1.525h.517l-.358 3.152h-.397l.164-1.384zM229.89 164.856c.085.023.195.033.331.033.49 0 .831-.239.907-.674.074-.416-.185-.617-.633-.617-.178 0-.316.014-.389.033l-.216 1.225zm-.138-1.52c.201-.033.463-.06.79-.06.402 0 .68.093.836.261.147.15.21.379.16.66-.05.285-.174.51-.361.673-.256.23-.626.346-1.023.346-.122 0-.233-.005-.322-.028l-.222 1.262h-.407l.549-3.114zM233.252 165.141l-.148-.907c-.034-.206-.048-.393-.062-.575h-.01c-.08.187-.165.378-.259.57l-.469.912h.948zm-1.088.318-.501.991h-.42l1.624-3.152h.49l.519 3.152h-.434l-.162-.991h-1.116zM235.265 163.645h-.957l.06-.347h2.33l-.06.347h-.962l-.494 2.805h-.41zM237.454 163.298l-.232 1.32h1.522l.232-1.32h.411l-.555 3.152h-.41l.26-1.477h-1.523l-.26 1.477h-.406l.555-3.152zM240.497 163.298l-.555 3.152h-.406l.554-3.152zM240.478 166.212l2.197-2.558.002-.014h-1.597l.06-.342h2.125l-.044.249-2.185 2.548-.003.014h1.76l-.06.341h-2.297zM245.122 164.973h-1.224l-.2 1.136h1.364l-.06.341h-1.77l.554-3.152h1.7l-.06.342h-1.293l-.176.996h1.224z"/>
        <path d="M205.99 183.775c.114.022.284.027.465.027.993 0 1.63-.556 1.8-1.528.155-.85-.23-1.39-1.211-1.39-.24 0-.426.022-.553.048l-.5 2.843zm.097-3.184c.29-.043.632-.075 1-.075.667 0 1.115.155 1.378.449.268.294.381.71.279 1.293-.104.588-.37 1.068-.764 1.4-.395.336-.982.518-1.681.518-.331 0-.606-.016-.836-.043l.624-3.542zM210.99 182.648l-.17-1.037c-.039-.235-.054-.449-.071-.657h-.01c-.092.213-.189.433-.297.652l-.536 1.042h1.083zm-1.244.363-.572 1.133h-.48l1.855-3.601h.56l.594 3.601h-.497l-.185-1.133h-1.275zM213.29 180.938h-1.093l.07-.396h2.662l-.07.396h-1.1l-.564 3.206h-.47zM216.536 182.648l-.17-1.037c-.038-.235-.054-.449-.07-.657h-.01c-.092.213-.19.433-.297.652l-.536 1.042h1.083zm-1.243.363-.573 1.133h-.48l1.856-3.601h.56l.593 3.601h-.496l-.185-1.133h-1.275zM219.692 182.322c.097.027.223.037.377.037.56 0 .95-.272 1.038-.769.083-.475-.212-.705-.724-.705-.203 0-.36.016-.444.037l-.247 1.4zm-.158-1.737a5.6 5.6 0 0 1 .903-.069c.459 0 .776.107.955.3.168.17.239.432.183.753a1.282 1.282 0 0 1-.413.77c-.292.26-.716.394-1.169.394a1.54 1.54 0 0 1-.368-.031l-.254 1.442h-.464l.627-3.559zM222.497 182.231h.475c.496 0 .86-.272.932-.684.081-.465-.219-.668-.709-.673-.224 0-.388.021-.466.042l-.232 1.315zm-.175-1.64c.243-.048.584-.075.904-.075.496 0 .8.09.989.294.153.16.211.406.162.684-.084.475-.438.79-.84.919l-.002.016c.26.096.38.352.4.727.03.502.053.85.103.988h-.48c-.04-.101-.066-.411-.088-.86-.02-.497-.179-.684-.597-.7h-.438l-.274 1.56h-.465l.626-3.553zM225.162 182.365c-.136.77.16 1.459.89 1.459.736 0 1.272-.679 1.416-1.497.126-.716-.116-1.464-.89-1.464-.768 0-1.277.71-1.416 1.502m2.8-.059c-.218 1.24-1.086 1.897-2.003 1.897-.95 0-1.487-.738-1.295-1.828.201-1.143 1.042-1.891 2.003-1.891.982 0 1.484.753 1.296 1.822M230.774 184.027c-.186.085-.542.17-.98.17-1.013 0-1.663-.64-1.456-1.821.199-1.128 1.097-1.892 2.212-1.892.448 0 .714.096.825.16l-.179.38c-.16-.086-.4-.15-.699-.15-.843 0-1.498.54-1.665 1.486-.155.881.252 1.447 1.127 1.447.283 0 .581-.058.784-.15l.031.37zM233.493 182.456h-1.398l-.228 1.298h1.558l-.069.39h-2.022l.634-3.601h1.942l-.068.39h-1.479l-.2 1.138h1.398zM233.993 183.578c.186.128.471.235.791.235.475 0 .797-.251.86-.615.06-.337-.098-.529-.55-.715-.55-.21-.86-.514-.77-1.021.098-.562.636-.979 1.335-.979.368 0 .62.086.763.177l-.194.38a1.255 1.255 0 0 0-.653-.171c-.49 0-.73.294-.773.54-.059.336.13.502.593.694.567.235.824.529.731 1.058-.098.556-.593 1.037-1.441 1.037-.347 0-.708-.102-.877-.23l.185-.39zM236.623 183.578c.185.128.47.235.791.235.475 0 .796-.251.86-.615.06-.337-.098-.529-.551-.715-.55-.21-.86-.514-.77-1.021.099-.562.636-.979 1.335-.979.368 0 .62.086.764.177l-.195.38a1.257 1.257 0 0 0-.653-.171c-.49 0-.729.294-.772.54-.06.336.13.502.592.694.567.235.825.529.732 1.058-.098.556-.594 1.037-1.442 1.037-.347 0-.708-.102-.877-.23l.186-.39zM240.315 180.543l-.634 3.601h-.465l.634-3.601zM240.491 184.144l.634-3.601h.508l.83 1.822c.193.422.335.801.44 1.17l.012-.005c.042-.481.109-.92.207-1.48l.266-1.507h.437l-.634 3.601h-.47l-.82-1.828c-.18-.4-.347-.812-.46-1.201l-.017.005c-.053.454-.12.887-.224 1.486l-.271 1.538h-.438zM246.766 183.984a3.665 3.665 0 0 1-1.14.198c-.543 0-.967-.14-1.26-.476-.257-.3-.364-.78-.265-1.341.194-1.074 1.069-1.86 2.274-1.86.417 0 .726.091.868.166l-.18.38c-.176-.086-.404-.156-.767-.156-.875 0-1.542.545-1.7 1.448-.162.914.293 1.454 1.13 1.454.305 0 .52-.043.636-.096l.19-1.074h-.731l.066-.375h1.184l-.305 1.732zM249.665 181.328c-.045.257.037.454.158.647.4-.209.668-.401.722-.706.038-.219-.041-.464-.334-.464-.3 0-.497.245-.546.523zm.707 2.196c-.172-.235-.495-.673-.814-1.132-.214.123-.527.352-.594.731-.072.412.177.728.609.728.31 0 .595-.14.799-.327zm.456.62a9.642 9.642 0 0 1-.274-.353c-.36.289-.728.412-1.123.412-.7 0-1.022-.47-.927-1.01.087-.492.44-.828.89-1.052l.003-.017a1.076 1.076 0 0 1-.167-.753 1.083 1.083 0 0 1 1.069-.887c.448 0 .742.299.66.764-.066.38-.338.679-.959.962l-.002.016c.242.353.514.748.698 1.004.21-.25.383-.598.532-1.052h.427c-.196.566-.43 1.015-.752 1.33.156.203.307.406.48.636h-.555zM212.14 189.921c.186.128.471.235.791.235.475 0 .797-.251.86-.615.06-.336-.098-.529-.55-.715-.55-.209-.86-.513-.77-1.021.098-.561.636-.978 1.335-.978.368 0 .62.085.763.176l-.194.38a1.255 1.255 0 0 0-.653-.171c-.491 0-.73.294-.773.54-.059.336.13.502.593.694.567.235.824.529.731 1.058-.098.556-.593 1.037-1.441 1.037-.347 0-.708-.102-.877-.23l.185-.39zM215.934 187.281h-1.094l.07-.395h2.662l-.07.395h-1.099l-.564 3.206h-.47zM217.885 188.708c-.135.77.159 1.459.89 1.459.737 0 1.272-.679 1.416-1.497.126-.716-.116-1.464-.89-1.464-.768 0-1.277.711-1.416 1.502m2.8-.059c-.218 1.24-1.086 1.897-2.003 1.897-.95 0-1.487-.737-1.295-1.827.201-1.144 1.042-1.892 2.003-1.892.981 0 1.484.753 1.296 1.822M221.764 188.574h.475c.497 0 .86-.272.932-.684.082-.465-.219-.668-.709-.673-.224 0-.388.021-.466.042l-.232 1.315zm-.175-1.64c.243-.048.584-.075.904-.075.496 0 .8.09.99.294.152.16.21.406.162.684-.084.475-.439.79-.84.919l-.003.016c.26.096.38.352.4.727.03.502.053.85.104.988h-.48c-.041-.101-.067-.411-.089-.86-.02-.497-.179-.684-.597-.7h-.438l-.274 1.56h-.465l.626-3.553zM225.857 188.991l-.17-1.036c-.038-.236-.054-.45-.07-.658h-.011c-.091.214-.189.433-.297.652l-.535 1.042h1.083zm-1.243.363-.573 1.133h-.48l1.855-3.601h.56l.594 3.601h-.496l-.185-1.133h-1.275zM229.81 190.327a3.665 3.665 0 0 1-1.14.198c-.544 0-.968-.139-1.26-.476-.258-.3-.365-.78-.266-1.341.194-1.074 1.069-1.86 2.275-1.86.416 0 .725.091.867.166l-.179.38c-.177-.086-.405-.156-.768-.156-.875 0-1.542.545-1.7 1.448-.161.914.293 1.454 1.13 1.454.305 0 .52-.043.637-.096l.189-1.074h-.731l.066-.374h1.184l-.305 1.73zM232.649 188.799h-1.398l-.229 1.298h1.558l-.069.39h-2.022l.634-3.601h1.943l-.069.39h-1.478l-.2 1.138h1.397zM235.614 186.886h.465l-.425 2.41c-.168.956-.69 1.25-1.308 1.25-.171 0-.373-.037-.482-.085l.136-.38a1 1 0 0 0 .378.07c.416 0 .694-.187.819-.893l.417-2.372zM236.813 188.708c-.135.77.16 1.459.89 1.459.737 0 1.273-.679 1.417-1.497.126-.716-.116-1.464-.89-1.464-.768 0-1.277.711-1.417 1.502m2.801-.059c-.218 1.24-1.086 1.897-2.004 1.897-.95 0-1.487-.737-1.295-1.827.202-1.144 1.043-1.892 2.003-1.892.982 0 1.484.753 1.296 1.822M240.418 190.135c.088.016.22.02.386.02.48 0 .954-.175 1.046-.699.087-.492-.299-.695-.806-.695h-.384l-.242 1.374zm.304-1.726h.421c.491 0 .825-.257.886-.604.074-.422-.217-.588-.686-.588a2.12 2.12 0 0 0-.417.032l-.204 1.16zm-.205-1.475c.21-.043.537-.075.862-.075.464 0 .749.08.941.262.162.139.237.352.187.636-.061.347-.344.652-.748.79l-.002.011c.327.086.677.369.583.903-.055.31-.219.545-.431.722-.291.23-.716.336-1.303.336-.32 0-.561-.02-.712-.043l.623-3.542zM242.818 189.921c.186.128.471.235.791.235.475 0 .797-.251.86-.615.06-.336-.098-.529-.551-.715-.55-.209-.859-.513-.77-1.021.099-.561.637-.978 1.336-.978.368 0 .62.085.763.176l-.194.38a1.257 1.257 0 0 0-.653-.171c-.491 0-.73.294-.773.54-.06.336.13.502.593.694.567.235.824.529.731 1.058-.098.556-.593 1.037-1.442 1.037-.346 0-.707-.102-.877-.23l.186-.39z" fill="#233D48"/>
        <g>
            <g transform="translate(242.788 60.593)">
                <mask id="E" fill="#fff">
                    <use xlink:href="#D"/>
                </mask>
                <path fill="#FEFEFE" mask="url(#E)" d="M.903-.5H17.57l-2.88 16.358H-1.977z"/>
            </g>
            <g transform="translate(242.788 60.593)">
                <mask id="G" fill="#fff">
                    <use xlink:href="#F"/>
                </mask>
                <path d="M6.442 15.375c4.239 0 8.281-3.442 9.029-7.688C16.219 3.442 13.388 0 9.149 0 4.909 0 .867 3.442.119 7.687c-.747 4.246 2.084 7.688 6.323 7.688z" stroke="#D2D2D2" stroke-width=".667" mask="url(#G)"/>
            </g>
        </g>
        <g>
            <g transform="translate(43.88 8.38)">
                <mask id="I" fill="#fff">
                    <use xlink:href="#H"/>
                </mask>
                <path d="m3.158 4.086-.18-1.1c-.042-.25-.058-.478-.076-.699h-.011c-.097.227-.2.46-.315.693l-.569 1.106h1.15zm-1.32.386-.609 1.203h-.51L2.69 1.85h.595l.63 3.825h-.527l-.196-1.203H1.837z" fill="#FEFEFE" mask="url(#I)"/>
            </g>
            <g transform="translate(43.88 8.38)">
                <mask id="K" fill="#fff">
                    <use xlink:href="#J"/>
                </mask>
                <path d="M5.31 3.74c.102.029.236.04.4.04.596 0 1.01-.29 1.102-.817.089-.505-.225-.75-.769-.75-.215 0-.382.018-.472.04L5.31 3.74zm-.168-1.844c.244-.04.562-.074.959-.074.487 0 .824.114 1.015.318.177.181.253.46.193.8a1.365 1.365 0 0 1-.438.817c-.31.278-.76.42-1.241.42a1.62 1.62 0 0 1-.391-.034l-.27 1.532h-.493l.666-3.78z" fill="#FEFEFE" mask="url(#K)"/>
            </g>
            <g transform="translate(43.88 8.38)">
                <mask id="M" fill="#fff">
                    <use xlink:href="#L"/>
                </mask>
                <path fill="#FEFEFE" mask="url(#M)" d="m8.606 1.85-.673 3.825H7.44l.673-3.825z"/>
            </g>
            <g transform="translate(43.88 8.38)">
                <mask id="O" fill="#fff">
                    <use xlink:href="#N"/>
                </mask>
                <path d="M8.8 5.164c.13.097.372.2.621.2.363 0 .565-.182.605-.41.042-.238-.077-.368-.42-.505-.463-.175-.647-.448-.59-.777.078-.443.5-.806 1.089-.806.278 0 .507.08.644.17l-.188.364a.924.924 0 0 0-.534-.16c-.294 0-.489.171-.525.375-.04.227.107.33.44.466.444.181.646.42.574.828-.085.483-.52.823-1.17.823-.301 0-.566-.074-.739-.187l.192-.38z" fill="#FEFEFE" mask="url(#O)"/>
            </g>
        </g>
        <g transform="translate(48.426 27.292)">
            <mask id="Q" fill="#fff">
                <use xlink:href="#P"/>
            </mask>
            <path fill="#FCCA5B" mask="url(#Q)" d="M3.676-.334h38.668l-4.497 25.54H-.82z"/>
        </g>
        <g fill="#233D48">
            <path d="m61.518 38.507-.634 3.602h-.465l.634-3.602zM61.694 42.109l.634-3.602h.507l.832 1.822c.192.422.334.802.44 1.17l.01-.005c.043-.48.11-.92.208-1.48l.265-1.507h.438l-.634 3.602h-.47l-.82-1.828c-.18-.4-.348-.812-.46-1.202l-.017.005c-.054.454-.12.887-.225 1.486l-.27 1.539h-.438zM65.733 41.74c.113.021.283.027.465.027.992 0 1.629-.556 1.8-1.529.155-.85-.23-1.389-1.212-1.389-.24 0-.425.021-.553.048l-.5 2.843zm.096-3.185c.29-.043.632-.075 1-.075.668 0 1.115.155 1.378.45.269.293.382.71.279 1.292-.103.588-.37 1.069-.764 1.4-.395.337-.982.518-1.681.518-.33 0-.606-.016-.836-.042l.624-3.543zM70.915 40.42h-1.398l-.229 1.298h1.558l-.068.39h-2.023l.634-3.6h1.943l-.069.39h-1.478l-.2 1.137h1.398zM73.311 42.109l-.319-.797a11.476 11.476 0 0 1-.29-.71h-.011c-.138.208-.274.4-.516.716l-.571.79h-.534l1.42-1.822-.743-1.779h.539l.326.844c.092.235.162.417.224.61h.016c.139-.214.259-.38.432-.61l.64-.844h.533l-1.402 1.753.795 1.849h-.539z"/>
        </g>
        <g transform="translate(89.928 27.292)">
            <mask id="S" fill="#fff">
                <use xlink:href="#R"/>
            </mask>
            <path fill="#FCCA5B" mask="url(#S)" d="M3.676-.334h44.001l-4.496 25.54H-.821z"/>
        </g>
        <g fill="#233D48">
            <path d="M101.95 41.542c.186.128.472.235.792.235.475 0 .797-.251.86-.614.06-.337-.098-.53-.551-.716-.55-.209-.86-.513-.77-1.021.099-.561.636-.978 1.335-.978.368 0 .62.086.764.176l-.195.38a1.254 1.254 0 0 0-.652-.17c-.491 0-.73.293-.773.539-.06.336.13.502.593.694.566.235.824.53.731 1.058-.098.556-.593 1.037-1.442 1.037-.347 0-.707-.102-.877-.23l.186-.39zM106.704 40.42h-1.398l-.228 1.298h1.558l-.069.39h-2.022l.634-3.6h1.942l-.068.39h-1.479l-.2 1.137h1.398zM109.193 40.612l-.17-1.036c-.038-.235-.054-.45-.07-.657h-.011c-.091.213-.189.432-.297.651l-.535 1.042h1.083zm-1.243.364-.573 1.132h-.48l1.855-3.601h.56l.594 3.601h-.496l-.185-1.132h-1.275zM111.234 40.195h.475c.496 0 .859-.272.931-.684.082-.464-.218-.668-.708-.673-.224 0-.388.021-.467.043l-.231 1.314zm-.175-1.64c.243-.048.584-.075.904-.075.496 0 .8.091.988.294.154.16.212.406.163.684-.084.476-.438.79-.84.92l-.003.015c.26.097.381.353.4.727.03.502.054.85.104.988h-.48c-.04-.1-.066-.41-.088-.86-.02-.497-.18-.684-.598-.7h-.437l-.275 1.56h-.464l.626-3.553zM115.836 41.99c-.186.087-.542.172-.98.172-1.014 0-1.664-.641-1.456-1.822.199-1.128 1.097-1.892 2.211-1.892.449 0 .715.096.826.16l-.179.38c-.16-.086-.4-.15-.7-.15-.842 0-1.497.54-1.664 1.486-.155.881.252 1.448 1.127 1.448.283 0 .581-.059.784-.15l.03.369zM117.494 38.507l-.265 1.507h1.739l.265-1.507h.47l-.634 3.602h-.47l.297-1.69h-1.739l-.297 1.69h-.464l.634-3.602z"/>
        </g>
        <g transform="translate(136.762 27.292)">
            <mask id="U" fill="#fff">
                <use xlink:href="#T"/>
            </mask>
            <path fill="#FCCA5B" mask="url(#U)" d="M3.676-.334h67.002l-4.497 25.54H-.82z"/>
        </g>
        <g fill="#233D48">
            <path d="M151.37 41.99c-.186.087-.542.172-.98.172-1.013 0-1.663-.641-1.456-1.822.199-1.128 1.097-1.892 2.212-1.892.448 0 .714.096.825.16l-.179.38c-.16-.086-.4-.15-.699-.15-.843 0-1.498.54-1.665 1.486-.155.881.252 1.448 1.127 1.448.283 0 .581-.059.784-.15l.031.369zM152.451 40.33c-.135.769.16 1.458.89 1.458.737 0 1.273-.679 1.417-1.496.126-.716-.116-1.465-.89-1.465-.768 0-1.277.711-1.417 1.502m2.801-.059c-.218 1.24-1.086 1.897-2.004 1.897-.95 0-1.487-.737-1.295-1.827.201-1.144 1.043-1.892 2.003-1.892.982 0 1.485.754 1.296 1.822M155.53 42.109l.634-3.602h.507l.832 1.822c.192.422.334.802.44 1.17l.01-.005c.043-.48.11-.92.208-1.48l.265-1.507h.438l-.634 3.602h-.47l-.82-1.828c-.18-.4-.348-.812-.46-1.202l-.017.005c-.053.454-.12.887-.225 1.486l-.27 1.539h-.438zM160.287 38.902h-1.094l.07-.395h2.662l-.07.395h-1.099l-.564 3.207h-.47zM163.85 40.42h-1.398l-.229 1.298h1.558l-.068.39h-2.023l.634-3.6h1.943l-.07.39h-1.477l-.2 1.137h1.397zM166.246 42.109l-.319-.797a11.476 11.476 0 0 1-.291-.71h-.01c-.139.208-.274.4-.516.716l-.572.79h-.533l1.42-1.822-.744-1.779h.54l.326.844c.092.235.161.417.223.61h.016c.14-.214.26-.38.433-.61l.64-.844h.533l-1.402 1.753.795 1.849h-.54z"/>
            <path d="M168.415 38.902h-1.094l.07-.395h2.662l-.07.395h-1.099l-.564 3.207h-.47zM170.853 38.507l-.376 2.132c-.142.807.155 1.149.636 1.149.533 0 .937-.353 1.077-1.149l.375-2.132h.47l-.37 2.1c-.194 1.106-.856 1.56-1.635 1.56-.737 0-1.217-.422-1.02-1.539l.373-2.121h.47zM175.154 40.612l-.17-1.036c-.038-.235-.054-.45-.07-.657h-.01c-.092.213-.19.432-.297.651l-.536 1.042h1.083zm-1.243.364-.573 1.132h-.48l1.856-3.601h.56l.593 3.601h-.496l-.185-1.132h-1.275zM177.028 38.507h.465l-.566 3.211h1.537l-.069.39h-2zM180.01 38.507l-.634 3.602h-.464l.634-3.602zM179.989 41.836l2.51-2.923.003-.016h-1.825l.069-.39h2.427l-.05.283-2.497 2.912-.003.016h2.012l-.069.39h-2.625zM185.295 40.42h-1.398l-.228 1.298h1.558l-.069.39h-2.022l.634-3.6h1.942l-.069.39h-1.478l-.2 1.137h1.398z"/>
        </g>
        <g transform="translate(206.598 27.292)">
            <mask id="W" fill="#fff">
                <use xlink:href="#V"/>
            </mask>
            <path fill="#FCCA5B" mask="url(#W)" d="M3.676-.334H50.01l-4.496 25.54H-.821z"/>
        </g>
        <g fill="#233D48">
            <path d="M219.86 38.902h-1.093l.07-.395h2.662l-.07.395h-1.099l-.564 3.207h-.47zM223.107 40.612l-.17-1.036c-.038-.235-.054-.45-.07-.657h-.012c-.09.213-.188.432-.296.651l-.535 1.042h1.083zm-1.243.364-.573 1.132h-.48l1.855-3.601h.56l.594 3.601h-.496l-.185-1.132h-1.275zM227.064 41.948a3.665 3.665 0 0 1-1.14.198c-.543 0-.967-.139-1.26-.476-.257-.3-.364-.78-.265-1.341.194-1.074 1.069-1.86 2.274-1.86.417 0 .726.092.868.166l-.18.38c-.176-.086-.404-.156-.767-.156-.875 0-1.542.546-1.7 1.449-.162.913.293 1.453 1.13 1.453.305 0 .52-.043.636-.096l.19-1.074h-.731l.066-.374h1.184l-.305 1.731zM230.51 41.948a3.665 3.665 0 0 1-1.14.198c-.544 0-.968-.139-1.26-.476-.258-.3-.365-.78-.266-1.341.195-1.074 1.07-1.86 2.275-1.86.416 0 .725.092.867.166l-.179.38c-.177-.086-.405-.156-.768-.156-.875 0-1.541.546-1.7 1.449-.161.913.293 1.453 1.131 1.453.304 0 .52-.043.636-.096l.19-1.074h-.732l.066-.374h1.184l-.305 1.731zM232.288 38.507l-.634 3.602h-.464l.634-3.602zM232.464 42.109l.634-3.602h.507l.832 1.822c.192.422.334.802.44 1.17l.011-.005c.042-.48.109-.92.207-1.48l.266-1.507h.437l-.634 3.602h-.47l-.82-1.828c-.18-.4-.347-.812-.46-1.202l-.017.005a25.05 25.05 0 0 1-.224 1.486l-.271 1.539h-.438zM238.74 41.948a3.665 3.665 0 0 1-1.14.198c-.545 0-.968-.139-1.26-.476-.258-.3-.365-.78-.266-1.341.194-1.074 1.068-1.86 2.275-1.86.416 0 .725.092.867.166l-.18.38c-.176-.086-.404-.156-.767-.156-.875 0-1.542.546-1.7 1.449-.162.913.293 1.453 1.13 1.453.305 0 .52-.043.637-.096l.189-1.074h-.731l.066-.374h1.184l-.305 1.731z"/>
        </g>
        <g transform="translate(255.766 27.292)">
            <mask id="Y" fill="#fff">
                <use xlink:href="#X"/>
            </mask>
            <path fill="#FCCA5B" mask="url(#Y)" d="M3.676-.334H41.01l-4.496 25.54H-.821z"/>
        </g>
        <g fill="#233D48">
            <path d="M267.725 41.542c.185.128.47.235.79.235.476 0 .797-.251.861-.614.06-.337-.098-.53-.551-.716-.55-.209-.86-.513-.77-1.021.099-.561.636-.978 1.335-.978.368 0 .62.086.764.176l-.195.38a1.255 1.255 0 0 0-.653-.17c-.49 0-.729.293-.772.539-.06.336.13.502.593.694.566.235.824.53.731 1.058-.098.556-.593 1.037-1.442 1.037-.347 0-.707-.102-.877-.23l.186-.39zM271.518 38.902h-1.093l.07-.395h2.662l-.07.395h-1.1l-.564 3.207h-.47zM274.764 40.612l-.17-1.036c-.038-.235-.053-.45-.07-.657h-.011c-.091.213-.188.432-.296.651l-.536 1.042h1.083zm-1.243.364-.573 1.132h-.48l1.856-3.601h.56l.593 3.601h-.496l-.185-1.132h-1.275zM277.07 38.902h-1.094l.07-.395h2.663l-.07.395h-1.1l-.564 3.207h-.47zM278.466 41.542c.186.128.471.235.791.235.475 0 .797-.251.86-.614.06-.337-.098-.53-.55-.716-.55-.209-.86-.513-.77-1.021.098-.561.636-.978 1.335-.978.368 0 .62.086.763.176l-.194.38a1.255 1.255 0 0 0-.653-.17c-.49 0-.73.293-.773.539-.059.336.13.502.593.694.567.235.824.53.731 1.058-.098.556-.593 1.037-1.441 1.037-.347 0-.708-.102-.877-.23l.185-.39z"/>
        </g>
        <g transform="translate(295.934 27.292)">
            <mask id="aa" fill="#fff">
                <use xlink:href="#Z"/>
            </mask>
            <path fill="#FCCA5B" mask="url(#aa)" d="M3.676-.334H39.01l-4.496 25.54H-.821z"/>
        </g>
        <g fill="#233D48">
            <path d="M308.743 40.286c.097.027.223.038.378.038.56 0 .95-.273 1.037-.77.084-.475-.212-.705-.724-.705-.203 0-.36.016-.444.037l-.247 1.4zm-.158-1.736c.23-.038.53-.07.903-.07.46 0 .776.107.956.3.167.17.239.432.182.753a1.281 1.281 0 0 1-.413.77c-.291.261-.715.395-1.168.395-.139 0-.266-.006-.368-.032l-.254 1.443h-.465l.627-3.56zM311.382 38.507h.464l-.565 3.211h1.537l-.069.39h-2.001zM315.305 40.612l-.169-1.036c-.039-.235-.054-.45-.071-.657h-.011c-.091.213-.188.432-.296.651l-.536 1.042h1.083zm-1.243.364-.573 1.132h-.48l1.856-3.601h.56l.593 3.601h-.496l-.185-1.132h-1.275zM317.122 42.109l.269-1.529-.772-2.073h.529l.332.994c.09.272.158.491.226.743h.011c.143-.236.307-.47.493-.743l.693-.994h.529l-1.57 2.068-.27 1.534h-.47z"/>
        </g>
    </g>
</svg>
