<svg width="390" height="309" viewBox="38 0 390 309" xmlns="http://www.w3.org/2000/svg" xmlns:xlink="http://www.w3.org/1999/xlink">
    <defs>
        <path d="M46.598 0c-5.523 0-10.79 4.484-11.764 10.015L.156 206.985C-.818 212.515 2.87 217 8.393 217h305.009c5.523 0 10.79-4.484 11.763-10.015l34.68-196.97C360.817 4.485 357.13 0 351.606 0H46.598z" id="b"/>
        <path d="M46.598 0c-5.523 0-10.79 4.484-11.764 10.015L.156 206.985C-.818 212.515 2.87 217 8.393 217H85.06L123.267 0H46.598z" id="d"/>
        <path d="M6.249 0C4.776 0 3.37 1.196 3.112 2.67L.042 20.109c-.26 1.475.723 2.67 2.196 2.67h40.335c1.472 0 2.877-1.195 3.137-2.67L48.78 2.67C49.04 1.196 48.055 0 46.582 0H6.249z" id="f"/>
        <path d="M19.342 0c-1.473 0-2.877 1.196-3.137 2.67L.042 94.479c-.26 1.475.723 2.67 2.196 2.67h66.038c1.473 0 2.877-1.195 3.137-2.67L87.577 2.671C87.837 1.196 86.853 0 85.38 0H19.342z" id="h"/>
        <path d="M1.288 0C.69 0 .122.484.017 1.082c-.105.597.293 1.082.89 1.082h49.935c.597 0 1.166-.485 1.271-1.082C52.218.484 51.82 0 51.223 0H1.288z" id="j"/>
        <path d="M1.288 0C.69 0 .122.484.017 1.082c-.105.597.293 1.082.89 1.082h49.935c.597 0 1.166-.485 1.271-1.082C52.218.484 51.82 0 51.223 0H1.288z" id="l"/>
        <path d="M1.287 0C.691 0 .122.484.017 1.082c-.105.597.293 1.081.89 1.081h49.935c.597 0 1.166-.484 1.27-1.081C52.219.484 51.82 0 51.224 0H1.287z" id="n"/>
        <path d="M1.287 0C.691 0 .122.484.017 1.082c-.105.597.293 1.081.89 1.081h49.935c.597 0 1.166-.484 1.27-1.081C52.219.484 51.82 0 51.224 0H1.287z" id="p"/>
        <path d="M1.287 0C.691 0 .122.484.017 1.082c-.105.597.293 1.082.89 1.082h49.935c.597 0 1.166-.485 1.271-1.082C52.218.484 51.82 0 51.223 0H1.287z" id="r"/>
        <path d="M1.287 0C.691 0 .122.484.017 1.082c-.105.597.293 1.082.89 1.082h49.935c.597 0 1.166-.485 1.271-1.082C52.218.484 51.82 0 51.223 0H1.287z" id="t"/>
        <path d="M1.288 0C.69 0 .122.484.017 1.082c-.105.597.293 1.081.89 1.081h49.935c.597 0 1.165-.484 1.27-1.081C52.219.484 51.82 0 51.224 0H1.288z" id="v"/>
        <path d="M1.288 0C.69 0 .122.484.017 1.082c-.105.597.293 1.081.89 1.081h49.935c.597 0 1.165-.484 1.27-1.081C52.219.484 51.82 0 51.224 0H1.288z" id="x"/>
        <path d="M1.288 0C.69 0 .122.484.017 1.082c-.105.597.293 1.081.89 1.081h49.935c.597 0 1.166-.484 1.271-1.081C52.218.484 51.82 0 51.223 0H1.288z" id="z"/>
        <path d="M1.288 0C.69 0 .122.484.017 1.082c-.105.597.293 1.081.89 1.081h49.935c.597 0 1.166-.484 1.271-1.081C52.218.484 51.82 0 51.223 0H1.288z" id="B"/>
        <path d="M1.287 0C.691 0 .122.484.017 1.082c-.105.597.293 1.081.89 1.081h49.935c.597 0 1.166-.484 1.271-1.081C52.218.484 51.82 0 51.223 0H1.287z" id="D"/>
        <path d="M1.287 0C.691 0 .122.484.017 1.082c-.105.597.293 1.081.89 1.081h49.935c.597 0 1.166-.484 1.271-1.081C52.218.484 51.82 0 51.223 0H1.287z" id="F"/>
        <path d="M.042 2.706C-.22 4.201.775 5.413 2.268 5.413c1.493 0 2.916-1.212 3.18-2.707C5.71 1.212 4.713 0 3.22 0 1.73 0 .305 1.212.042 2.706z" id="H"/>
        <path d="M.042 2.706C-.22 4.201.776 5.413 2.268 5.413c1.493 0 2.916-1.212 3.18-2.707C5.71 1.212 4.713 0 3.22 0 1.73 0 .305 1.212.042 2.706z" id="J"/>
        <path d="M.042 2.707C-.22 4.202.776 5.414 2.268 5.414c1.493 0 2.916-1.212 3.18-2.707C5.71 1.212 4.713 0 3.22 0 1.73 0 .306 1.212.042 2.707z" id="L"/>
        <path d="M.042 2.707C-.22 4.2.775 5.413 2.268 5.413c1.493 0 2.916-1.212 3.18-2.706C5.71 1.212 4.713 0 3.22 0 1.73 0 .305 1.212.042 2.707z" id="N"/>
        <path d="M.042 2.707C-.22 4.202.775 5.414 2.268 5.414c1.493 0 2.916-1.212 3.18-2.707C5.71 1.212 4.713 0 3.22 0 1.73 0 .305 1.212.042 2.707z" id="P"/>
        <path d="M.042 2.706C-.22 4.201.776 5.413 2.268 5.413c1.493 0 2.917-1.212 3.18-2.707C5.71 1.212 4.714 0 3.222 0 1.729 0 .306 1.212.042 2.706z" id="R"/>
        <path d="M19.342 0c-1.472 0-2.877 1.196-3.136 2.67L.04 94.479c-.259 1.475.725 2.67 2.197 2.67h66.038c1.473 0 2.878-1.195 3.137-2.67L87.577 2.671C87.837 1.196 86.853 0 85.38 0H19.342z" id="T"/>
        <path d="M4.31 0C3.02 0 1.792 1.046 1.565 2.337l-1.529 8.68c-.227 1.29.634 2.337 1.922 2.337h8.667c1.29 0 2.518-1.046 2.745-2.337l1.528-8.68C15.126 1.047 14.265 0 12.976 0H4.31z" id="V"/>
        <path d="M4.31 0C3.02 0 1.792 1.046 1.565 2.337l-1.529 8.68c-.227 1.29.634 2.337 1.922 2.337h8.667c1.29 0 2.518-1.046 2.745-2.337l1.528-8.68C15.126 1.047 14.265 0 12.976 0H4.31z" id="X"/>
        <path d="M4.31 0C3.02 0 1.791 1.046 1.563 2.337l-1.528 8.68c-.227 1.29.634 2.337 1.922 2.337h8.667c1.29 0 2.518-1.046 2.745-2.337l1.529-8.68C15.126 1.047 14.265 0 12.976 0H4.31z" id="Z"/>
        <path d="M4.31 0C3.02 0 1.791 1.046 1.563 2.337l-1.528 8.68c-.227 1.29.634 2.337 1.922 2.337h8.667c1.29 0 2.518-1.046 2.745-2.337l1.529-8.68C15.126 1.047 14.265 0 12.976 0H4.31z" id="ab"/>
        <path d="M4.31 0C3.02 0 1.792 1.046 1.565 2.337l-1.529 8.68c-.227 1.29.634 2.337 1.923 2.337h8.667c1.288 0 2.517-1.046 2.744-2.337l1.529-8.68C15.126 1.047 14.265 0 12.976 0H4.31z" id="ad"/>
        <path d="M4.31 0C3.02 0 1.792 1.046 1.565 2.337l-1.529 8.68c-.227 1.29.634 2.337 1.923 2.337h8.667c1.288 0 2.517-1.046 2.744-2.337l1.529-8.68C15.126 1.047 14.265 0 12.976 0H4.31z" id="af"/>
        <path d="M4.31 0C3.02 0 1.792 1.046 1.565 2.337l-1.529 8.68c-.227 1.29.634 2.337 1.922 2.337h8.667c1.29 0 2.518-1.046 2.745-2.337l1.528-8.68C15.126 1.047 14.265 0 12.976 0H4.31z" id="ah"/>
        <path d="M4.31 0C3.02 0 1.792 1.046 1.565 2.337l-1.529 8.68c-.227 1.29.634 2.337 1.922 2.337h8.667c1.29 0 2.518-1.046 2.745-2.337l1.528-8.68C15.126 1.047 14.265 0 12.976 0H4.31z" id="aj"/>
        <path d="M4.31 0C3.02 0 1.791 1.046 1.564 2.337l-1.528 8.68c-.228 1.29.633 2.337 1.921 2.337h8.667c1.289 0 2.518-1.046 2.745-2.337l1.528-8.68C15.125 1.046 14.265 0 12.976 0H4.31z" id="al"/>
        <path d="M4.31 0C3.02 0 1.791 1.046 1.564 2.337l-1.528 8.68c-.228 1.29.633 2.337 1.921 2.337h8.667c1.289 0 2.518-1.046 2.745-2.337l1.528-8.68C15.125 1.046 14.265 0 12.976 0H4.31z" id="an"/>
        <path d="M4.31 0C3.02 0 1.791 1.046 1.564 2.337l-1.529 8.68c-.227 1.29.634 2.337 1.922 2.337h8.667c1.289 0 2.518-1.046 2.745-2.337l1.528-8.68C15.126 1.046 14.265 0 12.976 0H4.31z" id="ap"/>
        <path d="M4.31 0C3.02 0 1.791 1.046 1.564 2.337l-1.529 8.68c-.227 1.29.634 2.337 1.922 2.337h8.667c1.289 0 2.518-1.046 2.745-2.337l1.528-8.68C15.126 1.046 14.265 0 12.976 0H4.31z" id="ar"/>
        <path d="M4.31 0C3.02 0 1.791 1.046 1.563 2.337l-1.528 8.68c-.227 1.29.634 2.337 1.922 2.337h8.667c1.289 0 2.518-1.046 2.745-2.337l1.528-8.68C15.125 1.046 14.265 0 12.976 0H4.31z" id="at"/>
        <path d="M4.31 0C3.02 0 1.791 1.046 1.564 2.337l-1.528 8.68c-.228 1.29.633 2.337 1.921 2.337h8.667c1.289 0 2.518-1.046 2.745-2.337l1.528-8.68C15.125 1.046 14.265 0 12.976 0H4.31z" id="av"/>
        <path d="M4.31 0C3.02 0 1.791 1.046 1.564 2.337l-1.528 8.68c-.228 1.29.633 2.337 1.921 2.337h8.667c1.289 0 2.518-1.046 2.745-2.337l1.528-8.68C15.125 1.046 14.265 0 12.976 0H4.31z" id="ax"/>
        <path d="M4.31 0C3.02 0 1.791 1.047 1.563 2.337l-1.528 8.68c-.227 1.29.633 2.337 1.922 2.337h8.667c1.289 0 2.518-1.046 2.745-2.337l1.528-8.68C15.125 1.047 14.265 0 12.976 0H4.31z" id="az"/>
        <path d="M4.31 0C3.02 0 1.791 1.047 1.563 2.337l-1.528 8.68c-.227 1.29.633 2.337 1.922 2.337h8.667c1.289 0 2.518-1.046 2.745-2.337l1.528-8.68C15.125 1.047 14.265 0 12.976 0H4.31z" id="aB"/>
        <path d="M4.31 0C3.02 0 1.791 1.047 1.563 2.337l-1.528 8.68c-.227 1.29.634 2.337 1.922 2.337h8.667c1.289 0 2.518-1.046 2.745-2.337l1.528-8.68C15.126 1.047 14.265 0 12.976 0H4.31z" id="aD"/>
        <path d="M4.31 0C3.02 0 1.791 1.047 1.563 2.337l-1.528 8.68c-.227 1.29.634 2.337 1.922 2.337h8.667c1.289 0 2.518-1.046 2.745-2.337l1.528-8.68C15.126 1.047 14.265 0 12.976 0H4.31z" id="aF"/>
        <path d="M4.31 0C3.02 0 1.791 1.047 1.564 2.337l-1.529 8.68c-.227 1.29.634 2.337 1.923 2.337h8.666c1.289 0 2.518-1.046 2.745-2.337l1.528-8.68C15.126 1.047 14.265 0 12.976 0H4.31z" id="aH"/>
        <path d="M4.31 0C3.02 0 1.791 1.047 1.564 2.337l-1.529 8.68c-.227 1.29.634 2.337 1.923 2.337h8.666c1.289 0 2.518-1.046 2.745-2.337l1.528-8.68C15.126 1.047 14.265 0 12.976 0H4.31z" id="aJ"/>
        <path d="M4.31 0C3.02 0 1.791 1.047 1.563 2.337l-1.528 8.68c-.227 1.29.633 2.337 1.922 2.337h8.667c1.289 0 2.518-1.046 2.745-2.337l1.528-8.68C15.125 1.047 14.265 0 12.976 0H4.31z" id="aL"/>
        <path d="M4.31 0C3.02 0 1.791 1.047 1.563 2.337l-1.528 8.68c-.227 1.29.633 2.337 1.922 2.337h8.667c1.289 0 2.518-1.046 2.745-2.337l1.528-8.68C15.125 1.047 14.265 0 12.976 0H4.31z" id="aN"/>
        <path d="M6.249 0C4.776 0 3.37 1.196 3.11 2.67L.041 20.109c-.26 1.474.724 2.67 2.197 2.67h58.335c1.473 0 2.877-1.196 3.137-2.67L66.78 2.67C67.04 1.196 66.056 0 64.583 0H6.25z" id="aP"/>
        <path d="M6.248 0C4.775 0 3.371 1.196 3.112 2.67L.042 20.109c-.26 1.474.723 2.67 2.196 2.67H52.24c1.472 0 2.877-1.196 3.137-2.67l3.07-17.437C58.707 1.196 57.723 0 56.25 0H6.248z" id="aR"/>
        <path d="M19.35 0c-1.473 0-2.877 1.196-3.137 2.67L.041 94.524c-.259 1.475.725 2.671 2.197 2.671h66.038c1.473 0 2.878-1.196 3.137-2.67L87.585 2.67C87.845 1.196 86.86 0 85.388 0H19.35z" id="aT"/>
        <path d="M4.31 0C3.02 0 1.791 1.046 1.564 2.337l-1.529 8.68c-.227 1.29.634 2.337 1.922 2.337h8.667c1.289 0 2.518-1.047 2.745-2.337l1.528-8.68C15.125 1.047 14.265 0 12.976 0H4.31z" id="aV"/>
        <path d="M4.31 0C3.02 0 1.791 1.046 1.563 2.337l-1.528 8.68c-.227 1.29.634 2.337 1.922 2.337h8.667c1.289 0 2.518-1.047 2.745-2.337l1.528-8.68C15.125 1.047 14.265 0 12.976 0H4.31z" id="aX"/>
        <path d="M4.31 0C3.02 0 1.791 1.046 1.563 2.337l-1.528 8.68c-.227 1.29.634 2.337 1.922 2.337h8.667c1.289 0 2.518-1.047 2.745-2.337l1.528-8.68C15.125 1.047 14.265 0 12.976 0H4.31z" id="aZ"/>
        <path d="M4.31 0C3.02 0 1.791 1.046 1.564 2.337l-1.529 8.68c-.227 1.29.634 2.337 1.923 2.337h8.667c1.288 0 2.517-1.046 2.744-2.337l1.528-8.68C15.126 1.047 14.265 0 12.976 0H4.31z" id="bb"/>
        <path d="M4.31 0C3.02 0 1.791 1.046 1.563 2.337l-1.528 8.68c-.227 1.29.634 2.337 1.922 2.337h8.667c1.29 0 2.518-1.046 2.745-2.337l1.528-8.68C15.126 1.047 14.265 0 12.976 0H4.31z" id="bd"/>
        <path d="M4.31 0C3.02 0 1.791 1.046 1.563 2.337l-1.528 8.68c-.227 1.29.634 2.337 1.922 2.337h8.667c1.29 0 2.518-1.046 2.745-2.337l1.528-8.68C15.126 1.047 14.265 0 12.976 0H4.31z" id="bf"/>
        <path d="M19.35 0c-1.473 0-2.877 1.196-3.137 2.67L.042 94.524c-.26 1.475.723 2.67 2.196 2.67h66.038c1.473 0 2.877-1.195 3.137-2.67L87.585 2.67C87.845 1.196 86.86 0 85.388 0H19.35z" id="bh"/>
        <path d="M.27 17.36c-1.688 9.588 4.704 17.36 14.278 17.36 9.573 0 18.702-7.772 20.39-17.36C36.626 7.772 30.234 0 20.661 0 11.087 0 1.958 7.772.27 17.36z" id="bj"/>
        <path d="M.117 7.512c-.73 4.148 2.035 7.511 6.177 7.511 4.143 0 8.093-3.363 8.823-7.511C15.847 3.363 13.082 0 8.94 0 4.797 0 .847 3.363.117 7.512z" id="bl"/>
        <path d="M.094 6.01c-.585 3.318 1.628 6.008 4.942 6.008 3.313 0 6.474-2.69 7.058-6.009C12.679 2.691 10.466 0 7.152 0S.678 2.69.094 6.01z" id="bn"/>
        <path d="M.075 4.84c-.47 2.674 1.312 4.842 3.981 4.842 2.67 0 5.215-2.168 5.686-4.841C10.213 2.167 8.43 0 5.761 0 3.09 0 .546 2.167.075 4.84z" id="bp"/>
        <path d="M.117 7.512c-.73 4.148 2.036 7.511 6.178 7.511 4.142 0 8.092-3.363 8.822-7.511C15.848 3.362 13.082 0 8.94 0 4.797 0 .848 3.363.117 7.512z" id="br"/>
        <path d="M.075 4.84c-.47 2.674 1.312 4.842 3.981 4.842 2.67 0 5.216-2.168 5.686-4.841C10.213 2.167 8.431 0 5.762 0 3.091 0 .545 2.167.074 4.84z" id="bt"/>
        <path d="M6.248 0C4.776 0 3.371 1.196 3.112 2.67L.042 20.108c-.26 1.475.723 2.671 2.196 2.671H43.24c1.473 0 2.878-1.196 3.138-2.67L49.446 2.67C49.706 1.196 48.723 0 47.25 0H6.248z" id="bv"/>
        <path id="bx" d="M1.957 0 0 11.113h24.334L26.29 0z"/>
        <path d="M19.343 0c-1.473 0-2.878 1.196-3.138 2.67L.042 94.479c-.26 1.475.723 2.671 2.196 2.671h143.004c1.473 0 2.878-1.196 3.137-2.67L164.543 2.67c.26-1.475-.724-2.671-2.196-2.671H19.343z" id="bz"/>
        <path d="M4.794 0C2.814 0 .928 1.607.579 3.589L.056 6.556c-.349 1.982.972 3.59 2.952 3.59h14.977c1.98 0 3.866-1.608 4.215-3.59l.523-2.967C23.073 1.607 21.75 0 19.772 0H4.794z" id="bB"/>
        <path d="M.088 5.663c-.55 3.127 1.535 5.662 4.657 5.662 3.123 0 6.1-2.535 6.651-5.662C11.946 2.535 9.861 0 6.74 0S.64 2.535.09 5.663z" id="bD"/>
        <path d="M.033 2.123c-.206 1.173.575 2.124 1.746 2.124 1.172 0 2.288-.95 2.495-2.124C4.48.95 3.698 0 2.527 0 1.357 0 .24.95.033 2.123z" id="bF"/>
        <path d="m66.742.304-2.277.302c-3.417.455-6.833 1.412-10.135 2.84l-1.69.732c-4.364 1.888-8.966 2.628-13.303 2.137l-3.133-.354c-3.8-.43-7.803.034-11.705 1.355l-2.842.963a37.754 37.754 0 0 1-6.22 1.54l-8.268 1.303C3.648 11.678.61 14.637 0 18.11h108.003l1.242-7.053c.846-4.802-2.356-8.694-7.15-8.694-.336 0-.674.019-1.014.058l-4.43.506c-3.613.413-7.168.255-10.532-.469L77.92.693A31.544 31.544 0 0 0 71.283 0c-1.499 0-3.016.101-4.541.304z" id="bH"/>
        <path d="m102.87 1.06-1.784 1.075c-5.84 3.518-12.414 5.051-18.536 4.322L76.94 5.79a29.483 29.483 0 0 1-7.368-1.843l-2.543-1.007c-3.77-1.49-8.391-.857-12.305 1.688l-.691.45c-4.448 2.891-9.596 4.052-14.26 3.216l-.986-.177c-4.476-.802-9.443.528-13.515 3.62-4.168 3.166-9.068 5.018-13.903 5.257l-1.12.055C5.44 17.286 1.003 21.226.16 26.007l-.16.91h108.003l3.643-20.693C112.252 2.787 109.96 0 106.526 0c-1.235 0-2.508.369-3.655 1.06z" id="bJ"/>
        <path d="M38.458 1.262 33.413 3.56a39.19 39.19 0 0 1-7.736 2.603l-1.858.413c-3.789.842-7.554.613-10.843-.658l-2.93-1.132c-3.09-1.194-7.032.517-8.806 3.822a7.241 7.241 0 0 0-.758 2.162L0 13.505h108.003l.188-1.07c.878-4.985-2.446-9.026-7.423-9.026-.225 0-.45.009-.677.025l-6.319.467a32.755 32.755 0 0 1-6.841-.198L78.689 2.58c-4.74-.646-9.852.397-14.48 2.955-4.207 2.325-8.999 1.774-11.636-1.34l-.619-.731C50.03 1.192 47.174 0 44.067 0c-1.83 0-3.745.413-5.609 1.262z" id="bL"/>
        <path d="M.048 3.067c-.299 1.694.83 3.067 2.522 3.067 1.692 0 3.304-1.373 3.603-3.067C6.47 1.373 5.342 0 3.65 0 1.96 0 .346 1.373.048 3.067z" id="bN"/>
        <path d="M.048 3.067c-.299 1.694.83 3.067 2.522 3.067 1.692 0 3.304-1.373 3.603-3.067C6.47 1.373 5.342 0 3.65 0 1.96 0 .346 1.373.048 3.067z" id="bP"/>
        <path d="M.048 3.067C-.25 4.761.879 6.134 2.57 6.134c1.691 0 3.304-1.373 3.602-3.067C6.471 1.373 5.343 0 3.651 0 1.959 0 .346 1.373.048 3.067z" id="bR"/>
        <path d="M.024 1.534c-.15.847.415 1.533 1.26 1.533.847 0 1.653-.686 1.803-1.533C3.236.687 2.67 0 1.825 0 .98 0 .173.687.024 1.534z" id="bT"/>
        <path d="M6.248 0C4.776 0 3.372 1.196 3.112 2.67L.042 20.109c-.26 1.474.723 2.67 2.196 2.67h45.335c1.473 0 2.877-1.196 3.137-2.67L53.78 2.67C54.04 1.196 53.056 0 51.583 0H6.248z" id="bV"/>
        <filter x="-17.2%" y="-28.6%" width="134.4%" height="157.1%" filterUnits="objectBoundingBox" id="a">
            <feOffset dx="8" dy="8" in="SourceAlpha" result="shadowOffsetOuter1"/>
            <feGaussianBlur stdDeviation="12" in="shadowOffsetOuter1" result="shadowBlurOuter1"/>
            <feColorMatrix values="0 0 0 0 0.117647059 0 0 0 0 0.239215686 0 0 0 0 0.28627451 0 0 0 0.1 0" in="shadowBlurOuter1" result="shadowMatrixOuter1"/>
            <feMerge>
                <feMergeNode in="shadowMatrixOuter1"/>
                <feMergeNode in="SourceGraphic"/>
            </feMerge>
        </filter>
    </defs>
    <g filter="url(#a)" transform="translate(46 46)" fill="none" fill-rule="evenodd">
        <mask id="c" fill="#fff">
            <use xlink:href="#b"/>
        </mask>
        <path fill="#E1E5E5" mask="url(#c)" d="M36.323-.334H362l-38.322 217.668H-2z"/>
        <mask id="e" fill="#fff">
            <use xlink:href="#d"/>
        </mask>
        <path fill="#1E3D49" mask="url(#e)" d="M36.323-.334h87.336L85.336 217.334H-1.999z"/>
        <g transform="translate(30.624 61.865)">
            <mask id="g" fill="#fff">
                <use xlink:href="#f"/>
            </mask>
            <path fill="#FCCA5B" mask="url(#g)" d="M3.307-.334h46.335l-4.128 23.446H-.82z"/>
        </g>
        <g fill="#233D48">
            <path d="M43.623 72.383h-1.094l.07-.395h2.662l-.07.395h-1.099l-.564 3.206h-.47zM45.574 73.81c-.135.77.16 1.459.89 1.459.737 0 1.272-.679 1.416-1.496.126-.717-.115-1.465-.889-1.465-.768 0-1.277.71-1.417 1.502m2.801-.06c-.218 1.24-1.086 1.898-2.004 1.898-.95 0-1.487-.738-1.295-1.827.202-1.144 1.043-1.893 2.003-1.893.982 0 1.484.754 1.296 1.823M49.25 73.81c-.136.77.158 1.459.89 1.459.736 0 1.271-.679 1.415-1.496.126-.717-.115-1.465-.889-1.465-.768 0-1.277.71-1.417 1.502m2.801-.06c-.218 1.24-1.086 1.898-2.004 1.898-.95 0-1.487-.738-1.295-1.827.201-1.144 1.043-1.893 2.003-1.893.982 0 1.484.754 1.296 1.823M52.962 71.988h.464l-.565 3.211h1.536l-.068.39h-2.001zM55.943 71.988l-.634 3.601h-.464l.634-3.601zM56.12 75.59l.634-3.602h.507l.831 1.822c.193.422.334.802.44 1.17l.012-.005c.042-.481.108-.92.207-1.48l.265-1.507h.438l-.634 3.601h-.47l-.82-1.828a9.29 9.29 0 0 1-.46-1.201l-.018.005c-.053.454-.119.887-.224 1.485l-.27 1.54h-.438zM62.395 75.429a3.663 3.663 0 0 1-1.14.198c-.544 0-.968-.139-1.26-.476-.257-.3-.365-.78-.266-1.341.194-1.074 1.069-1.86 2.275-1.86.416 0 .726.091.867.166l-.179.38c-.177-.086-.405-.156-.767-.156-.875 0-1.542.545-1.701 1.448-.161.914.293 1.454 1.131 1.454.304 0 .52-.043.636-.096l.189-1.074h-.731l.066-.375h1.184l-.304 1.732z"/>
        </g>
        <g transform="translate(92.057 110.952)">
            <mask id="i" fill="#fff">
                <use xlink:href="#h"/>
            </mask>
            <path fill="#FEFEFE" mask="url(#i)" d="M16.401-.334h72.038L71.217 97.483H-.82z"/>
        </g>
        <g transform="translate(112.496 138.88)">
            <mask id="k" fill="#fff">
                <use xlink:href="#j"/>
            </mask>
            <path fill="#FEFEFE" mask="url(#k)" d="M-.288-.334h53.002l-.53 3.005h-53z"/>
        </g>
        <g transform="translate(112.496 138.88)">
            <mask id="m" fill="#fff">
                <use xlink:href="#l"/>
            </mask>
            <path d="M1.288 0h49.935c.597 0 .995.484.89 1.082-.105.597-.674 1.081-1.27 1.081H.906c-.597 0-.995-.484-.89-1.081C.122.484.69 0 1.287 0z" stroke="#D2D2D2" stroke-width=".667" mask="url(#m)"/>
        </g>
        <g transform="translate(111.057 147.053)">
            <mask id="o" fill="#fff">
                <use xlink:href="#n"/>
            </mask>
            <path fill="#FEFEFE" mask="url(#o)" d="M-.26-.494h53.002l-.53 3.004h-53z"/>
        </g>
        <g transform="translate(111.057 147.053)">
            <mask id="q" fill="#fff">
                <use xlink:href="#p"/>
            </mask>
            <path d="M1.287 0h49.936c.597 0 .995.484.89 1.081-.105.598-.674 1.082-1.27 1.082H.905c-.596 0-.994-.484-.89-1.082C.123.484.692 0 1.288 0z" stroke="#D2D2D2" stroke-width=".667" mask="url(#q)"/>
        </g>
        <g transform="translate(109.618 155.225)">
            <mask id="s" fill="#fff">
                <use xlink:href="#r"/>
            </mask>
            <path fill="#FEFEFE" mask="url(#s)" d="M-.232-.655H52.77l-.588 3.339H-.819z"/>
        </g>
        <g transform="translate(109.618 155.225)">
            <mask id="u" fill="#fff">
                <use xlink:href="#t"/>
            </mask>
            <path d="M1.287 0h49.936c.597 0 .995.484.89 1.082-.105.597-.674 1.081-1.27 1.081H.905c-.596 0-.994-.484-.89-1.081C.123.484.692 0 1.288 0z" stroke="#D2D2D2" stroke-width=".667" mask="url(#u)"/>
        </g>
        <g transform="translate(108.18 163.398)">
            <mask id="w" fill="#fff">
                <use xlink:href="#v"/>
            </mask>
            <path fill="#FEFEFE" mask="url(#w)" d="M-.262-.481h53.001l-.529 3.004H-.79z"/>
        </g>
        <g transform="translate(108.18 163.398)">
            <mask id="y" fill="#fff">
                <use xlink:href="#x"/>
            </mask>
            <path d="M1.287 0h49.936c.597 0 .995.484.89 1.081-.105.598-.674 1.082-1.27 1.082H.905c-.596 0-.994-.484-.89-1.082C.123.484.692 0 1.288 0z" stroke="#D2D2D2" stroke-width=".667" mask="url(#y)"/>
        </g>
        <g transform="translate(106.74 171.57)">
            <mask id="A" fill="#fff">
                <use xlink:href="#z"/>
            </mask>
            <path fill="#FEFEFE" mask="url(#A)" d="M-.234-.642h53.002l-.588 3.339H-.822z"/>
        </g>
        <g transform="translate(106.74 171.57)">
            <mask id="C" fill="#fff">
                <use xlink:href="#B"/>
            </mask>
            <path d="M1.287 0h49.936c.597 0 .995.484.89 1.082-.105.597-.674 1.082-1.27 1.082H.905c-.596 0-.994-.485-.89-1.082C.123.484.692 0 1.288 0z" stroke="#D2D2D2" stroke-width=".667" mask="url(#C)"/>
        </g>
        <g transform="translate(105.302 179.743)">
            <mask id="E" fill="#fff">
                <use xlink:href="#D"/>
            </mask>
            <path fill="#FEFEFE" mask="url(#E)" d="M-.264-.468h53.001l-.529 3.004H-.793z"/>
        </g>
        <g transform="translate(105.302 179.743)">
            <mask id="G" fill="#fff">
                <use xlink:href="#F"/>
            </mask>
            <path d="M1.288 0h49.935c.597 0 .995.484.89 1.082-.105.597-.674 1.081-1.27 1.081H.906c-.597 0-.995-.484-.89-1.081C.122.484.69 0 1.287 0z" stroke="#D2D2D2" stroke-width=".667" mask="url(#G)"/>
        </g>
        <g transform="translate(138.519 137.255)">
            <mask id="I" fill="#fff">
                <use xlink:href="#H"/>
            </mask>
            <path fill="#FCCA5B" mask="url(#I)" d="M.244-.334h6.072l-1.07 6.081H-.828z"/>
        </g>
        <g transform="translate(127.55 145.601)">
            <mask id="K" fill="#fff">
                <use xlink:href="#J"/>
            </mask>
            <path fill="#FCCA5B" mask="url(#K)" d="M.244-.334h6.072l-1.07 6.081H-.828z"/>
        </g>
        <g transform="translate(150.284 153.6)">
            <mask id="M" fill="#fff">
                <use xlink:href="#L"/>
            </mask>
            <path fill="#FCCA5B" mask="url(#M)" d="M.244-.334h6.072l-1.07 6.081H-.827z"/>
        </g>
        <g transform="translate(139.607 161.773)">
            <mask id="O" fill="#fff">
                <use xlink:href="#N"/>
            </mask>
            <path fill="#FCCA5B" mask="url(#O)" d="M.244-.334h6.072l-1.07 6.081H-.828z"/>
        </g>
        <g transform="translate(112.049 169.946)">
            <mask id="Q" fill="#fff">
                <use xlink:href="#P"/>
            </mask>
            <path fill="#FCCA5B" mask="url(#Q)" d="M.244-.334h6.072l-1.07 6.081H-.828z"/>
        </g>
        <g transform="translate(119.121 178.119)">
            <mask id="S" fill="#fff">
                <use xlink:href="#R"/>
            </mask>
            <path fill="#FCCA5B" mask="url(#S)" d="M.244-.334h6.072l-1.07 6.081H-.827z"/>
        </g>
        <g transform="translate(168.875 110.952)">
            <mask id="U" fill="#fff">
                <use xlink:href="#T"/>
            </mask>
            <path fill="#FEFEFE" mask="url(#U)" d="M16.401-.334H88.44L71.217 97.483H-.82z"/>
        </g>
        <g transform="translate(184.27 137.878)">
            <mask id="W" fill="#fff">
                <use xlink:href="#V"/>
            </mask>
            <path fill="#FEFEFE" mask="url(#W)" d="M1.51-.668h14.333l-2.527 14.356H-1.018z"/>
        </g>
        <g transform="translate(184.27 137.878)">
            <mask id="Y" fill="#fff">
                <use xlink:href="#X"/>
            </mask>
            <path d="M4.31 0h8.666c1.29 0 2.15 1.046 1.922 2.337l-1.528 8.68c-.227 1.29-1.456 2.337-2.745 2.337H1.958c-1.288 0-2.149-1.046-1.922-2.337l1.529-8.68C1.792 1.047 3.02 0 4.309 0z" stroke="#D2D2D2" stroke-width=".667" mask="url(#Y)"/>
        </g>
        <g transform="translate(200.27 137.878)">
            <mask id="aa" fill="#fff">
                <use xlink:href="#Z"/>
            </mask>
            <path fill="#FEFEFE" mask="url(#aa)" d="M1.51-.668h14.333l-2.527 14.356H-1.018z"/>
        </g>
        <g transform="translate(200.27 137.878)">
            <mask id="ac" fill="#fff">
                <use xlink:href="#ab"/>
            </mask>
            <path d="M4.31 0h8.666c1.29 0 2.15 1.046 1.922 2.337l-1.528 8.68c-.227 1.29-1.456 2.337-2.745 2.337H1.958c-1.288 0-2.149-1.046-1.922-2.337l1.529-8.68C1.792 1.047 3.02 0 4.309 0z" stroke="#D2D2D2" stroke-width=".667" mask="url(#ac)"/>
        </g>
        <g transform="translate(216.27 137.878)">
            <mask id="ae" fill="#fff">
                <use xlink:href="#ad"/>
            </mask>
            <path fill="#FEFEFE" mask="url(#ae)" d="M1.51-.668h14.333l-2.527 14.356H-1.018z"/>
        </g>
        <g transform="translate(216.27 137.878)">
            <mask id="ag" fill="#fff">
                <use xlink:href="#af"/>
            </mask>
            <path d="M4.31 0h8.667c1.288 0 2.149 1.046 1.922 2.337l-1.529 8.68c-.227 1.29-1.456 2.337-2.744 2.337H1.959c-1.29 0-2.15-1.046-1.922-2.337l1.528-8.68C1.792 1.047 3.02 0 4.31 0z" stroke="#D2D2D2" stroke-width=".667" mask="url(#ag)"/>
        </g>
        <g transform="translate(232.27 137.878)">
            <mask id="ai" fill="#fff">
                <use xlink:href="#ah"/>
            </mask>
            <path fill="#FEFEFE" mask="url(#ai)" d="M1.51-.668h14.333l-2.527 14.356H-1.018z"/>
        </g>
        <g transform="translate(232.27 137.878)">
            <mask id="ak" fill="#fff">
                <use xlink:href="#aj"/>
            </mask>
            <path d="M4.31 0h8.666c1.29 0 2.15 1.046 1.922 2.337l-1.528 8.68c-.227 1.29-1.456 2.337-2.745 2.337H1.958c-1.288 0-2.149-1.046-1.922-2.337l1.529-8.68C1.792 1.047 3.02 0 4.309 0z" stroke="#D2D2D2" stroke-width=".667" mask="url(#ak)"/>
        </g>
        <g transform="translate(181.448 153.903)">
            <mask id="am" fill="#fff">
                <use xlink:href="#al"/>
            </mask>
            <path fill="#FEFEFE" mask="url(#am)" d="M1.51-.668h14.333l-2.527 14.356H-1.018z"/>
        </g>
        <g transform="translate(181.448 153.903)">
            <mask id="ao" fill="#fff">
                <use xlink:href="#an"/>
            </mask>
            <path d="M4.31 0h8.666c1.289 0 2.15 1.046 1.922 2.337l-1.528 8.68c-.227 1.29-1.456 2.337-2.745 2.337H1.958c-1.288 0-2.149-1.046-1.922-2.337l1.529-8.68C1.792 1.047 3.02 0 4.309 0z" stroke="#D2D2D2" stroke-width=".667" mask="url(#ao)"/>
        </g>
        <g transform="translate(197.448 153.903)">
            <mask id="aq" fill="#fff">
                <use xlink:href="#ap"/>
            </mask>
            <path fill="#FEFEFE" mask="url(#aq)" d="M1.51-.668h14.333l-2.527 14.356H-1.018z"/>
        </g>
        <g transform="translate(197.448 153.903)">
            <mask id="as" fill="#fff">
                <use xlink:href="#ar"/>
            </mask>
            <path d="M4.31 0h8.666c1.29 0 2.15 1.046 1.922 2.337l-1.528 8.68c-.227 1.29-1.456 2.337-2.745 2.337H1.958c-1.288 0-2.149-1.046-1.922-2.337l1.529-8.68C1.792 1.047 3.02 0 4.309 0z" stroke="#D2D2D2" stroke-width=".667" mask="url(#as)"/>
        </g>
        <g transform="translate(213.449 153.903)">
            <mask id="au" fill="#fff">
                <use xlink:href="#at"/>
            </mask>
            <path fill="#FCCA5B" mask="url(#au)" d="M1.702-.334h14l-2.469 14.022h-14z"/>
        </g>
        <g transform="translate(229.45 153.903)">
            <mask id="aw" fill="#fff">
                <use xlink:href="#av"/>
            </mask>
            <path fill="#FEFEFE" mask="url(#aw)" d="M1.51-.668h14.333l-2.527 14.356H-1.018z"/>
        </g>
        <g transform="translate(229.45 153.903)">
            <mask id="ay" fill="#fff">
                <use xlink:href="#ax"/>
            </mask>
            <path d="M4.31 0h8.666c1.289 0 2.15 1.046 1.922 2.337l-1.528 8.68c-.227 1.29-1.456 2.337-2.745 2.337H1.958c-1.288 0-2.149-1.046-1.922-2.337l1.529-8.68C1.792 1.047 3.02 0 4.309 0z" stroke="#D2D2D2" stroke-width=".667" mask="url(#ay)"/>
        </g>
        <g transform="translate(178.627 169.927)">
            <mask id="aA" fill="#fff">
                <use xlink:href="#az"/>
            </mask>
            <path fill="#FEFEFE" mask="url(#aA)" d="M1.51-.667h14.333l-2.527 14.355H-1.018z"/>
        </g>
        <g transform="translate(178.627 169.927)">
            <mask id="aC" fill="#fff">
                <use xlink:href="#aB"/>
            </mask>
            <path d="M4.31 0h8.666c1.289 0 2.15 1.047 1.922 2.337l-1.528 8.68c-.227 1.29-1.456 2.337-2.745 2.337H1.958c-1.288 0-2.149-1.046-1.922-2.337l1.529-8.68C1.792 1.047 3.02 0 4.309 0z" stroke="#D2D2D2" stroke-width=".667" mask="url(#aC)"/>
        </g>
        <g transform="translate(194.627 169.927)">
            <mask id="aE" fill="#fff">
                <use xlink:href="#aD"/>
            </mask>
            <path fill="#FEFEFE" mask="url(#aE)" d="M1.51-.667h14.333l-2.527 14.355H-1.018z"/>
        </g>
        <g transform="translate(194.627 169.927)">
            <mask id="aG" fill="#fff">
                <use xlink:href="#aF"/>
            </mask>
            <path d="M4.31 0h8.666c1.289 0 2.15 1.047 1.922 2.337l-1.528 8.68c-.227 1.29-1.456 2.337-2.745 2.337H1.958c-1.288 0-2.149-1.046-1.922-2.337l1.529-8.68C1.792 1.047 3.02 0 4.309 0z" stroke="#D2D2D2" stroke-width=".667" mask="url(#aG)"/>
        </g>
        <g transform="translate(210.627 169.927)">
            <mask id="aI" fill="#fff">
                <use xlink:href="#aH"/>
            </mask>
            <path fill="#FEFEFE" mask="url(#aI)" d="M1.51-.667h14.333l-2.527 14.355H-1.018z"/>
        </g>
        <g transform="translate(210.627 169.927)">
            <mask id="aK" fill="#fff">
                <use xlink:href="#aJ"/>
            </mask>
            <path d="M4.31 0h8.667c1.288 0 2.149 1.047 1.922 2.337l-1.529 8.68c-.227 1.29-1.456 2.337-2.745 2.337H1.96c-1.29 0-2.15-1.046-1.923-2.337l1.529-8.68C1.792 1.047 3.02 0 4.31 0z" stroke="#D2D2D2" stroke-width=".667" mask="url(#aK)"/>
        </g>
        <g transform="translate(226.628 169.927)">
            <mask id="aM" fill="#fff">
                <use xlink:href="#aL"/>
            </mask>
            <path fill="#FEFEFE" mask="url(#aM)" d="M1.51-.667h14.333l-2.527 14.355H-1.018z"/>
        </g>
        <g transform="translate(226.628 169.927)">
            <mask id="aO" fill="#fff">
                <use xlink:href="#aN"/>
            </mask>
            <path d="M4.31 0h8.666c1.289 0 2.15 1.047 1.922 2.337l-1.528 8.68c-.227 1.29-1.456 2.337-2.745 2.337H1.958c-1.288 0-2.149-1.046-1.922-2.337l1.529-8.68C1.792 1.047 3.02 0 4.309 0z" stroke="#D2D2D2" stroke-width=".667" mask="url(#aO)"/>
        </g>
        <text font-family="Montserrat-SemiBold, Montserrat" font-size="9" font-weight="500" fill="#FEFEFE">
                    <tspan x="217.691" y="161.772">?</tspan>
                </text>
        <g transform="translate(25.846 89.005)">
            <mask id="aQ" fill="#fff">
                <use xlink:href="#aP"/>
            </mask>
            <path fill="#FCCA5B" mask="url(#aQ)" d="M3.307-.334h64.335l-4.128 23.446H-.82z"/>
        </g>
        <g fill="#233D48">
            <path d="M39.826 101.04h-1.398l-.228 1.299h1.558l-.069.39h-2.022l.634-3.601h1.942l-.069.39h-1.478l-.2 1.138h1.398zM42.217 102.73l-.319-.797a11.27 11.27 0 0 1-.29-.71h-.011c-.139.207-.274.4-.516.715l-.571.791h-.534l1.42-1.822-.743-1.78h.539l.326.844c.092.236.161.417.223.61h.016c.14-.214.259-.38.433-.61l.64-.843h.533l-1.402 1.752.795 1.85h-.54zM43.96 100.907c.098.027.224.037.379.037.56 0 .95-.272 1.037-.77.084-.475-.212-.705-.724-.705-.203 0-.36.016-.444.038l-.247 1.4zm-.157-1.737c.23-.037.53-.07.903-.07.459 0 .776.108.956.3.167.17.238.433.182.753a1.282 1.282 0 0 1-.413.77c-.292.262-.715.395-1.169.395-.138 0-.266-.005-.368-.031l-.254 1.442h-.464l.627-3.559zM46.6 99.128h.464l-.566 3.21h1.537l-.068.391h-2.002zM50.523 101.233l-.17-1.037c-.038-.235-.054-.449-.07-.657h-.011c-.091.213-.188.433-.296.652l-.536 1.042h1.083zm-1.243.363-.573 1.133h-.48l1.856-3.602h.56l.593 3.602h-.496l-.185-1.133H49.28zM52.861 99.128l-.634 3.601h-.464l.634-3.601zM53.038 102.73l.634-3.602h.507l.83 1.822c.194.422.335.801.44 1.17l.012-.006c.042-.48.109-.919.208-1.48l.265-1.506h.438l-.634 3.601h-.47l-.82-1.828c-.18-.4-.348-.812-.461-1.202l-.017.005a25.05 25.05 0 0 1-.224 1.486l-.271 1.54h-.437zM58.571 101.233l-.17-1.037c-.038-.235-.054-.449-.07-.657h-.011c-.091.213-.188.433-.296.652l-.536 1.042h1.083zm-1.243.363-.573 1.133h-.48l1.856-3.602h.56l.593 3.602h-.496l-.185-1.133h-1.275zM60.337 102.376c.088.016.22.022.386.022.48 0 .954-.177 1.046-.7.087-.492-.299-.695-.806-.695h-.384l-.242 1.373zm.304-1.726h.421c.491 0 .825-.256.886-.604.074-.422-.217-.587-.687-.587-.213 0-.338.016-.416.032l-.204 1.16zm-.205-1.475c.21-.042.537-.074.862-.074.464 0 .749.08.941.262.162.139.237.352.187.635-.061.348-.344.652-.748.791l-.002.01c.327.086.677.37.583.904-.054.31-.218.545-.43.722-.292.23-.717.336-1.304.336-.32 0-.561-.021-.712-.043l.623-3.543zM63.336 99.128h.464l-.566 3.21h1.537l-.068.391h-2.001zM66.317 99.128l-.634 3.601h-.464l.634-3.601zM67.741 99.523h-1.094l.07-.396h2.662l-.07.396h-1.098l-.565 3.206h-.47zM69.907 102.73l.27-1.53-.772-2.072h.528l.332.993c.091.273.16.492.227.743h.01c.143-.235.307-.47.494-.743l.693-.993h.528l-1.57 2.067-.27 1.534h-.47z"/>
        </g>
        <g transform="translate(21.068 116.145)">
            <mask id="aS" fill="#fff">
                <use xlink:href="#aR"/>
            </mask>
            <path fill="#FCCA5B" mask="url(#aS)" d="M3.307-.334H59.31L55.18 23.112H-.821z"/>
        </g>
        <g fill="#233D48">
            <path d="m32.887 129.87.634-3.602h.507l.831 1.822c.193.422.334.801.44 1.17l.012-.006c.042-.48.108-.919.207-1.48l.265-1.506h.438l-.634 3.601h-.47l-.82-1.828c-.18-.4-.348-.812-.46-1.202l-.017.005a25.05 25.05 0 0 1-.225 1.486l-.27 1.54h-.438zM38.42 128.373l-.169-1.037c-.039-.235-.054-.449-.07-.657h-.012c-.09.213-.188.433-.296.652l-.536 1.042h1.083zm-1.243.363-.573 1.133h-.48l1.856-3.602h.56l.594 3.602h-.497l-.185-1.133h-1.275zM40.253 129.87l-.54-3.602h.502l.247 1.773c.07.487.126.925.147 1.347h.011c.175-.417.405-.871.647-1.341l.922-1.78h.496l-1.92 3.602h-.512zM43.463 126.267l-.634 3.602h-.464l.634-3.602zM46.405 129.709a3.665 3.665 0 0 1-1.14.198c-.544 0-.967-.14-1.26-.476-.257-.3-.365-.78-.266-1.341.195-1.074 1.07-1.86 2.275-1.86.416 0 .726.091.868.166l-.18.38c-.177-.086-.404-.156-.767-.156-.875 0-1.542.545-1.701 1.448-.161.914.293 1.454 1.131 1.454.304 0 .52-.043.636-.096l.189-1.074h-.73l.065-.375h1.184l-.304 1.732zM49.109 128.373l-.17-1.037c-.038-.235-.054-.449-.07-.657h-.011c-.091.213-.189.433-.297.652l-.535 1.042h1.083zm-1.243.363-.573 1.133h-.48l1.855-3.602h.56l.594 3.602h-.496l-.185-1.133h-1.275zM51.41 126.663h-1.094l.07-.396h2.662l-.07.396H51.88l-.564 3.206h-.47zM53.911 126.267l-.634 3.602h-.464l.634-3.602zM54.684 128.09c-.136.77.159 1.459.89 1.459.736 0 1.272-.68 1.416-1.497.126-.716-.116-1.464-.89-1.464-.768 0-1.277.71-1.416 1.502m2.8-.06c-.218 1.24-1.086 1.898-2.004 1.898-.95 0-1.487-.738-1.295-1.828.202-1.143 1.043-1.892 2.004-1.892.981 0 1.484.754 1.295 1.823M57.762 129.87l.634-3.602h.507l.832 1.822c.192.422.334.801.44 1.17l.011-.006c.042-.48.109-.919.208-1.48l.265-1.506h.437l-.634 3.601h-.47l-.82-1.828c-.18-.4-.348-.812-.46-1.202l-.017.005c-.053.455-.12.888-.225 1.486l-.27 1.54h-.438z"/>
        </g>
        <g transform="translate(245.714 110.792)">
            <mask id="aU" fill="#fff">
                <use xlink:href="#aT"/>
            </mask>
            <path fill="#FEFEFE" mask="url(#aU)" d="M16.41-.334h72.037l-17.23 97.862H-.82z"/>
        </g>
        <g transform="translate(263.679 139.214)">
            <mask id="aW" fill="#fff">
                <use xlink:href="#aV"/>
            </mask>
            <path fill="#FCCA5B" mask="url(#aW)" d="M1.702-.334h14l-2.469 14.022h-14z"/>
        </g>
        <g transform="translate(302.698 139.214)">
            <mask id="aY" fill="#fff">
                <use xlink:href="#aX"/>
            </mask>
            <path fill="#FEFEFE" mask="url(#aY)" d="M1.457-.334H15.79l-2.528 14.355H-1.07z"/>
        </g>
        <g transform="translate(302.698 139.214)">
            <mask id="ba" fill="#fff">
                <use xlink:href="#aZ"/>
            </mask>
            <path d="M4.31 0h8.666c1.29 0 2.15 1.046 1.922 2.337l-1.528 8.68c-.227 1.29-1.456 2.337-2.745 2.337H1.958c-1.288 0-2.149-1.046-1.922-2.337l1.529-8.68C1.792 1.047 3.02 0 4.309 0z" stroke="#D2D2D2" stroke-width=".667" mask="url(#ba)"/>
        </g>
        <g transform="translate(299.877 155.238)">
            <mask id="bc" fill="#fff">
                <use xlink:href="#bb"/>
            </mask>
            <path fill="#FCCA5B" mask="url(#bc)" d="M1.702-.334h14l-2.469 14.022h-14z"/>
        </g>
        <g transform="translate(297.056 171.263)">
            <mask id="be" fill="#fff">
                <use xlink:href="#bd"/>
            </mask>
            <path fill="#FEFEFE" mask="url(#be)" d="M1.457-.334H15.79l-2.528 14.355H-1.07z"/>
        </g>
        <g transform="translate(297.056 171.263)">
            <mask id="bg" fill="#fff">
                <use xlink:href="#bf"/>
            </mask>
            <path d="M4.31 0h8.666c1.29 0 2.15 1.046 1.922 2.337l-1.528 8.68c-.227 1.29-1.456 2.337-2.745 2.337H1.958c-1.288 0-2.149-1.046-1.922-2.337l1.529-8.68C1.792 1.047 3.02 0 4.31 0z" stroke="#D2D2D2" stroke-width=".667" mask="url(#bg)"/>
        </g>
        <g stroke="#D2D2D2" stroke-width=".5">
            <path d="M284.589 145.89h19M288.472 152.234l-.764 4.34c-.52 2.95 1.447 5.341 4.392 5.341h8.667"/>
            <path d="M277.922 145.89h6.333c2.945 0 4.913 2.392 4.393 5.342l-3.762 21.366c-.519 2.95 1.448 5.342 4.394 5.342h8.666"/>
        </g>
        <g transform="translate(263.984 7.01)">
            <mask id="bi" fill="#fff">
                <use xlink:href="#bh"/>
            </mask>
            <path fill="#FEFEFE" mask="url(#bi)" d="M16.409-.334h72.038l-17.23 97.862H-.82z"/>
        </g>
        <g transform="translate(286.551 35.472)">
            <mask id="bk" fill="#fff">
                <use xlink:href="#bj"/>
            </mask>
            <path fill="#FCCA5B" mask="url(#bk)" d="M3.052-.334h35.335l-6.23 35.388H-3.179z"/>
        </g>
        <g transform="translate(321.945 34.086)">
            <mask id="bm" fill="#fff">
                <use xlink:href="#bl"/>
            </mask>
            <path fill="#FCCA5B" mask="url(#bm)" d="M1.165-.334h15.667L14.07 15.357H-1.597z"/>
        </g>
        <g transform="translate(327.042 49.368)">
            <mask id="bo" fill="#fff">
                <use xlink:href="#bn"/>
            </mask>
            <path fill="#FCCA5B" mask="url(#bo)" d="M.877-.334h12.667l-2.233 12.686H-1.356z"/>
        </g>
        <g transform="translate(317.627 61.518)">
            <mask id="bq" fill="#fff">
                <use xlink:href="#bp"/>
            </mask>
            <path fill="#FCCA5B" mask="url(#bq)" d="M.653-.334h10.334l-1.823 10.35H-1.169z"/>
        </g>
        <g transform="translate(277.667 66.359)">
            <mask id="bs" fill="#fff">
                <use xlink:href="#br"/>
            </mask>
            <path fill="#FCCA5B" mask="url(#bs)" d="M1.165-.334h15.667l-2.762 15.69H-1.597z"/>
        </g>
        <g transform="translate(274.298 55.804)">
            <mask id="bu" fill="#fff">
                <use xlink:href="#bt"/>
            </mask>
            <path fill="#FCCA5B" mask="url(#bu)" d="M.653-.334h10.334l-1.822 10.35H-1.17z"/>
        </g>
        <g transform="translate(35.402 34.726)">
            <mask id="bw" fill="#fff">
                <use xlink:href="#bv"/>
            </mask>
            <path fill="#FCCA5B" mask="url(#bw)" d="M3.307-.334H50.31L46.18 23.112H-.821z"/>
        </g>
        <g fill="#233D48">
            <path d="m48.343 44.848-.634 3.601h-.465l.634-3.601zM48.52 48.45l.633-3.602h.507l.832 1.822c.192.422.334.802.44 1.17l.01-.005c.043-.481.11-.92.208-1.48l.266-1.507h.437l-.634 3.601h-.47l-.82-1.827c-.18-.401-.347-.812-.46-1.202l-.017.005a25.05 25.05 0 0 1-.224 1.486l-.272 1.538h-.437zM52.064 47.883c.186.128.471.235.791.235.475 0 .797-.251.86-.614.06-.337-.098-.53-.55-.716-.55-.209-.86-.513-.77-1.021.098-.561.636-.978 1.335-.978.368 0 .62.085.763.176l-.194.38a1.255 1.255 0 0 0-.653-.171c-.491 0-.73.294-.773.54-.06.336.13.502.593.694.567.235.824.529.731 1.058-.098.556-.593 1.037-1.441 1.037-.347 0-.708-.102-.878-.23l.186-.39zM55.756 44.848l-.634 3.601h-.464l.634-3.601zM58.698 48.289a3.665 3.665 0 0 1-1.14.198c-.543 0-.967-.139-1.26-.476-.257-.3-.364-.78-.266-1.341.195-1.074 1.07-1.86 2.275-1.86.416 0 .726.091.868.166l-.18.38c-.176-.086-.404-.156-.767-.156-.875 0-1.542.545-1.7 1.448-.162.914.293 1.454 1.13 1.454.305 0 .52-.043.636-.096l.19-1.074h-.731l.066-.374h1.184l-.305 1.731zM60.476 44.848l-.265 1.507h1.74l.265-1.507h.47l-.634 3.601h-.47l.297-1.688h-1.74l-.297 1.688h-.464l.634-3.601zM64.103 45.243h-1.094l.07-.395h2.662l-.07.395h-1.099l-.564 3.207h-.47zM65.5 47.883c.185.128.47.235.79.235.475 0 .797-.251.86-.614.06-.337-.098-.53-.551-.716-.55-.209-.86-.513-.77-1.021.099-.561.637-.978 1.336-.978.368 0 .619.085.763.176l-.194.38a1.257 1.257 0 0 0-.653-.171c-.491 0-.73.294-.773.54-.06.336.13.502.593.694.567.235.824.529.731 1.058-.098.556-.593 1.037-1.442 1.037-.346 0-.707-.102-.877-.23l.186-.39z"/>
        </g>
        <g transform="translate(40.828 14.09)">
            <mask id="by" fill="#fff">
                <use xlink:href="#bx"/>
            </mask>
            <text mask="url(#by)" font-family="Montserrat-Medium, Montserrat" font-size="5.667" font-weight="400" fill="#FEFEFE">
                        <tspan x=".605" y="5.765">SEARCH</tspan>
                    </text>
        </g>
        <g transform="translate(110.357 7.01)">
            <mask id="bA" fill="#fff">
                <use xlink:href="#bz"/>
            </mask>
            <path fill="#FEFEFE" mask="url(#bA)" d="M16.401-.334h149.004l-17.221 97.817H-.821z"/>
        </g>
        <g transform="translate(176.106 20.241)">
            <mask id="bC" fill="#fff">
                <use xlink:href="#bB"/>
            </mask>
            <path fill="#E1E5E5" mask="url(#bC)" d="M.936-.334h22.811L21.843 10.48H-.967z"/>
        </g>
        <g transform="translate(155.81 27.85)">
            <mask id="bE" fill="#fff">
                <use xlink:href="#bD"/>
            </mask>
            <path fill="#FCCA5B" mask="url(#bE)" d="M.81-.334h11.975L10.674 11.66H-1.301z"/>
        </g>
        <g transform="translate(232.931 31.212)">
            <mask id="bG" fill="#fff">
                <use xlink:href="#bF"/>
            </mask>
            <path fill="#FCCA5B" mask="url(#bG)" d="M.132-.334H5.04l-.866 4.915H-.733z"/>
        </g>
        <path stroke="#D2D2D2" stroke-width=".5" d="M167.237 33.336h65.727"/>
        <g transform="translate(127.301 70.077)">
            <mask id="bI" fill="#fff">
                <use xlink:href="#bH"/>
            </mask>
            <path fill="#FCCA5B" mask="url(#bI)" d="M2.95-.54h108.67l-3.342 18.984H-.392z"/>
        </g>
        <g transform="translate(127.301 61.27)">
            <mask id="bK" fill="#fff">
                <use xlink:href="#bJ"/>
            </mask>
            <path fill="#FCCA5B" mask="url(#bK)" d="M4.465-.334h108.67l-4.857 27.584H-.392z"/>
        </g>
        <g transform="translate(127.301 74.682)">
            <mask id="bM" fill="#fff">
                <use xlink:href="#bL"/>
            </mask>
            <path fill="#FCCA5B" mask="url(#bM)" d="M2.284-1.362h108.67l-2.676 15.2H-.392z"/>
        </g>
        <g transform="translate(202.998 30.268)">
            <mask id="bO" fill="#fff">
                <use xlink:href="#bN"/>
            </mask>
            <path fill="#FCCA5B" mask="url(#bO)" d="M.313-.334h6.792L5.907 6.468H-.885z"/>
        </g>
        <g stroke="#D2D2D2" stroke-width=".5">
            <path d="M193.621 25.314h-11.308c-3.643 0-7.117 2.957-7.76 6.606l-.249 1.416"/>
            <path d="M179.322 42.301c-3.643 0-6.075-2.957-5.433-6.606l.415-2.36"/>
        </g>
        <g transform="translate(178.967 22.247)">
            <mask id="bQ" fill="#fff">
                <use xlink:href="#bP"/>
            </mask>
            <path fill="#FCCA5B" mask="url(#bQ)" d="M.313-.334h6.792L5.907 6.468H-.885z"/>
        </g>
        <g transform="translate(190.275 22.247)">
            <mask id="bS" fill="#fff">
                <use xlink:href="#bR"/>
            </mask>
            <path fill="#FCCA5B" mask="url(#bS)" d="M.313-.334h6.792L5.908 6.468H-.884z"/>
        </g>
        <g transform="translate(177.571 40.543)">
            <mask id="bU" fill="#fff">
                <use xlink:href="#bT"/>
            </mask>
            <path fill="#FCCA5B" mask="url(#bU)" d="M.02-.334h3.729L3.09 3.401h-3.73z"/>
        </g>
        <g transform="translate(40.18 7.586)">
            <mask id="bW" fill="#fff">
                <use xlink:href="#bV"/>
            </mask>
            <path fill="#FCCA5B" mask="url(#bW)" d="M3.307-.334h51.335l-4.128 23.446H-.82z"/>
        </g>
        <g fill="#233D48">
            <path d="m53.979 19.813-.17-1.036c-.038-.236-.054-.45-.07-.658h-.012c-.09.214-.188.433-.296.652l-.535 1.042h1.083zm-1.243.364-.573 1.132h-.48l1.855-3.601h.56l.594 3.601h-.497l-.184-1.132h-1.275zM55.219 21.31l.634-3.602h.507l.831 1.822c.193.422.334.802.44 1.17l.012-.005c.042-.48.108-.92.207-1.48l.265-1.507h.438l-.634 3.601h-.47l-.82-1.827a9.31 9.31 0 0 1-.46-1.202l-.017.005c-.054.454-.12.887-.225 1.486l-.27 1.538h-.438zM60.752 19.813l-.17-1.036c-.038-.236-.054-.45-.07-.658h-.01c-.092.214-.19.433-.297.652l-.536 1.042h1.083zm-1.243.364-.573 1.132h-.48l1.856-3.601h.56l.593 3.601h-.496l-.185-1.132H59.51zM62.626 17.708h.465l-.566 3.211h1.537l-.069.39h-2zM64.926 21.31l.27-1.529-.772-2.073h.528l.332.993c.09.273.159.492.226.744h.011c.143-.236.307-.47.494-.744l.692-.993h.528l-1.57 2.068-.27 1.533h-.469z"/>
            <path d="M68.221 18.103h-1.094l.07-.395h2.662l-.07.395H68.69l-.564 3.207h-.47zM70.723 17.708l-.634 3.601h-.465l.634-3.601zM73.433 21.192c-.186.086-.542.171-.98.171-1.014 0-1.664-.641-1.456-1.822.199-1.128 1.096-1.892 2.211-1.892.448 0 .714.096.826.16l-.179.38c-.161-.086-.4-.15-.7-.15-.842 0-1.498.54-1.664 1.486-.155.881.252 1.448 1.127 1.448.283 0 .581-.059.784-.15l.03.369zM74.018 20.743c.185.128.47.235.79.235.475 0 .797-.251.86-.614.06-.337-.098-.53-.55-.716-.55-.209-.86-.513-.77-1.021.098-.561.636-.978 1.335-.978.368 0 .62.085.764.176l-.195.38a1.257 1.257 0 0 0-.653-.171c-.49 0-.73.294-.773.54-.06.336.13.502.593.694.567.235.825.529.732 1.058-.098.556-.594 1.037-1.442 1.037-.347 0-.708-.102-.878-.23l.187-.39z"/>
        </g>
    </g>
</svg>
