<svg width="171" height="104" xmlns="http://www.w3.org/2000/svg" xmlns:xlink="http://www.w3.org/1999/xlink"><defs><filter x="-14.9%" y="-40.8%" width="129.7%" height="214.3%" filterUnits="objectBoundingBox" id="a"><feOffset dy="2" in="SourceAlpha" result="shadowOffsetOuter1"/><feGaussianBlur stdDeviation="2" in="shadowOffsetOuter1" result="shadowBlurOuter1"/><feColorMatrix values="0 0 0 0 0 0 0 0 0 0 0 0 0 0 0 0 0 0 0.5 0" in="shadowBlurOuter1"/></filter><rect id="b" x="14.453" y="39.375" width="47.128" height="12.25" rx="1"/></defs><g fill="none" fill-rule="evenodd"><path d="M3 0h48.5a3 3 0 0 1 3 3v101H0V3a3 3 0 0 1 3-3ZM64 0h104a3 3 0 0 1 3 3v101H61V3a3 3 0 0 1 3-3Z" fill="#FFF"/><rect fill="#1E3D49" x="17.715" y="18" width="27.309" height="6" rx="3"/><rect fill="#1E3D49" x="7.524" y="6.5" width="41" height="6" rx="3"/><rect stroke="#1E3D49" x="7.453" y="17.5" width="7" height="7" rx="1"/><rect stroke="#1E3D49" x="9.035" y="19.75" width="3.837" height="1" rx=".5"/><rect stroke="#1E3D49" x="9.035" y="21.75" width="3.837" height="1" rx=".5"/><rect stroke="#1E3D49" x="9.035" y="29.75" width="3.837" height="1" rx=".5"/><rect stroke="#1E3D49" x="9.035" y="31.75" width="3.837" height="1" rx=".5"/><rect stroke="#1E3D49" x="9.035" y="39.75" width="3.837" height="1" rx=".5"/><rect stroke="#1E3D49" x="9.035" y="41.75" width="3.837" height="1" rx=".5"/><rect stroke="#1E3D49" x="9.035" y="60.169" width="3.837" height="1" rx=".5"/><rect stroke="#1E3D49" x="9.035" y="62.169" width="3.837" height="1" rx=".5"/><rect stroke="#1E3D49" x="9.035" y="70.169" width="3.837" height="1" rx=".5"/><rect stroke="#1E3D49" x="9.035" y="72.169" width="3.837" height="1" rx=".5"/><rect stroke="#1E3D49" x="7.453" y="27.5" width="7" height="7" rx="1"/><rect stroke="#1E3D49" x="7.453" y="37.5" width="7" height="7" rx="1"/><rect fill="#1E3D49" x="17.715" y="28" width="24.767" height="6" rx="3"/><rect fill="#1E3D49" x="17.715" y="38" width="30.738" height="6" rx="3"/><rect fill="#1E3D49" x="17.5" y="58.419" width="21.5" height="6" rx="3"/><rect fill="#1E3D49" x="17.5" y="68.419" width="25" height="6" rx="3"/><rect stroke="#1E3D49" x="7.453" y="57.919" width="7" height="7" rx="1"/><rect stroke="#1E3D49" x="7.453" y="67.919" width="7" height="7" rx="1"/><rect fill="#E2E6E7" x="69.5" y="6.5" width="43.5" height="45.5" rx="3.431"/><rect fill="#E2E6E7" x="120" y="6.5" width="43.5" height="45.5" rx="3.431"/><rect fill="#E2E6E7" x="69.5" y="58.5" width="43.5" height="45.5" rx="3.431"/><rect fill="#E2E6E7" x="120" y="58.5" width="43.5" height="45.5" rx="3.431"/><path d="M4.538 46.625H50a1 1 0 0 1 1 1V55a1 1 0 0 1-1 1H4.538a1 1 0 0 1-1-1v-7.375a1 1 0 0 1 1-1Z" stroke="#D3D3D3" fill="#FFF" stroke-linecap="round" stroke-linejoin="round" stroke-dasharray="2,3"/><use fill="#000" filter="url(#a)" xlink:href="#b"/><use fill="#FFF" xlink:href="#b"/><g transform="translate(17.65 41.875)"><rect stroke="#1E3D49" x="1.582" y="2.25" width="3.837" height="1" rx=".5"/><rect stroke="#1E3D49" x="1.582" y="4.25" width="3.837" height="1" rx=".5"/><rect fill="#1E3D49" x="10.047" y=".5" width="29.5" height="6" rx="3"/><rect stroke="#1E3D49" width="7" height="7" rx="1"/></g><g fill-rule="nonzero"><path d="m65.102 48.395-2.554-2.554a1.165 1.165 0 0 0-1.967.602 1.166 1.166 0 0 0-1.936.717 1.167 1.167 0 0 0-1.337.221c-.4.4-.448 1.02-.144 1.473a1.166 1.166 0 0 0-.627 1.971l.82.819v.92a2.313 2.313 0 0 0 2.31 2.311h2.53c.755 0 1.464-.294 1.998-.827l.907-.908a3.333 3.333 0 0 0 .983-2.373c0-.896-.35-1.739-.983-2.372Z" stroke="#1E3D49" fill="#1E3D49"/><path d="m64.74 52.777-.908.908a2.295 2.295 0 0 1-1.634.676h-2.531a1.8 1.8 0 0 1-1.797-1.797v-.407l.588.59a.257.257 0 0 0 .363-.364l-1.92-1.921a.647.647 0 0 1 0-.92.667.667 0 0 1 .92 0l.637.637a.257.257 0 0 0 .363-.364l-1.15-1.15a.652.652 0 0 1 .92-.92l1.151 1.15a.257.257 0 0 0 .363-.363l-.766-.766a.647.647 0 0 1 0-.92.652.652 0 0 1 .921 0l.766.766a.257.257 0 0 0 .363-.364l-.124-.124a.652.652 0 0 1 0-.92.667.667 0 0 1 .92 0l2.554 2.554c.537.536.833 1.25.833 2.01 0 .758-.296 1.472-.833 2.009Z" fill="#FFF"/></g><rect fill="#1E3D49" x="17.715" y="79" width="27.309" height="6" rx="3"/><rect stroke="#1E3D49" x="7.453" y="78.5" width="7" height="7" rx="1"/><rect stroke="#1E3D49" x="9.035" y="80.75" width="3.837" height="1" rx=".5"/><rect stroke="#1E3D49" x="9.035" y="82.75" width="3.837" height="1" rx=".5"/><rect stroke="#1E3D49" x="9.035" y="90.75" width="3.837" height="1" rx=".5"/><rect stroke="#1E3D49" x="9.035" y="92.75" width="3.837" height="1" rx=".5"/><rect stroke="#1E3D49" x="7.453" y="88.5" width="7" height="7" rx="1"/><rect fill="#1E3D49" x="17.715" y="89" width="24.767" height="6" rx="3"/></g></svg>