<svg width="160" height="92" xmlns="http://www.w3.org/2000/svg"><g transform="translate(0 .932)" fill="none" fill-rule="evenodd"><rect stroke="#A6B0B5" stroke-width=".707" fill="#FFF" x=".353" y=".353" width="159.293" height="28.384" rx="14.138"/><path d="M145.778 19.162a5.172 5.172 0 1 0 0-10.344 5.172 5.172 0 0 0 0 10.344Zm6.464 1.293-2.812-2.813" stroke-opacity=".5" stroke="#1E3D49" stroke-width="1.6" stroke-linecap="round" stroke-linejoin="round"/><rect fill="#1E3D49" opacity=".177" x="12.917" y="8.818" width="86" height="11.636" rx="5.818"/><path d="M80.5 42.636v.432h-1v-.432h1Zm0-6v3h-1v-3h1Zm0-6v3h-1v-3h1Zm0-6v3h-1v-3h1Zm-.5-14.5a4.5 4.5 0 0 1 .5 8.973v2.527h-1V19.11a4.5 4.5 0 0 1 .5-8.973Zm0 1a3.5 3.5 0 1 0 0 7 3.5 3.5 0 0 0 0-7Z" fill="#1E3D49" fill-rule="nonzero"/><g transform="translate(57.07 43.068)" fill-rule="nonzero"><circle fill="#DFE1DF" cx="23.607" cy="23.607" r="22.623"/><path d="M23.607 0C10.59 0 0 10.59 0 23.607c0 13.016 10.59 23.607 23.607 23.607 13.016 0 23.607-10.59 23.607-23.607S36.624 0 23.607 0ZM3.934 23.607c0-4.717 1.672-9.049 4.45-12.442L36.048 38.83a19.577 19.577 0 0 1-12.441 4.45c-10.848 0-19.673-8.826-19.673-19.673ZM38.83 36.048 11.165 8.384a19.577 19.577 0 0 1 12.442-4.45c10.847 0 19.672 8.825 19.672 19.673 0 4.717-1.671 9.048-4.45 12.441Z" fill="#1E3D49"/><path d="M33.831 22.623c-1.19 0-2.292.59-2.95 1.58l-1.373 2.057V13.77a2.954 2.954 0 0 0-2.95-2.95c-.347 0-.675.07-.984.18v-.18a2.954 2.954 0 0 0-2.95-2.951c-1.361 0-2.498.93-2.838 2.184a2.926 2.926 0 0 0-1.097-.217 2.954 2.954 0 0 0-2.951 2.95v2.15a2.919 2.919 0 0 0-.984-.182 2.954 2.954 0 0 0-2.95 2.951V32.46a6.894 6.894 0 0 0 6.885 6.886h5.202c2.61 0 5.074-1.142 6.805-3.195l6.495-9.018a.979.979 0 0 0 .187-.574v-.388a3.55 3.55 0 0 0-3.547-3.547Z" fill="#1E3D49"/><path d="M29.147 34.94a6.872 6.872 0 0 1-5.256 2.437H18.69a4.923 4.923 0 0 1-4.918-4.918V17.705c0-.543.441-.984.983-.984s.984.441.984.984v4.918a.983.983 0 1 0 1.967 0v-9.836a.985.985 0 0 1 1.967 0v9.836a.983.983 0 1 0 1.968 0V10.82c0-.543.442-.984.983-.984.542 0 .984.441.984.984v11.803a.983.983 0 1 0 1.967 0v-8.852a.985.985 0 0 1 1.967 0v15.737a.984.984 0 0 0 1.802.546l3.174-4.761c.294-.44.784-.703 1.314-.703.87 0 1.58.71 1.58 1.58l-6.264 8.77Z" fill="#FFF"/></g></g></svg>