<svg width="172" height="109" xmlns="http://www.w3.org/2000/svg"><g transform="translate(.5 .523)" fill="none" fill-rule="evenodd"><rect fill="#FFF" width="51" height="59.3" rx="4"/><rect fill="#1E3D49" x="10.5" y="7.713" width="30" height="30" rx="15"/><rect fill="#FFF" x="60" width="51" height="59.3" rx="4"/><rect fill="#1E3D49" x="70.5" y="7.713" width="30" height="30" rx="3"/><rect fill="#FFF" x="120" width="51" height="59.3" rx="4"/><rect fill="#1E3D49" x="130.5" y="7.713" width="30" height="30" rx="6"/><rect fill="#FFF" y="68" width="51" height="39.5" rx="3"/><rect fill="#1E3D49" x="10.5" y="75.713" width="30" height="30" rx="4"/><rect fill="#FFF" opacity=".343" x="60" y="68" width="51" height="39.5" rx="3"/><rect fill="#1E3D49" opacity=".142" x="70.5" y="75.713" width="30" height="30" rx="15"/><rect fill="#FFF" x="120" y="68" width="51" height="39.5" rx="3"/><rect fill="#1E3D49" x="130.5" y="75.713" width="30" height="30" rx="4"/><path d="m51.92 24.008.199.98-7.127 1.445 5.793 1.87c9.929 3.97 17.976 10.65 24.133 20.033 7.438 11.333 11.132 25.106 11.088 41.306l-.006.84-1-.01c.174-16.375-3.467-30.233-10.918-41.588-5.92-9.02-13.605-15.486-23.032-19.394l-.604-.246-5.759-1.858 4.936 5.338-.734.678-6.232-6.739-.603-.652.87-.177 8.996-1.826Z" fill="#1E3D49" fill-rule="nonzero"/></g></svg>