<svg width="176" height="94" xmlns="http://www.w3.org/2000/svg"><g transform="translate(.122 .219)" fill="none" fill-rule="evenodd"><rect fill="#1E3D49" x="15.691" y="4.984" width="33.334" height="2.457" rx="1.229"/><rect stroke="#1E3D49" stroke-width="2" fill="#FFF" x="24.617" y="3.781" width="5.192" height="4.862" rx="2.431"/><rect fill="#1E3D49" x="15.691" y="21.784" width="33.334" height="2.457" rx="1.229"/><rect stroke="#1E3D49" stroke-width="2" fill="#FFF" x="14.617" y="20.581" width="5.192" height="4.862" rx="2.431"/><rect fill="#1E3D49" x="15.691" y="38.584" width="33.334" height="2.457" rx="1.229"/><rect stroke="#1E3D49" stroke-width="2" fill="#FFF" x="44.617" y="37.381" width="5.192" height="4.862" rx="2.431"/><rect fill="#1E3D49" x="15.691" y="55.384" width="33.334" height="2.457" rx="1.229"/><rect stroke="#1E3D49" stroke-width="2" fill="#FFF" x="33.358" y="54.181" width="5.192" height="4.862" rx="2.431"/><rect fill="#FFF" x="118.032" y=".512" width="26.769" height="28" rx="3.431"/><rect fill="#FFF" x="149.109" y=".512" width="26.769" height="28" rx="3.431"/><rect fill="#FFF" x="118.032" y="32.512" width="26.769" height="28" rx="3.431"/><rect fill="#FFF" x="86.955" y=".512" width="26.769" height="28" rx="3.431"/><rect fill="#FFF" x="86.955" y="32.512" width="26.769" height="28" rx="3.431"/><rect fill="#FFF" x="55.878" y=".512" width="26.769" height="28" rx="3.431"/><rect fill="#FFF" x="55.878" y="32.512" width="26.769" height="28" rx="3.431"/><rect fill="#FFF" x="149.109" y="32.512" width="26.769" height="28" rx="3.431"/><rect fill="#FFF" x="118.032" y="65.212" width="26.769" height="28" rx="3.431"/><rect fill="#FFF" x="149.109" y="65.212" width="26.769" height="28" rx="3.431"/><rect fill="#FFF" x="86.955" y="65.212" width="26.769" height="28" rx="3.431"/><rect fill="#FFF" x="55.878" y="65.212" width="26.769" height="28" rx="3.431"/><path d="m6.212 1.236 4.733 3.439-1.807 5.563h-5.85L1.48 4.675l4.732-3.439ZM69.263 42.277l4.733 3.439-1.808 5.563h-5.85l-1.808-5.563 4.733-3.439ZM100.263 42.277l4.733 3.439-1.808 5.563h-5.85l-1.808-5.563 4.733-3.439ZM130.656 42.277l4.732 3.439-1.807 5.563h-5.85l-1.808-5.563 4.733-3.439Z" stroke="#1E3D49" stroke-width="2" fill="#FFF"/><path d="m6.212 35.014 4.799 4.798-4.799 4.799-4.798-4.799 4.798-4.798ZM69.263 9.714l4.798 4.798-4.798 4.799-4.799-4.799 4.799-4.798ZM100.263 9.714l4.798 4.798-4.798 4.799-4.799-4.799 4.799-4.798Z" stroke="#1E3D49" stroke-width="2" fill="#1E3D49"/><path d="m6.212 51.464 3.31 1.205 1.76 3.05-.611 3.468-2.698 2.263H4.452l-2.698-2.263-.612-3.469 1.761-3.05 3.31-1.204ZM131.704 10.423l3.31 1.205 1.76 3.05-.612 3.468-2.697 2.263h-3.522l-2.698-2.263-.611-3.469 1.76-3.05 3.31-1.204ZM162.704 10.423l3.31 1.205 1.76 3.05-.612 3.468-2.697 2.263h-3.522l-2.698-2.263-.611-3.469 1.76-3.05 3.31-1.204ZM6.212 18.8l3.649 6.319H2.564L6.212 18.8ZM162.206 44.243l3.648 6.32h-7.296l3.648-6.32ZM69.263 75l3.648 6.319h-7.296L69.263 75ZM100.263 75l3.648 6.319h-7.296L100.263 75ZM131.263 75l3.648 6.319h-7.296L131.263 75ZM161.263 75l3.648 6.319h-7.296L161.263 75Z" stroke="#1E3D49" stroke-width="2" fill="#FFF"/></g></svg>