<svg width="171" height="104" xmlns="http://www.w3.org/2000/svg"><g fill="none" fill-rule="evenodd"><path d="M64 0h104a3 3 0 0 1 3 3v101H61V3a3 3 0 0 1 3-3ZM3 0h48.5a3 3 0 0 1 3 3v101H0V3a3 3 0 0 1 3-3Z" fill="#FFF"/><rect fill="#1E3D49" x="17.715" y="18" width="27.309" height="6" rx="3"/><rect fill="#1E3D49" x="7.524" y="6.5" width="41" height="6" rx="3"/><rect stroke="#1E3D49" x="7.453" y="17.5" width="7" height="7" rx="1"/><rect stroke="#1E3D49" x="7.453" y="27.5" width="7" height="7" rx="1"/><rect stroke="#1E3D49" x="7.453" y="37.5" width="7" height="7" rx="1"/><rect fill="#1E3D49" x="17.715" y="28" width="24.767" height="6" rx="3"/><rect fill="#1E3D49" x="17.715" y="38" width="30.738" height="6" rx="3"/><rect fill="#1E3D49" x="17.5" y="69.419" width="29.5" height="6" rx="3"/><rect fill="#1E3D49" x="17.5" y="79.419" width="21.5" height="6" rx="3"/><rect fill="#1E3D49" x="17.5" y="89.419" width="25" height="6" rx="3"/><rect fill="#1E3D49" x="7.453" y="55.771" width="39.547" height="2.457" rx="1.229"/><rect stroke="#1E3D49" stroke-width="2" fill="#FFF" x="32.593" y="54.569" width="5.192" height="4.862" rx="2.431"/><rect stroke="#1E3D49" x="7.453" y="68.919" width="7" height="7" rx="1"/><rect stroke="#1E3D49" x="7.453" y="78.919" width="7" height="7" rx="1"/><rect stroke="#1E3D49" x="7.453" y="88.919" width="7" height="7" rx="1"/><path stroke="#1E3D49" d="m15 28-4.338 4.5-2-2M15 79l-4.338 4.5-2-2"/><rect fill="#E2E6E7" x="69.5" y="6.5" width="43.5" height="45.5" rx="3.431"/><rect fill="#E2E6E7" x="120" y="6.5" width="43.5" height="45.5" rx="3.431"/><rect fill="#E2E6E7" x="69.5" y="58.5" width="43.5" height="45.5" rx="3.431"/><rect fill="#E2E6E7" x="120" y="58.5" width="43.5" height="45.5" rx="3.431"/></g></svg>