<svg width="160" height="97" xmlns="http://www.w3.org/2000/svg"><g transform="translate(0 .682)" fill="none" fill-rule="evenodd"><path d="M154.182 95.261c1.503 0 2.864-.609 3.849-1.594a5.426 5.426 0 0 0 1.594-3.849V15.011H.375v74.807c0 1.503.61 2.864 1.594 3.85a5.426 5.426 0 0 0 3.85 1.593Z" stroke="#A6B0B5" stroke-width=".75" fill="#FFF"/><rect stroke="#A6B0B5" stroke-width=".707" fill="#FFF" x=".353" y=".353" width="159.293" height="28.384" rx="14.138"/><path d="M145.778 19.162a5.172 5.172 0 1 0 0-10.344 5.172 5.172 0 0 0 0 10.344Zm6.464 1.293-2.812-2.813" stroke-opacity=".5" stroke="#1E3D49" stroke-width="1.6" stroke-linecap="round" stroke-linejoin="round"/><rect fill="#1E3D49" opacity=".177" x="12.917" y="8.818" width="86" height="11.636" rx="5.818"/><rect fill="#1E3D49" x="27.833" y="35.934" width="86" height="9" rx="4.5"/><rect fill="#1E3D49" x="27.833" y="73.934" width="77" height="9" rx="4.5"/><rect fill="#1E3D49" x="27.833" y="54.934" width="68.5" height="9" rx="4.5"/><path d="M18.946 34.21a.379.379 0 0 1 .044.483l-.044.053-.879.877a4.66 4.66 0 1 1-4.95 4.651.379.379 0 1 1 .759 0 3.902 3.902 0 1 0 4.216-3.89l.854.857a.379.379 0 0 1 .044.483l-.044.053a.379.379 0 0 1-.483.043l-.053-.043-1.515-1.516a.379.379 0 0 1-.044-.483l.044-.053 1.515-1.515a.379.379 0 0 1 .536 0Zm-1.282 3.678c.186 0 .34.134.373.31l.006.068v2.117l1.405 1.404a.379.379 0 0 1 .043.483l-.043.053a.379.379 0 0 1-.484.044l-.052-.044-1.516-1.515a.379.379 0 0 1-.106-.209l-.005-.06v-2.273c0-.209.17-.378.38-.378ZM18.946 53.21a.379.379 0 0 1 .044.483l-.044.053-.879.877a4.66 4.66 0 1 1-4.95 4.651.379.379 0 1 1 .759 0 3.902 3.902 0 1 0 4.216-3.89l.854.857a.379.379 0 0 1 .044.483l-.044.053a.379.379 0 0 1-.483.043l-.053-.043-1.515-1.516a.379.379 0 0 1-.044-.483l.044-.053 1.515-1.515a.379.379 0 0 1 .536 0Zm-1.282 3.678c.186 0 .34.134.373.31l.006.068v2.117l1.405 1.404a.379.379 0 0 1 .043.483l-.043.053a.379.379 0 0 1-.484.044l-.052-.044-1.516-1.515a.379.379 0 0 1-.106-.209l-.005-.06v-2.273c0-.209.17-.378.38-.378ZM18.946 72.21a.379.379 0 0 1 .044.483l-.044.053-.879.877a4.66 4.66 0 1 1-4.95 4.651.379.379 0 1 1 .759 0 3.902 3.902 0 1 0 4.216-3.89l.854.857a.379.379 0 0 1 .044.483l-.044.053a.379.379 0 0 1-.483.043l-.053-.043-1.515-1.516a.379.379 0 0 1-.044-.483l.044-.053 1.515-1.515a.379.379 0 0 1 .536 0Zm-1.282 3.678c.186 0 .34.134.373.31l.006.068v2.117l1.405 1.404a.379.379 0 0 1 .043.483l-.043.053a.379.379 0 0 1-.484.044l-.052-.044-1.516-1.515a.379.379 0 0 1-.106-.209l-.005-.06v-2.273c0-.209.17-.378.38-.378Z" fill="#1E3D49" fill-rule="nonzero"/></g></svg>