<svg width="160" height="97" xmlns="http://www.w3.org/2000/svg"><g transform="translate(0 .682)" fill="none" fill-rule="evenodd"><path d="M154.182 95.261c1.503 0 2.864-.609 3.849-1.594a5.426 5.426 0 0 0 1.594-3.849V15.011H.375v74.807c0 1.503.61 2.864 1.594 3.85a5.426 5.426 0 0 0 3.85 1.593Z" stroke="#A6B0B5" stroke-width=".75" fill="#FFF"/><rect stroke="#A6B0B5" stroke-width=".707" fill="#FFF" x=".353" y=".353" width="159.293" height="28.384" rx="14.138"/><path d="M145.778 19.162a5.172 5.172 0 1 0 0-10.344 5.172 5.172 0 0 0 0 10.344Zm6.464 1.293-2.812-2.813" stroke-opacity=".5" stroke="#1E3D49" stroke-width="1.6" stroke-linecap="round" stroke-linejoin="round"/><rect fill="#1E3D49" opacity=".177" x="12.917" y="7.136" width="15.572" height="15" rx="5.818"/><text font-family="Montserrat-Medium, Montserrat" font-size="14" font-weight="400" fill="#FFF">
                    <tspan x="15.882" y="19.545">#</tspan>
                </text><rect fill="#1E3D49" opacity=".177" x="12.917" y="38.409" width="12" height="12" rx="3"/><text font-family="Montserrat-Medium, Montserrat" font-size="11" font-weight="400" fill="#FFF">
                    <tspan x="14.917" y="48.409">#</tspan>
                </text><rect fill="#1E3D49" opacity=".177" x="25.917" y="38.409" width="12" height="12" rx="3"/><rect fill="#1E3D49" x="38.917" y="38.409" width="12" height="12" rx="3"/><text font-family="Montserrat-Medium, Montserrat" font-size="11" font-weight="400" fill="#FFF">
                    <tspan x="28.58" y="48.409">#</tspan>
                </text><text font-family="Montserrat-Medium, Montserrat" font-size="11" font-weight="400" fill="#FFF">
                    <tspan x="41.153" y="48.409">#</tspan>
                </text><text font-family="Montserrat-Medium, Montserrat" font-size="11" font-weight="400" fill="#FFF">
                    <tspan x="51.153" y="48.409">#</tspan>
                </text><rect fill="#1E3D49" x="51.917" y="38.409" width="12" height="12" rx="3"/><text font-family="Montserrat-Medium, Montserrat" font-size="11" font-weight="400" fill="#FFF">
                    <tspan x="65.917" y="48.409">#</tspan>
                </text><rect fill="#1E3D49" x="64.917" y="38.409" width="12" height="12" rx="3"/><rect fill="#1E3D49" x="80.58" y="39.909" width="67.5" height="9" rx="4.5"/><rect fill="#1E3D49" x="80.58" y="56.909" width="48" height="9" rx="4.5"/><rect fill="#1E3D49" x="80.58" y="73.909" width="57.5" height="9" rx="4.5"/><text font-family="Montserrat-Medium, Montserrat" font-size="11" font-weight="400" fill="#FFF">
                    <tspan x="54.153" y="48.409">#</tspan>
                </text><text font-family="Montserrat-Medium, Montserrat" font-size="11" font-weight="400" fill="#FFF">
                    <tspan x="66.917" y="48.409">#</tspan>
                </text><rect fill="#1E3D49" opacity=".177" x="12.917" y="55.409" width="12" height="12" rx="3"/><text font-family="Montserrat-Medium, Montserrat" font-size="11" font-weight="400" fill="#FFF">
                    <tspan x="14.917" y="65.409">#</tspan>
                </text><rect fill="#1E3D49" opacity=".177" x="25.917" y="55.409" width="12" height="12" rx="3"/><rect fill="#1E3D49" x="38.917" y="55.409" width="12" height="12" rx="3"/><text font-family="Montserrat-Medium, Montserrat" font-size="11" font-weight="400" fill="#FFF">
                    <tspan x="28.58" y="65.409">#</tspan>
                </text><text font-family="Montserrat-Medium, Montserrat" font-size="11" font-weight="400" fill="#FFF">
                    <tspan x="41.153" y="65.409">#</tspan>
                </text><text font-family="Montserrat-Medium, Montserrat" font-size="11" font-weight="400" fill="#FFF">
                    <tspan x="51.153" y="65.409">#</tspan>
                </text><rect fill="#1E3D49" x="51.917" y="55.409" width="12" height="12" rx="3"/><text font-family="Montserrat-Medium, Montserrat" font-size="11" font-weight="400" fill="#FFF">
                    <tspan x="65.917" y="65.409">#</tspan>
                </text><rect fill="#1E3D49" x="64.917" y="55.409" width="12" height="12" rx="3"/><text font-family="Montserrat-Medium, Montserrat" font-size="11" font-weight="400" fill="#FFF">
                    <tspan x="54.153" y="65.409">#</tspan>
                </text><text font-family="Montserrat-Medium, Montserrat" font-size="11" font-weight="400" fill="#FFF">
                    <tspan x="66.917" y="65.409">#</tspan>
                </text><rect fill="#1E3D49" opacity=".177" x="12.917" y="72.409" width="12" height="12" rx="3"/><text font-family="Montserrat-Medium, Montserrat" font-size="11" font-weight="400" fill="#FFF">
                    <tspan x="14.917" y="82.409">#</tspan>
                </text><rect fill="#1E3D49" opacity=".177" x="25.917" y="72.409" width="12" height="12" rx="3"/><rect fill="#1E3D49" x="38.917" y="72.409" width="12" height="12" rx="3"/><text font-family="Montserrat-Medium, Montserrat" font-size="11" font-weight="400" fill="#FFF">
                    <tspan x="28.58" y="82.409">#</tspan>
                </text><text font-family="Montserrat-Medium, Montserrat" font-size="11" font-weight="400" fill="#FFF">
                    <tspan x="41.153" y="82.409">#</tspan>
                </text><text font-family="Montserrat-Medium, Montserrat" font-size="11" font-weight="400" fill="#FFF">
                    <tspan x="51.153" y="82.409">#</tspan>
                </text><rect fill="#1E3D49" x="51.917" y="72.409" width="12" height="12" rx="3"/><text font-family="Montserrat-Medium, Montserrat" font-size="11" font-weight="400" fill="#FFF">
                    <tspan x="65.917" y="82.409">#</tspan>
                </text><rect fill="#1E3D49" x="64.917" y="72.409" width="12" height="12" rx="3"/><text font-family="Montserrat-Medium, Montserrat" font-size="11" font-weight="400" fill="#FFF">
                    <tspan x="54.153" y="82.409">#</tspan>
                </text><text font-family="Montserrat-Medium, Montserrat" font-size="11" font-weight="400" fill="#FFF">
                    <tspan x="66.917" y="82.409">#</tspan>
                </text><rect fill="#1E3D49" opacity=".177" x="29.58" y="7.136" width="15.572" height="15" rx="5.818"/><text font-family="Montserrat-Medium, Montserrat" font-size="14" font-weight="400" fill="#FFF">
                    <tspan x="32.546" y="19.545">#</tspan>
                </text></g></svg>