<svg width="143" height="80" xmlns="http://www.w3.org/2000/svg" xmlns:xlink="http://www.w3.org/1999/xlink"><defs><rect id="a" x="0" y="0" width="45" height="80" rx="6"/><rect id="c" x="0" y="0" width="45" height="80" rx="6"/><rect id="e" x="0" y="0" width="45" height="80" rx="6"/></defs><g fill="none" fill-rule="evenodd"><mask id="b" fill="#fff"><use xlink:href="#a"/></mask><use fill="#FFF" xlink:href="#a"/><g mask="url(#b)"><g transform="translate(-4 19)"><ellipse fill="#1E3D49" cx="24.338" cy="15.294" rx="14.451" ry="14.529"/><ellipse fill="#CFD4D7" cx="43.732" cy="6.118" rx="6.465" ry="6.118"/><ellipse fill="#D7DDDF" cx="49.056" cy="17.206" rx="4.944" ry="4.971"/><ellipse fill="#D7DDDF" cx="41.451" cy="26.382" rx="4.183" ry="4.206"/><ellipse fill="#D7DDDF" cx="11.028" cy="32.882" rx="6.465" ry="6.118"/><ellipse fill="#D7DDDF" cx="4.183" cy="21.794" rx="4.183" ry="4.206"/></g></g><g transform="translate(49)"><mask id="d" fill="#fff"><use xlink:href="#c"/></mask><use fill="#FFF" xlink:href="#c"/><g mask="url(#d)"><g transform="translate(-33 19)"><g transform="translate(11.748)"><path d="m9.875 3.41 5.883 9.254a11.007 11.007 0 0 1 1.719 5.906V44" stroke="#CFD4D7" stroke-width=".688"/><path d="m6.91 12.354 5.903 6.124a11.007 11.007 0 0 1 3.081 7.638V44" stroke="#CFD4D7" stroke-width=".688"/><path d="m2.073 19.234 6.548 4.065a11.007 11.007 0 0 1 5.2 9.351V44" stroke="#CFD4D7" stroke-width=".688"/><ellipse fill="#CFD4D7" cx="8.293" cy="2.064" rx="2.073" ry="2.064"/><ellipse fill="#CFD4D7" cx="4.837" cy="10.319" rx="2.764" ry="2.752"/><ellipse fill="#CFD4D7" cx="1.382" cy="18.575" rx="1.382" ry="1.376"/></g><g transform="matrix(-1 0 0 1 72.761 0)"><path d="m9.875 3.41 5.883 9.254a11.007 11.007 0 0 1 1.719 5.906V44" stroke="#CFD4D7" stroke-width=".688"/><path d="m6.91 12.354 5.903 6.124a11.007 11.007 0 0 1 3.081 7.638V44" stroke="#CFD4D7" stroke-width=".688"/><path d="m2.073 19.234 6.548 4.065a11.007 11.007 0 0 1 5.2 9.351V44" stroke="#CFD4D7" stroke-width=".688"/><ellipse fill="#CFD4D7" cx="8.293" cy="2.064" rx="2.073" ry="2.064"/><ellipse fill="#CFD4D7" cx="4.837" cy="10.319" rx="2.764" ry="2.752"/><ellipse fill="#CFD4D7" cx="1.382" cy="18.575" rx="1.382" ry="1.376"/></g><g stroke="#243C47" stroke-width=".688"><path d="m42.154 15.135-3.939 5.76a11.007 11.007 0 0 0-1.921 6.214V44"/><path d="m42.154 15.135-2.441 6.758a11.007 11.007 0 0 0-.655 3.74V44m3.455-28.865 3.94 5.76a11.007 11.007 0 0 1 1.921 6.214V44"/><path d="m42.513 15.135 2.442 6.758c.433 1.199.655 2.465.655 3.74V44"/><path stroke-linecap="square" d="M42.327 15.479v28.206"/></g><ellipse fill="#243C47" cx="42.154" cy="12.383" rx="2.764" ry="2.752"/><rect fill="#CFD4D7" x="5.528" y=".688" width="9.675" height="2.064" rx="1.032"/><rect fill="#CFD4D7" x="69.106" y=".688" width="9.675" height="2.064" rx="1.032"/><rect fill="#CFD4D7" y="8.943" width="11.748" height="2.064" rx="1.032"/><rect fill="#CFD4D7" x="73.252" y="8.943" width="11.748" height="2.064" rx="1.032"/><rect fill="#CFD4D7" y="17.543" width="9.675" height="2.064" rx="1.032"/><rect fill="#CFD4D7" x="75.325" y="17.543" width="9.675" height="2.064" rx="1.032"/></g></g></g><g transform="translate(98)"><mask id="f" fill="#fff"><use xlink:href="#e"/></mask><use fill="#FFF" xlink:href="#e"/><g mask="url(#f)"><path d="M-8 41.159c7.114.301 12.516.301 16.205 0 8.027-.656 11.41-8.935 14.795-9.08 5.68-.242 6.557 9.08 14.795 9.08C45.628 41.159 45.991 23 51.182 23H54v7.683c-1.624-.669-2.564-.669-2.818 0-4.369 11.482-8.404 18.159-13.387 18.159-7.492 0-10.837-9.08-14.795-9.08-3.851 0-7.332 9.08-14.795 9.08H-8v-7.683z" fill="#243C47" opacity=".06"/><path d="M-8 32.08c1.96.319 3.514.052 4.659-.8C1.819 27.437 4.349 23 8.371 23c9.49 0 6.35 9.414 14.629 9.08 8.122-.328 6.524-9.08 14.63-9.08 6.685 0 7.446 4.706 12.887 8.519.957.67 2.118.858 3.483.56v7.683h-2.818c-4.096 0-3.399-9.08-13.553-9.08-7.35 0-6.31 9.08-14.629 9.08-8.319 0-7.345-9.08-14.63-9.08-4.471 0-6.256 4.136-12.386 8.635-.67.491-1.998.64-3.984.445V32.08z" fill="#243C47" opacity=".25"/><g transform="translate(-8 32.08)"><rect fill="#243C47" width="2.818" height="7.683" rx=".211"/><rect fill="#BBC3C6" y="9.079" width="2.818" height="7.683" rx=".211"/><rect fill="#BBC3C6" y="18.159" width="2.818" height="7.683" rx=".211"/></g><g transform="translate(6.795 23)"><rect fill="#243C47" width="2.818" height="7.683" rx=".211"/><rect fill="#BBC3C6" y="9.079" width="2.818" height="7.683" rx=".211"/><rect fill="#BBC3C6" y="18.159" width="2.818" height="7.683" rx=".211"/><rect fill="#BBC3C6" y="27.238" width="2.818" height="7.683" rx=".211"/></g><g transform="translate(21.59 32.08)"><rect fill="#243C47" width="2.818" height="7.683" rx=".211"/><rect fill="#BBC3C6" y="9.079" width="2.818" height="7.683" rx=".211"/><rect fill="#BBC3C6" y="18.159" width="2.818" height="7.683" rx=".211"/></g><g transform="translate(36.386 23)"><rect fill="#243C47" width="2.818" height="7.683" rx=".211"/><rect fill="#BBC3C6" y="9.079" width="2.818" height="7.683" rx=".211"/><rect fill="#BBC3C6" y="18.159" width="2.818" height="7.683" rx=".211"/><rect fill="#BBC3C6" y="27.238" width="2.818" height="7.683" rx=".211"/></g><path d="M-8 50.238c2.43-4.731 4.286-7.99 5.565-9.777 3.474-4.852 5.948-8.382 10.64-8.382 7.781 0 8.078 18.16 13.386 18.16h2.818c4.323 0 6.699.222 13.386 0 3.031-.101 8.432-.101 16.205 0v7.682c-7.696-.086-13.098-.086-16.205 0-6.406.178-9.03 0-13.386 0h-2.818c-7.622 0-6.14-18.159-13.386-18.159-7.447 0-8.55 3.54-11.5 10.476-.668 1.573-1.297 4.133-1.887 7.683C-7.06 58.03-8 57.977-8 57.762v-7.524z" fill="#243C47" opacity=".06"/></g></g><rect stroke="#BBC3C6" stroke-width=".961" x=".481" y=".481" width="44.039" height="79.039" rx="6"/><rect stroke="#BBC3C6" stroke-width=".961" x="49.481" y=".481" width="44.039" height="79.039" rx="6"/><rect stroke="#BBC3C6" stroke-width=".961" x="98.481" y=".481" width="44.039" height="79.039" rx="6"/></g></svg>