<svg width="160" height="106" xmlns="http://www.w3.org/2000/svg"><g transform="translate(0 .682)" fill="none" fill-rule="evenodd"><rect stroke="#A6B0B5" stroke-width=".707" fill="#FFF" x=".353" y=".353" width="159.293" height="28.384" rx="14.138"/><path d="M145.778 19.162a5.172 5.172 0 1 0 0-10.344 5.172 5.172 0 0 0 0 10.344Zm6.464 1.293-2.812-2.813" stroke-opacity=".5" stroke="#1E3D49" stroke-width="1.6" stroke-linecap="round" stroke-linejoin="round"/><rect fill="#1E3D49" opacity=".177" x="12.917" y="8.818" width="86" height="11.636" rx="5.818"/><path d="M154.182 42.934c1.468 0 2.798.595 3.76 1.558a5.302 5.302 0 0 1 1.558 3.76v55.682H.5V48.252c0-1.468.595-2.798 1.558-3.76a5.302 5.302 0 0 1 3.76-1.558Z" stroke="#B9C1C5" fill="#FFF"/><rect fill="#1E3D49" x="12.917" y="51.934" width="139" height="45" rx="5.818"/><path stroke="#1E3D49" stroke-dasharray="3,3" d="M52 20.318v32"/></g></svg>