<svg width="160" height="97" xmlns="http://www.w3.org/2000/svg"><g transform="translate(0 .682)" fill="none" fill-rule="evenodd"><path d="M154.182 95.261c1.503 0 2.864-.609 3.849-1.594a5.426 5.426 0 0 0 1.594-3.849V15.011H.375v74.807c0 1.503.61 2.864 1.594 3.85a5.426 5.426 0 0 0 3.85 1.593Z" stroke="#A6B0B5" stroke-width=".75" fill="#FFF"/><rect stroke="#A6B0B5" stroke-width=".707" fill="#FFF" x=".353" y=".353" width="159.293" height="28.384" rx="14.138"/><rect fill="#1E3D49" x="12.917" y="8.818" width="86" height="11.636" rx="5.818"/><rect fill="#1E3D49" x="27.833" y="35.934" width="86" height="9" rx="4.5"/><rect fill="#1E3D49" x="27.833" y="73.934" width="77" height="9" rx="4.5"/><rect fill="#1E3D49" x="27.833" y="54.934" width="68.5" height="9" rx="4.5"/><path stroke="#1E3D49" stroke-linecap="round" stroke-linejoin="round" d="M13 40.318h8M18 37.318l3 3-3 3M13 60.318h8M18 57.318l3 3-3 3M13 79.318h8M18 76.318l3 3-3 3"/><text transform="rotate(-45 143.716 14.71)" font-family="Montserrat-Regular, Montserrat" font-size="22" fill="#1E3D49">
                    <tspan x="137.216" y="22.21">+</tspan>
                </text></g></svg>