<svg width="143" height="81" xmlns="http://www.w3.org/2000/svg"><g transform="translate(0 .624)" fill="none" fill-rule="evenodd"><rect stroke="#BBC3C6" stroke-width=".961" fill="#FFF" x=".481" y=".481" width="142.039" height="79.039" rx="6"/><g transform="translate(28 16)"><path d="m14.29 4.958 8.52 13.46a16 16 0 0 1 2.48 8.557v36.983" stroke="#CFD4D7"/><path d="m10 17.958 8.546 8.907A16 16 0 0 1 23 37.942v26.016" stroke="#CFD4D7"/><path d="m3 27.958 9.468 5.906A16 16 0 0 1 20 47.439v16.519" stroke="#CFD4D7"/><circle fill="#CFD4D7" cx="12" cy="3" r="3"/><circle fill="#CFD4D7" cx="7" cy="15" r="4"/><circle fill="#CFD4D7" cx="2" cy="27" r="2"/></g><g transform="matrix(-1 0 0 1 116.29 16)"><path d="m14.29 4.958 8.52 13.46a16 16 0 0 1 2.48 8.557v36.983" stroke="#CFD4D7"/><path d="m10 17.958 8.546 8.907A16 16 0 0 1 23 37.942v26.016" stroke="#CFD4D7"/><path d="m3 27.958 9.468 5.906A16 16 0 0 1 20 47.439v16.519" stroke="#CFD4D7"/><circle fill="#CFD4D7" cx="12" cy="3" r="3"/><circle fill="#CFD4D7" cx="7" cy="15" r="4"/><circle fill="#CFD4D7" cx="2" cy="27" r="2"/></g><g stroke="#243C47"><path d="m72 38-5.707 8.383a16 16 0 0 0-2.774 9.004v24.57"/><path d="m72 38-3.536 9.832a16 16 0 0 0-.945 5.416v26.71M72.52 38l5.706 8.383A16 16 0 0 1 81 55.387v24.57"/><path d="m72.52 38 3.536 9.832A16 16 0 0 1 77 53.248v26.71"/><path stroke-linecap="square" d="M72.25 38.5v41"/></g><circle fill="#243C47" cx="72" cy="34" r="4"/><rect fill="#CFD4D7" x="19" y="17" width="14" height="3" rx="1.5"/><rect fill="#CFD4D7" x="111" y="17" width="14" height="3" rx="1.5"/><rect fill="#CFD4D7" x="11" y="29" width="17" height="3" rx="1.5"/><rect fill="#CFD4D7" x="117" y="29" width="17" height="3" rx="1.5"/><rect fill="#CFD4D7" x="11" y="41.5" width="14" height="3" rx="1.5"/><rect fill="#CFD4D7" x="120" y="41.5" width="14" height="3" rx="1.5"/><rect stroke="#BBC3C6" stroke-width=".961" x=".481" y=".481" width="142.039" height="79.039" rx="6"/></g></svg>