<svg width="143" height="81" xmlns="http://www.w3.org/2000/svg"><g transform="translate(0 .624)" fill="none" fill-rule="evenodd"><rect stroke="#BBC3C6" stroke-width=".961" fill="#FFF" x=".481" y=".481" width="142.039" height="79.039" rx="6"/><g transform="translate(16 25)"><rect fill="#BBC3C6" opacity=".334" x="25.826" width="29.971" height="13.458" rx="6.729"/><ellipse fill="#1E3D49" cx="7.652" cy="17.606" rx="7.652" ry="7.511"/><ellipse fill="#D7DDDF" cx="107.13" cy="17.37" rx="2.87" ry="2.817"/><path stroke="#D7DDDF" stroke-width=".702" d="M15.304 17.37h88.957"/><ellipse fill="#D7DDDF" cx="67.913" cy="17.37" rx="4.145" ry="4.069"/><path d="M49.101 6.729H33.797a8.928 8.928 0 0 0-8.927 8.928v1.713M33.797 29.263a8.928 8.928 0 0 1-8.927-8.927V17.37" stroke="#D7DDDF" stroke-width=".702"/><ellipse fill="#1E3D49" cx="33.478" cy="6.729" rx="4.145" ry="4.069"/><ellipse fill="#1E3D49" cx="48.783" cy="6.729" rx="4.145" ry="4.069"/><ellipse fill="#D7DDDF" cx="33.478" cy="28.966" rx="2.072" ry="2.034"/></g></g></svg>