<svg width="168" height="102" xmlns="http://www.w3.org/2000/svg"><g transform="translate(0 .7)" fill="none" fill-rule="evenodd"><rect fill="#FFF" y=".3" width="168" height="101" rx="3"/><path d="M86.746 0h34.13v28.569a3.431 3.431 0 0 1-3.43 3.431H90.177a3.431 3.431 0 0 1-3.43-3.431V0ZM126.37 0h34.13v28.569A3.431 3.431 0 0 1 157.069 32H129.8a3.431 3.431 0 0 1-3.43-3.431V0Z" fill="#E2E6E7"/><rect fill="#E2E6E7" x="86.746" y="37.1" width="34.131" height="35.7" rx="3.431"/><path d="M47.123 0h34.13v28.569A3.431 3.431 0 0 1 77.824 32H50.554a3.431 3.431 0 0 1-3.43-3.431V0Z" fill="#E2E6E7"/><rect fill="#E2E6E7" x="47.123" y="37.1" width="34.131" height="35.7" rx="3.431"/><path d="M7.5 0h34.13v28.569A3.431 3.431 0 0 1 38.2 32H10.93A3.431 3.431 0 0 1 7.5 28.569V0Z" fill="#E2E6E7"/><rect fill="#E2E6E7" x="7.5" y="37.1" width="34.131" height="35.7" rx="3.431"/><rect fill="#E2E6E7" x="126.369" y="37.1" width="34.131" height="35.7" rx="3.431"/><g transform="translate(54.5 83.587)"><rect fill="#1E3D49" opacity=".245" x="6" y="1" width="4" height="4" rx="2"/><rect fill="#1E3D49" x="14" width="6" height="6" rx="3"/><rect fill="#1E3D49" opacity=".245" x="24" y="1" width="4" height="4" rx="2"/><rect fill="#1E3D49" opacity=".245" x="32" y="1" width="4" height="4" rx="2"/><rect fill="#1E3D49" opacity=".245" x="49" y="1" width="4" height="4" rx="2"/><g transform="translate(40 3.713)" fill="#1E3D49"><rect width="1" height="1" rx=".5"/><rect x="2" width="1" height="1" rx=".5"/><rect x="4" width="1" height="1" rx=".5"/></g><path stroke="#1E3D49" stroke-linecap="round" stroke-linejoin="round" d="m57 .713 2 2-2 2M2 4.713l-2-2 2-2"/></g></g></svg>