<svg width="164" height="105" xmlns="http://www.w3.org/2000/svg"><g transform="translate(0 .682)" fill="none" fill-rule="evenodd"><rect stroke="#A6B0B5" stroke-width=".707" fill="#FFF" x=".353" y=".353" width="159.293" height="28.384" rx="14.138"/><path d="M145.778 19.162a5.172 5.172 0 1 0 0-10.344 5.172 5.172 0 0 0 0 10.344Zm6.464 1.293-2.812-2.813" stroke-opacity=".5" stroke="#1E3D49" stroke-width="1.6" stroke-linecap="round" stroke-linejoin="round"/><rect fill="#1E3D49" opacity=".177" x="12.917" y="8.818" width="42" height="11.636" rx="5.818"/><rect fill="#1E3D49" opacity=".177" x="62.083" y="8.818" width="58.5" height="11.636" rx="5.818"/><path d="M91.567 60.84h65.863a5.818 5.818 0 0 1 5.818 5.82v37.658h-77.5V66.66a5.818 5.818 0 0 1 5.819-5.818Z" fill="#FFF"/><rect fill="#1E3D49" x="91.5" y="66.694" width="62.5" height="10.617" rx="5.309"/><path d="M5.818 60.84h65.864a5.818 5.818 0 0 1 5.818 5.82v37.658H0V66.66a5.818 5.818 0 0 1 5.818-5.818Z" fill="#FFF"/><rect fill="#1E3D49" x="4.417" y="66.184" width="42" height="11.636" rx="5.818"/><path d="M23 20.318v46M104 20.318v46M33.917 20.318v22a3 3 0 0 0 3 3h50.676a3 3 0 0 0 3-3v-22M62 36.318v9" stroke="#1E3D49" stroke-dasharray="3"/><circle fill="#1E3D49" cx="61.5" cy="44.71" r="12.585"/><text transform="rotate(-45 62.057 44.71)" font-family="Montserrat-Regular, Montserrat" font-size="22" fill="#FFF">
                    <tspan x="55.557" y="52.21">+</tspan>
                </text></g></svg>