<svg width="160" height="97" xmlns="http://www.w3.org/2000/svg"><g transform="translate(0 .682)" fill="none" fill-rule="evenodd"><path d="M154.182 95.261c1.503 0 2.864-.609 3.849-1.594a5.426 5.426 0 0 0 1.594-3.849V15.011H.375v74.807c0 1.503.61 2.864 1.594 3.85a5.426 5.426 0 0 0 3.85 1.593Z" stroke="#A6B0B5" stroke-width=".75" fill="#FFF"/><rect stroke="#A6B0B5" stroke-width=".707" fill="#FFF" x=".353" y=".353" width="159.293" height="28.384" rx="14.138"/><path d="M145.778 19.162a5.172 5.172 0 1 0 0-10.344 5.172 5.172 0 0 0 0 10.344Zm6.464 1.293-2.812-2.813" stroke-opacity=".5" stroke="#1E3D49" stroke-width="1.6" stroke-linecap="round" stroke-linejoin="round"/><rect fill="#1E3D49" opacity=".177" x="12.917" y="8.818" width="86" height="11.636" rx="5.818"/><rect fill="#1E3D49" x="27.833" y="35.934" width="86" height="9" rx="4.5"/><rect fill="#1E3D49" x="27.833" y="73.934" width="77" height="9" rx="4.5"/><rect fill="#1E3D49" x="27.833" y="54.934" width="68.5" height="9" rx="4.5"/><path d="M24.411 37.934v3.95a.515.515 0 0 1-1.026.07l-.004-.07-.001-2.196-2.823 2.824a.515.515 0 0 1-.671.05l-.058-.05-1.01-1.01-2.383 2.384a.515.515 0 0 1-.67.05l-.059-.05a.515.515 0 0 1-.05-.671l.05-.058 2.748-2.747c.183-.183.47-.2.67-.05l.059.05 1.01 1.009 2.454-2.456-2.186.001a.515.515 0 0 1-.51-.445l-.005-.07c0-.26.194-.476.445-.51l.07-.005h3.95ZM24.411 56.934v3.95a.515.515 0 0 1-1.026.07l-.004-.07-.001-2.196-2.823 2.824a.515.515 0 0 1-.671.05l-.058-.05-1.01-1.01-2.383 2.384a.515.515 0 0 1-.67.05l-.059-.05a.515.515 0 0 1-.05-.671l.05-.058 2.748-2.747c.183-.183.47-.2.67-.05l.059.05 1.01 1.009 2.454-2.456-2.186.001a.515.515 0 0 1-.51-.445l-.005-.07c0-.26.194-.476.445-.51l.07-.005h3.95ZM24.411 75.934v3.95a.515.515 0 0 1-1.026.07l-.004-.07-.001-2.196-2.823 2.824a.515.515 0 0 1-.671.05l-.058-.05-1.01-1.01-2.383 2.384a.515.515 0 0 1-.67.05l-.059-.05a.515.515 0 0 1-.05-.671l.05-.058 2.748-2.747c.183-.183.47-.2.67-.05l.059.05 1.01 1.009 2.454-2.456-2.186.001a.515.515 0 0 1-.51-.445l-.005-.07c0-.26.194-.476.445-.51l.07-.005h3.95Z" fill="#1E3D49" fill-rule="nonzero"/></g></svg>