<svg width="168" height="101" xmlns="http://www.w3.org/2000/svg"><g fill="none" fill-rule="evenodd"><rect fill="#FFF" width="168" height="101" rx="3"/><rect fill="#E2E6E7" x="86.746" y="36" width="34.131" height="35.7" rx="3.431"/><rect fill="#E2E6E7" x="126.369" y="36" width="34.131" height="35.7" rx="3.431"/><path d="M90.177 76.8h27.269a3.431 3.431 0 0 1 3.43 3.431V100.8h-34.13V80.231a3.431 3.431 0 0 1 3.431-3.431Z" fill="#E2E6E7"/><rect fill="#1E3D49" x="47.123" y="36" width="34.131" height="35.7" rx="3.431"/><rect fill="#1E3D49" x="7.254" y="5.5" width="153" height="25.5" rx="3.431"/><path d="M50.554 76.8h27.269a3.431 3.431 0 0 1 3.43 3.431V100.8h-34.13V80.231a3.431 3.431 0 0 1 3.431-3.431Z" fill="#E2E6E7"/><rect fill="#E2E6E7" x="7.5" y="36" width="34.131" height="35.7" rx="3.431"/><path d="M10.931 76.8H38.2a3.431 3.431 0 0 1 3.43 3.431V100.8H7.5V80.231a3.431 3.431 0 0 1 3.431-3.431ZM129.8 76.8h27.269a3.431 3.431 0 0 1 3.431 3.431V100.8h-34.13V80.231a3.431 3.431 0 0 1 3.43-3.431Z" fill="#E2E6E7"/><rect fill="#FFF" x="51.188" y="60.954" width="26" height="7" rx="3.5"/><rect fill="#FFF" x="11.565" y="21.058" width="26" height="7" rx="3.5"/><circle fill="#FFF" opacity=".237" cx="93.283" cy="9.25" r="9"/><circle fill="#FFF" opacity=".237" cx="105.503" cy="22.726" r="6.117"/><circle fill="#FFF" opacity=".237" cx="116.535" cy="11.617" r="6.117"/><circle fill="#FFF" opacity=".237" cx="72.475" cy="23.691" r="11.279"/><circle fill="#FFF" opacity=".237" cx="57.377" cy="40.529" r="9.529"/><circle fill="#FFF" opacity=".237" cx="68.879" cy="56.617" r="6.117"/><circle fill="#FFF" opacity=".237" cx="79.629" cy="43.425" r="6.117"/></g></svg>