<svg width="143" height="81" xmlns="http://www.w3.org/2000/svg"><g fill="none" fill-rule="evenodd"><g transform="translate(0 30.624)"><rect stroke="#BBC3C6" stroke-width=".961" fill="#FFF" x=".481" y=".481" width="142.039" height="49.039" rx="6"/><g transform="translate(9.223 11)"><rect fill="#BBC3C6" opacity=".334" x="33" y="6.729" width="31.178" height="14" rx="7"/><rect fill="#BBC3C6" opacity=".334" y="6.729" width="31.178" height="14" rx="7"/><ellipse stroke="#FFF" fill="#1E3D49" cx="31.43" cy="13.606" rx="11.725" ry="11.5"/><path stroke="#D7DDDF" stroke-width=".702" d="M64.277 13.5h69M133.288 0H90.879c-7.506 0-13.591 6.085-13.591 13.591M102.288 28.782h-9.81c-8.39 0-15.19-6.801-15.19-15.19"/><ellipse fill="#D7DDDF" cx="105.283" cy="28.402" rx="2.647" ry="2.598"/></g></g><g transform="translate(21 .38)"><rect stroke="#A6B0B5" stroke-width=".71" fill="#FFF" x=".355" y=".355" width="101.29" height="17.777" rx="8.889"/><path d="M91.563 12.53a3.4 3.4 0 1 0 0-6.8 3.4 3.4 0 0 0 0 6.8Zm4.25.85-1.85-1.85" stroke-opacity=".5" stroke="#1E3D49" stroke-width="1.02" stroke-linecap="round" stroke-linejoin="round"/><rect fill="#1E3D49" opacity=".177" x="7.013" y="5.83" width="56.737" height="7.448" rx="3.709"/></g><path stroke="#1E3D49" stroke-dasharray="3,3" d="M40.5 14.124v35"/></g></svg>