<svg width="160" height="97" xmlns="http://www.w3.org/2000/svg"><g transform="translate(0 .682)" fill="none" fill-rule="evenodd"><path d="M154.182 95.261c1.503 0 2.864-.609 3.849-1.594a5.426 5.426 0 0 0 1.594-3.849V15.011H.375v74.807c0 1.503.61 2.864 1.594 3.85a5.426 5.426 0 0 0 3.85 1.593Z" stroke="#A6B0B5" stroke-width=".75" fill="#FFF"/><rect stroke="#A6B0B5" stroke-width=".707" fill="#FFF" x=".353" y=".353" width="159.293" height="28.384" rx="14.138"/><path d="M145.778 19.162a5.172 5.172 0 1 0 0-10.344 5.172 5.172 0 0 0 0 10.344Zm6.464 1.293-2.812-2.813" stroke-opacity=".5" stroke="#1E3D49" stroke-width="1.6" stroke-linecap="round" stroke-linejoin="round"/><rect fill="#1E3D49" opacity=".177" x="12.917" y="8.818" width="24.5" height="11.636" rx="5.818"/><rect fill="#1E3D49" x="37.333" y="73.934" width="67.5" height="9" rx="4.5"/><rect fill="#1E3D49" x="37.333" y="54.934" width="59" height="9" rx="4.5"/><rect fill="#1E3D49" x="36.874" y="35.934" width="76.96" height="9" rx="4.5"/><path d="M16.105 43.485c1.761 0 3.19-1.493 3.19-3.333 0-1.841-1.429-3.334-3.19-3.334-1.76 0-3.188 1.493-3.188 3.334 0 1.84 1.427 3.333 3.188 3.333Zm3.986.833-1.734-1.812M16.105 62.485c1.761 0 3.19-1.493 3.19-3.333 0-1.841-1.429-3.334-3.19-3.334-1.76 0-3.188 1.493-3.188 3.334 0 1.84 1.427 3.333 3.188 3.333Zm3.986.833-1.734-1.812" stroke="#1E3D49" stroke-linecap="round" stroke-linejoin="round"/><rect fill="#D7DDDF" x="25.167" y="35.934" width="19.681" height="9" rx="4.5"/><rect fill="#D7DDDF" x="25.167" y="54.934" width="19.681" height="9" rx="4.5"/><rect fill="#D7DDDF" x="25.167" y="73.934" width="19.681" height="9" rx="4.5"/><path d="M16.105 81.485c1.761 0 3.19-1.493 3.19-3.333 0-1.841-1.429-3.334-3.19-3.334-1.76 0-3.188 1.493-3.188 3.334 0 1.84 1.427 3.333 3.188 3.333Zm3.986.833-1.734-1.812" stroke="#1E3D49" stroke-linecap="round" stroke-linejoin="round"/></g></svg>