<svg width="160" height="60" xmlns="http://www.w3.org/2000/svg"><g transform="translate(0 .41)" fill="none" fill-rule="evenodd"><rect stroke="#A6B0B5" stroke-width=".729" fill="#FFF" x=".364" y="34.955" width="65.104" height="24.271" rx="12.136"/><rect stroke="#A6B0B5" stroke-width=".729" fill="#FFF" x="72.031" y="34.955" width="74.271" height="24.271" rx="12.136"/><path d="M12.917 51.781V41.567m5.107 5.107H7.81M84.583 51.781V41.567m5.107 5.107H79.476" stroke="#1E3D49" stroke-linecap="round" stroke-linejoin="round" stroke-opacity=".5" stroke-width="1.843"/><rect stroke="#A6B0B5" stroke-width=".707" fill="#FFF" x=".353" y=".353" width="159.293" height="28.384" rx="14.138"/><path d="M145.778 19.162a5.172 5.172 0 1 0 0-10.344 5.172 5.172 0 0 0 0 10.344Zm6.464 1.293-2.812-2.813" stroke-opacity=".5" stroke="#1E3D49" stroke-width="1.6" stroke-linecap="round" stroke-linejoin="round"/><rect fill="#1E3D49" opacity=".177" x="12.917" y="8.818" width="86" height="11.636" rx="5.818"/><rect fill="#1E3D49" x="23.917" y="41.273" width="32" height="11.636" rx="5.818"/><rect fill="#1E3D49" x="95.583" y="41.273" width="40" height="11.636" rx="5.818"/></g></svg>