<svg width="168" height="92" xmlns="http://www.w3.org/2000/svg"><g transform="translate(.044 .5)" fill="none" fill-rule="evenodd"><rect fill="#FFF" width="28.262" height="31.032" rx="3.431"/><rect fill="#FFF" x="34.913" width="28.262" height="31.032" rx="3.431"/><rect fill="#FFF" x="69.825" width="28.262" height="31.032" rx="3.431"/><rect fill="#FFF" x="104.737" width="28.262" height="31.032" rx="3.431"/><rect fill="#FFF" x="139.65" width="28.262" height="31.032" rx="3.431"/><rect fill="#1E3D49" y="33.968" width="28.262" height="8.387" rx="4.194"/><rect fill="#1E3D49" x="34.913" y="33.968" width="28.262" height="8.387" rx="4.194"/><rect fill="#1E3D49" x="69.825" y="33.968" width="28.262" height="8.387" rx="4.194"/><rect fill="#1E3D49" x="104.737" y="33.968" width="28.262" height="8.387" rx="4.194"/><rect fill="#1E3D49" x="139.65" y="33.968" width="28.262" height="8.387" rx="4.194"/><rect fill="#FFF" y="48.645" width="28.262" height="31.032" rx="3.431"/><rect fill="#FFF" x="34.913" y="48.645" width="28.262" height="31.032" rx="3.431"/><rect fill="#FFF" x="69.825" y="48.645" width="28.262" height="31.032" rx="3.431"/><rect fill="#FFF" x="104.737" y="48.645" width="28.262" height="31.032" rx="3.431"/><rect fill="#FFF" x="139.65" y="48.645" width="28.262" height="31.032" rx="3.431"/><rect fill="#1E3D49" y="82.613" width="28.262" height="8.387" rx="4.194"/><rect fill="#1E3D49" x="34.913" y="82.613" width="28.262" height="8.387" rx="4.194"/><rect fill="#1E3D49" x="69.825" y="82.613" width="28.262" height="8.387" rx="4.194"/><rect fill="#1E3D49" x="104.737" y="82.613" width="28.262" height="8.387" rx="4.194"/><rect fill="#1E3D49" x="139.65" y="82.613" width="28.262" height="8.387" rx="4.194"/></g></svg>