<svg width="168" height="104" xmlns="http://www.w3.org/2000/svg"><g fill="none" fill-rule="evenodd"><path d="M3 0h162a3 3 0 0 1 3 3v101H0V3a3 3 0 0 1 3-3Z" fill="#FFF"/><rect fill="#E2E6E7" x="86.746" y="20.5" width="34.131" height="35.7" rx="3.431"/><rect fill="#E2E6E7" x="126.369" y="20.5" width="34.131" height="35.7" rx="3.431"/><rect fill="#E2E6E7" x="86.746" y="61.3" width="34.131" height="35.7" rx="3.431"/><rect fill="#E2E6E7" x="47.123" y="20.5" width="34.131" height="35.7" rx="3.431"/><rect fill="#E2E6E7" x="47.123" y="61.3" width="34.131" height="35.7" rx="3.431"/><rect fill="#E2E6E7" x="7.5" y="20.5" width="34.131" height="35.7" rx="3.431"/><rect fill="#E2E6E7" x="7.5" y="61.3" width="34.131" height="35.7" rx="3.431"/><rect fill="#E2E6E7" x="126.369" y="61.3" width="34.131" height="35.7" rx="3.431"/><g transform="translate(110.874 3.004)"><path d="M51.5.5c.69 0 1.315.28 1.768.732C53.72 1.685 54 2.31 54 3v41.996c0 .967-.392 1.842-1.025 2.475a3.489 3.489 0 0 1-2.475 1.025H4a3.489 3.489 0 0 1-2.475-1.025A3.489 3.489 0 0 1 .5 44.996V3c0-.69.28-1.315.732-1.768A2.492 2.492 0 0 1 3 .5Z" stroke="#D3D3D3" fill="#FFF"/><rect fill="#1E3D49" x="3.524" y="16" width="23.923" height="4.709" rx="2.354"/><rect fill="#1E3D49" x="3.524" y="3.5" width="35.535" height="6" rx="3"/><rect fill="#1E3D49" x="3.524" y="23.606" width="23.923" height="5.192" rx="2.596"/><rect fill="#1E3D49" x="3.524" y="31.696" width="26.926" height="4.709" rx="2.354"/><rect fill="#1E3D49" x="3.524" y="39.544" width="26.926" height="4.709" rx="2.354"/><path stroke="#1E3D49" stroke-linecap="round" stroke-linejoin="round" d="m48.5 7.5-2-2-2 2"/></g></g></svg>