<svg width="160" height="88" xmlns="http://www.w3.org/2000/svg"><g transform="translate(0 .17)" fill="none" fill-rule="evenodd"><path d="M154.182 86.87c1.503 0 2.864-.609 3.849-1.594a5.426 5.426 0 0 0 1.594-3.849V32.251H.375v49.176c0 1.503.61 2.864 1.594 3.85a5.426 5.426 0 0 0 3.85 1.593Z" stroke="#A6B0B5" stroke-width=".75" fill="#FFF"/><rect stroke="#A6B0B5" stroke-width=".707" fill="#FFF" x=".353" y="17.593" width="159.293" height="28.384" rx="14.138"/><path d="M145.778 36.402a5.172 5.172 0 1 0 0-10.344 5.172 5.172 0 0 0 0 10.344Zm6.464 1.292-2.812-2.812" stroke-opacity=".5" stroke="#1E3D49" stroke-width="1.6" stroke-linecap="round" stroke-linejoin="round"/><rect fill="#1E3D49" opacity=".177" x="12.917" y="26.058" width="86" height="11.636" rx="5.818"/><rect fill="#1E3D49" x="12.917" y="59.174" width="98.5" height="11.636" rx="5.818"/><path stroke="#1E3D49" fill="#1E3D49" d="m81 31.831 9-9h15v-18H81v17z"/><path d="M112.896 37.492v19H97.603L87.896 66.2V37.492h25Z" stroke="#FFF" fill="#1E3D49"/><text transform="rotate(-45 93.896 14.142)" font-family="Montserrat-Regular, Montserrat" font-size="22" fill="#FFF">
                    <tspan x="87.396" y="21.642">+</tspan>
                </text><path stroke="#FFF" d="m104 44.831-5 5-3-3"/></g></svg>