<svg width="164" height="101" xmlns="http://www.w3.org/2000/svg"><g transform="translate(0 .932)" fill="none" fill-rule="evenodd"><path d="M91.567 56.59h65.863a5.818 5.818 0 0 1 5.818 5.82v37.658h-77.5V62.41a5.818 5.818 0 0 1 5.819-5.818Z" fill="#FFF"/><rect stroke="#A6B0B5" stroke-width=".707" fill="#FFF" x=".353" y=".353" width="159.293" height="28.384" rx="14.138"/><path d="M145.778 19.162a5.172 5.172 0 1 0 0-10.344 5.172 5.172 0 0 0 0 10.344Zm6.464 1.293-2.812-2.813" stroke-opacity=".5" stroke="#1E3D49" stroke-width="1.6" stroke-linecap="round" stroke-linejoin="round"/><rect fill="#1E3D49" x="91.5" y="62.444" width="62.5" height="10.617" rx="5.309"/><path d="M80 43.59h17.5a6 6 0 0 1 6 6v18" stroke="#1E3D49" stroke-dasharray="3,3"/><path d="M5.818 56.59h65.864a5.818 5.818 0 0 1 5.818 5.82v37.658H0V62.41a5.818 5.818 0 0 1 5.818-5.818Z" fill="#FFF"/><path d="M77.5 43.59H21a6 6 0 0 0-6 6v18" stroke="#1E3D49" stroke-dasharray="3,3"/><rect fill="#1E3D49" opacity=".177" x="12.917" y="8.818" width="86" height="11.636" rx="5.818"/><rect fill="#1E3D49" x="4.417" y="61.934" width="37.5" height="11.636" rx="5.818"/><circle fill="#1E3D49" cx="69.085" cy="43.591" r="13.168"/><text font-family="Montserrat-Regular, Montserrat" font-size="22" fill="#FFF">
                    <tspan x="62.585" y="51.252">=</tspan>
                </text><path stroke="#1E3D49" stroke-dasharray="3,3" d="M69.085 20.068v19.5"/></g></svg>