<svg width="143" height="81" xmlns="http://www.w3.org/2000/svg"><g fill="none" fill-rule="evenodd"><rect x=".481" y=".481" width="142.039" height="79.039" rx="6" transform="translate(0 .624)" fill="#FFF" stroke="#BBC3C6" stroke-width=".961"/><path d="M27 41.624c10.098.432 17.764.432 23 0 11.394-.939 16.197-12.793 21-13 8.063-.347 9.307 13 21 13 11.118 0 11.633-26 19-26h4v11c-2.306-.957-3.64-.957-4 0-6.2 16.44-11.928 26-19 26-10.634 0-15.382-13-21-13-5.466 0-10.406 13-21 13H27v-11Z" fill="#243C47" opacity=".06"/><path d="M27 28.624c2.783.457 4.987.076 6.613-1.145 7.322-5.5 10.916-11.855 16.623-11.855 13.47 0 9.014 13.479 20.764 13 11.528-.47 9.26-13 20.764-13 9.49 0 10.57 6.739 18.292 12.197 1.36.96 3.007 1.228 4.944.803v11h-4c-5.814 0-4.824-13-19.236-13-10.434 0-8.956 13-20.764 13s-10.426-13-20.764-13c-6.347 0-8.88 5.922-17.581 12.362-.951.704-2.836.917-5.655.638v-11Z" fill="#243C47" opacity=".25"/><g transform="translate(27 28.624)"><rect fill="#243C47" width="4" height="11" rx=".3"/><rect fill="#BBC3C6" y="13" width="4" height="11" rx=".3"/><rect fill="#BBC3C6" y="26" width="4" height="11" rx=".3"/></g><g transform="translate(48 15.624)"><rect fill="#243C47" width="4" height="11" rx=".3"/><rect fill="#BBC3C6" y="13" width="4" height="11" rx=".3"/><rect fill="#BBC3C6" y="26" width="4" height="11" rx=".3"/><rect fill="#BBC3C6" y="39" width="4" height="11" rx=".3"/></g><g transform="translate(69 28.624)"><rect fill="#243C47" width="4" height="11" rx=".3"/><rect fill="#BBC3C6" y="13" width="4" height="11" rx=".3"/><rect fill="#BBC3C6" y="26" width="4" height="11" rx=".3"/></g><g transform="translate(90 15.624)"><rect fill="#243C47" width="4" height="11" rx=".3"/><rect fill="#BBC3C6" y="13" width="4" height="11" rx=".3"/><rect fill="#BBC3C6" y="26" width="4" height="11" rx=".3"/><rect fill="#BBC3C6" y="39" width="4" height="11" rx=".3"/></g><g transform="translate(111 15.624)"><rect fill="#BBC3C6" width="4" height="11" rx=".3"/><rect fill="#243C47" y="13" width="4" height="11" rx=".3"/><rect fill="#BBC3C6" y="26" width="4" height="11" rx=".3"/><rect fill="#BBC3C6" y="39" width="4" height="11" rx=".3"/></g><path d="M27 54.624c3.45-6.774 6.083-11.441 7.899-14 4.93-6.946 8.442-12 15.101-12 11.045 0 11.466 26 19 26h4c6.135 0 9.508.319 19 0 4.301-.144 11.968-.144 23 0v11c-10.924-.123-18.59-.123-23 0-9.094.254-12.817 0-19 0h-4c-10.819 0-8.715-26-19-26-10.57 0-12.134 5.069-16.321 15-.95 2.251-1.842 5.918-2.679 11-2.667.155-4 .08-4-.227V54.624Z" fill="#243C47" opacity=".06"/></g></svg>