<svg width="76" height="56" xmlns="http://www.w3.org/2000/svg" xmlns:xlink="http://www.w3.org/1999/xlink"><defs><path d="M2.661 3.494.062.784C-.02.7-.02.616.062.533L.53.066C.623-.017.706-.022.78.051L3.952 3.37A.169.169 0 0 1 4 3.494a.169.169 0 0 1-.047.125L.778 6.938c-.083.083-.166.083-.249 0l-.467-.483c-.083-.083-.083-.167 0-.25l2.6-2.71Z" id="a"/><path d="M2.661 3.494.062.784C-.02.7-.02.616.062.533L.53.066C.623-.017.706-.022.78.051L3.952 3.37A.169.169 0 0 1 4 3.494a.169.169 0 0 1-.047.125L.778 6.938c-.083.083-.166.083-.249 0l-.467-.483c-.083-.083-.083-.167 0-.25l2.6-2.71Z" id="c"/><path d="M2.661 3.494.062.784C-.02.7-.02.616.062.533L.53.066C.623-.017.706-.022.78.051L3.952 3.37A.169.169 0 0 1 4 3.494a.169.169 0 0 1-.047.125L.778 6.938c-.083.083-.166.083-.249 0l-.467-.483c-.083-.083-.083-.167 0-.25l2.6-2.71Z" id="e"/><path d="M2.661 3.494.062.784C-.02.7-.02.616.062.533L.53.066C.623-.017.706-.022.78.051L3.952 3.37A.169.169 0 0 1 4 3.494a.169.169 0 0 1-.047.125L.778 6.938c-.083.083-.166.083-.249 0l-.467-.483c-.083-.083-.083-.167 0-.25l2.6-2.71Z" id="g"/></defs><g fill="none" fill-rule="evenodd"><rect width="58" height="6" rx="3" transform="translate(9 28.487)" fill="#8E9EA4"/><rect width="42" height="6" rx="3" transform="translate(9 48.487)" fill="#8E9EA4"/><rect width="34" height="6" rx="3" transform="translate(33 38.487)" fill="#8E9EA4"/><g transform="matrix(-1 0 0 1 5 27.987)"><mask id="b" fill="#fff"><use xlink:href="#a"/></mask><use stroke="#8E9EA4" stroke-width=".664" fill="#8E9EA4" xlink:href="#a"/><g mask="url(#b)" fill="#8E9EA4"><path d="M-4.649-3.324H8.632V9.972h-13.28z"/></g></g><g transform="matrix(-1 0 0 1 5 47.987)"><mask id="d" fill="#fff"><use xlink:href="#c"/></mask><use stroke="#8E9EA4" stroke-width=".664" fill="#8E9EA4" xlink:href="#c"/><g mask="url(#d)" fill="#8E9EA4"><path d="M-4.649-3.324H8.632V9.972h-13.28z"/></g></g><g transform="matrix(1 0 0 -1 71 34.987)"><mask id="f" fill="#fff"><use xlink:href="#e"/></mask><use stroke="#8E9EA4" stroke-width=".664" fill="#8E9EA4" xlink:href="#e"/><g mask="url(#f)" fill="#8E9EA4"><path d="M-4.649-3.324H8.632V9.972h-13.28z"/></g></g><g transform="matrix(1 0 0 -1 55 54.987)"><mask id="h" fill="#fff"><use xlink:href="#g"/></mask><use stroke="#8E9EA4" stroke-width=".664" fill="#8E9EA4" xlink:href="#g"/><g mask="url(#h)" fill="#8E9EA4"><path d="M-4.649-3.324H8.632V9.972h-13.28z"/></g></g><g transform="translate(27 2)"><path d="M16.885 16.115a7.797 7.797 0 1 0-11.77-10.23 7.797 7.797 0 0 0 11.77 10.23Z" stroke="#8E9EA4" stroke-width="1.6" stroke-linecap="round" stroke-linejoin="round" stroke-dasharray="35.4416725606802,70.88334512136041"/><path d="M13.982 13.877a4.253 4.253 0 1 0-5.801-6.22 4.253 4.253 0 0 0 5.801 6.22Z" stroke="#8E9EA4" stroke-width="1.6" stroke-linecap="round" stroke-linejoin="round" stroke-dasharray="19.84733775415394,141.7666902427208"/><ellipse fill="#8E9EA4" cx="11" cy="10.961" rx="1.425" ry="1.418"/></g></g></svg>