<svg width="76" height="52" xmlns="http://www.w3.org/2000/svg" xmlns:xlink="http://www.w3.org/1999/xlink"><defs><path d="M2.661 3.494.062.784C-.02.7-.02.616.062.533L.53.066C.623-.017.706-.022.78.051L3.952 3.37A.169.169 0 0 1 4 3.494a.169.169 0 0 1-.047.125L.778 6.938c-.083.083-.166.083-.249 0l-.467-.483c-.083-.083-.083-.167 0-.25l2.6-2.71Z" id="a"/><path d="M2.661 3.494.062.784C-.02.7-.02.616.062.533L.53.066C.623-.017.706-.022.78.051L3.952 3.37A.169.169 0 0 1 4 3.494a.169.169 0 0 1-.047.125L.778 6.938c-.083.083-.166.083-.249 0l-.467-.483c-.083-.083-.083-.167 0-.25l2.6-2.71Z" id="c"/><path d="M2.661 3.494.062.784C-.02.7-.02.616.062.533L.53.066C.623-.017.706-.022.78.051L3.952 3.37A.169.169 0 0 1 4 3.494a.169.169 0 0 1-.047.125L.778 6.938c-.083.083-.166.083-.249 0l-.467-.483c-.083-.083-.083-.167 0-.25l2.6-2.71Z" id="e"/><path d="M2.661 3.494.062.784C-.02.7-.02.616.062.533L.53.066C.623-.017.706-.022.78.051L3.952 3.37A.169.169 0 0 1 4 3.494a.169.169 0 0 1-.047.125L.778 6.938c-.083.083-.166.083-.249 0l-.467-.483c-.083-.083-.083-.167 0-.25l2.6-2.71Z" id="g"/></defs><g fill="none" fill-rule="evenodd"><rect width="58" height="6" rx="3" transform="translate(9 24.5)" fill="#8E9EA4"/><rect width="42" height="6" rx="3" transform="translate(17 44.5)" fill="#8E9EA4"/><rect width="34" height="6" rx="3" transform="translate(21 34.5)" fill="#8E9EA4"/><g transform="matrix(-1 0 0 1 5 24)"><mask id="b" fill="#fff"><use xlink:href="#a"/></mask><use stroke="#8E9EA4" stroke-width=".664" fill="#8E9EA4" xlink:href="#a"/><g mask="url(#b)" fill="#8E9EA4"><path d="M-4.649-3.324H8.632V9.972h-13.28z"/></g></g><g transform="matrix(-1 0 0 1 13 44)"><mask id="d" fill="#fff"><use xlink:href="#c"/></mask><use stroke="#8E9EA4" stroke-width=".664" fill="#8E9EA4" xlink:href="#c"/><g mask="url(#d)" fill="#8E9EA4"><path d="M-4.649-3.324H8.632V9.972h-13.28z"/></g></g><g transform="matrix(1 0 0 -1 71 31)"><mask id="f" fill="#fff"><use xlink:href="#e"/></mask><use stroke="#8E9EA4" stroke-width=".664" fill="#8E9EA4" xlink:href="#e"/><g mask="url(#f)" fill="#8E9EA4"><path d="M-4.649-3.324H8.632V9.972h-13.28z"/></g></g><g transform="matrix(1 0 0 -1 63 51)"><mask id="h" fill="#fff"><use xlink:href="#g"/></mask><use stroke="#8E9EA4" stroke-width=".664" fill="#8E9EA4" xlink:href="#g"/><g mask="url(#h)" fill="#8E9EA4"><path d="M-4.649-3.324H8.632V9.972h-13.28z"/></g></g><g transform="translate(30)"><rect stroke="#8E9EA4" stroke-width="1.422" x=".711" y=".711" width="14.578" height="14.578" rx="2.667"/><path d="M13.222 4.444c0 .41-.29.746-.658.776l-.053.002H3.267c-.393 0-.711-.348-.711-.778 0-.41.29-.746.658-.775l.053-.002h9.244c.393 0 .711.348.711.777ZM13.222 8c0 .41-.29.746-.658.776l-.053.002H3.267c-.393 0-.711-.348-.711-.778 0-.41.29-.746.658-.776l.053-.002h9.244c.393 0 .711.348.711.778ZM13.222 11.556c0 .41-.29.746-.658.775l-.053.002H3.267c-.393 0-.711-.348-.711-.777 0-.41.29-.746.658-.776l.053-.002h9.244c.393 0 .711.348.711.778Z" fill="#8E9EA4" fill-rule="nonzero"/></g></g></svg>