<svg width="76" height="54" xmlns="http://www.w3.org/2000/svg" xmlns:xlink="http://www.w3.org/1999/xlink"><defs><path d="M2.661 3.494.062.784C-.02.7-.02.616.062.533L.53.066C.623-.017.706-.022.78.051L3.952 3.37A.169.169 0 0 1 4 3.494a.169.169 0 0 1-.047.125L.778 6.938c-.083.083-.166.083-.249 0l-.467-.483c-.083-.083-.083-.167 0-.25l2.6-2.71Z" id="a"/><path d="M2.661 3.494.062.784C-.02.7-.02.616.062.533L.53.066C.623-.017.706-.022.78.051L3.952 3.37A.169.169 0 0 1 4 3.494a.169.169 0 0 1-.047.125L.778 6.938c-.083.083-.166.083-.249 0l-.467-.483c-.083-.083-.083-.167 0-.25l2.6-2.71Z" id="c"/><path d="M2.661 3.494.062.784C-.02.7-.02.616.062.533L.53.066C.623-.017.706-.022.78.051L3.952 3.37A.169.169 0 0 1 4 3.494a.169.169 0 0 1-.047.125L.778 6.938c-.083.083-.166.083-.249 0l-.467-.483c-.083-.083-.083-.167 0-.25l2.6-2.71Z" id="e"/><path d="M2.661 3.494.062.784C-.02.7-.02.616.062.533L.53.066C.623-.017.706-.022.78.051L3.952 3.37A.169.169 0 0 1 4 3.494a.169.169 0 0 1-.047.125L.778 6.938c-.083.083-.166.083-.249 0l-.467-.483c-.083-.083-.083-.167 0-.25l2.6-2.71Z" id="g"/></defs><g fill="none" fill-rule="evenodd"><g fill="#8E9EA4" fill-rule="nonzero"><path d="M37.5 4.375c.461 0 .84.357.873.81l.002.065v.15a2.626 2.626 0 0 1 0 4.95v6.275a.875.875 0 0 1-1.748.065l-.002-.065-.001-6.275a2.626 2.626 0 0 1 0-4.95l.001-.15c0-.483.392-.875.875-.875ZM37.5 7a.875.875 0 1 0 0 1.75.875.875 0 0 0 0-1.75ZM31.375 4.375c.461 0 .84.357.873.81l.002.065.001 5.4a2.626 2.626 0 0 1 0 4.95l-.001 1.025a.875.875 0 0 1-1.748.065l-.002-.065v-1.024a2.626 2.626 0 0 1 0-4.952V5.25c0-.483.392-.875.875-.875Zm0 7.875a.875.875 0 1 0 0 1.75.875.875 0 0 0 0-1.75ZM43.625 4.375c.461 0 .84.357.873.81l.002.065.001 2.775a2.626 2.626 0 0 1 0 4.95l-.001 3.65a.875.875 0 0 1-1.748.065l-.002-.065v-3.65a2.626 2.626 0 0 1 0-4.95V5.25c0-.483.392-.875.875-.875Zm0 5.25a.875.875 0 1 0 0 1.75.875.875 0 0 0 0-1.75Z"/></g><rect width="58" height="6" rx="3" transform="translate(9 26.5)" fill="#8E9EA4"/><rect width="42" height="6" rx="3" transform="translate(25 46.5)" fill="#8E9EA4"/><rect width="34" height="6" rx="3" transform="translate(33 36.5)" fill="#8E9EA4"/><g transform="matrix(-1 0 0 1 5 26)"><mask id="b" fill="#fff"><use xlink:href="#a"/></mask><use stroke="#8E9EA4" stroke-width=".664" fill="#8E9EA4" xlink:href="#a"/><g mask="url(#b)" fill="#8E9EA4"><path d="M-4.649-3.324H8.632V9.972h-13.28z"/></g></g><g transform="matrix(-1 0 0 1 21 46)"><mask id="d" fill="#fff"><use xlink:href="#c"/></mask><use stroke="#8E9EA4" stroke-width=".664" fill="#8E9EA4" xlink:href="#c"/><g mask="url(#d)" fill="#8E9EA4"><path d="M-4.649-3.324H8.632V9.972h-13.28z"/></g></g><g transform="matrix(1 0 0 -1 71 33)"><mask id="f" fill="#fff"><use xlink:href="#e"/></mask><use stroke="#8E9EA4" stroke-width=".664" fill="#8E9EA4" xlink:href="#e"/><g mask="url(#f)" fill="#8E9EA4"><path d="M-4.649-3.324H8.632V9.972h-13.28z"/></g></g><g transform="matrix(1 0 0 -1 71 53)"><mask id="h" fill="#fff"><use xlink:href="#g"/></mask><use stroke="#8E9EA4" stroke-width=".664" fill="#8E9EA4" xlink:href="#g"/><g mask="url(#h)" fill="#8E9EA4"><path d="M-4.649-3.324H8.632V9.972h-13.28z"/></g></g></g></svg>