<svg width="76" height="50" xmlns="http://www.w3.org/2000/svg" xmlns:xlink="http://www.w3.org/1999/xlink"><defs><path d="M2.661 3.494.062.784C-.02.7-.02.616.062.533L.53.066C.623-.017.706-.022.78.051L3.952 3.37A.169.169 0 0 1 4 3.494a.169.169 0 0 1-.047.125L.778 6.938c-.083.083-.166.083-.249 0l-.467-.483c-.083-.083-.083-.167 0-.25l2.6-2.71Z" id="a"/><path d="M2.661 3.494.062.784C-.02.7-.02.616.062.533L.53.066C.623-.017.706-.022.78.051L3.952 3.37A.169.169 0 0 1 4 3.494a.169.169 0 0 1-.047.125L.778 6.938c-.083.083-.166.083-.249 0l-.467-.483c-.083-.083-.083-.167 0-.25l2.6-2.71Z" id="c"/><path d="M2.661 3.494.062.784C-.02.7-.02.616.062.533L.53.066C.623-.017.706-.022.78.051L3.952 3.37A.169.169 0 0 1 4 3.494a.169.169 0 0 1-.047.125L.778 6.938c-.083.083-.166.083-.249 0l-.467-.483c-.083-.083-.083-.167 0-.25l2.6-2.71Z" id="e"/><path d="M2.661 3.494.062.784C-.02.7-.02.616.062.533L.53.066C.623-.017.706-.022.78.051L3.952 3.37A.169.169 0 0 1 4 3.494a.169.169 0 0 1-.047.125L.778 6.938c-.083.083-.166.083-.249 0l-.467-.483c-.083-.083-.083-.167 0-.25l2.6-2.71Z" id="g"/></defs><g fill="none" fill-rule="evenodd"><rect width="58" height="6" rx="3" transform="translate(9 22.5)" fill="#8E9EA4"/><rect width="42" height="6" rx="3" transform="translate(25 42.5)" fill="#8E9EA4"/><rect width="34" height="6" rx="3" transform="translate(9 32.5)" fill="#8E9EA4"/><g transform="matrix(-1 0 0 1 5 22)"><mask id="b" fill="#fff"><use xlink:href="#a"/></mask><use stroke="#8E9EA4" stroke-width=".664" fill="#8E9EA4" xlink:href="#a"/><g mask="url(#b)" fill="#8E9EA4"><path d="M-4.649-3.324H8.632V9.972h-13.28z"/></g></g><g transform="matrix(-1 0 0 1 21 42)"><mask id="d" fill="#fff"><use xlink:href="#c"/></mask><use stroke="#8E9EA4" stroke-width=".664" fill="#8E9EA4" xlink:href="#c"/><g mask="url(#d)" fill="#8E9EA4"><path d="M-4.649-3.324H8.632V9.972h-13.28z"/></g></g><g transform="matrix(1 0 0 -1 71 29)"><mask id="f" fill="#fff"><use xlink:href="#e"/></mask><use stroke="#8E9EA4" stroke-width=".664" fill="#8E9EA4" xlink:href="#e"/><g mask="url(#f)" fill="#8E9EA4"><path d="M-4.649-3.324H8.632V9.972h-13.28z"/></g></g><g transform="matrix(1 0 0 -1 71 49)"><mask id="h" fill="#fff"><use xlink:href="#g"/></mask><use stroke="#8E9EA4" stroke-width=".664" fill="#8E9EA4" xlink:href="#g"/><g mask="url(#h)" fill="#8E9EA4"><path d="M-4.649-3.324H8.632V9.972h-13.28z"/></g></g><g transform="translate(32 1)" stroke="#8E9EA4" stroke-linecap="round" stroke-linejoin="round" stroke-width="1.6"><circle cx="5.333" cy="5.333" r="5.333"/><path d="M12 12 9.1 9.1"/></g></g></svg>