<svg width="76" height="47" xmlns="http://www.w3.org/2000/svg" xmlns:xlink="http://www.w3.org/1999/xlink"><defs><path d="M2.661 3.494.062.784C-.02.7-.02.616.062.533L.53.066C.623-.017.706-.022.78.051L3.952 3.37A.169.169 0 0 1 4 3.494a.169.169 0 0 1-.047.125L.778 6.938c-.083.083-.166.083-.249 0l-.467-.483c-.083-.083-.083-.167 0-.25l2.6-2.71Z" id="a"/><path d="M2.661 3.494.062.784C-.02.7-.02.616.062.533L.53.066C.623-.017.706-.022.78.051L3.952 3.37A.169.169 0 0 1 4 3.494a.169.169 0 0 1-.047.125L.778 6.938c-.083.083-.166.083-.249 0l-.467-.483c-.083-.083-.083-.167 0-.25l2.6-2.71Z" id="c"/><path d="M2.661 3.494.062.784C-.02.7-.02.616.062.533L.53.066C.623-.017.706-.022.78.051L3.952 3.37A.169.169 0 0 1 4 3.494a.169.169 0 0 1-.047.125L.778 6.938c-.083.083-.166.083-.249 0l-.467-.483c-.083-.083-.083-.167 0-.25l2.6-2.71Z" id="e"/><path d="M2.661 3.494.062.784C-.02.7-.02.616.062.533L.53.066C.623-.017.706-.022.78.051L3.952 3.37A.169.169 0 0 1 4 3.494a.169.169 0 0 1-.047.125L.778 6.938c-.083.083-.166.083-.249 0l-.467-.483c-.083-.083-.083-.167 0-.25l2.6-2.71Z" id="g"/><path d="M17.793 1.618c0 .89-.728 1.617-1.618 1.617-.145 0-.283-.016-.412-.056l-2.88 2.87c.04.13.057.275.057.421 0 .89-.728 1.618-1.617 1.618A1.622 1.622 0 0 1 9.76 6.05L7.7 3.987c-.13.04-.275.057-.42.057-.146 0-.291-.016-.42-.057l-3.68 3.688c.04.13.056.267.056.413 0 .89-.728 1.617-1.618 1.617C.728 9.705 0 8.977 0 8.088c0-.89.728-1.618 1.617-1.618.146 0 .284.016.413.057l3.688-3.68A1.622 1.622 0 0 1 7.279.809a1.622 1.622 0 0 1 1.56 2.038l2.063 2.062c.13-.04.275-.056.42-.056.146 0 .291.016.42.056l2.872-2.879a1.381 1.381 0 0 1-.057-.413c0-.889.728-1.617 1.618-1.617.89 0 1.617.728 1.617 1.617Z" id="i"/></defs><g fill="none" fill-rule="evenodd"><rect width="42" height="6" rx="3" transform="translate(9 19)" fill="#8E9EA4"/><rect width="58" height="6" rx="3" transform="translate(9 39)" fill="#8E9EA4"/><rect width="34" height="6" rx="3" transform="translate(33 29.205)" fill="#8E9EA4"/><g transform="matrix(-1 0 0 1 5 18.705)"><mask id="b" fill="#fff"><use xlink:href="#a"/></mask><use stroke="#8E9EA4" stroke-width=".664" fill="#8E9EA4" xlink:href="#a"/><g mask="url(#b)" fill="#8E9EA4"><path d="M-4.649-3.324H8.632V9.972h-13.28z"/></g></g><g transform="matrix(-1 0 0 1 5 38.705)"><mask id="d" fill="#fff"><use xlink:href="#c"/></mask><use stroke="#8E9EA4" stroke-width=".664" fill="#8E9EA4" xlink:href="#c"/><g mask="url(#d)" fill="#8E9EA4"><path d="M-4.649-3.324H8.632V9.972h-13.28z"/></g></g><g transform="matrix(1 0 0 -1 55 25.705)"><mask id="f" fill="#fff"><use xlink:href="#e"/></mask><use stroke="#8E9EA4" stroke-width=".664" fill="#8E9EA4" xlink:href="#e"/><g mask="url(#f)" fill="#8E9EA4"><path d="M-4.649-3.324H8.632V9.972h-13.28z"/></g></g><g transform="matrix(1 0 0 -1 71 45.705)"><mask id="h" fill="#fff"><use xlink:href="#g"/></mask><use stroke="#8E9EA4" stroke-width=".664" fill="#8E9EA4" xlink:href="#g"/><g mask="url(#h)" fill="#8E9EA4"><path d="M-4.649-3.324H8.632V9.972h-13.28z"/></g></g><g transform="translate(29)"><mask id="j" fill="#fff"><use xlink:href="#i"/></mask><use fill="#8E9EA4" fill-rule="nonzero" xlink:href="#i"/><g mask="url(#j)"><path fill="#8E9EA4" d="M-1.603-5.647h21v21h-21z"/></g></g></g></svg>