<svg width="76" height="57" xmlns="http://www.w3.org/2000/svg" xmlns:xlink="http://www.w3.org/1999/xlink"><defs><path d="M2.661 3.494.062.784C-.02.7-.02.616.062.533L.53.066C.623-.017.706-.022.78.051L3.952 3.37A.169.169 0 0 1 4 3.494a.169.169 0 0 1-.047.125L.778 6.938c-.083.083-.166.083-.249 0l-.467-.483c-.083-.083-.083-.167 0-.25l2.6-2.71Z" id="a"/><path d="M2.661 3.494.062.784C-.02.7-.02.616.062.533L.53.066C.623-.017.706-.022.78.051L3.952 3.37A.169.169 0 0 1 4 3.494a.169.169 0 0 1-.047.125L.778 6.938c-.083.083-.166.083-.249 0l-.467-.483c-.083-.083-.083-.167 0-.25l2.6-2.71Z" id="c"/><path d="M2.661 3.494.062.784C-.02.7-.02.616.062.533L.53.066C.623-.017.706-.022.78.051L3.952 3.37A.169.169 0 0 1 4 3.494a.169.169 0 0 1-.047.125L.778 6.938c-.083.083-.166.083-.249 0l-.467-.483c-.083-.083-.083-.167 0-.25l2.6-2.71Z" id="e"/><path d="M2.661 3.494.062.784C-.02.7-.02.616.062.533L.53.066C.623-.017.706-.022.78.051L3.952 3.37A.169.169 0 0 1 4 3.494a.169.169 0 0 1-.047.125L.778 6.938c-.083.083-.166.083-.249 0l-.467-.483c-.083-.083-.083-.167 0-.25l2.6-2.71Z" id="g"/></defs><g fill="none" fill-rule="evenodd"><rect width="58" height="6" rx="3" transform="translate(9 29.5)" fill="#8E9EA4"/><rect width="42" height="6" rx="3" transform="translate(9 49.5)" fill="#8E9EA4"/><rect width="34" height="6" rx="3" transform="translate(9 39.5)" fill="#8E9EA4"/><g transform="matrix(-1 0 0 1 5 29)"><mask id="b" fill="#fff"><use xlink:href="#a"/></mask><use stroke="#8E9EA4" stroke-width=".664" fill="#8E9EA4" xlink:href="#a"/><g mask="url(#b)" fill="#8E9EA4"><path d="M-4.649-3.324H8.632V9.972h-13.28z"/></g></g><g transform="matrix(-1 0 0 1 5 49)"><mask id="d" fill="#fff"><use xlink:href="#c"/></mask><use stroke="#8E9EA4" stroke-width=".664" fill="#8E9EA4" xlink:href="#c"/><g mask="url(#d)" fill="#8E9EA4"><path d="M-4.649-3.324H8.632V9.972h-13.28z"/></g></g><g transform="matrix(1 0 0 -1 71 36)"><mask id="f" fill="#fff"><use xlink:href="#e"/></mask><use stroke="#8E9EA4" stroke-width=".664" fill="#8E9EA4" xlink:href="#e"/><g mask="url(#f)" fill="#8E9EA4"><path d="M-4.649-3.324H8.632V9.972h-13.28z"/></g></g><g transform="matrix(1 0 0 -1 55 56)"><mask id="h" fill="#fff"><use xlink:href="#g"/></mask><use stroke="#8E9EA4" stroke-width=".664" fill="#8E9EA4" xlink:href="#g"/><g mask="url(#h)" fill="#8E9EA4"><path d="M-4.649-3.324H8.632V9.972h-13.28z"/></g></g><g fill="#8E9EA4"><path d="M37.23 0h1.615-1.615Zm-.866 5.83c.602 0 1.09.507 1.09 1.133v5.101c0-.626.489-1.133 1.091-1.133.603 0 1.091.507 1.091 1.133 0-.626.489-1.133 1.091-1.133.603 0 1.091.507 1.091 1.133 0-.626.489-1.133 1.091-1.133.603 0 1.091.507 1.091 1.133V18.3c0 .939-.733 1.7-1.636 1.7h-6.08c-.62 0-1.186-.364-1.464-.94l-2.395-5.546a1.143 1.143 0 0 1 .365-1.43c.475-.329 1.114-.215 1.392.26l1.026 1.42h.065V6.964c0-.626.488-1.134 1.09-1.134Zm0-5.102c2.406 0 4.363 2.034 4.363 4.534 0 .997-.305 1.943-.883 2.735a4.46 4.46 0 0 1-1.299 1.191V7.793a3.48 3.48 0 0 0 1.091-2.53c0-1.876-1.468-3.402-3.272-3.402-1.805 0-3.273 1.526-3.273 3.401a3.48 3.48 0 0 0 1.09 2.531v1.395a4.46 4.46 0 0 1-1.298-1.19A4.611 4.611 0 0 1 32 5.261c0-2.5 1.958-4.534 4.364-4.534Zm0 2.267c.58 0 1.127.234 1.539.66a2.345 2.345 0 0 1 .483 2.458 2.255 2.255 0 0 0-.965-1.133 1.138 1.138 0 0 0-.288-.521 1.063 1.063 0 0 0-.77-.33c-.5.002-.932.367-1.055.85-.434.25-.777.65-.965 1.131a2.349 2.349 0 0 1-.158-.963c.058-1.201 1.01-2.146 2.169-2.152Z"/></g></g></svg>