<?xml version="1.0" encoding="UTF-8"?>
<svg width="19px" height="23px" viewBox="0 0 19 23" version="1.1" xmlns="http://www.w3.org/2000/svg" xmlns:xlink="http://www.w3.org/1999/xlink">
    <g id="Desktop-in-progress" stroke="none" stroke-width="1" fill="none" fill-rule="evenodd">
                <path d="M3,1.2874962 C3.23765782,1.2874962 3.47423565,1.31946607 3.70336922,1.38254576 L3.70336922,1.38254576 L16.7033692,4.9614018 C17.2783142,5.1196822 17.7649718,5.46025276 18.1078933,5.91033674 C18.4508148,6.36042073 18.65,6.92001814 18.65,7.51635224 L18.65,7.51635224 L18.65,15.4836478 C18.65,16.0799819 18.4508148,16.6395793 18.1078933,17.0896633 C17.7649718,17.5397472 17.2783142,17.8803178 16.7033692,18.0385982 L16.7033692,18.0385982 L3.70336922,21.6174542 C2.99783913,21.8116843 2.28037424,21.701554 1.69073436,21.3664837 C1.10109448,21.0314134 0.639279607,20.4714031 0.445049561,19.765873 C0.381969865,19.5367394 0.35,19.3001616 0.35,19.0625038 L0.35,19.0625038 L0.35,3.9374962 C0.35,3.20571891 0.646611353,2.54321891 1.12616703,2.06366323 C1.60572271,1.58410756 2.26822271,1.2874962 3,1.2874962 Z" stroke="currentColor" stroke-width="0.7"></path>
                <path d="M10.395,10.0520119 C10.5084359,10.0520119 10.6026282,10.0031348 10.6775769,9.90538046 C10.7525256,9.80762617 10.79,9.68741481 10.79,9.54474638 C10.79,9.40736197 10.7525256,9.29243462 10.6775769,9.19996434 C10.6026282,9.10749407 10.5084359,9.06125893 10.395,9.06125893 C10.2815641,9.06125893 10.1873718,9.11013607 10.1124231,9.20789037 C10.0374744,9.30564466 10,9.42321401 10,9.56059843 C10,9.69798284 10.0374744,9.81423119 10.1124231,9.90934347 C10.1873718,10.0044558 10.2815641,10.0520119 10.395,10.0520119 Z M10.6866923,15.0612589 L10.6866923,10.8604663 L10.1033077,10.8604663 L10.1033077,15.0612589 L10.6866923,15.0612589 Z" id="i" fill="#243D48" fill-rule="nonzero"></path>
    </g>
</svg>