<?xml version="1.0" encoding="UTF-8"?>
<svg width="24px" height="20px" viewBox="0 0 24 20" version="1.1" xmlns="http://www.w3.org/2000/svg" xmlns:xlink="http://www.w3.org/1999/xlink">
    <title>Shape Copy 2</title>
    <g id="Desktop-in-progress" stroke="none" stroke-width="1" fill="none" fill-rule="evenodd">
        <g id="Search_and_discovery_v1_query_autocomplete_matches" transform="translate(-432.000000, -498.000000)" fill="#0086b2" fill-rule="nonzero">
            <path d="M441.361842,503.115342 L441.370332,503.113572 C441.834958,503.019367 442.286965,503.324807 442.379921,503.795679 C442.471807,504.261138 442.178413,504.714102 441.72282,504.815447 L441.706861,504.818839 C441.191072,504.928941 440.717216,505.185881 440.340798,505.559191 L440.316905,505.583178 L434.506515,511.472539 C433.420209,512.573702 433.420411,514.358858 434.506968,515.459766 C435.58266,516.549716 437.31984,516.560416 438.408517,515.492063 L438.441308,515.459359 L444.251697,509.570863 C444.954955,508.856235 445.228357,507.816478 444.970927,506.843075 L444.962964,506.813599 C444.834314,506.351388 445.099757,505.870989 445.555837,505.74061 C446.011917,505.610232 446.485944,505.879243 446.614593,506.341453 C447.049588,507.913203 446.623194,509.599403 445.499119,510.7652 L445.464842,510.800367 L439.654503,516.689729 C437.903383,518.436927 435.092903,518.436723 433.342034,516.689321 C431.589562,514.940277 431.550653,512.093756 433.241551,510.296313 L433.29332,510.242169 L439.103709,504.353673 C439.709633,503.739052 440.476283,503.313223 441.312856,503.126059 L441.361842,503.115342 L441.361842,503.115342 Z M451.500908,498 L451.537441,498 C452.718137,498.009454 453.848486,498.489044 454.683813,499.336204 C456.422051,501.09912 456.438447,503.94533 454.733735,505.728675 L454.68155,505.782389 L448.871161,511.669967 C448.255916,512.294705 447.474518,512.724308 446.622335,512.906451 C446.563666,512.919188 446.503841,512.925565 446.443865,512.925565 C446.0364,512.926831 445.684235,512.637542 445.601183,512.23326 C445.505731,511.768569 445.795506,511.313334 446.250184,511.208311 L446.2663,511.20475 C446.782631,511.094748 447.257027,510.83781 447.634034,510.464404 L447.657966,510.440412 L453.468304,504.551967 C454.55461,503.450804 454.554409,501.665649 453.467852,500.56474 C452.39216,499.47479 450.65498,499.464091 449.566303,500.532443 L449.533512,500.565148 L443.723173,506.452777 C443.019915,507.167406 442.746513,508.207163 443.003943,509.180565 L443.011906,509.210042 C443.140556,509.672252 442.875113,510.152651 442.419033,510.28303 C441.962954,510.413409 441.488926,510.144397 441.360277,509.682187 C440.925282,508.110387 441.351676,506.424186 442.475703,505.258389 L442.509978,505.223222 L448.320317,499.334727 C449.153889,498.486368 450.284368,498.006906 451.464759,498 L451.500908,498 Z" id="Shape-Copy-2"></path>
        </g>
    </g>
</svg>