<?xml version="1.0" encoding="UTF-8"?>
<svg width="11px" height="8px" viewBox="0 0 11 8" version="1.1" xmlns="http://www.w3.org/2000/svg" xmlns:xlink="http://www.w3.org/1999/xlink">
    <title>Path</title>
    <g id="Empathy-for-developers" stroke="none" stroke-width="1" fill="none" fill-rule="evenodd">
        <g id="edocs_v1_UI_reference_recommendations-Copy-3" transform="translate(-517.000000, -662.000000)" fill="#243C47" fill-rule="nonzero">
            <path d="M523.231276,662.4 C523.290219,662.4 523.341001,662.418881 523.376228,662.450638 L527.228334,665.923468 C527.25538,665.947812 527.266668,665.972702 527.266668,665.999105 C527.266668,666.027049 527.255361,666.051992 527.228308,666.076399 L523.376315,669.549049 C523.340838,669.581032 523.289973,669.6 523.231363,669.6 C523.171874,669.6 523.121268,669.581256 523.086323,669.549752 L522.736141,669.234994 C522.70912,669.210634 522.698341,669.187257 522.698341,669.162145 C522.698341,669.137746 522.708493,669.115884 522.736698,669.090436 L525.785193,666.3517 L517.576255,666.3517 C517.475177,666.3517 517.4,666.280155 517.4,666.21132 L517.4,665.76546 C517.4,665.706841 517.465647,665.647987 517.576255,665.647987 L525.755305,665.647987 L522.736819,662.920775 C522.711084,662.897592 522.698254,662.869082 522.698254,662.84106 C522.698254,662.815012 522.709592,662.79025 522.736378,662.766122 L523.086273,662.450605 C523.121481,662.41889 523.17227,662.4 523.231276,662.4 Z" id="Path"></path>
        </g>
    </g>
</svg>