<svg xmlns="http://www.w3.org/2000/svg" width="15" height="15" viewBox="0 0 612 612" fill="#243d48">
	<path d="M306 23.6c-118 0-214 96-214 214 0 83.4 48 155.8 117.7 191.1v127.5c0 30.8 25 55.8 55.8 55.8h81c30.8 0 55.8-25 55.8-55.8V428.7a214.3 214.3 0 00117.7-191c0-118-96-214.1-214-214.1zm16.6 391a179.3 179.3 0 01-33.3 0c1.3-24.9.7-72.3-17-114h67.3c-17.6 41.7-18.2 89.2-17 114zM366 519.2H246V443a213.4 213.4 0 00120 0v76zm0 37c0 10.8-8.7 19.5-19.5 19.5h-81a19.6 19.6 0 01-19.5-19.5v-.8h120v.8zm-7.3-148.8c-.8-28 1.5-79.7 26.3-114.4a18.1 18.1 0 00-14.8-28.7H241.8A18.1 18.1 0 00227 293c24.8 34.7 27.1 86.4 26.3 114.4a178 178 0 01-125-169.8C128.3 139.6 208 60 306 60s177.7 79.7 177.7 177.7a178 178 0 01-125 169.8zM71.6 78.2a18 18 0 0025.6 0c7.1-7.1 7.1-18.6 0-25.7L50.1 5.3A18.1 18.1 0 1024.4 31l47.2 47.2zM527.6 83.5a18 18 0 0012.8-5.3L587.6 31a18.1 18.1 0 10-25.7-25.7l-47.1 47.2a18.1 18.1 0 0012.8 31zM540.4 397a18.1 18.1 0 10-25.6 25.7l47.1 47.2a18 18 0 0025.7 0c7-7 7-18.5 0-25.6L540.4 397zM71.6 397l-47.2 47.3a18.1 18.1 0 0025.7 25.6l47.1-47.2a18.1 18.1 0 00-25.6-25.6z"/>
</svg>
