<?xml version="1.0" encoding="UTF-8"?>
<svg width="19px" height="23px" viewBox="0 0 19 23" version="1.1" xmlns="http://www.w3.org/2000/svg" fill="none">
        <path d="M3,1.2874962 C3.23765782,1.2874962 3.47423565,1.31946607 3.70336922,1.38254576 L3.70336922,1.38254576 L16.7033692,4.9614018 C17.2783142,5.1196822 17.7649718,5.46025276 18.1078933,5.91033674 C18.4508148,6.36042073 18.65,6.92001814 18.65,7.51635224 L18.65,7.51635224 L18.65,15.4836478 C18.65,16.0799819 18.4508148,16.6395793 18.1078933,17.0896633 C17.7649718,17.5397472 17.2783142,17.8803178 16.7033692,18.0385982 L16.7033692,18.0385982 L3.70336922,21.6174542 C2.99783913,21.8116843 2.28037424,21.701554 1.69073436,21.3664837 C1.10109448,21.0314134 0.639279607,20.4714031 0.445049561,19.765873 C0.381969865,19.5367394 0.35,19.3001616 0.35,19.0625038 L0.35,19.0625038 L0.35,3.9374962 C0.35,3.20571891 0.646611353,2.54321891 1.12616703,2.06366323 C1.60572271,1.58410756 2.26822271,1.2874962 3,1.2874962 Z" stroke="currentColor" stroke-width="0.7"></path>
        <path d="M10.8538622,12.9966648 C10.8538622,12.7103909 10.8977035,12.4665278 10.9853862,12.2677283 C11.0730689,12.072466 11.2066806,11.8535869 11.3862213,11.6153839 C11.519833,11.4442647 11.6273486,11.2976284 11.7087683,11.1734082 C11.7901879,11.0515571 11.8590814,10.9039608 11.9154489,10.7306039 C11.9718163,10.5595955 12,10.3600963 12,10.1303452 C12,9.6820504 11.8695198,9.29034197 11.6085595,8.94305328 C11.3475992,8.57954236 10.9979123,8.31440123 10.559499,8.15979655 C9.87473904,7.91831876 9.35490605,8.11735384 9,8.79351568 L9.33194154,9.3184154 C9.61169102,8.7952756 10.0104384,8.62005694 10.5281837,8.77028162 C10.8413361,8.86114332 11.0876827,9.03658868 11.2672234,9.29065136 C11.4467641,9.53675895 11.5365344,9.81935957 11.5365344,10.1444196 C11.5365344,10.386737 11.493737,10.5870214 11.408142,10.7476925 C11.322547,10.9115901 11.1899791,11.1049407 11.0104384,11.3320921 C10.8768267,11.5052202 10.7682672,11.6639714 10.6847599,11.8064568 C10.6012526,11.9513721 10.5313152,12.1277011 10.4749478,12.3353546 C10.4185804,12.5453193 10.3903967,12.7878652 10.3903967,13.0612589 L10.8538622,12.9966648 Z M10.4952381,15.0477474 C10.6349206,15.0162684 10.7539683,14.9412219 10.852381,14.8235749 C10.9507937,14.7072173 11,14.5852863 11,14.4568152 C11,14.3222263 10.952381,14.2189305 10.8571429,14.1460523 C10.7619048,14.0720068 10.6412698,14.0462338 10.4952381,14.0696086 C10.3555556,14.0919671 10.2380952,14.1574561 10.1428571,14.2669512 C10.047619,14.3776135 10,14.5053255 10,14.649212 C10,14.7865581 10.047619,14.8959668 10.1428571,14.9765023 C10.2380952,15.05579 10.3555556,15.0792264 10.4952381,15.0477474 Z" fill="currentColor" fill-opacity="0.8"></path>
</svg>