<svg width="19" height="18" viewBox="-1 -1 23 22" xmlns="http://www.w3.org/2000/svg"><path d="M8.09.26c-3.9.84-6.95 3.82-7.82 7.6a10.2 10.2 0 0 0 7.14 12.12.34.34 0 0 0 .34-.06c.07-.06.14-.16.16-.56.02-.61 0-1.22 0-1.84 0-.08-.03-.1-.12-.08a4.98 4.98 0 0 1-1.36.06 2.55 2.55 0 0 1-1.58-.58c-.28-.24-.4-.57-.56-.88a2.7 2.7 0 0 0-1.1-1.33.82.82 0 0 1-.3-.3c-.1-.15-.08-.2.1-.26.23-.06.44-.02.65.04.58.19 1 .56 1.31 1.07.19.31.43.57.75.77.64.38 1.31.26 1.98.08.19-.05.26-.14.3-.34.02-.1.06-.21.1-.32.08-.3.28-.56.5-.8a8.14 8.14 0 0 1-1.97-.44 4 4 0 0 1-1.96-1.45 5.9 5.9 0 0 1-.76-3.8 3.7 3.7 0 0 1 .91-1.93c.05-.06.12-.1.08-.22a3.36 3.36 0 0 1-.01-2.21c.12-.4.24-.48.67-.4l.04.02c.77.2 1.48.52 2.14.94a.4.4 0 0 0 .36.06 8.44 8.44 0 0 1 1.56-.26 9.76 9.76 0 0 1 3.3.27c.11.02.2.01.3-.05.42-.27.85-.52 1.31-.7.42-.15.83-.33 1.29-.29.07.01.13.01.16.1.3.79.42 1.6.15 2.41-.06.17-.04.26.07.38.4.45.66.96.8 1.54.2.75.15 1.5.03 2.26a4.44 4.44 0 0 1-.75 1.93 4.48 4.48 0 0 1-2.68 1.63c-.4.1-.8.14-1.21.2.43.55.5.69.6 1.12a4 4 0 0 1 .07.9v2.57c0 .15-.02.5.2.67l.02.02a.42.42 0 0 0 .35.04A10.26 10.26 0 0 0 21 10.22C21 3.8 14.94-1.22 8.09.26" fill="currentColor" fill-opacity="0.8"/></svg>