<?xml version="1.0" encoding="UTF-8"?>
<svg width="19px" height="23px" viewBox="0 0 19 23" version="1.1" xmlns="http://www.w3.org/2000/svg" fill="none">
    <path d="M3,1.2874962 C3.23765782,1.2874962 3.47423565,1.31946607 3.70336922,1.38254576 L3.70336922,1.38254576 L16.7033692,4.9614018 C17.2783142,5.1196822 17.7649718,5.46025276 18.1078933,5.91033674 C18.4508148,6.36042073 18.65,6.92001814 18.65,7.51635224 L18.65,7.51635224 L18.65,15.4836478 C18.65,16.0799819 18.4508148,16.6395793 18.1078933,17.0896633 C17.7649718,17.5397472 17.2783142,17.8803178 16.7033692,18.0385982 L16.7033692,18.0385982 L3.70336922,21.6174542 C2.99783913,21.8116843 2.28037424,21.701554 1.69073436,21.3664837 C1.10109448,21.0314134 0.639279607,20.4714031 0.445049561,19.765873 C0.381969865,19.5367394 0.35,19.3001616 0.35,19.0625038 L0.35,19.0625038 L0.35,3.9374962 C0.35,3.20571891 0.646611353,2.54321891 1.12616703,2.06366323 C1.60572271,1.58410756 2.26822271,1.2874962 3,1.2874962 Z" stroke="currentColor" stroke-width="0.7"></path>
    <path d="M7.41267755,11.494692 L7.60050749,11.2812243 L7.60050749,11.5612589 C7.60050749,12.9397646 8.58728575,14.0612589 9.80025374,14.0612589 C11.0131988,14.0612589 12,12.9397646 12,11.5612589 C12,10.1827272 11.0131988,9.06125893 9.80025374,9.06125893 C9.6667745,9.06125893 9.55850902,9.18424993 9.55850902,9.33597446 C9.55850902,9.48769899 9.6667745,9.61071607 9.80025374,9.61071607 C10.7466074,9.61071607 11.5165335,10.485733 11.5165335,11.5612589 C11.5165335,12.6367848 10.7466074,13.5118018 9.80025374,13.5118018 C8.8539001,13.5118018 8.08395106,12.6367848 8.08395106,11.5612589 L8.08395106,11.2812243 L8.271781,11.494692 C8.31899659,11.5483523 8.38084947,11.5751564 8.44270235,11.5751564 C8.50457817,11.5751564 8.56643105,11.5483262 8.61364664,11.494692 C8.70803193,11.3873976 8.70803193,11.213458 8.61364664,11.1061635 L8.01315062,10.4237551 C7.91874239,10.3164868 7.76571616,10.3164868 7.67128498,10.4237551 L7.07078897,11.1061635 C6.97640368,11.213458 6.97640368,11.3873976 7.07078897,11.494692 C7.16524309,11.6019865 7.31824637,11.6019604 7.41267755,11.494692" fill="currentColor" fill-opacity="0.7"></path>
</svg>