<?xml version="1.0" encoding="UTF-8"?>
<svg width="11px" height="7px" viewBox="0 0 11 7" version="1.1" xmlns="http://www.w3.org/2000/svg">
        <g transform="translate(-521.000000, -669.000000)" fill="#243d48" >
            <g id="Group" transform="translate(474.000000, 468.000000)">
                <path d="M53.876536,201.425 L57.2614602,201.425 C57.4640421,201.425 57.6265274,201.585911 57.6265274,201.78241 L57.6265274,205.134478 C57.6265274,205.330859 57.4639518,205.491888 57.2614602,205.491888 C57.0589384,205.491888 56.896393,205.330881 56.896393,205.134478 L56.896393,202.65239 L52.2383205,207.26501 C52.1697899,207.332901 52.0763055,207.371273 51.9787599,207.371273 C51.8810657,207.371273 51.7875783,207.332908 51.7191048,207.265074 L49.5854356,205.1519 L48.0496302,206.672497 C47.9066179,206.814027 47.6732513,206.814057 47.5303386,206.672529 C47.3898325,206.533313 47.3898546,206.309255 47.5305227,206.169926 L49.3258181,204.392291 C49.4686305,204.250838 49.7021229,204.250838 49.8448369,204.392218 L51.9787548,206.505394 L56.3873788,202.139769 L53.8763249,202.139769 C53.6739887,202.139769 53.5114256,201.978729 53.5115215,201.782409 C53.5115216,201.5859 53.6740184,201.425 53.876536,201.425 Z" id="Path"></path>
            </g>
        </g>
</svg>