<svg width="26" height="26" xmlns="http://www.w3.org/2000/svg"><defs><path id="a" d="M26 0v26H0V0"/></defs><g fill="none" fill-rule="evenodd"><path d="M5.652 1.455c.269 0 .536.037.795.108l14.696 4.046a2.991 2.991 0 0 1 2.2 2.888v9.006a2.991 2.991 0 0 1-2.2 2.888L6.447 24.437a2.986 2.986 0 0 1-2.275-.284 2.986 2.986 0 0 1-1.515-2.604V4.45c0-.827.335-1.576.877-2.118a2.986 2.986 0 0 1 2.118-.878Z" stroke="currentColor" stroke-width=".7"/><g stroke="currentColor" stroke-linecap="round" stroke-linejoin="round" stroke-width=".7"><path d="m12 10 2.825 2.825L12 15.65"/></g></g></svg>