<svg width="470" height="117" xmlns="http://www.w3.org/2000/svg" xmlns:xlink="http://www.w3.org/1999/xlink">
    <defs>
        <path d="M4.57 5.99.1 1.34c-.15-.14-.15-.28 0-.43l.8-.8c.16-.14.3-.15.43-.02l5.45 5.69c.05.05.08.12.08.21a.3.3 0 0 1-.08.21l-5.46 5.7c-.14.14-.28.14-.42 0l-.8-.83c-.15-.15-.15-.29 0-.43l4.46-4.65z" id="a"/>
        <path d="M4.57 5.99.1 1.34c-.15-.14-.15-.28 0-.43l.8-.8c.16-.14.3-.15.43-.02l5.45 5.69c.05.05.08.12.08.21a.3.3 0 0 1-.08.21l-5.46 5.7c-.14.14-.28.14-.42 0l-.8-.83c-.15-.15-.15-.29 0-.43l4.46-4.65z" id="c"/>
        <path d="M17.8 1.62a1.62 1.62 0 0 1-2.04 1.56l-2.88 2.87a1.62 1.62 0 0 1-1.56 2.04 1.62 1.62 0 0 1-1.56-2.04L7.7 3.99c-.13.04-.28.05-.42.05-.15 0-.3-.01-.42-.05L3.18 7.68c.04.13.06.26.06.4a1.62 1.62 0 0 1-3.24 0 1.62 1.62 0 0 1 2.03-1.55l3.69-3.68A1.62 1.62 0 0 1 7.28.8a1.62 1.62 0 0 1 1.56 2.04L10.9 4.9a1.47 1.47 0 0 1 .84 0l2.87-2.88a1.38 1.38 0 0 1-.05-.41 1.61 1.61 0 1 1 3.23 0z" id="e"/>
    </defs>
    <g fill="none" fill-rule="evenodd">
        <rect width="99.54" height="10.29" rx="5.14" transform="translate(186.73 88.86)" fill="#1E3D49"/>
        <g transform="matrix(-1 0 0 1 179.87 88)">
            <mask id="b" fill="#fff">
                <use xlink:href="#a"/>
            </mask>
            <use stroke="#1E3D49" stroke-width="1.14" fill="#1E3D49" xlink:href="#a"/>
            <g mask="url(#b)" fill="#1E3D49">
                <path d="M-7.98-5.7h22.8v22.8h-22.8z"/>
            </g>
        </g>
        <g transform="matrix(1 0 0 -1 293.13 100)">
            <mask id="d" fill="#fff">
                <use xlink:href="#c"/>
            </mask>
            <use stroke="#1E3D49" stroke-width="1.14" fill="#1E3D49" xlink:href="#c"/>
            <g mask="url(#d)" fill="#1E3D49">
                <path d="M-7.98-5.7h22.8v22.8h-22.8z"/>
            </g>
        </g>
        <circle cx="19" cy="19" r="18.5" fill="#FFF" stroke="#A6B0B5" transform="translate(338 62)"/>
        <g transform="translate(348 76)">
            <mask id="f" fill="#fff">
                <use xlink:href="#e"/>
            </mask>
            <use fill="#1E3D49" fill-rule="nonzero" xlink:href="#e"/>
            <g mask="url(#f)" fill="#1E3D49">
                <path d="M-1.6-5.65h21v21h-21z"/>
            </g>
        </g>
        <circle cx="19" cy="19" r="18.5" fill="#FFF" stroke="#A6B0B5" transform="translate(135 28)"/>
        <g transform="translate(143 36)">
            <path d="M16.89 16.11A7.8 7.8 0 1 0 5.12 5.88a7.8 7.8 0 0 0 11.77 10.23z" stroke="#1E3D49" stroke-width="1.6" stroke-linecap="round" stroke-linejoin="round" stroke-dasharray="35.4416725606802,70.88334512136041"/>
            <path d="M13.98 13.88a4.25 4.25 0 1 0-5.8-6.22 4.25 4.25 0 0 0 5.8 6.22z" stroke="#1E3D49" stroke-width="1.6" stroke-linecap="round" stroke-linejoin="round" stroke-dasharray="19.84733775415394,141.7666902427208"/>
            <ellipse fill="#1E3D49" cx="11" cy="10.96" rx="1.43" ry="1.42"/>
        </g>
        <circle cx="19" cy="19" r="18.5" fill="#FFF" stroke="#A6B0B5" transform="translate(297 28)"/>
        <path d="M315.5 40.38c.46 0 .84.35.87.8v.22a2.63 2.63 0 0 1 0 4.95v6.28a.88.88 0 0 1-1.74.06v-6.34a2.63 2.63 0 0 1 0-4.95v-.15c0-.48.39-.88.87-.88zm0 2.62a.88.88 0 1 0 0 1.75.88.88 0 0 0 0-1.75zm-6.13-2.63c.47 0 .84.36.88.82v5.46a2.63 2.63 0 0 1 0 4.95v1.02a.88.88 0 0 1-1.75.07V51.6a2.63 2.63 0 0 1 0-4.95v-5.4c0-.48.4-.88.88-.88zm0 7.88a.88.88 0 1 0 0 1.75.88.88 0 0 0 0-1.75zm12.25-7.88c.47 0 .84.36.88.82v2.83a2.63 2.63 0 0 1 0 4.95v3.66a.88.88 0 0 1-1.75.06v-3.71a2.63 2.63 0 0 1 0-4.95v-2.78c0-.48.4-.88.88-.88zm0 5.26a.88.88 0 1 0 0 1.74.88.88 0 0 0 0-1.74z" fill="#1E3D49" fill-rule="nonzero"/>
        <circle cx="19" cy="19" r="18.5" fill="#FFF" stroke="#A6B0B5" transform="translate(189 16)"/>
        <g transform="translate(202 29)" stroke="#1E3D49" stroke-linecap="round" stroke-linejoin="round" stroke-width="1.6">
            <circle cx="5.33" cy="5.33" r="5.33"/>
            <path d="M12 12 9.1 9.1"/>
        </g>
        <circle cx="19" cy="19" r="18.5" fill="#FFF" stroke="#A6B0B5" transform="translate(243 16)"/>
        <g transform="translate(254 27)">
            <rect stroke="#1E3D49" stroke-width="1.42" x=".71" y=".71" width="14.58" height="14.58" rx="2.67"/>
            <path d="M13.22 4.44c0 .41-.29.75-.66.78H3.27c-.4 0-.71-.35-.71-.78 0-.4.29-.74.65-.77h9.3c.4 0 .71.34.71.77zm0 3.56c0 .41-.29.75-.66.78H3.27c-.4 0-.71-.35-.71-.78 0-.41.29-.75.65-.78h9.3c.4 0 .71.35.71.78zm0 3.56c0 .4-.29.74-.66.77H3.27c-.4 0-.71-.34-.71-.77 0-.41.29-.75.65-.78h9.3c.4 0 .71.35.71.78z" fill="#1E3D49" fill-rule="nonzero"/>
        </g>
        <circle cx="19" cy="19" r="18.5" fill="#FFF" stroke="#A6B0B5" transform="translate(94 62)"/>
        <path d="M112.23 69h1.61-1.61zm-.87 5.83c.6 0 1.1.5 1.1 1.13v5.1c0-.62.48-1.13 1.09-1.13.6 0 1.09.5 1.09 1.13 0-.62.48-1.13 1.09-1.13.6 0 1.09.5 1.09 1.13 0-.62.49-1.13 1.09-1.13.6 0 1.09.5 1.09 1.13v6.24c0 .94-.73 1.7-1.64 1.7h-6.08c-.62 0-1.18-.36-1.46-.94l-2.4-5.55a1.14 1.14 0 0 1 .37-1.43.98.98 0 0 1 1.4.26l1.02 1.42h.06v-6.8c0-.62.5-1.13 1.1-1.13zm0-5.1a4.46 4.46 0 0 1 4.37 4.53c0 1-.3 1.94-.89 2.74a4.46 4.46 0 0 1-1.3 1.19v-1.4a3.48 3.48 0 0 0 1.1-2.53c0-1.87-1.47-3.4-3.28-3.4a3.34 3.34 0 0 0-3.27 3.4 3.48 3.48 0 0 0 1.1 2.53v1.4a4.46 4.46 0 0 1-1.3-1.2 4.61 4.61 0 0 1-.89-2.73c0-2.5 1.96-4.53 4.36-4.53zm0 2.26c.58 0 1.13.24 1.54.66a2.35 2.35 0 0 1 .49 2.46 2.25 2.25 0 0 0-.97-1.13 1.14 1.14 0 0 0-.29-.52 1.06 1.06 0 0 0-.77-.33c-.5 0-.93.37-1.05.85-.44.25-.78.65-.97 1.13a2.35 2.35 0 0 1-.15-.96 2.22 2.22 0 0 1 2.16-2.16z" fill="#1E3D49"/>
        <path d="M131 76h72a8 8 0 0 1 8 8v5" stroke="#1E3D49" stroke-dasharray="3,2"/>
        <path d="M164 62h49a8 8 0 0 1 8 8v19m1-42a8 8 0 0 1 8 8v34m18-42a8 8 0 0 0-8 8v34m65-27h-46a8 8 0 0 0-8 8v19" stroke="#1E3D49" stroke-dasharray="3,2"/>
        <path d="M339 76h-69a8 8 0 0 0-8 8v5" stroke="#1E3D49" stroke-dasharray="3,2"/>
    </g>
</svg>