<svg width="470" height="117" xmlns="http://www.w3.org/2000/svg" xmlns:xlink="http://www.w3.org/1999/xlink">
    <defs>
        <mask id="l" maskContentUnits="userSpaceOnUse" maskUnits="objectBoundingBox" x="0" y="0" width="36" height="7" fill="#fff">
            <use xlink:href="#a"/>
        </mask>
        <mask id="m" maskContentUnits="userSpaceOnUse" maskUnits="objectBoundingBox" x="0" y="0" width="14" height="4" fill="#fff">
            <use xlink:href="#b"/>
        </mask>
        <mask id="n" maskContentUnits="userSpaceOnUse" maskUnits="objectBoundingBox" x="0" y="0" width="16.3" height="16" fill="#fff">
            <use xlink:href="#c"/>
        </mask>
        <mask id="o" maskContentUnits="userSpaceOnUse" maskUnits="objectBoundingBox" x="0" y="0" width="16.3" height="16" fill="#fff">
            <use xlink:href="#d"/>
        </mask>
        <mask id="p" maskContentUnits="userSpaceOnUse" maskUnits="objectBoundingBox" x="0" y="0" width="14" height="4" fill="#fff">
            <use xlink:href="#e"/>
        </mask>
        <mask id="q" maskContentUnits="userSpaceOnUse" maskUnits="objectBoundingBox" x="0" y="0" width="16.3" height="16" fill="#fff">
            <use xlink:href="#f"/>
        </mask>
        <mask id="r" maskContentUnits="userSpaceOnUse" maskUnits="objectBoundingBox" x="0" y="0" width="16.3" height="16" fill="#fff">
            <use xlink:href="#g"/>
        </mask>
        <mask id="s" maskContentUnits="userSpaceOnUse" maskUnits="objectBoundingBox" x="0" y="0" width="8" height="4" fill="#fff">
            <use xlink:href="#h"/>
        </mask>
        <mask id="t" maskContentUnits="userSpaceOnUse" maskUnits="objectBoundingBox" x="0" y="0" width="14" height="14" fill="#fff">
            <use xlink:href="#i"/>
        </mask>
        <mask id="u" maskContentUnits="userSpaceOnUse" maskUnits="objectBoundingBox" x="0" y="0" width="14" height="14" fill="#fff">
            <use xlink:href="#j"/>
        </mask>
        <mask id="v" maskContentUnits="userSpaceOnUse" maskUnits="objectBoundingBox" x="0" y="0" width="8.8" height="14" fill="#fff">
            <use xlink:href="#k"/>
        </mask>
        <rect id="a" x="135" y="13" width="36" height="7" rx="3.5"/>
        <rect id="b" x="135" y="24" width="14" height="4" rx="2"/>
        <rect id="c" x="135" y="56" width="16.3" height="16" rx="2"/>
        <rect id="d" x="135" y="75" width="16.3" height="16" rx="2"/>
        <rect id="e" x="152" y="24" width="14" height="4" rx="2"/>
        <rect id="f" x="154.7" y="56" width="16.3" height="16" rx="2"/>
        <rect id="g" x="154.7" y="75" width="16.3" height="16" rx="2"/>
        <rect id="h" x="169" y="24" width="8" height="4" rx="2"/>
        <circle id="i" cx="142" cy="42" r="7"/>
        <circle id="j" cx="159" cy="42" r="7"/>
        <path d="M176 35h1.8v14H176a7 7 0 0 1 0-14z" id="k"/>
    </defs>
    <g fill="none" fill-rule="evenodd">
        <g transform="translate(78 13)">
            <g transform="translate(126)">
                <rect fill-opacity=".7" fill="#FFF" x="3.6" y="2.5" width="46.8" height="87" rx="1.5"/>
                <g transform="translate(1.1)">
                    <rect fill="#FFF" x="2.5" y="2.5" width="46.8" height="87" rx="1.5"/>
                    <path d="M44.3 0a7.5 7.5 0 0 1 7.5 7.5v77a7.5 7.5 0 0 1-7.5 7.5H7.5A7.5 7.5 0 0 1 0 84.5v-77A7.5 7.5 0 0 1 7.5 0h36.8zm.2 3.7h-9.8L33.4 6a3.1 3.1 0 0 1-2.7 1.5h-9A3.1 3.1 0 0 1 19.3 6l-1.5-2.3H7.2a3.7 3.7 0 0 0-3.7 3.6v77.2A3.7 3.7 0 0 0 7 88.3h37.5a3.7 3.7 0 0 0 3.8-3.6V7.5a3.7 3.7 0 0 0-3.8-3.8z" fill="#1E3D49"/>
                </g>
                <rect fill="#1E3D49" y="14" width="2.2" height="5" rx="1.1"/>
                <rect fill="#1E3D49" y="24.7" width="2.2" height="8.4" rx="1.1"/>
                <rect fill="#1E3D49" x="51.8" y="24.7" width="2.2" height="8.4" rx="1.1"/>
                <rect fill="#1E3D49" y="34.2" width="2.2" height="8.4" rx="1.1"/>
                <rect fill="#FFF" x="23" y="3" width="9" height="1" rx=".5"/>
            </g>
            <use stroke="#1E3D49" mask="url(#l)" stroke-dasharray="2,2" xlink:href="#a"/>
            <use stroke="#1E3D49" mask="url(#m)" stroke-dasharray="2,2" xlink:href="#b"/>
            <use stroke="#1E3D49" mask="url(#n)" stroke-dasharray="2,2" xlink:href="#c"/>
            <use stroke="#1E3D49" mask="url(#o)" stroke-dasharray="2,2" xlink:href="#d"/>
            <use stroke="#1E3D49" mask="url(#p)" stroke-dasharray="2,2" xlink:href="#e"/>
            <use stroke="#1E3D49" mask="url(#q)" stroke-dasharray="2,2" xlink:href="#f"/>
            <use stroke="#1E3D49" mask="url(#r)" stroke-dasharray="2,2" xlink:href="#g"/>
            <use stroke="#1E3D49" mask="url(#s)" stroke-dasharray="2,2" xlink:href="#h"/>
            <use stroke="#1E3D49" mask="url(#t)" stroke-dasharray="2,2" xlink:href="#i"/>
            <use stroke="#1E3D49" mask="url(#u)" stroke-dasharray="2,2" xlink:href="#j"/>
            <use stroke="#1E3D49" mask="url(#v)" stroke-dasharray="2,2" xlink:href="#k"/>
            <g transform="translate(0 12)">
                <rect stroke="#A6B0B5" stroke-width=".5" fill="#FFF" y=".3" width="98.9" height="17.5" rx="8.8"/>
                <path d="M88.8 12a3.4 3.4 0 1 0 0-6.9 3.4 3.4 0 0 0 0 6.9zm4.2.9-1.8-2" stroke-opacity=".5" stroke="#1E3D49" stroke-linecap="round" stroke-linejoin="round"/>
                <rect fill="#1E3D49" opacity=".2" x="7.7" y="5.1" width="53.8" height="7.7" rx="3.6"/>
            </g>
            <path stroke="#1E3D49" stroke-dasharray="3,2" d="M99.5 21.5h30m47 4h38"/>
            <g transform="translate(214.2 16)">
                <rect stroke="#A6B0B5" stroke-width=".5" fill="#FFF" x=".3" y=".3" width="53.1" height="17.4" rx="8.7"/>
                <path d="M9.4 12.3V5m3.7 3.6H5.8" stroke="#1E3D49" stroke-linecap="round" stroke-linejoin="round" stroke-opacity=".5" stroke-width="1.3"/>
                <rect fill="#1E3D49" x="17" y="4.7" width="28.8" height="8.4" rx="4.2"/>
            </g>
            <g transform="translate(63 40)">
                <rect fill="#FFF" width="36" height="49" rx="2.1"/>
                <rect fill="#1E3D49" x="3.5" y="3.6" width="28.9" height="21.3" rx="2.1"/>
                <rect fill="#1E3D49" opacity=".2" x="3.5" y="27.7" width="28.9" height="3.6" rx="1.8"/>
                <rect fill="#1E3D49" opacity=".2" x="3.9" y="33.7" width="19.8" height="1.4" rx=".7"/>
                <rect fill="#1E3D49" opacity=".2" x="3.9" y="36.5" width="10.6" height="1.4" rx=".7"/>
                <rect fill="#1E3D49" x="3.5" y="41.9" width="28.9" height="3.6" rx="1.8"/>
            </g>
            <g transform="translate(215 66)">
                <rect fill="#FFF" width="99" height="23" rx="2.5"/>
                <rect fill="#1E3D49" x="20.3" y="7.4" width="70.4" height="7.4" rx="3.7"/>
                <path stroke="#1E3D49" stroke-width="1.2" stroke-linecap="round" stroke-linejoin="round" d="m14.7 9.4-4 4L8.1 11"/>
            </g>
            <path d="M177.8 41.6h78.7a8 8 0 0 1 8 8v16" stroke="#1E3D49" stroke-dasharray="3,2"/>
        </g>
        <path stroke="#1E3D49" stroke-dasharray="3,2" d="M177.5 77.5h30"/>
    </g>
</svg>