<svg width="470" height="117" xmlns="http://www.w3.org/2000/svg" xmlns:xlink="http://www.w3.org/1999/xlink">
    <defs>
        <rect id="l" x="0" y="0" width="128.3" height="76" rx=".8"/>
        <rect id="a" x="95" y="13" width="111" height="8" rx="4"/>
        <rect id="b" x="95" y="26" width="31" height="6" rx="3"/>
        <rect id="c" x="95" y="37" width="31" height="45" rx="4"/>
        <rect id="d" x="132" y="37" width="21.7" height="20" rx="4"/>
        <rect id="e" x="132" y="62" width="21.7" height="20" rx="4"/>
        <rect id="f" x="158" y="37" width="21.7" height="20" rx="4"/>
        <rect id="g" x="158" y="62" width="21.7" height="20" rx="4"/>
        <rect id="h" x="184" y="37" width="21.7" height="20" rx="4"/>
        <rect id="i" x="184" y="62" width="21.7" height="20" rx="4"/>
        <rect id="j" x="130" y="26" width="21" height="6" rx="3"/>
        <mask id="m" maskContentUnits="userSpaceOnUse" maskUnits="objectBoundingBox" x="0" y="0" width="111" height="8" fill="#fff">
            <use xlink:href="#a"/>
        </mask>
        <mask id="n" maskContentUnits="userSpaceOnUse" maskUnits="objectBoundingBox" x="0" y="0" width="31" height="6" fill="#fff">
            <use xlink:href="#b"/>
        </mask>
        <mask id="o" maskContentUnits="userSpaceOnUse" maskUnits="objectBoundingBox" x="0" y="0" width="31" height="45" fill="#fff">
            <use xlink:href="#c"/>
        </mask>
        <mask id="p" maskContentUnits="userSpaceOnUse" maskUnits="objectBoundingBox" x="0" y="0" width="21.7" height="20" fill="#fff">
            <use xlink:href="#d"/>
        </mask>
        <mask id="q" maskContentUnits="userSpaceOnUse" maskUnits="objectBoundingBox" x="0" y="0" width="21.7" height="20" fill="#fff">
            <use xlink:href="#e"/>
        </mask>
        <mask id="r" maskContentUnits="userSpaceOnUse" maskUnits="objectBoundingBox" x="0" y="0" width="21.7" height="20" fill="#fff">
            <use xlink:href="#f"/>
        </mask>
        <mask id="s" maskContentUnits="userSpaceOnUse" maskUnits="objectBoundingBox" x="0" y="0" width="21.7" height="20" fill="#fff">
            <use xlink:href="#g"/>
        </mask>
        <mask id="t" maskContentUnits="userSpaceOnUse" maskUnits="objectBoundingBox" x="0" y="0" width="21.7" height="20" fill="#fff">
            <use xlink:href="#h"/>
        </mask>
        <mask id="u" maskContentUnits="userSpaceOnUse" maskUnits="objectBoundingBox" x="0" y="0" width="21.7" height="20" fill="#fff">
            <use xlink:href="#i"/>
        </mask>
        <mask id="v" maskContentUnits="userSpaceOnUse" maskUnits="objectBoundingBox" x="0" y="0" width="21" height="6" fill="#fff">
            <use xlink:href="#j"/>
        </mask>
        <filter x="-3.9%" y="-6.6%" width="115.6%" height="126.3%" filterUnits="objectBoundingBox" id="k">
            <feOffset dx="5" dy="5" in="SourceAlpha" result="shadowOffsetOuter1"/>
            <feGaussianBlur stdDeviation="2.5" in="shadowOffsetOuter1" result="shadowBlurOuter1"/>
            <feColorMatrix values="0 0 0 0 0.849920743 0 0 0 0 0.849920743 0 0 0 0 0.849920743 0 0 0 0.5 0" in="shadowBlurOuter1"/>
        </filter>
    </defs>
    <g transform="translate(69 16)" fill="none" fill-rule="evenodd">
        <g transform="translate(83)">
            <g transform="translate(4 4.5)">
                <use fill="#000" filter="url(#k)" xlink:href="#l"/>
                <use fill="#FFF" xlink:href="#l"/>
            </g>
            <path d="M128.3 1.1a6.7 6.7 0 0 1 6.7 6.7v69.3a6.7 6.7 0 0 1-6.7 6.7H6.7A6.7 6.7 0 0 1 0 77.1V7.8a6.7 6.7 0 0 1 6.7-6.7h121.6zm-2.8 5.6H9.5a4 4 0 0 0-3.9 4v63.6a4 4 0 0 0 4 4h115.9a4 4 0 0 0 3.9-4V10.6a4 4 0 0 0-4-3.9z" fill="#1E3D49"/>
            <circle fill="#FFF" cx="2.8" cy="42.5" r="1.1"/>
            <rect fill="#1E3D49" x="25.8" y="81.6" width="10.1" height="3.4" rx="1.7"/>
            <rect fill="#1E3D49" x="16.2" y="81.6" width="6.2" height="3.4" rx="1.1"/>
            <rect fill="#1E3D49" x="25.8" width="10.1" height="3.4" rx="1.7"/>
            <rect fill="#1E3D49" x="37" y="81.6" width="10.1" height="3.4" rx="1.7"/>
        </g>
        <g transform="translate(0 29)">
            <rect fill="#FFF" width="31" height="60" rx="2.1"/>
            <rect fill="#1E3D49" x="10.1" y="10.4" width="15.5" height="3.5" rx="1.7"/>
            <rect fill="#1E3D49" x="4.3" y="3.8" width="23.3" height="3.5" rx="1.7"/>
            <rect stroke="#1E3D49" stroke-width=".6" x="4.2" y="10.1" width="4" height="4" rx=".6"/>
            <rect stroke="#1E3D49" stroke-width=".6" x="4.2" y="15.9" width="4" height="4" rx=".6"/>
            <rect stroke="#1E3D49" stroke-width=".6" x="4.2" y="21.6" width="4" height="4" rx=".6"/>
            <rect fill="#1E3D49" x="10.1" y="16.2" width="14.1" height="3.5" rx="1.7"/>
            <rect fill="#1E3D49" x="10.1" y="21.9" width="17.5" height="3.5" rx="1.7"/>
            <rect fill="#1E3D49" x="10" y="40" width="16.8" height="3.5" rx="1.7"/>
            <rect fill="#1E3D49" x="10" y="45.8" width="12.2" height="3.5" rx="1.7"/>
            <rect fill="#1E3D49" x="10" y="51.6" width="14.2" height="3.5" rx="1.7"/>
            <rect fill="#1E3D49" x="4.2" y="32.2" width="22.5" height="1.4" rx=".7"/>
            <rect stroke="#1E3D49" stroke-width="1.2" fill="#FFF" x="18.5" y="31.5" width="2.9" height="2.8" rx="1.4"/>
            <rect stroke="#1E3D49" stroke-width=".6" x="4.2" y="39.8" width="4" height="4" rx=".6"/>
            <rect stroke="#1E3D49" stroke-width=".6" x="4.2" y="45.5" width="4" height="4" rx=".6"/>
            <rect stroke="#1E3D49" stroke-width=".6" x="4.2" y="51.3" width="4" height="4" rx=".6"/>
            <path stroke="#1E3D49" stroke-width=".6" d="m8.5 16.2-2.4 2.6-1.2-1.2m3.6 28-2.4 2.6L4.9 47"/>
        </g>
        <g transform="translate(234 36)">
            <rect fill="#FFF" width="36" height="49" rx="2.1"/>
            <rect fill="#1E3D49" x="3.5" y="3.6" width="28.9" height="21.3" rx="2.1"/>
            <rect fill="#1E3D49" opacity=".2" x="3.5" y="27.7" width="28.9" height="3.6" rx="1.8"/>
            <rect fill="#1E3D49" opacity=".2" x="3.9" y="33.7" width="19.8" height="1.4" rx=".7"/>
            <rect fill="#1E3D49" opacity=".2" x="3.9" y="36.5" width="10.6" height="1.4" rx=".7"/>
            <rect fill="#1E3D49" x="3.5" y="41.9" width="28.9" height="3.6" rx="1.8"/>
        </g>
        <g transform="translate(18.2)">
            <rect stroke="#A6B0B5" stroke-width=".5" fill="#FFF" x=".3" y=".3" width="53.1" height="17.4" rx="8.7"/>
            <path d="M9.4 12.3V5m3.7 3.6H5.8" stroke="#1E3D49" stroke-linecap="round" stroke-linejoin="round" stroke-opacity=".5" stroke-width="1.3"/>
            <rect fill="#1E3D49" x="17" y="4.7" width="28.8" height="8.4" rx="4.2"/>
        </g>
        <use stroke="#1E3D49" mask="url(#m)" stroke-dasharray="2,2" xlink:href="#a"/>
        <use stroke="#1E3D49" mask="url(#n)" stroke-dasharray="2,2" xlink:href="#b"/>
        <use stroke="#1E3D49" mask="url(#o)" stroke-dasharray="2,2" xlink:href="#c"/>
        <use stroke="#1E3D49" mask="url(#p)" stroke-dasharray="2,2" xlink:href="#d"/>
        <use stroke="#1E3D49" mask="url(#q)" stroke-dasharray="2,2" xlink:href="#e"/>
        <use stroke="#1E3D49" mask="url(#r)" stroke-dasharray="2,2" xlink:href="#f"/>
        <use stroke="#1E3D49" mask="url(#s)" stroke-dasharray="2,2" xlink:href="#g"/>
        <use stroke="#1E3D49" mask="url(#t)" stroke-dasharray="2,2" xlink:href="#h"/>
        <use stroke="#1E3D49" mask="url(#u)" stroke-dasharray="2,2" xlink:href="#i"/>
        <use stroke="#1E3D49" mask="url(#v)" stroke-dasharray="2,2" xlink:href="#j"/>
        <path stroke="#1E3D49" stroke-dasharray="3,2" d="M32.5 58.5h55M45 18v3a8 8 0 0 0 8 8h34"/>
        <g transform="translate(233 8)">
            <rect stroke="#A6B0B5" stroke-width=".5" fill="#FFF" y=".3" width="98.9" height="17.5" rx="8.8"/>
            <path d="M88.8 12a3.4 3.4 0 1 0 0-6.9 3.4 3.4 0 0 0 0 6.9zm4.2.9-1.8-2" stroke-opacity=".5" stroke="#1E3D49" stroke-linecap="round" stroke-linejoin="round"/>
            <rect fill="#1E3D49" opacity=".2" x="7.7" y="5.1" width="53.8" height="7.7" rx="3.6"/>
        </g>
        <path stroke="#1E3D49" stroke-dasharray="3,2" d="M214.5 17.5h19m-19 30h19"/>
    </g>
</svg>