<svg width="470" height="117" xmlns="http://www.w3.org/2000/svg" xmlns:xlink="http://www.w3.org/1999/xlink">
    <defs>
        <path d="M4.57 5.99.1 1.34c-.15-.14-.15-.28 0-.43l.8-.8c.16-.14.3-.15.43-.02l5.45 5.69c.05.05.08.12.08.21a.3.3 0 0 1-.08.21l-5.46 5.7c-.14.14-.28.14-.42 0l-.8-.83c-.15-.15-.15-.29 0-.43l4.46-4.65z" id="a"/>
        <path d="M4.57 5.99.1 1.34c-.15-.14-.15-.28 0-.43l.8-.8c.16-.14.3-.15.43-.02l5.45 5.69c.05.05.08.12.08.21a.3.3 0 0 1-.08.21l-5.46 5.7c-.14.14-.28.14-.42 0l-.8-.83c-.15-.15-.15-.29 0-.43l4.46-4.65z" id="c"/>
    </defs>
    <g fill="none" fill-rule="evenodd">
        <g transform="translate(94 16)">
            <path stroke="#1E3D49" stroke-linecap="square" stroke-dasharray="3,3" d="M140.71 40.5v33"/>
            <rect width="99.54" height="10.29" rx="5.14" transform="translate(90.94 72.86)" fill="#1E3D49"/>
            <g transform="matrix(-1 0 0 1 84.08 72)">
                <mask id="b" fill="#fff">
                    <use xlink:href="#a"/>
                </mask>
                <use stroke="#1E3D49" stroke-width="1.14" fill="#1E3D49" xlink:href="#a"/>
                <g mask="url(#b)" fill="#1E3D49">
                    <path d="M-7.98-5.7h22.8v22.8h-22.8z"/>
                </g>
            </g>
            <g transform="matrix(1 0 0 -1 197.35 84)">
                <mask id="d" fill="#fff">
                    <use xlink:href="#c"/>
                </mask>
                <use stroke="#1E3D49" stroke-width="1.14" fill="#1E3D49" xlink:href="#c"/>
                <g mask="url(#d)" fill="#1E3D49">
                    <path d="M-7.98-5.7h22.8v22.8h-22.8z"/>
                </g>
            </g>
            <circle cx="19" cy="19" r="18.5" fill="#FFF" stroke="#A6B0B5" transform="translate(121.71 16)"/>
            <path d="M139.94 23h1.62-1.62zm-.86 5.83c.6 0 1.09.5 1.09 1.13v5.1c0-.62.49-1.13 1.09-1.13.6 0 1.09.5 1.09 1.13 0-.62.49-1.13 1.1-1.13.6 0 1.08.5 1.08 1.13 0-.62.5-1.13 1.1-1.13.6 0 1.08.5 1.08 1.13v6.24c0 .94-.73 1.7-1.63 1.7H139c-.62 0-1.19-.36-1.46-.94l-2.4-5.55a1.14 1.14 0 0 1 .36-1.43c.48-.32 1.12-.21 1.4.26l1.02 1.42h.07v-6.8c0-.62.49-1.13 1.09-1.13zm0-5.1c2.4 0 4.36 2.03 4.36 4.53 0 1-.3 1.94-.88 2.74a4.46 4.46 0 0 1-1.3 1.19v-1.4a3.48 3.48 0 0 0 1.1-2.53c0-1.87-1.48-3.4-3.28-3.4a3.34 3.34 0 0 0-3.28 3.4 3.48 3.48 0 0 0 1.1 2.53v1.4a4.46 4.46 0 0 1-1.3-1.2 4.61 4.61 0 0 1-.89-2.73c0-2.5 1.96-4.53 4.37-4.53zm0 2.26c.58 0 1.12.24 1.54.66a2.35 2.35 0 0 1 .48 2.46 2.25 2.25 0 0 0-.97-1.13 1.14 1.14 0 0 0-.28-.52 1.06 1.06 0 0 0-.77-.33c-.5 0-.94.37-1.06.85-.43.25-.78.65-.96 1.13a2.35 2.35 0 0 1-.16-.96 2.22 2.22 0 0 1 2.17-2.15z" fill="#1E3D49"/>
            <rect stroke="#A6B0B5" stroke-width=".5" fill="#FFF" x=".25" y=".25" width="98.93" height="17.5" rx="8.75"/>
            <path d="M88.97 12a3.43 3.43 0 1 0 0-6.86 3.43 3.43 0 0 0 0 6.86zm4.29.86-1.87-1.87" stroke-opacity=".5" stroke="#1E3D49" stroke-width=".99" stroke-linecap="round" stroke-linejoin="round"/>
            <rect fill="#1E3D49" opacity=".18" x="7.89" y="5.14" width="53.77" height="7.71" rx="3.61"/>
            <g transform="translate(6.21 24)">
                <rect fill="#FFF" width="31" height="60" rx="2.15"/>
                <rect fill="#1E3D49" x="10.08" y="10.38" width="15.53" height="3.46" rx="1.73"/>
                <rect fill="#1E3D49" x="4.28" y="3.75" width="23.32" height="3.46" rx="1.73"/>
                <rect stroke="#1E3D49" stroke-width=".58" x="4.24" y="10.1" width="3.98" height="4.04" rx=".58"/>
                <rect stroke="#1E3D49" stroke-width=".58" x="4.24" y="15.87" width="3.98" height="4.04" rx=".58"/>
                <rect stroke="#1E3D49" stroke-width=".58" x="4.24" y="21.64" width="3.98" height="4.04" rx=".58"/>
                <rect fill="#1E3D49" x="10.08" y="16.15" width="14.09" height="3.46" rx="1.73"/>
                <rect fill="#1E3D49" x="10.08" y="21.92" width="17.48" height="3.46" rx="1.73"/>
                <rect fill="#1E3D49" x="9.95" y="40.05" width="16.78" height="3.46" rx="1.73"/>
                <rect fill="#1E3D49" x="9.95" y="45.82" width="12.23" height="3.46" rx="1.73"/>
                <rect fill="#1E3D49" x="9.95" y="51.59" width="14.22" height="3.46" rx="1.73"/>
                <rect fill="#1E3D49" x="4.24" y="32.18" width="22.49" height="1.42" rx=".71"/>
                <rect stroke="#1E3D49" stroke-width="1.15" fill="#FFF" x="18.55" y="31.48" width="2.94" height="2.8" rx="1.4"/>
                <rect stroke="#1E3D49" stroke-width=".58" x="4.24" y="39.76" width="3.98" height="4.04" rx=".58"/>
                <rect stroke="#1E3D49" stroke-width=".58" x="4.24" y="45.53" width="3.98" height="4.04" rx=".58"/>
                <rect stroke="#1E3D49" stroke-width=".58" x="4.24" y="51.3" width="3.98" height="4.04" rx=".58"/>
                <path stroke="#1E3D49" stroke-width=".58" d="m8.53 16.15-2.46 2.6-1.14-1.15m3.6 27.98-2.46 2.6-1.14-1.16"/>
            </g>
            <rect fill="#1E3D49" x="195" width="46" height="18" rx="9"/>
            <g transform="translate(245.21 24)">
                <rect fill="#FFF" width="37" height="50" rx="3"/>
                <rect fill="#1E3D49" x="3.63" y="3.62" width="29.75" height="21.74" rx="2.18"/>
                <rect fill="#1E3D49" opacity=".18" x="3.63" y="28.26" width="29.75" height="3.62" rx="1.81"/>
                <rect fill="#1E3D49" opacity=".18" x="3.99" y="34.36" width="20.31" height="1.45" rx=".72"/>
                <rect fill="#1E3D49" opacity=".18" x="3.99" y="37.26" width="10.88" height="1.45" rx=".72"/>
                <rect fill="#1E3D49" x="3.63" y="42.75" width="29.75" height="3.62" rx="1.81"/>
            </g>
            <path d="M202.05 41.5v1h3v-1h-3zm-5 0v1h3v-1h-3zm-5 0v1h3v-1h-3zm-5 0v1h3v-1h-3zm-5 0v1h3v-1h-3zm-5 0v1h3v-1h-3zm-5 0v1h3v-1h-3zm-5 0v1h3v-1h-3zm-5 0v1h3v-1h-3zm-4.49 0v1h2.49v-1h-2.49zm52.41-.13c-.34.06-.69.1-1.04.12l-.35.01h-1.53v1h1.53c.4 0 .8-.03 1.19-.09l.39-.06-.19-.98zm4.05-2.23a7.53 7.53 0 0 1-1.95 1.5l-.32.15.43.9a8.52 8.52 0 0 0 2.32-1.61l.25-.26-.73-.68zm1.98-4.2a7.45 7.45 0 0 1-.7 2.36l-.17.31.88.48a8.44 8.44 0 0 0 .93-2.67l.05-.36-.99-.12zm.56-13.44a4.5 4.5 0 0 0-.5 8.97V33h1v-2.53a4.5 4.5 0 0 0-.5-8.97zm0 1a3.5 3.5 0 1 1 0 7 3.5 3.5 0 0 1 0-7zM71.15 41.37c.34.06.69.1 1.04.12l.35.01h1.53v1h-1.53a8.57 8.57 0 0 1-1.19-.09l-.39-.06.19-.98zm7.92.13v1h-3v-1h3zm5 0v1h-3v-1h3zm5 0v1h-3v-1h3zm5 0v1h-3v-1h3zm5 0v1h-3v-1h3zm5 0v1h-3v-1h3zm5 0v1h-3v-1h3zm5 0v1h-3v-1h3zm5 0v1h-3v-1h3zm4.49 0v1h-2.49v-1h2.49zm-56.47-2.36a7.53 7.53 0 0 0 1.96 1.5l.32.15-.43.9a8.52 8.52 0 0 1-2.33-1.61l-.25-.26.73-.68zm-1.97-4.2c.1.82.34 1.62.7 2.36l.16.31-.87.48a8.44 8.44 0 0 1-.93-2.67l-.06-.36 1-.12zm-.56-13.44a4.5 4.5 0 0 1 .5 8.97V33h-1v-2.53a4.5 4.5 0 0 1 .5-8.97zm0 1a3.5 3.5 0 1 0 0 7 3.5 3.5 0 0 0 0-7zm172.06 32.12a4.5 4.5 0 0 0-4.48 4h-.45v1h.45a4.5 4.5 0 1 0 4.48-5zm0 1a3.5 3.5 0 1 1 0 7 3.5 3.5 0 0 1 0-7zm-79.8 2.95-.12 1 .6.05H159.7v-1h-2.07a6.57 6.57 0 0 1-.8-.05zm4.87.05v1h3v-1h-3zm5 0v1h3v-1h-3zm5 0v1h3v-1h-3zm5 0v1h3v-1h-3zm5 0v1h3v-1h-3zm5 0v1h3v-1h-3zm5 0v1h3v-1h-3zm5 0v1h3v-1h-3zm5 0v1h3v-1h-3zm5 0v1h3v-1h-3zm5 0v1h3v-1h-3zm5 0v1h3v-1h-3zm5 0v1h3v-1h-3zm5 0v1h3v-1h-3zm-73.94-2.18-.74.66a7.53 7.53 0 0 0 2.27 1.74l.33.15.4-.91a6.52 6.52 0 0 1-2.26-1.64zm-2.64-4.32c0 .98.2 1.93.55 2.81l.14.33.91-.42a6.46 6.46 0 0 1-.59-2.4v-.32h-1zm-104.5 3.5a4.5 4.5 0 0 1 4.48 4h1.01v1H50.1a4.5 4.5 0 1 1-4.47-5zm0 1a3.5 3.5 0 1 0 0 7 3.5 3.5 0 0 0 0-7zm80.22 2.67.3.96a8.48 8.48 0 0 1-2.15.37h-.88v-1h.52c.76 0 1.5-.11 2.2-.33zm-4.73.33v1h-3v-1h3zm-5 0v1h-3v-1h3zm-5 0v1h-3v-1h3zm-5 0v1h-3v-1h3zm-5 0v1h-3v-1h3zm-5 0v1h-3v-1h3zm-5 0v1h-3v-1h3zm-5 0v1h-3v-1h3zm-5 0v1h-3v-1h3zm-5 0v1h-3v-1h3zm-5 0v1h-3v-1h3zm-5 0v1h-3v-1h3zm-5 0v1h-3v-1h3zm-5 0v1h-3v-1h3zm73.55-3.04.8.59a8.54 8.54 0 0 1-2.03 1.97l-.3.2-.53-.85a7.54 7.54 0 0 0 2.06-1.91zm2.46-4.46c0 .97-.16 1.91-.47 2.8l-.12.33-.93-.37a7.46 7.46 0 0 0 .52-2.4v-.36h1z" fill="#1E3D49" fill-rule="nonzero"/>
        </g>
        <path d="M314.2 26.5a1.2 1.2 0 1 0 0 2.4 1.2 1.2 0 0 0 0-2.4zm0 1.68a.48.48 0 1 1 0-.96.48.48 0 0 1 0 .96zm1.73-6.06a.34.34 0 0 0-.27-.12h-6.58l-.3-1.25a.34.34 0 0 0-.33-.25h-1.11a.33.33 0 0 0-.34.33c0 .18.15.33.34.33h.84l1.1 4.49a.34.34 0 0 0 .32.25h5.24c.16 0 .3-.1.33-.25l.82-3.25a.33.33 0 0 0-.06-.28zm-1.35 3.12h-4.71l-.63-2.58h6l-.66 2.58zM310 26.5a1.2 1.2 0 1 0 0 2.4 1.2 1.2 0 0 0 0-2.4zm0 1.68a.48.48 0 1 1 0-.96.48.48 0 0 1 0 .96z" fill="#FFF" fill-rule="nonzero"/>
    </g>
</svg>